<?xml version="1.0" encoding="utf-8" standalone="no"?>
<!DOCTYPE svg PUBLIC "-//W3C//DTD SVG 1.1//EN"
  "http://www.w3.org/Graphics/SVG/1.1/DTD/svg11.dtd">
<svg xmlns:xlink="http://www.w3.org/1999/xlink" width="432pt" height="288pt" viewBox="0 0 432 288" xmlns="http://www.w3.org/2000/svg" version="1.1">
 <metadata>
  <rdf:RDF xmlns:dc="http://purl.org/dc/elements/1.1/" xmlns:cc="http://creativecommons.org/ns#" xmlns:rdf="http://www.w3.org/1999/02/22-rdf-syntax-ns#">
   <cc:Work>
    <dc:type rdf:resource="http://purl.org/dc/dcmitype/StillImage"/>
    <dc:date>2023-08-21T16:54:58.530603</dc:date>
    <dc:format>image/svg+xml</dc:format>
    <dc:creator>
     <cc:Agent>
      <dc:title>Matplotlib v3.7.1, https://matplotlib.org/</dc:title>
     </cc:Agent>
    </dc:creator>
   </cc:Work>
  </rdf:RDF>
 </metadata>
 <defs>
  <style type="text/css">*{stroke-linejoin: round; stroke-linecap: butt}</style>
 </defs>
 <g id="figure_1">
  <g id="patch_1">
   <path d="M 0 288 
L 432 288 
L 432 0 
L 0 0 
z
" style="fill: #ffffff"/>
  </g>
  <g id="axes_1">
   <g id="patch_2">
    <path d="M 54 111.876923 
L 208.956522 111.876923 
L 208.956522 28.8 
L 54 28.8 
z
" style="fill: #ffffff"/>
   </g>
   <g id="line2d_1">
    <path d="M -1 104.504296 
L 100.382264 104.432368 
L 100.38207 104.432368 
L 100.53357 88.608192 
L 100.539173 88.536264 
L 100.65737 85.083716 
L 100.664845 85.011788 
L 100.774459 83.285514 
L 100.786195 83.213586 
L 100.900389 81.703097 
L 100.912858 81.631169 
L 101.023585 79.904895 
L 101.051644 79.832967 
L 101.152816 78.61019 
L 101.172818 78.538262 
L 101.253757 77.171628 
L 101.307781 77.0997 
L 101.422714 75.661139 
L 101.425004 75.589211 
L 101.53438 74.582218 
L 101.555443 74.51029 
L 101.655721 73.647153 
L 101.71606 73.575225 
L 101.824145 72.784016 
L 101.839388 72.712088 
L 101.935781 72.136663 
L 101.965802 72.064735 
L 102.05991 71.201598 
L 102.096733 71.12967 
L 102.204133 70.266533 
L 102.233371 70.194605 
L 102.345685 69.619181 
L 102.359844 69.547253 
L 102.454681 68.971828 
L 102.540815 68.8999 
L 102.644817 68.468332 
L 102.663321 68.396404 
L 102.763112 68.036763 
L 102.804628 67.964835 
L 102.912119 67.389411 
L 102.955295 67.317483 
L 103.049094 66.67013 
L 103.075835 66.598202 
L 103.179083 65.806993 
L 103.237994 65.735065 
L 103.349206 65.303497 
L 103.364396 65.231568 
L 103.435146 64.728072 
L 103.513141 64.656144 
L 103.624762 64.080719 
L 103.646791 64.008791 
L 103.755337 63.361439 
L 103.791894 63.28951 
L 103.874637 62.714086 
L 103.916794 62.642158 
L 104.028219 61.922877 
L 104.086699 61.850949 
L 104.187559 61.203596 
L 104.212313 61.131668 
L 104.29109 60.843956 
L 104.367602 60.772028 
L 104.454715 60.268531 
L 104.602811 60.196603 
L 104.696539 59.693107 
L 104.719252 59.621179 
L 104.818219 58.973826 
L 104.906729 58.901898 
L 104.997955 58.758042 
L 105.025413 58.686114 
L 105.119517 58.398402 
L 105.148133 58.326474 
L 105.258876 57.966833 
L 105.342577 57.894905 
L 105.452381 57.607193 
L 105.527066 57.535265 
L 105.593002 57.319481 
L 105.813861 57.247552 
L 105.879456 56.744056 
L 105.979547 56.672128 
L 106.085287 56.456344 
L 106.123758 56.384416 
L 106.225062 56.096703 
L 106.25605 56.024775 
L 106.265717 55.737063 
L 106.397897 55.665135 
L 106.499036 55.233566 
L 106.695567 55.161638 
L 106.80625 54.801998 
L 106.928778 54.73007 
L 107.016096 54.37043 
L 107.278289 54.298501 
L 107.340397 53.866933 
L 107.498414 53.795005 
L 107.53583 53.579221 
L 107.705948 53.507293 
L 107.807128 53.003796 
L 108.011972 52.931868 
L 108.10674 52.644156 
L 108.345426 52.572228 
L 108.374033 52.284515 
L 108.502831 52.212587 
L 108.60741 51.781019 
L 108.671191 51.709091 
L 108.770911 51.565235 
L 108.920992 51.493307 
L 109.017313 51.133666 
L 109.061764 51.061738 
L 109.128296 50.845954 
L 109.210733 50.774026 
L 109.293172 50.486314 
L 109.357214 50.414386 
L 109.431729 50.198601 
L 109.669518 50.126673 
L 109.758223 49.982817 
L 109.805371 49.910889 
L 109.915345 49.551249 
L 110.076499 49.479321 
L 110.186573 49.191608 
L 110.315147 49.11968 
L 110.371152 48.831968 
L 110.744979 48.76004 
L 110.836879 48.616184 
L 110.950056 48.544256 
L 110.95025 48.472328 
L 111.065361 48.4004 
L 111.149952 48.184615 
L 111.258543 48.112687 
L 111.304111 47.896903 
L 111.475203 47.824975 
L 111.521886 47.681119 
L 111.64443 47.609191 
L 111.644624 47.537263 
L 111.803213 47.465335 
L 111.803406 47.393407 
L 112.051899 47.321479 
L 112.138921 47.033766 
L 112.340622 46.961838 
L 112.340816 46.88991 
L 112.617977 46.817982 
L 112.655555 46.602198 
L 113.0051 46.53027 
L 113.037524 46.314486 
L 113.210146 46.242557 
L 113.308253 45.882917 
L 113.420406 45.810989 
L 113.431413 45.667133 
L 113.664461 45.595205 
L 113.674513 45.451349 
L 113.796557 45.379421 
L 113.849524 45.163636 
L 114.012444 45.091708 
L 114.114856 44.947852 
L 114.268666 44.875924 
L 114.26886 44.803996 
L 114.472088 44.732068 
L 114.472282 44.66014 
L 114.790337 44.588212 
L 114.815862 44.444356 
L 114.919358 44.372428 
L 115.01951 44.156643 
L 115.144573 44.084715 
L 115.226995 43.940859 
L 115.339479 43.868931 
L 115.339672 43.797003 
L 115.690015 43.725075 
L 115.690209 43.653147 
L 115.923796 43.581219 
L 115.923989 43.509291 
L 116.221814 43.437363 
L 116.318305 43.221578 
L 116.393495 43.14965 
L 116.431205 42.933866 
L 116.696176 42.861938 
L 116.731089 42.646154 
L 117.126733 42.574226 
L 117.220455 42.358442 
L 117.547117 42.286513 
L 117.547311 42.214585 
L 117.84229 42.142657 
L 117.842484 42.070729 
L 117.999534 41.998801 
L 118.038397 41.854945 
L 118.433369 41.783017 
L 118.464183 41.639161 
L 118.591668 41.567233 
L 118.591862 41.495305 
L 118.98794 41.423377 
L 119.01926 41.207592 
L 119.214775 41.135664 
L 119.29442 40.991808 
L 119.593006 40.91988 
L 119.676736 40.704096 
L 120.0824 40.632168 
L 120.082594 40.56024 
L 120.483145 40.488312 
L 120.592588 40.344456 
L 120.689063 40.272527 
L 120.778759 40.128671 
L 121.142661 40.056743 
L 121.248505 39.840959 
L 121.382224 39.769031 
L 121.408409 39.625175 
L 121.744241 39.553247 
L 121.776207 39.409391 
L 121.980293 39.337463 
L 121.980487 39.265534 
L 122.11994 39.193606 
L 122.211103 38.977822 
L 122.438034 38.905894 
L 122.438228 38.833966 
L 122.942276 38.762038 
L 122.942469 38.69011 
L 123.299744 38.618182 
L 123.316625 38.474326 
L 124.068757 38.402398 
L 124.068951 38.33047 
L 125.376395 38.258541 
L 125.376589 38.186613 
L 125.723129 38.114685 
L 125.780586 37.970829 
L 126.34464 37.898901 
L 126.448712 37.755045 
L 126.883326 37.683117 
L 126.88352 37.611189 
L 127.244534 37.539261 
L 127.257993 37.395405 
L 127.495329 37.323477 
L 127.495522 37.251548 
L 127.97123 37.17962 
L 128.060665 37.035764 
L 129.688511 36.963836 
L 129.688705 36.891908 
L 130.140791 36.81998 
L 130.232127 36.532268 
L 130.562232 36.46034 
L 130.562426 36.388412 
L 130.844793 36.316484 
L 130.844987 36.244555 
L 132.099211 36.172627 
L 132.099404 36.100699 
L 132.926337 36.028771 
L 133.030574 35.884915 
L 133.672487 35.812987 
L 133.776375 35.669131 
L 135.448389 35.597203 
L 135.448582 35.525275 
L 136.026944 35.453347 
L 136.102918 35.309491 
L 136.426813 35.237562 
L 136.427007 35.165634 
L 137.505991 35.093706 
L 137.51309 34.94985 
L 138.770046 34.877922 
L 138.77024 34.805994 
L 139.922904 34.734066 
L 139.923098 34.662138 
L 140.701426 34.59021 
L 140.70162 34.518282 
L 141.533462 34.446354 
L 141.533656 34.374426 
L 143.698614 34.302498 
L 143.698807 34.230569 
L 146.727453 34.158641 
L 146.727647 34.086713 
L 147.699547 34.014785 
L 147.699741 33.942857 
L 149.377008 33.870929 
L 149.377202 33.799001 
L 152.798544 33.727073 
L 152.8673 33.583217 
L 153.49701 33.511289 
L 153.497204 33.439361 
L 154.818225 33.367433 
L 154.818419 33.295504 
L 158.18995 33.223576 
L 158.190144 33.151648 
L 159.588999 33.07972 
L 159.589193 33.007792 
L 161.080679 32.935864 
L 161.080872 32.863936 
L 171.673481 32.792008 
L 171.673674 32.72008 
L 215.599363 32.648152 
L 215.599556 32.576224 
L 305.804348 32.576224 
L 305.804348 32.576224 
" clip-path="url(#pb8f27271c7)" style="fill: none; stroke: #1e90ff; stroke-width: 3; stroke-linecap: square"/>
   </g>
   <g id="matplotlib.axis_1">
    <g id="xtick_1">
     <g id="line2d_2">
      <defs>
       <path id="m1759974751" d="M 0 0 
L 0 3.5 
" style="stroke: #000000; stroke-width: 0.8"/>
      </defs>
      <g>
       <use xlink:href="#m1759974751" x="73.369565" y="111.876923" style="stroke: #000000; stroke-width: 0.8"/>
      </g>
     </g>
     <g id="text_1">
      <!-- −2 -->
      <g transform="translate(65.998471 126.475361) scale(0.1 -0.1)">
       <defs>
        <path id="DejaVuSans-2212" d="M 678 2272 
L 4684 2272 
L 4684 1741 
L 678 1741 
L 678 2272 
z
" transform="scale(0.015625)"/>
        <path id="DejaVuSans-32" d="M 1228 531 
L 3431 531 
L 3431 0 
L 469 0 
L 469 531 
Q 828 903 1448 1529 
Q 2069 2156 2228 2338 
Q 2531 2678 2651 2914 
Q 2772 3150 2772 3378 
Q 2772 3750 2511 3984 
Q 2250 4219 1831 4219 
Q 1534 4219 1204 4116 
Q 875 4013 500 3803 
L 500 4441 
Q 881 4594 1212 4672 
Q 1544 4750 1819 4750 
Q 2544 4750 2975 4387 
Q 3406 4025 3406 3419 
Q 3406 3131 3298 2873 
Q 3191 2616 2906 2266 
Q 2828 2175 2409 1742 
Q 1991 1309 1228 531 
z
" transform="scale(0.015625)"/>
       </defs>
       <use xlink:href="#DejaVuSans-2212"/>
       <use xlink:href="#DejaVuSans-32" x="83.789062"/>
      </g>
     </g>
    </g>
    <g id="xtick_2">
     <g id="line2d_3">
      <g>
       <use xlink:href="#m1759974751" x="112.108696" y="111.876923" style="stroke: #000000; stroke-width: 0.8"/>
      </g>
     </g>
     <g id="text_2">
      <!-- 0 -->
      <g transform="translate(108.927446 126.475361) scale(0.1 -0.1)">
       <defs>
        <path id="DejaVuSans-30" d="M 2034 4250 
Q 1547 4250 1301 3770 
Q 1056 3291 1056 2328 
Q 1056 1369 1301 889 
Q 1547 409 2034 409 
Q 2525 409 2770 889 
Q 3016 1369 3016 2328 
Q 3016 3291 2770 3770 
Q 2525 4250 2034 4250 
z
M 2034 4750 
Q 2819 4750 3233 4129 
Q 3647 3509 3647 2328 
Q 3647 1150 3233 529 
Q 2819 -91 2034 -91 
Q 1250 -91 836 529 
Q 422 1150 422 2328 
Q 422 3509 836 4129 
Q 1250 4750 2034 4750 
z
" transform="scale(0.015625)"/>
       </defs>
       <use xlink:href="#DejaVuSans-30"/>
      </g>
     </g>
    </g>
    <g id="xtick_3">
     <g id="line2d_4">
      <g>
       <use xlink:href="#m1759974751" x="150.847826" y="111.876923" style="stroke: #000000; stroke-width: 0.8"/>
      </g>
     </g>
     <g id="text_3">
      <!-- 2 -->
      <g transform="translate(147.666576 126.475361) scale(0.1 -0.1)">
       <use xlink:href="#DejaVuSans-32"/>
      </g>
     </g>
    </g>
    <g id="xtick_4">
     <g id="line2d_5">
      <g>
       <use xlink:href="#m1759974751" x="189.586957" y="111.876923" style="stroke: #000000; stroke-width: 0.8"/>
      </g>
     </g>
     <g id="text_4">
      <!-- 4 -->
      <g transform="translate(186.405707 126.475361) scale(0.1 -0.1)">
       <defs>
        <path id="DejaVuSans-34" d="M 2419 4116 
L 825 1625 
L 2419 1625 
L 2419 4116 
z
M 2253 4666 
L 3047 4666 
L 3047 1625 
L 3713 1625 
L 3713 1100 
L 3047 1100 
L 3047 0 
L 2419 0 
L 2419 1100 
L 313 1100 
L 313 1709 
L 2253 4666 
z
" transform="scale(0.015625)"/>
       </defs>
       <use xlink:href="#DejaVuSans-34"/>
      </g>
     </g>
    </g>
    <g id="text_5">
     <!-- x -->
     <g transform="translate(128.518886 140.153486) scale(0.1 -0.1)">
      <defs>
       <path id="DejaVuSans-78" d="M 3513 3500 
L 2247 1797 
L 3578 0 
L 2900 0 
L 1881 1375 
L 863 0 
L 184 0 
L 1544 1831 
L 300 3500 
L 978 3500 
L 1906 2253 
L 2834 3500 
L 3513 3500 
z
" transform="scale(0.015625)"/>
      </defs>
      <use xlink:href="#DejaVuSans-78"/>
     </g>
    </g>
   </g>
   <g id="matplotlib.axis_2">
    <g id="ytick_1">
     <g id="line2d_6">
      <defs>
       <path id="m3a98d76e28" d="M 0 0 
L -3.5 0 
" style="stroke: #000000; stroke-width: 0.8"/>
      </defs>
      <g>
       <use xlink:href="#m3a98d76e28" x="54" y="104.504296" style="stroke: #000000; stroke-width: 0.8"/>
      </g>
     </g>
     <g id="text_6">
      <!-- 0.0 -->
      <g transform="translate(31.096875 108.303514) scale(0.1 -0.1)">
       <defs>
        <path id="DejaVuSans-2e" d="M 684 794 
L 1344 794 
L 1344 0 
L 684 0 
L 684 794 
z
" transform="scale(0.015625)"/>
       </defs>
       <use xlink:href="#DejaVuSans-30"/>
       <use xlink:href="#DejaVuSans-2e" x="63.623047"/>
       <use xlink:href="#DejaVuSans-30" x="95.410156"/>
      </g>
     </g>
    </g>
    <g id="ytick_2">
     <g id="line2d_7">
      <g>
       <use xlink:href="#m3a98d76e28" x="54" y="68.54026" style="stroke: #000000; stroke-width: 0.8"/>
      </g>
     </g>
     <g id="text_7">
      <!-- 0.5 -->
      <g transform="translate(31.096875 72.339478) scale(0.1 -0.1)">
       <defs>
        <path id="DejaVuSans-35" d="M 691 4666 
L 3169 4666 
L 3169 4134 
L 1269 4134 
L 1269 2991 
Q 1406 3038 1543 3061 
Q 1681 3084 1819 3084 
Q 2600 3084 3056 2656 
Q 3513 2228 3513 1497 
Q 3513 744 3044 326 
Q 2575 -91 1722 -91 
Q 1428 -91 1123 -41 
Q 819 9 494 109 
L 494 744 
Q 775 591 1075 516 
Q 1375 441 1709 441 
Q 2250 441 2565 725 
Q 2881 1009 2881 1497 
Q 2881 1984 2565 2268 
Q 2250 2553 1709 2553 
Q 1456 2553 1204 2497 
Q 953 2441 691 2322 
L 691 4666 
z
" transform="scale(0.015625)"/>
       </defs>
       <use xlink:href="#DejaVuSans-30"/>
       <use xlink:href="#DejaVuSans-2e" x="63.623047"/>
       <use xlink:href="#DejaVuSans-35" x="95.410156"/>
      </g>
     </g>
    </g>
    <g id="ytick_3">
     <g id="line2d_8">
      <g>
       <use xlink:href="#m3a98d76e28" x="54" y="32.576224" style="stroke: #000000; stroke-width: 0.8"/>
      </g>
     </g>
     <g id="text_8">
      <!-- 1.0 -->
      <g transform="translate(31.096875 36.375443) scale(0.1 -0.1)">
       <defs>
        <path id="DejaVuSans-31" d="M 794 531 
L 1825 531 
L 1825 4091 
L 703 3866 
L 703 4441 
L 1819 4666 
L 2450 4666 
L 2450 531 
L 3481 531 
L 3481 0 
L 794 0 
L 794 531 
z
" transform="scale(0.015625)"/>
       </defs>
       <use xlink:href="#DejaVuSans-31"/>
       <use xlink:href="#DejaVuSans-2e" x="63.623047"/>
       <use xlink:href="#DejaVuSans-30" x="95.410156"/>
      </g>
     </g>
    </g>
    <g id="text_9">
     <!-- CDF -->
     <g transform="translate(25.017187 80.555649) rotate(-90) scale(0.1 -0.1)">
      <defs>
       <path id="DejaVuSans-43" d="M 4122 4306 
L 4122 3641 
Q 3803 3938 3442 4084 
Q 3081 4231 2675 4231 
Q 1875 4231 1450 3742 
Q 1025 3253 1025 2328 
Q 1025 1406 1450 917 
Q 1875 428 2675 428 
Q 3081 428 3442 575 
Q 3803 722 4122 1019 
L 4122 359 
Q 3791 134 3420 21 
Q 3050 -91 2638 -91 
Q 1578 -91 968 557 
Q 359 1206 359 2328 
Q 359 3453 968 4101 
Q 1578 4750 2638 4750 
Q 3056 4750 3426 4639 
Q 3797 4528 4122 4306 
z
" transform="scale(0.015625)"/>
       <path id="DejaVuSans-44" d="M 1259 4147 
L 1259 519 
L 2022 519 
Q 2988 519 3436 956 
Q 3884 1394 3884 2338 
Q 3884 3275 3436 3711 
Q 2988 4147 2022 4147 
L 1259 4147 
z
M 628 4666 
L 1925 4666 
Q 3281 4666 3915 4102 
Q 4550 3538 4550 2338 
Q 4550 1131 3912 565 
Q 3275 0 1925 0 
L 628 0 
L 628 4666 
z
" transform="scale(0.015625)"/>
       <path id="DejaVuSans-46" d="M 628 4666 
L 3309 4666 
L 3309 4134 
L 1259 4134 
L 1259 2759 
L 3109 2759 
L 3109 2228 
L 1259 2228 
L 1259 0 
L 628 0 
L 628 4666 
z
" transform="scale(0.015625)"/>
      </defs>
      <use xlink:href="#DejaVuSans-43"/>
      <use xlink:href="#DejaVuSans-44" x="69.824219"/>
      <use xlink:href="#DejaVuSans-46" x="146.826172"/>
     </g>
    </g>
   </g>
   <g id="line2d_9">
    <path d="M -1 104.504296 
L 100.38207 104.504296 
L 100.382264 90.118681 
L 103.791894 90.118681 
L 103.792088 75.733067 
L 110.153525 75.733067 
L 110.153719 61.347453 
L 130.151307 61.347453 
L 130.151501 46.961838 
L 155.212921 46.961838 
L 155.213114 32.576224 
L 305.804348 32.576224 
" clip-path="url(#pb8f27271c7)" style="fill: none; stroke: #ff0000; stroke-width: 3; stroke-linecap: square"/>
   </g>
   <g id="patch_3">
    <path d="M 54 111.876923 
L 54 28.8 
" style="fill: none; stroke: #000000; stroke-width: 0.8; stroke-linejoin: miter; stroke-linecap: square"/>
   </g>
   <g id="patch_4">
    <path d="M 208.956522 111.876923 
L 208.956522 28.8 
" style="fill: none; stroke: #000000; stroke-width: 0.8; stroke-linejoin: miter; stroke-linecap: square"/>
   </g>
   <g id="patch_5">
    <path d="M 54 111.876923 
L 208.956522 111.876923 
" style="fill: none; stroke: #000000; stroke-width: 0.8; stroke-linejoin: miter; stroke-linecap: square"/>
   </g>
   <g id="patch_6">
    <path d="M 54 28.8 
L 208.956522 28.8 
" style="fill: none; stroke: #000000; stroke-width: 0.8; stroke-linejoin: miter; stroke-linecap: square"/>
   </g>
   <g id="text_10">
    <!-- CDF of x -->
    <g transform="translate(106.069198 22.8) scale(0.12 -0.12)">
     <defs>
      <path id="DejaVuSans-20" transform="scale(0.015625)"/>
      <path id="DejaVuSans-6f" d="M 1959 3097 
Q 1497 3097 1228 2736 
Q 959 2375 959 1747 
Q 959 1119 1226 758 
Q 1494 397 1959 397 
Q 2419 397 2687 759 
Q 2956 1122 2956 1747 
Q 2956 2369 2687 2733 
Q 2419 3097 1959 3097 
z
M 1959 3584 
Q 2709 3584 3137 3096 
Q 3566 2609 3566 1747 
Q 3566 888 3137 398 
Q 2709 -91 1959 -91 
Q 1206 -91 779 398 
Q 353 888 353 1747 
Q 353 2609 779 3096 
Q 1206 3584 1959 3584 
z
" transform="scale(0.015625)"/>
      <path id="DejaVuSans-66" d="M 2375 4863 
L 2375 4384 
L 1825 4384 
Q 1516 4384 1395 4259 
Q 1275 4134 1275 3809 
L 1275 3500 
L 2222 3500 
L 2222 3053 
L 1275 3053 
L 1275 0 
L 697 0 
L 697 3053 
L 147 3053 
L 147 3500 
L 697 3500 
L 697 3744 
Q 697 4328 969 4595 
Q 1241 4863 1831 4863 
L 2375 4863 
z
" transform="scale(0.015625)"/>
     </defs>
     <use xlink:href="#DejaVuSans-43"/>
     <use xlink:href="#DejaVuSans-44" x="69.824219"/>
     <use xlink:href="#DejaVuSans-46" x="146.826172"/>
     <use xlink:href="#DejaVuSans-20" x="204.345703"/>
     <use xlink:href="#DejaVuSans-6f" x="236.132812"/>
     <use xlink:href="#DejaVuSans-66" x="297.314453"/>
     <use xlink:href="#DejaVuSans-20" x="332.519531"/>
     <use xlink:href="#DejaVuSans-78" x="364.306641"/>
    </g>
   </g>
   <g id="line2d_10">
    <path d="M -1 104.504296 
L 78.112586 104.393239 
L 78.470307 104.378278 
L 80.278139 104.267221 
L 80.677095 104.237586 
L 81.78741 104.126529 
L 81.787344 104.126529 
L 82.246881 104.074382 
L 83.053907 103.963325 
L 83.605373 103.877011 
L 84.213158 103.765954 
L 84.213009 103.765954 
L 84.94319 103.613251 
L 85.393596 103.502194 
L 86.833358 103.085874 
L 87.16906 102.974817 
L 87.168876 102.974817 
L 89.627861 101.943225 
L 89.627672 101.943225 
L 89.84125 101.832168 
L 89.841076 101.832168 
L 90.524163 101.460012 
L 90.523986 101.460012 
L 90.715991 101.348955 
L 90.715804 101.348955 
L 91.23402 101.03801 
L 91.233891 101.03801 
L 91.409145 100.926953 
L 91.408984 100.926953 
L 91.83354 100.650821 
L 91.833379 100.650821 
L 91.994815 100.539764 
L 91.994652 100.539764 
L 92.371885 100.281183 
L 92.371701 100.281183 
L 92.525931 100.170126 
L 92.525919 100.170126 
L 92.837863 99.935784 
L 92.837719 99.935784 
L 92.984534 99.824727 
L 92.984475 99.824727 
L 93.263325 99.602685 
L 93.263232 99.602685 
L 93.409337 99.491628 
L 93.409169 99.491628 
L 93.711345 99.260955 
L 93.711166 99.260955 
L 93.844177 99.149898 
L 94.103337 98.935193 
L 94.103166 98.935193 
L 94.239407 98.824136 
L 94.239215 98.824136 
L 94.480351 98.61612 
L 94.48016 98.61612 
L 94.607655 98.505063 
L 94.607651 98.505063 
L 94.838421 98.300859 
L 94.838228 98.300859 
L 94.9613 98.189802 
L 94.961137 98.189802 
L 95.176592 97.991281 
L 95.176451 97.991281 
L 95.293507 97.880224 
L 95.508331 97.68199 
L 95.508153 97.68199 
L 95.62656 97.570933 
L 95.626435 97.570933 
L 95.825045 97.378669 
L 95.824893 97.378669 
L 95.940623 97.267612 
L 95.940494 97.267612 
L 96.142014 97.07427 
L 96.141894 97.07427 
L 96.251764 96.963213 
L 96.251588 96.963213 
L 96.441088 96.77433 
L 96.440952 96.77433 
L 96.546191 96.663273 
L 96.546084 96.663273 
L 96.720922 96.479856 
L 96.720778 96.479856 
L 96.825686 96.368799 
L 96.998458 96.186174 
L 96.99828 96.186174 
L 97.104683 96.075117 
L 97.277899 95.892276 
L 97.277788 95.892276 
L 97.38239 95.781219 
L 97.382272 95.781219 
L 97.555506 95.598378 
L 97.555365 95.598378 
L 97.660901 95.487321 
L 97.660857 95.487321 
L 97.824768 95.307932 
L 97.824632 95.307932 
L 97.926601 95.196875 
L 97.926559 95.196875 
L 98.091541 95.017127 
L 98.091413 95.017127 
L 98.188423 94.90607 
L 98.188242 94.90607 
L 98.348398 94.72812 
L 98.348231 94.72812 
L 98.448124 94.617063 
L 98.448017 94.617063 
L 98.602892 94.441055 
L 98.602744 94.441055 
L 98.701362 94.329998 
L 98.701175 94.329998 
L 98.858744 94.152983 
L 98.858551 94.152983 
L 98.957087 94.041926 
L 98.956898 94.041926 
L 99.109275 93.866853 
L 99.109091 93.866853 
L 99.201994 93.755796 
L 99.201899 93.755796 
L 99.346327 93.583672 
L 99.346195 93.583672 
L 99.440962 93.472615 
L 99.440796 93.472615 
L 99.591343 93.29819 
L 99.591252 93.29819 
L 99.693996 93.187133 
L 99.693878 93.187133 
L 99.83318 93.016879 
L 99.833083 93.016879 
L 99.929481 92.905822 
L 99.929367 92.905822 
L 100.075179 92.733195 
L 100.075047 92.733195 
L 100.166714 92.622138 
L 100.166545 92.622138 
L 100.305441 92.4521 
L 100.305249 92.4521 
L 100.395415 92.341043 
L 100.395283 92.341043 
L 100.536958 92.169926 
L 100.536778 92.169926 
L 100.626374 92.058869 
L 100.626235 92.058869 
L 100.768854 91.887393 
L 100.768689 91.887393 
L 100.856318 91.776336 
L 100.8562 91.776336 
L 101.005586 91.602342 
L 101.005417 91.602342 
L 101.094022 91.491285 
L 101.093865 91.491285 
L 101.227501 91.323189 
L 101.227333 91.323189 
L 101.314716 91.212132 
L 101.314578 91.212132 
L 101.44169 91.04641 
L 101.441519 91.04641 
L 101.531339 90.935353 
L 101.531228 90.935353 
L 101.667671 90.766178 
L 101.667488 90.766178 
L 101.757222 90.655121 
L 101.757214 90.655121 
L 101.890417 90.487169 
L 101.890234 90.487169 
L 101.977143 90.376112 
L 101.977032 90.376112 
L 102.104671 90.210246 
L 102.104512 90.210246 
L 102.192244 90.099189 
L 102.192098 90.099189 
L 102.324086 89.931668 
L 102.323902 89.931668 
L 102.409939 89.820611 
L 102.409745 89.820611 
L 102.543784 89.652372 
L 102.543607 89.652372 
L 102.629107 89.541315 
L 102.628915 89.541315 
L 102.755831 89.375664 
L 102.755648 89.375664 
L 102.841335 89.264607 
L 102.841211 89.264607 
L 102.965217 89.100036 
L 102.965079 89.100036 
L 103.048938 88.988979 
L 103.048822 88.988979 
L 103.180041 88.821746 
L 103.179882 88.821746 
L 103.269932 88.710689 
L 103.269752 88.710689 
L 103.400023 88.543816 
L 103.399886 88.543816 
L 103.481254 88.432759 
L 103.481075 88.432759 
L 103.611304 88.265886 
L 103.61112 88.265886 
L 103.697099 88.154829 
L 103.697015 88.154829 
L 103.816961 87.991768 
L 103.816903 87.991768 
L 103.90328 87.880711 
L 103.903103 87.880711 
L 104.027574 87.715996 
L 104.027387 87.715996 
L 104.108063 87.604939 
L 104.107945 87.604939 
L 104.228052 87.441878 
L 104.227861 87.441878 
L 104.309782 87.330821 
L 104.309633 87.330821 
L 104.434301 87.166034 
L 104.43416 87.166034 
L 104.515781 87.054977 
L 104.515612 87.054977 
L 104.634066 86.892492 
L 104.633885 86.892492 
L 104.717679 86.781435 
L 104.717545 86.781435 
L 104.842979 86.61636 
L 104.842808 86.61636 
L 104.92706 86.505303 
L 104.926958 86.505303 
L 105.048598 86.341666 
L 105.048411 86.341666 
L 105.129409 86.230609 
L 105.129357 86.230609 
L 105.255156 86.065391 
L 105.255025 86.065391 
L 105.342332 85.954334 
L 105.342138 85.954334 
L 105.46354 85.790769 
L 105.46342 85.790769 
L 105.544125 85.679712 
L 105.54405 85.679712 
L 105.670507 85.514278 
L 105.670343 85.514278 
L 105.757199 85.403221 
L 105.75703 85.403221 
L 105.878984 85.239441 
L 105.878812 85.239441 
L 105.963269 85.128384 
L 105.963129 85.128384 
L 106.084277 84.964891 
L 106.084129 84.964891 
L 106.1665 84.853834 
L 106.16639 84.853834 
L 106.289747 84.68955 
L 106.289576 84.68955 
L 106.367984 84.578494 
L 106.36783 84.578494 
L 106.487787 84.415433 
L 106.487608 84.415433 
L 106.570737 84.304376 
L 106.570562 84.304376 
L 106.693636 84.140164 
L 106.693449 84.140164 
L 106.775124 84.029107 
L 106.774946 84.029107 
L 106.902117 83.863385 
L 106.901972 83.863385 
L 106.986051 83.752328 
L 106.985864 83.752328 
L 107.109689 83.587828 
L 107.109566 83.587828 
L 107.189365 83.476771 
L 107.189317 83.476771 
L 107.307143 83.314501 
L 107.306977 83.314501 
L 107.390219 83.203445 
L 107.390027 83.203445 
L 107.514132 83.038873 
L 107.513976 83.038873 
L 107.598628 82.927816 
L 107.59844 82.927816 
L 107.724097 82.762669 
L 107.723984 82.762669 
L 107.809477 82.651612 
L 107.809355 82.651612 
L 107.937067 82.485674 
L 107.936891 82.485674 
L 108.017647 82.374617 
L 108.01752 82.374617 
L 108.138931 82.211053 
L 108.138739 82.211053 
L 108.218039 82.099996 
L 108.217981 82.099996 
L 108.338947 81.936575 
L 108.338757 81.936575 
L 108.42042 81.825518 
L 108.42027 81.825518 
L 108.545073 81.660659 
L 108.544973 81.660659 
L 108.62973 81.549602 
L 108.629577 81.549602 
L 108.754653 81.384671 
L 108.754525 81.384671 
L 108.83738 81.273614 
L 108.837237 81.273614 
L 108.962331 81.108683 
L 108.962191 81.108683 
L 109.045175 80.997626 
L 109.045008 80.997626 
L 109.169334 80.832983 
L 109.169169 80.832983 
L 109.251343 80.721926 
L 109.251176 80.721926 
L 109.374305 80.557714 
L 109.374154 80.557714 
L 109.456049 80.446657 
L 109.455861 80.446657 
L 109.581747 80.281439 
L 109.581555 80.281439 
L 109.667957 80.170382 
L 109.667773 80.170382 
L 109.792756 80.005451 
L 109.792661 80.005451 
L 109.875831 79.894394 
L 109.875661 79.894394 
L 110.004369 79.728096 
L 110.004195 79.728096 
L 110.088397 79.617039 
L 110.088241 79.617039 
L 110.214337 79.451748 
L 110.214167 79.451748 
L 110.297779 79.340691 
L 110.297622 79.340691 
L 110.418666 79.177271 
L 110.418497 79.177271 
L 110.501939 79.066214 
L 110.501748 79.066214 
L 110.624624 78.902074 
L 110.624499 78.902074 
L 110.706404 78.791017 
L 110.706257 78.791017 
L 110.830303 78.626446 
L 110.830147 78.626446 
L 110.912234 78.515389 
L 110.9121 78.515389 
L 111.041766 78.348731 
L 111.041657 78.348731 
L 111.128074 78.237674 
L 111.127882 78.237674 
L 111.259882 78.070154 
L 111.259702 78.070154 
L 111.342171 77.959097 
L 111.342023 77.959097 
L 111.471085 77.792655 
L 111.471012 77.792655 
L 111.556365 77.681598 
L 111.556181 77.681598 
L 111.679456 77.517315 
L 111.67928 77.517315 
L 111.766145 77.406258 
L 111.765981 77.406258 
L 111.896228 77.239385 
L 111.896112 77.239385 
L 111.985393 77.128328 
L 111.98522 77.128328 
L 112.112767 76.962462 
L 112.112669 76.962462 
L 112.194589 76.851405 
L 112.194514 76.851405 
L 112.320761 76.686042 
L 112.320602 76.686042 
L 112.408463 76.574985 
L 112.40831 76.574985 
L 112.541142 76.407177 
L 112.540979 76.407177 
L 112.629949 76.29612 
L 112.629762 76.29612 
L 112.759317 76.129534 
L 112.759156 76.129534 
L 112.846741 76.018478 
L 112.846629 76.018478 
L 112.973602 75.852827 
L 112.973425 75.852827 
L 113.059388 75.74177 
L 113.059255 75.74177 
L 113.188936 75.575113 
L 113.188753 75.575113 
L 113.273529 75.464056 
L 113.273357 75.464056 
L 113.402747 75.297542 
L 113.402571 75.297542 
L 113.488674 75.186486 
L 113.488514 75.186486 
L 113.62034 75.019037 
L 113.620212 75.019037 
L 113.704636 74.90798 
L 113.70445 74.90798 
L 113.835696 74.740747 
L 113.835521 74.740747 
L 113.924783 74.62969 
L 113.92463 74.62969 
L 114.057705 74.46181 
L 114.057534 74.46181 
L 114.146596 74.350753 
L 114.146426 74.350753 
L 114.277735 74.18352 
L 114.277586 74.18352 
L 114.363959 74.072464 
L 114.363834 74.072464 
L 114.503652 73.902066 
L 114.503461 73.902066 
L 114.593405 73.791009 
L 114.722528 73.624567 
L 114.722394 73.624567 
L 114.811677 73.51351 
L 114.942027 73.346637 
L 114.941865 73.346637 
L 115.033163 73.23558 
L 115.033021 73.23558 
L 115.167249 73.067269 
L 115.167074 73.067269 
L 115.257874 72.956212 
L 115.25777 72.956212 
L 115.393214 72.787397 
L 115.393071 72.787397 
L 115.489298 72.67634 
L 115.489158 72.67634 
L 115.622387 72.508388 
L 115.622206 72.508388 
L 115.711735 72.397331 
L 115.711575 72.397331 
L 115.844383 72.229522 
L 115.844239 72.229522 
L 115.928618 72.118466 
L 115.928509 72.118466 
L 116.071179 71.946989 
L 116.071042 71.946989 
L 116.162424 71.835932 
L 116.162293 71.835932 
L 116.302273 71.665463 
L 116.302145 71.665463 
L 116.38847 71.554406 
L 116.388352 71.554406 
L 116.526041 71.384799 
L 116.525853 71.384799 
L 116.614869 71.273742 
L 116.614783 71.273742 
L 116.75556 71.102985 
L 116.755429 71.102985 
L 116.846559 70.991928 
L 116.846427 70.991928 
L 116.985117 70.821962 
L 116.984926 70.821962 
L 117.076541 70.710905 
L 117.07635 70.710905 
L 117.217601 70.539932 
L 117.217427 70.539932 
L 117.30693 70.428875 
L 117.306797 70.428875 
L 117.447504 70.258118 
L 117.447328 70.258118 
L 117.539588 70.147061 
L 117.539402 70.147061 
L 117.688253 69.973283 
L 117.688071 69.973283 
L 117.777035 69.862226 
L 117.776854 69.862226 
L 117.918333 69.691181 
L 117.918139 69.691181 
L 118.013055 69.580124 
L 118.012995 69.580124 
L 118.157444 69.408 
L 118.157282 69.408 
L 118.252534 69.296943 
L 118.252387 69.296943 
L 118.393877 69.125898 
L 118.39372 69.125898 
L 118.490858 69.014841 
L 118.490675 69.014841 
L 118.637848 68.84171 
L 118.637655 68.84171 
L 118.734897 68.730653 
L 118.73479 68.730653 
L 118.881211 68.55781 
L 118.881035 68.55781 
L 118.97383 68.446753 
L 118.973747 68.446753 
L 119.117365 68.274917 
L 119.117203 68.274917 
L 119.210875 68.16386 
L 119.210716 68.16386 
L 119.356873 67.991089 
L 119.356753 67.991089 
L 119.450294 67.880032 
L 119.450103 67.880032 
L 119.599371 67.70611 
L 119.599209 67.70611 
L 119.696146 67.595053 
L 119.695969 67.595053 
L 119.840113 67.423001 
L 119.840009 67.423001 
L 119.930799 67.311944 
L 119.930624 67.311944 
L 120.07784 67.138813 
L 120.077669 67.138813 
L 120.170129 67.027756 
L 120.16996 67.027756 
L 120.311086 66.856855 
L 120.31094 66.856855 
L 120.40246 66.745798 
L 120.402362 66.745798 
L 120.557216 66.56979 
L 120.557089 66.56979 
L 120.65452 66.458733 
L 120.654341 66.458733 
L 120.810145 66.282366 
L 120.809963 66.282366 
L 120.906873 66.171309 
L 120.906775 66.171309 
L 121.060868 65.995588 
L 121.06075 65.995588 
L 121.157777 65.884531 
L 121.157709 65.884531 
L 121.315534 65.707445 
L 121.315379 65.707445 
L 121.411497 65.596388 
L 121.411445 65.596388 
L 121.571128 65.418581 
L 121.570971 65.418581 
L 121.668554 65.307524 
L 121.66848 65.307524 
L 121.825514 65.130725 
L 121.825328 65.130725 
L 121.921898 65.019668 
L 121.921709 65.019668 
L 122.086126 64.840136 
L 122.085967 64.840136 
L 122.185851 64.729079 
L 122.185658 64.729079 
L 122.343601 64.55192 
L 122.343493 64.55192 
L 122.443928 64.440863 
L 122.443757 64.440863 
L 122.606831 64.261834 
L 122.606651 64.261834 
L 122.708549 64.150777 
L 122.708356 64.150777 
L 122.866685 63.973475 
L 122.8665 63.973475 
L 122.971903 63.862418 
L 122.971731 63.862418 
L 123.143056 63.680296 
L 123.142976 63.680296 
L 123.253462 63.569239 
L 123.253354 63.569239 
L 123.420336 63.388771 
L 123.420147 63.388771 
L 123.526305 63.277714 
L 123.526116 63.277714 
L 123.703696 63.093291 
L 123.703539 63.093291 
L 123.805762 62.982234 
L 123.805653 62.982234 
L 123.971766 62.802054 
L 123.971658 62.802054 
L 124.072494 62.690997 
L 124.072349 62.690997 
L 124.241602 62.509666 
L 124.241454 62.509666 
L 124.349567 62.398609 
L 124.349426 62.398609 
L 124.521326 62.216272 
L 124.521136 62.216272 
L 124.627423 62.105215 
L 124.627245 62.105215 
L 124.799199 61.922877 
L 124.799009 61.922877 
L 124.911874 61.81182 
L 124.911809 61.81182 
L 125.087177 61.628188 
L 125.087074 61.628188 
L 125.194193 61.517131 
L 125.194018 61.517131 
L 125.374155 61.331772 
L 125.373975 61.331772 
L 125.479777 61.220715 
L 125.479595 61.220715 
L 125.662006 61.034494 
L 125.661867 61.034494 
L 125.764294 60.923437 
L 125.764136 60.923437 
L 125.945478 60.737574 
L 125.945286 60.737574 
L 126.058354 60.626517 
L 126.058173 60.626517 
L 126.248975 60.437203 
L 126.248799 60.437203 
L 126.351419 60.326146 
L 126.351392 60.326146 
L 126.536295 60.138989 
L 126.536159 60.138989 
L 126.641916 60.027932 
L 126.641838 60.027932 
L 126.82129 59.842789 
L 126.821114 59.842789 
L 126.929196 59.731732 
L 126.929079 59.731732 
L 127.113432 59.544791 
L 127.113311 59.544791 
L 127.226393 59.433734 
L 127.226347 59.433734 
L 127.402858 59.24967 
L 127.402763 59.24967 
L 127.512395 59.138613 
L 127.696583 58.951744 
L 127.696394 58.951744 
L 127.80723 58.840687 
L 127.807053 58.840687 
L 127.995411 58.652236 
L 127.995269 58.652236 
L 128.110358 58.541179 
L 128.110176 58.541179 
L 128.314973 58.346613 
L 128.314805 58.346613 
L 128.428801 58.235556 
L 128.428694 58.235556 
L 128.619403 58.046242 
L 128.61923 58.046242 
L 128.740094 57.935185 
L 128.739961 57.935185 
L 128.940125 57.742346 
L 128.939954 57.742346 
L 129.054117 57.631289 
L 129.054001 57.631289 
L 129.252324 57.439169 
L 129.252133 57.439169 
L 129.368352 57.328112 
L 129.368243 57.328112 
L 129.582209 57.130166 
L 129.582046 57.130166 
L 129.698933 57.019109 
L 129.909531 56.822386 
L 129.909357 56.822386 
L 130.022819 56.711329 
L 130.022739 56.711329 
L 130.224506 56.517914 
L 130.224335 56.517914 
L 130.342628 56.406857 
L 130.342503 56.406857 
L 130.556733 56.208839 
L 130.556552 56.208839 
L 130.681288 56.097782 
L 130.681095 56.097782 
L 130.893716 55.90034 
L 130.893538 55.90034 
L 131.019577 55.789283 
L 131.019399 55.789283 
L 131.245188 55.586949 
L 131.24501 55.586949 
L 131.372996 55.475892 
L 131.37282 55.475892 
L 131.602949 55.271976 
L 131.602767 55.271976 
L 131.725626 55.160919 
L 131.725439 55.160919 
L 131.95196 54.958298 
L 131.951782 54.958298 
L 132.075971 54.847241 
L 132.075793 54.847241 
L 132.312733 54.640735 
L 132.312621 54.640735 
L 132.439292 54.529678 
L 132.439133 54.529678 
L 132.684401 54.32008 
L 132.68429 54.32008 
L 132.812772 54.209023 
L 132.812586 54.209023 
L 133.036746 54.007265 
L 133.036592 54.007265 
L 133.168671 53.896208 
L 133.16855 53.896208 
L 133.410227 53.687976 
L 133.410095 53.687976 
L 133.543939 53.576919 
L 133.54376 53.576919 
L 133.800126 53.363221 
L 133.799964 53.363221 
L 133.936904 53.252164 
L 133.936726 53.252164 
L 134.194997 53.037746 
L 134.194891 53.037746 
L 134.331286 52.926689 
L 134.331114 52.926689 
L 134.59817 52.709035 
L 134.598017 52.709035 
L 134.734298 52.597978 
L 134.734124 52.597978 
L 135.00751 52.37795 
L 135.007389 52.37795 
L 135.142637 52.266893 
L 135.419547 52.04557 
L 135.419358 52.04557 
L 135.558793 51.934513 
L 135.82924 51.715564 
L 135.829068 51.715564 
L 135.96941 51.604507 
L 135.969233 51.604507 
L 136.24206 51.384695 
L 136.241877 51.384695 
L 136.382348 51.273638 
L 136.382347 51.273638 
L 136.658836 51.05246 
L 136.658674 51.05246 
L 136.800168 50.941403 
L 137.104384 50.709938 
L 137.104226 50.709938 
L 137.246038 50.598881 
L 137.245852 50.598881 
L 137.545692 50.369071 
L 137.545524 50.369071 
L 137.694059 50.258014 
L 137.693884 50.258014 
L 138.004323 50.024248 
L 138.004143 50.024248 
L 138.155809 49.913191 
L 138.15568 49.913191 
L 138.462636 49.680719 
L 138.462454 49.680719 
L 138.607932 49.569662 
L 138.607907 49.569662 
L 138.940218 49.327768 
L 138.940037 49.327768 
L 139.091359 49.216711 
L 139.091193 49.216711 
L 139.435763 48.970286 
L 139.435598 48.970286 
L 139.581925 48.859229 
L 139.581866 48.859229 
L 139.934045 48.609926 
L 139.933858 48.609926 
L 140.093173 48.498869 
L 140.093031 48.498869 
L 140.454218 48.246258 
L 140.454085 48.246258 
L 140.611161 48.135201 
L 140.611041 48.135201 
L 140.977946 47.880432 
L 140.977785 47.880432 
L 141.140404 47.769375 
L 141.140323 47.769375 
L 141.519493 47.510074 
L 141.519398 47.510074 
L 141.686572 47.399017 
L 141.686467 47.399017 
L 142.078271 47.135041 
L 142.078125 47.135041 
L 142.252952 47.023984 
L 142.252844 47.023984 
L 142.675867 46.748428 
L 142.675687 46.748428 
L 142.842648 46.637371 
L 142.842502 46.637371 
L 143.307714 46.346134 
L 143.307595 46.346134 
L 143.483662 46.235077 
L 143.483583 46.235077 
L 143.96209 45.938877 
L 143.961953 45.938877 
L 144.14182 45.82782 
L 144.141654 45.82782 
L 144.623027 45.530541 
L 144.622897 45.530541 
L 144.804336 45.419485 
L 144.804274 45.419485 
L 145.361618 45.09401 
L 145.361539 45.09401 
L 145.553227 44.982953 
L 145.553049 44.982953 
L 146.193105 44.626765 
L 146.193035 44.626765 
L 146.383305 44.515708 
L 146.38317 44.515708 
L 147.058152 44.146573 
L 147.058009 44.146573 
L 147.265132 44.035516 
L 147.265049 44.035516 
L 147.898313 43.681846 
L 147.898243 43.681846 
L 148.102989 43.570789 
L 148.102836 43.570789 
L 148.849009 43.175185 
L 148.848914 43.175185 
L 149.056976 43.064128 
L 149.056807 43.064128 
L 149.988803 42.599544 
L 149.988669 42.599544 
L 150.210898 42.488488 
L 150.210725 42.488488 
L 151.25951 41.980531 
L 151.259404 41.980531 
L 151.495503 41.869475 
L 152.814667 41.261107 
L 152.814548 41.261107 
L 153.073137 41.15005 
L 153.072985 41.15005 
L 155.535096 40.117235 
L 155.534927 40.117235 
L 155.82851 40.006178 
L 155.828358 40.006178 
L 161.093653 38.169423 
L 161.451628 38.058366 
L 163.120584 37.557099 
L 163.513215 37.446042 
L 164.666703 37.136176 
L 165.095182 37.025119 
L 165.095037 37.025119 
L 166.04916 36.789195 
L 166.523027 36.678138 
L 166.522843 36.678138 
L 167.458837 36.449047 
L 167.931001 36.33799 
L 167.930836 36.33799 
L 168.739733 36.156012 
L 169.254522 36.044955 
L 169.946751 35.905918 
L 170.506787 35.794861 
L 171.1716 35.66647 
L 171.746235 35.555413 
L 172.366274 35.443636 
L 172.996406 35.332579 
L 173.589753 35.230657 
L 174.281875 35.1196 
L 174.281833 35.1196 
L 174.838967 35.030985 
L 175.555979 34.919928 
L 176.094757 34.837786 
L 176.886592 34.726729 
L 177.382953 34.660771 
L 178.233766 34.549714 
L 178.233729 34.549714 
L 178.732802 34.482749 
L 179.63887 34.371692 
L 180.101565 34.318322 
L 181.086335 34.207265 
L 181.538286 34.157922 
L 182.589318 34.046865 
L 182.589183 34.046865 
L 183.016938 34.006226 
L 184.185531 33.895169 
L 184.604037 33.857838 
L 185.872504 33.746781 
L 185.872487 33.746781 
L 186.275169 33.715421 
L 187.729234 33.604364 
L 188.132633 33.573075 
L 189.735295 33.462018 
L 190.116831 33.438857 
L 192.027479 33.3278 
L 192.404633 33.305934 
L 194.617459 33.194877 
L 194.61729 33.194877 
L 194.973972 33.179772 
L 197.520415 33.068715 
L 197.870184 33.054833 
L 201.162668 32.943776 
L 201.508828 32.933131 
L 206.021785 32.822074 
L 206.356888 32.815313 
L 213.780362 32.704256 
L 214.110444 32.700156 
L 237.571427 32.589099 
L 237.839102 32.588595 
L 305.804348 32.576224 
L 305.804348 32.576224 
" clip-path="url(#pb8f27271c7)" style="fill: none; stroke-dasharray: 3,4.95; stroke-dashoffset: 0; stroke: #000000; stroke-width: 3"/>
   </g>
   <g id="PathCollection_1">
    <defs>
     <path id="m4b101cb070" d="M -5 5 
L 5 -5 
M -5 -5 
L 5 5 
" style="stroke: #ff0000; stroke-width: 1.5"/>
    </defs>
    <g clip-path="url(#pb8f27271c7)">
     <use xlink:href="#m4b101cb070" x="100.382264" y="108.100699" style="fill: #ff0000; stroke: #ff0000; stroke-width: 1.5"/>
     <use xlink:href="#m4b101cb070" x="103.792088" y="108.100699" style="fill: #ff0000; stroke: #ff0000; stroke-width: 1.5"/>
     <use xlink:href="#m4b101cb070" x="110.153719" y="108.100699" style="fill: #ff0000; stroke: #ff0000; stroke-width: 1.5"/>
     <use xlink:href="#m4b101cb070" x="130.151501" y="108.100699" style="fill: #ff0000; stroke: #ff0000; stroke-width: 1.5"/>
     <use xlink:href="#m4b101cb070" x="155.213114" y="108.100699" style="fill: #ff0000; stroke: #ff0000; stroke-width: 1.5"/>
    </g>
   </g>
  </g>
  <g id="axes_2">
   <g id="patch_7">
    <path d="M 54 244.8 
L 208.956522 244.8 
L 208.956522 161.723077 
L 54 161.723077 
z
" style="fill: #ffffff"/>
   </g>
   <g id="matplotlib.axis_3">
    <g id="xtick_5">
     <g id="line2d_11">
      <g>
       <use xlink:href="#m1759974751" x="76.136646" y="244.8" style="stroke: #000000; stroke-width: 0.8"/>
      </g>
     </g>
     <g id="text_11">
      <!-- −2 -->
      <g transform="translate(68.765552 259.398437) scale(0.1 -0.1)">
       <use xlink:href="#DejaVuSans-2212"/>
       <use xlink:href="#DejaVuSans-32" x="83.789062"/>
      </g>
     </g>
    </g>
    <g id="xtick_6">
     <g id="line2d_12">
      <g>
       <use xlink:href="#m1759974751" x="120.409938" y="244.8" style="stroke: #000000; stroke-width: 0.8"/>
      </g>
     </g>
     <g id="text_12">
      <!-- 0 -->
      <g transform="translate(117.228688 259.398437) scale(0.1 -0.1)">
       <use xlink:href="#DejaVuSans-30"/>
      </g>
     </g>
    </g>
    <g id="xtick_7">
     <g id="line2d_13">
      <g>
       <use xlink:href="#m1759974751" x="164.68323" y="244.8" style="stroke: #000000; stroke-width: 0.8"/>
      </g>
     </g>
     <g id="text_13">
      <!-- 2 -->
      <g transform="translate(161.50198 259.398437) scale(0.1 -0.1)">
       <use xlink:href="#DejaVuSans-32"/>
      </g>
     </g>
    </g>
    <g id="xtick_8">
     <g id="line2d_14">
      <g>
       <use xlink:href="#m1759974751" x="208.956522" y="244.8" style="stroke: #000000; stroke-width: 0.8"/>
      </g>
     </g>
     <g id="text_14">
      <!-- 4 -->
      <g transform="translate(205.775272 259.398437) scale(0.1 -0.1)">
       <use xlink:href="#DejaVuSans-34"/>
      </g>
     </g>
    </g>
    <g id="text_15">
     <!-- x -->
     <g transform="translate(128.518886 273.076562) scale(0.1 -0.1)">
      <use xlink:href="#DejaVuSans-78"/>
     </g>
    </g>
   </g>
   <g id="matplotlib.axis_4">
    <g id="ytick_4">
     <g id="line2d_15">
      <g>
       <use xlink:href="#m3a98d76e28" x="54" y="244.8" style="stroke: #000000; stroke-width: 0.8"/>
      </g>
     </g>
     <g id="text_16">
      <!-- −2 -->
      <g transform="translate(32.257812 248.599219) scale(0.1 -0.1)">
       <use xlink:href="#DejaVuSans-2212"/>
       <use xlink:href="#DejaVuSans-32" x="83.789062"/>
      </g>
     </g>
    </g>
    <g id="ytick_5">
     <g id="line2d_16">
      <g>
       <use xlink:href="#m3a98d76e28" x="54" y="207.876923" style="stroke: #000000; stroke-width: 0.8"/>
      </g>
     </g>
     <g id="text_17">
      <!-- 0 -->
      <g transform="translate(40.6375 211.676142) scale(0.1 -0.1)">
       <use xlink:href="#DejaVuSans-30"/>
      </g>
     </g>
    </g>
    <g id="ytick_6">
     <g id="line2d_17">
      <g>
       <use xlink:href="#m3a98d76e28" x="54" y="170.953846" style="stroke: #000000; stroke-width: 0.8"/>
      </g>
     </g>
     <g id="text_18">
      <!-- 2 -->
      <g transform="translate(40.6375 174.753065) scale(0.1 -0.1)">
       <use xlink:href="#DejaVuSans-32"/>
      </g>
     </g>
    </g>
    <g id="text_19">
     <!-- y [=h(x)] -->
     <g transform="translate(26.178125 225.93107) rotate(-90) scale(0.1 -0.1)">
      <defs>
       <path id="DejaVuSans-79" d="M 2059 -325 
Q 1816 -950 1584 -1140 
Q 1353 -1331 966 -1331 
L 506 -1331 
L 506 -850 
L 844 -850 
Q 1081 -850 1212 -737 
Q 1344 -625 1503 -206 
L 1606 56 
L 191 3500 
L 800 3500 
L 1894 763 
L 2988 3500 
L 3597 3500 
L 2059 -325 
z
" transform="scale(0.015625)"/>
       <path id="DejaVuSans-5b" d="M 550 4863 
L 1875 4863 
L 1875 4416 
L 1125 4416 
L 1125 -397 
L 1875 -397 
L 1875 -844 
L 550 -844 
L 550 4863 
z
" transform="scale(0.015625)"/>
       <path id="DejaVuSans-3d" d="M 678 2906 
L 4684 2906 
L 4684 2381 
L 678 2381 
L 678 2906 
z
M 678 1631 
L 4684 1631 
L 4684 1100 
L 678 1100 
L 678 1631 
z
" transform="scale(0.015625)"/>
       <path id="DejaVuSans-68" d="M 3513 2113 
L 3513 0 
L 2938 0 
L 2938 2094 
Q 2938 2591 2744 2837 
Q 2550 3084 2163 3084 
Q 1697 3084 1428 2787 
Q 1159 2491 1159 1978 
L 1159 0 
L 581 0 
L 581 4863 
L 1159 4863 
L 1159 2956 
Q 1366 3272 1645 3428 
Q 1925 3584 2291 3584 
Q 2894 3584 3203 3211 
Q 3513 2838 3513 2113 
z
" transform="scale(0.015625)"/>
       <path id="DejaVuSans-28" d="M 1984 4856 
Q 1566 4138 1362 3434 
Q 1159 2731 1159 2009 
Q 1159 1288 1364 580 
Q 1569 -128 1984 -844 
L 1484 -844 
Q 1016 -109 783 600 
Q 550 1309 550 2009 
Q 550 2706 781 3412 
Q 1013 4119 1484 4856 
L 1984 4856 
z
" transform="scale(0.015625)"/>
       <path id="DejaVuSans-29" d="M 513 4856 
L 1013 4856 
Q 1481 4119 1714 3412 
Q 1947 2706 1947 2009 
Q 1947 1309 1714 600 
Q 1481 -109 1013 -844 
L 513 -844 
Q 928 -128 1133 580 
Q 1338 1288 1338 2009 
Q 1338 2731 1133 3434 
Q 928 4138 513 4856 
z
" transform="scale(0.015625)"/>
       <path id="DejaVuSans-5d" d="M 1947 4863 
L 1947 -844 
L 622 -844 
L 622 -397 
L 1369 -397 
L 1369 4416 
L 622 4416 
L 622 4863 
L 1947 4863 
z
" transform="scale(0.015625)"/>
      </defs>
      <use xlink:href="#DejaVuSans-79"/>
      <use xlink:href="#DejaVuSans-20" x="59.179688"/>
      <use xlink:href="#DejaVuSans-5b" x="90.966797"/>
      <use xlink:href="#DejaVuSans-3d" x="129.980469"/>
      <use xlink:href="#DejaVuSans-68" x="213.769531"/>
      <use xlink:href="#DejaVuSans-28" x="277.148438"/>
      <use xlink:href="#DejaVuSans-78" x="316.162109"/>
      <use xlink:href="#DejaVuSans-29" x="375.341797"/>
      <use xlink:href="#DejaVuSans-5d" x="414.355469"/>
     </g>
    </g>
   </g>
   <g id="patch_8">
    <path d="M 54 244.8 
L 54 161.723077 
" style="fill: none; stroke: #000000; stroke-width: 0.8; stroke-linejoin: miter; stroke-linecap: square"/>
   </g>
   <g id="patch_9">
    <path d="M 208.956522 244.8 
L 208.956522 161.723077 
" style="fill: none; stroke: #000000; stroke-width: 0.8; stroke-linejoin: miter; stroke-linecap: square"/>
   </g>
   <g id="patch_10">
    <path d="M 54 244.8 
L 208.956522 244.8 
" style="fill: none; stroke: #000000; stroke-width: 0.8; stroke-linejoin: miter; stroke-linecap: square"/>
   </g>
   <g id="patch_11">
    <path d="M 54 161.723077 
L 208.956522 161.723077 
" style="fill: none; stroke: #000000; stroke-width: 0.8; stroke-linejoin: miter; stroke-linecap: square"/>
   </g>
   <g id="text_20">
    <!-- y [=h(x)]   VS     x -->
    <g transform="translate(77.555136 155.723077) scale(0.12 -0.12)">
     <defs>
      <path id="DejaVuSans-56" d="M 1831 0 
L 50 4666 
L 709 4666 
L 2188 738 
L 3669 4666 
L 4325 4666 
L 2547 0 
L 1831 0 
z
" transform="scale(0.015625)"/>
      <path id="DejaVuSans-53" d="M 3425 4513 
L 3425 3897 
Q 3066 4069 2747 4153 
Q 2428 4238 2131 4238 
Q 1616 4238 1336 4038 
Q 1056 3838 1056 3469 
Q 1056 3159 1242 3001 
Q 1428 2844 1947 2747 
L 2328 2669 
Q 3034 2534 3370 2195 
Q 3706 1856 3706 1288 
Q 3706 609 3251 259 
Q 2797 -91 1919 -91 
Q 1588 -91 1214 -16 
Q 841 59 441 206 
L 441 856 
Q 825 641 1194 531 
Q 1563 422 1919 422 
Q 2459 422 2753 634 
Q 3047 847 3047 1241 
Q 3047 1584 2836 1778 
Q 2625 1972 2144 2069 
L 1759 2144 
Q 1053 2284 737 2584 
Q 422 2884 422 3419 
Q 422 4038 858 4394 
Q 1294 4750 2059 4750 
Q 2388 4750 2728 4690 
Q 3069 4631 3425 4513 
z
" transform="scale(0.015625)"/>
     </defs>
     <use xlink:href="#DejaVuSans-79"/>
     <use xlink:href="#DejaVuSans-20" x="59.179688"/>
     <use xlink:href="#DejaVuSans-5b" x="90.966797"/>
     <use xlink:href="#DejaVuSans-3d" x="129.980469"/>
     <use xlink:href="#DejaVuSans-68" x="213.769531"/>
     <use xlink:href="#DejaVuSans-28" x="277.148438"/>
     <use xlink:href="#DejaVuSans-78" x="316.162109"/>
     <use xlink:href="#DejaVuSans-29" x="375.341797"/>
     <use xlink:href="#DejaVuSans-5d" x="414.355469"/>
     <use xlink:href="#DejaVuSans-20" x="453.369141"/>
     <use xlink:href="#DejaVuSans-20" x="485.15625"/>
     <use xlink:href="#DejaVuSans-20" x="516.943359"/>
     <use xlink:href="#DejaVuSans-56" x="548.730469"/>
     <use xlink:href="#DejaVuSans-53" x="617.138672"/>
     <use xlink:href="#DejaVuSans-20" x="680.615234"/>
     <use xlink:href="#DejaVuSans-20" x="712.402344"/>
     <use xlink:href="#DejaVuSans-20" x="744.189453"/>
     <use xlink:href="#DejaVuSans-20" x="775.976562"/>
     <use xlink:href="#DejaVuSans-20" x="807.763672"/>
     <use xlink:href="#DejaVuSans-78" x="839.550781"/>
    </g>
   </g>
   <g id="line2d_18">
    <path d="M 31.863354 222.241436 
L 107.048179 222.220049 
L 110.438476 220.267494 
L 113.031056 218.535625 
L 115.224778 216.811744 
L 116.820212 215.311211 
L 118.216216 213.688609 
L 119.213362 212.169136 
L 119.81165 210.910607 
L 120.210509 209.621154 
L 120.808796 205.405813 
L 121.407084 203.960569 
L 122.204801 202.62018 
L 123.401377 201.09133 
L 124.797381 199.658332 
L 126.791674 197.96457 
L 129.184825 196.254076 
L 131.976834 194.531919 
L 135.367131 192.701844 
L 139.355716 190.798964 
L 144.740306 188.522355 
L 150.523754 186.344871 
L 156.905489 184.172365 
L 166.278664 181.30305 
L 175.05355 178.871697 
L 185.224442 176.292094 
L 197.788484 173.36243 
L 231.093168 166.718 
L 231.093168 166.718 
" clip-path="url(#pe219c3cfe5)" style="fill: none; stroke: #1e90ff; stroke-width: 3; stroke-linecap: square"/>
   </g>
   <g id="line2d_19">
    <path d="M 31.863354 244.8 
L 45.225113 241.900273 
L 56.991439 239.12476 
L 67.361759 236.455936 
L 76.535504 233.867609 
L 84.512674 231.386383 
L 91.293268 229.049944 
L 97.076716 226.830856 
L 102.062448 224.684314 
L 106.250462 222.641995 
L 109.640759 220.753585 
L 112.432768 218.959389 
L 114.62649 217.313303 
L 116.421353 215.71341 
L 117.817358 214.194901 
L 118.814504 212.833152 
L 119.612221 211.381506 
L 120.011079 210.355038 
L 120.210509 209.629215 
L 120.609367 206.124631 
L 121.008226 204.841865 
L 121.805943 203.240795 
L 122.803089 201.806807 
L 124.199094 200.238861 
L 125.993957 198.604667 
L 128.187678 196.933865 
L 130.780259 195.240968 
L 133.971126 193.427156 
L 137.760282 191.532634 
L 142.347155 189.498733 
L 147.731744 187.366875 
L 153.914051 185.164627 
L 161.093503 182.849192 
L 169.270102 180.44922 
L 178.643277 177.93375 
L 189.213027 175.32955 
L 201.178781 172.612733 
L 214.73997 169.767097 
L 229.896592 166.819416 
L 231.093168 166.595668 
L 231.093168 166.595668 
" clip-path="url(#pe219c3cfe5)" style="fill: none; stroke-dasharray: 3,4.95; stroke-dashoffset: 0; stroke: #000000; stroke-width: 3"/>
   </g>
   <g id="line2d_20">
    <path d="M 31.863354 222.241436 
L 107.048179 222.218233 
L 111.236193 219.69034 
L 118.814504 213.080083 
L 141.150579 190.018048 
L 169.86839 180.336611 
L 231.093168 180.336611 
L 231.093168 180.336611 
" clip-path="url(#pe219c3cfe5)" style="fill: none; stroke: #ff0000; stroke-width: 3; stroke-linecap: square"/>
   </g>
   <g id="PathCollection_2">
    <g clip-path="url(#pe219c3cfe5)">
     <use xlink:href="#m4b101cb070" x="107.008301" y="222.241436" style="fill: #ff0000; stroke: #ff0000; stroke-width: 1.5"/>
     <use xlink:href="#m4b101cb070" x="110.905244" y="219.974017" style="fill: #ff0000; stroke: #ff0000; stroke-width: 1.5"/>
     <use xlink:href="#m4b101cb070" x="118.175678" y="213.742069" style="fill: #ff0000; stroke: #ff0000; stroke-width: 1.5"/>
     <use xlink:href="#m4b101cb070" x="141.030287" y="190.058881" style="fill: #ff0000; stroke: #ff0000; stroke-width: 1.5"/>
     <use xlink:href="#m4b101cb070" x="169.672131" y="180.336611" style="fill: #ff0000; stroke: #ff0000; stroke-width: 1.5"/>
    </g>
   </g>
  </g>
  <g id="axes_3">
   <g id="patch_12">
    <path d="M 255.443478 244.8 
L 410.4 244.8 
L 410.4 161.723077 
L 255.443478 161.723077 
z
" style="fill: #ffffff"/>
   </g>
   <g id="line2d_21">
    <path d="M 100.486957 237.427373 
L 304.629384 237.355445 
L 304.629163 237.355445 
L 304.794821 219.445355 
L 304.798958 219.373427 
L 304.918236 216.280519 
L 304.928152 216.208591 
L 305.040148 214.122677 
L 305.048481 214.050749 
L 305.157422 212.180619 
L 305.184773 212.108691 
L 305.281773 210.094705 
L 305.322989 210.022777 
L 305.432991 208.296503 
L 305.440156 208.224575 
L 305.547472 207.073726 
L 305.561346 207.001798 
L 305.675076 206.138661 
L 305.697161 206.066733 
L 305.810822 205.05974 
L 305.834443 204.987812 
L 305.938753 203.908891 
L 305.967644 203.836963 
L 306.06339 202.901898 
L 306.09933 202.82997 
L 306.206465 202.038761 
L 306.225106 201.966833 
L 306.33216 201.535265 
L 306.379769 201.463337 
L 306.492264 200.887912 
L 306.516328 200.815984 
L 306.604872 200.240559 
L 306.644094 200.168631 
L 306.757525 199.233566 
L 306.761423 199.161638 
L 306.872923 198.586214 
L 306.90545 198.514286 
L 307.00924 197.866933 
L 307.034415 197.795005 
L 307.141241 197.21958 
L 307.163917 197.147652 
L 307.272058 196.5003 
L 307.305984 196.428372 
L 307.410447 195.709091 
L 307.452082 195.637163 
L 307.555578 194.845954 
L 307.607361 194.774026 
L 307.719561 193.982817 
L 307.772859 193.910889 
L 307.88462 193.479321 
L 307.93004 193.407393 
L 308.033191 193.11968 
L 308.081408 193.047752 
L 308.187904 192.4004 
L 308.237832 192.328472 
L 308.337061 191.824975 
L 308.440708 191.753047 
L 308.551209 191.393407 
L 308.579726 191.321479 
L 308.689308 190.88991 
L 308.76995 190.817982 
L 308.876581 190.53027 
L 308.949555 190.458342 
L 309.014386 190.242557 
L 309.233833 190.170629 
L 309.299784 189.667133 
L 309.401023 189.595205 
L 309.508929 189.379421 
L 309.548392 189.307493 
L 309.652998 189.01978 
L 309.68515 188.947852 
L 309.695223 188.66014 
L 309.833514 188.588212 
L 309.940443 188.156643 
L 310.150974 188.084715 
L 310.262577 187.797003 
L 310.378407 187.725075 
L 310.48549 187.365435 
L 310.599594 187.293506 
L 310.599815 187.221578 
L 310.809743 187.14965 
L 310.870097 186.79001 
L 311.053624 186.718082 
L 311.097532 186.502298 
L 311.299507 186.43037 
L 311.399255 185.998801 
L 311.503151 185.926873 
L 311.503372 185.854945 
L 311.698371 185.783017 
L 311.79133 185.567233 
L 312.096036 185.495305 
L 312.133163 185.207592 
L 312.302281 185.135664 
L 312.411026 184.847952 
L 312.441547 184.776024 
L 312.528148 184.56024 
L 312.687216 184.488312 
L 312.687437 184.416384 
L 312.890434 184.344456 
L 313.001011 184.128671 
L 313.037855 184.056743 
L 313.099503 183.840959 
L 313.288496 183.769031 
L 313.399238 183.481319 
L 313.487365 183.409391 
L 313.577938 183.193606 
L 313.787764 183.121678 
L 313.787985 183.04975 
L 314.141862 182.977822 
L 314.220136 182.762038 
L 314.391493 182.69011 
L 314.404279 182.474326 
L 314.68328 182.402398 
L 314.683501 182.33047 
L 314.875298 182.258541 
L 314.913384 182.042757 
L 315.117681 181.970829 
L 315.117664 181.970829 
L 315.223321 181.755045 
L 315.979881 181.683117 
L 315.980103 181.611189 
L 316.435251 181.539261 
L 316.439771 181.395405 
L 316.716032 181.323477 
L 316.808726 181.17962 
L 317.146665 181.107692 
L 317.21627 180.963836 
L 317.34152 180.891908 
L 317.341741 180.81998 
L 317.850465 180.748052 
L 317.850686 180.676124 
L 318.271247 180.604196 
L 318.271469 180.532268 
L 318.905129 180.46034 
L 318.90535 180.388412 
L 319.820673 180.316484 
L 319.820894 180.244555 
L 320.971599 180.172627 
L 320.97182 180.100699 
L 322.727654 180.028771 
L 322.727875 179.956843 
L 324.2765 179.884915 
L 324.276721 179.812987 
L 325.443352 179.741059 
L 325.487618 179.597203 
L 326.230122 179.525275 
L 326.230343 179.453347 
L 326.687573 179.381419 
L 326.700937 179.237562 
L 327.132449 179.165634 
L 327.169402 179.021778 
L 327.33272 178.94985 
L 327.362285 178.805994 
L 327.614261 178.734066 
L 327.638178 178.59021 
L 328.127287 178.518282 
L 328.147355 178.374426 
L 328.38819 178.302498 
L 328.489775 178.086713 
L 328.793503 178.014785 
L 328.793724 177.942857 
L 329.134504 177.870929 
L 329.245983 177.727073 
L 329.58601 177.655145 
L 329.586231 177.583217 
L 330.090173 177.511289 
L 330.129204 177.367433 
L 330.285982 177.295504 
L 330.310615 177.151648 
L 330.58928 177.07972 
L 330.617527 176.935864 
L 330.862464 176.863936 
L 330.894465 176.72008 
L 331.372059 176.648152 
L 331.372281 176.576224 
L 331.677817 176.504296 
L 331.678039 176.432368 
L 332.054312 176.36044 
L 332.126065 176.216583 
L 332.251741 176.144655 
L 332.310723 175.856943 
L 332.62648 175.785015 
L 332.667391 175.569231 
L 333.120685 175.497303 
L 333.225422 175.281518 
L 333.583142 175.20959 
L 333.583363 175.137662 
L 333.897249 175.065734 
L 333.897471 174.993806 
L 334.06128 174.921878 
L 334.101504 174.778022 
L 334.502817 174.706094 
L 334.533622 174.562238 
L 334.660137 174.49031 
L 334.660359 174.418382 
L 335.045733 174.346454 
L 335.075766 174.130669 
L 335.261468 174.058741 
L 335.336436 173.914885 
L 335.613668 173.842957 
L 335.690469 173.627173 
L 336.056428 173.555245 
L 336.05665 173.483317 
L 336.40896 173.411389 
L 336.503815 173.267532 
L 336.586824 173.195604 
L 336.663688 173.051748 
L 336.971244 172.97982 
L 337.059607 172.764036 
L 337.170379 172.692108 
L 337.19205 172.548252 
L 337.466484 172.476324 
L 337.492425 172.332468 
L 337.65657 172.260539 
L 337.768177 172.044755 
L 337.840097 171.972827 
L 337.840318 171.900899 
L 338.018809 171.828971 
L 338.019031 171.757043 
L 338.408674 171.685115 
L 338.408896 171.613187 
L 338.679587 171.541259 
L 338.69235 171.397403 
L 339.248102 171.325475 
L 339.248323 171.253546 
L 340.17435 171.181618 
L 340.252217 171.037762 
L 340.451191 170.965834 
L 340.561172 170.821978 
L 340.9002 170.75005 
L 340.900422 170.678122 
L 341.186809 170.606194 
L 341.18703 170.534266 
L 341.421711 170.462338 
L 341.430506 170.318482 
L 341.583164 170.246553 
L 341.583386 170.174625 
L 341.885956 170.102697 
L 341.942449 169.958841 
L 342.942459 169.886913 
L 342.942681 169.814985 
L 343.212018 169.743057 
L 343.266149 169.455345 
L 343.46017 169.383417 
L 343.460391 169.311489 
L 343.624963 169.23956 
L 343.625184 169.167632 
L 344.341979 169.095704 
L 344.3422 169.023776 
L 344.802506 168.951848 
L 344.860004 168.807992 
L 345.210159 168.736064 
L 345.266471 168.592208 
L 346.152914 168.52028 
L 346.217457 168.376424 
L 346.491182 168.304496 
L 346.588444 168.160639 
L 346.798561 168.088711 
L 346.798782 168.016783 
L 347.204849 167.944855 
L 347.20507 167.872927 
L 347.824545 167.800999 
L 347.824767 167.729071 
L 348.38011 167.657143 
L 348.380331 167.585215 
L 348.74879 167.513287 
L 348.749012 167.441359 
L 349.137307 167.369431 
L 349.137528 167.297502 
L 350.123303 167.225574 
L 350.123524 167.153646 
L 351.447547 167.081718 
L 351.447768 167.00979 
L 351.860172 166.937862 
L 351.860394 166.865934 
L 352.559169 166.794006 
L 352.55939 166.722078 
L 353.937745 166.65015 
L 353.964986 166.506294 
L 354.211947 166.434366 
L 354.212168 166.362438 
L 354.724372 166.290509 
L 354.724594 166.218581 
L 355.997238 166.146653 
L 355.997459 166.074725 
L 356.511675 166.002797 
L 356.511896 165.930869 
L 357.051892 165.858941 
L 357.052113 165.787013 
L 360.672466 165.715085 
L 360.672687 165.643157 
L 373.021718 165.571229 
L 373.021939 165.499301 
L 433 165.499301 
L 433 165.499301 
" clip-path="url(#pec03e3d048)" style="fill: none; stroke: #1e90ff; stroke-width: 3; stroke-linecap: square"/>
   </g>
   <g id="matplotlib.axis_5">
    <g id="xtick_9">
     <g id="line2d_22">
      <g>
       <use xlink:href="#m1759974751" x="277.580124" y="244.8" style="stroke: #000000; stroke-width: 0.8"/>
      </g>
     </g>
     <g id="text_21">
      <!-- −2 -->
      <g transform="translate(270.20903 259.398437) scale(0.1 -0.1)">
       <use xlink:href="#DejaVuSans-2212"/>
       <use xlink:href="#DejaVuSans-32" x="83.789062"/>
      </g>
     </g>
    </g>
    <g id="xtick_10">
     <g id="line2d_23">
      <g>
       <use xlink:href="#m1759974751" x="321.853416" y="244.8" style="stroke: #000000; stroke-width: 0.8"/>
      </g>
     </g>
     <g id="text_22">
      <!-- 0 -->
      <g transform="translate(318.672166 259.398437) scale(0.1 -0.1)">
       <use xlink:href="#DejaVuSans-30"/>
      </g>
     </g>
    </g>
    <g id="xtick_11">
     <g id="line2d_24">
      <g>
       <use xlink:href="#m1759974751" x="366.126708" y="244.8" style="stroke: #000000; stroke-width: 0.8"/>
      </g>
     </g>
     <g id="text_23">
      <!-- 2 -->
      <g transform="translate(362.945458 259.398437) scale(0.1 -0.1)">
       <use xlink:href="#DejaVuSans-32"/>
      </g>
     </g>
    </g>
    <g id="xtick_12">
     <g id="line2d_25">
      <g>
       <use xlink:href="#m1759974751" x="410.4" y="244.8" style="stroke: #000000; stroke-width: 0.8"/>
      </g>
     </g>
     <g id="text_24">
      <!-- 4 -->
      <g transform="translate(407.21875 259.398437) scale(0.1 -0.1)">
       <use xlink:href="#DejaVuSans-34"/>
      </g>
     </g>
    </g>
    <g id="text_25">
     <!-- y [=h(x)] -->
     <g transform="translate(310.252208 273.076562) scale(0.1 -0.1)">
      <use xlink:href="#DejaVuSans-79"/>
      <use xlink:href="#DejaVuSans-20" x="59.179688"/>
      <use xlink:href="#DejaVuSans-5b" x="90.966797"/>
      <use xlink:href="#DejaVuSans-3d" x="129.980469"/>
      <use xlink:href="#DejaVuSans-68" x="213.769531"/>
      <use xlink:href="#DejaVuSans-28" x="277.148438"/>
      <use xlink:href="#DejaVuSans-78" x="316.162109"/>
      <use xlink:href="#DejaVuSans-29" x="375.341797"/>
      <use xlink:href="#DejaVuSans-5d" x="414.355469"/>
     </g>
    </g>
   </g>
   <g id="matplotlib.axis_6">
    <g id="ytick_7">
     <g id="line2d_26">
      <g>
       <use xlink:href="#m3a98d76e28" x="255.443478" y="237.427373" style="stroke: #000000; stroke-width: 0.8"/>
      </g>
     </g>
     <g id="text_26">
      <!-- 0.0 -->
      <g transform="translate(232.540353 241.226591) scale(0.1 -0.1)">
       <use xlink:href="#DejaVuSans-30"/>
       <use xlink:href="#DejaVuSans-2e" x="63.623047"/>
       <use xlink:href="#DejaVuSans-30" x="95.410156"/>
      </g>
     </g>
    </g>
    <g id="ytick_8">
     <g id="line2d_27">
      <g>
       <use xlink:href="#m3a98d76e28" x="255.443478" y="201.463337" style="stroke: #000000; stroke-width: 0.8"/>
      </g>
     </g>
     <g id="text_27">
      <!-- 0.5 -->
      <g transform="translate(232.540353 205.262555) scale(0.1 -0.1)">
       <use xlink:href="#DejaVuSans-30"/>
       <use xlink:href="#DejaVuSans-2e" x="63.623047"/>
       <use xlink:href="#DejaVuSans-35" x="95.410156"/>
      </g>
     </g>
    </g>
    <g id="ytick_9">
     <g id="line2d_28">
      <g>
       <use xlink:href="#m3a98d76e28" x="255.443478" y="165.499301" style="stroke: #000000; stroke-width: 0.8"/>
      </g>
     </g>
     <g id="text_28">
      <!-- 1.0 -->
      <g transform="translate(232.540353 169.298519) scale(0.1 -0.1)">
       <use xlink:href="#DejaVuSans-31"/>
       <use xlink:href="#DejaVuSans-2e" x="63.623047"/>
       <use xlink:href="#DejaVuSans-30" x="95.410156"/>
      </g>
     </g>
    </g>
   </g>
   <g id="line2d_29">
    <path d="M 100.486957 237.427373 
L 308.451558 237.427373 
L 308.45178 223.041758 
L 312.348501 223.041758 
L 312.348722 208.656144 
L 319.618935 208.656144 
L 319.619157 194.270529 
L 342.473544 194.270529 
L 342.473765 179.884915 
L 371.115388 179.884915 
L 371.115609 165.499301 
L 433 165.499301 
" clip-path="url(#pec03e3d048)" style="fill: none; stroke: #ff0000; stroke-width: 3; stroke-linecap: square"/>
   </g>
   <g id="patch_13">
    <path d="M 255.443478 244.8 
L 255.443478 161.723077 
" style="fill: none; stroke: #000000; stroke-width: 0.8; stroke-linejoin: miter; stroke-linecap: square"/>
   </g>
   <g id="patch_14">
    <path d="M 410.4 244.8 
L 410.4 161.723077 
" style="fill: none; stroke: #000000; stroke-width: 0.8; stroke-linejoin: miter; stroke-linecap: square"/>
   </g>
   <g id="patch_15">
    <path d="M 255.443478 244.8 
L 410.4 244.8 
" style="fill: none; stroke: #000000; stroke-width: 0.8; stroke-linejoin: miter; stroke-linecap: square"/>
   </g>
   <g id="patch_16">
    <path d="M 255.443478 161.723077 
L 410.4 161.723077 
" style="fill: none; stroke: #000000; stroke-width: 0.8; stroke-linejoin: miter; stroke-linecap: square"/>
   </g>
   <g id="text_29">
    <!-- CDF of y [=h(x)] -->
    <g transform="translate(283.860489 155.723077) scale(0.12 -0.12)">
     <use xlink:href="#DejaVuSans-43"/>
     <use xlink:href="#DejaVuSans-44" x="69.824219"/>
     <use xlink:href="#DejaVuSans-46" x="146.826172"/>
     <use xlink:href="#DejaVuSans-20" x="204.345703"/>
     <use xlink:href="#DejaVuSans-6f" x="236.132812"/>
     <use xlink:href="#DejaVuSans-66" x="297.314453"/>
     <use xlink:href="#DejaVuSans-20" x="332.519531"/>
     <use xlink:href="#DejaVuSans-79" x="364.306641"/>
     <use xlink:href="#DejaVuSans-20" x="423.486328"/>
     <use xlink:href="#DejaVuSans-5b" x="455.273438"/>
     <use xlink:href="#DejaVuSans-3d" x="494.287109"/>
     <use xlink:href="#DejaVuSans-68" x="578.076172"/>
     <use xlink:href="#DejaVuSans-28" x="641.455078"/>
     <use xlink:href="#DejaVuSans-78" x="680.46875"/>
     <use xlink:href="#DejaVuSans-29" x="739.648438"/>
     <use xlink:href="#DejaVuSans-5d" x="778.662109"/>
    </g>
   </g>
   <g id="line2d_30">
    <path d="M 100.486957 237.427373 
L 292.526356 237.316316 
L 293.077427 237.253882 
L 293.736826 237.142825 
L 293.736728 237.142825 
L 296.237927 236.213299 
L 296.237766 236.213299 
L 296.420393 236.102242 
L 296.420187 236.102242 
L 296.776134 235.86977 
L 296.775915 235.86977 
L 296.939302 235.758713 
L 296.939112 235.758713 
L 297.208999 235.554222 
L 297.208868 235.554222 
L 297.347236 235.443165 
L 297.347038 235.443165 
L 297.574375 235.252484 
L 297.574272 235.252484 
L 297.702735 235.141427 
L 297.702516 235.141427 
L 297.900169 234.960384 
L 297.900085 234.960384 
L 298.023065 234.849327 
L 298.022928 234.849327 
L 298.203589 234.673822 
L 298.203498 234.673822 
L 298.312057 234.562765 
L 298.311873 234.562765 
L 298.476379 234.392511 
L 298.47616 234.392511 
L 298.58068 234.281455 
L 298.580525 234.281455 
L 298.730489 234.115948 
L 298.73031 234.115948 
L 298.834216 234.004891 
L 298.834007 234.004891 
L 298.977403 233.841471 
L 298.977285 233.841471 
L 299.073631 233.730414 
L 299.073431 233.730414 
L 299.208262 233.569798 
L 299.208055 233.569798 
L 299.298553 233.458741 
L 299.298333 233.458741 
L 299.430083 233.299133 
L 299.429864 233.299133 
L 299.521421 233.188076 
L 299.521275 233.188076 
L 299.638568 233.033143 
L 299.638387 233.033143 
L 299.723215 232.922086 
L 299.723057 232.922086 
L 299.845023 232.765642 
L 299.844803 232.765642 
L 299.924826 232.654585 
L 299.924633 232.654585 
L 300.037363 232.501163 
L 300.037144 232.501163 
L 300.12397 232.390106 
L 300.123751 232.390106 
L 300.240842 232.235245 
L 300.240627 232.235245 
L 300.322746 232.124188 
L 300.322528 232.124188 
L 300.430973 231.972132 
L 300.430794 231.972132 
L 300.508698 231.861075 
L 300.508494 231.861075 
L 300.61839 231.708587 
L 300.618209 231.708587 
L 300.693079 231.59753 
L 300.692987 231.59753 
L 300.799502 231.446122 
L 300.799293 231.446122 
L 300.875817 231.335065 
L 300.875779 231.335065 
L 300.975902 231.185742 
L 300.975697 231.185742 
L 301.050987 231.074685 
L 301.050771 231.074685 
L 301.149848 230.925722 
L 301.149644 230.925722 
L 301.220579 230.814665 
L 301.220363 230.814665 
L 301.321318 230.665055 
L 301.321136 230.665055 
L 301.393442 230.553998 
L 301.393316 230.553998 
L 301.488922 230.406114 
L 301.488734 230.406114 
L 301.560574 230.295057 
L 301.560393 230.295057 
L 301.659126 230.146166 
L 301.658906 230.146166 
L 301.732242 230.035109 
L 301.732083 230.035109 
L 301.822902 229.888807 
L 301.822709 229.888807 
L 301.891662 229.77775 
L 301.891486 229.77775 
L 301.984016 229.630873 
L 301.983845 229.630873 
L 302.052661 229.519816 
L 302.052534 229.519816 
L 302.139909 229.374665 
L 302.139689 229.374665 
L 302.206751 229.263608 
L 302.206537 229.263608 
L 302.296168 229.117666 
L 302.295989 229.117666 
L 302.365551 229.006609 
L 302.365356 229.006609 
L 302.455308 228.860595 
L 302.455096 228.860595 
L 302.524149 228.749538 
L 302.523966 228.749538 
L 302.614911 228.603165 
L 302.614715 228.603165 
L 302.683887 228.492108 
L 302.683757 228.492108 
L 302.772409 228.346525 
L 302.772199 228.346525 
L 302.84073 228.235469 
L 302.8407 228.235469 
L 302.929087 228.089958 
L 302.928895 228.089958 
L 302.99892 227.978901 
L 302.998751 227.978901 
L 303.083934 227.834398 
L 303.083722 227.834398 
L 303.150901 227.723341 
L 303.150721 227.723341 
L 303.239696 227.577614 
L 303.23949 227.577614 
L 303.305804 227.466557 
L 303.305611 227.466557 
L 303.393972 227.321047 
L 303.393759 227.321047 
L 303.462091 227.20999 
L 303.461896 227.20999 
L 303.551009 227.064264 
L 303.550824 227.064264 
L 303.619812 226.953207 
L 303.619597 226.953207 
L 303.708162 226.807624 
L 303.707948 226.807624 
L 303.773186 226.696567 
L 303.772972 226.696567 
L 303.856348 226.552711 
L 303.856142 226.552711 
L 303.922683 226.441654 
L 303.922611 226.441654 
L 304.012636 226.29564 
L 304.012429 226.29564 
L 304.082847 226.184583 
L 304.082637 226.184583 
L 304.171596 226.038857 
L 304.171509 226.038857 
L 304.238097 225.9278 
L 304.237892 225.9278 
L 304.327357 225.78193 
L 304.32722 225.78193 
L 304.396609 225.670873 
L 304.396432 225.670873 
L 304.484083 225.525578 
L 304.483869 225.525578 
L 304.549327 225.414521 
L 304.549148 225.414521 
L 304.635299 225.26973 
L 304.635084 225.26973 
L 304.705235 225.158673 
L 304.705022 225.158673 
L 304.791979 225.013594 
L 304.791839 225.013594 
L 304.85875 224.902537 
L 304.858571 224.902537 
L 304.947547 224.756811 
L 304.947366 224.756811 
L 305.016875 224.645754 
L 305.01666 224.645754 
L 305.109173 224.498877 
L 305.108967 224.498877 
L 305.174526 224.38782 
L 305.174367 224.38782 
L 305.26402 224.241878 
L 305.263839 224.241878 
L 305.331577 224.130821 
L 305.331395 224.130821 
L 305.415159 223.986821 
L 305.414991 223.986821 
L 305.48397 223.875764 
L 305.483758 223.875764 
L 305.576488 223.728815 
L 305.576281 223.728815 
L 305.644897 223.617758 
L 305.644684 223.617758 
L 305.738804 223.470378 
L 305.738635 223.470378 
L 305.805228 223.359321 
L 305.805017 223.359321 
L 305.895527 223.213091 
L 305.895407 223.213091 
L 305.964516 223.102034 
L 305.964316 223.102034 
L 306.057031 222.955085 
L 306.05681 222.955085 
L 306.127204 222.844028 
L 306.126993 222.844028 
L 306.218912 222.697367 
L 306.218693 222.697367 
L 306.291366 222.58631 
L 306.291155 222.58631 
L 306.384637 222.439145 
L 306.384423 222.439145 
L 306.45365 222.328088 
L 306.45344 222.328088 
L 306.545639 222.181355 
L 306.545455 222.181355 
L 306.614555 222.070298 
L 306.614363 222.070298 
L 306.706412 221.923564 
L 306.706204 221.923564 
L 306.778102 221.812507 
L 306.777914 221.812507 
L 306.880813 221.66225 
L 306.880616 221.66225 
L 306.95518 221.551193 
L 306.95499 221.551193 
L 307.050205 221.403453 
L 307.050004 221.403453 
L 307.122249 221.292396 
L 307.122065 221.292396 
L 307.220983 221.143433 
L 307.220777 221.143433 
L 307.296051 221.032376 
L 307.295972 221.032376 
L 307.391032 220.884707 
L 307.390826 220.884707 
L 307.464823 220.77365 
L 307.464675 220.77365 
L 307.563705 220.624687 
L 307.563533 220.624687 
L 307.635322 220.51363 
L 307.635149 220.51363 
L 307.733483 220.364883 
L 307.733281 220.364883 
L 307.80693 220.253826 
L 307.806711 220.253826 
L 307.909223 220.103712 
L 307.909041 220.103712 
L 307.984029 219.992655 
L 307.983812 219.992655 
L 308.084584 219.843117 
L 308.084421 219.843117 
L 308.158686 219.73206 
L 308.15853 219.73206 
L 308.266364 219.58022 
L 308.266166 219.58022 
L 308.346853 219.469163 
L 308.346653 219.469163 
L 308.450957 219.318474 
L 308.450746 219.318474 
L 308.529937 219.207417 
L 308.529726 219.207417 
L 308.635019 219.05644 
L 308.634818 219.05644 
L 308.717702 218.945383 
L 308.717532 218.945383 
L 308.830784 218.791816 
L 308.830566 218.791816 
L 308.90913 218.680759 
L 308.908989 218.680759 
L 309.022058 218.527193 
L 309.021851 218.527193 
L 309.106972 218.416136 
L 309.106943 218.416136 
L 309.226355 218.260555 
L 309.226169 218.260555 
L 309.309276 218.149499 
L 309.309138 218.149499 
L 309.427773 217.994134 
L 309.427618 217.994134 
L 309.512012 217.883077 
L 309.511818 217.883077 
L 309.63001 217.727856 
L 309.629799 217.727856 
L 309.716971 217.616799 
L 309.716785 217.616799 
L 309.832399 217.462442 
L 309.832201 217.462442 
L 309.919389 217.351385 
L 309.919203 217.351385 
L 310.042261 217.194581 
L 310.042068 217.194581 
L 310.13297 217.083524 
L 310.132845 217.083524 
L 310.259265 216.925642 
L 310.259049 216.925642 
L 310.351857 216.814585 
L 310.351673 216.814585 
L 310.486324 216.654042 
L 310.486128 216.654042 
L 310.581405 216.542985 
L 310.581231 216.542985 
L 310.712368 216.383592 
L 310.712148 216.383592 
L 310.803209 216.272535 
L 310.803139 216.272535 
L 310.940398 216.111129 
L 310.940225 216.111129 
L 311.039516 216.000072 
L 311.039298 216.000072 
L 311.185929 215.835644 
L 311.185723 215.835644 
L 311.284957 215.724587 
L 311.284771 215.724587 
L 311.44257 215.556492 
L 311.442355 215.556492 
L 311.544671 215.445435 
L 311.54447 215.445435 
L 311.699056 215.278418 
L 311.69886 215.278418 
L 311.801051 215.167361 
L 311.800833 215.167361 
L 311.953046 215.001135 
L 311.952826 215.001135 
L 312.055509 214.890078 
L 312.055346 214.890078 
L 312.225922 214.717882 
L 312.225731 214.717882 
L 312.334956 214.606825 
L 312.334866 214.606825 
L 312.516724 214.430961 
L 312.516522 214.430961 
L 312.630481 214.319904 
L 312.630301 214.319904 
L 312.808804 214.145119 
L 312.808623 214.145119 
L 312.929065 214.034062 
L 312.928989 214.034062 
L 313.128227 213.852515 
L 313.128049 213.852515 
L 313.244661 213.741459 
L 313.244484 213.741459 
L 313.449741 213.55797 
L 313.449602 213.55797 
L 313.573559 213.446913 
L 313.573341 213.446913 
L 313.79232 213.258965 
L 313.792215 213.258965 
L 313.926394 213.147908 
L 313.926306 213.147908 
L 314.170445 212.95176 
L 314.170281 212.95176 
L 314.306433 212.840703 
L 314.306333 212.840703 
L 314.573066 212.637219 
L 314.572894 212.637219 
L 314.723408 212.526162 
L 314.723363 212.526162 
L 315.016205 212.31419 
L 315.016016 212.31419 
L 315.169964 212.203133 
L 315.169956 212.203133 
L 315.486817 211.983393 
L 315.486674 211.983393 
L 315.65518 211.872336 
L 315.655074 211.872336 
L 316.026287 211.634901 
L 316.026085 211.634901 
L 316.206587 211.523844 
L 316.206396 211.523844 
L 316.715723 211.241526 
L 316.715662 211.241526 
L 316.930377 211.13047 
L 316.930252 211.13047 
L 317.813679 210.726593 
L 317.81366 210.726593 
L 318.087049 210.615536 
L 318.086833 210.615536 
L 320.285874 210.017814 
L 321.364427 209.906757 
L 321.76701 209.892228 
L 323.289163 209.781171 
L 324.207566 209.599409 
L 324.643736 209.488352 
L 324.64352 209.488352 
L 326.637585 208.723612 
L 326.637476 208.723612 
L 326.85267 208.612555 
L 326.852451 208.612555 
L 327.411437 208.314126 
L 327.411288 208.314126 
L 327.603028 208.203069 
L 327.602833 208.203069 
L 328.031011 207.947149 
L 328.030898 207.947149 
L 328.199142 207.836092 
L 328.198963 207.836092 
L 328.550065 207.605203 
L 328.549908 207.605203 
L 328.721361 207.494146 
L 328.721163 207.494146 
L 329.029258 207.277211 
L 329.029062 207.277211 
L 329.181338 207.166154 
L 329.181118 207.166154 
L 329.456081 206.960008 
L 329.455975 206.960008 
L 329.608463 206.848951 
L 329.608287 206.848951 
L 329.861962 206.64971 
L 329.861756 206.64971 
L 329.997899 206.538653 
L 329.997681 206.538653 
L 330.22736 206.347253 
L 330.227147 206.347253 
L 330.359408 206.236196 
L 330.35924 206.236196 
L 330.58346 206.046521 
L 330.583249 206.046521 
L 330.71469 205.935465 
L 330.714525 205.935465 
L 330.924041 205.750609 
L 330.92384 205.750609 
L 331.054266 205.639552 
L 331.054101 205.639552 
L 331.252215 205.458366 
L 331.252029 205.458366 
L 331.369634 205.347309 
L 331.369444 205.347309 
L 331.558121 205.169215 
L 331.55796 205.169215 
L 331.666783 205.058158 
L 331.855826 204.87992 
L 331.855617 204.87992 
L 331.969633 204.768863 
L 331.96947 204.768863 
L 332.14937 204.593646 
L 332.149162 204.593646 
L 332.254673 204.482589 
L 332.42183 204.311473 
L 332.421644 204.311473 
L 332.52665 204.200416 
L 332.526446 204.200416 
L 332.692319 204.02973 
L 332.692167 204.02973 
L 332.798371 203.918673 
L 332.798171 203.918673 
L 332.955227 203.750865 
L 332.955025 203.750865 
L 333.057822 203.639808 
L 333.057722 203.639808 
L 333.214464 203.472072 
L 333.214331 203.472072 
L 333.31316 203.361015 
L 333.312967 203.361015 
L 333.460858 203.196156 
L 333.460741 203.196156 
L 333.560946 203.085099 
L 333.560905 203.085099 
L 333.714534 202.91837 
L 333.71439 202.91837 
L 333.810532 202.807313 
L 333.810352 202.807313 
L 333.951718 202.644611 
L 333.951503 202.644611 
L 334.046283 202.533554 
L 334.046178 202.533554 
L 334.19365 202.368839 
L 334.193507 202.368839 
L 334.287135 202.257782 
L 334.286956 202.257782 
L 334.424271 202.096376 
L 334.424097 202.096376 
L 334.520895 201.985319 
L 334.520846 201.985319 
L 334.652534 201.82571 
L 334.652321 201.82571 
L 334.747854 201.714653 
L 334.747721 201.714653 
L 334.882793 201.553966 
L 334.88259 201.553966 
L 334.972397 201.442909 
L 334.972262 201.442909 
L 335.099084 201.284883 
L 335.098896 201.284883 
L 335.186727 201.173826 
L 335.186643 201.173826 
L 335.313783 201.015728 
L 335.31363 201.015728 
L 335.402759 200.904671 
L 335.402576 200.904671 
L 335.524513 200.748228 
L 335.524322 200.748228 
L 335.61245 200.637171 
L 335.612287 200.637171 
L 335.737782 200.479576 
L 335.737614 200.479576 
L 335.821917 200.368519 
L 335.821786 200.368519 
L 335.935516 200.214737 
L 335.935318 200.214737 
L 336.017595 200.10368 
L 336.017435 200.10368 
L 336.136297 199.948244 
L 336.136077 199.948244 
L 336.216572 199.837187 
L 336.216397 199.837187 
L 336.327895 199.684196 
L 336.327686 199.684196 
L 336.412966 199.573139 
L 336.412826 199.573139 
L 336.527542 199.419069 
L 336.5274 199.419069 
L 336.612253 199.308012 
L 336.612068 199.308012 
L 336.72963 199.153007 
L 336.729497 199.153007 
L 336.810624 199.04195 
L 336.810413 199.04195 
L 336.925127 198.88788 
L 336.924933 198.88788 
L 337.006833 198.776823 
L 337.006631 198.776823 
L 337.120808 198.622897 
L 337.120623 198.622897 
L 337.200029 198.51184 
L 337.199921 198.51184 
L 337.310693 198.359065 
L 337.310511 198.359065 
L 337.391415 198.248008 
L 337.391237 198.248008 
L 337.50278 198.094945 
L 337.50264 198.094945 
L 337.580615 197.983888 
L 337.580454 197.983888 
L 337.696747 197.829315 
L 337.696574 197.829315 
L 337.772524 197.718258 
L 337.772439 197.718258 
L 337.88027 197.566418 
L 337.880058 197.566418 
L 337.957955 197.455361 
L 337.957735 197.455361 
L 338.068025 197.302729 
L 338.067866 197.302729 
L 338.146047 197.191672 
L 338.145839 197.191672 
L 338.256504 197.038897 
L 338.2563 197.038897 
L 338.329505 196.92784 
L 338.329314 196.92784 
L 338.437818 196.775784 
L 338.437602 196.775784 
L 338.516233 196.664727 
L 338.516041 196.664727 
L 338.632485 196.510082 
L 338.632333 196.510082 
L 338.708165 196.399025 
L 338.707949 196.399025 
L 338.815283 196.247329 
L 338.815111 196.247329 
L 338.895285 196.136272 
L 338.895084 196.136272 
L 339.000934 195.985079 
L 339.000756 195.985079 
L 339.07835 195.874022 
L 339.078162 195.874022 
L 339.177615 195.724915 
L 339.177481 195.724915 
L 339.251048 195.613858 
L 339.250834 195.613858 
L 339.353546 195.463672 
L 339.35333 195.463672 
L 339.428945 195.352615 
L 339.428757 195.352615 
L 339.531421 195.20243 
L 339.531264 195.20243 
L 339.60763 195.091373 
L 339.607409 195.091373 
L 339.706243 194.942482 
L 339.706061 194.942482 
L 339.782634 194.831425 
L 339.782435 194.831425 
L 339.886646 194.680735 
L 339.886505 194.680735 
L 339.960248 194.569678 
L 339.960056 194.569678 
L 340.062131 194.419708 
L 340.061947 194.419708 
L 340.136336 194.308651 
L 340.136119 194.308651 
L 340.236288 194.159329 
L 340.2361 194.159329 
L 340.307876 194.048272 
L 340.307701 194.048272 
L 340.408378 193.898733 
L 340.408181 193.898733 
L 340.479483 193.787676 
L 340.479305 193.787676 
L 340.577715 193.638929 
L 340.577522 193.638929 
L 340.653076 193.527872 
L 340.652924 193.527872 
L 340.756758 193.377327 
L 340.75657 193.377327 
L 340.825969 193.26627 
L 340.825826 193.26627 
L 340.921681 193.118314 
L 340.921468 193.118314 
L 340.994163 193.007257 
L 340.993989 193.007257 
L 341.087261 192.860164 
L 341.08707 192.860164 
L 341.157549 192.749107 
L 341.157328 192.749107 
L 341.249818 192.60223 
L 341.249801 192.60223 
L 341.32066 192.491173 
L 341.320458 192.491173 
L 341.418601 192.342498 
L 341.418384 192.342498 
L 341.486901 192.231441 
L 341.486755 192.231441 
L 341.579934 192.084348 
L 341.579735 192.084348 
L 341.647582 191.973291 
L 341.647421 191.973291 
L 341.741547 191.82591 
L 341.74143 191.82591 
L 341.811892 191.714853 
L 341.81171 191.714853 
L 341.906304 191.567329 
L 341.906087 191.567329 
L 341.979113 191.456272 
L 341.978899 191.456272 
L 342.077826 191.307309 
L 342.07766 191.307309 
L 342.150337 191.196252 
L 342.150123 191.196252 
L 342.240481 191.050094 
L 342.240262 191.050094 
L 342.31173 190.939037 
L 342.311577 190.939037 
L 342.409544 190.790434 
L 342.409325 190.790434 
L 342.480014 190.679377 
L 342.479802 190.679377 
L 342.571019 190.532931 
L 342.570881 190.532931 
L 342.641405 190.421874 
L 342.641191 190.421874 
L 342.734558 190.274709 
L 342.734346 190.274709 
L 342.807208 190.163652 
L 342.80714 190.163652 
L 342.903321 190.015624 
L 342.903145 190.015624 
L 342.973391 189.904567 
L 342.973185 189.904567 
L 343.067572 189.757115 
L 343.067356 189.757115 
L 343.134809 189.646058 
L 343.134599 189.646058 
L 343.224839 189.499972 
L 343.224624 189.499972 
L 343.293893 189.388915 
L 343.293673 189.388915 
L 343.385123 189.242398 
L 343.38496 189.242398 
L 343.45737 189.131341 
L 343.457182 189.131341 
L 343.555444 188.982593 
L 343.555362 188.982593 
L 343.623781 188.871536 
L 343.623572 188.871536 
L 343.71916 188.723652 
L 343.718956 188.723652 
L 343.791232 188.612595 
L 343.79102 188.612595 
L 343.886518 188.464783 
L 343.88634 188.464783 
L 343.957498 188.353726 
L 343.95731 188.353726 
L 344.05515 188.205123 
L 344.054933 188.205123 
L 344.12495 188.094066 
L 344.124806 188.094066 
L 344.218132 187.946973 
L 344.217943 187.946973 
L 344.288285 187.835916 
L 344.288089 187.835916 
L 344.381666 187.688751 
L 344.381448 187.688751 
L 344.453419 187.577694 
L 344.453219 187.577694 
L 344.547284 187.430314 
L 344.547072 187.430314 
L 344.621959 187.319257 
L 344.621759 187.319257 
L 344.714798 187.172236 
L 344.714604 187.172236 
L 344.783324 187.061179 
L 344.783117 187.061179 
L 344.872524 186.915309 
L 344.872352 186.915309 
L 344.946455 186.804252 
L 344.946332 186.804252 
L 345.03986 186.657087 
L 345.039642 186.657087 
L 345.109284 186.54603 
L 345.109165 186.54603 
L 345.206372 186.397642 
L 345.206172 186.397642 
L 345.279092 186.286585 
L 345.278916 186.286585 
L 345.376605 186.138054 
L 345.376385 186.138054 
L 345.447967 186.026997 
L 345.447746 186.026997 
L 345.547091 185.87789 
L 345.546974 185.87789 
L 345.618088 185.766833 
L 345.617879 185.766833 
L 345.714952 185.618517 
L 345.714758 185.618517 
L 345.786959 185.507461 
L 345.786773 185.507461 
L 345.884424 185.358929 
L 345.884224 185.358929 
L 345.957259 185.247872 
L 345.957055 185.247872 
L 346.052569 185.10006 
L 346.052384 185.10006 
L 346.12568 184.989003 
L 346.125502 184.989003 
L 346.220726 184.841263 
L 346.220505 184.841263 
L 346.292754 184.730206 
L 346.292555 184.730206 
L 346.386184 184.582969 
L 346.385967 184.582969 
L 346.459714 184.471912 
L 346.459519 184.471912 
L 346.552674 184.324819 
L 346.552472 184.324819 
L 346.623901 184.213762 
L 346.623721 184.213762 
L 346.714993 184.067317 
L 346.714832 184.067317 
L 346.787594 183.95626 
L 346.787379 183.95626 
L 346.883185 183.808304 
L 346.883006 183.808304 
L 346.958002 183.697247 
L 346.957787 183.697247 
L 347.051211 183.550082 
L 347.051036 183.550082 
L 347.125365 183.439025 
L 347.125242 183.439025 
L 347.222043 183.290781 
L 347.221855 183.290781 
L 347.296533 183.179724 
L 347.29635 183.179724 
L 347.393877 183.031265 
L 347.393673 183.031265 
L 347.466721 182.920208 
L 347.46651 182.920208 
L 347.566754 182.770813 
L 347.566559 182.770813 
L 347.639788 182.659756 
L 347.639648 182.659756 
L 347.732049 182.512951 
L 347.731835 182.512951 
L 347.804564 182.401894 
L 347.8045 182.401894 
L 347.906681 182.251924 
L 347.906483 182.251924 
L 347.980178 182.140867 
L 347.979969 182.140867 
L 348.082009 181.990897 
L 348.081847 181.990897 
L 348.156176 181.87984 
L 348.155988 181.87984 
L 348.249325 181.732747 
L 348.249111 181.732747 
L 348.325402 181.62169 
L 348.325306 181.62169 
L 348.427395 181.47172 
L 348.427188 181.47172 
L 348.502872 181.360663 
L 348.502734 181.360663 
L 348.604032 181.210981 
L 348.603831 181.210981 
L 348.677736 181.099924 
L 348.677551 181.099924 
L 348.779115 180.950098 
L 348.778951 180.950098 
L 348.854307 180.839041 
L 348.854107 180.839041 
L 348.957134 180.688783 
L 348.956927 180.688783 
L 349.036795 180.577726 
L 349.036645 180.577726 
L 349.13368 180.429411 
L 349.133509 180.429411 
L 349.21102 180.318354 
L 349.210842 180.318354 
L 349.313066 180.168312 
L 349.31288 180.168312 
L 349.389491 180.057255 
L 349.389301 180.057255 
L 349.498293 179.905055 
L 349.498111 179.905055 
L 349.576627 179.793998 
L 349.576542 179.793998 
L 349.683378 179.642517 
L 349.683162 179.642517 
L 349.75846 179.531461 
L 349.758252 179.531461 
L 349.870215 179.378254 
L 349.870012 179.378254 
L 349.949462 179.267197 
L 349.949297 179.267197 
L 350.057382 179.115285 
L 350.057209 179.115285 
L 350.139472 179.004228 
L 350.139317 179.004228 
L 350.24731 178.852316 
L 350.247127 178.852316 
L 350.327427 178.741259 
L 350.327244 178.741259 
L 350.439524 178.58798 
L 350.439317 178.58798 
L 350.517751 178.476923 
L 350.517626 178.476923 
L 350.629806 178.323644 
L 350.629644 178.323644 
L 350.716223 178.212587 
L 350.71604 178.212587 
L 350.827921 178.059453 
L 350.827744 178.059453 
L 350.910046 177.948396 
L 350.909929 177.948396 
L 351.02569 177.793966 
L 351.025479 177.793966 
L 351.110704 177.682909 
L 351.110648 177.682909 
L 351.237138 177.525027 
L 351.236975 177.525027 
L 351.319227 177.41397 
L 351.319067 177.41397 
L 351.447408 177.255441 
L 351.447224 177.255441 
L 351.527735 177.144384 
L 351.654316 176.98643 
L 351.654272 176.98643 
L 351.738854 176.875373 
L 351.738672 176.875373 
L 351.857323 176.720008 
L 351.85712 176.720008 
L 351.941845 176.608951 
L 351.941638 176.608951 
L 352.063436 176.452579 
L 352.063247 176.452579 
L 352.149955 176.341522 
L 352.149798 176.341522 
L 352.271775 176.185079 
L 352.271576 176.185079 
L 352.361317 176.074022 
L 352.361105 176.074022 
L 352.487547 175.91614 
L 352.487349 175.91614 
L 352.575617 175.805083 
L 352.575453 175.805083 
L 352.706202 175.645834 
L 352.705997 175.645834 
L 352.800951 175.534777 
L 352.800774 175.534777 
L 352.930003 175.37596 
L 352.929791 175.37596 
L 353.021094 175.264903 
L 353.020876 175.264903 
L 353.153456 175.105007 
L 353.153293 175.105007 
L 353.249496 174.99395 
L 353.249293 174.99395 
L 353.385083 174.833047 
L 353.384903 174.833047 
L 353.478836 174.72199 
L 353.478642 174.72199 
L 353.613935 174.561231 
L 353.613756 174.561231 
L 353.712134 174.450174 
L 353.711928 174.450174 
L 353.849281 174.288767 
L 353.849092 174.288767 
L 353.949885 174.17771 
L 353.949701 174.17771 
L 354.100413 174.011916 
L 354.100256 174.011916 
L 354.200169 173.900859 
L 354.199976 173.900859 
L 354.342779 173.737654 
L 354.342602 173.737654 
L 354.445595 173.626597 
L 354.445571 173.626597 
L 354.597867 173.4603 
L 354.597652 173.4603 
L 354.698866 173.349243 
L 354.698678 173.349243 
L 354.867921 173.177479 
L 354.867716 173.177479 
L 354.97424 173.066422 
L 354.974038 173.066422 
L 355.147934 172.893147 
L 355.147738 172.893147 
L 355.259554 172.78209 
L 355.259333 172.78209 
L 355.430102 172.609822 
L 355.429902 172.609822 
L 355.538132 172.498765 
L 355.537972 172.498765 
L 355.714808 172.324484 
L 355.714693 172.324484 
L 355.831883 172.213427 
L 355.831713 172.213427 
L 356.01501 172.037059 
L 356.01484 172.037059 
L 356.129962 171.926002 
L 356.129818 171.926002 
L 356.319924 171.747405 
L 356.31974 171.747405 
L 356.439414 171.636348 
L 356.439205 171.636348 
L 356.639548 171.454442 
L 356.639398 171.454442 
L 356.769607 171.343385 
L 356.769542 171.343385 
L 356.985349 171.156444 
L 356.985161 171.156444 
L 357.109774 171.045387 
L 357.109581 171.045387 
L 357.332114 170.856288 
L 357.331983 170.856288 
L 357.461361 170.745231 
L 357.461253 170.745231 
L 357.689186 170.554406 
L 357.688972 170.554406 
L 357.825474 170.443349 
L 357.825334 170.443349 
L 358.074881 170.245475 
L 358.074749 170.245475 
L 358.218397 170.134418 
L 358.21827 170.134418 
L 358.494062 169.927984 
L 358.493847 169.927984 
L 358.646514 169.816927 
L 358.960322 169.598194 
L 358.960115 169.598194 
L 359.107519 169.487137 
L 359.107325 169.487137 
L 359.423691 169.26754 
L 359.423594 169.26754 
L 359.586122 169.156484 
L 359.954593 168.919984 
L 359.954381 168.919984 
L 360.1401 168.808927 
L 360.139905 168.808927 
L 360.569703 168.552503 
L 360.569508 168.552503 
L 360.764162 168.441447 
L 360.764132 168.441447 
L 361.294508 168.152296 
L 361.294385 168.152296 
L 361.515719 168.041239 
L 361.515629 168.041239 
L 362.26173 167.68203 
L 362.261513 167.68203 
L 362.519551 167.570973 
L 362.519545 167.570973 
L 367.14143 166.185926 
L 367.800783 166.074869 
L 368.472479 165.972803 
L 369.362135 165.861746 
L 369.878933 165.810533 
L 371.231228 165.699477 
L 371.672601 165.670777 
L 374.566312 165.55972 
L 374.953746 165.549794 
L 433 165.499301 
L 433 165.499301 
" clip-path="url(#pec03e3d048)" style="fill: none; stroke-dasharray: 3,4.95; stroke-dashoffset: 0; stroke: #000000; stroke-width: 3"/>
   </g>
   <g id="PathCollection_3">
    <g clip-path="url(#pec03e3d048)">
     <use xlink:href="#m4b101cb070" x="308.45178" y="241.023776" style="fill: #ff0000; stroke: #ff0000; stroke-width: 1.5"/>
     <use xlink:href="#m4b101cb070" x="312.348722" y="241.023776" style="fill: #ff0000; stroke: #ff0000; stroke-width: 1.5"/>
     <use xlink:href="#m4b101cb070" x="319.619157" y="241.023776" style="fill: #ff0000; stroke: #ff0000; stroke-width: 1.5"/>
     <use xlink:href="#m4b101cb070" x="342.473765" y="241.023776" style="fill: #ff0000; stroke: #ff0000; stroke-width: 1.5"/>
     <use xlink:href="#m4b101cb070" x="371.115609" y="241.023776" style="fill: #ff0000; stroke: #ff0000; stroke-width: 1.5"/>
    </g>
   </g>
  </g>
  <g id="legend_1">
   <g id="patch_17">
    <path d="M 254.64 109.2 
L 400.28625 109.2 
Q 402.68625 109.2 402.68625 106.8 
L 402.68625 37.545 
Q 402.68625 35.145 400.28625 35.145 
L 254.64 35.145 
Q 252.24 35.145 252.24 37.545 
L 252.24 106.8 
Q 252.24 109.2 254.64 109.2 
z
" style="fill: #ffffff; opacity: 0.8; stroke: #cccccc; stroke-linejoin: miter"/>
   </g>
   <g id="line2d_31">
    <path d="M 257.04 44.863125 
L 269.04 44.863125 
L 281.04 44.863125 
" style="fill: none; stroke-dasharray: 3,4.95; stroke-dashoffset: 0; stroke: #000000; stroke-width: 3"/>
   </g>
   <g id="text_30">
    <!-- True Curve -->
    <g transform="translate(290.64 49.063125) scale(0.12 -0.12)">
     <defs>
      <path id="DejaVuSans-54" d="M -19 4666 
L 3928 4666 
L 3928 4134 
L 2272 4134 
L 2272 0 
L 1638 0 
L 1638 4134 
L -19 4134 
L -19 4666 
z
" transform="scale(0.015625)"/>
      <path id="DejaVuSans-72" d="M 2631 2963 
Q 2534 3019 2420 3045 
Q 2306 3072 2169 3072 
Q 1681 3072 1420 2755 
Q 1159 2438 1159 1844 
L 1159 0 
L 581 0 
L 581 3500 
L 1159 3500 
L 1159 2956 
Q 1341 3275 1631 3429 
Q 1922 3584 2338 3584 
Q 2397 3584 2469 3576 
Q 2541 3569 2628 3553 
L 2631 2963 
z
" transform="scale(0.015625)"/>
      <path id="DejaVuSans-75" d="M 544 1381 
L 544 3500 
L 1119 3500 
L 1119 1403 
Q 1119 906 1312 657 
Q 1506 409 1894 409 
Q 2359 409 2629 706 
Q 2900 1003 2900 1516 
L 2900 3500 
L 3475 3500 
L 3475 0 
L 2900 0 
L 2900 538 
Q 2691 219 2414 64 
Q 2138 -91 1772 -91 
Q 1169 -91 856 284 
Q 544 659 544 1381 
z
M 1991 3584 
L 1991 3584 
z
" transform="scale(0.015625)"/>
      <path id="DejaVuSans-65" d="M 3597 1894 
L 3597 1613 
L 953 1613 
Q 991 1019 1311 708 
Q 1631 397 2203 397 
Q 2534 397 2845 478 
Q 3156 559 3463 722 
L 3463 178 
Q 3153 47 2828 -22 
Q 2503 -91 2169 -91 
Q 1331 -91 842 396 
Q 353 884 353 1716 
Q 353 2575 817 3079 
Q 1281 3584 2069 3584 
Q 2775 3584 3186 3129 
Q 3597 2675 3597 1894 
z
M 3022 2063 
Q 3016 2534 2758 2815 
Q 2500 3097 2075 3097 
Q 1594 3097 1305 2825 
Q 1016 2553 972 2059 
L 3022 2063 
z
" transform="scale(0.015625)"/>
      <path id="DejaVuSans-76" d="M 191 3500 
L 800 3500 
L 1894 563 
L 2988 3500 
L 3597 3500 
L 2284 0 
L 1503 0 
L 191 3500 
z
" transform="scale(0.015625)"/>
     </defs>
     <use xlink:href="#DejaVuSans-54"/>
     <use xlink:href="#DejaVuSans-72" x="46.333984"/>
     <use xlink:href="#DejaVuSans-75" x="87.447266"/>
     <use xlink:href="#DejaVuSans-65" x="150.826172"/>
     <use xlink:href="#DejaVuSans-20" x="212.349609"/>
     <use xlink:href="#DejaVuSans-43" x="244.136719"/>
     <use xlink:href="#DejaVuSans-75" x="313.960938"/>
     <use xlink:href="#DejaVuSans-72" x="377.339844"/>
     <use xlink:href="#DejaVuSans-76" x="418.453125"/>
     <use xlink:href="#DejaVuSans-65" x="477.632812"/>
    </g>
   </g>
   <g id="line2d_32">
    <path d="M 257.04 62.476875 
L 269.04 62.476875 
L 281.04 62.476875 
" style="fill: none; stroke: #ff0000; stroke-width: 3; stroke-linecap: square"/>
   </g>
   <g id="text_31">
    <!-- Fcst. Ens. Curve -->
    <g transform="translate(290.64 66.676875) scale(0.12 -0.12)">
     <defs>
      <path id="DejaVuSans-63" d="M 3122 3366 
L 3122 2828 
Q 2878 2963 2633 3030 
Q 2388 3097 2138 3097 
Q 1578 3097 1268 2742 
Q 959 2388 959 1747 
Q 959 1106 1268 751 
Q 1578 397 2138 397 
Q 2388 397 2633 464 
Q 2878 531 3122 666 
L 3122 134 
Q 2881 22 2623 -34 
Q 2366 -91 2075 -91 
Q 1284 -91 818 406 
Q 353 903 353 1747 
Q 353 2603 823 3093 
Q 1294 3584 2113 3584 
Q 2378 3584 2631 3529 
Q 2884 3475 3122 3366 
z
" transform="scale(0.015625)"/>
      <path id="DejaVuSans-73" d="M 2834 3397 
L 2834 2853 
Q 2591 2978 2328 3040 
Q 2066 3103 1784 3103 
Q 1356 3103 1142 2972 
Q 928 2841 928 2578 
Q 928 2378 1081 2264 
Q 1234 2150 1697 2047 
L 1894 2003 
Q 2506 1872 2764 1633 
Q 3022 1394 3022 966 
Q 3022 478 2636 193 
Q 2250 -91 1575 -91 
Q 1294 -91 989 -36 
Q 684 19 347 128 
L 347 722 
Q 666 556 975 473 
Q 1284 391 1588 391 
Q 1994 391 2212 530 
Q 2431 669 2431 922 
Q 2431 1156 2273 1281 
Q 2116 1406 1581 1522 
L 1381 1569 
Q 847 1681 609 1914 
Q 372 2147 372 2553 
Q 372 3047 722 3315 
Q 1072 3584 1716 3584 
Q 2034 3584 2315 3537 
Q 2597 3491 2834 3397 
z
" transform="scale(0.015625)"/>
      <path id="DejaVuSans-74" d="M 1172 4494 
L 1172 3500 
L 2356 3500 
L 2356 3053 
L 1172 3053 
L 1172 1153 
Q 1172 725 1289 603 
Q 1406 481 1766 481 
L 2356 481 
L 2356 0 
L 1766 0 
Q 1100 0 847 248 
Q 594 497 594 1153 
L 594 3053 
L 172 3053 
L 172 3500 
L 594 3500 
L 594 4494 
L 1172 4494 
z
" transform="scale(0.015625)"/>
      <path id="DejaVuSans-45" d="M 628 4666 
L 3578 4666 
L 3578 4134 
L 1259 4134 
L 1259 2753 
L 3481 2753 
L 3481 2222 
L 1259 2222 
L 1259 531 
L 3634 531 
L 3634 0 
L 628 0 
L 628 4666 
z
" transform="scale(0.015625)"/>
      <path id="DejaVuSans-6e" d="M 3513 2113 
L 3513 0 
L 2938 0 
L 2938 2094 
Q 2938 2591 2744 2837 
Q 2550 3084 2163 3084 
Q 1697 3084 1428 2787 
Q 1159 2491 1159 1978 
L 1159 0 
L 581 0 
L 581 3500 
L 1159 3500 
L 1159 2956 
Q 1366 3272 1645 3428 
Q 1925 3584 2291 3584 
Q 2894 3584 3203 3211 
Q 3513 2838 3513 2113 
z
" transform="scale(0.015625)"/>
     </defs>
     <use xlink:href="#DejaVuSans-46"/>
     <use xlink:href="#DejaVuSans-63" x="57.519531"/>
     <use xlink:href="#DejaVuSans-73" x="112.5"/>
     <use xlink:href="#DejaVuSans-74" x="164.599609"/>
     <use xlink:href="#DejaVuSans-2e" x="203.808594"/>
     <use xlink:href="#DejaVuSans-20" x="235.595703"/>
     <use xlink:href="#DejaVuSans-45" x="267.382812"/>
     <use xlink:href="#DejaVuSans-6e" x="330.566406"/>
     <use xlink:href="#DejaVuSans-73" x="393.945312"/>
     <use xlink:href="#DejaVuSans-2e" x="446.044922"/>
     <use xlink:href="#DejaVuSans-20" x="477.832031"/>
     <use xlink:href="#DejaVuSans-43" x="509.619141"/>
     <use xlink:href="#DejaVuSans-75" x="579.443359"/>
     <use xlink:href="#DejaVuSans-72" x="642.822266"/>
     <use xlink:href="#DejaVuSans-76" x="683.935547"/>
     <use xlink:href="#DejaVuSans-65" x="743.115234"/>
    </g>
   </g>
   <g id="PathCollection_4">
    <g>
     <use xlink:href="#m4b101cb070" x="269.04" y="81.140625" style="fill: #ff0000; stroke: #ff0000; stroke-width: 1.5"/>
    </g>
   </g>
   <g id="text_32">
    <!-- Fcst. Ens. Mems. -->
    <g transform="translate(290.64 84.290625) scale(0.12 -0.12)">
     <defs>
      <path id="DejaVuSans-4d" d="M 628 4666 
L 1569 4666 
L 2759 1491 
L 3956 4666 
L 4897 4666 
L 4897 0 
L 4281 0 
L 4281 4097 
L 3078 897 
L 2444 897 
L 1241 4097 
L 1241 0 
L 628 0 
L 628 4666 
z
" transform="scale(0.015625)"/>
      <path id="DejaVuSans-6d" d="M 3328 2828 
Q 3544 3216 3844 3400 
Q 4144 3584 4550 3584 
Q 5097 3584 5394 3201 
Q 5691 2819 5691 2113 
L 5691 0 
L 5113 0 
L 5113 2094 
Q 5113 2597 4934 2840 
Q 4756 3084 4391 3084 
Q 3944 3084 3684 2787 
Q 3425 2491 3425 1978 
L 3425 0 
L 2847 0 
L 2847 2094 
Q 2847 2600 2669 2842 
Q 2491 3084 2119 3084 
Q 1678 3084 1418 2786 
Q 1159 2488 1159 1978 
L 1159 0 
L 581 0 
L 581 3500 
L 1159 3500 
L 1159 2956 
Q 1356 3278 1631 3431 
Q 1906 3584 2284 3584 
Q 2666 3584 2933 3390 
Q 3200 3197 3328 2828 
z
" transform="scale(0.015625)"/>
     </defs>
     <use xlink:href="#DejaVuSans-46"/>
     <use xlink:href="#DejaVuSans-63" x="57.519531"/>
     <use xlink:href="#DejaVuSans-73" x="112.5"/>
     <use xlink:href="#DejaVuSans-74" x="164.599609"/>
     <use xlink:href="#DejaVuSans-2e" x="203.808594"/>
     <use xlink:href="#DejaVuSans-20" x="235.595703"/>
     <use xlink:href="#DejaVuSans-45" x="267.382812"/>
     <use xlink:href="#DejaVuSans-6e" x="330.566406"/>
     <use xlink:href="#DejaVuSans-73" x="393.945312"/>
     <use xlink:href="#DejaVuSans-2e" x="446.044922"/>
     <use xlink:href="#DejaVuSans-20" x="477.832031"/>
     <use xlink:href="#DejaVuSans-4d" x="509.619141"/>
     <use xlink:href="#DejaVuSans-65" x="595.898438"/>
     <use xlink:href="#DejaVuSans-6d" x="657.421875"/>
     <use xlink:href="#DejaVuSans-73" x="754.833984"/>
     <use xlink:href="#DejaVuSans-2e" x="806.933594"/>
    </g>
   </g>
   <g id="line2d_33">
    <path d="M 257.04 97.704375 
L 269.04 97.704375 
L 281.04 97.704375 
" style="fill: none; stroke: #1e90ff; stroke-width: 3; stroke-linecap: square"/>
   </g>
   <g id="text_33">
    <!-- Virt. Mems. Curve -->
    <g transform="translate(290.64 101.904375) scale(0.12 -0.12)">
     <defs>
      <path id="DejaVuSans-69" d="M 603 3500 
L 1178 3500 
L 1178 0 
L 603 0 
L 603 3500 
z
M 603 4863 
L 1178 4863 
L 1178 4134 
L 603 4134 
L 603 4863 
z
" transform="scale(0.015625)"/>
     </defs>
     <use xlink:href="#DejaVuSans-56"/>
     <use xlink:href="#DejaVuSans-69" x="66.158203"/>
     <use xlink:href="#DejaVuSans-72" x="93.941406"/>
     <use xlink:href="#DejaVuSans-74" x="135.054688"/>
     <use xlink:href="#DejaVuSans-2e" x="174.263672"/>
     <use xlink:href="#DejaVuSans-20" x="206.050781"/>
     <use xlink:href="#DejaVuSans-4d" x="237.837891"/>
     <use xlink:href="#DejaVuSans-65" x="324.117188"/>
     <use xlink:href="#DejaVuSans-6d" x="385.640625"/>
     <use xlink:href="#DejaVuSans-73" x="483.052734"/>
     <use xlink:href="#DejaVuSans-2e" x="535.152344"/>
     <use xlink:href="#DejaVuSans-20" x="566.939453"/>
     <use xlink:href="#DejaVuSans-43" x="598.726562"/>
     <use xlink:href="#DejaVuSans-75" x="668.550781"/>
     <use xlink:href="#DejaVuSans-72" x="731.929688"/>
     <use xlink:href="#DejaVuSans-76" x="773.042969"/>
     <use xlink:href="#DejaVuSans-65" x="832.222656"/>
    </g>
   </g>
  </g>
 </g>
 <defs>
  <clipPath id="pb8f27271c7">
   <rect x="54" y="28.8" width="154.956522" height="83.076923"/>
  </clipPath>
  <clipPath id="pe219c3cfe5">
   <rect x="54" y="161.723077" width="154.956522" height="83.076923"/>
  </clipPath>
  <clipPath id="pec03e3d048">
   <rect x="255.443478" y="161.723077" width="154.956522" height="83.076923"/>
  </clipPath>
 </defs>
</svg>
