<?xml version="1.0" encoding="utf-8" standalone="no"?>
<!DOCTYPE svg PUBLIC "-//W3C//DTD SVG 1.1//EN"
  "http://www.w3.org/Graphics/SVG/1.1/DTD/svg11.dtd">
<svg xmlns:xlink="http://www.w3.org/1999/xlink" width="288pt" height="216pt" viewBox="0 0 288 216" xmlns="http://www.w3.org/2000/svg" version="1.1">
 <metadata>
  <rdf:RDF xmlns:dc="http://purl.org/dc/elements/1.1/" xmlns:cc="http://creativecommons.org/ns#" xmlns:rdf="http://www.w3.org/1999/02/22-rdf-syntax-ns#">
   <cc:Work>
    <dc:type rdf:resource="http://purl.org/dc/dcmitype/StillImage"/>
    <dc:date>2023-08-03T11:13:40.459043</dc:date>
    <dc:format>image/svg+xml</dc:format>
    <dc:creator>
     <cc:Agent>
      <dc:title>Matplotlib v3.7.1, https://matplotlib.org/</dc:title>
     </cc:Agent>
    </dc:creator>
   </cc:Work>
  </rdf:RDF>
 </metadata>
 <defs>
  <style type="text/css">*{stroke-linejoin: round; stroke-linecap: butt}</style>
 </defs>
 <g id="figure_1">
  <g id="patch_1">
   <path d="M 0 216 
L 288 216 
L 288 0 
L 0 0 
z
" style="fill: #ffffff"/>
  </g>
  <g id="axes_1">
   <g id="patch_2">
    <path d="M 57.6 151.2 
L 218.88 151.2 
L 218.88 21.6 
L 57.6 21.6 
z
" style="fill: #ffffff"/>
   </g>
   <g id="PathCollection_1">
    <path d="M 60.0192 151.2 
L 60.8256 151.2 
L 61.632 151.2 
L 62.4384 151.2 
L 63.2448 151.2 
L 64.0512 151.2 
L 64.8576 151.2 
L 65.664 151.2 
L 66.4704 151.2 
L 67.2768 151.2 
L 68.0832 151.2 
L 68.8896 151.2 
L 69.696 151.2 
L 70.5024 151.2 
L 71.3088 151.2 
L 72.1152 151.2 
L 72.9216 151.2 
L 73.728 151.2 
L 74.5344 151.2 
L 75.3408 151.2 
L 76.1472 151.2 
L 76.9536 151.2 
L 77.76 151.2 
L 78.5664 151.2 
L 79.3728 151.2 
L 80.1792 151.2 
L 80.9856 151.2 
L 81.792 151.2 
L 82.5984 151.2 
L 83.4048 151.2 
L 84.2112 151.2 
L 85.0176 151.2 
L 85.824 151.2 
L 86.6304 151.2 
L 87.4368 151.2 
L 88.2432 151.2 
L 89.0496 151.2 
L 89.856 151.2 
L 90.6624 151.2 
L 91.4688 151.2 
L 92.2752 151.2 
L 93.0816 151.2 
L 93.888 151.2 
L 94.6944 151.2 
L 95.5008 151.2 
L 96.3072 151.2 
L 97.1136 151.2 
L 97.92 151.2 
L 98.7264 151.2 
L 99.5328 151.2 
L 100.3392 151.2 
L 101.1456 151.2 
L 101.952 151.2 
L 102.7584 151.2 
L 103.5648 151.2 
L 104.3712 151.2 
L 105.1776 151.2 
L 105.984 151.2 
L 106.7904 151.2 
L 107.5968 151.2 
L 108.4032 151.2 
L 109.2096 151.2 
L 110.016 151.2 
L 110.8224 151.2 
L 111.6288 151.2 
L 112.4352 151.2 
L 113.2416 151.2 
L 114.048 151.2 
L 114.8544 151.2 
L 115.6608 151.2 
L 116.4672 151.2 
L 117.2736 151.2 
L 118.08 151.2 
L 118.8864 151.2 
L 119.6928 151.2 
L 120.4992 151.2 
L 121.3056 151.2 
L 122.112 151.2 
L 122.9184 151.2 
L 123.7248 151.2 
L 124.5312 151.2 
L 125.3376 151.2 
L 126.144 151.2 
L 126.9504 151.2 
L 127.7568 151.2 
L 128.5632 151.2 
L 129.3696 151.2 
L 130.176 151.2 
L 130.9824 151.2 
L 131.7888 151.2 
L 132.5952 151.2 
L 133.4016 151.2 
L 134.208 151.2 
L 135.0144 151.2 
L 135.8208 151.2 
L 136.6272 151.2 
L 137.4336 151.2 
L 138.24 151.2 
L 139.0464 151.2 
L 139.8528 151.2 
L 140.6592 151.2 
L 141.4656 151.2 
L 142.272 151.2 
L 143.0784 151.2 
L 143.8848 151.2 
L 144.6912 151.2 
L 145.4976 151.2 
L 146.304 151.2 
L 147.1104 151.2 
L 147.9168 151.2 
L 148.7232 151.2 
L 149.5296 151.2 
L 150.336 151.2 
L 151.1424 151.2 
L 151.9488 151.2 
L 152.7552 151.2 
L 153.5616 151.2 
L 154.368 151.2 
L 155.1744 151.2 
L 155.9808 151.2 
L 156.7872 151.2 
L 157.5936 151.2 
L 158.4 151.2 
L 159.2064 151.2 
L 160.0128 151.2 
L 160.8192 151.2 
L 161.6256 151.2 
L 162.432 151.2 
L 163.2384 151.2 
L 164.0448 151.2 
L 164.8512 151.2 
L 165.6576 151.2 
L 166.464 151.2 
L 167.2704 151.2 
L 168.0768 151.2 
L 168.8832 151.2 
L 169.6896 151.2 
L 170.496 151.2 
L 171.3024 151.2 
L 172.1088 151.2 
L 172.9152 151.2 
L 173.7216 151.2 
L 174.528 151.2 
L 175.3344 151.2 
L 176.1408 151.2 
L 176.9472 151.2 
L 177.7536 151.2 
L 178.56 151.2 
L 179.3664 151.2 
L 180.1728 151.2 
L 180.9792 151.2 
L 181.7856 151.2 
L 182.592 151.2 
L 183.3984 151.2 
L 184.2048 151.2 
L 185.0112 151.2 
L 185.8176 151.2 
L 186.624 151.2 
L 187.4304 151.2 
L 188.2368 151.2 
L 189.0432 151.2 
L 189.8496 151.2 
L 190.656 151.2 
L 191.4624 151.2 
L 192.2688 151.2 
L 193.0752 151.2 
L 193.8816 151.2 
L 194.688 151.2 
L 195.4944 151.2 
L 196.3008 151.2 
L 197.1072 151.2 
L 197.9136 151.2 
L 198.72 151.2 
L 199.5264 151.2 
L 200.3328 151.2 
L 201.1392 151.2 
L 201.9456 151.2 
L 202.752 151.2 
L 203.5584 151.2 
L 204.3648 151.2 
L 205.1712 151.2 
L 205.9776 151.2 
L 206.784 151.2 
L 207.5904 151.2 
L 208.3968 151.2 
L 209.2032 151.2 
L 210.0096 151.2 
L 210.816 151.2 
L 211.6224 151.2 
L 212.4288 151.2 
L 213.2352 151.2 
L 214.0416 151.2 
L 214.848 151.2 
L 215.6544 151.2 
L 216.4608 151.2 
L 217.2672 151.2 
L 218.0736 151.2 
L 218.88 151.2 
L 218.88 148.608 
L 218.88 146.016 
L 218.88 143.424 
L 218.88 142.272957 
L 218.0736 142.316913 
L 217.2672 142.360938 
L 216.4608 142.405032 
L 215.6544 142.449194 
L 214.848 142.493425 
L 214.0416 142.537726 
L 213.2352 142.582096 
L 212.4288 142.626536 
L 211.6224 142.671045 
L 210.816 142.715625 
L 210.0096 142.760275 
L 209.2032 142.804996 
L 208.3968 142.849787 
L 207.5904 142.894649 
L 206.784 142.939582 
L 205.9776 142.984587 
L 205.1712 143.029663 
L 204.3648 143.07481 
L 203.5584 143.12003 
L 202.752 143.165322 
L 201.9456 143.210686 
L 201.1392 143.256122 
L 200.3328 143.301631 
L 199.5264 143.347213 
L 198.72 143.392867 
L 198.171401 143.424 
L 197.9136 143.438766 
L 197.1072 143.485104 
L 196.3008 143.531518 
L 195.4944 143.578009 
L 194.688 143.624576 
L 193.8816 143.67122 
L 193.0752 143.717941 
L 192.2688 143.764738 
L 191.4624 143.811614 
L 190.656 143.858566 
L 189.8496 143.905596 
L 189.0432 143.952704 
L 188.2368 143.999889 
L 187.4304 144.047153 
L 186.624 144.094494 
L 185.8176 144.141914 
L 185.0112 144.189412 
L 184.2048 144.236988 
L 183.3984 144.284643 
L 182.592 144.332376 
L 181.7856 144.380188 
L 180.9792 144.428079 
L 180.1728 144.476049 
L 179.3664 144.524097 
L 178.56 144.572224 
L 177.7536 144.62043 
L 176.9472 144.668715 
L 176.1408 144.717078 
L 175.3344 144.76552 
L 174.528 144.814041 
L 173.7216 144.862641 
L 172.9152 144.91132 
L 172.1088 144.960077 
L 171.3024 145.008912 
L 170.496 145.057826 
L 169.6896 145.106817 
L 168.8832 145.155887 
L 168.0768 145.205035 
L 167.2704 145.25426 
L 166.464 145.303562 
L 165.6576 145.352942 
L 164.8512 145.402398 
L 164.0448 145.451931 
L 163.2384 145.50154 
L 162.432 145.551225 
L 161.6256 145.600985 
L 160.8192 145.65082 
L 160.0128 145.70073 
L 159.2064 145.750713 
L 158.4 145.80077 
L 157.5936 145.850899 
L 156.7872 145.901101 
L 155.9808 145.951374 
L 155.1744 146.001717 
L 154.946479 146.016 
L 154.368 146.052985 
L 153.5616 146.104665 
L 152.7552 146.156419 
L 151.9488 146.208247 
L 151.1424 146.260148 
L 150.336 146.312121 
L 149.5296 146.364165 
L 148.7232 146.416279 
L 147.9168 146.468461 
L 147.1104 146.520711 
L 146.304 146.573027 
L 145.4976 146.625407 
L 144.6912 146.67785 
L 143.8848 146.730355 
L 143.0784 146.782919 
L 142.272 146.835542 
L 141.4656 146.88822 
L 140.6592 146.940952 
L 139.8528 146.993736 
L 139.0464 147.04657 
L 138.24 147.099451 
L 137.4336 147.152376 
L 136.6272 147.205343 
L 135.8208 147.258348 
L 135.0144 147.31139 
L 134.208 147.364463 
L 133.4016 147.417566 
L 132.5952 147.470694 
L 131.7888 147.523844 
L 130.9824 147.577011 
L 130.176 147.630191 
L 129.3696 147.68338 
L 128.5632 147.736572 
L 127.7568 147.789763 
L 126.9504 147.842946 
L 126.144 147.896117 
L 125.3376 147.949268 
L 124.5312 148.002394 
L 123.7248 148.055487 
L 122.9184 148.10854 
L 122.112 148.161546 
L 121.3056 148.214495 
L 120.4992 148.26738 
L 119.6928 148.32019 
L 118.8864 148.372917 
L 118.08 148.425549 
L 117.2736 148.478075 
L 116.4672 148.530484 
L 115.6608 148.582762 
L 115.271453 148.608 
L 114.8544 148.636008 
L 114.048 148.690147 
L 113.2416 148.744125 
L 112.4352 148.797926 
L 111.6288 148.851532 
L 110.8224 148.904925 
L 110.016 148.958086 
L 109.2096 149.010993 
L 108.4032 149.063625 
L 107.5968 149.115958 
L 106.7904 149.167966 
L 105.984 149.219622 
L 105.1776 149.270897 
L 104.3712 149.321759 
L 103.5648 149.372175 
L 102.7584 149.422109 
L 101.952 149.471523 
L 101.1456 149.520374 
L 100.3392 149.56862 
L 99.5328 149.61621 
L 98.7264 149.663095 
L 97.92 149.709218 
L 97.1136 149.75452 
L 96.3072 149.798935 
L 95.5008 149.842393 
L 94.6944 149.88482 
L 93.888 149.926132 
L 93.0816 149.966242 
L 92.2752 150.005053 
L 91.4688 150.042459 
L 90.6624 150.078348 
L 89.856 150.112595 
L 89.0496 150.145064 
L 88.2432 150.175608 
L 87.4368 150.204064 
L 86.6304 150.230255 
L 85.824 150.253987 
L 85.0176 150.275044 
L 84.2112 150.29319 
L 83.4048 150.308164 
L 82.5984 150.319676 
L 81.792 150.327405 
L 80.9856 150.330992 
L 80.1792 150.330038 
L 79.3728 150.324093 
L 78.5664 150.312654 
L 77.76 150.295151 
L 76.9536 150.270937 
L 76.1472 150.239276 
L 75.3408 150.199322 
L 74.5344 150.150102 
L 73.728 150.090485 
L 72.9216 150.019149 
L 72.1152 149.934531 
L 71.3088 149.834771 
L 70.5024 149.717626 
L 69.696 149.580354 
L 68.8896 149.419555 
L 68.0832 149.230935 
L 67.2768 149.008951 
L 66.4704 148.746264 
L 66.116135 148.608 
L 65.664 148.454758 
L 64.8576 148.129738 
L 64.0512 147.741976 
L 63.2448 147.271883 
L 62.4384 146.688255 
L 61.716952 146.016 
L 61.632 145.9497 
L 60.8256 145.128084 
L 60.0192 144.000973 
L 59.746868 143.424 
L 59.2128 142.517553 
L 58.643227 140.832 
L 58.4064 140.286814 
L 58.048111 138.24 
L 57.6 136.117059 
L 57.6 138.24 
L 58.4064 140.832 
L 58.4064 143.424 
L 58.4064 146.016 
L 59.2128 148.608 
L 59.2128 151.2 
z
" clip-path="url(#pec30182aaf)" style="fill: #f1ef75"/>
   </g>
   <g id="PathCollection_2">
    <path d="M 66.4704 148.746264 
L 67.2768 149.008951 
L 68.0832 149.230935 
L 68.8896 149.419555 
L 69.696 149.580354 
L 70.5024 149.717626 
L 71.3088 149.834771 
L 72.1152 149.934531 
L 72.9216 150.019149 
L 73.728 150.090485 
L 74.5344 150.150102 
L 75.3408 150.199322 
L 76.1472 150.239276 
L 76.9536 150.270937 
L 77.76 150.295151 
L 78.5664 150.312654 
L 79.3728 150.324093 
L 80.1792 150.330038 
L 80.9856 150.330992 
L 81.792 150.327405 
L 82.5984 150.319676 
L 83.4048 150.308164 
L 84.2112 150.29319 
L 85.0176 150.275044 
L 85.824 150.253987 
L 86.6304 150.230255 
L 87.4368 150.204064 
L 88.2432 150.175608 
L 89.0496 150.145064 
L 89.856 150.112595 
L 90.6624 150.078348 
L 91.4688 150.042459 
L 92.2752 150.005053 
L 93.0816 149.966242 
L 93.888 149.926132 
L 94.6944 149.88482 
L 95.5008 149.842393 
L 96.3072 149.798935 
L 97.1136 149.75452 
L 97.92 149.709218 
L 98.7264 149.663095 
L 99.5328 149.61621 
L 100.3392 149.56862 
L 101.1456 149.520374 
L 101.952 149.471523 
L 102.7584 149.422109 
L 103.5648 149.372175 
L 104.3712 149.321759 
L 105.1776 149.270897 
L 105.984 149.219622 
L 106.7904 149.167966 
L 107.5968 149.115958 
L 108.4032 149.063625 
L 109.2096 149.010993 
L 110.016 148.958086 
L 110.8224 148.904925 
L 111.6288 148.851532 
L 112.4352 148.797926 
L 113.2416 148.744125 
L 114.048 148.690147 
L 114.8544 148.636008 
L 115.271453 148.608 
L 115.6608 148.582762 
L 116.4672 148.530484 
L 117.2736 148.478075 
L 118.08 148.425549 
L 118.8864 148.372917 
L 119.6928 148.32019 
L 120.4992 148.26738 
L 121.3056 148.214495 
L 122.112 148.161546 
L 122.9184 148.10854 
L 123.7248 148.055487 
L 124.5312 148.002394 
L 125.3376 147.949268 
L 126.144 147.896117 
L 126.9504 147.842946 
L 127.7568 147.789763 
L 128.5632 147.736572 
L 129.3696 147.68338 
L 130.176 147.630191 
L 130.9824 147.577011 
L 131.7888 147.523844 
L 132.5952 147.470694 
L 133.4016 147.417566 
L 134.208 147.364463 
L 135.0144 147.31139 
L 135.8208 147.258348 
L 136.6272 147.205343 
L 137.4336 147.152376 
L 138.24 147.099451 
L 139.0464 147.04657 
L 139.8528 146.993736 
L 140.6592 146.940952 
L 141.4656 146.88822 
L 142.272 146.835542 
L 143.0784 146.782919 
L 143.8848 146.730355 
L 144.6912 146.67785 
L 145.4976 146.625407 
L 146.304 146.573027 
L 147.1104 146.520711 
L 147.9168 146.468461 
L 148.7232 146.416279 
L 149.5296 146.364165 
L 150.336 146.312121 
L 151.1424 146.260148 
L 151.9488 146.208247 
L 152.7552 146.156419 
L 153.5616 146.104665 
L 154.368 146.052985 
L 154.946479 146.016 
L 155.1744 146.001717 
L 155.9808 145.951374 
L 156.7872 145.901101 
L 157.5936 145.850899 
L 158.4 145.80077 
L 159.2064 145.750713 
L 160.0128 145.70073 
L 160.8192 145.65082 
L 161.6256 145.600985 
L 162.432 145.551225 
L 163.2384 145.50154 
L 164.0448 145.451931 
L 164.8512 145.402398 
L 165.6576 145.352942 
L 166.464 145.303562 
L 167.2704 145.25426 
L 168.0768 145.205035 
L 168.8832 145.155887 
L 169.6896 145.106817 
L 170.496 145.057826 
L 171.3024 145.008912 
L 172.1088 144.960077 
L 172.9152 144.91132 
L 173.7216 144.862641 
L 174.528 144.814041 
L 175.3344 144.76552 
L 176.1408 144.717078 
L 176.9472 144.668715 
L 177.7536 144.62043 
L 178.56 144.572224 
L 179.3664 144.524097 
L 180.1728 144.476049 
L 180.9792 144.428079 
L 181.7856 144.380188 
L 182.592 144.332376 
L 183.3984 144.284643 
L 184.2048 144.236988 
L 185.0112 144.189412 
L 185.8176 144.141914 
L 186.624 144.094494 
L 187.4304 144.047153 
L 188.2368 143.999889 
L 189.0432 143.952704 
L 189.8496 143.905596 
L 190.656 143.858566 
L 191.4624 143.811614 
L 192.2688 143.764738 
L 193.0752 143.717941 
L 193.8816 143.67122 
L 194.688 143.624576 
L 195.4944 143.578009 
L 196.3008 143.531518 
L 197.1072 143.485104 
L 197.9136 143.438766 
L 198.171401 143.424 
L 198.72 143.392867 
L 199.5264 143.347213 
L 200.3328 143.301631 
L 201.1392 143.256122 
L 201.9456 143.210686 
L 202.752 143.165322 
L 203.5584 143.12003 
L 204.3648 143.07481 
L 205.1712 143.029663 
L 205.9776 142.984587 
L 206.784 142.939582 
L 207.5904 142.894649 
L 208.3968 142.849787 
L 209.2032 142.804996 
L 210.0096 142.760275 
L 210.816 142.715625 
L 211.6224 142.671045 
L 212.4288 142.626536 
L 213.2352 142.582096 
L 214.0416 142.537726 
L 214.848 142.493425 
L 215.6544 142.449194 
L 216.4608 142.405032 
L 217.2672 142.360938 
L 218.0736 142.316913 
L 218.88 142.272957 
L 218.88 140.832 
L 218.88 138.24 
L 218.88 135.648 
L 218.88 133.056 
L 218.88 130.464 
L 218.88 127.872 
L 218.88 125.28 
L 218.88 122.688 
L 218.88 120.925603 
L 218.0736 121.025449 
L 217.2672 121.125478 
L 216.4608 121.225691 
L 215.6544 121.326089 
L 214.848 121.426674 
L 214.0416 121.527446 
L 213.2352 121.628406 
L 212.4288 121.729556 
L 211.6224 121.830896 
L 210.816 121.932428 
L 210.0096 122.034152 
L 209.2032 122.13607 
L 208.3968 122.238182 
L 207.5904 122.340491 
L 206.784 122.442997 
L 205.9776 122.5457 
L 205.1712 122.648604 
L 204.863522 122.688 
L 204.3648 122.749951 
L 203.5584 122.850409 
L 202.752 122.951065 
L 201.9456 123.05192 
L 201.1392 123.152975 
L 200.3328 123.254233 
L 199.5264 123.355693 
L 198.72 123.457357 
L 197.9136 123.559227 
L 197.1072 123.661303 
L 196.3008 123.763587 
L 195.4944 123.86608 
L 194.688 123.968783 
L 193.8816 124.071698 
L 193.0752 124.174827 
L 192.2688 124.278169 
L 191.4624 124.381727 
L 190.656 124.485502 
L 189.8496 124.589495 
L 189.0432 124.693708 
L 188.2368 124.798143 
L 187.4304 124.902799 
L 186.624 125.00768 
L 185.8176 125.112787 
L 185.0112 125.21812 
L 184.539017 125.28 
L 184.2048 125.322591 
L 183.3984 125.425742 
L 182.592 125.529119 
L 181.7856 125.632724 
L 180.9792 125.73656 
L 180.1728 125.840626 
L 179.3664 125.944925 
L 178.56 126.049458 
L 177.7536 126.154227 
L 176.9472 126.259233 
L 176.1408 126.364479 
L 175.3344 126.469965 
L 174.528 126.575693 
L 173.7216 126.681666 
L 172.9152 126.787884 
L 172.1088 126.894349 
L 171.3024 127.001064 
L 170.496 127.108029 
L 169.6896 127.215247 
L 168.8832 127.322719 
L 168.0768 127.430448 
L 167.2704 127.538434 
L 166.464 127.646681 
L 165.6576 127.755189 
L 164.8512 127.863961 
L 164.791917 127.872 
L 164.0448 127.970791 
L 163.2384 128.077708 
L 162.432 128.18489 
L 161.6256 128.292338 
L 160.8192 128.400055 
L 160.0128 128.508043 
L 159.2064 128.616303 
L 158.4 128.724837 
L 157.5936 128.833648 
L 156.7872 128.942738 
L 155.9808 129.052109 
L 155.1744 129.161762 
L 154.368 129.2717 
L 153.5616 129.381925 
L 152.7552 129.492439 
L 151.9488 129.603245 
L 151.1424 129.714344 
L 150.336 129.825739 
L 149.5296 129.937432 
L 148.7232 130.049425 
L 147.9168 130.161721 
L 147.1104 130.274321 
L 146.304 130.387229 
L 145.757843 130.464 
L 145.4976 130.499785 
L 144.6912 130.611258 
L 143.8848 130.72304 
L 143.0784 130.835134 
L 142.272 130.947543 
L 141.4656 131.060268 
L 140.6592 131.173313 
L 139.8528 131.286679 
L 139.0464 131.400369 
L 138.24 131.514384 
L 137.4336 131.628729 
L 136.6272 131.743404 
L 135.8208 131.858413 
L 135.0144 131.973757 
L 134.208 132.089438 
L 133.4016 132.20546 
L 132.5952 132.321824 
L 131.7888 132.438533 
L 130.9824 132.555589 
L 130.176 132.672994 
L 129.3696 132.79075 
L 128.5632 132.908859 
L 127.7568 133.027324 
L 127.56286 133.056 
L 126.9504 133.144921 
L 126.144 133.262484 
L 125.3376 133.380405 
L 124.5312 133.498685 
L 123.7248 133.617327 
L 122.9184 133.736332 
L 122.112 133.8557 
L 121.3056 133.975434 
L 120.4992 134.095533 
L 119.6928 134.216 
L 118.8864 134.336834 
L 118.08 134.458036 
L 117.2736 134.579606 
L 116.4672 134.701544 
L 115.6608 134.823849 
L 114.8544 134.946521 
L 114.048 135.069558 
L 113.2416 135.192958 
L 112.4352 135.316721 
L 111.6288 135.440842 
L 110.8224 135.56532 
L 110.289355 135.648 
L 110.016 135.689816 
L 109.2096 135.814006 
L 108.4032 135.938542 
L 107.5968 136.063416 
L 106.7904 136.188623 
L 105.984 136.314155 
L 105.1776 136.440002 
L 104.3712 136.566156 
L 103.5648 136.692604 
L 102.7584 136.819334 
L 101.952 136.946332 
L 101.1456 137.07358 
L 100.3392 137.201062 
L 99.5328 137.328757 
L 98.7264 137.456642 
L 97.92 137.584691 
L 97.1136 137.712878 
L 96.3072 137.841168 
L 95.5008 137.969529 
L 94.6944 138.097919 
L 93.888 138.226297 
L 93.802549 138.24 
L 93.0816 138.354623 
L 92.2752 138.482859 
L 91.4688 138.610946 
L 90.6624 138.73882 
L 89.856 138.866409 
L 89.0496 138.993633 
L 88.2432 139.120402 
L 87.4368 139.246617 
L 86.6304 139.372166 
L 85.824 139.496927 
L 85.0176 139.620759 
L 84.2112 139.743509 
L 83.4048 139.865003 
L 82.5984 139.985047 
L 81.792 140.103423 
L 80.9856 140.219888 
L 80.1792 140.334166 
L 79.3728 140.445948 
L 78.5664 140.554883 
L 77.76 140.660576 
L 76.9536 140.762579 
L 76.383979 140.832 
L 76.1472 140.860867 
L 75.3408 140.955586 
L 74.5344 141.044933 
L 73.728 141.128139 
L 72.9216 141.204316 
L 72.1152 141.272428 
L 71.3088 141.331262 
L 70.5024 141.379384 
L 69.696 141.415091 
L 68.8896 141.436331 
L 68.0832 141.440615 
L 67.2768 141.424875 
L 66.4704 141.385269 
L 65.664 141.316896 
L 64.8576 141.213349 
L 64.0512 141.065993 
L 63.2448 140.86273 
L 63.158601 140.832 
L 62.4384 140.603307 
L 61.632 140.260022 
L 60.8256 139.797511 
L 60.0192 139.154985 
L 59.252752 138.24 
L 59.2128 138.201573 
L 58.4064 136.837642 
L 58.150391 135.648 
L 57.6 134.091292 
L 57.6 135.648 
L 57.6 136.117059 
L 58.048111 138.24 
L 58.4064 140.286814 
L 58.643227 140.832 
L 59.2128 142.517553 
L 59.746868 143.424 
L 60.0192 144.000973 
L 60.8256 145.128084 
L 61.632 145.9497 
L 61.716952 146.016 
L 62.4384 146.688255 
L 63.2448 147.271883 
L 64.0512 147.741976 
L 64.8576 148.129738 
L 65.664 148.454758 
L 66.116135 148.608 
z
" clip-path="url(#pec30182aaf)" style="fill: #fbbe23"/>
   </g>
   <g id="PathCollection_3">
    <path d="M 63.2448 140.86273 
L 64.0512 141.065993 
L 64.8576 141.213349 
L 65.664 141.316896 
L 66.4704 141.385269 
L 67.2768 141.424875 
L 68.0832 141.440615 
L 68.8896 141.436331 
L 69.696 141.415091 
L 70.5024 141.379384 
L 71.3088 141.331262 
L 72.1152 141.272428 
L 72.9216 141.204316 
L 73.728 141.128139 
L 74.5344 141.044933 
L 75.3408 140.955586 
L 76.1472 140.860867 
L 76.383979 140.832 
L 76.9536 140.762579 
L 77.76 140.660576 
L 78.5664 140.554883 
L 79.3728 140.445948 
L 80.1792 140.334166 
L 80.9856 140.219888 
L 81.792 140.103423 
L 82.5984 139.985047 
L 83.4048 139.865003 
L 84.2112 139.743509 
L 85.0176 139.620759 
L 85.824 139.496927 
L 86.6304 139.372166 
L 87.4368 139.246617 
L 88.2432 139.120402 
L 89.0496 138.993633 
L 89.856 138.866409 
L 90.6624 138.73882 
L 91.4688 138.610946 
L 92.2752 138.482859 
L 93.0816 138.354623 
L 93.802549 138.24 
L 93.888 138.226297 
L 94.6944 138.097919 
L 95.5008 137.969529 
L 96.3072 137.841168 
L 97.1136 137.712878 
L 97.92 137.584691 
L 98.7264 137.456642 
L 99.5328 137.328757 
L 100.3392 137.201062 
L 101.1456 137.07358 
L 101.952 136.946332 
L 102.7584 136.819334 
L 103.5648 136.692604 
L 104.3712 136.566156 
L 105.1776 136.440002 
L 105.984 136.314155 
L 106.7904 136.188623 
L 107.5968 136.063416 
L 108.4032 135.938542 
L 109.2096 135.814006 
L 110.016 135.689816 
L 110.289355 135.648 
L 110.8224 135.56532 
L 111.6288 135.440842 
L 112.4352 135.316721 
L 113.2416 135.192958 
L 114.048 135.069558 
L 114.8544 134.946521 
L 115.6608 134.823849 
L 116.4672 134.701544 
L 117.2736 134.579606 
L 118.08 134.458036 
L 118.8864 134.336834 
L 119.6928 134.216 
L 120.4992 134.095533 
L 121.3056 133.975434 
L 122.112 133.8557 
L 122.9184 133.736332 
L 123.7248 133.617327 
L 124.5312 133.498685 
L 125.3376 133.380405 
L 126.144 133.262484 
L 126.9504 133.144921 
L 127.56286 133.056 
L 127.7568 133.027324 
L 128.5632 132.908859 
L 129.3696 132.79075 
L 130.176 132.672994 
L 130.9824 132.555589 
L 131.7888 132.438533 
L 132.5952 132.321824 
L 133.4016 132.20546 
L 134.208 132.089438 
L 135.0144 131.973757 
L 135.8208 131.858413 
L 136.6272 131.743404 
L 137.4336 131.628729 
L 138.24 131.514384 
L 139.0464 131.400369 
L 139.8528 131.286679 
L 140.6592 131.173313 
L 141.4656 131.060268 
L 142.272 130.947543 
L 143.0784 130.835134 
L 143.8848 130.72304 
L 144.6912 130.611258 
L 145.4976 130.499785 
L 145.757843 130.464 
L 146.304 130.387229 
L 147.1104 130.274321 
L 147.9168 130.161721 
L 148.7232 130.049425 
L 149.5296 129.937432 
L 150.336 129.825739 
L 151.1424 129.714344 
L 151.9488 129.603245 
L 152.7552 129.492439 
L 153.5616 129.381925 
L 154.368 129.2717 
L 155.1744 129.161762 
L 155.9808 129.052109 
L 156.7872 128.942738 
L 157.5936 128.833648 
L 158.4 128.724837 
L 159.2064 128.616303 
L 160.0128 128.508043 
L 160.8192 128.400055 
L 161.6256 128.292338 
L 162.432 128.18489 
L 163.2384 128.077708 
L 164.0448 127.970791 
L 164.791917 127.872 
L 164.8512 127.863961 
L 165.6576 127.755189 
L 166.464 127.646681 
L 167.2704 127.538434 
L 168.0768 127.430448 
L 168.8832 127.322719 
L 169.6896 127.215247 
L 170.496 127.108029 
L 171.3024 127.001064 
L 172.1088 126.894349 
L 172.9152 126.787884 
L 173.7216 126.681666 
L 174.528 126.575693 
L 175.3344 126.469965 
L 176.1408 126.364479 
L 176.9472 126.259233 
L 177.7536 126.154227 
L 178.56 126.049458 
L 179.3664 125.944925 
L 180.1728 125.840626 
L 180.9792 125.73656 
L 181.7856 125.632724 
L 182.592 125.529119 
L 183.3984 125.425742 
L 184.2048 125.322591 
L 184.539017 125.28 
L 185.0112 125.21812 
L 185.8176 125.112787 
L 186.624 125.00768 
L 187.4304 124.902799 
L 188.2368 124.798143 
L 189.0432 124.693708 
L 189.8496 124.589495 
L 190.656 124.485502 
L 191.4624 124.381727 
L 192.2688 124.278169 
L 193.0752 124.174827 
L 193.8816 124.071698 
L 194.688 123.968783 
L 195.4944 123.86608 
L 196.3008 123.763587 
L 197.1072 123.661303 
L 197.9136 123.559227 
L 198.72 123.457357 
L 199.5264 123.355693 
L 200.3328 123.254233 
L 201.1392 123.152975 
L 201.9456 123.05192 
L 202.752 122.951065 
L 203.5584 122.850409 
L 204.3648 122.749951 
L 204.863522 122.688 
L 205.1712 122.648604 
L 205.9776 122.5457 
L 206.784 122.442997 
L 207.5904 122.340491 
L 208.3968 122.238182 
L 209.2032 122.13607 
L 210.0096 122.034152 
L 210.816 121.932428 
L 211.6224 121.830896 
L 212.4288 121.729556 
L 213.2352 121.628406 
L 214.0416 121.527446 
L 214.848 121.426674 
L 215.6544 121.326089 
L 216.4608 121.225691 
L 217.2672 121.125478 
L 218.0736 121.025449 
L 218.88 120.925603 
L 218.88 120.096 
L 218.88 117.504 
L 218.88 114.912 
L 218.88 112.32 
L 218.88 109.728 
L 218.88 107.136 
L 218.88 104.544 
L 218.88 101.952 
L 218.88 99.36 
L 218.88 96.768 
L 218.88 94.176 
L 218.88 93.053331 
L 218.0736 93.27737 
L 217.2672 93.501841 
L 216.4608 93.726747 
L 215.6544 93.95209 
L 214.854703 94.176 
L 214.848 94.177801 
L 214.0416 94.395354 
L 213.2352 94.613335 
L 212.4288 94.831748 
L 211.6224 95.050595 
L 210.816 95.26988 
L 210.0096 95.489604 
L 209.2032 95.70977 
L 208.3968 95.930382 
L 207.5904 96.151443 
L 206.784 96.372955 
L 205.9776 96.594922 
L 205.350435 96.768 
L 205.1712 96.815467 
L 204.3648 97.029866 
L 203.5584 97.244712 
L 202.752 97.460007 
L 201.9456 97.675754 
L 201.1392 97.891956 
L 200.3328 98.108617 
L 199.5264 98.32574 
L 198.72 98.543328 
L 197.9136 98.761384 
L 197.1072 98.979912 
L 196.3008 99.198915 
L 195.709354 99.36 
L 195.4944 99.416194 
L 194.688 99.627861 
L 193.8816 99.839995 
L 193.0752 100.0526 
L 192.2688 100.265678 
L 191.4624 100.479235 
L 190.656 100.693273 
L 189.8496 100.907795 
L 189.0432 101.122807 
L 188.2368 101.33831 
L 187.4304 101.55431 
L 186.624 101.77081 
L 185.950983 101.952 
L 185.8176 101.986479 
L 185.0112 102.195884 
L 184.2048 102.405782 
L 183.3984 102.616177 
L 182.592 102.827072 
L 181.7856 103.038472 
L 180.9792 103.250381 
L 180.1728 103.462804 
L 179.3664 103.675743 
L 178.56 103.889204 
L 177.7536 104.103191 
L 176.9472 104.317709 
L 176.1408 104.532762 
L 176.09888 104.544 
L 175.3344 104.740854 
L 174.528 104.949057 
L 173.7216 105.157789 
L 172.9152 105.367054 
L 172.1088 105.576858 
L 171.3024 105.787204 
L 170.496 105.998098 
L 169.6896 106.209545 
L 168.8832 106.421551 
L 168.0768 106.634119 
L 167.2704 106.847256 
L 166.464 107.060967 
L 166.182208 107.136 
L 165.6576 107.270241 
L 164.8512 107.477377 
L 164.0448 107.685081 
L 163.2384 107.893359 
L 162.432 108.102217 
L 161.6256 108.311661 
L 160.8192 108.521696 
L 160.0128 108.732329 
L 159.2064 108.943565 
L 158.4 109.155411 
L 157.5936 109.367874 
L 156.7872 109.58096 
L 156.232962 109.728 
L 155.9808 109.79233 
L 155.1744 109.999139 
L 154.368 110.206567 
L 153.5616 110.414622 
L 152.7552 110.623309 
L 151.9488 110.832636 
L 151.1424 111.04261 
L 150.336 111.253239 
L 149.5296 111.464529 
L 148.7232 111.67649 
L 147.9168 111.889129 
L 147.1104 112.102453 
L 146.304 112.316473 
L 146.2908 112.32 
L 145.4976 112.523973 
L 144.6912 112.732037 
L 143.8848 112.940794 
L 143.0784 113.150252 
L 142.272 113.36042 
L 141.4656 113.571308 
L 140.6592 113.782924 
L 139.8528 113.995279 
L 139.0464 114.208382 
L 138.24 114.422243 
L 137.4336 114.636873 
L 136.6272 114.852282 
L 136.405112 114.912 
L 135.8208 115.063314 
L 135.0144 115.273144 
L 134.208 115.483755 
L 133.4016 115.695157 
L 132.5952 115.907363 
L 131.7888 116.120383 
L 130.9824 116.33423 
L 130.176 116.548917 
L 129.3696 116.764455 
L 128.5632 116.980858 
L 127.7568 117.19814 
L 126.9504 117.416314 
L 126.628522 117.504 
L 126.144 117.631235 
L 125.3376 117.844267 
L 124.5312 118.058196 
L 123.7248 118.273036 
L 122.9184 118.488804 
L 122.112 118.705514 
L 121.3056 118.923182 
L 120.4992 119.141824 
L 119.6928 119.361456 
L 118.8864 119.582096 
L 118.08 119.803762 
L 117.2736 120.026471 
L 117.02394 120.096 
L 116.4672 120.245605 
L 115.6608 120.463685 
L 114.8544 120.682818 
L 114.048 120.903023 
L 113.2416 121.124318 
L 112.4352 121.346725 
L 111.6288 121.570262 
L 110.8224 121.79495 
L 110.016 122.020811 
L 109.2096 122.247867 
L 108.4032 122.47614 
L 107.65917 122.688 
L 107.5968 122.705154 
L 106.7904 122.929409 
L 105.984 123.154891 
L 105.1776 123.381623 
L 104.3712 123.609626 
L 103.5648 123.838923 
L 102.7584 124.069536 
L 101.952 124.30149 
L 101.1456 124.534807 
L 100.3392 124.76951 
L 99.5328 125.005623 
L 98.7264 125.243168 
L 98.602917 125.28 
L 97.92 125.476896 
L 97.1136 125.71107 
L 96.3072 125.946667 
L 95.5008 126.183705 
L 94.6944 126.422201 
L 93.888 126.662169 
L 93.0816 126.903623 
L 92.2752 127.146574 
L 91.4688 127.391032 
L 90.6624 127.637001 
L 89.897051 127.872 
L 89.856 127.884194 
L 89.0496 128.127355 
L 88.2432 128.371939 
L 87.4368 128.61793 
L 86.6304 128.865304 
L 85.824 129.114032 
L 85.0176 129.364074 
L 84.2112 129.615379 
L 83.4048 129.867886 
L 82.5984 130.121517 
L 81.792 130.376179 
L 81.517374 130.464 
L 80.9856 130.628473 
L 80.1792 130.879785 
L 79.3728 131.131671 
L 78.5664 131.383945 
L 77.76 131.636386 
L 76.9536 131.888735 
L 76.1472 132.140685 
L 75.3408 132.391877 
L 74.5344 132.641885 
L 73.728 132.890211 
L 73.188469 133.056 
L 72.9216 133.135242 
L 72.1152 133.375294 
L 71.3088 133.611703 
L 70.5024 133.843519 
L 69.696 134.069606 
L 68.8896 134.288589 
L 68.0832 134.498802 
L 67.2768 134.698197 
L 66.4704 134.884236 
L 65.664 135.053731 
L 64.8576 135.202611 
L 64.0512 135.325577 
L 63.2448 135.415563 
L 62.4384 135.462857 
L 61.632 135.453554 
L 60.8256 135.366626 
L 60.0192 135.167618 
L 59.2128 134.792416 
L 58.4064 134.089009 
L 58.0192 133.056 
L 57.6 132.459063 
L 57.6 133.056 
L 57.6 134.091292 
L 58.150391 135.648 
L 58.4064 136.837642 
L 59.2128 138.201573 
L 59.252752 138.24 
L 60.0192 139.154985 
L 60.8256 139.797511 
L 61.632 140.260022 
L 62.4384 140.603307 
L 63.158601 140.832 
z
" clip-path="url(#pec30182aaf)" style="fill: #f98c0a"/>
   </g>
   <g id="PathCollection_4">
    <path d="M 58.4064 134.089009 
L 59.2128 134.792416 
L 60.0192 135.167618 
L 60.8256 135.366626 
L 61.632 135.453554 
L 62.4384 135.462857 
L 63.2448 135.415563 
L 64.0512 135.325577 
L 64.8576 135.202611 
L 65.664 135.053731 
L 66.4704 134.884236 
L 67.2768 134.698197 
L 68.0832 134.498802 
L 68.8896 134.288589 
L 69.696 134.069606 
L 70.5024 133.843519 
L 71.3088 133.611703 
L 72.1152 133.375294 
L 72.9216 133.135242 
L 73.188469 133.056 
L 73.728 132.890211 
L 74.5344 132.641885 
L 75.3408 132.391877 
L 76.1472 132.140685 
L 76.9536 131.888735 
L 77.76 131.636386 
L 78.5664 131.383945 
L 79.3728 131.131671 
L 80.1792 130.879785 
L 80.9856 130.628473 
L 81.517374 130.464 
L 81.792 130.376179 
L 82.5984 130.121517 
L 83.4048 129.867886 
L 84.2112 129.615379 
L 85.0176 129.364074 
L 85.824 129.114032 
L 86.6304 128.865304 
L 87.4368 128.61793 
L 88.2432 128.371939 
L 89.0496 128.127355 
L 89.856 127.884194 
L 89.897051 127.872 
L 90.6624 127.637001 
L 91.4688 127.391032 
L 92.2752 127.146574 
L 93.0816 126.903623 
L 93.888 126.662169 
L 94.6944 126.422201 
L 95.5008 126.183705 
L 96.3072 125.946667 
L 97.1136 125.71107 
L 97.92 125.476896 
L 98.602917 125.28 
L 98.7264 125.243168 
L 99.5328 125.005623 
L 100.3392 124.76951 
L 101.1456 124.534807 
L 101.952 124.30149 
L 102.7584 124.069536 
L 103.5648 123.838923 
L 104.3712 123.609626 
L 105.1776 123.381623 
L 105.984 123.154891 
L 106.7904 122.929409 
L 107.5968 122.705154 
L 107.65917 122.688 
L 108.4032 122.47614 
L 109.2096 122.247867 
L 110.016 122.020811 
L 110.8224 121.79495 
L 111.6288 121.570262 
L 112.4352 121.346725 
L 113.2416 121.124318 
L 114.048 120.903023 
L 114.8544 120.682818 
L 115.6608 120.463685 
L 116.4672 120.245605 
L 117.02394 120.096 
L 117.2736 120.026471 
L 118.08 119.803762 
L 118.8864 119.582096 
L 119.6928 119.361456 
L 120.4992 119.141824 
L 121.3056 118.923182 
L 122.112 118.705514 
L 122.9184 118.488804 
L 123.7248 118.273036 
L 124.5312 118.058196 
L 125.3376 117.844267 
L 126.144 117.631235 
L 126.628522 117.504 
L 126.9504 117.416314 
L 127.7568 117.19814 
L 128.5632 116.980858 
L 129.3696 116.764455 
L 130.176 116.548917 
L 130.9824 116.33423 
L 131.7888 116.120383 
L 132.5952 115.907363 
L 133.4016 115.695157 
L 134.208 115.483755 
L 135.0144 115.273144 
L 135.8208 115.063314 
L 136.405112 114.912 
L 136.6272 114.852282 
L 137.4336 114.636873 
L 138.24 114.422243 
L 139.0464 114.208382 
L 139.8528 113.995279 
L 140.6592 113.782924 
L 141.4656 113.571308 
L 142.272 113.36042 
L 143.0784 113.150252 
L 143.8848 112.940794 
L 144.6912 112.732037 
L 145.4976 112.523973 
L 146.2908 112.32 
L 146.304 112.316473 
L 147.1104 112.102453 
L 147.9168 111.889129 
L 148.7232 111.67649 
L 149.5296 111.464529 
L 150.336 111.253239 
L 151.1424 111.04261 
L 151.9488 110.832636 
L 152.7552 110.623309 
L 153.5616 110.414622 
L 154.368 110.206567 
L 155.1744 109.999139 
L 155.9808 109.79233 
L 156.232962 109.728 
L 156.7872 109.58096 
L 157.5936 109.367874 
L 158.4 109.155411 
L 159.2064 108.943565 
L 160.0128 108.732329 
L 160.8192 108.521696 
L 161.6256 108.311661 
L 162.432 108.102217 
L 163.2384 107.893359 
L 164.0448 107.685081 
L 164.8512 107.477377 
L 165.6576 107.270241 
L 166.182208 107.136 
L 166.464 107.060967 
L 167.2704 106.847256 
L 168.0768 106.634119 
L 168.8832 106.421551 
L 169.6896 106.209545 
L 170.496 105.998098 
L 171.3024 105.787204 
L 172.1088 105.576858 
L 172.9152 105.367054 
L 173.7216 105.157789 
L 174.528 104.949057 
L 175.3344 104.740854 
L 176.09888 104.544 
L 176.1408 104.532762 
L 176.9472 104.317709 
L 177.7536 104.103191 
L 178.56 103.889204 
L 179.3664 103.675743 
L 180.1728 103.462804 
L 180.9792 103.250381 
L 181.7856 103.038472 
L 182.592 102.827072 
L 183.3984 102.616177 
L 184.2048 102.405782 
L 185.0112 102.195884 
L 185.8176 101.986479 
L 185.950983 101.952 
L 186.624 101.77081 
L 187.4304 101.55431 
L 188.2368 101.33831 
L 189.0432 101.122807 
L 189.8496 100.907795 
L 190.656 100.693273 
L 191.4624 100.479235 
L 192.2688 100.265678 
L 193.0752 100.0526 
L 193.8816 99.839995 
L 194.688 99.627861 
L 195.4944 99.416194 
L 195.709354 99.36 
L 196.3008 99.198915 
L 197.1072 98.979912 
L 197.9136 98.761384 
L 198.72 98.543328 
L 199.5264 98.32574 
L 200.3328 98.108617 
L 201.1392 97.891956 
L 201.9456 97.675754 
L 202.752 97.460007 
L 203.5584 97.244712 
L 204.3648 97.029866 
L 205.1712 96.815467 
L 205.350435 96.768 
L 205.9776 96.594922 
L 206.784 96.372955 
L 207.5904 96.151443 
L 208.3968 95.930382 
L 209.2032 95.70977 
L 210.0096 95.489604 
L 210.816 95.26988 
L 211.6224 95.050595 
L 212.4288 94.831748 
L 213.2352 94.613335 
L 214.0416 94.395354 
L 214.848 94.177801 
L 214.854703 94.176 
L 215.6544 93.95209 
L 216.4608 93.726747 
L 217.2672 93.501841 
L 218.0736 93.27737 
L 218.88 93.053331 
L 218.88 91.584 
L 218.88 88.992 
L 218.88 86.4 
L 218.88 83.808 
L 218.88 81.216 
L 218.88 78.624 
L 218.88 76.032 
L 218.88 73.44 
L 218.88 70.848 
L 218.88 68.256 
L 218.88 65.664 
L 218.88 63.072 
L 218.88 60.48 
L 218.88 57.888 
L 218.88 55.296 
L 218.88 52.704 
L 218.88 50.112 
L 218.88 47.52 
L 218.88 44.928 
L 218.88 44.753004 
L 218.654128 44.928 
L 218.0736 45.360664 
L 217.2672 45.963222 
L 216.4608 46.566968 
L 215.6544 47.171909 
L 215.191753 47.52 
L 214.848 47.768721 
L 214.0416 48.354111 
L 213.2352 48.940675 
L 212.4288 49.528422 
L 211.629754 50.112 
L 211.6224 50.117164 
L 210.816 50.685799 
L 210.0096 51.255597 
L 209.2032 51.826564 
L 208.3968 52.39871 
L 207.967877 52.704 
L 207.5904 52.962207 
L 206.784 53.515652 
L 205.9776 54.070256 
L 205.1712 54.626026 
L 204.3648 55.182971 
L 204.201804 55.296 
L 203.5584 55.724653 
L 202.752 56.263307 
L 201.9456 56.803116 
L 201.1392 57.344089 
L 200.3328 57.886234 
L 200.330186 57.888 
L 199.5264 58.409418 
L 198.72 58.93368 
L 197.9136 59.459097 
L 197.1072 59.985675 
L 196.351993 60.48 
L 196.3008 60.512174 
L 195.4944 61.021305 
L 194.688 61.53158 
L 193.8816 62.043008 
L 193.0752 62.555597 
L 192.2688 63.069358 
L 192.264674 63.072 
L 191.4624 63.565007 
L 190.656 64.0617 
L 189.8496 64.559547 
L 189.0432 65.058557 
L 188.2368 65.55874 
L 188.067851 65.664 
L 187.4304 66.045102 
L 186.624 66.528625 
L 185.8176 67.013302 
L 185.0112 67.499145 
L 184.2048 67.986163 
L 183.759632 68.256 
L 183.3984 68.466053 
L 182.592 68.936818 
L 181.7856 69.408743 
L 180.9792 69.881837 
L 180.1728 70.35611 
L 179.3664 70.831574 
L 179.338686 70.848 
L 178.56 71.290632 
L 177.7536 71.750225 
L 176.9472 72.210994 
L 176.1408 72.672948 
L 175.3344 73.136099 
L 174.807175 73.44 
L 174.528 73.594295 
L 173.7216 74.041986 
L 172.9152 74.490861 
L 172.1088 74.940929 
L 171.3024 75.392204 
L 170.496 75.844696 
L 170.163686 76.032 
L 169.6896 76.288145 
L 168.8832 76.725565 
L 168.0768 77.16419 
L 167.2704 77.604032 
L 166.464 78.045103 
L 165.6576 78.487418 
L 165.409826 78.624 
L 164.8512 78.919116 
L 164.0448 79.346749 
L 163.2384 79.775614 
L 162.432 80.205723 
L 161.6256 80.637091 
L 160.8192 81.069732 
L 160.547955 81.216 
L 160.0128 81.492509 
L 159.2064 81.910865 
L 158.4 82.330483 
L 157.5936 82.75138 
L 156.7872 83.173569 
L 155.9808 83.597067 
L 155.581075 83.808 
L 155.1744 84.013586 
L 154.368 84.423202 
L 153.5616 84.834118 
L 152.7552 85.246351 
L 151.9488 85.659919 
L 151.1424 86.074837 
L 150.512997 86.4 
L 150.336 86.487586 
L 149.5296 86.889033 
L 148.7232 87.291827 
L 147.9168 87.695985 
L 147.1104 88.101526 
L 146.304 88.508469 
L 145.4976 88.916834 
L 145.35013 88.992 
L 144.6912 89.313647 
L 143.8848 89.708942 
L 143.0784 90.105657 
L 142.272 90.503814 
L 141.4656 90.903434 
L 140.6592 91.304541 
L 140.100121 91.584 
L 139.8528 91.702382 
L 139.0464 92.090855 
L 138.24 92.480817 
L 137.4336 92.872291 
L 136.6272 93.265303 
L 135.8208 93.659877 
L 135.0144 94.05604 
L 134.771893 94.176 
L 134.208 94.443076 
L 133.4016 94.827044 
L 132.5952 95.212609 
L 131.7888 95.5998 
L 130.9824 95.988647 
L 130.176 96.37918 
L 129.376684 96.768 
L 129.3696 96.771299 
L 128.5632 97.150119 
L 127.7568 97.53064 
L 126.9504 97.912894 
L 126.144 98.296917 
L 125.3376 98.682743 
L 124.5312 99.070411 
L 123.93242 99.36 
L 123.7248 99.456129 
L 122.9184 99.832584 
L 122.112 100.210903 
L 121.3056 100.591128 
L 120.4992 100.9733 
L 119.6928 101.357465 
L 118.8864 101.743667 
L 118.454703 101.952 
L 118.08 102.125102 
L 117.2736 102.500637 
L 116.4672 102.878246 
L 115.6608 103.257978 
L 114.8544 103.639887 
L 114.048 104.024028 
L 113.2416 104.410456 
L 112.96556 104.544 
L 112.4352 104.789586 
L 111.6288 105.165956 
L 110.8224 105.544666 
L 110.016 105.925779 
L 109.2096 106.309361 
L 108.4032 106.695482 
L 107.5968 107.084213 
L 107.490642 107.136 
L 106.7904 107.462901 
L 105.984 107.842258 
L 105.1776 108.224297 
L 104.3712 108.609097 
L 103.5648 108.996743 
L 102.7584 109.387321 
L 102.061026 109.728 
L 101.952 109.778962 
L 101.1456 110.160942 
L 100.3392 110.545945 
L 99.5328 110.934065 
L 98.7264 111.325404 
L 97.92 111.720066 
L 97.1136 112.118161 
L 96.709819 112.32 
L 96.3072 112.512473 
L 95.5008 112.902836 
L 94.6944 113.296741 
L 93.888 113.694308 
L 93.0816 114.095659 
L 92.2752 114.500923 
L 91.4688 114.910236 
L 91.465388 114.912 
L 90.6624 115.30877 
L 89.856 115.711267 
L 89.0496 116.117922 
L 88.2432 116.528873 
L 87.4368 116.944264 
L 86.6304 117.364241 
L 86.36685 117.504 
L 85.824 117.778751 
L 85.0176 118.192801 
L 84.2112 118.611499 
L 83.4048 119.034981 
L 82.5984 119.463384 
L 81.792 119.896845 
L 81.428406 120.096 
L 80.9856 120.327076 
L 80.1792 120.755225 
L 79.3728 121.188332 
L 78.5664 121.626484 
L 77.76 122.06976 
L 76.9536 122.518223 
L 76.654952 122.688 
L 76.1472 122.962188 
L 75.3408 123.405108 
L 74.5344 123.852692 
L 73.728 124.304858 
L 72.9216 124.761481 
L 72.1152 125.222383 
L 72.017289 125.28 
L 71.3088 125.673979 
L 70.5024 126.126824 
L 69.696 126.58229 
L 68.8896 127.039752 
L 68.0832 127.498411 
L 67.430818 127.872 
L 67.2768 127.954769 
L 66.4704 128.398907 
L 65.664 128.839749 
L 64.8576 129.274997 
L 64.0512 129.701579 
L 63.2448 130.115312 
L 62.538781 130.464 
L 62.4384 130.509428 
L 61.632 130.870326 
L 60.8256 131.192397 
L 60.0192 131.455065 
L 59.2128 131.620442 
L 58.4064 131.603056 
L 57.6 131.079766 
L 57.6 132.459063 
L 58.0192 133.056 
z
" clip-path="url(#pec30182aaf)" style="fill: #ea632a"/>
   </g>
   <g id="PathCollection_5">
    <path d="M 58.4064 131.603056 
L 59.2128 131.620442 
L 60.0192 131.455065 
L 60.8256 131.192397 
L 61.632 130.870326 
L 62.4384 130.509428 
L 62.538781 130.464 
L 63.2448 130.115312 
L 64.0512 129.701579 
L 64.8576 129.274997 
L 65.664 128.839749 
L 66.4704 128.398907 
L 67.2768 127.954769 
L 67.430818 127.872 
L 68.0832 127.498411 
L 68.8896 127.039752 
L 69.696 126.58229 
L 70.5024 126.126824 
L 71.3088 125.673979 
L 72.017289 125.28 
L 72.1152 125.222383 
L 72.9216 124.761481 
L 73.728 124.304858 
L 74.5344 123.852692 
L 75.3408 123.405108 
L 76.1472 122.962188 
L 76.654952 122.688 
L 76.9536 122.518223 
L 77.76 122.06976 
L 78.5664 121.626484 
L 79.3728 121.188332 
L 80.1792 120.755225 
L 80.9856 120.327076 
L 81.428406 120.096 
L 81.792 119.896845 
L 82.5984 119.463384 
L 83.4048 119.034981 
L 84.2112 118.611499 
L 85.0176 118.192801 
L 85.824 117.778751 
L 86.36685 117.504 
L 86.6304 117.364241 
L 87.4368 116.944264 
L 88.2432 116.528873 
L 89.0496 116.117922 
L 89.856 115.711267 
L 90.6624 115.30877 
L 91.465388 114.912 
L 91.4688 114.910236 
L 92.2752 114.500923 
L 93.0816 114.095659 
L 93.888 113.694308 
L 94.6944 113.296741 
L 95.5008 112.902836 
L 96.3072 112.512473 
L 96.709819 112.32 
L 97.1136 112.118161 
L 97.92 111.720066 
L 98.7264 111.325404 
L 99.5328 110.934065 
L 100.3392 110.545945 
L 101.1456 110.160942 
L 101.952 109.778962 
L 102.061026 109.728 
L 102.7584 109.387321 
L 103.5648 108.996743 
L 104.3712 108.609097 
L 105.1776 108.224297 
L 105.984 107.842258 
L 106.7904 107.462901 
L 107.490642 107.136 
L 107.5968 107.084213 
L 108.4032 106.695482 
L 109.2096 106.309361 
L 110.016 105.925779 
L 110.8224 105.544666 
L 111.6288 105.165956 
L 112.4352 104.789586 
L 112.96556 104.544 
L 113.2416 104.410456 
L 114.048 104.024028 
L 114.8544 103.639887 
L 115.6608 103.257978 
L 116.4672 102.878246 
L 117.2736 102.500637 
L 118.08 102.125102 
L 118.454703 101.952 
L 118.8864 101.743667 
L 119.6928 101.357465 
L 120.4992 100.9733 
L 121.3056 100.591128 
L 122.112 100.210903 
L 122.9184 99.832584 
L 123.7248 99.456129 
L 123.93242 99.36 
L 124.5312 99.070411 
L 125.3376 98.682743 
L 126.144 98.296917 
L 126.9504 97.912894 
L 127.7568 97.53064 
L 128.5632 97.150119 
L 129.3696 96.771299 
L 129.376684 96.768 
L 130.176 96.37918 
L 130.9824 95.988647 
L 131.7888 95.5998 
L 132.5952 95.212609 
L 133.4016 94.827044 
L 134.208 94.443076 
L 134.771893 94.176 
L 135.0144 94.05604 
L 135.8208 93.659877 
L 136.6272 93.265303 
L 137.4336 92.872291 
L 138.24 92.480817 
L 139.0464 92.090855 
L 139.8528 91.702382 
L 140.100121 91.584 
L 140.6592 91.304541 
L 141.4656 90.903434 
L 142.272 90.503814 
L 143.0784 90.105657 
L 143.8848 89.708942 
L 144.6912 89.313647 
L 145.35013 88.992 
L 145.4976 88.916834 
L 146.304 88.508469 
L 147.1104 88.101526 
L 147.9168 87.695985 
L 148.7232 87.291827 
L 149.5296 86.889033 
L 150.336 86.487586 
L 150.512997 86.4 
L 151.1424 86.074837 
L 151.9488 85.659919 
L 152.7552 85.246351 
L 153.5616 84.834118 
L 154.368 84.423202 
L 155.1744 84.013586 
L 155.581075 83.808 
L 155.9808 83.597067 
L 156.7872 83.173569 
L 157.5936 82.75138 
L 158.4 82.330483 
L 159.2064 81.910865 
L 160.0128 81.492509 
L 160.547955 81.216 
L 160.8192 81.069732 
L 161.6256 80.637091 
L 162.432 80.205723 
L 163.2384 79.775614 
L 164.0448 79.346749 
L 164.8512 78.919116 
L 165.409826 78.624 
L 165.6576 78.487418 
L 166.464 78.045103 
L 167.2704 77.604032 
L 168.0768 77.16419 
L 168.8832 76.725565 
L 169.6896 76.288145 
L 170.163686 76.032 
L 170.496 75.844696 
L 171.3024 75.392204 
L 172.1088 74.940929 
L 172.9152 74.490861 
L 173.7216 74.041986 
L 174.528 73.594295 
L 174.807175 73.44 
L 175.3344 73.136099 
L 176.1408 72.672948 
L 176.9472 72.210994 
L 177.7536 71.750225 
L 178.56 71.290632 
L 179.338686 70.848 
L 179.3664 70.831574 
L 180.1728 70.35611 
L 180.9792 69.881837 
L 181.7856 69.408743 
L 182.592 68.936818 
L 183.3984 68.466053 
L 183.759632 68.256 
L 184.2048 67.986163 
L 185.0112 67.499145 
L 185.8176 67.013302 
L 186.624 66.528625 
L 187.4304 66.045102 
L 188.067851 65.664 
L 188.2368 65.55874 
L 189.0432 65.058557 
L 189.8496 64.559547 
L 190.656 64.0617 
L 191.4624 63.565007 
L 192.264674 63.072 
L 192.2688 63.069358 
L 193.0752 62.555597 
L 193.8816 62.043008 
L 194.688 61.53158 
L 195.4944 61.021305 
L 196.3008 60.512174 
L 196.351993 60.48 
L 197.1072 59.985675 
L 197.9136 59.459097 
L 198.72 58.93368 
L 199.5264 58.409418 
L 200.330186 57.888 
L 200.3328 57.886234 
L 201.1392 57.344089 
L 201.9456 56.803116 
L 202.752 56.263307 
L 203.5584 55.724653 
L 204.201804 55.296 
L 204.3648 55.182971 
L 205.1712 54.626026 
L 205.9776 54.070256 
L 206.784 53.515652 
L 207.5904 52.962207 
L 207.967877 52.704 
L 208.3968 52.39871 
L 209.2032 51.826564 
L 210.0096 51.255597 
L 210.816 50.685799 
L 211.6224 50.117164 
L 211.629754 50.112 
L 212.4288 49.528422 
L 213.2352 48.940675 
L 214.0416 48.354111 
L 214.848 47.768721 
L 215.191753 47.52 
L 215.6544 47.171909 
L 216.4608 46.566968 
L 217.2672 45.963222 
L 218.0736 45.360664 
L 218.654128 44.928 
L 218.88 44.753004 
L 218.88 42.336 
L 218.88 39.744 
L 218.88 37.152 
L 218.88 34.56 
L 218.88 31.968 
L 218.88 29.376 
L 218.88 26.784 
L 218.88 24.192 
L 218.88 21.6 
L 218.0736 21.6 
L 217.2672 21.6 
L 216.4608 21.6 
L 215.6544 21.6 
L 214.848 21.6 
L 214.0416 21.6 
L 213.2352 21.6 
L 212.4288 21.6 
L 211.6224 21.6 
L 210.816 21.6 
L 210.0096 21.6 
L 209.2032 21.6 
L 208.3968 21.6 
L 207.5904 21.6 
L 206.784 21.6 
L 205.9776 21.6 
L 205.1712 21.6 
L 204.3648 21.6 
L 203.5584 21.6 
L 202.752 21.6 
L 201.9456 21.6 
L 201.1392 21.6 
L 200.3328 21.6 
L 199.5264 21.6 
L 198.72 21.6 
L 197.9136 21.6 
L 197.1072 21.6 
L 196.3008 21.6 
L 195.4944 21.6 
L 194.688 21.6 
L 193.8816 21.6 
L 193.0752 21.6 
L 192.2688 21.6 
L 191.4624 21.6 
L 190.656 21.6 
L 189.8496 21.6 
L 189.0432 21.6 
L 188.2368 21.6 
L 187.4304 21.6 
L 186.624 21.6 
L 185.8176 21.6 
L 185.0112 21.6 
L 184.2048 21.6 
L 183.3984 21.6 
L 182.592 21.6 
L 181.7856 21.6 
L 180.9792 21.6 
L 180.1728 21.6 
L 179.3664 21.6 
L 178.56 21.6 
L 177.7536 21.6 
L 176.9472 21.6 
L 176.1408 21.6 
L 175.3344 21.6 
L 174.528 21.6 
L 173.7216 21.6 
L 172.9152 21.6 
L 172.1088 21.6 
L 171.3024 21.6 
L 170.496 21.6 
L 169.6896 21.6 
L 169.340353 21.6 
L 168.8832 22.275314 
L 168.0768 23.471372 
L 167.592872 24.192 
L 167.2704 24.65464 
L 166.464 25.816891 
L 165.795236 26.784 
L 165.6576 26.975696 
L 164.8512 28.104856 
L 164.0448 29.237269 
L 163.946559 29.376 
L 163.2384 30.338806 
L 162.432 31.438797 
L 162.045808 31.968 
L 161.6256 32.522198 
L 160.8192 33.590477 
L 160.089753 34.56 
L 160.0128 34.658407 
L 159.2064 35.695679 
L 158.4 36.736113 
L 158.079267 37.152 
L 157.5936 37.757691 
L 156.7872 38.767778 
L 156.01036 39.744 
L 155.9808 39.779716 
L 155.1744 40.760155 
L 154.368 41.743717 
L 153.884593 42.336 
L 153.5616 42.716355 
L 152.7552 43.670925 
L 151.9488 44.628622 
L 151.698127 44.928 
L 151.1424 45.565671 
L 150.336 46.495032 
L 149.5296 47.427526 
L 149.450147 47.52 
L 148.7232 48.332598 
L 147.9168 49.237412 
L 147.140137 50.112 
L 147.1104 50.144151 
L 146.304 51.021974 
L 145.4976 51.902908 
L 144.76715 52.704 
L 144.6912 52.783944 
L 143.8848 53.638541 
L 143.0784 54.496266 
L 142.32949 55.296 
L 142.272 55.3549 
L 141.4656 56.186943 
L 140.6592 57.022137 
L 139.8528 57.860535 
L 139.82658 57.888 
L 139.0464 58.671731 
L 138.24 59.485076 
L 137.4336 60.301656 
L 137.258702 60.48 
L 136.6272 61.097353 
L 135.8208 61.889542 
L 135.0144 62.685001 
L 134.624489 63.072 
L 134.208 63.468167 
L 133.4016 64.2399 
L 132.5952 65.014946 
L 131.92326 65.664 
L 131.7888 65.788429 
L 130.9824 66.54042 
L 130.176 67.295773 
L 129.3696 68.054558 
L 129.157137 68.256 
L 128.5632 68.795278 
L 127.7568 69.531672 
L 126.9504 70.271561 
L 126.325746 70.848 
L 126.144 71.008559 
L 125.3376 71.726745 
L 124.5312 72.448498 
L 123.7248 73.173902 
L 123.431308 73.44 
L 122.9184 73.88501 
L 122.112 74.589408 
L 121.3056 75.297545 
L 120.4992 76.009517 
L 120.473984 76.032 
L 119.6928 76.698247 
L 118.8864 77.389936 
L 118.08 78.085569 
L 117.460103 78.624 
L 117.2736 78.778901 
L 116.4672 79.45499 
L 115.6608 80.135147 
L 114.8544 80.819489 
L 114.391026 81.216 
L 114.048 81.496561 
L 113.2416 82.162142 
L 112.4352 82.832058 
L 111.6288 83.506445 
L 111.27165 83.808 
L 110.8224 84.170399 
L 110.016 84.826854 
L 109.2096 85.487962 
L 108.4032 86.153879 
L 108.108338 86.4 
L 107.5968 86.807742 
L 106.7904 87.456611 
L 105.984 88.110512 
L 105.1776 88.769626 
L 104.908725 88.992 
L 104.3712 89.416314 
L 103.5648 90.059332 
L 102.7584 90.707831 
L 101.952 91.362023 
L 101.681866 91.584 
L 101.1456 92.004356 
L 100.3392 92.643485 
L 99.5328 93.28863 
L 98.7264 93.940041 
L 98.43834 94.176 
L 97.92 94.580749 
L 97.1136 95.218225 
L 96.3072 95.862354 
L 95.5008 96.513431 
L 95.190244 96.768 
L 94.6944 97.155159 
L 93.888 97.793535 
L 93.0816 98.439322 
L 92.2752 99.092866 
L 91.951036 99.36 
L 91.4688 99.738173 
L 90.6624 100.380365 
L 89.856 101.030859 
L 89.0496 101.690068 
L 88.735102 101.952 
L 88.2432 102.341402 
L 87.4368 102.990716 
L 86.6304 103.649375 
L 85.824 104.317861 
L 85.556971 104.544 
L 85.0176 104.977501 
L 84.2112 105.637635 
L 83.4048 106.308306 
L 82.5984 106.99008 
L 82.430102 107.136 
L 81.792 107.660013 
L 80.9856 108.334992 
L 80.1792 109.021842 
L 79.3728 109.721212 
L 79.365211 109.728 
L 78.5664 110.402917 
L 77.76 111.096943 
L 76.9536 111.804271 
L 76.379441 112.32 
L 76.1472 112.51658 
L 75.3408 113.219758 
L 74.5344 113.936931 
L 73.728 114.668867 
L 73.468897 114.912 
L 72.9216 115.393689 
L 72.1152 116.122278 
L 71.3088 116.866173 
L 70.634529 117.504 
L 70.5024 117.620708 
L 69.696 118.361797 
L 68.8896 119.118433 
L 68.0832 119.89146 
L 67.879232 120.096 
L 67.2768 120.654595 
L 66.4704 121.423715 
L 65.664 122.20875 
L 65.190204 122.688 
L 64.8576 122.995575 
L 64.0512 123.774671 
L 63.2448 124.567463 
L 62.537809 125.28 
L 62.4384 125.369725 
L 61.632 126.149878 
L 60.8256 126.935701 
L 60.0192 127.72261 
L 59.883989 127.872 
L 59.2128 128.473102 
L 58.4064 129.176957 
L 57.6 129.735184 
L 57.6 130.464 
L 57.6 131.079766 
z
" clip-path="url(#pec30182aaf)" style="fill: #cc4248"/>
   </g>
   <g id="PathCollection_6">
    <path d="M 58.4064 129.176957 
L 59.2128 128.473102 
L 59.883989 127.872 
L 60.0192 127.72261 
L 60.8256 126.935701 
L 61.632 126.149878 
L 62.4384 125.369725 
L 62.537809 125.28 
L 63.2448 124.567463 
L 64.0512 123.774671 
L 64.8576 122.995575 
L 65.190204 122.688 
L 65.664 122.20875 
L 66.4704 121.423715 
L 67.2768 120.654595 
L 67.879232 120.096 
L 68.0832 119.89146 
L 68.8896 119.118433 
L 69.696 118.361797 
L 70.5024 117.620708 
L 70.634529 117.504 
L 71.3088 116.866173 
L 72.1152 116.122278 
L 72.9216 115.393689 
L 73.468897 114.912 
L 73.728 114.668867 
L 74.5344 113.936931 
L 75.3408 113.219758 
L 76.1472 112.51658 
L 76.379441 112.32 
L 76.9536 111.804271 
L 77.76 111.096943 
L 78.5664 110.402917 
L 79.365211 109.728 
L 79.3728 109.721212 
L 80.1792 109.021842 
L 80.9856 108.334992 
L 81.792 107.660013 
L 82.430102 107.136 
L 82.5984 106.99008 
L 83.4048 106.308306 
L 84.2112 105.637635 
L 85.0176 104.977501 
L 85.556971 104.544 
L 85.824 104.317861 
L 86.6304 103.649375 
L 87.4368 102.990716 
L 88.2432 102.341402 
L 88.735102 101.952 
L 89.0496 101.690068 
L 89.856 101.030859 
L 90.6624 100.380365 
L 91.4688 99.738173 
L 91.951036 99.36 
L 92.2752 99.092866 
L 93.0816 98.439322 
L 93.888 97.793535 
L 94.6944 97.155159 
L 95.190244 96.768 
L 95.5008 96.513431 
L 96.3072 95.862354 
L 97.1136 95.218225 
L 97.92 94.580749 
L 98.43834 94.176 
L 98.7264 93.940041 
L 99.5328 93.28863 
L 100.3392 92.643485 
L 101.1456 92.004356 
L 101.681866 91.584 
L 101.952 91.362023 
L 102.7584 90.707831 
L 103.5648 90.059332 
L 104.3712 89.416314 
L 104.908725 88.992 
L 105.1776 88.769626 
L 105.984 88.110512 
L 106.7904 87.456611 
L 107.5968 86.807742 
L 108.108338 86.4 
L 108.4032 86.153879 
L 109.2096 85.487962 
L 110.016 84.826854 
L 110.8224 84.170399 
L 111.27165 83.808 
L 111.6288 83.506445 
L 112.4352 82.832058 
L 113.2416 82.162142 
L 114.048 81.496561 
L 114.391026 81.216 
L 114.8544 80.819489 
L 115.6608 80.135147 
L 116.4672 79.45499 
L 117.2736 78.778901 
L 117.460103 78.624 
L 118.08 78.085569 
L 118.8864 77.389936 
L 119.6928 76.698247 
L 120.473984 76.032 
L 120.4992 76.009517 
L 121.3056 75.297545 
L 122.112 74.589408 
L 122.9184 73.88501 
L 123.431308 73.44 
L 123.7248 73.173902 
L 124.5312 72.448498 
L 125.3376 71.726745 
L 126.144 71.008559 
L 126.325746 70.848 
L 126.9504 70.271561 
L 127.7568 69.531672 
L 128.5632 68.795278 
L 129.157137 68.256 
L 129.3696 68.054558 
L 130.176 67.295773 
L 130.9824 66.54042 
L 131.7888 65.788429 
L 131.92326 65.664 
L 132.5952 65.014946 
L 133.4016 64.2399 
L 134.208 63.468167 
L 134.624489 63.072 
L 135.0144 62.685001 
L 135.8208 61.889542 
L 136.6272 61.097353 
L 137.258702 60.48 
L 137.4336 60.301656 
L 138.24 59.485076 
L 139.0464 58.671731 
L 139.82658 57.888 
L 139.8528 57.860535 
L 140.6592 57.022137 
L 141.4656 56.186943 
L 142.272 55.3549 
L 142.32949 55.296 
L 143.0784 54.496266 
L 143.8848 53.638541 
L 144.6912 52.783944 
L 144.76715 52.704 
L 145.4976 51.902908 
L 146.304 51.021974 
L 147.1104 50.144151 
L 147.140137 50.112 
L 147.9168 49.237412 
L 148.7232 48.332598 
L 149.450147 47.52 
L 149.5296 47.427526 
L 150.336 46.495032 
L 151.1424 45.565671 
L 151.698127 44.928 
L 151.9488 44.628622 
L 152.7552 43.670925 
L 153.5616 42.716355 
L 153.884593 42.336 
L 154.368 41.743717 
L 155.1744 40.760155 
L 155.9808 39.779716 
L 156.01036 39.744 
L 156.7872 38.767778 
L 157.5936 37.757691 
L 158.079267 37.152 
L 158.4 36.736113 
L 159.2064 35.695679 
L 160.0128 34.658407 
L 160.089753 34.56 
L 160.8192 33.590477 
L 161.6256 32.522198 
L 162.045808 31.968 
L 162.432 31.438797 
L 163.2384 30.338806 
L 163.946559 29.376 
L 164.0448 29.237269 
L 164.8512 28.104856 
L 165.6576 26.975696 
L 165.795236 26.784 
L 166.464 25.816891 
L 167.2704 24.65464 
L 167.592872 24.192 
L 168.0768 23.471372 
L 168.8832 22.275314 
L 169.340353 21.6 
L 168.8832 21.6 
L 168.0768 21.6 
L 167.2704 21.6 
L 166.464 21.6 
L 165.6576 21.6 
L 164.8512 21.6 
L 164.0448 21.6 
L 163.2384 21.6 
L 162.432 21.6 
L 161.6256 21.6 
L 160.8192 21.6 
L 160.0128 21.6 
L 159.2064 21.6 
L 158.4 21.6 
L 157.5936 21.6 
L 156.7872 21.6 
L 155.9808 21.6 
L 155.1744 21.6 
L 154.368 21.6 
L 153.5616 21.6 
L 152.7552 21.6 
L 151.9488 21.6 
L 151.1424 21.6 
L 150.336 21.6 
L 149.5296 21.6 
L 148.7232 21.6 
L 147.9168 21.6 
L 147.1104 21.6 
L 146.304 21.6 
L 145.4976 21.6 
L 144.6912 21.6 
L 143.8848 21.6 
L 143.0784 21.6 
L 142.272 21.6 
L 141.4656 21.6 
L 140.6592 21.6 
L 139.8528 21.6 
L 139.0464 21.6 
L 138.24 21.6 
L 137.4336 21.6 
L 136.6272 21.6 
L 135.8208 21.6 
L 135.0144 21.6 
L 134.208 21.6 
L 133.4016 21.6 
L 132.5952 21.6 
L 131.7888 21.6 
L 130.9824 21.6 
L 130.176 21.6 
L 129.3696 21.6 
L 128.5632 21.6 
L 127.7568 21.6 
L 127.298459 21.6 
L 126.9504 22.337091 
L 126.144 24.056816 
L 126.081147 24.192 
L 125.3376 25.730898 
L 124.832193 26.784 
L 124.5312 27.387309 
L 123.7248 29.015856 
L 123.547936 29.376 
L 122.9184 30.608672 
L 122.228807 31.968 
L 122.112 32.18933 
L 121.3056 33.730769 
L 120.874955 34.56 
L 120.4992 35.255235 
L 119.6928 36.7588 
L 119.483743 37.152 
L 118.8864 38.231126 
L 118.08 39.697885 
L 118.054897 39.744 
L 117.2736 41.122035 
L 116.589956 42.336 
L 116.4672 42.545212 
L 115.6608 43.932915 
L 115.086855 44.928 
L 114.8544 45.31465 
L 114.048 46.668643 
L 113.54507 47.52 
L 113.2416 48.012638 
L 112.4352 49.334018 
L 111.964509 50.112 
L 111.6288 50.643887 
L 110.8224 51.933765 
L 110.345168 52.704 
L 110.016 53.213032 
L 109.2096 54.472537 
L 108.687154 55.296 
L 108.4032 55.724636 
L 107.5968 56.954917 
L 106.990703 57.888 
L 106.7904 58.183193 
L 105.984 59.38542 
L 105.256213 60.48 
L 105.1776 60.593129 
L 104.3712 61.768497 
L 103.5648 62.954209 
L 103.485757 63.072 
L 102.7584 64.108539 
L 101.952 65.268959 
L 101.680981 65.664 
L 101.1456 66.409884 
L 100.3392 67.546299 
L 99.841638 68.256 
L 99.5328 68.676817 
L 98.7264 69.790552 
L 97.969184 70.848 
L 97.92 70.913578 
L 97.1136 72.006001 
L 96.3072 73.110965 
L 96.070799 73.44 
L 95.5008 74.196895 
L 94.6944 75.282501 
L 94.145617 76.032 
L 93.888 76.367453 
L 93.0816 77.435213 
L 92.2752 78.517421 
L 92.197295 78.624 
L 91.4688 79.573357 
L 90.6624 80.63999 
L 90.234589 81.216 
L 89.856 81.701175 
L 89.0496 82.75392 
L 88.255009 83.808 
L 88.2432 83.822898 
L 87.4368 84.863506 
L 86.6304 85.921916 
L 86.273903 86.4 
L 85.824 86.973033 
L 85.0176 88.022084 
L 84.286497 88.992 
L 84.2112 89.086766 
L 83.4048 90.128399 
L 82.5984 91.1912 
L 82.308055 91.584 
L 81.792 92.245145 
L 80.9856 93.303707 
L 80.33692 94.176 
L 80.1792 94.376538 
L 79.3728 95.432954 
L 78.5664 96.514752 
L 78.383655 96.768 
L 77.76 97.583076 
L 76.9536 98.666266 
L 76.452654 99.36 
L 76.1472 99.758057 
L 75.3408 100.84481 
L 74.541853 101.952 
L 74.5344 101.961695 
L 73.728 103.054188 
L 72.9216 104.179056 
L 72.670516 104.544 
L 72.1152 105.298055 
L 71.3088 106.432716 
L 70.828368 107.136 
L 70.5024 107.580009 
L 69.696 108.726957 
L 69.018173 109.728 
L 68.8896 109.90382 
L 68.0832 111.065922 
L 67.2768 112.271071 
L 67.24614 112.32 
L 66.4704 113.454659 
L 65.664 114.682263 
L 65.523476 114.912 
L 64.8576 115.900021 
L 64.0512 117.156254 
L 63.845464 117.504 
L 63.2448 118.412358 
L 62.4384 119.706943 
L 62.219619 120.096 
L 61.632 121.009305 
L 60.8256 122.360123 
L 60.657527 122.688 
L 60.0192 123.726988 
L 59.2128 125.178016 
L 59.172294 125.28 
L 58.4064 126.673125 
L 57.981146 127.872 
L 57.6 128.418598 
L 57.6 129.735184 
z
" clip-path="url(#pec30182aaf)" style="fill: #a82e5f"/>
   </g>
   <g id="PathCollection_7">
    <path d="M 57.981146 127.872 
L 58.4064 126.673125 
L 59.172294 125.28 
L 59.2128 125.178016 
L 60.0192 123.726988 
L 60.657527 122.688 
L 60.8256 122.360123 
L 61.632 121.009305 
L 62.219619 120.096 
L 62.4384 119.706943 
L 63.2448 118.412358 
L 63.845464 117.504 
L 64.0512 117.156254 
L 64.8576 115.900021 
L 65.523476 114.912 
L 65.664 114.682263 
L 66.4704 113.454659 
L 67.24614 112.32 
L 67.2768 112.271071 
L 68.0832 111.065922 
L 68.8896 109.90382 
L 69.018173 109.728 
L 69.696 108.726957 
L 70.5024 107.580009 
L 70.828368 107.136 
L 71.3088 106.432716 
L 72.1152 105.298055 
L 72.670516 104.544 
L 72.9216 104.179056 
L 73.728 103.054188 
L 74.5344 101.961695 
L 74.541853 101.952 
L 75.3408 100.84481 
L 76.1472 99.758057 
L 76.452654 99.36 
L 76.9536 98.666266 
L 77.76 97.583076 
L 78.383655 96.768 
L 78.5664 96.514752 
L 79.3728 95.432954 
L 80.1792 94.376538 
L 80.33692 94.176 
L 80.9856 93.303707 
L 81.792 92.245145 
L 82.308055 91.584 
L 82.5984 91.1912 
L 83.4048 90.128399 
L 84.2112 89.086766 
L 84.286497 88.992 
L 85.0176 88.022084 
L 85.824 86.973033 
L 86.273903 86.4 
L 86.6304 85.921916 
L 87.4368 84.863506 
L 88.2432 83.822898 
L 88.255009 83.808 
L 89.0496 82.75392 
L 89.856 81.701175 
L 90.234589 81.216 
L 90.6624 80.63999 
L 91.4688 79.573357 
L 92.197295 78.624 
L 92.2752 78.517421 
L 93.0816 77.435213 
L 93.888 76.367453 
L 94.145617 76.032 
L 94.6944 75.282501 
L 95.5008 74.196895 
L 96.070799 73.44 
L 96.3072 73.110965 
L 97.1136 72.006001 
L 97.92 70.913578 
L 97.969184 70.848 
L 98.7264 69.790552 
L 99.5328 68.676817 
L 99.841638 68.256 
L 100.3392 67.546299 
L 101.1456 66.409884 
L 101.680981 65.664 
L 101.952 65.268959 
L 102.7584 64.108539 
L 103.485757 63.072 
L 103.5648 62.954209 
L 104.3712 61.768497 
L 105.1776 60.593129 
L 105.256213 60.48 
L 105.984 59.38542 
L 106.7904 58.183193 
L 106.990703 57.888 
L 107.5968 56.954917 
L 108.4032 55.724636 
L 108.687154 55.296 
L 109.2096 54.472537 
L 110.016 53.213032 
L 110.345168 52.704 
L 110.8224 51.933765 
L 111.6288 50.643887 
L 111.964509 50.112 
L 112.4352 49.334018 
L 113.2416 48.012638 
L 113.54507 47.52 
L 114.048 46.668643 
L 114.8544 45.31465 
L 115.086855 44.928 
L 115.6608 43.932915 
L 116.4672 42.545212 
L 116.589956 42.336 
L 117.2736 41.122035 
L 118.054897 39.744 
L 118.08 39.697885 
L 118.8864 38.231126 
L 119.483743 37.152 
L 119.6928 36.7588 
L 120.4992 35.255235 
L 120.874955 34.56 
L 121.3056 33.730769 
L 122.112 32.18933 
L 122.228807 31.968 
L 122.9184 30.608672 
L 123.547936 29.376 
L 123.7248 29.015856 
L 124.5312 27.387309 
L 124.832193 26.784 
L 125.3376 25.730898 
L 126.081147 24.192 
L 126.144 24.056816 
L 126.9504 22.337091 
L 127.298459 21.6 
L 126.9504 21.6 
L 126.144 21.6 
L 125.3376 21.6 
L 124.5312 21.6 
L 123.7248 21.6 
L 122.9184 21.6 
L 122.112 21.6 
L 121.3056 21.6 
L 120.4992 21.6 
L 119.6928 21.6 
L 118.8864 21.6 
L 118.08 21.6 
L 117.2736 21.6 
L 116.4672 21.6 
L 115.6608 21.6 
L 114.8544 21.6 
L 114.048 21.6 
L 113.2416 21.6 
L 112.4352 21.6 
L 111.6288 21.6 
L 110.8224 21.6 
L 110.016 21.6 
L 109.2096 21.6 
L 108.4032 21.6 
L 107.5968 21.6 
L 106.7904 21.6 
L 105.984 21.6 
L 105.1776 21.6 
L 104.3712 21.6 
L 103.5648 21.6 
L 102.7584 21.6 
L 101.952 21.6 
L 101.846644 21.6 
L 101.1456 23.691442 
L 100.98009 24.192 
L 100.3392 26.055659 
L 100.092188 26.784 
L 99.5328 28.36931 
L 99.182572 29.376 
L 98.7264 30.635755 
L 98.250884 31.968 
L 97.92 32.858284 
L 97.296773 34.56 
L 97.1136 35.040123 
L 96.319901 37.152 
L 96.3072 37.184426 
L 95.5008 39.276986 
L 95.323672 39.744 
L 94.6944 41.335231 
L 94.305009 42.336 
L 93.888 43.363406 
L 93.263436 44.928 
L 93.0816 45.364458 
L 92.2752 47.33412 
L 92.200503 47.52 
L 91.4688 49.263642 
L 91.11922 50.112 
L 90.6624 51.173063 
L 90.015516 52.704 
L 89.856 53.065123 
L 89.0496 54.927762 
L 88.893476 55.296 
L 88.2432 56.762169 
L 87.754116 57.888 
L 87.4368 58.585802 
L 86.6304 60.397806 
L 86.594689 60.48 
L 85.824 62.173243 
L 85.424273 63.072 
L 85.0176 63.944191 
L 84.234628 65.664 
L 84.2112 65.713047 
L 83.4048 67.447134 
L 83.038328 68.256 
L 82.5984 69.180511 
L 81.825903 70.848 
L 81.792 70.917614 
L 80.9856 72.623938 
L 80.611109 73.44 
L 80.1792 74.33412 
L 79.383408 76.032 
L 79.3728 76.053477 
L 78.5664 77.742689 
L 78.159357 78.624 
L 77.76 79.443138 
L 76.9536 81.154821 
L 76.92588 81.216 
L 76.1472 82.840869 
L 75.700707 83.808 
L 75.3408 84.543902 
L 74.5344 86.258435 
L 74.470693 86.4 
L 73.728 87.953862 
L 73.2524 88.992 
L 72.9216 89.670474 
L 72.1152 91.399879 
L 72.033577 91.584 
L 71.3088 93.114912 
L 70.830266 94.176 
L 70.5024 94.854959 
L 69.696 96.612532 
L 69.628773 96.768 
L 68.8896 98.356847 
L 68.44869 99.36 
L 68.0832 100.130166 
L 67.2768 101.933038 
L 67.268914 101.952 
L 66.4704 103.718076 
L 66.122016 104.544 
L 65.664 105.537573 
L 64.979235 107.136 
L 64.8576 107.394241 
L 64.0512 109.258025 
L 63.866511 109.728 
L 63.2448 111.147356 
L 62.780596 112.32 
L 62.4384 113.087171 
L 61.711038 114.912 
L 61.632 115.08552 
L 60.8256 117.121263 
L 60.699447 117.504 
L 60.0192 119.234333 
L 59.750754 120.096 
L 59.2128 121.478933 
L 58.880088 122.688 
L 58.4064 123.944108 
L 58.169498 125.28 
L 57.6 126.977575 
L 57.6 127.872 
L 57.6 128.418598 
z
" clip-path="url(#pec30182aaf)" style="fill: #7f1e6c"/>
   </g>
   <g id="PathCollection_8">
    <path d="M 58.169498 125.28 
L 58.4064 123.944108 
L 58.880088 122.688 
L 59.2128 121.478933 
L 59.750754 120.096 
L 60.0192 119.234333 
L 60.699447 117.504 
L 60.8256 117.121263 
L 61.632 115.08552 
L 61.711038 114.912 
L 62.4384 113.087171 
L 62.780596 112.32 
L 63.2448 111.147356 
L 63.866511 109.728 
L 64.0512 109.258025 
L 64.8576 107.394241 
L 64.979235 107.136 
L 65.664 105.537573 
L 66.122016 104.544 
L 66.4704 103.718076 
L 67.268914 101.952 
L 67.2768 101.933038 
L 68.0832 100.130166 
L 68.44869 99.36 
L 68.8896 98.356847 
L 69.628773 96.768 
L 69.696 96.612532 
L 70.5024 94.854959 
L 70.830266 94.176 
L 71.3088 93.114912 
L 72.033577 91.584 
L 72.1152 91.399879 
L 72.9216 89.670474 
L 73.2524 88.992 
L 73.728 87.953862 
L 74.470693 86.4 
L 74.5344 86.258435 
L 75.3408 84.543902 
L 75.700707 83.808 
L 76.1472 82.840869 
L 76.92588 81.216 
L 76.9536 81.154821 
L 77.76 79.443138 
L 78.159357 78.624 
L 78.5664 77.742689 
L 79.3728 76.053477 
L 79.383408 76.032 
L 80.1792 74.33412 
L 80.611109 73.44 
L 80.9856 72.623938 
L 81.792 70.917614 
L 81.825903 70.848 
L 82.5984 69.180511 
L 83.038328 68.256 
L 83.4048 67.447134 
L 84.2112 65.713047 
L 84.234628 65.664 
L 85.0176 63.944191 
L 85.424273 63.072 
L 85.824 62.173243 
L 86.594689 60.48 
L 86.6304 60.397806 
L 87.4368 58.585802 
L 87.754116 57.888 
L 88.2432 56.762169 
L 88.893476 55.296 
L 89.0496 54.927762 
L 89.856 53.065123 
L 90.015516 52.704 
L 90.6624 51.173063 
L 91.11922 50.112 
L 91.4688 49.263642 
L 92.200503 47.52 
L 92.2752 47.33412 
L 93.0816 45.364458 
L 93.263436 44.928 
L 93.888 43.363406 
L 94.305009 42.336 
L 94.6944 41.335231 
L 95.323672 39.744 
L 95.5008 39.276986 
L 96.3072 37.184426 
L 96.319901 37.152 
L 97.1136 35.040123 
L 97.296773 34.56 
L 97.92 32.858284 
L 98.250884 31.968 
L 98.7264 30.635755 
L 99.182572 29.376 
L 99.5328 28.36931 
L 100.092188 26.784 
L 100.3392 26.055659 
L 100.98009 24.192 
L 101.1456 23.691442 
L 101.846644 21.6 
L 101.1456 21.6 
L 100.3392 21.6 
L 99.5328 21.6 
L 98.7264 21.6 
L 97.92 21.6 
L 97.1136 21.6 
L 96.3072 21.6 
L 95.5008 21.6 
L 94.6944 21.6 
L 93.888 21.6 
L 93.0816 21.6 
L 92.2752 21.6 
L 91.4688 21.6 
L 90.6624 21.6 
L 89.856 21.6 
L 89.0496 21.6 
L 88.2432 21.6 
L 87.4368 21.6 
L 86.6304 21.6 
L 85.824 21.6 
L 85.495292 21.6 
L 85.0176 23.638959 
L 84.891194 24.192 
L 84.275775 26.784 
L 84.2112 27.045688 
L 83.65085 29.376 
L 83.4048 30.359993 
L 83.013419 31.968 
L 82.5984 33.60701 
L 82.363795 34.56 
L 81.792 36.791595 
L 81.702335 37.152 
L 81.030829 39.744 
L 80.9856 39.911539 
L 80.351056 42.336 
L 80.1792 42.965732 
L 79.660795 44.928 
L 79.3728 45.972811 
L 78.960598 47.52 
L 78.5664 48.937136 
L 78.251057 50.112 
L 77.76 51.86295 
L 77.532805 52.704 
L 76.9536 54.754376 
L 76.806506 55.296 
L 76.1472 57.615401 
L 76.072854 57.888 
L 75.3408 60.449871 
L 75.332557 60.48 
L 74.588763 63.072 
L 74.5344 63.252391 
L 73.840178 65.664 
L 73.728 66.034576 
L 73.087185 68.256 
L 72.9216 68.801061 
L 72.33052 70.848 
L 72.1152 71.554914 
L 71.57091 73.44 
L 71.3088 74.299067 
L 70.809066 76.032 
L 70.5024 77.036343 
L 70.045687 78.624 
L 69.696 79.769509 
L 69.281466 81.216 
L 68.8896 82.501346 
L 68.517104 83.808 
L 68.0832 85.234758 
L 67.753323 86.4 
L 67.2768 87.972904 
L 66.990882 88.992 
L 66.4704 90.719392 
L 66.230602 91.584 
L 65.664 93.47853 
L 65.47338 94.176 
L 64.8576 96.255683 
L 64.720197 96.768 
L 64.0512 99.057804 
L 63.972106 99.36 
L 63.2448 101.894278 
L 63.230169 101.952 
L 62.50493 104.544 
L 62.4384 104.75788 
L 61.795553 107.136 
L 61.632 107.673851 
L 61.103186 109.728 
L 60.8256 110.671996 
L 60.431232 112.32 
L 60.0192 113.795531 
L 59.781719 114.912 
L 59.2128 117.131812 
L 59.149019 117.504 
L 58.598511 120.096 
L 58.4064 120.782 
L 58.167895 122.688 
L 57.656433 125.28 
L 57.6 125.448217 
L 57.6 126.977575 
z
" clip-path="url(#pec30182aaf)" style="fill: #550f6d"/>
   </g>
   <g id="PathCollection_9">
    <path d="M 57.656433 125.28 
L 58.167895 122.688 
L 58.4064 120.782 
L 58.598511 120.096 
L 59.149019 117.504 
L 59.2128 117.131812 
L 59.781719 114.912 
L 60.0192 113.795531 
L 60.431232 112.32 
L 60.8256 110.671996 
L 61.103186 109.728 
L 61.632 107.673851 
L 61.795553 107.136 
L 62.4384 104.75788 
L 62.50493 104.544 
L 63.230169 101.952 
L 63.2448 101.894278 
L 63.972106 99.36 
L 64.0512 99.057804 
L 64.720197 96.768 
L 64.8576 96.255683 
L 65.47338 94.176 
L 65.664 93.47853 
L 66.230602 91.584 
L 66.4704 90.719392 
L 66.990882 88.992 
L 67.2768 87.972904 
L 67.753323 86.4 
L 68.0832 85.234758 
L 68.517104 83.808 
L 68.8896 82.501346 
L 69.281466 81.216 
L 69.696 79.769509 
L 70.045687 78.624 
L 70.5024 77.036343 
L 70.809066 76.032 
L 71.3088 74.299067 
L 71.57091 73.44 
L 72.1152 71.554914 
L 72.33052 70.848 
L 72.9216 68.801061 
L 73.087185 68.256 
L 73.728 66.034576 
L 73.840178 65.664 
L 74.5344 63.252391 
L 74.588763 63.072 
L 75.332557 60.48 
L 75.3408 60.449871 
L 76.072854 57.888 
L 76.1472 57.615401 
L 76.806506 55.296 
L 76.9536 54.754376 
L 77.532805 52.704 
L 77.76 51.86295 
L 78.251057 50.112 
L 78.5664 48.937136 
L 78.960598 47.52 
L 79.3728 45.972811 
L 79.660795 44.928 
L 80.1792 42.965732 
L 80.351056 42.336 
L 80.9856 39.911539 
L 81.030829 39.744 
L 81.702335 37.152 
L 81.792 36.791595 
L 82.363795 34.56 
L 82.5984 33.60701 
L 83.013419 31.968 
L 83.4048 30.359993 
L 83.65085 29.376 
L 84.2112 27.045688 
L 84.275775 26.784 
L 84.891194 24.192 
L 85.0176 23.638959 
L 85.495292 21.6 
L 85.0176 21.6 
L 84.2112 21.6 
L 83.4048 21.6 
L 82.5984 21.6 
L 81.792 21.6 
L 80.9856 21.6 
L 80.1792 21.6 
L 79.3728 21.6 
L 78.5664 21.6 
L 77.76 21.6 
L 76.9536 21.6 
L 76.1472 21.6 
L 75.3408 21.6 
L 74.621953 21.6 
L 74.5344 22.170169 
L 74.235944 24.192 
L 73.840957 26.784 
L 73.728 27.499366 
L 73.443899 29.376 
L 73.038397 31.968 
L 72.9216 32.687725 
L 72.631137 34.56 
L 72.215211 37.152 
L 72.1152 37.751894 
L 71.798684 39.744 
L 71.37239 42.336 
L 71.3088 42.707356 
L 70.94761 44.928 
L 70.510935 47.52 
L 70.5024 47.568521 
L 70.078984 50.112 
L 69.696 52.329313 
L 69.634935 52.704 
L 69.193846 55.296 
L 68.8896 57.013117 
L 68.743962 57.888 
L 68.293189 60.48 
L 68.0832 61.634466 
L 67.838727 63.072 
L 67.37797 65.664 
L 67.2768 66.205214 
L 66.920354 68.256 
L 66.4704 70.72988 
L 66.450523 70.848 
L 65.990079 73.44 
L 65.664 75.186131 
L 65.518945 76.032 
L 65.049364 78.624 
L 64.8576 79.622651 
L 64.579199 81.216 
L 64.100067 83.808 
L 64.0512 84.055039 
L 63.63393 86.4 
L 63.2448 88.456167 
L 63.154628 88.992 
L 62.686799 91.584 
L 62.4384 92.863327 
L 62.216011 94.176 
L 61.743043 96.768 
L 61.632 97.325055 
L 61.287272 99.36 
L 60.8256 101.868589 
L 60.812951 101.952 
L 60.379639 104.544 
L 60.0192 106.492775 
L 59.926865 107.136 
L 59.511733 109.728 
L 59.2128 111.362001 
L 59.091264 112.32 
L 58.718144 114.912 
L 58.4064 116.712537 
L 58.333303 117.504 
L 58.073733 120.096 
L 57.746389 122.688 
L 57.6 123.415547 
L 57.6 125.28 
L 57.6 125.448217 
z
" clip-path="url(#pec30182aaf)" style="fill: #2b0b57"/>
   </g>
   <g id="PathCollection_10">
    <path d="M 57.746389 122.688 
L 58.073733 120.096 
L 58.333303 117.504 
L 58.4064 116.712537 
L 58.718144 114.912 
L 59.091264 112.32 
L 59.2128 111.362001 
L 59.511733 109.728 
L 59.926865 107.136 
L 60.0192 106.492775 
L 60.379639 104.544 
L 60.812951 101.952 
L 60.8256 101.868589 
L 61.287272 99.36 
L 61.632 97.325055 
L 61.743043 96.768 
L 62.216011 94.176 
L 62.4384 92.863327 
L 62.686799 91.584 
L 63.154628 88.992 
L 63.2448 88.456167 
L 63.63393 86.4 
L 64.0512 84.055039 
L 64.100067 83.808 
L 64.579199 81.216 
L 64.8576 79.622651 
L 65.049364 78.624 
L 65.518945 76.032 
L 65.664 75.186131 
L 65.990079 73.44 
L 66.450523 70.848 
L 66.4704 70.72988 
L 66.920354 68.256 
L 67.2768 66.205214 
L 67.37797 65.664 
L 67.838727 63.072 
L 68.0832 61.634466 
L 68.293189 60.48 
L 68.743962 57.888 
L 68.8896 57.013117 
L 69.193846 55.296 
L 69.634935 52.704 
L 69.696 52.329313 
L 70.078984 50.112 
L 70.5024 47.568521 
L 70.510935 47.52 
L 70.94761 44.928 
L 71.3088 42.707356 
L 71.37239 42.336 
L 71.798684 39.744 
L 72.1152 37.751894 
L 72.215211 37.152 
L 72.631137 34.56 
L 72.9216 32.687725 
L 73.038397 31.968 
L 73.443899 29.376 
L 73.728 27.499366 
L 73.840957 26.784 
L 74.235944 24.192 
L 74.5344 22.170169 
L 74.621953 21.6 
L 74.5344 21.6 
L 73.728 21.6 
L 72.9216 21.6 
L 72.1152 21.6 
L 71.3088 21.6 
L 70.5024 21.6 
L 69.696 21.6 
L 68.8896 21.6 
L 68.0832 21.6 
L 67.2768 21.6 
L 67.072362 21.6 
L 66.855135 24.192 
L 66.633644 26.784 
L 66.4704 28.646506 
L 66.409185 29.376 
L 66.1848 31.968 
L 65.956118 34.56 
L 65.722682 37.152 
L 65.664 37.780238 
L 65.489419 39.744 
L 65.253473 42.336 
L 65.012672 44.928 
L 64.8576 46.547076 
L 64.769293 47.52 
L 64.526094 50.112 
L 64.277967 52.704 
L 64.0512 55.013209 
L 64.025025 55.296 
L 63.774758 57.888 
L 63.519535 60.48 
L 63.25828 63.072 
L 63.2448 63.198791 
L 63.000931 65.664 
L 62.73917 68.256 
L 62.471027 70.848 
L 62.4384 71.145824 
L 62.20722 73.44 
L 61.940018 76.032 
L 61.665962 78.624 
L 61.632 78.924994 
L 61.398083 81.216 
L 61.127422 83.808 
L 60.849206 86.4 
L 60.8256 86.60351 
L 60.580981 88.992 
L 60.310383 91.584 
L 60.031134 94.176 
L 60.0192 94.276607 
L 59.768331 96.768 
L 59.504336 99.36 
L 59.23009 101.952 
L 59.2128 102.096501 
L 58.980571 104.544 
L 58.736802 107.136 
L 58.481987 109.728 
L 58.4064 110.382889 
L 58.241966 112.32 
L 58.049671 114.912 
L 57.869099 117.504 
L 57.655992 120.096 
L 57.6 120.537596 
L 57.6 122.688 
L 57.6 123.415547 
z
" clip-path="url(#pec30182aaf)" style="fill: #07051b"/>
   </g>
   <g id="PathCollection_11">
    <path d="M 57.655992 120.096 
L 57.869099 117.504 
L 58.049671 114.912 
L 58.241966 112.32 
L 58.4064 110.382889 
L 58.481987 109.728 
L 58.736802 107.136 
L 58.980571 104.544 
L 59.2128 102.096501 
L 59.23009 101.952 
L 59.504336 99.36 
L 59.768331 96.768 
L 60.0192 94.276607 
L 60.031134 94.176 
L 60.310383 91.584 
L 60.580981 88.992 
L 60.8256 86.60351 
L 60.849206 86.4 
L 61.127422 83.808 
L 61.398083 81.216 
L 61.632 78.924994 
L 61.665962 78.624 
L 61.940018 76.032 
L 62.20722 73.44 
L 62.4384 71.145824 
L 62.471027 70.848 
L 62.73917 68.256 
L 63.000931 65.664 
L 63.2448 63.198791 
L 63.25828 63.072 
L 63.519535 60.48 
L 63.774758 57.888 
L 64.025025 55.296 
L 64.0512 55.013209 
L 64.277967 52.704 
L 64.526094 50.112 
L 64.769293 47.52 
L 64.8576 46.547076 
L 65.012672 44.928 
L 65.253473 42.336 
L 65.489419 39.744 
L 65.664 37.780238 
L 65.722682 37.152 
L 65.956118 34.56 
L 66.1848 31.968 
L 66.409185 29.376 
L 66.4704 28.646506 
L 66.633644 26.784 
L 66.855135 24.192 
L 67.072362 21.6 
L 66.4704 21.6 
L 65.664 21.6 
L 64.8576 21.6 
L 64.0512 21.6 
L 63.2448 21.6 
L 62.4384 21.6 
L 61.632 21.6 
L 60.8256 21.6 
L 60.0192 21.6 
L 59.2128 21.6 
L 58.4064 21.6 
L 57.6 21.6 
L 57.6 24.192 
L 57.6 26.784 
L 57.6 29.376 
L 57.6 31.968 
L 57.6 34.56 
L 57.6 37.152 
L 57.6 39.744 
L 57.6 42.336 
L 57.6 44.928 
L 57.6 47.52 
L 57.6 50.112 
L 57.6 52.704 
L 57.6 55.296 
L 57.6 57.888 
L 57.6 60.48 
L 57.6 63.072 
L 57.6 65.664 
L 57.6 68.256 
L 57.6 70.848 
L 57.6 73.44 
L 57.6 76.032 
L 57.6 78.624 
L 57.6 81.216 
L 57.6 83.808 
L 57.6 86.4 
L 57.6 88.992 
L 57.6 91.584 
L 57.6 94.176 
L 57.6 96.768 
L 57.6 99.36 
L 57.6 101.952 
L 57.6 104.544 
L 57.6 107.136 
L 57.6 109.728 
L 57.6 112.32 
L 57.6 114.912 
L 57.6 117.504 
L 57.6 120.096 
L 57.6 120.537596 
z
" clip-path="url(#pec30182aaf)" style="fill: #000004"/>
   </g>
   <g id="matplotlib.axis_1">
    <g id="xtick_1">
     <g id="line2d_1">
      <defs>
       <path id="m1bd60b4ced" d="M 0 0 
L 0 3.5 
" style="stroke: #000000; stroke-width: 0.8"/>
      </defs>
      <g>
       <use xlink:href="#m1bd60b4ced" x="89.53344" y="151.2" style="stroke: #000000; stroke-width: 0.8"/>
      </g>
     </g>
     <g id="text_1">
      <!-- 1 -->
      <g transform="translate(86.35219 165.798438) scale(0.1 -0.1)">
       <defs>
        <path id="DejaVuSans-31" d="M 794 531 
L 1825 531 
L 1825 4091 
L 703 3866 
L 703 4441 
L 1819 4666 
L 2450 4666 
L 2450 531 
L 3481 531 
L 3481 0 
L 794 0 
L 794 531 
z
" transform="scale(0.015625)"/>
       </defs>
       <use xlink:href="#DejaVuSans-31"/>
      </g>
     </g>
    </g>
    <g id="xtick_2">
     <g id="line2d_2">
      <g>
       <use xlink:href="#m1bd60b4ced" x="121.78944" y="151.2" style="stroke: #000000; stroke-width: 0.8"/>
      </g>
     </g>
     <g id="text_2">
      <!-- 2 -->
      <g transform="translate(118.60819 165.798438) scale(0.1 -0.1)">
       <defs>
        <path id="DejaVuSans-32" d="M 1228 531 
L 3431 531 
L 3431 0 
L 469 0 
L 469 531 
Q 828 903 1448 1529 
Q 2069 2156 2228 2338 
Q 2531 2678 2651 2914 
Q 2772 3150 2772 3378 
Q 2772 3750 2511 3984 
Q 2250 4219 1831 4219 
Q 1534 4219 1204 4116 
Q 875 4013 500 3803 
L 500 4441 
Q 881 4594 1212 4672 
Q 1544 4750 1819 4750 
Q 2544 4750 2975 4387 
Q 3406 4025 3406 3419 
Q 3406 3131 3298 2873 
Q 3191 2616 2906 2266 
Q 2828 2175 2409 1742 
Q 1991 1309 1228 531 
z
" transform="scale(0.015625)"/>
       </defs>
       <use xlink:href="#DejaVuSans-32"/>
      </g>
     </g>
    </g>
    <g id="xtick_3">
     <g id="line2d_3">
      <g>
       <use xlink:href="#m1bd60b4ced" x="154.04544" y="151.2" style="stroke: #000000; stroke-width: 0.8"/>
      </g>
     </g>
     <g id="text_3">
      <!-- 3 -->
      <g transform="translate(150.86419 165.798438) scale(0.1 -0.1)">
       <defs>
        <path id="DejaVuSans-33" d="M 2597 2516 
Q 3050 2419 3304 2112 
Q 3559 1806 3559 1356 
Q 3559 666 3084 287 
Q 2609 -91 1734 -91 
Q 1441 -91 1130 -33 
Q 819 25 488 141 
L 488 750 
Q 750 597 1062 519 
Q 1375 441 1716 441 
Q 2309 441 2620 675 
Q 2931 909 2931 1356 
Q 2931 1769 2642 2001 
Q 2353 2234 1838 2234 
L 1294 2234 
L 1294 2753 
L 1863 2753 
Q 2328 2753 2575 2939 
Q 2822 3125 2822 3475 
Q 2822 3834 2567 4026 
Q 2313 4219 1838 4219 
Q 1578 4219 1281 4162 
Q 984 4106 628 3988 
L 628 4550 
Q 988 4650 1302 4700 
Q 1616 4750 1894 4750 
Q 2613 4750 3031 4423 
Q 3450 4097 3450 3541 
Q 3450 3153 3228 2886 
Q 3006 2619 2597 2516 
z
" transform="scale(0.015625)"/>
       </defs>
       <use xlink:href="#DejaVuSans-33"/>
      </g>
     </g>
    </g>
    <g id="xtick_4">
     <g id="line2d_4">
      <g>
       <use xlink:href="#m1bd60b4ced" x="186.30144" y="151.2" style="stroke: #000000; stroke-width: 0.8"/>
      </g>
     </g>
     <g id="text_4">
      <!-- 4 -->
      <g transform="translate(183.12019 165.798438) scale(0.1 -0.1)">
       <defs>
        <path id="DejaVuSans-34" d="M 2419 4116 
L 825 1625 
L 2419 1625 
L 2419 4116 
z
M 2253 4666 
L 3047 4666 
L 3047 1625 
L 3713 1625 
L 3713 1100 
L 3047 1100 
L 3047 0 
L 2419 0 
L 2419 1100 
L 313 1100 
L 313 1709 
L 2253 4666 
z
" transform="scale(0.015625)"/>
       </defs>
       <use xlink:href="#DejaVuSans-34"/>
      </g>
     </g>
    </g>
    <g id="xtick_5">
     <g id="line2d_5">
      <g>
       <use xlink:href="#m1bd60b4ced" x="218.55744" y="151.2" style="stroke: #000000; stroke-width: 0.8"/>
      </g>
     </g>
     <g id="text_5">
      <!-- 5 -->
      <g transform="translate(215.37619 165.798438) scale(0.1 -0.1)">
       <defs>
        <path id="DejaVuSans-35" d="M 691 4666 
L 3169 4666 
L 3169 4134 
L 1269 4134 
L 1269 2991 
Q 1406 3038 1543 3061 
Q 1681 3084 1819 3084 
Q 2600 3084 3056 2656 
Q 3513 2228 3513 1497 
Q 3513 744 3044 326 
Q 2575 -91 1722 -91 
Q 1428 -91 1123 -41 
Q 819 9 494 109 
L 494 744 
Q 775 591 1075 516 
Q 1375 441 1709 441 
Q 2250 441 2565 725 
Q 2881 1009 2881 1497 
Q 2881 1984 2565 2268 
Q 2250 2553 1709 2553 
Q 1456 2553 1204 2497 
Q 953 2441 691 2322 
L 691 4666 
z
" transform="scale(0.015625)"/>
       </defs>
       <use xlink:href="#DejaVuSans-35"/>
      </g>
     </g>
    </g>
    <g id="text_6">
     <!-- Fcst Variance -->
     <g transform="translate(104.861094 179.476563) scale(0.1 -0.1)">
      <defs>
       <path id="DejaVuSans-46" d="M 628 4666 
L 3309 4666 
L 3309 4134 
L 1259 4134 
L 1259 2759 
L 3109 2759 
L 3109 2228 
L 1259 2228 
L 1259 0 
L 628 0 
L 628 4666 
z
" transform="scale(0.015625)"/>
       <path id="DejaVuSans-63" d="M 3122 3366 
L 3122 2828 
Q 2878 2963 2633 3030 
Q 2388 3097 2138 3097 
Q 1578 3097 1268 2742 
Q 959 2388 959 1747 
Q 959 1106 1268 751 
Q 1578 397 2138 397 
Q 2388 397 2633 464 
Q 2878 531 3122 666 
L 3122 134 
Q 2881 22 2623 -34 
Q 2366 -91 2075 -91 
Q 1284 -91 818 406 
Q 353 903 353 1747 
Q 353 2603 823 3093 
Q 1294 3584 2113 3584 
Q 2378 3584 2631 3529 
Q 2884 3475 3122 3366 
z
" transform="scale(0.015625)"/>
       <path id="DejaVuSans-73" d="M 2834 3397 
L 2834 2853 
Q 2591 2978 2328 3040 
Q 2066 3103 1784 3103 
Q 1356 3103 1142 2972 
Q 928 2841 928 2578 
Q 928 2378 1081 2264 
Q 1234 2150 1697 2047 
L 1894 2003 
Q 2506 1872 2764 1633 
Q 3022 1394 3022 966 
Q 3022 478 2636 193 
Q 2250 -91 1575 -91 
Q 1294 -91 989 -36 
Q 684 19 347 128 
L 347 722 
Q 666 556 975 473 
Q 1284 391 1588 391 
Q 1994 391 2212 530 
Q 2431 669 2431 922 
Q 2431 1156 2273 1281 
Q 2116 1406 1581 1522 
L 1381 1569 
Q 847 1681 609 1914 
Q 372 2147 372 2553 
Q 372 3047 722 3315 
Q 1072 3584 1716 3584 
Q 2034 3584 2315 3537 
Q 2597 3491 2834 3397 
z
" transform="scale(0.015625)"/>
       <path id="DejaVuSans-74" d="M 1172 4494 
L 1172 3500 
L 2356 3500 
L 2356 3053 
L 1172 3053 
L 1172 1153 
Q 1172 725 1289 603 
Q 1406 481 1766 481 
L 2356 481 
L 2356 0 
L 1766 0 
Q 1100 0 847 248 
Q 594 497 594 1153 
L 594 3053 
L 172 3053 
L 172 3500 
L 594 3500 
L 594 4494 
L 1172 4494 
z
" transform="scale(0.015625)"/>
       <path id="DejaVuSans-20" transform="scale(0.015625)"/>
       <path id="DejaVuSans-56" d="M 1831 0 
L 50 4666 
L 709 4666 
L 2188 738 
L 3669 4666 
L 4325 4666 
L 2547 0 
L 1831 0 
z
" transform="scale(0.015625)"/>
       <path id="DejaVuSans-61" d="M 2194 1759 
Q 1497 1759 1228 1600 
Q 959 1441 959 1056 
Q 959 750 1161 570 
Q 1363 391 1709 391 
Q 2188 391 2477 730 
Q 2766 1069 2766 1631 
L 2766 1759 
L 2194 1759 
z
M 3341 1997 
L 3341 0 
L 2766 0 
L 2766 531 
Q 2569 213 2275 61 
Q 1981 -91 1556 -91 
Q 1019 -91 701 211 
Q 384 513 384 1019 
Q 384 1609 779 1909 
Q 1175 2209 1959 2209 
L 2766 2209 
L 2766 2266 
Q 2766 2663 2505 2880 
Q 2244 3097 1772 3097 
Q 1472 3097 1187 3025 
Q 903 2953 641 2809 
L 641 3341 
Q 956 3463 1253 3523 
Q 1550 3584 1831 3584 
Q 2591 3584 2966 3190 
Q 3341 2797 3341 1997 
z
" transform="scale(0.015625)"/>
       <path id="DejaVuSans-72" d="M 2631 2963 
Q 2534 3019 2420 3045 
Q 2306 3072 2169 3072 
Q 1681 3072 1420 2755 
Q 1159 2438 1159 1844 
L 1159 0 
L 581 0 
L 581 3500 
L 1159 3500 
L 1159 2956 
Q 1341 3275 1631 3429 
Q 1922 3584 2338 3584 
Q 2397 3584 2469 3576 
Q 2541 3569 2628 3553 
L 2631 2963 
z
" transform="scale(0.015625)"/>
       <path id="DejaVuSans-69" d="M 603 3500 
L 1178 3500 
L 1178 0 
L 603 0 
L 603 3500 
z
M 603 4863 
L 1178 4863 
L 1178 4134 
L 603 4134 
L 603 4863 
z
" transform="scale(0.015625)"/>
       <path id="DejaVuSans-6e" d="M 3513 2113 
L 3513 0 
L 2938 0 
L 2938 2094 
Q 2938 2591 2744 2837 
Q 2550 3084 2163 3084 
Q 1697 3084 1428 2787 
Q 1159 2491 1159 1978 
L 1159 0 
L 581 0 
L 581 3500 
L 1159 3500 
L 1159 2956 
Q 1366 3272 1645 3428 
Q 1925 3584 2291 3584 
Q 2894 3584 3203 3211 
Q 3513 2838 3513 2113 
z
" transform="scale(0.015625)"/>
       <path id="DejaVuSans-65" d="M 3597 1894 
L 3597 1613 
L 953 1613 
Q 991 1019 1311 708 
Q 1631 397 2203 397 
Q 2534 397 2845 478 
Q 3156 559 3463 722 
L 3463 178 
Q 3153 47 2828 -22 
Q 2503 -91 2169 -91 
Q 1331 -91 842 396 
Q 353 884 353 1716 
Q 353 2575 817 3079 
Q 1281 3584 2069 3584 
Q 2775 3584 3186 3129 
Q 3597 2675 3597 1894 
z
M 3022 2063 
Q 3016 2534 2758 2815 
Q 2500 3097 2075 3097 
Q 1594 3097 1305 2825 
Q 1016 2553 972 2059 
L 3022 2063 
z
" transform="scale(0.015625)"/>
      </defs>
      <use xlink:href="#DejaVuSans-46"/>
      <use xlink:href="#DejaVuSans-63" x="57.519531"/>
      <use xlink:href="#DejaVuSans-73" x="112.5"/>
      <use xlink:href="#DejaVuSans-74" x="164.599609"/>
      <use xlink:href="#DejaVuSans-20" x="203.808594"/>
      <use xlink:href="#DejaVuSans-56" x="235.595703"/>
      <use xlink:href="#DejaVuSans-61" x="296.253906"/>
      <use xlink:href="#DejaVuSans-72" x="357.533203"/>
      <use xlink:href="#DejaVuSans-69" x="398.646484"/>
      <use xlink:href="#DejaVuSans-61" x="426.429688"/>
      <use xlink:href="#DejaVuSans-6e" x="487.708984"/>
      <use xlink:href="#DejaVuSans-63" x="551.087891"/>
      <use xlink:href="#DejaVuSans-65" x="606.068359"/>
     </g>
    </g>
   </g>
   <g id="matplotlib.axis_2">
    <g id="ytick_1">
     <g id="line2d_6">
      <defs>
       <path id="m337acd03c9" d="M 0 0 
L -3.5 0 
" style="stroke: #000000; stroke-width: 0.8"/>
      </defs>
      <g>
       <use xlink:href="#m337acd03c9" x="57.6" y="138.24" style="stroke: #000000; stroke-width: 0.8"/>
      </g>
     </g>
     <g id="text_7">
      <!-- 0.6 -->
      <g transform="translate(34.696875 142.039219) scale(0.1 -0.1)">
       <defs>
        <path id="DejaVuSans-30" d="M 2034 4250 
Q 1547 4250 1301 3770 
Q 1056 3291 1056 2328 
Q 1056 1369 1301 889 
Q 1547 409 2034 409 
Q 2525 409 2770 889 
Q 3016 1369 3016 2328 
Q 3016 3291 2770 3770 
Q 2525 4250 2034 4250 
z
M 2034 4750 
Q 2819 4750 3233 4129 
Q 3647 3509 3647 2328 
Q 3647 1150 3233 529 
Q 2819 -91 2034 -91 
Q 1250 -91 836 529 
Q 422 1150 422 2328 
Q 422 3509 836 4129 
Q 1250 4750 2034 4750 
z
" transform="scale(0.015625)"/>
        <path id="DejaVuSans-2e" d="M 684 794 
L 1344 794 
L 1344 0 
L 684 0 
L 684 794 
z
" transform="scale(0.015625)"/>
        <path id="DejaVuSans-36" d="M 2113 2584 
Q 1688 2584 1439 2293 
Q 1191 2003 1191 1497 
Q 1191 994 1439 701 
Q 1688 409 2113 409 
Q 2538 409 2786 701 
Q 3034 994 3034 1497 
Q 3034 2003 2786 2293 
Q 2538 2584 2113 2584 
z
M 3366 4563 
L 3366 3988 
Q 3128 4100 2886 4159 
Q 2644 4219 2406 4219 
Q 1781 4219 1451 3797 
Q 1122 3375 1075 2522 
Q 1259 2794 1537 2939 
Q 1816 3084 2150 3084 
Q 2853 3084 3261 2657 
Q 3669 2231 3669 1497 
Q 3669 778 3244 343 
Q 2819 -91 2113 -91 
Q 1303 -91 875 529 
Q 447 1150 447 2328 
Q 447 3434 972 4092 
Q 1497 4750 2381 4750 
Q 2619 4750 2861 4703 
Q 3103 4656 3366 4563 
z
" transform="scale(0.015625)"/>
       </defs>
       <use xlink:href="#DejaVuSans-30"/>
       <use xlink:href="#DejaVuSans-2e" x="63.623047"/>
       <use xlink:href="#DejaVuSans-36" x="95.410156"/>
      </g>
     </g>
    </g>
    <g id="ytick_2">
     <g id="line2d_7">
      <g>
       <use xlink:href="#m337acd03c9" x="57.6" y="112.32" style="stroke: #000000; stroke-width: 0.8"/>
      </g>
     </g>
     <g id="text_8">
      <!-- 0.8 -->
      <g transform="translate(34.696875 116.119219) scale(0.1 -0.1)">
       <defs>
        <path id="DejaVuSans-38" d="M 2034 2216 
Q 1584 2216 1326 1975 
Q 1069 1734 1069 1313 
Q 1069 891 1326 650 
Q 1584 409 2034 409 
Q 2484 409 2743 651 
Q 3003 894 3003 1313 
Q 3003 1734 2745 1975 
Q 2488 2216 2034 2216 
z
M 1403 2484 
Q 997 2584 770 2862 
Q 544 3141 544 3541 
Q 544 4100 942 4425 
Q 1341 4750 2034 4750 
Q 2731 4750 3128 4425 
Q 3525 4100 3525 3541 
Q 3525 3141 3298 2862 
Q 3072 2584 2669 2484 
Q 3125 2378 3379 2068 
Q 3634 1759 3634 1313 
Q 3634 634 3220 271 
Q 2806 -91 2034 -91 
Q 1263 -91 848 271 
Q 434 634 434 1313 
Q 434 1759 690 2068 
Q 947 2378 1403 2484 
z
M 1172 3481 
Q 1172 3119 1398 2916 
Q 1625 2713 2034 2713 
Q 2441 2713 2670 2916 
Q 2900 3119 2900 3481 
Q 2900 3844 2670 4047 
Q 2441 4250 2034 4250 
Q 1625 4250 1398 4047 
Q 1172 3844 1172 3481 
z
" transform="scale(0.015625)"/>
       </defs>
       <use xlink:href="#DejaVuSans-30"/>
       <use xlink:href="#DejaVuSans-2e" x="63.623047"/>
       <use xlink:href="#DejaVuSans-38" x="95.410156"/>
      </g>
     </g>
    </g>
    <g id="ytick_3">
     <g id="line2d_8">
      <g>
       <use xlink:href="#m337acd03c9" x="57.6" y="86.4" style="stroke: #000000; stroke-width: 0.8"/>
      </g>
     </g>
     <g id="text_9">
      <!-- 1.0 -->
      <g transform="translate(34.696875 90.199219) scale(0.1 -0.1)">
       <use xlink:href="#DejaVuSans-31"/>
       <use xlink:href="#DejaVuSans-2e" x="63.623047"/>
       <use xlink:href="#DejaVuSans-30" x="95.410156"/>
      </g>
     </g>
    </g>
    <g id="ytick_4">
     <g id="line2d_9">
      <g>
       <use xlink:href="#m337acd03c9" x="57.6" y="60.48" style="stroke: #000000; stroke-width: 0.8"/>
      </g>
     </g>
     <g id="text_10">
      <!-- 1.2 -->
      <g transform="translate(34.696875 64.279219) scale(0.1 -0.1)">
       <use xlink:href="#DejaVuSans-31"/>
       <use xlink:href="#DejaVuSans-2e" x="63.623047"/>
       <use xlink:href="#DejaVuSans-32" x="95.410156"/>
      </g>
     </g>
    </g>
    <g id="ytick_5">
     <g id="line2d_10">
      <g>
       <use xlink:href="#m337acd03c9" x="57.6" y="34.56" style="stroke: #000000; stroke-width: 0.8"/>
      </g>
     </g>
     <g id="text_11">
      <!-- 1.4 -->
      <g transform="translate(34.696875 38.359219) scale(0.1 -0.1)">
       <use xlink:href="#DejaVuSans-31"/>
       <use xlink:href="#DejaVuSans-2e" x="63.623047"/>
       <use xlink:href="#DejaVuSans-34" x="95.410156"/>
      </g>
     </g>
    </g>
    <g id="text_12">
     <!-- CR (spread / innovation) -->
     <g transform="translate(28.617187 147.142188) rotate(-90) scale(0.1 -0.1)">
      <defs>
       <path id="DejaVuSans-43" d="M 4122 4306 
L 4122 3641 
Q 3803 3938 3442 4084 
Q 3081 4231 2675 4231 
Q 1875 4231 1450 3742 
Q 1025 3253 1025 2328 
Q 1025 1406 1450 917 
Q 1875 428 2675 428 
Q 3081 428 3442 575 
Q 3803 722 4122 1019 
L 4122 359 
Q 3791 134 3420 21 
Q 3050 -91 2638 -91 
Q 1578 -91 968 557 
Q 359 1206 359 2328 
Q 359 3453 968 4101 
Q 1578 4750 2638 4750 
Q 3056 4750 3426 4639 
Q 3797 4528 4122 4306 
z
" transform="scale(0.015625)"/>
       <path id="DejaVuSans-52" d="M 2841 2188 
Q 3044 2119 3236 1894 
Q 3428 1669 3622 1275 
L 4263 0 
L 3584 0 
L 2988 1197 
Q 2756 1666 2539 1819 
Q 2322 1972 1947 1972 
L 1259 1972 
L 1259 0 
L 628 0 
L 628 4666 
L 2053 4666 
Q 2853 4666 3247 4331 
Q 3641 3997 3641 3322 
Q 3641 2881 3436 2590 
Q 3231 2300 2841 2188 
z
M 1259 4147 
L 1259 2491 
L 2053 2491 
Q 2509 2491 2742 2702 
Q 2975 2913 2975 3322 
Q 2975 3731 2742 3939 
Q 2509 4147 2053 4147 
L 1259 4147 
z
" transform="scale(0.015625)"/>
       <path id="DejaVuSans-28" d="M 1984 4856 
Q 1566 4138 1362 3434 
Q 1159 2731 1159 2009 
Q 1159 1288 1364 580 
Q 1569 -128 1984 -844 
L 1484 -844 
Q 1016 -109 783 600 
Q 550 1309 550 2009 
Q 550 2706 781 3412 
Q 1013 4119 1484 4856 
L 1984 4856 
z
" transform="scale(0.015625)"/>
       <path id="DejaVuSans-70" d="M 1159 525 
L 1159 -1331 
L 581 -1331 
L 581 3500 
L 1159 3500 
L 1159 2969 
Q 1341 3281 1617 3432 
Q 1894 3584 2278 3584 
Q 2916 3584 3314 3078 
Q 3713 2572 3713 1747 
Q 3713 922 3314 415 
Q 2916 -91 2278 -91 
Q 1894 -91 1617 61 
Q 1341 213 1159 525 
z
M 3116 1747 
Q 3116 2381 2855 2742 
Q 2594 3103 2138 3103 
Q 1681 3103 1420 2742 
Q 1159 2381 1159 1747 
Q 1159 1113 1420 752 
Q 1681 391 2138 391 
Q 2594 391 2855 752 
Q 3116 1113 3116 1747 
z
" transform="scale(0.015625)"/>
       <path id="DejaVuSans-64" d="M 2906 2969 
L 2906 4863 
L 3481 4863 
L 3481 0 
L 2906 0 
L 2906 525 
Q 2725 213 2448 61 
Q 2172 -91 1784 -91 
Q 1150 -91 751 415 
Q 353 922 353 1747 
Q 353 2572 751 3078 
Q 1150 3584 1784 3584 
Q 2172 3584 2448 3432 
Q 2725 3281 2906 2969 
z
M 947 1747 
Q 947 1113 1208 752 
Q 1469 391 1925 391 
Q 2381 391 2643 752 
Q 2906 1113 2906 1747 
Q 2906 2381 2643 2742 
Q 2381 3103 1925 3103 
Q 1469 3103 1208 2742 
Q 947 2381 947 1747 
z
" transform="scale(0.015625)"/>
       <path id="DejaVuSans-2f" d="M 1625 4666 
L 2156 4666 
L 531 -594 
L 0 -594 
L 1625 4666 
z
" transform="scale(0.015625)"/>
       <path id="DejaVuSans-6f" d="M 1959 3097 
Q 1497 3097 1228 2736 
Q 959 2375 959 1747 
Q 959 1119 1226 758 
Q 1494 397 1959 397 
Q 2419 397 2687 759 
Q 2956 1122 2956 1747 
Q 2956 2369 2687 2733 
Q 2419 3097 1959 3097 
z
M 1959 3584 
Q 2709 3584 3137 3096 
Q 3566 2609 3566 1747 
Q 3566 888 3137 398 
Q 2709 -91 1959 -91 
Q 1206 -91 779 398 
Q 353 888 353 1747 
Q 353 2609 779 3096 
Q 1206 3584 1959 3584 
z
" transform="scale(0.015625)"/>
       <path id="DejaVuSans-76" d="M 191 3500 
L 800 3500 
L 1894 563 
L 2988 3500 
L 3597 3500 
L 2284 0 
L 1503 0 
L 191 3500 
z
" transform="scale(0.015625)"/>
       <path id="DejaVuSans-29" d="M 513 4856 
L 1013 4856 
Q 1481 4119 1714 3412 
Q 1947 2706 1947 2009 
Q 1947 1309 1714 600 
Q 1481 -109 1013 -844 
L 513 -844 
Q 928 -128 1133 580 
Q 1338 1288 1338 2009 
Q 1338 2731 1133 3434 
Q 928 4138 513 4856 
z
" transform="scale(0.015625)"/>
      </defs>
      <use xlink:href="#DejaVuSans-43"/>
      <use xlink:href="#DejaVuSans-52" x="69.824219"/>
      <use xlink:href="#DejaVuSans-20" x="139.306641"/>
      <use xlink:href="#DejaVuSans-28" x="171.09375"/>
      <use xlink:href="#DejaVuSans-73" x="210.107422"/>
      <use xlink:href="#DejaVuSans-70" x="262.207031"/>
      <use xlink:href="#DejaVuSans-72" x="325.683594"/>
      <use xlink:href="#DejaVuSans-65" x="364.546875"/>
      <use xlink:href="#DejaVuSans-61" x="426.070312"/>
      <use xlink:href="#DejaVuSans-64" x="487.349609"/>
      <use xlink:href="#DejaVuSans-20" x="550.826172"/>
      <use xlink:href="#DejaVuSans-2f" x="582.613281"/>
      <use xlink:href="#DejaVuSans-20" x="616.304688"/>
      <use xlink:href="#DejaVuSans-69" x="648.091797"/>
      <use xlink:href="#DejaVuSans-6e" x="675.875"/>
      <use xlink:href="#DejaVuSans-6e" x="739.253906"/>
      <use xlink:href="#DejaVuSans-6f" x="802.632812"/>
      <use xlink:href="#DejaVuSans-76" x="863.814453"/>
      <use xlink:href="#DejaVuSans-61" x="922.994141"/>
      <use xlink:href="#DejaVuSans-74" x="984.273438"/>
      <use xlink:href="#DejaVuSans-69" x="1023.482422"/>
      <use xlink:href="#DejaVuSans-6f" x="1051.265625"/>
      <use xlink:href="#DejaVuSans-6e" x="1112.447266"/>
      <use xlink:href="#DejaVuSans-29" x="1175.826172"/>
     </g>
    </g>
   </g>
   <g id="patch_3">
    <path d="M 57.6 151.2 
L 57.6 21.6 
" style="fill: none; stroke: #000000; stroke-width: 0.8; stroke-linejoin: miter; stroke-linecap: square"/>
   </g>
   <g id="patch_4">
    <path d="M 218.88 151.2 
L 218.88 21.6 
" style="fill: none; stroke: #000000; stroke-width: 0.8; stroke-linejoin: miter; stroke-linecap: square"/>
   </g>
   <g id="patch_5">
    <path d="M 57.6 151.2 
L 218.88 151.2 
" style="fill: none; stroke: #000000; stroke-width: 0.8; stroke-linejoin: miter; stroke-linecap: square"/>
   </g>
   <g id="patch_6">
    <path d="M 57.6 21.6 
L 218.88 21.6 
" style="fill: none; stroke: #000000; stroke-width: 0.8; stroke-linejoin: miter; stroke-linecap: square"/>
   </g>
  </g>
  <g id="axes_2">
   <g id="patch_7">
    <path d="M 228.96 151.2 
L 235.44 151.2 
L 235.44 27.771429 
L 228.96 27.771429 
z
" style="fill: #ffffff"/>
   </g>
   <g id="patch_8">
    <path d="M 228.96 27.771429 
L 232.2 21.6 
L 235.44 27.771429 
" style="fill: #000004"/>
   </g>
   <g id="QuadMesh_1">
    <path d="M 228.96 151.2 
L 235.44 151.2 
L 235.44 138.857143 
L 228.96 138.857143 
L 228.96 151.2 
" clip-path="url(#p74ec148a67)" style="fill: #f1ef75"/>
    <path d="M 228.96 138.857143 
L 235.44 138.857143 
L 235.44 126.514286 
L 228.96 126.514286 
L 228.96 138.857143 
" clip-path="url(#p74ec148a67)" style="fill: #fbbe23"/>
    <path d="M 228.96 126.514286 
L 235.44 126.514286 
L 235.44 114.171429 
L 228.96 114.171429 
L 228.96 126.514286 
" clip-path="url(#p74ec148a67)" style="fill: #f98c0a"/>
    <path d="M 228.96 114.171429 
L 235.44 114.171429 
L 235.44 101.828571 
L 228.96 101.828571 
L 228.96 114.171429 
" clip-path="url(#p74ec148a67)" style="fill: #ea632a"/>
    <path d="M 228.96 101.828571 
L 235.44 101.828571 
L 235.44 89.485714 
L 228.96 89.485714 
L 228.96 101.828571 
" clip-path="url(#p74ec148a67)" style="fill: #cc4248"/>
    <path d="M 228.96 89.485714 
L 235.44 89.485714 
L 235.44 77.142857 
L 228.96 77.142857 
L 228.96 89.485714 
" clip-path="url(#p74ec148a67)" style="fill: #a82e5f"/>
    <path d="M 228.96 77.142857 
L 235.44 77.142857 
L 235.44 64.8 
L 228.96 64.8 
L 228.96 77.142857 
" clip-path="url(#p74ec148a67)" style="fill: #7f1e6c"/>
    <path d="M 228.96 64.8 
L 235.44 64.8 
L 235.44 52.457143 
L 228.96 52.457143 
L 228.96 64.8 
" clip-path="url(#p74ec148a67)" style="fill: #550f6d"/>
    <path d="M 228.96 52.457143 
L 235.44 52.457143 
L 235.44 40.114286 
L 228.96 40.114286 
L 228.96 52.457143 
" clip-path="url(#p74ec148a67)" style="fill: #2b0b57"/>
    <path d="M 228.96 40.114286 
L 235.44 40.114286 
L 235.44 27.771429 
L 228.96 27.771429 
L 228.96 40.114286 
" clip-path="url(#p74ec148a67)" style="fill: #07051b"/>
   </g>
   <g id="matplotlib.axis_3"/>
   <g id="matplotlib.axis_4">
    <g id="ytick_6">
     <g id="line2d_11">
      <defs>
       <path id="m314d7ccb45" d="M 0 0 
L 3.5 0 
" style="stroke: #000000; stroke-width: 0.8"/>
      </defs>
      <g>
       <use xlink:href="#m314d7ccb45" x="235.44" y="151.2" style="stroke: #000000; stroke-width: 0.8"/>
      </g>
     </g>
     <g id="text_13">
      <!-- 0.01 -->
      <g transform="translate(242.44 154.999219) scale(0.1 -0.1)">
       <use xlink:href="#DejaVuSans-30"/>
       <use xlink:href="#DejaVuSans-2e" x="63.623047"/>
       <use xlink:href="#DejaVuSans-30" x="95.410156"/>
       <use xlink:href="#DejaVuSans-31" x="159.033203"/>
      </g>
     </g>
    </g>
    <g id="ytick_7">
     <g id="line2d_12">
      <g>
       <use xlink:href="#m314d7ccb45" x="235.44" y="126.514286" style="stroke: #000000; stroke-width: 0.8"/>
      </g>
     </g>
     <g id="text_14">
      <!-- 0.19 -->
      <g transform="translate(242.44 130.313504) scale(0.1 -0.1)">
       <defs>
        <path id="DejaVuSans-39" d="M 703 97 
L 703 672 
Q 941 559 1184 500 
Q 1428 441 1663 441 
Q 2288 441 2617 861 
Q 2947 1281 2994 2138 
Q 2813 1869 2534 1725 
Q 2256 1581 1919 1581 
Q 1219 1581 811 2004 
Q 403 2428 403 3163 
Q 403 3881 828 4315 
Q 1253 4750 1959 4750 
Q 2769 4750 3195 4129 
Q 3622 3509 3622 2328 
Q 3622 1225 3098 567 
Q 2575 -91 1691 -91 
Q 1453 -91 1209 -44 
Q 966 3 703 97 
z
M 1959 2075 
Q 2384 2075 2632 2365 
Q 2881 2656 2881 3163 
Q 2881 3666 2632 3958 
Q 2384 4250 1959 4250 
Q 1534 4250 1286 3958 
Q 1038 3666 1038 3163 
Q 1038 2656 1286 2365 
Q 1534 2075 1959 2075 
z
" transform="scale(0.015625)"/>
       </defs>
       <use xlink:href="#DejaVuSans-30"/>
       <use xlink:href="#DejaVuSans-2e" x="63.623047"/>
       <use xlink:href="#DejaVuSans-31" x="95.410156"/>
       <use xlink:href="#DejaVuSans-39" x="159.033203"/>
      </g>
     </g>
    </g>
    <g id="ytick_8">
     <g id="line2d_13">
      <g>
       <use xlink:href="#m314d7ccb45" x="235.44" y="101.828571" style="stroke: #000000; stroke-width: 0.8"/>
      </g>
     </g>
     <g id="text_15">
      <!-- 0.37 -->
      <g transform="translate(242.44 105.62779) scale(0.1 -0.1)">
       <defs>
        <path id="DejaVuSans-37" d="M 525 4666 
L 3525 4666 
L 3525 4397 
L 1831 0 
L 1172 0 
L 2766 4134 
L 525 4134 
L 525 4666 
z
" transform="scale(0.015625)"/>
       </defs>
       <use xlink:href="#DejaVuSans-30"/>
       <use xlink:href="#DejaVuSans-2e" x="63.623047"/>
       <use xlink:href="#DejaVuSans-33" x="95.410156"/>
       <use xlink:href="#DejaVuSans-37" x="159.033203"/>
      </g>
     </g>
    </g>
    <g id="ytick_9">
     <g id="line2d_14">
      <g>
       <use xlink:href="#m314d7ccb45" x="235.44" y="77.142857" style="stroke: #000000; stroke-width: 0.8"/>
      </g>
     </g>
     <g id="text_16">
      <!-- 0.55 -->
      <g transform="translate(242.44 80.942076) scale(0.1 -0.1)">
       <use xlink:href="#DejaVuSans-30"/>
       <use xlink:href="#DejaVuSans-2e" x="63.623047"/>
       <use xlink:href="#DejaVuSans-35" x="95.410156"/>
       <use xlink:href="#DejaVuSans-35" x="159.033203"/>
      </g>
     </g>
    </g>
    <g id="ytick_10">
     <g id="line2d_15">
      <g>
       <use xlink:href="#m314d7ccb45" x="235.44" y="52.457143" style="stroke: #000000; stroke-width: 0.8"/>
      </g>
     </g>
     <g id="text_17">
      <!-- 0.73 -->
      <g transform="translate(242.44 56.256362) scale(0.1 -0.1)">
       <use xlink:href="#DejaVuSans-30"/>
       <use xlink:href="#DejaVuSans-2e" x="63.623047"/>
       <use xlink:href="#DejaVuSans-37" x="95.410156"/>
       <use xlink:href="#DejaVuSans-33" x="159.033203"/>
      </g>
     </g>
    </g>
    <g id="ytick_11">
     <g id="line2d_16">
      <g>
       <use xlink:href="#m314d7ccb45" x="235.44" y="27.771429" style="stroke: #000000; stroke-width: 0.8"/>
      </g>
     </g>
     <g id="text_18">
      <!-- 0.91 -->
      <g transform="translate(242.44 31.570647) scale(0.1 -0.1)">
       <use xlink:href="#DejaVuSans-30"/>
       <use xlink:href="#DejaVuSans-2e" x="63.623047"/>
       <use xlink:href="#DejaVuSans-39" x="95.410156"/>
       <use xlink:href="#DejaVuSans-31" x="159.033203"/>
      </g>
     </g>
    </g>
   </g>
   <g id="LineCollection_1"/>
   <g id="patch_9">
    <path d="M 228.96 151.2 
L 232.2 151.2 
L 235.44 151.2 
L 235.44 27.771429 
L 232.2 21.6 
L 228.96 27.771429 
L 228.96 151.2 
z
" style="fill: none; stroke: #000000; stroke-width: 0.8; stroke-linejoin: miter; stroke-linecap: square"/>
   </g>
  </g>
 </g>
 <defs>
  <clipPath id="pec30182aaf">
   <rect x="57.6" y="21.6" width="161.28" height="129.6"/>
  </clipPath>
  <clipPath id="p74ec148a67">
   <rect x="228.96" y="27.771429" width="6.48" height="123.428571"/>
  </clipPath>
 </defs>
</svg>
