<?xml version="1.0" encoding="utf-8" standalone="no"?>
<!DOCTYPE svg PUBLIC "-//W3C//DTD SVG 1.1//EN"
  "http://www.w3.org/Graphics/SVG/1.1/DTD/svg11.dtd">
<svg xmlns:xlink="http://www.w3.org/1999/xlink" width="504pt" height="216pt" viewBox="0 0 504 216" xmlns="http://www.w3.org/2000/svg" version="1.1">
 <metadata>
  <rdf:RDF xmlns:dc="http://purl.org/dc/elements/1.1/" xmlns:cc="http://creativecommons.org/ns#" xmlns:rdf="http://www.w3.org/1999/02/22-rdf-syntax-ns#">
   <cc:Work>
    <dc:type rdf:resource="http://purl.org/dc/dcmitype/StillImage"/>
    <dc:date>2023-07-22T16:10:09.503377</dc:date>
    <dc:format>image/svg+xml</dc:format>
    <dc:creator>
     <cc:Agent>
      <dc:title>Matplotlib v3.7.1, https://matplotlib.org/</dc:title>
     </cc:Agent>
    </dc:creator>
   </cc:Work>
  </rdf:RDF>
 </metadata>
 <defs>
  <style type="text/css">*{stroke-linejoin: round; stroke-linecap: butt}</style>
 </defs>
 <g id="figure_1">
  <g id="patch_1">
   <path d="M 0 216 
L 504 216 
L 504 0 
L 0 0 
z
" style="fill: #ffffff"/>
  </g>
  <g id="axes_1">
   <g id="patch_2">
    <path d="M 63 151.2 
L 240.545455 151.2 
L 240.545455 25.92 
L 63 25.92 
z
" style="fill: #ffffff"/>
   </g>
   <g id="PathCollection_1">
    <path d="M 80.933884 151.2 
L 82.727273 151.2 
L 84.520661 151.2 
L 86.31405 151.2 
L 88.107438 151.2 
L 89.900826 151.2 
L 91.694215 151.2 
L 93.487603 151.2 
L 95.280992 151.2 
L 97.07438 151.2 
L 98.867769 151.2 
L 100.661157 151.2 
L 102.454545 151.2 
L 104.247934 151.2 
L 106.041322 151.2 
L 107.834711 151.2 
L 109.628099 151.2 
L 111.421488 151.2 
L 113.214876 151.2 
L 115.008264 151.2 
L 116.263636 151.2 
L 116.145109 149.9472 
L 115.787926 148.6944 
L 115.187384 147.4416 
L 115.008264 147.174912 
L 114.33437 146.1888 
L 113.217433 144.936 
L 113.214876 144.933648 
L 111.81604 143.6832 
L 111.421488 143.386089 
L 110.106698 142.4304 
L 109.628099 142.128595 
L 108.054915 141.1776 
L 107.834711 141.059386 
L 106.041322 140.136852 
L 105.608385 139.9248 
L 104.247934 139.320502 
L 102.698294 138.672 
L 102.454545 138.577984 
L 100.661157 137.918527 
L 99.208684 137.4192 
L 98.867769 137.309461 
L 97.07438 136.762051 
L 95.280992 136.253808 
L 94.953309 136.1664 
L 93.487603 135.794326 
L 91.694215 135.371422 
L 89.900826 134.981483 
L 89.565587 134.9136 
L 88.107438 134.628565 
L 86.31405 134.306033 
L 84.520661 134.01173 
L 82.727273 133.744817 
L 82.105566 133.6608 
L 80.933884 133.505751 
L 79.140496 133.292397 
L 77.347107 133.103334 
L 75.553719 132.937993 
L 73.760331 132.795847 
L 71.966942 132.676424 
L 70.173554 132.579306 
L 68.380165 132.504146 
L 66.586777 132.450663 
L 64.793388 132.418655 
L 63 132.408 
L 63 132.408 
L 63 132.408 
L 63 133.6608 
L 63 134.9136 
L 63 136.1664 
L 63 137.4192 
L 63 138.672 
L 63 139.9248 
L 63 141.1776 
L 63 142.4304 
L 63 143.6832 
L 63 144.936 
L 63 144.936 
L 64.793388 144.968077 
L 66.586777 145.065731 
L 68.380165 145.232973 
L 70.173554 145.475746 
L 71.966942 145.801093 
L 73.646675 146.1888 
L 73.760331 146.219102 
L 75.553719 146.792966 
L 77.200351 147.4416 
L 77.347107 147.519009 
L 79.140496 148.605698 
L 79.271318 148.6944 
L 80.39502 149.9472 
L 80.754545 151.2 
z
" clip-path="url(#p9f53c91633)" style="fill: #fee0d2"/>
   </g>
   <g id="PathCollection_2">
    <path d="M 116.801653 151.2 
L 118.595041 151.2 
L 120.38843 151.2 
L 122.181818 151.2 
L 123.975207 151.2 
L 125.768595 151.2 
L 127.561983 151.2 
L 129.355372 151.2 
L 131.14876 151.2 
L 132.942149 151.2 
L 134.735537 151.2 
L 136.528926 151.2 
L 138.322314 151.2 
L 140.115702 151.2 
L 141.909091 151.2 
L 143.702479 151.2 
L 145.495868 151.2 
L 147.289256 151.2 
L 149.082645 151.2 
L 150.876033 151.2 
L 151.772727 151.2 
L 151.701673 149.9472 
L 151.488173 148.6944 
L 151.131214 147.4416 
L 150.876033 146.803139 
L 150.629013 146.1888 
L 149.978969 144.936 
L 149.178104 143.6832 
L 149.082645 143.556865 
L 148.221449 142.4304 
L 147.289256 141.382267 
L 147.104656 141.1776 
L 145.820352 139.9248 
L 145.495868 139.642316 
L 144.360817 138.672 
L 143.702479 138.164111 
L 142.716746 137.4192 
L 141.909091 136.86225 
L 140.876357 136.1664 
L 140.115702 135.694201 
L 138.825519 134.9136 
L 138.322314 134.630732 
L 136.547479 133.6608 
L 136.528926 133.651309 
L 134.735537 132.755909 
L 134.016217 132.408 
L 132.942149 131.918178 
L 131.21042 131.1552 
L 131.14876 131.12943 
L 129.355372 130.399505 
L 128.086888 129.9024 
L 127.561983 129.706067 
L 125.768595 129.05621 
L 124.602904 128.6496 
L 123.975207 128.43943 
L 122.181818 127.858958 
L 120.693192 127.3968 
L 120.38843 127.305499 
L 118.595041 126.785696 
L 116.801653 126.288705 
L 116.259541 126.144 
L 115.008264 125.81986 
L 113.214876 125.374569 
L 111.421488 124.949852 
L 111.163954 124.8912 
L 109.628099 124.549945 
L 107.834711 124.169847 
L 106.041322 123.808396 
L 105.157325 123.6384 
L 104.247934 123.46696 
L 102.454545 123.144653 
L 100.661157 122.839379 
L 98.867769 122.550834 
L 97.782328 122.3856 
L 97.07438 122.279404 
L 95.280992 122.024855 
L 93.487603 121.78577 
L 91.694215 121.5619 
L 89.900826 121.352996 
L 88.107438 121.158822 
L 87.848978 121.1328 
L 86.31405 120.979593 
L 84.520661 120.814547 
L 82.727273 120.663418 
L 80.933884 120.526037 
L 79.140496 120.402243 
L 77.347107 120.291891 
L 75.553719 120.194847 
L 73.760331 120.110991 
L 71.966942 120.040219 
L 70.173554 119.982439 
L 68.380165 119.937578 
L 66.586777 119.905576 
L 64.793388 119.886392 
L 63 119.88 
L 63 119.88 
L 63 119.88 
L 63 121.1328 
L 63 122.3856 
L 63 123.6384 
L 63 124.8912 
L 63 126.144 
L 63 127.3968 
L 63 128.6496 
L 63 129.9024 
L 63 131.1552 
L 63 132.408 
L 63 132.408 
L 64.793388 132.418655 
L 66.586777 132.450663 
L 68.380165 132.504146 
L 70.173554 132.579306 
L 71.966942 132.676424 
L 73.760331 132.795847 
L 75.553719 132.937993 
L 77.347107 133.103334 
L 79.140496 133.292397 
L 80.933884 133.505751 
L 82.105566 133.6608 
L 82.727273 133.744817 
L 84.520661 134.01173 
L 86.31405 134.306033 
L 88.107438 134.628565 
L 89.565587 134.9136 
L 89.900826 134.981483 
L 91.694215 135.371422 
L 93.487603 135.794326 
L 94.953309 136.1664 
L 95.280992 136.253808 
L 97.07438 136.762051 
L 98.867769 137.309461 
L 99.208684 137.4192 
L 100.661157 137.918527 
L 102.454545 138.577984 
L 102.698294 138.672 
L 104.247934 139.320502 
L 105.608385 139.9248 
L 106.041322 140.136852 
L 107.834711 141.059386 
L 108.054915 141.1776 
L 109.628099 142.128595 
L 110.106698 142.4304 
L 111.421488 143.386089 
L 111.81604 143.6832 
L 113.214876 144.933648 
L 113.217433 144.936 
L 114.33437 146.1888 
L 115.008264 147.174912 
L 115.187384 147.4416 
L 115.787926 148.6944 
L 116.145109 149.9472 
L 116.263636 151.2 
z
" clip-path="url(#p9f53c91633)" style="fill: #fc9272"/>
   </g>
   <g id="PathCollection_3">
    <path d="M 152.669421 151.2 
L 154.46281 151.2 
L 156.256198 151.2 
L 158.049587 151.2 
L 159.842975 151.2 
L 161.636364 151.2 
L 163.429752 151.2 
L 165.22314 151.2 
L 167.016529 151.2 
L 168.809917 151.2 
L 170.603306 151.2 
L 172.396694 151.2 
L 174.190083 151.2 
L 175.983471 151.2 
L 177.77686 151.2 
L 179.570248 151.2 
L 181.363636 151.2 
L 183.157025 151.2 
L 184.950413 151.2 
L 186.743802 151.2 
L 187.281818 151.2 
L 187.231078 149.9472 
L 187.078737 148.6944 
L 186.824427 147.4416 
L 186.743802 147.157957 
L 186.467492 146.1888 
L 186.007034 144.936 
L 185.441942 143.6832 
L 184.950413 142.764293 
L 184.770767 142.4304 
L 183.991551 141.1776 
L 183.157025 140.000914 
L 183.102617 139.9248 
L 182.100845 138.672 
L 181.363636 137.842224 
L 180.984038 137.4192 
L 179.74865 136.1664 
L 179.570248 136.000107 
L 178.390456 134.9136 
L 177.77686 134.391844 
L 176.905603 133.6608 
L 175.983471 132.941721 
L 175.288979 132.408 
L 174.190083 131.618588 
L 173.534707 131.1552 
L 172.396694 130.399136 
L 171.636074 129.9024 
L 170.603306 129.265661 
L 169.58546 128.6496 
L 168.809917 128.204547 
L 167.374265 127.3968 
L 167.016529 127.205216 
L 165.22314 126.263333 
L 164.991514 126.144 
L 163.429752 125.375109 
L 162.424022 124.8912 
L 161.636364 124.527824 
L 159.842975 123.719351 
L 159.659807 123.6384 
L 158.049587 122.953701 
L 156.67809 122.3856 
L 156.256198 122.216972 
L 154.46281 121.515473 
L 153.45905 121.1328 
L 152.669421 120.841422 
L 150.876033 120.195609 
L 149.976796 119.88 
L 149.082645 119.57536 
L 147.289256 118.979816 
L 146.197924 118.6272 
L 145.495868 118.406394 
L 143.702479 117.856433 
L 142.081457 117.3744 
L 141.909091 117.324378 
L 140.115702 116.815956 
L 138.322314 116.323626 
L 137.56572 116.1216 
L 136.528926 115.85064 
L 134.735537 115.395404 
L 132.942149 114.955116 
L 132.580758 114.8688 
L 131.14876 114.533134 
L 129.355372 114.126183 
L 127.561983 113.733149 
L 127.010984 113.616 
L 125.768595 113.356096 
L 123.975207 112.993257 
L 122.181818 112.643418 
L 120.692379 112.3632 
L 120.38843 112.3068 
L 118.595041 111.984555 
L 116.801653 111.674506 
L 115.008264 111.376498 
L 113.341087 111.1104 
L 113.214876 111.090479 
L 111.421488 110.8174 
L 109.628099 110.555685 
L 107.834711 110.305196 
L 106.041322 110.065799 
L 104.407572 109.8576 
L 104.247934 109.837426 
L 102.454545 109.620476 
L 100.661157 109.414084 
L 98.867769 109.218136 
L 97.07438 109.032522 
L 95.280992 108.857133 
L 93.487603 108.691866 
L 92.483391 108.6048 
L 91.694215 108.536727 
L 89.900826 108.391595 
L 88.107438 108.256234 
L 86.31405 108.130567 
L 84.520661 108.014518 
L 82.727273 107.908018 
L 80.933884 107.811003 
L 79.140496 107.723412 
L 77.347107 107.645192 
L 75.553719 107.576292 
L 73.760331 107.51667 
L 71.966942 107.466285 
L 70.173554 107.425106 
L 68.380165 107.393107 
L 66.586777 107.370265 
L 64.793388 107.356565 
L 63 107.352 
L 63 107.352 
L 63 107.352 
L 63 108.6048 
L 63 109.8576 
L 63 111.1104 
L 63 112.3632 
L 63 113.616 
L 63 114.8688 
L 63 116.1216 
L 63 117.3744 
L 63 118.6272 
L 63 119.88 
L 63 119.88 
L 64.793388 119.886392 
L 66.586777 119.905576 
L 68.380165 119.937578 
L 70.173554 119.982439 
L 71.966942 120.040219 
L 73.760331 120.110991 
L 75.553719 120.194847 
L 77.347107 120.291891 
L 79.140496 120.402243 
L 80.933884 120.526037 
L 82.727273 120.663418 
L 84.520661 120.814547 
L 86.31405 120.979593 
L 87.848978 121.1328 
L 88.107438 121.158822 
L 89.900826 121.352996 
L 91.694215 121.5619 
L 93.487603 121.78577 
L 95.280992 122.024855 
L 97.07438 122.279404 
L 97.782328 122.3856 
L 98.867769 122.550834 
L 100.661157 122.839379 
L 102.454545 123.144653 
L 104.247934 123.46696 
L 105.157325 123.6384 
L 106.041322 123.808396 
L 107.834711 124.169847 
L 109.628099 124.549945 
L 111.163954 124.8912 
L 111.421488 124.949852 
L 113.214876 125.374569 
L 115.008264 125.81986 
L 116.259541 126.144 
L 116.801653 126.288705 
L 118.595041 126.785696 
L 120.38843 127.305499 
L 120.693192 127.3968 
L 122.181818 127.858958 
L 123.975207 128.43943 
L 124.602904 128.6496 
L 125.768595 129.05621 
L 127.561983 129.706067 
L 128.086888 129.9024 
L 129.355372 130.399505 
L 131.14876 131.12943 
L 131.21042 131.1552 
L 132.942149 131.918178 
L 134.016217 132.408 
L 134.735537 132.755909 
L 136.528926 133.651309 
L 136.547479 133.6608 
L 138.322314 134.630732 
L 138.825519 134.9136 
L 140.115702 135.694201 
L 140.876357 136.1664 
L 141.909091 136.86225 
L 142.716746 137.4192 
L 143.702479 138.164111 
L 144.360817 138.672 
L 145.495868 139.642316 
L 145.820352 139.9248 
L 147.104656 141.1776 
L 147.289256 141.382267 
L 148.221449 142.4304 
L 149.082645 143.556865 
L 149.178104 143.6832 
L 149.978969 144.936 
L 150.629013 146.1888 
L 150.876033 146.803139 
L 151.131214 147.4416 
L 151.488173 148.6944 
L 151.701673 149.9472 
L 151.772727 151.2 
z
" clip-path="url(#p9f53c91633)" style="fill: #ee3a2c"/>
   </g>
   <g id="PathCollection_4">
    <path d="M 188.53719 151.2 
L 190.330579 151.2 
L 192.123967 151.2 
L 193.917355 151.2 
L 195.710744 151.2 
L 197.504132 151.2 
L 199.297521 151.2 
L 201.090909 151.2 
L 202.884298 151.2 
L 204.677686 151.2 
L 206.471074 151.2 
L 208.264463 151.2 
L 210.057851 151.2 
L 211.85124 151.2 
L 213.644628 151.2 
L 215.438017 151.2 
L 217.231405 151.2 
L 219.024793 151.2 
L 220.818182 151.2 
L 222.61157 151.2 
L 222.790909 151.2 
L 222.751449 149.9472 
L 222.633013 148.6944 
L 222.61157 148.558295 
L 222.435419 147.4416 
L 222.158369 146.1888 
L 221.801451 144.936 
L 221.364138 143.6832 
L 220.845794 142.4304 
L 220.818182 142.372556 
L 220.245475 141.1776 
L 219.562391 139.9248 
L 219.024793 139.045268 
L 218.795447 138.672 
L 217.943232 137.4192 
L 217.231405 136.467629 
L 217.004609 136.1664 
L 215.977662 134.9136 
L 215.438017 134.30584 
L 214.860828 133.6608 
L 213.652309 132.408 
L 213.644628 132.40055 
L 212.349124 131.1552 
L 211.85124 130.706767 
L 210.949423 129.9024 
L 210.057851 129.154109 
L 209.450392 128.6496 
L 208.264463 127.719185 
L 207.848884 127.3968 
L 206.471074 126.38355 
L 206.141387 126.144 
L 204.677686 125.132499 
L 204.324003 124.8912 
L 202.884298 123.954199 
L 202.392419 123.6384 
L 201.090909 122.839051 
L 200.341882 122.3856 
L 199.297521 121.779217 
L 198.167169 121.1328 
L 197.504132 120.768254 
L 195.862565 119.88 
L 195.710744 119.800839 
L 193.917355 118.878942 
L 193.419571 118.6272 
L 192.123967 117.994355 
L 190.831819 117.3744 
L 190.330579 117.141656 
L 188.53719 116.322542 
L 188.089886 116.1216 
L 186.743802 115.535138 
L 185.183685 114.8688 
L 184.950413 114.771999 
L 183.157025 114.039396 
L 182.099662 113.616 
L 181.363636 113.329102 
L 179.570248 112.642838 
L 178.825547 112.3632 
L 177.77686 111.979163 
L 175.983471 111.33558 
L 175.344071 111.1104 
L 174.190083 110.713357 
L 172.396694 110.109188 
L 171.634981 109.8576 
L 170.603306 109.524135 
L 168.809917 108.956461 
L 167.674527 108.6048 
L 167.016529 108.405039 
L 165.22314 107.871257 
L 163.434849 107.352 
L 163.429752 107.350547 
L 161.636364 106.848336 
L 159.842975 106.358555 
L 158.871882 106.0992 
L 158.049587 105.883234 
L 156.256198 105.422377 
L 154.46281 104.973258 
L 153.945187 104.8464 
L 152.669421 104.53842 
L 150.876033 104.115903 
L 149.082645 103.704485 
L 148.588223 103.5936 
L 147.289256 103.306185 
L 145.495868 102.919344 
L 143.702479 102.543014 
L 142.713965 102.3408 
L 141.909091 102.178116 
L 140.115702 101.824607 
L 138.322314 101.481077 
L 136.528926 101.147426 
L 136.201266 101.088 
L 134.735537 100.824893 
L 132.942149 100.512172 
L 131.14876 100.208857 
L 129.355372 99.914853 
L 128.855469 99.8352 
L 127.561983 99.630888 
L 125.768595 99.356242 
L 123.975207 99.090494 
L 122.181818 98.83356 
L 120.38843 98.585355 
L 120.366394 98.5824 
L 118.595041 98.346482 
L 116.801653 98.11608 
L 115.008264 97.894062 
L 113.214876 97.680356 
L 111.421488 97.474887 
L 110.102081 97.3296 
L 109.628099 97.277688 
L 107.834711 97.088822 
L 106.041322 96.907919 
L 104.247934 96.734915 
L 102.454545 96.569752 
L 100.661157 96.412369 
L 98.867769 96.262711 
L 97.07438 96.120723 
L 96.48911 96.0768 
L 95.280992 95.986435 
L 93.487603 95.859726 
L 91.694215 95.740506 
L 89.900826 95.628732 
L 88.107438 95.524364 
L 86.31405 95.427364 
L 84.520661 95.337696 
L 82.727273 95.255328 
L 80.933884 95.180227 
L 79.140496 95.112366 
L 77.347107 95.051719 
L 75.553719 94.998262 
L 73.760331 94.951975 
L 71.966942 94.912839 
L 70.173554 94.88084 
L 68.380165 94.855965 
L 66.586777 94.838205 
L 64.793388 94.827551 
L 63 94.824 
L 63 94.824 
L 63 94.824 
L 63 96.0768 
L 63 97.3296 
L 63 98.5824 
L 63 99.8352 
L 63 101.088 
L 63 102.3408 
L 63 103.5936 
L 63 104.8464 
L 63 106.0992 
L 63 107.352 
L 63 107.352 
L 64.793388 107.356565 
L 66.586777 107.370265 
L 68.380165 107.393107 
L 70.173554 107.425106 
L 71.966942 107.466285 
L 73.760331 107.51667 
L 75.553719 107.576292 
L 77.347107 107.645192 
L 79.140496 107.723412 
L 80.933884 107.811003 
L 82.727273 107.908018 
L 84.520661 108.014518 
L 86.31405 108.130567 
L 88.107438 108.256234 
L 89.900826 108.391595 
L 91.694215 108.536727 
L 92.483391 108.6048 
L 93.487603 108.691866 
L 95.280992 108.857133 
L 97.07438 109.032522 
L 98.867769 109.218136 
L 100.661157 109.414084 
L 102.454545 109.620476 
L 104.247934 109.837426 
L 104.407572 109.8576 
L 106.041322 110.065799 
L 107.834711 110.305196 
L 109.628099 110.555685 
L 111.421488 110.8174 
L 113.214876 111.090479 
L 113.341087 111.1104 
L 115.008264 111.376498 
L 116.801653 111.674506 
L 118.595041 111.984555 
L 120.38843 112.3068 
L 120.692379 112.3632 
L 122.181818 112.643418 
L 123.975207 112.993257 
L 125.768595 113.356096 
L 127.010984 113.616 
L 127.561983 113.733149 
L 129.355372 114.126183 
L 131.14876 114.533134 
L 132.580758 114.8688 
L 132.942149 114.955116 
L 134.735537 115.395404 
L 136.528926 115.85064 
L 137.56572 116.1216 
L 138.322314 116.323626 
L 140.115702 116.815956 
L 141.909091 117.324378 
L 142.081457 117.3744 
L 143.702479 117.856433 
L 145.495868 118.406394 
L 146.197924 118.6272 
L 147.289256 118.979816 
L 149.082645 119.57536 
L 149.976796 119.88 
L 150.876033 120.195609 
L 152.669421 120.841422 
L 153.45905 121.1328 
L 154.46281 121.515473 
L 156.256198 122.216972 
L 156.67809 122.3856 
L 158.049587 122.953701 
L 159.659807 123.6384 
L 159.842975 123.719351 
L 161.636364 124.527824 
L 162.424022 124.8912 
L 163.429752 125.375109 
L 164.991514 126.144 
L 165.22314 126.263333 
L 167.016529 127.205216 
L 167.374265 127.3968 
L 168.809917 128.204547 
L 169.58546 128.6496 
L 170.603306 129.265661 
L 171.636074 129.9024 
L 172.396694 130.399136 
L 173.534707 131.1552 
L 174.190083 131.618588 
L 175.288979 132.408 
L 175.983471 132.941721 
L 176.905603 133.6608 
L 177.77686 134.391844 
L 178.390456 134.9136 
L 179.570248 136.000107 
L 179.74865 136.1664 
L 180.984038 137.4192 
L 181.363636 137.842224 
L 182.100845 138.672 
L 183.102617 139.9248 
L 183.157025 140.000914 
L 183.991551 141.1776 
L 184.770767 142.4304 
L 184.950413 142.764293 
L 185.441942 143.6832 
L 186.007034 144.936 
L 186.467492 146.1888 
L 186.743802 147.157957 
L 186.824427 147.4416 
L 187.078737 148.6944 
L 187.231078 149.9472 
L 187.281818 151.2 
z
" clip-path="url(#p9f53c91633)" style="fill: #a30f15"/>
   </g>
   <g id="PathCollection_5">
    <path d="M 224.404959 151.2 
L 226.198347 151.2 
L 227.991736 151.2 
L 229.785124 151.2 
L 231.578512 151.2 
L 233.371901 151.2 
L 235.165289 151.2 
L 236.958678 151.2 
L 238.752066 151.2 
L 240.545455 151.2 
L 240.545455 149.9472 
L 240.545455 148.6944 
L 240.545455 147.4416 
L 240.545455 146.1888 
L 240.545455 144.936 
L 240.545455 143.6832 
L 240.545455 142.4304 
L 240.545455 141.1776 
L 240.545455 139.9248 
L 240.545455 138.672 
L 240.545455 137.4192 
L 240.545455 136.1664 
L 240.545455 134.9136 
L 240.545455 133.6608 
L 240.545455 132.408 
L 240.545455 131.1552 
L 240.545455 129.9024 
L 240.545455 128.6496 
L 240.545455 127.3968 
L 240.545455 126.144 
L 240.545455 124.8912 
L 240.545455 123.6384 
L 240.545455 122.3856 
L 240.545455 121.1328 
L 240.545455 119.88 
L 240.545455 118.6272 
L 240.545455 117.3744 
L 240.545455 116.1216 
L 240.545455 114.8688 
L 240.545455 113.616 
L 240.545455 112.3632 
L 240.545455 111.1104 
L 240.545455 109.8576 
L 240.545455 108.6048 
L 240.545455 107.352 
L 240.545455 106.0992 
L 240.545455 104.8464 
L 240.545455 103.5936 
L 240.545455 102.3408 
L 240.545455 101.088 
L 240.545455 99.8352 
L 240.545455 98.5824 
L 240.545455 97.3296 
L 240.545455 96.0768 
L 240.545455 94.824 
L 240.545455 93.5712 
L 240.545455 92.3184 
L 240.545455 91.0656 
L 240.545455 89.8128 
L 240.545455 88.56 
L 240.545455 87.3072 
L 240.545455 86.0544 
L 240.545455 84.8016 
L 240.545455 83.5488 
L 240.545455 82.296 
L 240.545455 81.0432 
L 240.545455 79.7904 
L 240.545455 78.5376 
L 240.545455 77.2848 
L 240.545455 76.032 
L 240.545455 74.7792 
L 240.545455 73.5264 
L 240.545455 72.2736 
L 240.545455 71.0208 
L 240.545455 69.768 
L 240.545455 68.5152 
L 240.545455 67.2624 
L 240.545455 66.0096 
L 240.545455 64.7568 
L 240.545455 63.504 
L 240.545455 62.2512 
L 240.545455 60.9984 
L 240.545455 59.7456 
L 240.545455 58.4928 
L 240.545455 57.24 
L 240.545455 55.9872 
L 240.545455 54.7344 
L 240.545455 53.4816 
L 240.545455 52.2288 
L 240.545455 50.976 
L 240.545455 49.7232 
L 240.545455 48.4704 
L 240.545455 47.2176 
L 240.545455 45.9648 
L 240.545455 44.712 
L 240.545455 43.4592 
L 240.545455 42.2064 
L 240.545455 40.9536 
L 240.545455 39.7008 
L 240.545455 38.448 
L 240.545455 37.1952 
L 240.545455 35.9424 
L 240.545455 34.6896 
L 240.545455 33.4368 
L 240.545455 32.184 
L 240.545455 30.9312 
L 240.545455 29.6784 
L 240.545455 28.4256 
L 240.545455 27.1728 
L 240.545455 25.92 
L 238.752066 25.92 
L 236.958678 25.92 
L 235.165289 25.92 
L 233.371901 25.92 
L 231.578512 25.92 
L 229.785124 25.92 
L 227.991736 25.92 
L 226.198347 25.92 
L 224.404959 25.92 
L 222.61157 25.92 
L 220.818182 25.92 
L 219.024793 25.92 
L 217.231405 25.92 
L 215.438017 25.92 
L 213.644628 25.92 
L 211.85124 25.92 
L 210.057851 25.92 
L 208.264463 25.92 
L 206.471074 25.92 
L 204.677686 25.92 
L 202.884298 25.92 
L 201.090909 25.92 
L 199.297521 25.92 
L 197.504132 25.92 
L 195.710744 25.92 
L 193.917355 25.92 
L 192.123967 25.92 
L 190.330579 25.92 
L 188.53719 25.92 
L 186.743802 25.92 
L 184.950413 25.92 
L 183.157025 25.92 
L 181.363636 25.92 
L 179.570248 25.92 
L 177.77686 25.92 
L 175.983471 25.92 
L 174.190083 25.92 
L 172.396694 25.92 
L 170.603306 25.92 
L 168.809917 25.92 
L 167.016529 25.92 
L 165.22314 25.92 
L 163.429752 25.92 
L 161.636364 25.92 
L 159.842975 25.92 
L 158.049587 25.92 
L 156.256198 25.92 
L 154.46281 25.92 
L 152.669421 25.92 
L 150.876033 25.92 
L 149.082645 25.92 
L 147.289256 25.92 
L 145.495868 25.92 
L 143.702479 25.92 
L 141.909091 25.92 
L 140.115702 25.92 
L 138.322314 25.92 
L 136.528926 25.92 
L 134.735537 25.92 
L 132.942149 25.92 
L 131.14876 25.92 
L 129.355372 25.92 
L 127.561983 25.92 
L 125.768595 25.92 
L 123.975207 25.92 
L 122.181818 25.92 
L 120.38843 25.92 
L 118.595041 25.92 
L 116.801653 25.92 
L 115.008264 25.92 
L 113.214876 25.92 
L 111.421488 25.92 
L 109.628099 25.92 
L 107.834711 25.92 
L 106.041322 25.92 
L 104.247934 25.92 
L 102.454545 25.92 
L 100.661157 25.92 
L 98.867769 25.92 
L 97.07438 25.92 
L 95.280992 25.92 
L 93.487603 25.92 
L 91.694215 25.92 
L 89.900826 25.92 
L 88.107438 25.92 
L 86.31405 25.92 
L 84.520661 25.92 
L 82.727273 25.92 
L 80.933884 25.92 
L 79.140496 25.92 
L 77.347107 25.92 
L 75.553719 25.92 
L 73.760331 25.92 
L 71.966942 25.92 
L 70.173554 25.92 
L 68.380165 25.92 
L 66.586777 25.92 
L 64.793388 25.92 
L 63 25.92 
L 63 27.1728 
L 63 28.4256 
L 63 29.6784 
L 63 30.9312 
L 63 32.184 
L 63 33.4368 
L 63 34.6896 
L 63 35.9424 
L 63 37.1952 
L 63 38.448 
L 63 39.7008 
L 63 40.9536 
L 63 42.2064 
L 63 43.4592 
L 63 44.712 
L 63 45.9648 
L 63 47.2176 
L 63 48.4704 
L 63 49.7232 
L 63 50.976 
L 63 52.2288 
L 63 53.4816 
L 63 54.7344 
L 63 55.9872 
L 63 57.24 
L 63 58.4928 
L 63 59.7456 
L 63 60.9984 
L 63 62.2512 
L 63 63.504 
L 63 64.7568 
L 63 66.0096 
L 63 67.2624 
L 63 68.5152 
L 63 69.768 
L 63 71.0208 
L 63 72.2736 
L 63 73.5264 
L 63 74.7792 
L 63 76.032 
L 63 77.2848 
L 63 78.5376 
L 63 79.7904 
L 63 81.0432 
L 63 82.296 
L 63 83.5488 
L 63 84.8016 
L 63 86.0544 
L 63 87.3072 
L 63 88.56 
L 63 89.8128 
L 63 91.0656 
L 63 92.3184 
L 63 93.5712 
L 63 94.824 
L 63 94.824 
L 64.793388 94.827551 
L 66.586777 94.838205 
L 68.380165 94.855965 
L 70.173554 94.88084 
L 71.966942 94.912839 
L 73.760331 94.951975 
L 75.553719 94.998262 
L 77.347107 95.051719 
L 79.140496 95.112366 
L 80.933884 95.180227 
L 82.727273 95.255328 
L 84.520661 95.337696 
L 86.31405 95.427364 
L 88.107438 95.524364 
L 89.900826 95.628732 
L 91.694215 95.740506 
L 93.487603 95.859726 
L 95.280992 95.986435 
L 96.48911 96.0768 
L 97.07438 96.120723 
L 98.867769 96.262711 
L 100.661157 96.412369 
L 102.454545 96.569752 
L 104.247934 96.734915 
L 106.041322 96.907919 
L 107.834711 97.088822 
L 109.628099 97.277688 
L 110.102081 97.3296 
L 111.421488 97.474887 
L 113.214876 97.680356 
L 115.008264 97.894062 
L 116.801653 98.11608 
L 118.595041 98.346482 
L 120.366394 98.5824 
L 120.38843 98.585355 
L 122.181818 98.83356 
L 123.975207 99.090494 
L 125.768595 99.356242 
L 127.561983 99.630888 
L 128.855469 99.8352 
L 129.355372 99.914853 
L 131.14876 100.208857 
L 132.942149 100.512172 
L 134.735537 100.824893 
L 136.201266 101.088 
L 136.528926 101.147426 
L 138.322314 101.481077 
L 140.115702 101.824607 
L 141.909091 102.178116 
L 142.713965 102.3408 
L 143.702479 102.543014 
L 145.495868 102.919344 
L 147.289256 103.306185 
L 148.588223 103.5936 
L 149.082645 103.704485 
L 150.876033 104.115903 
L 152.669421 104.53842 
L 153.945187 104.8464 
L 154.46281 104.973258 
L 156.256198 105.422377 
L 158.049587 105.883234 
L 158.871882 106.0992 
L 159.842975 106.358555 
L 161.636364 106.848336 
L 163.429752 107.350547 
L 163.434849 107.352 
L 165.22314 107.871257 
L 167.016529 108.405039 
L 167.674527 108.6048 
L 168.809917 108.956461 
L 170.603306 109.524135 
L 171.634981 109.8576 
L 172.396694 110.109188 
L 174.190083 110.713357 
L 175.344071 111.1104 
L 175.983471 111.33558 
L 177.77686 111.979163 
L 178.825547 112.3632 
L 179.570248 112.642838 
L 181.363636 113.329102 
L 182.099662 113.616 
L 183.157025 114.039396 
L 184.950413 114.771999 
L 185.183685 114.8688 
L 186.743802 115.535138 
L 188.089886 116.1216 
L 188.53719 116.322542 
L 190.330579 117.141656 
L 190.831819 117.3744 
L 192.123967 117.994355 
L 193.419571 118.6272 
L 193.917355 118.878942 
L 195.710744 119.800839 
L 195.862565 119.88 
L 197.504132 120.768254 
L 198.167169 121.1328 
L 199.297521 121.779217 
L 200.341882 122.3856 
L 201.090909 122.839051 
L 202.392419 123.6384 
L 202.884298 123.954199 
L 204.324003 124.8912 
L 204.677686 125.132499 
L 206.141387 126.144 
L 206.471074 126.38355 
L 207.848884 127.3968 
L 208.264463 127.719185 
L 209.450392 128.6496 
L 210.057851 129.154109 
L 210.949423 129.9024 
L 211.85124 130.706767 
L 212.349124 131.1552 
L 213.644628 132.40055 
L 213.652309 132.408 
L 214.860828 133.6608 
L 215.438017 134.30584 
L 215.977662 134.9136 
L 217.004609 136.1664 
L 217.231405 136.467629 
L 217.943232 137.4192 
L 218.795447 138.672 
L 219.024793 139.045268 
L 219.562391 139.9248 
L 220.245475 141.1776 
L 220.818182 142.372556 
L 220.845794 142.4304 
L 221.364138 143.6832 
L 221.801451 144.936 
L 222.158369 146.1888 
L 222.435419 147.4416 
L 222.61157 148.558295 
L 222.633013 148.6944 
L 222.751449 149.9472 
L 222.790909 151.2 
z
" clip-path="url(#p9f53c91633)" style="fill: #67000d"/>
   </g>
   <g id="matplotlib.axis_1">
    <g id="xtick_1">
     <g id="line2d_1">
      <defs>
       <path id="mda602a1a38" d="M 0 0 
L 0 3.5 
" style="stroke: #000000; stroke-width: 0.8"/>
      </defs>
      <g>
       <use xlink:href="#mda602a1a38" x="63" y="151.2" style="stroke: #000000; stroke-width: 0.8"/>
      </g>
     </g>
     <g id="text_1">
      <!-- 0.0 -->
      <g transform="translate(55.048437 165.798438) scale(0.1 -0.1)">
       <defs>
        <path id="DejaVuSans-30" d="M 2034 4250 
Q 1547 4250 1301 3770 
Q 1056 3291 1056 2328 
Q 1056 1369 1301 889 
Q 1547 409 2034 409 
Q 2525 409 2770 889 
Q 3016 1369 3016 2328 
Q 3016 3291 2770 3770 
Q 2525 4250 2034 4250 
z
M 2034 4750 
Q 2819 4750 3233 4129 
Q 3647 3509 3647 2328 
Q 3647 1150 3233 529 
Q 2819 -91 2034 -91 
Q 1250 -91 836 529 
Q 422 1150 422 2328 
Q 422 3509 836 4129 
Q 1250 4750 2034 4750 
z
" transform="scale(0.015625)"/>
        <path id="DejaVuSans-2e" d="M 684 794 
L 1344 794 
L 1344 0 
L 684 0 
L 684 794 
z
" transform="scale(0.015625)"/>
       </defs>
       <use xlink:href="#DejaVuSans-30"/>
       <use xlink:href="#DejaVuSans-2e" x="63.623047"/>
       <use xlink:href="#DejaVuSans-30" x="95.410156"/>
      </g>
     </g>
    </g>
    <g id="xtick_2">
     <g id="line2d_2">
      <g>
       <use xlink:href="#mda602a1a38" x="98.509091" y="151.2" style="stroke: #000000; stroke-width: 0.8"/>
      </g>
     </g>
     <g id="text_2">
      <!-- 0.2 -->
      <g transform="translate(90.557528 165.798438) scale(0.1 -0.1)">
       <defs>
        <path id="DejaVuSans-32" d="M 1228 531 
L 3431 531 
L 3431 0 
L 469 0 
L 469 531 
Q 828 903 1448 1529 
Q 2069 2156 2228 2338 
Q 2531 2678 2651 2914 
Q 2772 3150 2772 3378 
Q 2772 3750 2511 3984 
Q 2250 4219 1831 4219 
Q 1534 4219 1204 4116 
Q 875 4013 500 3803 
L 500 4441 
Q 881 4594 1212 4672 
Q 1544 4750 1819 4750 
Q 2544 4750 2975 4387 
Q 3406 4025 3406 3419 
Q 3406 3131 3298 2873 
Q 3191 2616 2906 2266 
Q 2828 2175 2409 1742 
Q 1991 1309 1228 531 
z
" transform="scale(0.015625)"/>
       </defs>
       <use xlink:href="#DejaVuSans-30"/>
       <use xlink:href="#DejaVuSans-2e" x="63.623047"/>
       <use xlink:href="#DejaVuSans-32" x="95.410156"/>
      </g>
     </g>
    </g>
    <g id="xtick_3">
     <g id="line2d_3">
      <g>
       <use xlink:href="#mda602a1a38" x="134.018182" y="151.2" style="stroke: #000000; stroke-width: 0.8"/>
      </g>
     </g>
     <g id="text_3">
      <!-- 0.4 -->
      <g transform="translate(126.066619 165.798438) scale(0.1 -0.1)">
       <defs>
        <path id="DejaVuSans-34" d="M 2419 4116 
L 825 1625 
L 2419 1625 
L 2419 4116 
z
M 2253 4666 
L 3047 4666 
L 3047 1625 
L 3713 1625 
L 3713 1100 
L 3047 1100 
L 3047 0 
L 2419 0 
L 2419 1100 
L 313 1100 
L 313 1709 
L 2253 4666 
z
" transform="scale(0.015625)"/>
       </defs>
       <use xlink:href="#DejaVuSans-30"/>
       <use xlink:href="#DejaVuSans-2e" x="63.623047"/>
       <use xlink:href="#DejaVuSans-34" x="95.410156"/>
      </g>
     </g>
    </g>
    <g id="xtick_4">
     <g id="line2d_4">
      <g>
       <use xlink:href="#mda602a1a38" x="169.527273" y="151.2" style="stroke: #000000; stroke-width: 0.8"/>
      </g>
     </g>
     <g id="text_4">
      <!-- 0.6 -->
      <g transform="translate(161.57571 165.798438) scale(0.1 -0.1)">
       <defs>
        <path id="DejaVuSans-36" d="M 2113 2584 
Q 1688 2584 1439 2293 
Q 1191 2003 1191 1497 
Q 1191 994 1439 701 
Q 1688 409 2113 409 
Q 2538 409 2786 701 
Q 3034 994 3034 1497 
Q 3034 2003 2786 2293 
Q 2538 2584 2113 2584 
z
M 3366 4563 
L 3366 3988 
Q 3128 4100 2886 4159 
Q 2644 4219 2406 4219 
Q 1781 4219 1451 3797 
Q 1122 3375 1075 2522 
Q 1259 2794 1537 2939 
Q 1816 3084 2150 3084 
Q 2853 3084 3261 2657 
Q 3669 2231 3669 1497 
Q 3669 778 3244 343 
Q 2819 -91 2113 -91 
Q 1303 -91 875 529 
Q 447 1150 447 2328 
Q 447 3434 972 4092 
Q 1497 4750 2381 4750 
Q 2619 4750 2861 4703 
Q 3103 4656 3366 4563 
z
" transform="scale(0.015625)"/>
       </defs>
       <use xlink:href="#DejaVuSans-30"/>
       <use xlink:href="#DejaVuSans-2e" x="63.623047"/>
       <use xlink:href="#DejaVuSans-36" x="95.410156"/>
      </g>
     </g>
    </g>
    <g id="xtick_5">
     <g id="line2d_5">
      <g>
       <use xlink:href="#mda602a1a38" x="205.036364" y="151.2" style="stroke: #000000; stroke-width: 0.8"/>
      </g>
     </g>
     <g id="text_5">
      <!-- 0.8 -->
      <g transform="translate(197.084801 165.798438) scale(0.1 -0.1)">
       <defs>
        <path id="DejaVuSans-38" d="M 2034 2216 
Q 1584 2216 1326 1975 
Q 1069 1734 1069 1313 
Q 1069 891 1326 650 
Q 1584 409 2034 409 
Q 2484 409 2743 651 
Q 3003 894 3003 1313 
Q 3003 1734 2745 1975 
Q 2488 2216 2034 2216 
z
M 1403 2484 
Q 997 2584 770 2862 
Q 544 3141 544 3541 
Q 544 4100 942 4425 
Q 1341 4750 2034 4750 
Q 2731 4750 3128 4425 
Q 3525 4100 3525 3541 
Q 3525 3141 3298 2862 
Q 3072 2584 2669 2484 
Q 3125 2378 3379 2068 
Q 3634 1759 3634 1313 
Q 3634 634 3220 271 
Q 2806 -91 2034 -91 
Q 1263 -91 848 271 
Q 434 634 434 1313 
Q 434 1759 690 2068 
Q 947 2378 1403 2484 
z
M 1172 3481 
Q 1172 3119 1398 2916 
Q 1625 2713 2034 2713 
Q 2441 2713 2670 2916 
Q 2900 3119 2900 3481 
Q 2900 3844 2670 4047 
Q 2441 4250 2034 4250 
Q 1625 4250 1398 4047 
Q 1172 3844 1172 3481 
z
" transform="scale(0.015625)"/>
       </defs>
       <use xlink:href="#DejaVuSans-30"/>
       <use xlink:href="#DejaVuSans-2e" x="63.623047"/>
       <use xlink:href="#DejaVuSans-38" x="95.410156"/>
      </g>
     </g>
    </g>
    <g id="xtick_6">
     <g id="line2d_6">
      <g>
       <use xlink:href="#mda602a1a38" x="240.545455" y="151.2" style="stroke: #000000; stroke-width: 0.8"/>
      </g>
     </g>
     <g id="text_6">
      <!-- 1.0 -->
      <g transform="translate(232.593892 165.798438) scale(0.1 -0.1)">
       <defs>
        <path id="DejaVuSans-31" d="M 794 531 
L 1825 531 
L 1825 4091 
L 703 3866 
L 703 4441 
L 1819 4666 
L 2450 4666 
L 2450 531 
L 3481 531 
L 3481 0 
L 794 0 
L 794 531 
z
" transform="scale(0.015625)"/>
       </defs>
       <use xlink:href="#DejaVuSans-31"/>
       <use xlink:href="#DejaVuSans-2e" x="63.623047"/>
       <use xlink:href="#DejaVuSans-30" x="95.410156"/>
      </g>
     </g>
    </g>
   </g>
   <g id="matplotlib.axis_2">
    <g id="ytick_1">
     <g id="line2d_7">
      <defs>
       <path id="m9cbe8abdd0" d="M 0 0 
L -3.5 0 
" style="stroke: #000000; stroke-width: 0.8"/>
      </defs>
      <g>
       <use xlink:href="#m9cbe8abdd0" x="63" y="151.2" style="stroke: #000000; stroke-width: 0.8"/>
      </g>
     </g>
     <g id="text_7">
      <!-- 0.0 -->
      <g transform="translate(40.096875 154.999219) scale(0.1 -0.1)">
       <use xlink:href="#DejaVuSans-30"/>
       <use xlink:href="#DejaVuSans-2e" x="63.623047"/>
       <use xlink:href="#DejaVuSans-30" x="95.410156"/>
      </g>
     </g>
    </g>
    <g id="ytick_2">
     <g id="line2d_8">
      <g>
       <use xlink:href="#m9cbe8abdd0" x="63" y="119.88" style="stroke: #000000; stroke-width: 0.8"/>
      </g>
     </g>
     <g id="text_8">
      <!-- 0.5 -->
      <g transform="translate(40.096875 123.679219) scale(0.1 -0.1)">
       <defs>
        <path id="DejaVuSans-35" d="M 691 4666 
L 3169 4666 
L 3169 4134 
L 1269 4134 
L 1269 2991 
Q 1406 3038 1543 3061 
Q 1681 3084 1819 3084 
Q 2600 3084 3056 2656 
Q 3513 2228 3513 1497 
Q 3513 744 3044 326 
Q 2575 -91 1722 -91 
Q 1428 -91 1123 -41 
Q 819 9 494 109 
L 494 744 
Q 775 591 1075 516 
Q 1375 441 1709 441 
Q 2250 441 2565 725 
Q 2881 1009 2881 1497 
Q 2881 1984 2565 2268 
Q 2250 2553 1709 2553 
Q 1456 2553 1204 2497 
Q 953 2441 691 2322 
L 691 4666 
z
" transform="scale(0.015625)"/>
       </defs>
       <use xlink:href="#DejaVuSans-30"/>
       <use xlink:href="#DejaVuSans-2e" x="63.623047"/>
       <use xlink:href="#DejaVuSans-35" x="95.410156"/>
      </g>
     </g>
    </g>
    <g id="ytick_3">
     <g id="line2d_9">
      <g>
       <use xlink:href="#m9cbe8abdd0" x="63" y="88.56" style="stroke: #000000; stroke-width: 0.8"/>
      </g>
     </g>
     <g id="text_9">
      <!-- 1.0 -->
      <g transform="translate(40.096875 92.359219) scale(0.1 -0.1)">
       <use xlink:href="#DejaVuSans-31"/>
       <use xlink:href="#DejaVuSans-2e" x="63.623047"/>
       <use xlink:href="#DejaVuSans-30" x="95.410156"/>
      </g>
     </g>
    </g>
    <g id="ytick_4">
     <g id="line2d_10">
      <g>
       <use xlink:href="#m9cbe8abdd0" x="63" y="57.24" style="stroke: #000000; stroke-width: 0.8"/>
      </g>
     </g>
     <g id="text_10">
      <!-- 1.5 -->
      <g transform="translate(40.096875 61.039219) scale(0.1 -0.1)">
       <use xlink:href="#DejaVuSans-31"/>
       <use xlink:href="#DejaVuSans-2e" x="63.623047"/>
       <use xlink:href="#DejaVuSans-35" x="95.410156"/>
      </g>
     </g>
    </g>
    <g id="ytick_5">
     <g id="line2d_11">
      <g>
       <use xlink:href="#m9cbe8abdd0" x="63" y="25.92" style="stroke: #000000; stroke-width: 0.8"/>
      </g>
     </g>
     <g id="text_11">
      <!-- 2.0 -->
      <g transform="translate(40.096875 29.719219) scale(0.1 -0.1)">
       <use xlink:href="#DejaVuSans-32"/>
       <use xlink:href="#DejaVuSans-2e" x="63.623047"/>
       <use xlink:href="#DejaVuSans-30" x="95.410156"/>
      </g>
     </g>
    </g>
   </g>
   <g id="patch_3">
    <path d="M 63 151.2 
L 63 25.92 
" style="fill: none; stroke: #000000; stroke-width: 0.8; stroke-linejoin: miter; stroke-linecap: square"/>
   </g>
   <g id="patch_4">
    <path d="M 240.545455 151.2 
L 240.545455 25.92 
" style="fill: none; stroke: #000000; stroke-width: 0.8; stroke-linejoin: miter; stroke-linecap: square"/>
   </g>
   <g id="patch_5">
    <path d="M 63 151.2 
L 240.545455 151.2 
" style="fill: none; stroke: #000000; stroke-width: 0.8; stroke-linejoin: miter; stroke-linecap: square"/>
   </g>
   <g id="patch_6">
    <path d="M 63 25.92 
L 240.545455 25.92 
" style="fill: none; stroke: #000000; stroke-width: 0.8; stroke-linejoin: miter; stroke-linecap: square"/>
   </g>
  </g>
  <g id="axes_2">
   <g id="patch_7">
    <path d="M 276.054545 151.2 
L 453.6 151.2 
L 453.6 25.92 
L 276.054545 25.92 
z
" style="fill: #ffffff"/>
   </g>
   <g id="PathCollection_6">
    <path d="M 293.98843 151.2 
L 295.781818 151.2 
L 297.575207 151.2 
L 299.368595 151.2 
L 301.161983 151.2 
L 302.955372 151.2 
L 304.74876 151.2 
L 306.542149 151.2 
L 308.335537 151.2 
L 310.128926 151.2 
L 311.922314 151.2 
L 313.715702 151.2 
L 315.509091 151.2 
L 317.302479 151.2 
L 319.095868 151.2 
L 320.889256 151.2 
L 322.682645 151.2 
L 324.476033 151.2 
L 326.269421 151.2 
L 328.06281 151.2 
L 329.318182 151.2 
L 329.199655 149.9472 
L 328.842472 148.6944 
L 328.24193 147.4416 
L 328.06281 147.174912 
L 327.388916 146.1888 
L 326.271978 144.936 
L 326.269421 144.933648 
L 324.870585 143.6832 
L 324.476033 143.386089 
L 323.161243 142.4304 
L 322.682645 142.128595 
L 321.10946 141.1776 
L 320.889256 141.059386 
L 319.095868 140.136852 
L 318.662931 139.9248 
L 317.302479 139.320502 
L 315.752839 138.672 
L 315.509091 138.577984 
L 313.715702 137.918527 
L 312.263229 137.4192 
L 311.922314 137.309461 
L 310.128926 136.762051 
L 308.335537 136.253808 
L 308.007855 136.1664 
L 306.542149 135.794326 
L 304.74876 135.371422 
L 302.955372 134.981483 
L 302.620132 134.9136 
L 301.161983 134.628565 
L 299.368595 134.306033 
L 297.575207 134.01173 
L 295.781818 133.744817 
L 295.160111 133.6608 
L 293.98843 133.505751 
L 292.195041 133.292397 
L 290.401653 133.103334 
L 288.608264 132.937993 
L 286.814876 132.795847 
L 285.021488 132.676424 
L 283.228099 132.579306 
L 281.434711 132.504146 
L 279.641322 132.450663 
L 277.847934 132.418655 
L 276.054545 132.408 
L 276.054545 132.408 
L 276.054545 132.408 
L 276.054545 133.6608 
L 276.054545 134.9136 
L 276.054545 136.1664 
L 276.054545 137.4192 
L 276.054545 138.672 
L 276.054545 139.9248 
L 276.054545 141.1776 
L 276.054545 142.4304 
L 276.054545 143.6832 
L 276.054545 144.936 
L 276.054545 144.936 
L 277.847934 144.968077 
L 279.641322 145.065731 
L 281.434711 145.232973 
L 283.228099 145.475746 
L 285.021488 145.801093 
L 286.70122 146.1888 
L 286.814876 146.219102 
L 288.608264 146.792966 
L 290.254897 147.4416 
L 290.401653 147.519009 
L 292.195041 148.605698 
L 292.325864 148.6944 
L 293.449565 149.9472 
L 293.809091 151.2 
z
" clip-path="url(#pc794624257)" style="fill: #deebf7"/>
   </g>
   <g id="PathCollection_7">
    <path d="M 329.856198 151.2 
L 331.649587 151.2 
L 333.442975 151.2 
L 335.236364 151.2 
L 337.029752 151.2 
L 338.82314 151.2 
L 340.616529 151.2 
L 342.409917 151.2 
L 344.203306 151.2 
L 345.996694 151.2 
L 347.790083 151.2 
L 349.583471 151.2 
L 351.37686 151.2 
L 353.170248 151.2 
L 354.963636 151.2 
L 356.757025 151.2 
L 358.550413 151.2 
L 360.343802 151.2 
L 362.13719 151.2 
L 363.930579 151.2 
L 364.827273 151.2 
L 364.756219 149.9472 
L 364.542718 148.6944 
L 364.18576 147.4416 
L 363.930579 146.803139 
L 363.683558 146.1888 
L 363.033515 144.936 
L 362.232649 143.6832 
L 362.13719 143.556865 
L 361.275994 142.4304 
L 360.343802 141.382267 
L 360.159201 141.1776 
L 358.874897 139.9248 
L 358.550413 139.642316 
L 357.415363 138.672 
L 356.757025 138.164111 
L 355.771292 137.4192 
L 354.963636 136.86225 
L 353.930903 136.1664 
L 353.170248 135.694201 
L 351.880065 134.9136 
L 351.37686 134.630732 
L 349.602025 133.6608 
L 349.583471 133.651309 
L 347.790083 132.755909 
L 347.070763 132.408 
L 345.996694 131.918178 
L 344.264966 131.1552 
L 344.203306 131.12943 
L 342.409917 130.399505 
L 341.141433 129.9024 
L 340.616529 129.706067 
L 338.82314 129.05621 
L 337.65745 128.6496 
L 337.029752 128.43943 
L 335.236364 127.858958 
L 333.747738 127.3968 
L 333.442975 127.305499 
L 331.649587 126.785696 
L 329.856198 126.288705 
L 329.314086 126.144 
L 328.06281 125.81986 
L 326.269421 125.374569 
L 324.476033 124.949852 
L 324.2185 124.8912 
L 322.682645 124.549945 
L 320.889256 124.169847 
L 319.095868 123.808396 
L 318.21187 123.6384 
L 317.302479 123.46696 
L 315.509091 123.144653 
L 313.715702 122.839379 
L 311.922314 122.550834 
L 310.836873 122.3856 
L 310.128926 122.279404 
L 308.335537 122.024855 
L 306.542149 121.78577 
L 304.74876 121.5619 
L 302.955372 121.352996 
L 301.161983 121.158822 
L 300.903524 121.1328 
L 299.368595 120.979593 
L 297.575207 120.814547 
L 295.781818 120.663418 
L 293.98843 120.526037 
L 292.195041 120.402243 
L 290.401653 120.291891 
L 288.608264 120.194847 
L 286.814876 120.110991 
L 285.021488 120.040219 
L 283.228099 119.982439 
L 281.434711 119.937578 
L 279.641322 119.905576 
L 277.847934 119.886392 
L 276.054545 119.88 
L 276.054545 119.88 
L 276.054545 119.88 
L 276.054545 121.1328 
L 276.054545 122.3856 
L 276.054545 123.6384 
L 276.054545 124.8912 
L 276.054545 126.144 
L 276.054545 127.3968 
L 276.054545 128.6496 
L 276.054545 129.9024 
L 276.054545 131.1552 
L 276.054545 132.408 
L 276.054545 132.408 
L 277.847934 132.418655 
L 279.641322 132.450663 
L 281.434711 132.504146 
L 283.228099 132.579306 
L 285.021488 132.676424 
L 286.814876 132.795847 
L 288.608264 132.937993 
L 290.401653 133.103334 
L 292.195041 133.292397 
L 293.98843 133.505751 
L 295.160111 133.6608 
L 295.781818 133.744817 
L 297.575207 134.01173 
L 299.368595 134.306033 
L 301.161983 134.628565 
L 302.620132 134.9136 
L 302.955372 134.981483 
L 304.74876 135.371422 
L 306.542149 135.794326 
L 308.007855 136.1664 
L 308.335537 136.253808 
L 310.128926 136.762051 
L 311.922314 137.309461 
L 312.263229 137.4192 
L 313.715702 137.918527 
L 315.509091 138.577984 
L 315.752839 138.672 
L 317.302479 139.320502 
L 318.662931 139.9248 
L 319.095868 140.136852 
L 320.889256 141.059386 
L 321.10946 141.1776 
L 322.682645 142.128595 
L 323.161243 142.4304 
L 324.476033 143.386089 
L 324.870585 143.6832 
L 326.269421 144.933648 
L 326.271978 144.936 
L 327.388916 146.1888 
L 328.06281 147.174912 
L 328.24193 147.4416 
L 328.842472 148.6944 
L 329.199655 149.9472 
L 329.318182 151.2 
z
" clip-path="url(#pc794624257)" style="fill: #9dcae1"/>
   </g>
   <g id="PathCollection_8">
    <path d="M 365.723967 151.2 
L 367.517355 151.2 
L 369.310744 151.2 
L 371.104132 151.2 
L 372.897521 151.2 
L 374.690909 151.2 
L 376.484298 151.2 
L 378.277686 151.2 
L 380.071074 151.2 
L 381.864463 151.2 
L 383.657851 151.2 
L 385.45124 151.2 
L 387.244628 151.2 
L 389.038017 151.2 
L 390.831405 151.2 
L 392.624793 151.2 
L 394.418182 151.2 
L 396.21157 151.2 
L 398.004959 151.2 
L 399.798347 151.2 
L 400.336364 151.2 
L 400.285624 149.9472 
L 400.133282 148.6944 
L 399.878972 147.4416 
L 399.798347 147.157957 
L 399.522037 146.1888 
L 399.06158 144.936 
L 398.496488 143.6832 
L 398.004959 142.764293 
L 397.825313 142.4304 
L 397.046096 141.1776 
L 396.21157 140.000914 
L 396.157162 139.9248 
L 395.155391 138.672 
L 394.418182 137.842224 
L 394.038584 137.4192 
L 392.803195 136.1664 
L 392.624793 136.000107 
L 391.445002 134.9136 
L 390.831405 134.391844 
L 389.960149 133.6608 
L 389.038017 132.941721 
L 388.343524 132.408 
L 387.244628 131.618588 
L 386.589252 131.1552 
L 385.45124 130.399136 
L 384.690619 129.9024 
L 383.657851 129.265661 
L 382.640006 128.6496 
L 381.864463 128.204547 
L 380.42881 127.3968 
L 380.071074 127.205216 
L 378.277686 126.263333 
L 378.04606 126.144 
L 376.484298 125.375109 
L 375.478568 124.8912 
L 374.690909 124.527824 
L 372.897521 123.719351 
L 372.714353 123.6384 
L 371.104132 122.953701 
L 369.732635 122.3856 
L 369.310744 122.216972 
L 367.517355 121.515473 
L 366.513596 121.1328 
L 365.723967 120.841422 
L 363.930579 120.195609 
L 363.031341 119.88 
L 362.13719 119.57536 
L 360.343802 118.979816 
L 359.252469 118.6272 
L 358.550413 118.406394 
L 356.757025 117.856433 
L 355.136002 117.3744 
L 354.963636 117.324378 
L 353.170248 116.815956 
L 351.37686 116.323626 
L 350.620265 116.1216 
L 349.583471 115.85064 
L 347.790083 115.395404 
L 345.996694 114.955116 
L 345.635303 114.8688 
L 344.203306 114.533134 
L 342.409917 114.126183 
L 340.616529 113.733149 
L 340.06553 113.616 
L 338.82314 113.356096 
L 337.029752 112.993257 
L 335.236364 112.643418 
L 333.746925 112.3632 
L 333.442975 112.3068 
L 331.649587 111.984555 
L 329.856198 111.674506 
L 328.06281 111.376498 
L 326.395632 111.1104 
L 326.269421 111.090479 
L 324.476033 110.8174 
L 322.682645 110.555685 
L 320.889256 110.305196 
L 319.095868 110.065799 
L 317.462117 109.8576 
L 317.302479 109.837426 
L 315.509091 109.620476 
L 313.715702 109.414084 
L 311.922314 109.218136 
L 310.128926 109.032522 
L 308.335537 108.857133 
L 306.542149 108.691866 
L 305.537936 108.6048 
L 304.74876 108.536727 
L 302.955372 108.391595 
L 301.161983 108.256234 
L 299.368595 108.130567 
L 297.575207 108.014518 
L 295.781818 107.908018 
L 293.98843 107.811003 
L 292.195041 107.723412 
L 290.401653 107.645192 
L 288.608264 107.576292 
L 286.814876 107.51667 
L 285.021488 107.466285 
L 283.228099 107.425106 
L 281.434711 107.393107 
L 279.641322 107.370265 
L 277.847934 107.356565 
L 276.054545 107.352 
L 276.054545 107.352 
L 276.054545 107.352 
L 276.054545 108.6048 
L 276.054545 109.8576 
L 276.054545 111.1104 
L 276.054545 112.3632 
L 276.054545 113.616 
L 276.054545 114.8688 
L 276.054545 116.1216 
L 276.054545 117.3744 
L 276.054545 118.6272 
L 276.054545 119.88 
L 276.054545 119.88 
L 277.847934 119.886392 
L 279.641322 119.905576 
L 281.434711 119.937578 
L 283.228099 119.982439 
L 285.021488 120.040219 
L 286.814876 120.110991 
L 288.608264 120.194847 
L 290.401653 120.291891 
L 292.195041 120.402243 
L 293.98843 120.526037 
L 295.781818 120.663418 
L 297.575207 120.814547 
L 299.368595 120.979593 
L 300.903524 121.1328 
L 301.161983 121.158822 
L 302.955372 121.352996 
L 304.74876 121.5619 
L 306.542149 121.78577 
L 308.335537 122.024855 
L 310.128926 122.279404 
L 310.836873 122.3856 
L 311.922314 122.550834 
L 313.715702 122.839379 
L 315.509091 123.144653 
L 317.302479 123.46696 
L 318.21187 123.6384 
L 319.095868 123.808396 
L 320.889256 124.169847 
L 322.682645 124.549945 
L 324.2185 124.8912 
L 324.476033 124.949852 
L 326.269421 125.374569 
L 328.06281 125.81986 
L 329.314086 126.144 
L 329.856198 126.288705 
L 331.649587 126.785696 
L 333.442975 127.305499 
L 333.747738 127.3968 
L 335.236364 127.858958 
L 337.029752 128.43943 
L 337.65745 128.6496 
L 338.82314 129.05621 
L 340.616529 129.706067 
L 341.141433 129.9024 
L 342.409917 130.399505 
L 344.203306 131.12943 
L 344.264966 131.1552 
L 345.996694 131.918178 
L 347.070763 132.408 
L 347.790083 132.755909 
L 349.583471 133.651309 
L 349.602025 133.6608 
L 351.37686 134.630732 
L 351.880065 134.9136 
L 353.170248 135.694201 
L 353.930903 136.1664 
L 354.963636 136.86225 
L 355.771292 137.4192 
L 356.757025 138.164111 
L 357.415363 138.672 
L 358.550413 139.642316 
L 358.874897 139.9248 
L 360.159201 141.1776 
L 360.343802 141.382267 
L 361.275994 142.4304 
L 362.13719 143.556865 
L 362.232649 143.6832 
L 363.033515 144.936 
L 363.683558 146.1888 
L 363.930579 146.803139 
L 364.18576 147.4416 
L 364.542718 148.6944 
L 364.756219 149.9472 
L 364.827273 151.2 
z
" clip-path="url(#pc794624257)" style="fill: #4191c6"/>
   </g>
   <g id="PathCollection_9">
    <path d="M 401.591736 151.2 
L 403.385124 151.2 
L 405.178512 151.2 
L 406.971901 151.2 
L 408.765289 151.2 
L 410.558678 151.2 
L 412.352066 151.2 
L 414.145455 151.2 
L 415.938843 151.2 
L 417.732231 151.2 
L 419.52562 151.2 
L 421.319008 151.2 
L 423.112397 151.2 
L 424.905785 151.2 
L 426.699174 151.2 
L 428.492562 151.2 
L 430.28595 151.2 
L 432.079339 151.2 
L 433.872727 151.2 
L 435.666116 151.2 
L 435.845455 151.2 
L 435.805995 149.9472 
L 435.687558 148.6944 
L 435.666116 148.558295 
L 435.489964 147.4416 
L 435.212915 146.1888 
L 434.855997 144.936 
L 434.418683 143.6832 
L 433.900339 142.4304 
L 433.872727 142.372556 
L 433.30002 141.1776 
L 432.616937 139.9248 
L 432.079339 139.045268 
L 431.849992 138.672 
L 430.997777 137.4192 
L 430.28595 136.467629 
L 430.059154 136.1664 
L 429.032207 134.9136 
L 428.492562 134.30584 
L 427.915374 133.6608 
L 426.706854 132.408 
L 426.699174 132.40055 
L 425.40367 131.1552 
L 424.905785 130.706767 
L 424.003969 129.9024 
L 423.112397 129.154109 
L 422.504938 128.6496 
L 421.319008 127.719185 
L 420.903429 127.3968 
L 419.52562 126.38355 
L 419.195932 126.144 
L 417.732231 125.132499 
L 417.378548 124.8912 
L 415.938843 123.954199 
L 415.446965 123.6384 
L 414.145455 122.839051 
L 413.396427 122.3856 
L 412.352066 121.779217 
L 411.221715 121.1328 
L 410.558678 120.768254 
L 408.917111 119.88 
L 408.765289 119.800839 
L 406.971901 118.878942 
L 406.474117 118.6272 
L 405.178512 117.994355 
L 403.886364 117.3744 
L 403.385124 117.141656 
L 401.591736 116.322542 
L 401.144431 116.1216 
L 399.798347 115.535138 
L 398.238231 114.8688 
L 398.004959 114.771999 
L 396.21157 114.039396 
L 395.154207 113.616 
L 394.418182 113.329102 
L 392.624793 112.642838 
L 391.880093 112.3632 
L 390.831405 111.979163 
L 389.038017 111.33558 
L 388.398617 111.1104 
L 387.244628 110.713357 
L 385.45124 110.109188 
L 384.689527 109.8576 
L 383.657851 109.524135 
L 381.864463 108.956461 
L 380.729072 108.6048 
L 380.071074 108.405039 
L 378.277686 107.871257 
L 376.489394 107.352 
L 376.484298 107.350547 
L 374.690909 106.848336 
L 372.897521 106.358555 
L 371.926427 106.0992 
L 371.104132 105.883234 
L 369.310744 105.422377 
L 367.517355 104.973258 
L 366.999733 104.8464 
L 365.723967 104.53842 
L 363.930579 104.115903 
L 362.13719 103.704485 
L 361.642768 103.5936 
L 360.343802 103.306185 
L 358.550413 102.919344 
L 356.757025 102.543014 
L 355.768511 102.3408 
L 354.963636 102.178116 
L 353.170248 101.824607 
L 351.37686 101.481077 
L 349.583471 101.147426 
L 349.255811 101.088 
L 347.790083 100.824893 
L 345.996694 100.512172 
L 344.203306 100.208857 
L 342.409917 99.914853 
L 341.910014 99.8352 
L 340.616529 99.630888 
L 338.82314 99.356242 
L 337.029752 99.090494 
L 335.236364 98.83356 
L 333.442975 98.585355 
L 333.42094 98.5824 
L 331.649587 98.346482 
L 329.856198 98.11608 
L 328.06281 97.894062 
L 326.269421 97.680356 
L 324.476033 97.474887 
L 323.156626 97.3296 
L 322.682645 97.277688 
L 320.889256 97.088822 
L 319.095868 96.907919 
L 317.302479 96.734915 
L 315.509091 96.569752 
L 313.715702 96.412369 
L 311.922314 96.262711 
L 310.128926 96.120723 
L 309.543655 96.0768 
L 308.335537 95.986435 
L 306.542149 95.859726 
L 304.74876 95.740506 
L 302.955372 95.628732 
L 301.161983 95.524364 
L 299.368595 95.427364 
L 297.575207 95.337696 
L 295.781818 95.255328 
L 293.98843 95.180227 
L 292.195041 95.112366 
L 290.401653 95.051719 
L 288.608264 94.998262 
L 286.814876 94.951975 
L 285.021488 94.912839 
L 283.228099 94.88084 
L 281.434711 94.855965 
L 279.641322 94.838205 
L 277.847934 94.827551 
L 276.054545 94.824 
L 276.054545 94.824 
L 276.054545 94.824 
L 276.054545 96.0768 
L 276.054545 97.3296 
L 276.054545 98.5824 
L 276.054545 99.8352 
L 276.054545 101.088 
L 276.054545 102.3408 
L 276.054545 103.5936 
L 276.054545 104.8464 
L 276.054545 106.0992 
L 276.054545 107.352 
L 276.054545 107.352 
L 277.847934 107.356565 
L 279.641322 107.370265 
L 281.434711 107.393107 
L 283.228099 107.425106 
L 285.021488 107.466285 
L 286.814876 107.51667 
L 288.608264 107.576292 
L 290.401653 107.645192 
L 292.195041 107.723412 
L 293.98843 107.811003 
L 295.781818 107.908018 
L 297.575207 108.014518 
L 299.368595 108.130567 
L 301.161983 108.256234 
L 302.955372 108.391595 
L 304.74876 108.536727 
L 305.537936 108.6048 
L 306.542149 108.691866 
L 308.335537 108.857133 
L 310.128926 109.032522 
L 311.922314 109.218136 
L 313.715702 109.414084 
L 315.509091 109.620476 
L 317.302479 109.837426 
L 317.462117 109.8576 
L 319.095868 110.065799 
L 320.889256 110.305196 
L 322.682645 110.555685 
L 324.476033 110.8174 
L 326.269421 111.090479 
L 326.395632 111.1104 
L 328.06281 111.376498 
L 329.856198 111.674506 
L 331.649587 111.984555 
L 333.442975 112.3068 
L 333.746925 112.3632 
L 335.236364 112.643418 
L 337.029752 112.993257 
L 338.82314 113.356096 
L 340.06553 113.616 
L 340.616529 113.733149 
L 342.409917 114.126183 
L 344.203306 114.533134 
L 345.635303 114.8688 
L 345.996694 114.955116 
L 347.790083 115.395404 
L 349.583471 115.85064 
L 350.620265 116.1216 
L 351.37686 116.323626 
L 353.170248 116.815956 
L 354.963636 117.324378 
L 355.136002 117.3744 
L 356.757025 117.856433 
L 358.550413 118.406394 
L 359.252469 118.6272 
L 360.343802 118.979816 
L 362.13719 119.57536 
L 363.031341 119.88 
L 363.930579 120.195609 
L 365.723967 120.841422 
L 366.513596 121.1328 
L 367.517355 121.515473 
L 369.310744 122.216972 
L 369.732635 122.3856 
L 371.104132 122.953701 
L 372.714353 123.6384 
L 372.897521 123.719351 
L 374.690909 124.527824 
L 375.478568 124.8912 
L 376.484298 125.375109 
L 378.04606 126.144 
L 378.277686 126.263333 
L 380.071074 127.205216 
L 380.42881 127.3968 
L 381.864463 128.204547 
L 382.640006 128.6496 
L 383.657851 129.265661 
L 384.690619 129.9024 
L 385.45124 130.399136 
L 386.589252 131.1552 
L 387.244628 131.618588 
L 388.343524 132.408 
L 389.038017 132.941721 
L 389.960149 133.6608 
L 390.831405 134.391844 
L 391.445002 134.9136 
L 392.624793 136.000107 
L 392.803195 136.1664 
L 394.038584 137.4192 
L 394.418182 137.842224 
L 395.155391 138.672 
L 396.157162 139.9248 
L 396.21157 140.000914 
L 397.046096 141.1776 
L 397.825313 142.4304 
L 398.004959 142.764293 
L 398.496488 143.6832 
L 399.06158 144.936 
L 399.522037 146.1888 
L 399.798347 147.157957 
L 399.878972 147.4416 
L 400.133282 148.6944 
L 400.285624 149.9472 
L 400.336364 151.2 
z
" clip-path="url(#pc794624257)" style="fill: #08509b"/>
   </g>
   <g id="PathCollection_10">
    <path d="M 437.459504 151.2 
L 439.252893 151.2 
L 441.046281 151.2 
L 442.839669 151.2 
L 444.633058 151.2 
L 446.426446 151.2 
L 448.219835 151.2 
L 450.013223 151.2 
L 451.806612 151.2 
L 453.6 151.2 
L 453.6 149.9472 
L 453.6 148.6944 
L 453.6 147.4416 
L 453.6 146.1888 
L 453.6 144.936 
L 453.6 143.6832 
L 453.6 142.4304 
L 453.6 141.1776 
L 453.6 139.9248 
L 453.6 138.672 
L 453.6 137.4192 
L 453.6 136.1664 
L 453.6 134.9136 
L 453.6 133.6608 
L 453.6 132.408 
L 453.6 131.1552 
L 453.6 129.9024 
L 453.6 128.6496 
L 453.6 127.3968 
L 453.6 126.144 
L 453.6 124.8912 
L 453.6 123.6384 
L 453.6 122.3856 
L 453.6 121.1328 
L 453.6 119.88 
L 453.6 118.6272 
L 453.6 117.3744 
L 453.6 116.1216 
L 453.6 114.8688 
L 453.6 113.616 
L 453.6 112.3632 
L 453.6 111.1104 
L 453.6 109.8576 
L 453.6 108.6048 
L 453.6 107.352 
L 453.6 106.0992 
L 453.6 104.8464 
L 453.6 103.5936 
L 453.6 102.3408 
L 453.6 101.088 
L 453.6 99.8352 
L 453.6 98.5824 
L 453.6 97.3296 
L 453.6 96.0768 
L 453.6 94.824 
L 453.6 93.5712 
L 453.6 92.3184 
L 453.6 91.0656 
L 453.6 89.8128 
L 453.6 88.56 
L 453.6 87.3072 
L 453.6 86.0544 
L 453.6 84.8016 
L 453.6 83.5488 
L 453.6 82.296 
L 453.6 81.0432 
L 453.6 79.7904 
L 453.6 78.5376 
L 453.6 77.2848 
L 453.6 76.032 
L 453.6 74.7792 
L 453.6 73.5264 
L 453.6 72.2736 
L 453.6 71.0208 
L 453.6 69.768 
L 453.6 68.5152 
L 453.6 67.2624 
L 453.6 66.0096 
L 453.6 64.7568 
L 453.6 63.504 
L 453.6 62.2512 
L 453.6 60.9984 
L 453.6 59.7456 
L 453.6 58.4928 
L 453.6 57.24 
L 453.6 55.9872 
L 453.6 54.7344 
L 453.6 53.4816 
L 453.6 52.2288 
L 453.6 50.976 
L 453.6 49.7232 
L 453.6 48.4704 
L 453.6 47.2176 
L 453.6 45.9648 
L 453.6 44.712 
L 453.6 43.4592 
L 453.6 42.2064 
L 453.6 40.9536 
L 453.6 39.7008 
L 453.6 38.448 
L 453.6 37.1952 
L 453.6 35.9424 
L 453.6 34.6896 
L 453.6 33.4368 
L 453.6 32.184 
L 453.6 30.9312 
L 453.6 29.6784 
L 453.6 28.4256 
L 453.6 27.1728 
L 453.6 25.92 
L 451.806612 25.92 
L 450.013223 25.92 
L 448.219835 25.92 
L 446.426446 25.92 
L 444.633058 25.92 
L 442.839669 25.92 
L 441.046281 25.92 
L 439.252893 25.92 
L 437.459504 25.92 
L 435.666116 25.92 
L 433.872727 25.92 
L 432.079339 25.92 
L 430.28595 25.92 
L 428.492562 25.92 
L 426.699174 25.92 
L 424.905785 25.92 
L 423.112397 25.92 
L 421.319008 25.92 
L 419.52562 25.92 
L 417.732231 25.92 
L 415.938843 25.92 
L 414.145455 25.92 
L 412.352066 25.92 
L 410.558678 25.92 
L 408.765289 25.92 
L 406.971901 25.92 
L 405.178512 25.92 
L 403.385124 25.92 
L 401.591736 25.92 
L 399.798347 25.92 
L 398.004959 25.92 
L 396.21157 25.92 
L 394.418182 25.92 
L 392.624793 25.92 
L 390.831405 25.92 
L 389.038017 25.92 
L 387.244628 25.92 
L 385.45124 25.92 
L 383.657851 25.92 
L 381.864463 25.92 
L 380.071074 25.92 
L 378.277686 25.92 
L 376.484298 25.92 
L 374.690909 25.92 
L 372.897521 25.92 
L 371.104132 25.92 
L 369.310744 25.92 
L 367.517355 25.92 
L 365.723967 25.92 
L 363.930579 25.92 
L 362.13719 25.92 
L 360.343802 25.92 
L 358.550413 25.92 
L 356.757025 25.92 
L 354.963636 25.92 
L 353.170248 25.92 
L 351.37686 25.92 
L 349.583471 25.92 
L 347.790083 25.92 
L 345.996694 25.92 
L 344.203306 25.92 
L 342.409917 25.92 
L 340.616529 25.92 
L 338.82314 25.92 
L 337.029752 25.92 
L 335.236364 25.92 
L 333.442975 25.92 
L 331.649587 25.92 
L 329.856198 25.92 
L 328.06281 25.92 
L 326.269421 25.92 
L 324.476033 25.92 
L 322.682645 25.92 
L 320.889256 25.92 
L 319.095868 25.92 
L 317.302479 25.92 
L 315.509091 25.92 
L 313.715702 25.92 
L 311.922314 25.92 
L 310.128926 25.92 
L 308.335537 25.92 
L 306.542149 25.92 
L 304.74876 25.92 
L 302.955372 25.92 
L 301.161983 25.92 
L 299.368595 25.92 
L 297.575207 25.92 
L 295.781818 25.92 
L 293.98843 25.92 
L 292.195041 25.92 
L 290.401653 25.92 
L 288.608264 25.92 
L 286.814876 25.92 
L 285.021488 25.92 
L 283.228099 25.92 
L 281.434711 25.92 
L 279.641322 25.92 
L 277.847934 25.92 
L 276.054545 25.92 
L 276.054545 27.1728 
L 276.054545 28.4256 
L 276.054545 29.6784 
L 276.054545 30.9312 
L 276.054545 32.184 
L 276.054545 33.4368 
L 276.054545 34.6896 
L 276.054545 35.9424 
L 276.054545 37.1952 
L 276.054545 38.448 
L 276.054545 39.7008 
L 276.054545 40.9536 
L 276.054545 42.2064 
L 276.054545 43.4592 
L 276.054545 44.712 
L 276.054545 45.9648 
L 276.054545 47.2176 
L 276.054545 48.4704 
L 276.054545 49.7232 
L 276.054545 50.976 
L 276.054545 52.2288 
L 276.054545 53.4816 
L 276.054545 54.7344 
L 276.054545 55.9872 
L 276.054545 57.24 
L 276.054545 58.4928 
L 276.054545 59.7456 
L 276.054545 60.9984 
L 276.054545 62.2512 
L 276.054545 63.504 
L 276.054545 64.7568 
L 276.054545 66.0096 
L 276.054545 67.2624 
L 276.054545 68.5152 
L 276.054545 69.768 
L 276.054545 71.0208 
L 276.054545 72.2736 
L 276.054545 73.5264 
L 276.054545 74.7792 
L 276.054545 76.032 
L 276.054545 77.2848 
L 276.054545 78.5376 
L 276.054545 79.7904 
L 276.054545 81.0432 
L 276.054545 82.296 
L 276.054545 83.5488 
L 276.054545 84.8016 
L 276.054545 86.0544 
L 276.054545 87.3072 
L 276.054545 88.56 
L 276.054545 89.8128 
L 276.054545 91.0656 
L 276.054545 92.3184 
L 276.054545 93.5712 
L 276.054545 94.824 
L 276.054545 94.824 
L 277.847934 94.827551 
L 279.641322 94.838205 
L 281.434711 94.855965 
L 283.228099 94.88084 
L 285.021488 94.912839 
L 286.814876 94.951975 
L 288.608264 94.998262 
L 290.401653 95.051719 
L 292.195041 95.112366 
L 293.98843 95.180227 
L 295.781818 95.255328 
L 297.575207 95.337696 
L 299.368595 95.427364 
L 301.161983 95.524364 
L 302.955372 95.628732 
L 304.74876 95.740506 
L 306.542149 95.859726 
L 308.335537 95.986435 
L 309.543655 96.0768 
L 310.128926 96.120723 
L 311.922314 96.262711 
L 313.715702 96.412369 
L 315.509091 96.569752 
L 317.302479 96.734915 
L 319.095868 96.907919 
L 320.889256 97.088822 
L 322.682645 97.277688 
L 323.156626 97.3296 
L 324.476033 97.474887 
L 326.269421 97.680356 
L 328.06281 97.894062 
L 329.856198 98.11608 
L 331.649587 98.346482 
L 333.42094 98.5824 
L 333.442975 98.585355 
L 335.236364 98.83356 
L 337.029752 99.090494 
L 338.82314 99.356242 
L 340.616529 99.630888 
L 341.910014 99.8352 
L 342.409917 99.914853 
L 344.203306 100.208857 
L 345.996694 100.512172 
L 347.790083 100.824893 
L 349.255811 101.088 
L 349.583471 101.147426 
L 351.37686 101.481077 
L 353.170248 101.824607 
L 354.963636 102.178116 
L 355.768511 102.3408 
L 356.757025 102.543014 
L 358.550413 102.919344 
L 360.343802 103.306185 
L 361.642768 103.5936 
L 362.13719 103.704485 
L 363.930579 104.115903 
L 365.723967 104.53842 
L 366.999733 104.8464 
L 367.517355 104.973258 
L 369.310744 105.422377 
L 371.104132 105.883234 
L 371.926427 106.0992 
L 372.897521 106.358555 
L 374.690909 106.848336 
L 376.484298 107.350547 
L 376.489394 107.352 
L 378.277686 107.871257 
L 380.071074 108.405039 
L 380.729072 108.6048 
L 381.864463 108.956461 
L 383.657851 109.524135 
L 384.689527 109.8576 
L 385.45124 110.109188 
L 387.244628 110.713357 
L 388.398617 111.1104 
L 389.038017 111.33558 
L 390.831405 111.979163 
L 391.880093 112.3632 
L 392.624793 112.642838 
L 394.418182 113.329102 
L 395.154207 113.616 
L 396.21157 114.039396 
L 398.004959 114.771999 
L 398.238231 114.8688 
L 399.798347 115.535138 
L 401.144431 116.1216 
L 401.591736 116.322542 
L 403.385124 117.141656 
L 403.886364 117.3744 
L 405.178512 117.994355 
L 406.474117 118.6272 
L 406.971901 118.878942 
L 408.765289 119.800839 
L 408.917111 119.88 
L 410.558678 120.768254 
L 411.221715 121.1328 
L 412.352066 121.779217 
L 413.396427 122.3856 
L 414.145455 122.839051 
L 415.446965 123.6384 
L 415.938843 123.954199 
L 417.378548 124.8912 
L 417.732231 125.132499 
L 419.195932 126.144 
L 419.52562 126.38355 
L 420.903429 127.3968 
L 421.319008 127.719185 
L 422.504938 128.6496 
L 423.112397 129.154109 
L 424.003969 129.9024 
L 424.905785 130.706767 
L 425.40367 131.1552 
L 426.699174 132.40055 
L 426.706854 132.408 
L 427.915374 133.6608 
L 428.492562 134.30584 
L 429.032207 134.9136 
L 430.059154 136.1664 
L 430.28595 136.467629 
L 430.997777 137.4192 
L 431.849992 138.672 
L 432.079339 139.045268 
L 432.616937 139.9248 
L 433.30002 141.1776 
L 433.872727 142.372556 
L 433.900339 142.4304 
L 434.418683 143.6832 
L 434.855997 144.936 
L 435.212915 146.1888 
L 435.489964 147.4416 
L 435.666116 148.558295 
L 435.687558 148.6944 
L 435.805995 149.9472 
L 435.845455 151.2 
z
" clip-path="url(#pc794624257)" style="fill: #08306b"/>
   </g>
   <g id="matplotlib.axis_3">
    <g id="xtick_7">
     <g id="line2d_12">
      <g>
       <use xlink:href="#mda602a1a38" x="276.054545" y="151.2" style="stroke: #000000; stroke-width: 0.8"/>
      </g>
     </g>
     <g id="text_12">
      <!-- 0.0 -->
      <g transform="translate(268.102983 165.798438) scale(0.1 -0.1)">
       <use xlink:href="#DejaVuSans-30"/>
       <use xlink:href="#DejaVuSans-2e" x="63.623047"/>
       <use xlink:href="#DejaVuSans-30" x="95.410156"/>
      </g>
     </g>
    </g>
    <g id="xtick_8">
     <g id="line2d_13">
      <g>
       <use xlink:href="#mda602a1a38" x="311.563636" y="151.2" style="stroke: #000000; stroke-width: 0.8"/>
      </g>
     </g>
     <g id="text_13">
      <!-- 0.2 -->
      <g transform="translate(303.612074 165.798438) scale(0.1 -0.1)">
       <use xlink:href="#DejaVuSans-30"/>
       <use xlink:href="#DejaVuSans-2e" x="63.623047"/>
       <use xlink:href="#DejaVuSans-32" x="95.410156"/>
      </g>
     </g>
    </g>
    <g id="xtick_9">
     <g id="line2d_14">
      <g>
       <use xlink:href="#mda602a1a38" x="347.072727" y="151.2" style="stroke: #000000; stroke-width: 0.8"/>
      </g>
     </g>
     <g id="text_14">
      <!-- 0.4 -->
      <g transform="translate(339.121165 165.798438) scale(0.1 -0.1)">
       <use xlink:href="#DejaVuSans-30"/>
       <use xlink:href="#DejaVuSans-2e" x="63.623047"/>
       <use xlink:href="#DejaVuSans-34" x="95.410156"/>
      </g>
     </g>
    </g>
    <g id="xtick_10">
     <g id="line2d_15">
      <g>
       <use xlink:href="#mda602a1a38" x="382.581818" y="151.2" style="stroke: #000000; stroke-width: 0.8"/>
      </g>
     </g>
     <g id="text_15">
      <!-- 0.6 -->
      <g transform="translate(374.630256 165.798438) scale(0.1 -0.1)">
       <use xlink:href="#DejaVuSans-30"/>
       <use xlink:href="#DejaVuSans-2e" x="63.623047"/>
       <use xlink:href="#DejaVuSans-36" x="95.410156"/>
      </g>
     </g>
    </g>
    <g id="xtick_11">
     <g id="line2d_16">
      <g>
       <use xlink:href="#mda602a1a38" x="418.090909" y="151.2" style="stroke: #000000; stroke-width: 0.8"/>
      </g>
     </g>
     <g id="text_16">
      <!-- 0.8 -->
      <g transform="translate(410.139347 165.798438) scale(0.1 -0.1)">
       <use xlink:href="#DejaVuSans-30"/>
       <use xlink:href="#DejaVuSans-2e" x="63.623047"/>
       <use xlink:href="#DejaVuSans-38" x="95.410156"/>
      </g>
     </g>
    </g>
    <g id="xtick_12">
     <g id="line2d_17">
      <g>
       <use xlink:href="#mda602a1a38" x="453.6" y="151.2" style="stroke: #000000; stroke-width: 0.8"/>
      </g>
     </g>
     <g id="text_17">
      <!-- 1.0 -->
      <g transform="translate(445.648437 165.798438) scale(0.1 -0.1)">
       <use xlink:href="#DejaVuSans-31"/>
       <use xlink:href="#DejaVuSans-2e" x="63.623047"/>
       <use xlink:href="#DejaVuSans-30" x="95.410156"/>
      </g>
     </g>
    </g>
   </g>
   <g id="matplotlib.axis_4">
    <g id="ytick_6">
     <g id="line2d_18">
      <g>
       <use xlink:href="#m9cbe8abdd0" x="276.054545" y="151.2" style="stroke: #000000; stroke-width: 0.8"/>
      </g>
     </g>
     <g id="text_18">
      <!-- 0.0 -->
      <g transform="translate(253.15142 154.999219) scale(0.1 -0.1)">
       <use xlink:href="#DejaVuSans-30"/>
       <use xlink:href="#DejaVuSans-2e" x="63.623047"/>
       <use xlink:href="#DejaVuSans-30" x="95.410156"/>
      </g>
     </g>
    </g>
    <g id="ytick_7">
     <g id="line2d_19">
      <g>
       <use xlink:href="#m9cbe8abdd0" x="276.054545" y="119.88" style="stroke: #000000; stroke-width: 0.8"/>
      </g>
     </g>
     <g id="text_19">
      <!-- 0.5 -->
      <g transform="translate(253.15142 123.679219) scale(0.1 -0.1)">
       <use xlink:href="#DejaVuSans-30"/>
       <use xlink:href="#DejaVuSans-2e" x="63.623047"/>
       <use xlink:href="#DejaVuSans-35" x="95.410156"/>
      </g>
     </g>
    </g>
    <g id="ytick_8">
     <g id="line2d_20">
      <g>
       <use xlink:href="#m9cbe8abdd0" x="276.054545" y="88.56" style="stroke: #000000; stroke-width: 0.8"/>
      </g>
     </g>
     <g id="text_20">
      <!-- 1.0 -->
      <g transform="translate(253.15142 92.359219) scale(0.1 -0.1)">
       <use xlink:href="#DejaVuSans-31"/>
       <use xlink:href="#DejaVuSans-2e" x="63.623047"/>
       <use xlink:href="#DejaVuSans-30" x="95.410156"/>
      </g>
     </g>
    </g>
    <g id="ytick_9">
     <g id="line2d_21">
      <g>
       <use xlink:href="#m9cbe8abdd0" x="276.054545" y="57.24" style="stroke: #000000; stroke-width: 0.8"/>
      </g>
     </g>
     <g id="text_21">
      <!-- 1.5 -->
      <g transform="translate(253.15142 61.039219) scale(0.1 -0.1)">
       <use xlink:href="#DejaVuSans-31"/>
       <use xlink:href="#DejaVuSans-2e" x="63.623047"/>
       <use xlink:href="#DejaVuSans-35" x="95.410156"/>
      </g>
     </g>
    </g>
    <g id="ytick_10">
     <g id="line2d_22">
      <g>
       <use xlink:href="#m9cbe8abdd0" x="276.054545" y="25.92" style="stroke: #000000; stroke-width: 0.8"/>
      </g>
     </g>
     <g id="text_22">
      <!-- 2.0 -->
      <g transform="translate(253.15142 29.719219) scale(0.1 -0.1)">
       <use xlink:href="#DejaVuSans-32"/>
       <use xlink:href="#DejaVuSans-2e" x="63.623047"/>
       <use xlink:href="#DejaVuSans-30" x="95.410156"/>
      </g>
     </g>
    </g>
   </g>
   <g id="patch_8">
    <path d="M 276.054545 151.2 
L 276.054545 25.92 
" style="fill: none; stroke: #000000; stroke-width: 0.8; stroke-linejoin: miter; stroke-linecap: square"/>
   </g>
   <g id="patch_9">
    <path d="M 453.6 151.2 
L 453.6 25.92 
" style="fill: none; stroke: #000000; stroke-width: 0.8; stroke-linejoin: miter; stroke-linecap: square"/>
   </g>
   <g id="patch_10">
    <path d="M 276.054545 151.2 
L 453.6 151.2 
" style="fill: none; stroke: #000000; stroke-width: 0.8; stroke-linejoin: miter; stroke-linecap: square"/>
   </g>
   <g id="patch_11">
    <path d="M 276.054545 25.92 
L 453.6 25.92 
" style="fill: none; stroke: #000000; stroke-width: 0.8; stroke-linejoin: miter; stroke-linecap: square"/>
   </g>
  </g>
  <g id="axes_3">
   <g id="patch_12">
    <path d="M 25.2 194.4 
L 217.2 194.4 
L 217.2 183.6 
L 25.2 183.6 
z
" style="fill: #ffffff"/>
   </g>
   <g id="patch_13">
    <path d="M 217.2 194.4 
L 226.8 189 
L 217.2 183.6 
" style="fill: #67000d"/>
   </g>
   <g id="QuadMesh_1">
    <path d="M 25.2 194.4 
L 25.2 183.6 
L 73.2 183.6 
L 73.2 194.4 
L 25.2 194.4 
" clip-path="url(#p707602e5a9)" style="fill: #fee0d2"/>
    <path d="M 73.2 194.4 
L 73.2 183.6 
L 121.2 183.6 
L 121.2 194.4 
L 73.2 194.4 
" clip-path="url(#p707602e5a9)" style="fill: #fc9272"/>
    <path d="M 121.2 194.4 
L 121.2 183.6 
L 169.2 183.6 
L 169.2 194.4 
L 121.2 194.4 
" clip-path="url(#p707602e5a9)" style="fill: #ee3a2c"/>
    <path d="M 169.2 194.4 
L 169.2 183.6 
L 217.2 183.6 
L 217.2 194.4 
L 169.2 194.4 
" clip-path="url(#p707602e5a9)" style="fill: #a30f15"/>
   </g>
   <g id="matplotlib.axis_5">
    <g id="xtick_13">
     <g id="line2d_23">
      <g>
       <use xlink:href="#mda602a1a38" x="25.2" y="194.4" style="stroke: #000000; stroke-width: 0.8"/>
      </g>
     </g>
     <g id="text_23">
      <!-- 0.1 -->
      <g transform="translate(17.248438 208.998437) scale(0.1 -0.1)">
       <use xlink:href="#DejaVuSans-30"/>
       <use xlink:href="#DejaVuSans-2e" x="63.623047"/>
       <use xlink:href="#DejaVuSans-31" x="95.410156"/>
      </g>
     </g>
    </g>
    <g id="xtick_14">
     <g id="line2d_24">
      <g>
       <use xlink:href="#mda602a1a38" x="73.2" y="194.4" style="stroke: #000000; stroke-width: 0.8"/>
      </g>
     </g>
     <g id="text_24">
      <!-- 0.3 -->
      <g transform="translate(65.248438 208.998437) scale(0.1 -0.1)">
       <defs>
        <path id="DejaVuSans-33" d="M 2597 2516 
Q 3050 2419 3304 2112 
Q 3559 1806 3559 1356 
Q 3559 666 3084 287 
Q 2609 -91 1734 -91 
Q 1441 -91 1130 -33 
Q 819 25 488 141 
L 488 750 
Q 750 597 1062 519 
Q 1375 441 1716 441 
Q 2309 441 2620 675 
Q 2931 909 2931 1356 
Q 2931 1769 2642 2001 
Q 2353 2234 1838 2234 
L 1294 2234 
L 1294 2753 
L 1863 2753 
Q 2328 2753 2575 2939 
Q 2822 3125 2822 3475 
Q 2822 3834 2567 4026 
Q 2313 4219 1838 4219 
Q 1578 4219 1281 4162 
Q 984 4106 628 3988 
L 628 4550 
Q 988 4650 1302 4700 
Q 1616 4750 1894 4750 
Q 2613 4750 3031 4423 
Q 3450 4097 3450 3541 
Q 3450 3153 3228 2886 
Q 3006 2619 2597 2516 
z
" transform="scale(0.015625)"/>
       </defs>
       <use xlink:href="#DejaVuSans-30"/>
       <use xlink:href="#DejaVuSans-2e" x="63.623047"/>
       <use xlink:href="#DejaVuSans-33" x="95.410156"/>
      </g>
     </g>
    </g>
    <g id="xtick_15">
     <g id="line2d_25">
      <g>
       <use xlink:href="#mda602a1a38" x="121.2" y="194.4" style="stroke: #000000; stroke-width: 0.8"/>
      </g>
     </g>
     <g id="text_25">
      <!-- 0.5 -->
      <g transform="translate(113.248438 208.998437) scale(0.1 -0.1)">
       <use xlink:href="#DejaVuSans-30"/>
       <use xlink:href="#DejaVuSans-2e" x="63.623047"/>
       <use xlink:href="#DejaVuSans-35" x="95.410156"/>
      </g>
     </g>
    </g>
    <g id="xtick_16">
     <g id="line2d_26">
      <g>
       <use xlink:href="#mda602a1a38" x="169.2" y="194.4" style="stroke: #000000; stroke-width: 0.8"/>
      </g>
     </g>
     <g id="text_26">
      <!-- 0.7 -->
      <g transform="translate(161.248438 208.998437) scale(0.1 -0.1)">
       <defs>
        <path id="DejaVuSans-37" d="M 525 4666 
L 3525 4666 
L 3525 4397 
L 1831 0 
L 1172 0 
L 2766 4134 
L 525 4134 
L 525 4666 
z
" transform="scale(0.015625)"/>
       </defs>
       <use xlink:href="#DejaVuSans-30"/>
       <use xlink:href="#DejaVuSans-2e" x="63.623047"/>
       <use xlink:href="#DejaVuSans-37" x="95.410156"/>
      </g>
     </g>
    </g>
    <g id="xtick_17">
     <g id="line2d_27">
      <g>
       <use xlink:href="#mda602a1a38" x="217.2" y="194.4" style="stroke: #000000; stroke-width: 0.8"/>
      </g>
     </g>
     <g id="text_27">
      <!-- 0.9 -->
      <g transform="translate(209.248437 208.998437) scale(0.1 -0.1)">
       <defs>
        <path id="DejaVuSans-39" d="M 703 97 
L 703 672 
Q 941 559 1184 500 
Q 1428 441 1663 441 
Q 2288 441 2617 861 
Q 2947 1281 2994 2138 
Q 2813 1869 2534 1725 
Q 2256 1581 1919 1581 
Q 1219 1581 811 2004 
Q 403 2428 403 3163 
Q 403 3881 828 4315 
Q 1253 4750 1959 4750 
Q 2769 4750 3195 4129 
Q 3622 3509 3622 2328 
Q 3622 1225 3098 567 
Q 2575 -91 1691 -91 
Q 1453 -91 1209 -44 
Q 966 3 703 97 
z
M 1959 2075 
Q 2384 2075 2632 2365 
Q 2881 2656 2881 3163 
Q 2881 3666 2632 3958 
Q 2384 4250 1959 4250 
Q 1534 4250 1286 3958 
Q 1038 3666 1038 3163 
Q 1038 2656 1286 2365 
Q 1534 2075 1959 2075 
z
" transform="scale(0.015625)"/>
       </defs>
       <use xlink:href="#DejaVuSans-30"/>
       <use xlink:href="#DejaVuSans-2e" x="63.623047"/>
       <use xlink:href="#DejaVuSans-39" x="95.410156"/>
      </g>
     </g>
    </g>
   </g>
   <g id="matplotlib.axis_6"/>
   <g id="LineCollection_1"/>
   <g id="patch_14">
    <path d="M 25.2 194.4 
L 25.2 189 
L 25.2 183.6 
L 217.2 183.6 
L 226.8 189 
L 217.2 194.4 
L 25.2 194.4 
z
" style="fill: none; stroke: #000000; stroke-width: 0.8; stroke-linejoin: miter; stroke-linecap: square"/>
   </g>
  </g>
  <g id="axes_4">
   <g id="patch_15">
    <path d="M 277.2 194.4 
L 469.2 194.4 
L 469.2 183.6 
L 277.2 183.6 
z
" style="fill: #ffffff"/>
   </g>
   <g id="patch_16">
    <path d="M 469.2 194.4 
L 478.8 189 
L 469.2 183.6 
" style="fill: #08306b"/>
   </g>
   <g id="QuadMesh_2">
    <path d="M 277.2 194.4 
L 277.2 183.6 
L 325.2 183.6 
L 325.2 194.4 
L 277.2 194.4 
" clip-path="url(#p1a8b320adb)" style="fill: #deebf7"/>
    <path d="M 325.2 194.4 
L 325.2 183.6 
L 373.2 183.6 
L 373.2 194.4 
L 325.2 194.4 
" clip-path="url(#p1a8b320adb)" style="fill: #9dcae1"/>
    <path d="M 373.2 194.4 
L 373.2 183.6 
L 421.2 183.6 
L 421.2 194.4 
L 373.2 194.4 
" clip-path="url(#p1a8b320adb)" style="fill: #4191c6"/>
    <path d="M 421.2 194.4 
L 421.2 183.6 
L 469.2 183.6 
L 469.2 194.4 
L 421.2 194.4 
" clip-path="url(#p1a8b320adb)" style="fill: #08509b"/>
   </g>
   <g id="matplotlib.axis_7">
    <g id="xtick_18">
     <g id="line2d_28">
      <g>
       <use xlink:href="#mda602a1a38" x="277.2" y="194.4" style="stroke: #000000; stroke-width: 0.8"/>
      </g>
     </g>
     <g id="text_28">
      <!-- 0.1 -->
      <g transform="translate(269.248438 208.998437) scale(0.1 -0.1)">
       <use xlink:href="#DejaVuSans-30"/>
       <use xlink:href="#DejaVuSans-2e" x="63.623047"/>
       <use xlink:href="#DejaVuSans-31" x="95.410156"/>
      </g>
     </g>
    </g>
    <g id="xtick_19">
     <g id="line2d_29">
      <g>
       <use xlink:href="#mda602a1a38" x="325.2" y="194.4" style="stroke: #000000; stroke-width: 0.8"/>
      </g>
     </g>
     <g id="text_29">
      <!-- 0.3 -->
      <g transform="translate(317.248438 208.998437) scale(0.1 -0.1)">
       <use xlink:href="#DejaVuSans-30"/>
       <use xlink:href="#DejaVuSans-2e" x="63.623047"/>
       <use xlink:href="#DejaVuSans-33" x="95.410156"/>
      </g>
     </g>
    </g>
    <g id="xtick_20">
     <g id="line2d_30">
      <g>
       <use xlink:href="#mda602a1a38" x="373.2" y="194.4" style="stroke: #000000; stroke-width: 0.8"/>
      </g>
     </g>
     <g id="text_30">
      <!-- 0.5 -->
      <g transform="translate(365.248438 208.998437) scale(0.1 -0.1)">
       <use xlink:href="#DejaVuSans-30"/>
       <use xlink:href="#DejaVuSans-2e" x="63.623047"/>
       <use xlink:href="#DejaVuSans-35" x="95.410156"/>
      </g>
     </g>
    </g>
    <g id="xtick_21">
     <g id="line2d_31">
      <g>
       <use xlink:href="#mda602a1a38" x="421.2" y="194.4" style="stroke: #000000; stroke-width: 0.8"/>
      </g>
     </g>
     <g id="text_31">
      <!-- 0.7 -->
      <g transform="translate(413.248438 208.998437) scale(0.1 -0.1)">
       <use xlink:href="#DejaVuSans-30"/>
       <use xlink:href="#DejaVuSans-2e" x="63.623047"/>
       <use xlink:href="#DejaVuSans-37" x="95.410156"/>
      </g>
     </g>
    </g>
    <g id="xtick_22">
     <g id="line2d_32">
      <g>
       <use xlink:href="#mda602a1a38" x="469.2" y="194.4" style="stroke: #000000; stroke-width: 0.8"/>
      </g>
     </g>
     <g id="text_32">
      <!-- 0.9 -->
      <g transform="translate(461.248438 208.998437) scale(0.1 -0.1)">
       <use xlink:href="#DejaVuSans-30"/>
       <use xlink:href="#DejaVuSans-2e" x="63.623047"/>
       <use xlink:href="#DejaVuSans-39" x="95.410156"/>
      </g>
     </g>
    </g>
   </g>
   <g id="matplotlib.axis_8"/>
   <g id="LineCollection_2"/>
   <g id="patch_17">
    <path d="M 277.2 194.4 
L 277.2 189 
L 277.2 183.6 
L 469.2 183.6 
L 478.8 189 
L 469.2 194.4 
L 277.2 194.4 
z
" style="fill: none; stroke: #000000; stroke-width: 0.8; stroke-linejoin: miter; stroke-linecap: square"/>
   </g>
  </g>
 </g>
 <defs>
  <clipPath id="p9f53c91633">
   <rect x="63" y="25.92" width="177.545455" height="125.28"/>
  </clipPath>
  <clipPath id="pc794624257">
   <rect x="276.054545" y="25.92" width="177.545455" height="125.28"/>
  </clipPath>
  <clipPath id="p707602e5a9">
   <rect x="25.2" y="183.6" width="192" height="10.8"/>
  </clipPath>
  <clipPath id="p1a8b320adb">
   <rect x="277.2" y="183.6" width="192" height="10.8"/>
  </clipPath>
 </defs>
</svg>
