<?xml version="1.0" encoding="utf-8" standalone="no"?>
<!DOCTYPE svg PUBLIC "-//W3C//DTD SVG 1.1//EN"
  "http://www.w3.org/Graphics/SVG/1.1/DTD/svg11.dtd">
<svg xmlns:xlink="http://www.w3.org/1999/xlink" width="288pt" height="360pt" viewBox="0 0 288 360" xmlns="http://www.w3.org/2000/svg" version="1.1">
 <metadata>
  <rdf:RDF xmlns:dc="http://purl.org/dc/elements/1.1/" xmlns:cc="http://creativecommons.org/ns#" xmlns:rdf="http://www.w3.org/1999/02/22-rdf-syntax-ns#">
   <cc:Work>
    <dc:type rdf:resource="http://purl.org/dc/dcmitype/StillImage"/>
    <dc:date>2023-07-22T16:10:47.122760</dc:date>
    <dc:format>image/svg+xml</dc:format>
    <dc:creator>
     <cc:Agent>
      <dc:title>Matplotlib v3.7.1, https://matplotlib.org/</dc:title>
     </cc:Agent>
    </dc:creator>
   </cc:Work>
  </rdf:RDF>
 </metadata>
 <defs>
  <style type="text/css">*{stroke-linejoin: round; stroke-linecap: butt}</style>
 </defs>
 <g id="figure_1">
  <g id="patch_1">
   <path d="M 0 360 
L 288 360 
L 288 0 
L 0 0 
z
" style="fill: #ffffff"/>
  </g>
  <g id="axes_1">
   <g id="patch_2">
    <path d="M 57.6 126.276923 
L 164.571429 126.276923 
L 164.571429 25.2 
L 57.6 25.2 
z
" style="fill: #ffffff"/>
   </g>
   <g id="PathCollection_1">
    <path d="M 137.828571 103.857881 
L 141.64898 105.064945 
L 145.469388 105.129495 
L 149.289796 102.613905 
L 149.856809 101.879045 
L 151.601373 98.393634 
L 152.337565 94.908223 
L 152.455557 91.422812 
L 152.294704 87.937401 
L 151.987744 84.451989 
L 151.42019 80.966578 
L 150.56834 77.481167 
L 149.289796 74.053833 
L 149.279127 73.995756 
L 148.511649 70.510345 
L 147.2857 67.024934 
L 145.469388 63.880608 
L 145.338231 63.539523 
L 143.825416 60.054111 
L 141.64898 57.011692 
L 141.359094 56.5687 
L 138.906082 53.083289 
L 137.828571 51.845968 
L 135.233185 49.597878 
L 134.008163 48.508399 
L 130.187755 46.820771 
L 126.367347 47.100389 
L 123.644669 49.597878 
L 122.546939 51.357004 
L 121.727772 53.083289 
L 120.812948 56.5687 
L 120.428107 60.054111 
L 120.400626 63.539523 
L 120.561923 67.024934 
L 120.761695 70.510345 
L 118.726531 73.918038 
L 114.906122 73.184539 
L 111.085714 72.086738 
L 107.265306 71.377856 
L 103.444898 70.951135 
L 99.62449 70.694467 
L 95.804082 70.607356 
L 91.983673 70.738335 
L 88.163265 71.282543 
L 84.342857 72.626003 
L 82.206814 73.995756 
L 80.522449 77.228019 
L 80.400431 77.481167 
L 80.522449 78.064279 
L 80.910612 80.966578 
L 83.461863 84.451989 
L 84.342857 85.231856 
L 87.455511 87.937401 
L 88.163265 88.445313 
L 91.983673 90.842402 
L 93.111951 91.422812 
L 95.804082 93.039994 
L 99.62449 94.524082 
L 100.874401 94.908223 
L 103.444898 96.144831 
L 107.265306 97.335838 
L 111.085714 98.105142 
L 113.112101 98.393634 
L 114.906122 98.931018 
L 118.726531 99.75448 
L 122.546939 100.153917 
L 126.367347 100.382605 
L 130.187755 100.90172 
L 134.008163 101.822056 
L 134.173487 101.879045 
z
M 140.705857 98.393634 
L 137.828571 98.023391 
L 134.008163 96.832248 
L 130.187755 96.057439 
L 126.367347 95.929039 
L 122.546939 96.047406 
L 118.726531 95.874094 
L 114.906122 95.324448 
L 113.309922 94.908223 
L 111.085714 94.525886 
L 107.265306 93.600771 
L 103.444898 92.267351 
L 101.70359 91.422812 
L 99.62449 90.537445 
L 95.804082 88.388135 
L 95.112251 87.937401 
L 91.983673 85.406644 
L 90.843858 84.451989 
L 88.892873 80.966578 
L 89.876757 77.481167 
L 91.983673 76.143477 
L 95.804082 74.936445 
L 99.62449 74.636529 
L 103.444898 74.690255 
L 107.265306 75.067031 
L 111.085714 75.773127 
L 114.906122 76.929123 
L 116.516504 77.481167 
L 118.726531 78.078662 
L 122.546939 78.784873 
L 124.771418 77.481167 
L 125.396251 73.995756 
L 125.118448 70.510345 
L 124.846803 67.024934 
L 124.939488 63.539523 
L 125.577683 60.054111 
L 126.367347 58.13104 
L 127.606329 56.5687 
L 130.187755 54.651028 
L 134.008163 55.643515 
L 135.075611 56.5687 
L 137.828571 59.023323 
L 138.649238 60.054111 
L 141.057165 63.539523 
L 141.64898 64.608239 
L 143.04321 67.024934 
L 144.55491 70.510345 
L 145.469388 73.765099 
L 145.563226 73.995756 
L 146.716964 77.481167 
L 147.417345 80.966578 
L 147.851308 84.451989 
L 147.995191 87.937401 
L 147.70646 91.422812 
L 146.723688 94.908223 
L 145.469388 96.737874 
L 142.104975 98.393634 
L 141.64898 98.57027 
z
" clip-path="url(#p71d0ec8351)" style="fill: #fee0d2"/>
   </g>
   <g id="PathCollection_2">
    <path d="M 141.64898 98.57027 
L 142.104975 98.393634 
L 145.469388 96.737874 
L 146.723688 94.908223 
L 147.70646 91.422812 
L 147.995191 87.937401 
L 147.851308 84.451989 
L 147.417345 80.966578 
L 146.716964 77.481167 
L 145.563226 73.995756 
L 145.469388 73.765099 
L 144.55491 70.510345 
L 143.04321 67.024934 
L 141.64898 64.608239 
L 141.057165 63.539523 
L 138.649238 60.054111 
L 137.828571 59.023323 
L 135.075611 56.5687 
L 134.008163 55.643515 
L 130.187755 54.651028 
L 127.606329 56.5687 
L 126.367347 58.13104 
L 125.577683 60.054111 
L 124.939488 63.539523 
L 124.846803 67.024934 
L 125.118448 70.510345 
L 125.396251 73.995756 
L 124.771418 77.481167 
L 122.546939 78.784873 
L 118.726531 78.078662 
L 116.516504 77.481167 
L 114.906122 76.929123 
L 111.085714 75.773127 
L 107.265306 75.067031 
L 103.444898 74.690255 
L 99.62449 74.636529 
L 95.804082 74.936445 
L 91.983673 76.143477 
L 89.876757 77.481167 
L 88.892873 80.966578 
L 90.843858 84.451989 
L 91.983673 85.406644 
L 95.112251 87.937401 
L 95.804082 88.388135 
L 99.62449 90.537445 
L 101.70359 91.422812 
L 103.444898 92.267351 
L 107.265306 93.600771 
L 111.085714 94.525886 
L 113.309922 94.908223 
L 114.906122 95.324448 
L 118.726531 95.874094 
L 122.546939 96.047406 
L 126.367347 95.929039 
L 130.187755 96.057439 
L 134.008163 96.832248 
L 137.828571 98.023391 
L 140.705857 98.393634 
z
M 108.196821 91.422812 
L 107.265306 91.135873 
L 103.444898 89.745849 
L 99.951424 87.937401 
L 99.62449 87.693551 
L 95.804082 84.700085 
L 95.506998 84.451989 
L 94.196495 80.966578 
L 95.804082 79.116868 
L 99.32065 77.481167 
L 99.62449 77.412584 
L 103.444898 77.148066 
L 106.973324 77.481167 
L 107.265306 77.504739 
L 111.085714 78.189559 
L 114.906122 79.242538 
L 118.726531 80.644833 
L 119.600958 80.966578 
L 122.546939 82.22658 
L 126.367347 82.996868 
L 128.053656 80.966578 
L 128.413224 77.481167 
L 128.099925 73.995756 
L 127.776226 70.510345 
L 127.767576 67.024934 
L 128.444531 63.539523 
L 130.187755 60.419722 
L 134.008163 60.23796 
L 137.828571 63.469269 
L 137.881578 63.539523 
L 140.128447 67.024934 
L 141.64898 69.861494 
L 141.988619 70.510345 
L 143.338924 73.995756 
L 144.186563 77.481167 
L 144.763081 80.966578 
L 145.014989 84.451989 
L 144.923732 87.937401 
L 143.88423 91.422812 
L 141.64898 94.064686 
L 137.828571 94.238768 
L 134.008163 92.944048 
L 130.187755 92.087445 
L 126.367347 92.433042 
L 122.546939 93.159431 
L 118.726531 93.324125 
L 114.906122 93.066539 
L 111.085714 92.360142 
z
" clip-path="url(#p71d0ec8351)" style="fill: #fc9272"/>
   </g>
   <g id="PathCollection_3">
    <path d="M 111.085714 92.360142 
L 114.906122 93.066539 
L 118.726531 93.324125 
L 122.546939 93.159431 
L 126.367347 92.433042 
L 130.187755 92.087445 
L 134.008163 92.944048 
L 137.828571 94.238768 
L 141.64898 94.064686 
L 143.88423 91.422812 
L 144.923732 87.937401 
L 145.014989 84.451989 
L 144.763081 80.966578 
L 144.186563 77.481167 
L 143.338924 73.995756 
L 141.988619 70.510345 
L 141.64898 69.861494 
L 140.128447 67.024934 
L 137.881578 63.539523 
L 137.828571 63.469269 
L 134.008163 60.23796 
L 130.187755 60.419722 
L 128.444531 63.539523 
L 127.767576 67.024934 
L 127.776226 70.510345 
L 128.099925 73.995756 
L 128.413224 77.481167 
L 128.053656 80.966578 
L 126.367347 82.996868 
L 122.546939 82.22658 
L 119.600958 80.966578 
L 118.726531 80.644833 
L 114.906122 79.242538 
L 111.085714 78.189559 
L 107.265306 77.504739 
L 106.973324 77.481167 
L 103.444898 77.148066 
L 99.62449 77.412584 
L 99.32065 77.481167 
L 95.804082 79.116868 
L 94.196495 80.966578 
L 95.506998 84.451989 
L 95.804082 84.700085 
L 99.62449 87.693551 
L 99.951424 87.937401 
L 103.444898 89.745849 
L 107.265306 91.135873 
L 108.196821 91.422812 
z
M 104.479376 87.937401 
L 103.444898 87.250363 
L 99.680966 84.451989 
L 99.62449 83.692572 
L 99.384976 80.966578 
L 99.62449 80.812009 
L 103.444898 79.68771 
L 107.265306 79.606583 
L 111.085714 80.205627 
L 113.639255 80.966578 
L 114.906122 81.448729 
L 118.726531 83.167032 
L 121.278211 84.451989 
L 122.546939 86.276153 
L 124.165307 87.937401 
L 122.546939 89.30876 
L 118.726531 90.848354 
L 114.906122 90.86964 
L 111.085714 90.205877 
L 107.265306 89.079766 
z
M 133.708396 87.937401 
L 132.06514 84.451989 
L 131.61373 80.966578 
L 131.065516 77.481167 
L 130.454368 73.995756 
L 130.187755 71.836381 
L 130.047979 70.510345 
L 130.187755 69.009398 
L 130.646809 67.024934 
L 134.008163 64.410274 
L 137.166443 67.024934 
L 137.828571 67.561235 
L 139.516414 70.510345 
L 141.058553 73.995756 
L 141.64898 75.932053 
L 142.03871 77.481167 
L 142.543885 80.966578 
L 142.486386 84.451989 
L 141.79403 87.937401 
L 141.64898 88.260845 
L 137.828571 90.114486 
L 134.008163 88.120079 
z
" clip-path="url(#p71d0ec8351)" style="fill: #ee3a2c"/>
   </g>
   <g id="PathCollection_4">
    <path d="M 107.265306 89.079766 
L 111.085714 90.205877 
L 114.906122 90.86964 
L 118.726531 90.848354 
L 122.546939 89.30876 
L 124.165307 87.937401 
L 122.546939 86.276153 
L 121.278211 84.451989 
L 118.726531 83.167032 
L 114.906122 81.448729 
L 113.639255 80.966578 
L 111.085714 80.205627 
L 107.265306 79.606583 
L 103.444898 79.68771 
L 99.62449 80.812009 
L 99.384976 80.966578 
L 99.62449 83.692572 
L 99.680966 84.451989 
L 103.444898 87.250363 
L 104.479376 87.937401 
z
M 110.649276 87.937401 
L 107.265306 86.070037 
L 104.564841 84.451989 
L 107.265306 82.63344 
L 111.085714 82.899546 
L 114.906122 84.023527 
L 115.875725 84.451989 
L 116.93173 87.937401 
L 114.906122 88.361619 
L 111.085714 88.060372 
z
" clip-path="url(#p71d0ec8351)" style="fill: #a30f15"/>
    <path d="M 134.008163 88.120079 
L 137.828571 90.114486 
L 141.64898 88.260845 
L 141.79403 87.937401 
L 142.486386 84.451989 
L 142.543885 80.966578 
L 142.03871 77.481167 
L 141.64898 75.932053 
L 141.058553 73.995756 
L 139.516414 70.510345 
L 137.828571 67.561235 
L 137.166443 67.024934 
L 134.008163 64.410274 
L 130.646809 67.024934 
L 130.187755 69.009398 
L 130.047979 70.510345 
L 130.187755 71.836381 
L 130.454368 73.995756 
L 131.065516 77.481167 
L 131.61373 80.966578 
L 132.06514 84.451989 
L 133.708396 87.937401 
z
M 135.248417 80.966578 
L 134.008163 79.199418 
L 133.592099 77.481167 
L 133.115313 73.995756 
L 133.498534 70.510345 
L 134.008163 69.59288 
L 135.213842 70.510345 
L 137.828571 72.481231 
L 138.455291 73.995756 
L 139.253511 77.481167 
L 139.246846 80.966578 
L 137.828571 84.242782 
z
" clip-path="url(#p71d0ec8351)" style="fill: #a30f15"/>
   </g>
   <g id="PathCollection_5">
    <path d="M 111.085714 88.060372 
L 114.906122 88.361619 
L 116.93173 87.937401 
L 115.875725 84.451989 
L 114.906122 84.023527 
L 111.085714 82.899546 
L 107.265306 82.63344 
L 104.564841 84.451989 
L 107.265306 86.070037 
L 110.649276 87.937401 
z
" clip-path="url(#p71d0ec8351)" style="fill: #67000d"/>
    <path d="M 137.828571 84.242782 
L 139.246846 80.966578 
L 139.253511 77.481167 
L 138.455291 73.995756 
L 137.828571 72.481231 
L 135.213842 70.510345 
L 134.008163 69.59288 
L 133.498534 70.510345 
L 133.115313 73.995756 
L 133.592099 77.481167 
L 134.008163 79.199418 
L 135.248417 80.966578 
z
" clip-path="url(#p71d0ec8351)" style="fill: #67000d"/>
   </g>
   <g id="matplotlib.axis_1">
    <g id="xtick_1">
     <g id="line2d_1">
      <defs>
       <path id="m75891c03ed" d="M 0 0 
L 0 3.5 
" style="stroke: #000000; stroke-width: 0.8"/>
      </defs>
      <g>
       <use xlink:href="#m75891c03ed" x="60.725788" y="126.276923" style="stroke: #000000; stroke-width: 0.8"/>
      </g>
     </g>
     <g id="text_1">
      <!-- −5 -->
      <g transform="translate(53.354695 140.875361) scale(0.1 -0.1)">
       <defs>
        <path id="DejaVuSans-2212" d="M 678 2272 
L 4684 2272 
L 4684 1741 
L 678 1741 
L 678 2272 
z
" transform="scale(0.015625)"/>
        <path id="DejaVuSans-35" d="M 691 4666 
L 3169 4666 
L 3169 4134 
L 1269 4134 
L 1269 2991 
Q 1406 3038 1543 3061 
Q 1681 3084 1819 3084 
Q 2600 3084 3056 2656 
Q 3513 2228 3513 1497 
Q 3513 744 3044 326 
Q 2575 -91 1722 -91 
Q 1428 -91 1123 -41 
Q 819 9 494 109 
L 494 744 
Q 775 591 1075 516 
Q 1375 441 1709 441 
Q 2250 441 2565 725 
Q 2881 1009 2881 1497 
Q 2881 1984 2565 2268 
Q 2250 2553 1709 2553 
Q 1456 2553 1204 2497 
Q 953 2441 691 2322 
L 691 4666 
z
" transform="scale(0.015625)"/>
       </defs>
       <use xlink:href="#DejaVuSans-2212"/>
       <use xlink:href="#DejaVuSans-35" x="83.789062"/>
      </g>
     </g>
    </g>
    <g id="xtick_2">
     <g id="line2d_2">
      <g>
       <use xlink:href="#m75891c03ed" x="111.085714" y="126.276923" style="stroke: #000000; stroke-width: 0.8"/>
      </g>
     </g>
     <g id="text_2">
      <!-- 0 -->
      <g transform="translate(107.904464 140.875361) scale(0.1 -0.1)">
       <defs>
        <path id="DejaVuSans-30" d="M 2034 4250 
Q 1547 4250 1301 3770 
Q 1056 3291 1056 2328 
Q 1056 1369 1301 889 
Q 1547 409 2034 409 
Q 2525 409 2770 889 
Q 3016 1369 3016 2328 
Q 3016 3291 2770 3770 
Q 2525 4250 2034 4250 
z
M 2034 4750 
Q 2819 4750 3233 4129 
Q 3647 3509 3647 2328 
Q 3647 1150 3233 529 
Q 2819 -91 2034 -91 
Q 1250 -91 836 529 
Q 422 1150 422 2328 
Q 422 3509 836 4129 
Q 1250 4750 2034 4750 
z
" transform="scale(0.015625)"/>
       </defs>
       <use xlink:href="#DejaVuSans-30"/>
      </g>
     </g>
    </g>
    <g id="xtick_3">
     <g id="line2d_3">
      <g>
       <use xlink:href="#m75891c03ed" x="161.44564" y="126.276923" style="stroke: #000000; stroke-width: 0.8"/>
      </g>
     </g>
     <g id="text_3">
      <!-- 5 -->
      <g transform="translate(158.26439 140.875361) scale(0.1 -0.1)">
       <use xlink:href="#DejaVuSans-35"/>
      </g>
     </g>
    </g>
    <g id="text_4">
     <!-- Model variable 1 -->
     <g transform="translate(69.541183 154.553486) scale(0.1 -0.1)">
      <defs>
       <path id="DejaVuSans-4d" d="M 628 4666 
L 1569 4666 
L 2759 1491 
L 3956 4666 
L 4897 4666 
L 4897 0 
L 4281 0 
L 4281 4097 
L 3078 897 
L 2444 897 
L 1241 4097 
L 1241 0 
L 628 0 
L 628 4666 
z
" transform="scale(0.015625)"/>
       <path id="DejaVuSans-6f" d="M 1959 3097 
Q 1497 3097 1228 2736 
Q 959 2375 959 1747 
Q 959 1119 1226 758 
Q 1494 397 1959 397 
Q 2419 397 2687 759 
Q 2956 1122 2956 1747 
Q 2956 2369 2687 2733 
Q 2419 3097 1959 3097 
z
M 1959 3584 
Q 2709 3584 3137 3096 
Q 3566 2609 3566 1747 
Q 3566 888 3137 398 
Q 2709 -91 1959 -91 
Q 1206 -91 779 398 
Q 353 888 353 1747 
Q 353 2609 779 3096 
Q 1206 3584 1959 3584 
z
" transform="scale(0.015625)"/>
       <path id="DejaVuSans-64" d="M 2906 2969 
L 2906 4863 
L 3481 4863 
L 3481 0 
L 2906 0 
L 2906 525 
Q 2725 213 2448 61 
Q 2172 -91 1784 -91 
Q 1150 -91 751 415 
Q 353 922 353 1747 
Q 353 2572 751 3078 
Q 1150 3584 1784 3584 
Q 2172 3584 2448 3432 
Q 2725 3281 2906 2969 
z
M 947 1747 
Q 947 1113 1208 752 
Q 1469 391 1925 391 
Q 2381 391 2643 752 
Q 2906 1113 2906 1747 
Q 2906 2381 2643 2742 
Q 2381 3103 1925 3103 
Q 1469 3103 1208 2742 
Q 947 2381 947 1747 
z
" transform="scale(0.015625)"/>
       <path id="DejaVuSans-65" d="M 3597 1894 
L 3597 1613 
L 953 1613 
Q 991 1019 1311 708 
Q 1631 397 2203 397 
Q 2534 397 2845 478 
Q 3156 559 3463 722 
L 3463 178 
Q 3153 47 2828 -22 
Q 2503 -91 2169 -91 
Q 1331 -91 842 396 
Q 353 884 353 1716 
Q 353 2575 817 3079 
Q 1281 3584 2069 3584 
Q 2775 3584 3186 3129 
Q 3597 2675 3597 1894 
z
M 3022 2063 
Q 3016 2534 2758 2815 
Q 2500 3097 2075 3097 
Q 1594 3097 1305 2825 
Q 1016 2553 972 2059 
L 3022 2063 
z
" transform="scale(0.015625)"/>
       <path id="DejaVuSans-6c" d="M 603 4863 
L 1178 4863 
L 1178 0 
L 603 0 
L 603 4863 
z
" transform="scale(0.015625)"/>
       <path id="DejaVuSans-20" transform="scale(0.015625)"/>
       <path id="DejaVuSans-76" d="M 191 3500 
L 800 3500 
L 1894 563 
L 2988 3500 
L 3597 3500 
L 2284 0 
L 1503 0 
L 191 3500 
z
" transform="scale(0.015625)"/>
       <path id="DejaVuSans-61" d="M 2194 1759 
Q 1497 1759 1228 1600 
Q 959 1441 959 1056 
Q 959 750 1161 570 
Q 1363 391 1709 391 
Q 2188 391 2477 730 
Q 2766 1069 2766 1631 
L 2766 1759 
L 2194 1759 
z
M 3341 1997 
L 3341 0 
L 2766 0 
L 2766 531 
Q 2569 213 2275 61 
Q 1981 -91 1556 -91 
Q 1019 -91 701 211 
Q 384 513 384 1019 
Q 384 1609 779 1909 
Q 1175 2209 1959 2209 
L 2766 2209 
L 2766 2266 
Q 2766 2663 2505 2880 
Q 2244 3097 1772 3097 
Q 1472 3097 1187 3025 
Q 903 2953 641 2809 
L 641 3341 
Q 956 3463 1253 3523 
Q 1550 3584 1831 3584 
Q 2591 3584 2966 3190 
Q 3341 2797 3341 1997 
z
" transform="scale(0.015625)"/>
       <path id="DejaVuSans-72" d="M 2631 2963 
Q 2534 3019 2420 3045 
Q 2306 3072 2169 3072 
Q 1681 3072 1420 2755 
Q 1159 2438 1159 1844 
L 1159 0 
L 581 0 
L 581 3500 
L 1159 3500 
L 1159 2956 
Q 1341 3275 1631 3429 
Q 1922 3584 2338 3584 
Q 2397 3584 2469 3576 
Q 2541 3569 2628 3553 
L 2631 2963 
z
" transform="scale(0.015625)"/>
       <path id="DejaVuSans-69" d="M 603 3500 
L 1178 3500 
L 1178 0 
L 603 0 
L 603 3500 
z
M 603 4863 
L 1178 4863 
L 1178 4134 
L 603 4134 
L 603 4863 
z
" transform="scale(0.015625)"/>
       <path id="DejaVuSans-62" d="M 3116 1747 
Q 3116 2381 2855 2742 
Q 2594 3103 2138 3103 
Q 1681 3103 1420 2742 
Q 1159 2381 1159 1747 
Q 1159 1113 1420 752 
Q 1681 391 2138 391 
Q 2594 391 2855 752 
Q 3116 1113 3116 1747 
z
M 1159 2969 
Q 1341 3281 1617 3432 
Q 1894 3584 2278 3584 
Q 2916 3584 3314 3078 
Q 3713 2572 3713 1747 
Q 3713 922 3314 415 
Q 2916 -91 2278 -91 
Q 1894 -91 1617 61 
Q 1341 213 1159 525 
L 1159 0 
L 581 0 
L 581 4863 
L 1159 4863 
L 1159 2969 
z
" transform="scale(0.015625)"/>
       <path id="DejaVuSans-31" d="M 794 531 
L 1825 531 
L 1825 4091 
L 703 3866 
L 703 4441 
L 1819 4666 
L 2450 4666 
L 2450 531 
L 3481 531 
L 3481 0 
L 794 0 
L 794 531 
z
" transform="scale(0.015625)"/>
      </defs>
      <use xlink:href="#DejaVuSans-4d"/>
      <use xlink:href="#DejaVuSans-6f" x="86.279297"/>
      <use xlink:href="#DejaVuSans-64" x="147.460938"/>
      <use xlink:href="#DejaVuSans-65" x="210.9375"/>
      <use xlink:href="#DejaVuSans-6c" x="272.460938"/>
      <use xlink:href="#DejaVuSans-20" x="300.244141"/>
      <use xlink:href="#DejaVuSans-76" x="332.03125"/>
      <use xlink:href="#DejaVuSans-61" x="391.210938"/>
      <use xlink:href="#DejaVuSans-72" x="452.490234"/>
      <use xlink:href="#DejaVuSans-69" x="493.603516"/>
      <use xlink:href="#DejaVuSans-61" x="521.386719"/>
      <use xlink:href="#DejaVuSans-62" x="582.666016"/>
      <use xlink:href="#DejaVuSans-6c" x="646.142578"/>
      <use xlink:href="#DejaVuSans-65" x="673.925781"/>
      <use xlink:href="#DejaVuSans-20" x="735.449219"/>
      <use xlink:href="#DejaVuSans-31" x="767.236328"/>
     </g>
    </g>
   </g>
   <g id="matplotlib.axis_2">
    <g id="ytick_1">
     <g id="line2d_4">
      <defs>
       <path id="m7f220ff8f2" d="M 0 0 
L -3.5 0 
" style="stroke: #000000; stroke-width: 0.8"/>
      </defs>
      <g>
       <use xlink:href="#m7f220ff8f2" x="57.6" y="123.266795" style="stroke: #000000; stroke-width: 0.8"/>
      </g>
     </g>
     <g id="text_5">
      <!-- −5.0 -->
      <g transform="translate(26.317187 127.066014) scale(0.1 -0.1)">
       <defs>
        <path id="DejaVuSans-2e" d="M 684 794 
L 1344 794 
L 1344 0 
L 684 0 
L 684 794 
z
" transform="scale(0.015625)"/>
       </defs>
       <use xlink:href="#DejaVuSans-2212"/>
       <use xlink:href="#DejaVuSans-35" x="83.789062"/>
       <use xlink:href="#DejaVuSans-2e" x="147.412109"/>
       <use xlink:href="#DejaVuSans-30" x="179.199219"/>
      </g>
     </g>
    </g>
    <g id="ytick_2">
     <g id="line2d_5">
      <g>
       <use xlink:href="#m7f220ff8f2" x="57.6" y="99.502628" style="stroke: #000000; stroke-width: 0.8"/>
      </g>
     </g>
     <g id="text_6">
      <!-- −2.5 -->
      <g transform="translate(26.317187 103.301847) scale(0.1 -0.1)">
       <defs>
        <path id="DejaVuSans-32" d="M 1228 531 
L 3431 531 
L 3431 0 
L 469 0 
L 469 531 
Q 828 903 1448 1529 
Q 2069 2156 2228 2338 
Q 2531 2678 2651 2914 
Q 2772 3150 2772 3378 
Q 2772 3750 2511 3984 
Q 2250 4219 1831 4219 
Q 1534 4219 1204 4116 
Q 875 4013 500 3803 
L 500 4441 
Q 881 4594 1212 4672 
Q 1544 4750 1819 4750 
Q 2544 4750 2975 4387 
Q 3406 4025 3406 3419 
Q 3406 3131 3298 2873 
Q 3191 2616 2906 2266 
Q 2828 2175 2409 1742 
Q 1991 1309 1228 531 
z
" transform="scale(0.015625)"/>
       </defs>
       <use xlink:href="#DejaVuSans-2212"/>
       <use xlink:href="#DejaVuSans-32" x="83.789062"/>
       <use xlink:href="#DejaVuSans-2e" x="147.412109"/>
       <use xlink:href="#DejaVuSans-35" x="179.199219"/>
      </g>
     </g>
    </g>
    <g id="ytick_3">
     <g id="line2d_6">
      <g>
       <use xlink:href="#m7f220ff8f2" x="57.6" y="75.738462" style="stroke: #000000; stroke-width: 0.8"/>
      </g>
     </g>
     <g id="text_7">
      <!-- 0.0 -->
      <g transform="translate(34.696875 79.53768) scale(0.1 -0.1)">
       <use xlink:href="#DejaVuSans-30"/>
       <use xlink:href="#DejaVuSans-2e" x="63.623047"/>
       <use xlink:href="#DejaVuSans-30" x="95.410156"/>
      </g>
     </g>
    </g>
    <g id="ytick_4">
     <g id="line2d_7">
      <g>
       <use xlink:href="#m7f220ff8f2" x="57.6" y="51.974295" style="stroke: #000000; stroke-width: 0.8"/>
      </g>
     </g>
     <g id="text_8">
      <!-- 2.5 -->
      <g transform="translate(34.696875 55.773513) scale(0.1 -0.1)">
       <use xlink:href="#DejaVuSans-32"/>
       <use xlink:href="#DejaVuSans-2e" x="63.623047"/>
       <use xlink:href="#DejaVuSans-35" x="95.410156"/>
      </g>
     </g>
    </g>
    <g id="ytick_5">
     <g id="line2d_8">
      <g>
       <use xlink:href="#m7f220ff8f2" x="57.6" y="28.210128" style="stroke: #000000; stroke-width: 0.8"/>
      </g>
     </g>
     <g id="text_9">
      <!-- 5.0 -->
      <g transform="translate(34.696875 32.009347) scale(0.1 -0.1)">
       <use xlink:href="#DejaVuSans-35"/>
       <use xlink:href="#DejaVuSans-2e" x="63.623047"/>
       <use xlink:href="#DejaVuSans-30" x="95.410156"/>
      </g>
     </g>
    </g>
    <g id="text_10">
     <!-- Model variable 2 -->
     <g transform="translate(20.2375 117.282993) rotate(-90) scale(0.1 -0.1)">
      <use xlink:href="#DejaVuSans-4d"/>
      <use xlink:href="#DejaVuSans-6f" x="86.279297"/>
      <use xlink:href="#DejaVuSans-64" x="147.460938"/>
      <use xlink:href="#DejaVuSans-65" x="210.9375"/>
      <use xlink:href="#DejaVuSans-6c" x="272.460938"/>
      <use xlink:href="#DejaVuSans-20" x="300.244141"/>
      <use xlink:href="#DejaVuSans-76" x="332.03125"/>
      <use xlink:href="#DejaVuSans-61" x="391.210938"/>
      <use xlink:href="#DejaVuSans-72" x="452.490234"/>
      <use xlink:href="#DejaVuSans-69" x="493.603516"/>
      <use xlink:href="#DejaVuSans-61" x="521.386719"/>
      <use xlink:href="#DejaVuSans-62" x="582.666016"/>
      <use xlink:href="#DejaVuSans-6c" x="646.142578"/>
      <use xlink:href="#DejaVuSans-65" x="673.925781"/>
      <use xlink:href="#DejaVuSans-20" x="735.449219"/>
      <use xlink:href="#DejaVuSans-32" x="767.236328"/>
     </g>
    </g>
   </g>
   <g id="patch_3">
    <path d="M 57.6 126.276923 
L 57.6 25.2 
" style="fill: none; stroke: #000000; stroke-width: 0.8; stroke-linejoin: miter; stroke-linecap: square"/>
   </g>
   <g id="patch_4">
    <path d="M 164.571429 126.276923 
L 164.571429 25.2 
" style="fill: none; stroke: #000000; stroke-width: 0.8; stroke-linejoin: miter; stroke-linecap: square"/>
   </g>
   <g id="patch_5">
    <path d="M 57.6 126.276923 
L 164.571429 126.276923 
" style="fill: none; stroke: #000000; stroke-width: 0.8; stroke-linejoin: miter; stroke-linecap: square"/>
   </g>
   <g id="patch_6">
    <path d="M 57.6 25.2 
L 164.571429 25.2 
" style="fill: none; stroke: #000000; stroke-width: 0.8; stroke-linejoin: miter; stroke-linecap: square"/>
   </g>
   <g id="text_11">
    <!-- True PDF -->
    <g transform="translate(84.749464 19.2) scale(0.12 -0.12)">
     <defs>
      <path id="DejaVuSans-54" d="M -19 4666 
L 3928 4666 
L 3928 4134 
L 2272 4134 
L 2272 0 
L 1638 0 
L 1638 4134 
L -19 4134 
L -19 4666 
z
" transform="scale(0.015625)"/>
      <path id="DejaVuSans-75" d="M 544 1381 
L 544 3500 
L 1119 3500 
L 1119 1403 
Q 1119 906 1312 657 
Q 1506 409 1894 409 
Q 2359 409 2629 706 
Q 2900 1003 2900 1516 
L 2900 3500 
L 3475 3500 
L 3475 0 
L 2900 0 
L 2900 538 
Q 2691 219 2414 64 
Q 2138 -91 1772 -91 
Q 1169 -91 856 284 
Q 544 659 544 1381 
z
M 1991 3584 
L 1991 3584 
z
" transform="scale(0.015625)"/>
      <path id="DejaVuSans-50" d="M 1259 4147 
L 1259 2394 
L 2053 2394 
Q 2494 2394 2734 2622 
Q 2975 2850 2975 3272 
Q 2975 3691 2734 3919 
Q 2494 4147 2053 4147 
L 1259 4147 
z
M 628 4666 
L 2053 4666 
Q 2838 4666 3239 4311 
Q 3641 3956 3641 3272 
Q 3641 2581 3239 2228 
Q 2838 1875 2053 1875 
L 1259 1875 
L 1259 0 
L 628 0 
L 628 4666 
z
" transform="scale(0.015625)"/>
      <path id="DejaVuSans-44" d="M 1259 4147 
L 1259 519 
L 2022 519 
Q 2988 519 3436 956 
Q 3884 1394 3884 2338 
Q 3884 3275 3436 3711 
Q 2988 4147 2022 4147 
L 1259 4147 
z
M 628 4666 
L 1925 4666 
Q 3281 4666 3915 4102 
Q 4550 3538 4550 2338 
Q 4550 1131 3912 565 
Q 3275 0 1925 0 
L 628 0 
L 628 4666 
z
" transform="scale(0.015625)"/>
      <path id="DejaVuSans-46" d="M 628 4666 
L 3309 4666 
L 3309 4134 
L 1259 4134 
L 1259 2759 
L 3109 2759 
L 3109 2228 
L 1259 2228 
L 1259 0 
L 628 0 
L 628 4666 
z
" transform="scale(0.015625)"/>
     </defs>
     <use xlink:href="#DejaVuSans-54"/>
     <use xlink:href="#DejaVuSans-72" x="46.333984"/>
     <use xlink:href="#DejaVuSans-75" x="87.447266"/>
     <use xlink:href="#DejaVuSans-65" x="150.826172"/>
     <use xlink:href="#DejaVuSans-20" x="212.349609"/>
     <use xlink:href="#DejaVuSans-50" x="244.136719"/>
     <use xlink:href="#DejaVuSans-44" x="304.439453"/>
     <use xlink:href="#DejaVuSans-46" x="381.441406"/>
    </g>
   </g>
  </g>
  <g id="axes_2">
   <g id="patch_7">
    <path d="M 175.268571 126.276923 
L 282.24 126.276923 
L 282.24 25.2 
L 175.268571 25.2 
z
" style="fill: #ffffff"/>
   </g>
   <g id="PathCollection_6">
    <path d="M 232.574694 98.469111 
L 236.395102 98.980359 
L 240.21551 99.678612 
L 244.035918 100.5528 
L 247.856327 101.305507 
L 251.676735 101.383592 
L 255.497143 101.174268 
L 259.317551 100.138957 
L 262.250091 98.393634 
L 263.137959 97.966867 
L 266.879668 94.908223 
L 266.958367 94.819737 
L 269.785469 91.422812 
L 270.77542 87.937401 
L 270.778776 87.922041 
L 271.915608 84.451989 
L 272.049956 80.966578 
L 271.573232 77.481167 
L 270.778776 75.218087 
L 270.499485 73.995756 
L 269.519761 70.510345 
L 267.672799 67.024934 
L 266.958367 65.545258 
L 266.178718 63.539523 
L 263.866677 60.054111 
L 263.137959 59.127862 
L 260.689937 56.5687 
L 259.317551 55.414602 
L 255.497143 53.344807 
L 253.43483 53.083289 
L 251.676735 52.776153 
L 247.856327 52.947988 
L 247.410612 53.083289 
L 244.035918 53.936721 
L 240.21551 55.364108 
L 236.395102 56.180407 
L 234.668025 56.5687 
L 232.574694 56.957075 
L 228.754286 57.057437 
L 224.933878 57.345597 
L 221.113469 58.918844 
L 219.250471 60.054111 
L 217.293061 61.167819 
L 214.200078 63.539523 
L 213.472653 64.24053 
L 211.272817 67.024934 
L 209.652245 69.113782 
L 208.554506 70.510345 
L 206.937537 73.995756 
L 205.831837 77.336686 
L 205.771482 77.481167 
L 204.981522 80.966578 
L 205.630989 84.451989 
L 205.831837 84.941144 
L 206.991273 87.937401 
L 209.652245 90.893569 
L 210.135967 91.422812 
L 213.472653 94.194055 
L 214.77248 94.908223 
L 217.293061 96.289244 
L 221.113469 97.61428 
L 224.933878 98.138581 
L 228.754286 98.380879 
L 229.575673 98.393634 
z
M 245.580833 94.908223 
L 244.035918 94.523036 
L 240.21551 93.428173 
L 236.395102 92.155669 
L 232.574694 91.938701 
L 228.754286 91.644947 
L 227.42301 91.422812 
L 224.933878 90.978346 
L 221.113469 89.720856 
L 218.479309 87.937401 
L 217.293061 86.776015 
L 215.673756 84.451989 
L 214.92007 80.966578 
L 215.432544 77.481167 
L 217.293061 74.785461 
L 218.020354 73.995756 
L 221.113469 71.702817 
L 223.395962 70.510345 
L 224.933878 69.700606 
L 228.754286 68.982195 
L 232.574694 68.66644 
L 236.395102 68.117351 
L 239.690841 67.024934 
L 240.21551 66.804883 
L 244.035918 64.542721 
L 246.976813 63.539523 
L 247.856327 63.135571 
L 251.676735 62.305863 
L 255.497143 63.387815 
L 255.72 63.539523 
L 259.317551 66.254457 
L 259.950949 67.024934 
L 262.355362 70.510345 
L 263.137959 71.75235 
L 264.495524 73.995756 
L 265.766144 77.481167 
L 266.26376 80.966578 
L 266.096022 84.451989 
L 264.996478 87.937401 
L 263.137959 90.643988 
L 262.487067 91.422812 
L 259.317551 94.033734 
L 257.032636 94.908223 
L 255.497143 95.513369 
L 251.676735 96.013121 
L 247.856327 95.633374 
z
" clip-path="url(#p440d81afbf)" style="fill: #fee0d2"/>
   </g>
   <g id="PathCollection_7">
    <path d="M 247.856327 95.633374 
L 251.676735 96.013121 
L 255.497143 95.513369 
L 257.032636 94.908223 
L 259.317551 94.033734 
L 262.487067 91.422812 
L 263.137959 90.643988 
L 264.996478 87.937401 
L 266.096022 84.451989 
L 266.26376 80.966578 
L 265.766144 77.481167 
L 264.495524 73.995756 
L 263.137959 71.75235 
L 262.355362 70.510345 
L 259.950949 67.024934 
L 259.317551 66.254457 
L 255.72 63.539523 
L 255.497143 63.387815 
L 251.676735 62.305863 
L 247.856327 63.135571 
L 246.976813 63.539523 
L 244.035918 64.542721 
L 240.21551 66.804883 
L 239.690841 67.024934 
L 236.395102 68.117351 
L 232.574694 68.66644 
L 228.754286 68.982195 
L 224.933878 69.700606 
L 223.395962 70.510345 
L 221.113469 71.702817 
L 218.020354 73.995756 
L 217.293061 74.785461 
L 215.432544 77.481167 
L 214.92007 80.966578 
L 215.673756 84.451989 
L 217.293061 86.776015 
L 218.479309 87.937401 
L 221.113469 89.720856 
L 224.933878 90.978346 
L 227.42301 91.422812 
L 228.754286 91.644947 
L 232.574694 91.938701 
L 236.395102 92.155669 
L 240.21551 93.428173 
L 244.035918 94.523036 
L 245.580833 94.908223 
z
M 245.734644 91.422812 
L 244.035918 90.829054 
L 240.21551 88.727323 
L 238.130606 87.937401 
L 236.395102 86.914272 
L 232.574694 85.826955 
L 228.754286 85.131696 
L 226.230539 84.451989 
L 224.933878 83.198464 
L 223.99926 80.966578 
L 224.933878 79.867981 
L 228.012723 77.481167 
L 228.754286 77.207661 
L 232.574694 76.322824 
L 236.395102 75.492774 
L 238.365565 73.995756 
L 240.21551 73.017078 
L 244.035918 70.652082 
L 244.327837 70.510345 
L 247.856327 68.885804 
L 251.676735 68.327063 
L 255.497143 69.432871 
L 256.81627 70.510345 
L 259.317551 72.751756 
L 260.19041 73.995756 
L 262.076878 77.481167 
L 262.784321 80.966578 
L 262.373497 84.451989 
L 260.805619 87.937401 
L 259.317551 89.591793 
L 256.484776 91.422812 
L 255.497143 91.913797 
L 251.676735 92.57934 
L 247.856327 92.016142 
z
" clip-path="url(#p440d81afbf)" style="fill: #fc9272"/>
   </g>
   <g id="PathCollection_8">
    <path d="M 247.856327 92.016142 
L 251.676735 92.57934 
L 255.497143 91.913797 
L 256.484776 91.422812 
L 259.317551 89.591793 
L 260.805619 87.937401 
L 262.373497 84.451989 
L 262.784321 80.966578 
L 262.076878 77.481167 
L 260.19041 73.995756 
L 259.317551 72.751756 
L 256.81627 70.510345 
L 255.497143 69.432871 
L 251.676735 68.327063 
L 247.856327 68.885804 
L 244.327837 70.510345 
L 244.035918 70.652082 
L 240.21551 73.017078 
L 238.365565 73.995756 
L 236.395102 75.492774 
L 232.574694 76.322824 
L 228.754286 77.207661 
L 228.012723 77.481167 
L 224.933878 79.867981 
L 223.99926 80.966578 
L 224.933878 83.198464 
L 226.230539 84.451989 
L 228.754286 85.131696 
L 232.574694 85.826955 
L 236.395102 86.914272 
L 238.130606 87.937401 
L 240.21551 88.727323 
L 244.035918 90.829054 
L 245.734644 91.422812 
z
M 246.180221 87.937401 
L 244.035918 86.266436 
L 241.881044 84.451989 
L 240.538759 80.966578 
L 242.405056 77.481167 
L 244.035918 75.999867 
L 246.612296 73.995756 
L 247.856327 73.300723 
L 251.676735 72.588099 
L 255.497143 73.683911 
L 255.843089 73.995756 
L 258.468589 77.481167 
L 259.317551 79.380375 
L 259.809749 80.966578 
L 259.317551 83.154367 
L 258.958265 84.451989 
L 256.229189 87.937401 
L 255.497143 88.455355 
L 251.676735 89.442454 
L 247.856327 88.758583 
z
" clip-path="url(#p440d81afbf)" style="fill: #ee3a2c"/>
   </g>
   <g id="PathCollection_9">
    <path d="M 247.856327 88.758583 
L 251.676735 89.442454 
L 255.497143 88.455355 
L 256.229189 87.937401 
L 258.958265 84.451989 
L 259.317551 83.154367 
L 259.809749 80.966578 
L 259.317551 79.380375 
L 258.468589 77.481167 
L 255.843089 73.995756 
L 255.497143 73.683911 
L 251.676735 72.588099 
L 247.856327 73.300723 
L 246.612296 73.995756 
L 244.035918 75.999867 
L 242.405056 77.481167 
L 240.538759 80.966578 
L 241.881044 84.451989 
L 244.035918 86.266436 
L 246.180221 87.937401 
z
M 247.487494 84.451989 
L 246.267403 80.966578 
L 247.856327 78.51594 
L 250.425306 77.481167 
L 251.676735 77.20828 
L 252.279274 77.481167 
L 255.497143 80.413856 
L 255.744515 80.966578 
L 255.497143 82.759241 
L 254.8759 84.451989 
L 251.676735 85.67343 
L 247.856327 84.747464 
z
" clip-path="url(#p440d81afbf)" style="fill: #a30f15"/>
   </g>
   <g id="PathCollection_10">
    <path d="M 247.856327 84.747464 
L 251.676735 85.67343 
L 254.8759 84.451989 
L 255.497143 82.759241 
L 255.744515 80.966578 
L 255.497143 80.413856 
L 252.279274 77.481167 
L 251.676735 77.20828 
L 250.425306 77.481167 
L 247.856327 78.51594 
L 246.267403 80.966578 
L 247.487494 84.451989 
z
" clip-path="url(#p440d81afbf)" style="fill: #67000d"/>
   </g>
   <g id="matplotlib.axis_3">
    <g id="xtick_4">
     <g id="line2d_9">
      <g>
       <use xlink:href="#m75891c03ed" x="178.39436" y="126.276923" style="stroke: #000000; stroke-width: 0.8"/>
      </g>
     </g>
     <g id="text_12">
      <!-- −5 -->
      <g transform="translate(171.023266 140.875361) scale(0.1 -0.1)">
       <use xlink:href="#DejaVuSans-2212"/>
       <use xlink:href="#DejaVuSans-35" x="83.789062"/>
      </g>
     </g>
    </g>
    <g id="xtick_5">
     <g id="line2d_10">
      <g>
       <use xlink:href="#m75891c03ed" x="228.754286" y="126.276923" style="stroke: #000000; stroke-width: 0.8"/>
      </g>
     </g>
     <g id="text_13">
      <!-- 0 -->
      <g transform="translate(225.573036 140.875361) scale(0.1 -0.1)">
       <use xlink:href="#DejaVuSans-30"/>
      </g>
     </g>
    </g>
    <g id="xtick_6">
     <g id="line2d_11">
      <g>
       <use xlink:href="#m75891c03ed" x="279.114212" y="126.276923" style="stroke: #000000; stroke-width: 0.8"/>
      </g>
     </g>
     <g id="text_14">
      <!-- 5 -->
      <g transform="translate(275.932962 140.875361) scale(0.1 -0.1)">
       <use xlink:href="#DejaVuSans-35"/>
      </g>
     </g>
    </g>
    <g id="text_15">
     <!-- Model variable 1 -->
     <g transform="translate(187.209754 154.553486) scale(0.1 -0.1)">
      <use xlink:href="#DejaVuSans-4d"/>
      <use xlink:href="#DejaVuSans-6f" x="86.279297"/>
      <use xlink:href="#DejaVuSans-64" x="147.460938"/>
      <use xlink:href="#DejaVuSans-65" x="210.9375"/>
      <use xlink:href="#DejaVuSans-6c" x="272.460938"/>
      <use xlink:href="#DejaVuSans-20" x="300.244141"/>
      <use xlink:href="#DejaVuSans-76" x="332.03125"/>
      <use xlink:href="#DejaVuSans-61" x="391.210938"/>
      <use xlink:href="#DejaVuSans-72" x="452.490234"/>
      <use xlink:href="#DejaVuSans-69" x="493.603516"/>
      <use xlink:href="#DejaVuSans-61" x="521.386719"/>
      <use xlink:href="#DejaVuSans-62" x="582.666016"/>
      <use xlink:href="#DejaVuSans-6c" x="646.142578"/>
      <use xlink:href="#DejaVuSans-65" x="673.925781"/>
      <use xlink:href="#DejaVuSans-20" x="735.449219"/>
      <use xlink:href="#DejaVuSans-31" x="767.236328"/>
     </g>
    </g>
   </g>
   <g id="matplotlib.axis_4">
    <g id="ytick_6">
     <g id="line2d_12">
      <g>
       <use xlink:href="#m7f220ff8f2" x="175.268571" y="123.266795" style="stroke: #000000; stroke-width: 0.8"/>
      </g>
     </g>
    </g>
    <g id="ytick_7">
     <g id="line2d_13">
      <g>
       <use xlink:href="#m7f220ff8f2" x="175.268571" y="99.502628" style="stroke: #000000; stroke-width: 0.8"/>
      </g>
     </g>
    </g>
    <g id="ytick_8">
     <g id="line2d_14">
      <g>
       <use xlink:href="#m7f220ff8f2" x="175.268571" y="75.738462" style="stroke: #000000; stroke-width: 0.8"/>
      </g>
     </g>
    </g>
    <g id="ytick_9">
     <g id="line2d_15">
      <g>
       <use xlink:href="#m7f220ff8f2" x="175.268571" y="51.974295" style="stroke: #000000; stroke-width: 0.8"/>
      </g>
     </g>
    </g>
    <g id="ytick_10">
     <g id="line2d_16">
      <g>
       <use xlink:href="#m7f220ff8f2" x="175.268571" y="28.210128" style="stroke: #000000; stroke-width: 0.8"/>
      </g>
     </g>
    </g>
   </g>
   <g id="patch_8">
    <path d="M 175.268571 126.276923 
L 175.268571 25.2 
" style="fill: none; stroke: #000000; stroke-width: 0.8; stroke-linejoin: miter; stroke-linecap: square"/>
   </g>
   <g id="patch_9">
    <path d="M 282.24 126.276923 
L 282.24 25.2 
" style="fill: none; stroke: #000000; stroke-width: 0.8; stroke-linejoin: miter; stroke-linecap: square"/>
   </g>
   <g id="patch_10">
    <path d="M 175.268571 126.276923 
L 282.24 126.276923 
" style="fill: none; stroke: #000000; stroke-width: 0.8; stroke-linejoin: miter; stroke-linecap: square"/>
   </g>
   <g id="patch_11">
    <path d="M 175.268571 25.2 
L 282.24 25.2 
" style="fill: none; stroke: #000000; stroke-width: 0.8; stroke-linejoin: miter; stroke-linecap: square"/>
   </g>
   <g id="text_16">
    <!-- Virt Mems' PDF -->
    <g transform="translate(183.308973 19.2) scale(0.12 -0.12)">
     <defs>
      <path id="DejaVuSans-56" d="M 1831 0 
L 50 4666 
L 709 4666 
L 2188 738 
L 3669 4666 
L 4325 4666 
L 2547 0 
L 1831 0 
z
" transform="scale(0.015625)"/>
      <path id="DejaVuSans-74" d="M 1172 4494 
L 1172 3500 
L 2356 3500 
L 2356 3053 
L 1172 3053 
L 1172 1153 
Q 1172 725 1289 603 
Q 1406 481 1766 481 
L 2356 481 
L 2356 0 
L 1766 0 
Q 1100 0 847 248 
Q 594 497 594 1153 
L 594 3053 
L 172 3053 
L 172 3500 
L 594 3500 
L 594 4494 
L 1172 4494 
z
" transform="scale(0.015625)"/>
      <path id="DejaVuSans-6d" d="M 3328 2828 
Q 3544 3216 3844 3400 
Q 4144 3584 4550 3584 
Q 5097 3584 5394 3201 
Q 5691 2819 5691 2113 
L 5691 0 
L 5113 0 
L 5113 2094 
Q 5113 2597 4934 2840 
Q 4756 3084 4391 3084 
Q 3944 3084 3684 2787 
Q 3425 2491 3425 1978 
L 3425 0 
L 2847 0 
L 2847 2094 
Q 2847 2600 2669 2842 
Q 2491 3084 2119 3084 
Q 1678 3084 1418 2786 
Q 1159 2488 1159 1978 
L 1159 0 
L 581 0 
L 581 3500 
L 1159 3500 
L 1159 2956 
Q 1356 3278 1631 3431 
Q 1906 3584 2284 3584 
Q 2666 3584 2933 3390 
Q 3200 3197 3328 2828 
z
" transform="scale(0.015625)"/>
      <path id="DejaVuSans-73" d="M 2834 3397 
L 2834 2853 
Q 2591 2978 2328 3040 
Q 2066 3103 1784 3103 
Q 1356 3103 1142 2972 
Q 928 2841 928 2578 
Q 928 2378 1081 2264 
Q 1234 2150 1697 2047 
L 1894 2003 
Q 2506 1872 2764 1633 
Q 3022 1394 3022 966 
Q 3022 478 2636 193 
Q 2250 -91 1575 -91 
Q 1294 -91 989 -36 
Q 684 19 347 128 
L 347 722 
Q 666 556 975 473 
Q 1284 391 1588 391 
Q 1994 391 2212 530 
Q 2431 669 2431 922 
Q 2431 1156 2273 1281 
Q 2116 1406 1581 1522 
L 1381 1569 
Q 847 1681 609 1914 
Q 372 2147 372 2553 
Q 372 3047 722 3315 
Q 1072 3584 1716 3584 
Q 2034 3584 2315 3537 
Q 2597 3491 2834 3397 
z
" transform="scale(0.015625)"/>
      <path id="DejaVuSans-27" d="M 1147 4666 
L 1147 2931 
L 616 2931 
L 616 4666 
L 1147 4666 
z
" transform="scale(0.015625)"/>
     </defs>
     <use xlink:href="#DejaVuSans-56"/>
     <use xlink:href="#DejaVuSans-69" x="66.158203"/>
     <use xlink:href="#DejaVuSans-72" x="93.941406"/>
     <use xlink:href="#DejaVuSans-74" x="135.054688"/>
     <use xlink:href="#DejaVuSans-20" x="174.263672"/>
     <use xlink:href="#DejaVuSans-4d" x="206.050781"/>
     <use xlink:href="#DejaVuSans-65" x="292.330078"/>
     <use xlink:href="#DejaVuSans-6d" x="353.853516"/>
     <use xlink:href="#DejaVuSans-73" x="451.265625"/>
     <use xlink:href="#DejaVuSans-27" x="503.365234"/>
     <use xlink:href="#DejaVuSans-20" x="530.855469"/>
     <use xlink:href="#DejaVuSans-50" x="562.642578"/>
     <use xlink:href="#DejaVuSans-44" x="622.945312"/>
     <use xlink:href="#DejaVuSans-46" x="699.947266"/>
    </g>
   </g>
  </g>
  <g id="axes_3">
   <g id="patch_12">
    <path d="M 57.6 288 
L 164.571429 288 
L 164.571429 186.923077 
L 57.6 186.923077 
z
" style="fill: #ffffff"/>
   </g>
   <g id="PathCollection_11">
    <path d="M 103.444898 267.91835 
L 107.265306 269.233845 
L 111.085714 268.273981 
L 114.906122 267.383005 
L 118.726531 267.558853 
L 122.546939 268.195832 
L 126.367347 268.766028 
L 130.187755 268.909944 
L 134.008163 268.121708 
L 135.673553 267.087533 
L 137.828571 265.156862 
L 139.009309 263.602122 
L 140.745728 260.116711 
L 141.64898 256.775272 
L 141.686103 256.6313 
L 142.314041 253.145889 
L 142.666948 249.660477 
L 142.793145 246.175066 
L 142.984147 242.689655 
L 142.928679 239.204244 
L 142.861362 235.718833 
L 142.609376 232.233422 
L 142.252059 228.748011 
L 141.64898 226.669212 
L 141.351764 225.262599 
L 139.612289 221.777188 
L 137.828571 219.651157 
L 136.741703 218.291777 
L 134.008163 215.587098 
L 133.251399 214.806366 
L 130.187755 212.070937 
L 129.290845 211.320955 
L 126.367347 208.759429 
L 125.191718 207.835544 
L 122.546939 205.680291 
L 120.721283 204.350133 
L 118.726531 202.807045 
L 116.100082 200.864721 
L 114.906122 199.908915 
L 111.085714 197.651767 
L 107.265306 198.414935 
L 106.079985 200.864721 
L 105.043094 204.350133 
L 104.483242 207.835544 
L 104.244429 211.320955 
L 104.160757 214.806366 
L 104.167642 218.291777 
L 104.108644 221.777188 
L 103.444898 223.88158 
L 99.62449 223.431455 
L 95.804082 222.793671 
L 91.983673 222.473131 
L 88.163265 222.348191 
L 84.342857 222.465515 
L 80.522449 222.889614 
L 76.702041 223.884765 
L 73.894556 225.262599 
L 72.881633 226.488733 
L 71.406237 228.748011 
L 71.667286 232.233422 
L 72.881633 234.982833 
L 73.108196 235.718833 
L 74.860755 239.204244 
L 76.702041 241.864433 
L 77.145375 242.689655 
L 79.678953 246.175066 
L 80.522449 247.089746 
L 82.639663 249.660477 
L 84.342857 251.570105 
L 85.723579 253.145889 
L 88.163265 255.481168 
L 89.310992 256.6313 
L 91.983673 259.018748 
L 93.231444 260.116711 
L 95.804082 262.247123 
L 97.559541 263.602122 
L 99.62449 265.215901 
L 102.272867 267.087533 
z
M 101.574765 260.116711 
L 99.62449 258.590275 
L 97.428711 256.6313 
L 95.804082 255.004896 
L 93.800661 253.145889 
L 91.983673 251.194492 
L 90.545073 249.660477 
L 88.163265 246.735951 
L 87.67405 246.175066 
L 85.169994 242.689655 
L 84.342857 241.189623 
L 83.088001 239.204244 
L 81.682712 235.718833 
L 81.263822 232.233422 
L 83.263575 228.748011 
L 84.342857 228.166708 
L 88.163265 227.027021 
L 91.983673 226.675701 
L 95.804082 226.840799 
L 99.62449 227.505462 
L 103.053452 228.748011 
L 103.444898 228.880531 
L 107.265306 229.055664 
L 107.40907 228.748011 
L 107.607705 225.262599 
L 107.275741 221.777188 
L 107.265306 221.651546 
L 106.866579 218.291777 
L 106.94201 214.806366 
L 107.265306 212.441954 
L 107.475507 211.320955 
L 109.118684 207.835544 
L 111.085714 205.885104 
L 114.906122 207.65586 
L 115.146267 207.835544 
L 118.726531 210.207668 
L 120.149931 211.320955 
L 122.546939 213.107496 
L 124.529228 214.806366 
L 126.367347 216.512501 
L 128.241647 218.291777 
L 130.187755 220.654014 
L 131.176722 221.777188 
L 132.905367 225.262599 
L 133.283069 228.748011 
L 132.950792 232.233422 
L 132.147213 235.718833 
L 131.117659 239.204244 
L 130.187755 241.313161 
L 129.431638 242.689655 
L 127.364938 246.175066 
L 126.367347 247.507624 
L 122.869674 249.660477 
L 122.546939 249.829837 
L 118.726531 251.005639 
L 115.991911 253.145889 
L 114.906122 253.870787 
L 113.438953 256.6313 
L 111.085714 259.110883 
L 110.320532 260.116711 
L 107.265306 262.4665 
L 103.444898 261.608419 
z
" clip-path="url(#pdd4d2cc5a6)" style="fill: #deebf7"/>
   </g>
   <g id="PathCollection_12">
    <path d="M 103.444898 261.608419 
L 107.265306 262.4665 
L 110.320532 260.116711 
L 111.085714 259.110883 
L 113.438953 256.6313 
L 114.906122 253.870787 
L 115.991911 253.145889 
L 118.726531 251.005639 
L 122.546939 249.829837 
L 122.869674 249.660477 
L 126.367347 247.507624 
L 127.364938 246.175066 
L 129.431638 242.689655 
L 130.187755 241.313161 
L 131.117659 239.204244 
L 132.147213 235.718833 
L 132.950792 232.233422 
L 133.283069 228.748011 
L 132.905367 225.262599 
L 131.176722 221.777188 
L 130.187755 220.654014 
L 128.241647 218.291777 
L 126.367347 216.512501 
L 124.529228 214.806366 
L 122.546939 213.107496 
L 120.149931 211.320955 
L 118.726531 210.207668 
L 115.146267 207.835544 
L 114.906122 207.65586 
L 111.085714 205.885104 
L 109.118684 207.835544 
L 107.475507 211.320955 
L 107.265306 212.441954 
L 106.94201 214.806366 
L 106.866579 218.291777 
L 107.265306 221.651546 
L 107.275741 221.777188 
L 107.607705 225.262599 
L 107.40907 228.748011 
L 107.265306 229.055664 
L 103.444898 228.880531 
L 103.053452 228.748011 
L 99.62449 227.505462 
L 95.804082 226.840799 
L 91.983673 226.675701 
L 88.163265 227.027021 
L 84.342857 228.166708 
L 83.263575 228.748011 
L 81.263822 232.233422 
L 81.682712 235.718833 
L 83.088001 239.204244 
L 84.342857 241.189623 
L 85.169994 242.689655 
L 87.67405 246.175066 
L 88.163265 246.735951 
L 90.545073 249.660477 
L 91.983673 251.194492 
L 93.800661 253.145889 
L 95.804082 255.004896 
L 97.428711 256.6313 
L 99.62449 258.590275 
L 101.574765 260.116711 
z
M 102.556587 256.6313 
L 99.62449 254.113418 
L 98.639782 253.145889 
L 95.804082 250.115028 
L 95.363849 249.660477 
L 92.467813 246.175066 
L 91.983673 245.462927 
L 89.974346 242.689655 
L 88.250785 239.204244 
L 88.163265 238.840218 
L 87.291554 235.718833 
L 88.163265 232.44877 
L 88.253237 232.233422 
L 91.983673 230.381828 
L 95.804082 229.946924 
L 99.62449 230.448793 
L 103.444898 231.913418 
L 104.029375 232.233422 
L 107.265306 235.201219 
L 108.05026 235.718833 
L 110.015789 239.204244 
L 110.614383 242.689655 
L 110.777229 246.175066 
L 110.604886 249.660477 
L 109.89959 253.145889 
L 107.994698 256.6313 
L 107.265306 257.459729 
L 103.444898 257.345939 
z
M 113.41917 232.233422 
L 111.085714 229.031664 
L 110.97999 228.748011 
L 109.850878 225.262599 
L 109.164545 221.777188 
L 109.014647 218.291777 
L 109.584953 214.806366 
L 111.085714 211.618957 
L 114.906122 212.323315 
L 118.69455 214.806366 
L 118.726531 214.826302 
L 122.546939 217.932493 
L 122.935208 218.291777 
L 125.932713 221.777188 
L 126.367347 223.030027 
L 127.261022 225.262599 
L 127.075192 228.748011 
L 126.367347 230.544344 
L 125.223645 232.233422 
L 122.546939 234.910099 
L 118.726531 235.635497 
L 114.906122 234.114817 
z
" clip-path="url(#pdd4d2cc5a6)" style="fill: #9dcae1"/>
   </g>
   <g id="PathCollection_13">
    <path d="M 103.444898 257.345939 
L 107.265306 257.459729 
L 107.994698 256.6313 
L 109.89959 253.145889 
L 110.604886 249.660477 
L 110.777229 246.175066 
L 110.614383 242.689655 
L 110.015789 239.204244 
L 108.05026 235.718833 
L 107.265306 235.201219 
L 104.029375 232.233422 
L 103.444898 231.913418 
L 99.62449 230.448793 
L 95.804082 229.946924 
L 91.983673 230.381828 
L 88.253237 232.233422 
L 88.163265 232.44877 
L 87.291554 235.718833 
L 88.163265 238.840218 
L 88.250785 239.204244 
L 89.974346 242.689655 
L 91.983673 245.462927 
L 92.467813 246.175066 
L 95.363849 249.660477 
L 95.804082 250.115028 
L 98.639782 253.145889 
L 99.62449 254.113418 
L 102.556587 256.6313 
z
M 102.887557 253.145889 
L 99.62449 250.150528 
L 99.154789 249.660477 
L 96.396497 246.175066 
L 95.804082 245.237994 
L 94.098706 242.689655 
L 92.7895 239.204244 
L 92.876962 235.718833 
L 95.804082 233.566257 
L 99.62449 233.493026 
L 103.444898 235.001302 
L 104.228868 235.718833 
L 106.705708 239.204244 
L 107.265306 240.691868 
L 107.956772 242.689655 
L 108.364578 246.175066 
L 108.072632 249.660477 
L 107.265306 252.038771 
L 105.243179 253.145889 
L 103.444898 253.628696 
z
" clip-path="url(#pdd4d2cc5a6)" style="fill: #4191c6"/>
    <path d="M 114.906122 234.114817 
L 118.726531 235.635497 
L 122.546939 234.910099 
L 125.223645 232.233422 
L 126.367347 230.544344 
L 127.075192 228.748011 
L 127.261022 225.262599 
L 126.367347 223.030027 
L 125.932713 221.777188 
L 122.935208 218.291777 
L 122.546939 217.932493 
L 118.726531 214.826302 
L 118.69455 214.806366 
L 114.906122 212.323315 
L 111.085714 211.618957 
L 109.584953 214.806366 
L 109.014647 218.291777 
L 109.164545 221.777188 
L 109.850878 225.262599 
L 110.97999 228.748011 
L 111.085714 229.031664 
L 113.41917 232.233422 
z
M 113.026476 225.262599 
L 111.085714 221.905172 
L 111.053349 221.777188 
L 111.067225 218.291777 
L 111.085714 218.219971 
L 114.906122 216.743759 
L 117.511642 218.291777 
L 118.726531 219.246165 
L 120.997677 221.777188 
L 121.843841 225.262599 
L 118.726531 228.436842 
L 114.906122 227.696518 
z
" clip-path="url(#pdd4d2cc5a6)" style="fill: #4191c6"/>
   </g>
   <g id="PathCollection_14">
    <path d="M 103.444898 253.628696 
L 105.243179 253.145889 
L 107.265306 252.038771 
L 108.072632 249.660477 
L 108.364578 246.175066 
L 107.956772 242.689655 
L 107.265306 240.691868 
L 106.705708 239.204244 
L 104.228868 235.718833 
L 103.444898 235.001302 
L 99.62449 233.493026 
L 95.804082 233.566257 
L 92.876962 235.718833 
L 92.7895 239.204244 
L 94.098706 242.689655 
L 95.804082 245.237994 
L 96.396497 246.175066 
L 99.154789 249.660477 
L 99.62449 250.150528 
L 102.887557 253.145889 
z
M 100.638089 246.175066 
L 99.62449 244.782198 
L 98.523372 242.689655 
L 98.251379 239.204244 
L 99.62449 237.984626 
L 103.444898 238.703246 
L 103.817339 239.204244 
L 104.985613 242.689655 
L 105.135214 246.175066 
L 103.444898 249.14535 
z
" clip-path="url(#pdd4d2cc5a6)" style="fill: #08509b"/>
    <path d="M 114.906122 227.696518 
L 118.726531 228.436842 
L 121.843841 225.262599 
L 120.997677 221.777188 
L 118.726531 219.246165 
L 117.511642 218.291777 
L 114.906122 216.743759 
L 111.085714 218.219971 
L 111.067225 218.291777 
L 111.053349 221.777188 
L 111.085714 221.905172 
L 113.026476 225.262599 
z
" clip-path="url(#pdd4d2cc5a6)" style="fill: #08509b"/>
   </g>
   <g id="PathCollection_15">
    <path d="M 103.444898 249.14535 
L 105.135214 246.175066 
L 104.985613 242.689655 
L 103.817339 239.204244 
L 103.444898 238.703246 
L 99.62449 237.984626 
L 98.251379 239.204244 
L 98.523372 242.689655 
L 99.62449 244.782198 
L 100.638089 246.175066 
z
" clip-path="url(#pdd4d2cc5a6)" style="fill: #08306b"/>
   </g>
   <g id="matplotlib.axis_5">
    <g id="xtick_7">
     <g id="line2d_17">
      <g>
       <use xlink:href="#m75891c03ed" x="69.119109" y="288" style="stroke: #000000; stroke-width: 0.8"/>
      </g>
     </g>
     <g id="text_17">
      <!-- −2.5 -->
      <g transform="translate(56.977703 302.598437) scale(0.1 -0.1)">
       <use xlink:href="#DejaVuSans-2212"/>
       <use xlink:href="#DejaVuSans-32" x="83.789062"/>
       <use xlink:href="#DejaVuSans-2e" x="147.412109"/>
       <use xlink:href="#DejaVuSans-35" x="179.199219"/>
      </g>
     </g>
    </g>
    <g id="xtick_8">
     <g id="line2d_18">
      <g>
       <use xlink:href="#m75891c03ed" x="111.085714" y="288" style="stroke: #000000; stroke-width: 0.8"/>
      </g>
     </g>
     <g id="text_18">
      <!-- 0.0 -->
      <g transform="translate(103.134152 302.598437) scale(0.1 -0.1)">
       <use xlink:href="#DejaVuSans-30"/>
       <use xlink:href="#DejaVuSans-2e" x="63.623047"/>
       <use xlink:href="#DejaVuSans-30" x="95.410156"/>
      </g>
     </g>
    </g>
    <g id="xtick_9">
     <g id="line2d_19">
      <g>
       <use xlink:href="#m75891c03ed" x="153.052319" y="288" style="stroke: #000000; stroke-width: 0.8"/>
      </g>
     </g>
     <g id="text_19">
      <!-- 2.5 -->
      <g transform="translate(145.100757 302.598437) scale(0.1 -0.1)">
       <use xlink:href="#DejaVuSans-32"/>
       <use xlink:href="#DejaVuSans-2e" x="63.623047"/>
       <use xlink:href="#DejaVuSans-35" x="95.410156"/>
      </g>
     </g>
    </g>
    <g id="text_20">
     <!-- Probit variable 1 -->
     <g transform="translate(70.101339 316.276562) scale(0.1 -0.1)">
      <use xlink:href="#DejaVuSans-50"/>
      <use xlink:href="#DejaVuSans-72" x="58.552734"/>
      <use xlink:href="#DejaVuSans-6f" x="97.416016"/>
      <use xlink:href="#DejaVuSans-62" x="158.597656"/>
      <use xlink:href="#DejaVuSans-69" x="222.074219"/>
      <use xlink:href="#DejaVuSans-74" x="249.857422"/>
      <use xlink:href="#DejaVuSans-20" x="289.066406"/>
      <use xlink:href="#DejaVuSans-76" x="320.853516"/>
      <use xlink:href="#DejaVuSans-61" x="380.033203"/>
      <use xlink:href="#DejaVuSans-72" x="441.3125"/>
      <use xlink:href="#DejaVuSans-69" x="482.425781"/>
      <use xlink:href="#DejaVuSans-61" x="510.208984"/>
      <use xlink:href="#DejaVuSans-62" x="571.488281"/>
      <use xlink:href="#DejaVuSans-6c" x="634.964844"/>
      <use xlink:href="#DejaVuSans-65" x="662.748047"/>
      <use xlink:href="#DejaVuSans-20" x="724.271484"/>
      <use xlink:href="#DejaVuSans-31" x="756.058594"/>
     </g>
    </g>
   </g>
   <g id="matplotlib.axis_6">
    <g id="ytick_11">
     <g id="line2d_20">
      <g>
       <use xlink:href="#m7f220ff8f2" x="57.6" y="269.147094" style="stroke: #000000; stroke-width: 0.8"/>
      </g>
     </g>
     <g id="text_21">
      <!-- −2 -->
      <g transform="translate(35.857813 272.946313) scale(0.1 -0.1)">
       <use xlink:href="#DejaVuSans-2212"/>
       <use xlink:href="#DejaVuSans-32" x="83.789062"/>
      </g>
     </g>
    </g>
    <g id="ytick_12">
     <g id="line2d_21">
      <g>
       <use xlink:href="#m7f220ff8f2" x="57.6" y="237.461538" style="stroke: #000000; stroke-width: 0.8"/>
      </g>
     </g>
     <g id="text_22">
      <!-- 0 -->
      <g transform="translate(44.2375 241.260757) scale(0.1 -0.1)">
       <use xlink:href="#DejaVuSans-30"/>
      </g>
     </g>
    </g>
    <g id="ytick_13">
     <g id="line2d_22">
      <g>
       <use xlink:href="#m7f220ff8f2" x="57.6" y="205.775983" style="stroke: #000000; stroke-width: 0.8"/>
      </g>
     </g>
     <g id="text_23">
      <!-- 2 -->
      <g transform="translate(44.2375 209.575201) scale(0.1 -0.1)">
       <use xlink:href="#DejaVuSans-32"/>
      </g>
     </g>
    </g>
    <g id="text_24">
     <!-- Probit variable 2 -->
     <g transform="translate(29.778125 278.445913) rotate(-90) scale(0.1 -0.1)">
      <use xlink:href="#DejaVuSans-50"/>
      <use xlink:href="#DejaVuSans-72" x="58.552734"/>
      <use xlink:href="#DejaVuSans-6f" x="97.416016"/>
      <use xlink:href="#DejaVuSans-62" x="158.597656"/>
      <use xlink:href="#DejaVuSans-69" x="222.074219"/>
      <use xlink:href="#DejaVuSans-74" x="249.857422"/>
      <use xlink:href="#DejaVuSans-20" x="289.066406"/>
      <use xlink:href="#DejaVuSans-76" x="320.853516"/>
      <use xlink:href="#DejaVuSans-61" x="380.033203"/>
      <use xlink:href="#DejaVuSans-72" x="441.3125"/>
      <use xlink:href="#DejaVuSans-69" x="482.425781"/>
      <use xlink:href="#DejaVuSans-61" x="510.208984"/>
      <use xlink:href="#DejaVuSans-62" x="571.488281"/>
      <use xlink:href="#DejaVuSans-6c" x="634.964844"/>
      <use xlink:href="#DejaVuSans-65" x="662.748047"/>
      <use xlink:href="#DejaVuSans-20" x="724.271484"/>
      <use xlink:href="#DejaVuSans-32" x="756.058594"/>
     </g>
    </g>
   </g>
   <g id="patch_13">
    <path d="M 57.6 288 
L 57.6 186.923077 
" style="fill: none; stroke: #000000; stroke-width: 0.8; stroke-linejoin: miter; stroke-linecap: square"/>
   </g>
   <g id="patch_14">
    <path d="M 164.571429 288 
L 164.571429 186.923077 
" style="fill: none; stroke: #000000; stroke-width: 0.8; stroke-linejoin: miter; stroke-linecap: square"/>
   </g>
   <g id="patch_15">
    <path d="M 57.6 288 
L 164.571429 288 
" style="fill: none; stroke: #000000; stroke-width: 0.8; stroke-linejoin: miter; stroke-linecap: square"/>
   </g>
   <g id="patch_16">
    <path d="M 57.6 186.923077 
L 164.571429 186.923077 
" style="fill: none; stroke: #000000; stroke-width: 0.8; stroke-linejoin: miter; stroke-linecap: square"/>
   </g>
   <g id="text_25">
    <!-- True PDF -->
    <g transform="translate(84.749464 180.923077) scale(0.12 -0.12)">
     <use xlink:href="#DejaVuSans-54"/>
     <use xlink:href="#DejaVuSans-72" x="46.333984"/>
     <use xlink:href="#DejaVuSans-75" x="87.447266"/>
     <use xlink:href="#DejaVuSans-65" x="150.826172"/>
     <use xlink:href="#DejaVuSans-20" x="212.349609"/>
     <use xlink:href="#DejaVuSans-50" x="244.136719"/>
     <use xlink:href="#DejaVuSans-44" x="304.439453"/>
     <use xlink:href="#DejaVuSans-46" x="381.441406"/>
    </g>
   </g>
  </g>
  <g id="axes_4">
   <g id="patch_17">
    <path d="M 175.268571 288 
L 282.24 288 
L 282.24 186.923077 
L 175.268571 186.923077 
z
" style="fill: #ffffff"/>
   </g>
   <g id="PathCollection_16">
    <path d="M 221.113469 270.783237 
L 224.933878 271.310502 
L 228.754286 271.734067 
L 232.574694 271.296086 
L 236.395102 271.091703 
L 238.736118 270.572944 
L 240.21551 270.184966 
L 244.035918 268.264958 
L 246.435612 267.087533 
L 247.856327 266.425676 
L 251.676735 263.778202 
L 251.915102 263.602122 
L 255.497143 260.73808 
L 256.193892 260.116711 
L 259.312457 256.6313 
L 259.317551 256.621943 
L 261.069751 253.145889 
L 262.523734 249.660477 
L 263.137959 247.517595 
L 263.739963 246.175066 
L 264.904665 242.689655 
L 264.863836 239.204244 
L 265.012433 235.718833 
L 263.849944 232.233422 
L 263.214641 228.748011 
L 263.137959 228.443037 
L 262.440735 225.262599 
L 259.951243 221.777188 
L 259.317551 220.684343 
L 257.993475 218.291777 
L 255.675429 214.806366 
L 255.497143 214.646088 
L 251.676735 211.672753 
L 251.018324 211.320955 
L 247.856327 209.519194 
L 245.159786 207.835544 
L 244.035918 207.13383 
L 240.21551 205.343212 
L 236.395102 204.605449 
L 235.319728 204.350133 
L 232.574694 203.533009 
L 228.754286 203.510059 
L 224.933878 203.1375 
L 221.113469 203.443926 
L 219.170044 204.350133 
L 217.293061 205.103915 
L 213.472653 206.362209 
L 210.586543 207.835544 
L 209.652245 208.366961 
L 206.38407 211.320955 
L 205.831837 211.73038 
L 202.011429 214.096279 
L 201.244538 214.806366 
L 198.729164 218.291777 
L 198.19102 219.426159 
L 196.869695 221.777188 
L 194.968457 225.262599 
L 194.370612 228.109019 
L 194.15783 228.748011 
L 193.165167 232.233422 
L 192.645091 235.718833 
L 192.40019 239.204244 
L 193.114122 242.689655 
L 194.294204 246.175066 
L 194.370612 246.374233 
L 195.329867 249.660477 
L 197.570044 253.145889 
L 198.19102 254.005741 
L 199.761515 256.6313 
L 202.011429 259.438112 
L 202.582269 260.116711 
L 205.831837 262.933924 
L 206.689883 263.602122 
L 209.652245 266.3135 
L 211.027592 267.087533 
L 213.472653 268.182691 
L 217.293061 269.401253 
L 220.555896 270.572944 
z
M 219.41081 260.116711 
L 217.293061 259.314465 
L 213.472653 256.84244 
L 213.170362 256.6313 
L 209.652245 253.894957 
L 208.97567 253.145889 
L 206.579587 249.660477 
L 205.831837 248.272808 
L 204.952508 246.175066 
L 203.628119 242.689655 
L 203.074238 239.204244 
L 202.788231 235.718833 
L 203.142452 232.233422 
L 204.177563 228.748011 
L 205.831837 225.959682 
L 206.330054 225.262599 
L 209.119108 221.777188 
L 209.652245 221.041097 
L 212.79584 218.291777 
L 213.472653 217.812876 
L 217.293061 215.189389 
L 218.290006 214.806366 
L 221.113469 213.835787 
L 224.933878 213.259531 
L 228.754286 212.745693 
L 232.574694 213.365543 
L 236.395102 214.111316 
L 237.892614 214.806366 
L 240.21551 215.752152 
L 244.035918 217.720062 
L 244.755134 218.291777 
L 247.856327 221.252754 
L 248.400752 221.777188 
L 250.598735 225.262599 
L 251.676735 227.096944 
L 252.747668 228.748011 
L 254.079239 232.233422 
L 254.911727 235.718833 
L 254.733061 239.204244 
L 254.212301 242.689655 
L 253.078864 246.175066 
L 251.676735 249.286806 
L 251.510925 249.660477 
L 249.163067 253.145889 
L 247.856327 254.480303 
L 244.871531 256.6313 
L 244.035918 257.24588 
L 240.21551 259.586303 
L 238.211845 260.116711 
L 236.395102 260.721067 
L 232.574694 261.609388 
L 228.754286 261.812149 
L 224.933878 261.645294 
L 221.113469 260.686408 
z
" clip-path="url(#pd1a94f8c21)" style="fill: #deebf7"/>
   </g>
   <g id="PathCollection_17">
    <path d="M 221.113469 260.686408 
L 224.933878 261.645294 
L 228.754286 261.812149 
L 232.574694 261.609388 
L 236.395102 260.721067 
L 238.211845 260.116711 
L 240.21551 259.586303 
L 244.035918 257.24588 
L 244.871531 256.6313 
L 247.856327 254.480303 
L 249.163067 253.145889 
L 251.510925 249.660477 
L 251.676735 249.286806 
L 253.078864 246.175066 
L 254.212301 242.689655 
L 254.733061 239.204244 
L 254.911727 235.718833 
L 254.079239 232.233422 
L 252.747668 228.748011 
L 251.676735 227.096944 
L 250.598735 225.262599 
L 248.400752 221.777188 
L 247.856327 221.252754 
L 244.755134 218.291777 
L 244.035918 217.720062 
L 240.21551 215.752152 
L 237.892614 214.806366 
L 236.395102 214.111316 
L 232.574694 213.365543 
L 228.754286 212.745693 
L 224.933878 213.259531 
L 221.113469 213.835787 
L 218.290006 214.806366 
L 217.293061 215.189389 
L 213.472653 217.812876 
L 212.79584 218.291777 
L 209.652245 221.041097 
L 209.119108 221.777188 
L 206.330054 225.262599 
L 205.831837 225.959682 
L 204.177563 228.748011 
L 203.142452 232.233422 
L 202.788231 235.718833 
L 203.074238 239.204244 
L 203.628119 242.689655 
L 204.952508 246.175066 
L 205.831837 248.272808 
L 206.579587 249.660477 
L 208.97567 253.145889 
L 209.652245 253.894957 
L 213.170362 256.6313 
L 213.472653 256.84244 
L 217.293061 259.314465 
L 219.41081 260.116711 
z
M 218.644898 253.145889 
L 217.293061 252.413421 
L 214.212981 249.660477 
L 213.472653 248.642084 
L 211.58947 246.175066 
L 210.096801 242.689655 
L 209.652245 241.18245 
L 209.042142 239.204244 
L 209.256899 235.718833 
L 209.652245 233.072973 
L 209.772659 232.233422 
L 211.435102 228.748011 
L 213.385163 225.262599 
L 213.472653 225.15631 
L 217.293061 222.166203 
L 218.033219 221.777188 
L 221.113469 220.24954 
L 224.933878 219.68526 
L 228.754286 218.993743 
L 232.574694 219.621566 
L 236.395102 220.774875 
L 238.467332 221.777188 
L 240.21551 222.750634 
L 242.995422 225.262599 
L 244.035918 226.312997 
L 245.710768 228.748011 
L 247.519914 232.233422 
L 247.856327 235.265729 
L 247.908551 235.718833 
L 248.49475 239.204244 
L 247.881532 242.689655 
L 247.856327 242.740804 
L 246.101105 246.175066 
L 244.035918 249.005363 
L 243.38477 249.660477 
L 240.21551 252.697416 
L 239.549833 253.145889 
L 236.395102 254.769435 
L 232.574694 255.531341 
L 228.754286 256.116941 
L 224.933878 255.380633 
L 221.113469 254.405435 
z
" clip-path="url(#pd1a94f8c21)" style="fill: #9dcae1"/>
   </g>
   <g id="PathCollection_18">
    <path d="M 221.113469 254.405435 
L 224.933878 255.380633 
L 228.754286 256.116941 
L 232.574694 255.531341 
L 236.395102 254.769435 
L 239.549833 253.145889 
L 240.21551 252.697416 
L 243.38477 249.660477 
L 244.035918 249.005363 
L 246.101105 246.175066 
L 247.856327 242.740804 
L 247.881532 242.689655 
L 248.49475 239.204244 
L 247.908551 235.718833 
L 247.856327 235.265729 
L 247.519914 232.233422 
L 245.710768 228.748011 
L 244.035918 226.312997 
L 242.995422 225.262599 
L 240.21551 222.750634 
L 238.467332 221.777188 
L 236.395102 220.774875 
L 232.574694 219.621566 
L 228.754286 218.993743 
L 224.933878 219.68526 
L 221.113469 220.24954 
L 218.033219 221.777188 
L 217.293061 222.166203 
L 213.472653 225.15631 
L 213.385163 225.262599 
L 211.435102 228.748011 
L 209.772659 232.233422 
L 209.652245 233.072973 
L 209.256899 235.718833 
L 209.042142 239.204244 
L 209.652245 241.18245 
L 210.096801 242.689655 
L 211.58947 246.175066 
L 213.472653 248.642084 
L 214.212981 249.660477 
L 217.293061 252.413421 
L 218.644898 253.145889 
z
M 224.976857 249.660477 
L 224.933878 249.653717 
L 221.113469 248.313401 
L 218.976256 246.175066 
L 217.293061 244.340322 
L 216.007053 242.689655 
L 215.014808 239.204244 
L 215.311298 235.718833 
L 216.353679 232.233422 
L 217.293061 230.789466 
L 218.581005 228.748011 
L 221.113469 226.371515 
L 223.23334 225.262599 
L 224.933878 224.67152 
L 228.754286 224.298671 
L 232.574694 225.121923 
L 233.093547 225.262599 
L 236.395102 226.438811 
L 238.766683 228.748011 
L 240.21551 230.695778 
L 241.179367 232.233422 
L 242.422481 235.718833 
L 242.341403 239.204244 
L 241.453739 242.689655 
L 240.21551 245.053009 
L 239.419998 246.175066 
L 236.395102 248.505074 
L 233.764532 249.660477 
L 232.574694 250.086623 
L 228.754286 250.24028 
z
" clip-path="url(#pd1a94f8c21)" style="fill: #4191c6"/>
   </g>
   <g id="PathCollection_19">
    <path d="M 228.754286 250.24028 
L 232.574694 250.086623 
L 233.764532 249.660477 
L 236.395102 248.505074 
L 239.419998 246.175066 
L 240.21551 245.053009 
L 241.453739 242.689655 
L 242.341403 239.204244 
L 242.422481 235.718833 
L 241.179367 232.233422 
L 240.21551 230.695778 
L 238.766683 228.748011 
L 236.395102 226.438811 
L 233.093547 225.262599 
L 232.574694 225.121923 
L 228.754286 224.298671 
L 224.933878 224.67152 
L 223.23334 225.262599 
L 221.113469 226.371515 
L 218.581005 228.748011 
L 217.293061 230.789466 
L 216.353679 232.233422 
L 215.311298 235.718833 
L 215.014808 239.204244 
L 216.007053 242.689655 
L 217.293061 244.340322 
L 218.976256 246.175066 
L 221.113469 248.313401 
L 224.933878 249.653717 
L 224.976857 249.660477 
z
M 224.565098 242.689655 
L 222.250014 239.204244 
L 222.43154 235.718833 
L 224.426997 232.233422 
L 224.933878 231.833904 
L 228.754286 230.814522 
L 232.161604 232.233422 
L 232.574694 232.605037 
L 234.362199 235.718833 
L 235.139171 239.204244 
L 233.948606 242.689655 
L 232.574694 243.796318 
L 228.754286 243.555577 
L 224.933878 242.960691 
z
" clip-path="url(#pd1a94f8c21)" style="fill: #08509b"/>
   </g>
   <g id="PathCollection_20">
    <path d="M 224.933878 242.960691 
L 228.754286 243.555577 
L 232.574694 243.796318 
L 233.948606 242.689655 
L 235.139171 239.204244 
L 234.362199 235.718833 
L 232.574694 232.605037 
L 232.161604 232.233422 
L 228.754286 230.814522 
L 224.933878 231.833904 
L 224.426997 232.233422 
L 222.43154 235.718833 
L 222.250014 239.204244 
L 224.565098 242.689655 
z
" clip-path="url(#pd1a94f8c21)" style="fill: #08306b"/>
   </g>
   <g id="matplotlib.axis_7">
    <g id="xtick_10">
     <g id="line2d_23">
      <g>
       <use xlink:href="#m75891c03ed" x="186.787681" y="288" style="stroke: #000000; stroke-width: 0.8"/>
      </g>
     </g>
     <g id="text_26">
      <!-- −2.5 -->
      <g transform="translate(174.646275 302.598437) scale(0.1 -0.1)">
       <use xlink:href="#DejaVuSans-2212"/>
       <use xlink:href="#DejaVuSans-32" x="83.789062"/>
       <use xlink:href="#DejaVuSans-2e" x="147.412109"/>
       <use xlink:href="#DejaVuSans-35" x="179.199219"/>
      </g>
     </g>
    </g>
    <g id="xtick_11">
     <g id="line2d_24">
      <g>
       <use xlink:href="#m75891c03ed" x="228.754286" y="288" style="stroke: #000000; stroke-width: 0.8"/>
      </g>
     </g>
     <g id="text_27">
      <!-- 0.0 -->
      <g transform="translate(220.802723 302.598437) scale(0.1 -0.1)">
       <use xlink:href="#DejaVuSans-30"/>
       <use xlink:href="#DejaVuSans-2e" x="63.623047"/>
       <use xlink:href="#DejaVuSans-30" x="95.410156"/>
      </g>
     </g>
    </g>
    <g id="xtick_12">
     <g id="line2d_25">
      <g>
       <use xlink:href="#m75891c03ed" x="270.720891" y="288" style="stroke: #000000; stroke-width: 0.8"/>
      </g>
     </g>
     <g id="text_28">
      <!-- 2.5 -->
      <g transform="translate(262.769328 302.598437) scale(0.1 -0.1)">
       <use xlink:href="#DejaVuSans-32"/>
       <use xlink:href="#DejaVuSans-2e" x="63.623047"/>
       <use xlink:href="#DejaVuSans-35" x="95.410156"/>
      </g>
     </g>
    </g>
    <g id="text_29">
     <!-- Probit variable 1 -->
     <g transform="translate(187.769911 316.276562) scale(0.1 -0.1)">
      <use xlink:href="#DejaVuSans-50"/>
      <use xlink:href="#DejaVuSans-72" x="58.552734"/>
      <use xlink:href="#DejaVuSans-6f" x="97.416016"/>
      <use xlink:href="#DejaVuSans-62" x="158.597656"/>
      <use xlink:href="#DejaVuSans-69" x="222.074219"/>
      <use xlink:href="#DejaVuSans-74" x="249.857422"/>
      <use xlink:href="#DejaVuSans-20" x="289.066406"/>
      <use xlink:href="#DejaVuSans-76" x="320.853516"/>
      <use xlink:href="#DejaVuSans-61" x="380.033203"/>
      <use xlink:href="#DejaVuSans-72" x="441.3125"/>
      <use xlink:href="#DejaVuSans-69" x="482.425781"/>
      <use xlink:href="#DejaVuSans-61" x="510.208984"/>
      <use xlink:href="#DejaVuSans-62" x="571.488281"/>
      <use xlink:href="#DejaVuSans-6c" x="634.964844"/>
      <use xlink:href="#DejaVuSans-65" x="662.748047"/>
      <use xlink:href="#DejaVuSans-20" x="724.271484"/>
      <use xlink:href="#DejaVuSans-31" x="756.058594"/>
     </g>
    </g>
   </g>
   <g id="matplotlib.axis_8">
    <g id="ytick_14">
     <g id="line2d_26">
      <g>
       <use xlink:href="#m7f220ff8f2" x="175.268571" y="269.147094" style="stroke: #000000; stroke-width: 0.8"/>
      </g>
     </g>
    </g>
    <g id="ytick_15">
     <g id="line2d_27">
      <g>
       <use xlink:href="#m7f220ff8f2" x="175.268571" y="237.461538" style="stroke: #000000; stroke-width: 0.8"/>
      </g>
     </g>
    </g>
    <g id="ytick_16">
     <g id="line2d_28">
      <g>
       <use xlink:href="#m7f220ff8f2" x="175.268571" y="205.775983" style="stroke: #000000; stroke-width: 0.8"/>
      </g>
     </g>
    </g>
   </g>
   <g id="patch_18">
    <path d="M 175.268571 288 
L 175.268571 186.923077 
" style="fill: none; stroke: #000000; stroke-width: 0.8; stroke-linejoin: miter; stroke-linecap: square"/>
   </g>
   <g id="patch_19">
    <path d="M 282.24 288 
L 282.24 186.923077 
" style="fill: none; stroke: #000000; stroke-width: 0.8; stroke-linejoin: miter; stroke-linecap: square"/>
   </g>
   <g id="patch_20">
    <path d="M 175.268571 288 
L 282.24 288 
" style="fill: none; stroke: #000000; stroke-width: 0.8; stroke-linejoin: miter; stroke-linecap: square"/>
   </g>
   <g id="patch_21">
    <path d="M 175.268571 186.923077 
L 282.24 186.923077 
" style="fill: none; stroke: #000000; stroke-width: 0.8; stroke-linejoin: miter; stroke-linecap: square"/>
   </g>
   <g id="text_30">
    <!-- Virt Mems' PDF -->
    <g transform="translate(183.308973 180.923077) scale(0.12 -0.12)">
     <use xlink:href="#DejaVuSans-56"/>
     <use xlink:href="#DejaVuSans-69" x="66.158203"/>
     <use xlink:href="#DejaVuSans-72" x="93.941406"/>
     <use xlink:href="#DejaVuSans-74" x="135.054688"/>
     <use xlink:href="#DejaVuSans-20" x="174.263672"/>
     <use xlink:href="#DejaVuSans-4d" x="206.050781"/>
     <use xlink:href="#DejaVuSans-65" x="292.330078"/>
     <use xlink:href="#DejaVuSans-6d" x="353.853516"/>
     <use xlink:href="#DejaVuSans-73" x="451.265625"/>
     <use xlink:href="#DejaVuSans-27" x="503.365234"/>
     <use xlink:href="#DejaVuSans-20" x="530.855469"/>
     <use xlink:href="#DejaVuSans-50" x="562.642578"/>
     <use xlink:href="#DejaVuSans-44" x="622.945312"/>
     <use xlink:href="#DejaVuSans-46" x="699.947266"/>
    </g>
   </g>
  </g>
 </g>
 <defs>
  <clipPath id="p71d0ec8351">
   <rect x="57.6" y="25.2" width="106.971429" height="101.076923"/>
  </clipPath>
  <clipPath id="p440d81afbf">
   <rect x="175.268571" y="25.2" width="106.971429" height="101.076923"/>
  </clipPath>
  <clipPath id="pdd4d2cc5a6">
   <rect x="57.6" y="186.923077" width="106.971429" height="101.076923"/>
  </clipPath>
  <clipPath id="pd1a94f8c21">
   <rect x="175.268571" y="186.923077" width="106.971429" height="101.076923"/>
  </clipPath>
 </defs>
</svg>
