<?xml version="1.0" encoding="utf-8" standalone="no"?>
<!DOCTYPE svg PUBLIC "-//W3C//DTD SVG 1.1//EN"
  "http://www.w3.org/Graphics/SVG/1.1/DTD/svg11.dtd">
<svg xmlns:xlink="http://www.w3.org/1999/xlink" width="288pt" height="360pt" viewBox="0 0 288 360" xmlns="http://www.w3.org/2000/svg" version="1.1">
 <metadata>
  <rdf:RDF xmlns:dc="http://purl.org/dc/elements/1.1/" xmlns:cc="http://creativecommons.org/ns#" xmlns:rdf="http://www.w3.org/1999/02/22-rdf-syntax-ns#">
   <cc:Work>
    <dc:type rdf:resource="http://purl.org/dc/dcmitype/StillImage"/>
    <dc:date>2023-07-22T16:10:21.597857</dc:date>
    <dc:format>image/svg+xml</dc:format>
    <dc:creator>
     <cc:Agent>
      <dc:title>Matplotlib v3.7.1, https://matplotlib.org/</dc:title>
     </cc:Agent>
    </dc:creator>
   </cc:Work>
  </rdf:RDF>
 </metadata>
 <defs>
  <style type="text/css">*{stroke-linejoin: round; stroke-linecap: butt}</style>
 </defs>
 <g id="figure_1">
  <g id="patch_1">
   <path d="M 0 360 
L 288 360 
L 288 0 
L 0 0 
z
" style="fill: #ffffff"/>
  </g>
  <g id="axes_1">
   <g id="patch_2">
    <path d="M 57.6 126.276923 
L 164.571429 126.276923 
L 164.571429 25.2 
L 57.6 25.2 
z
" style="fill: #ffffff"/>
   </g>
   <g id="PathCollection_1">
    <path d="M 122.546939 102.716317 
L 126.367347 104.006104 
L 130.187755 104.641125 
L 134.008163 104.743926 
L 137.828571 103.577023 
L 139.811328 101.879045 
L 141.517403 98.393634 
L 141.64898 96.128891 
L 141.730498 94.908223 
L 141.64898 94.524096 
L 141.246272 91.422812 
L 140.365003 87.937401 
L 138.785739 84.451989 
L 137.828571 82.99286 
L 136.868829 80.966578 
L 134.516926 77.481167 
L 134.008163 76.859824 
L 132.072772 73.995756 
L 130.187755 71.848035 
L 129.1841 70.510345 
L 126.367347 67.55907 
L 125.884995 67.024934 
L 122.546939 63.839896 
L 122.215424 63.539523 
L 118.726531 60.477097 
L 118.190329 60.054111 
L 114.906122 57.372229 
L 113.685726 56.5687 
L 111.085714 54.626014 
L 108.338912 53.083289 
L 107.265306 52.349246 
L 103.444898 50.353571 
L 101.276857 49.597878 
L 99.62449 48.769458 
L 95.804082 47.419215 
L 91.983673 46.754916 
L 88.163265 46.648393 
L 84.342857 47.844996 
L 82.307517 49.597878 
L 80.668071 53.083289 
L 80.522449 54.643613 
L 80.323185 56.5687 
L 80.522449 57.437502 
L 80.893938 60.054111 
L 81.778608 63.539523 
L 83.435654 67.024934 
L 84.342857 68.411725 
L 85.333373 70.510345 
L 87.667771 73.995756 
L 88.163265 74.613757 
L 90.01652 77.481167 
L 91.983673 79.663137 
L 93.010135 80.966578 
L 95.804082 83.914204 
L 96.298895 84.451989 
L 99.62449 87.628176 
L 99.966139 87.937401 
L 103.444898 91.018905 
L 103.958184 91.422812 
L 107.265306 94.131054 
L 108.454869 94.908223 
L 111.085714 96.834914 
L 113.893974 98.393634 
L 114.906122 99.079226 
L 118.726531 101.105766 
L 120.872781 101.879045 
z
M 118.645753 94.908223 
L 114.906122 93.240648 
L 112.042724 91.422812 
L 111.085714 90.88512 
L 107.265306 88.132514 
L 107.031011 87.937401 
L 103.444898 84.976337 
L 102.867341 84.451989 
L 99.62449 81.171174 
L 99.423414 80.966578 
L 96.372083 77.481167 
L 95.804082 76.688573 
L 93.73857 73.995756 
L 91.983673 70.975261 
L 91.65596 70.510345 
L 90.002866 67.024934 
L 89.009802 63.539523 
L 88.860713 60.054111 
L 90.622871 56.5687 
L 91.983673 55.543239 
L 95.804082 54.702865 
L 99.62449 55.181988 
L 103.393722 56.5687 
L 103.444898 56.583659 
L 107.265306 58.226431 
L 110.116369 60.054111 
L 111.085714 60.601274 
L 114.906122 63.33162 
L 115.156049 63.539523 
L 118.726531 66.585972 
L 119.209827 67.024934 
L 122.546939 70.34103 
L 122.711101 70.510345 
L 125.817747 73.995756 
L 126.367347 74.772978 
L 128.449068 77.481167 
L 130.187755 80.489239 
L 130.52281 80.966578 
L 132.194372 84.451989 
L 133.166732 87.937401 
L 133.335785 91.422812 
L 131.763016 94.908223 
L 130.187755 96.10335 
L 126.367347 96.744537 
L 122.546939 96.298623 
L 118.726531 94.951936 
z
" clip-path="url(#p46051c8332)" style="fill: #fee0d2"/>
   </g>
   <g id="PathCollection_2">
    <path d="M 118.726531 94.951936 
L 122.546939 96.298623 
L 126.367347 96.744537 
L 130.187755 96.10335 
L 131.763016 94.908223 
L 133.335785 91.422812 
L 133.166732 87.937401 
L 132.194372 84.451989 
L 130.52281 80.966578 
L 130.187755 80.489239 
L 128.449068 77.481167 
L 126.367347 74.772978 
L 125.817747 73.995756 
L 122.711101 70.510345 
L 122.546939 70.34103 
L 119.209827 67.024934 
L 118.726531 66.585972 
L 115.156049 63.539523 
L 114.906122 63.33162 
L 111.085714 60.601274 
L 110.116369 60.054111 
L 107.265306 58.226431 
L 103.444898 56.583659 
L 103.393722 56.5687 
L 99.62449 55.181988 
L 95.804082 54.702865 
L 91.983673 55.543239 
L 90.622871 56.5687 
L 88.860713 60.054111 
L 89.009802 63.539523 
L 90.002866 67.024934 
L 91.65596 70.510345 
L 91.983673 70.975261 
L 93.73857 73.995756 
L 95.804082 76.688573 
L 96.372083 77.481167 
L 99.423414 80.966578 
L 99.62449 81.171174 
L 102.867341 84.451989 
L 103.444898 84.976337 
L 107.031011 87.937401 
L 107.265306 88.132514 
L 111.085714 90.88512 
L 112.042724 91.422812 
L 114.906122 93.240648 
L 118.645753 94.908223 
z
M 120.93155 91.422812 
L 118.726531 91.017106 
L 114.906122 89.476579 
L 112.302748 87.937401 
L 111.085714 87.255756 
L 107.321003 84.451989 
L 107.265306 84.409292 
L 103.445264 80.966578 
L 103.444898 80.966217 
L 100.249274 77.481167 
L 99.62449 76.609352 
L 97.639769 73.995756 
L 95.804082 70.5824 
L 95.760059 70.510345 
L 94.451974 67.024934 
L 94.332183 63.539523 
L 95.804082 60.930181 
L 98.11943 60.054111 
L 99.62449 59.787024 
L 100.907642 60.054111 
L 103.444898 60.496161 
L 107.265306 62.013769 
L 109.81513 63.539523 
L 111.085714 64.253002 
L 114.879228 67.024934 
L 114.906122 67.045069 
L 118.726531 70.467706 
L 118.770609 70.510345 
L 121.92419 73.995756 
L 122.546939 74.825666 
L 124.557891 77.481167 
L 126.367347 80.869875 
L 126.426979 80.966578 
L 127.711263 84.451989 
L 127.876412 87.937401 
L 126.367347 90.518894 
L 124.272421 91.422812 
L 122.546939 91.773959 
z
" clip-path="url(#p46051c8332)" style="fill: #fc9272"/>
   </g>
   <g id="PathCollection_3">
    <path d="M 122.546939 91.773959 
L 124.272421 91.422812 
L 126.367347 90.518894 
L 127.876412 87.937401 
L 127.711263 84.451989 
L 126.426979 80.966578 
L 126.367347 80.869875 
L 124.557891 77.481167 
L 122.546939 74.825666 
L 121.92419 73.995756 
L 118.770609 70.510345 
L 118.726531 70.467706 
L 114.906122 67.045069 
L 114.879228 67.024934 
L 111.085714 64.253002 
L 109.81513 63.539523 
L 107.265306 62.013769 
L 103.444898 60.496161 
L 100.907642 60.054111 
L 99.62449 59.787024 
L 98.11943 60.054111 
L 95.804082 60.930181 
L 94.332183 63.539523 
L 94.451974 67.024934 
L 95.760059 70.510345 
L 95.804082 70.5824 
L 97.639769 73.995756 
L 99.62449 76.609352 
L 100.249274 77.481167 
L 103.444898 80.966217 
L 103.445264 80.966578 
L 107.265306 84.409292 
L 107.321003 84.451989 
L 111.085714 87.255756 
L 112.302748 87.937401 
L 114.906122 89.476579 
L 118.726531 91.017106 
L 120.93155 91.422812 
z
M 111.955273 84.451989 
L 111.085714 83.978622 
L 107.265306 81.074223 
L 107.145863 80.966578 
L 103.624306 77.481167 
L 103.444898 77.24604 
L 101.195741 73.995756 
L 99.62449 70.9642 
L 99.385623 70.510345 
L 98.953659 67.024934 
L 99.62449 65.620733 
L 103.444898 64.413938 
L 107.265306 65.426779 
L 110.233964 67.024934 
L 111.085714 67.484865 
L 114.906122 70.325963 
L 115.111602 70.510345 
L 118.453187 73.995756 
L 118.726531 74.34889 
L 121.028163 77.481167 
L 122.546939 80.29739 
L 122.899688 80.966578 
L 123.213227 84.451989 
L 122.546939 85.784906 
L 118.726531 87.172471 
L 114.906122 86.033673 
z
" clip-path="url(#p46051c8332)" style="fill: #ee3a2c"/>
   </g>
   <g id="PathCollection_4">
    <path d="M 114.906122 86.033673 
L 118.726531 87.172471 
L 122.546939 85.784906 
L 123.213227 84.451989 
L 122.899688 80.966578 
L 122.546939 80.29739 
L 121.028163 77.481167 
L 118.726531 74.34889 
L 118.453187 73.995756 
L 115.111602 70.510345 
L 114.906122 70.325963 
L 111.085714 67.484865 
L 110.233964 67.024934 
L 107.265306 65.426779 
L 103.444898 64.413938 
L 99.62449 65.620733 
L 98.953659 67.024934 
L 99.385623 70.510345 
L 99.62449 70.9642 
L 101.195741 73.995756 
L 103.444898 77.24604 
L 103.624306 77.481167 
L 107.145863 80.966578 
L 107.265306 81.074223 
L 111.085714 83.978622 
L 111.955273 84.451989 
z
M 112.711645 80.966578 
L 111.085714 80.190505 
L 107.758004 77.481167 
L 107.265306 76.915043 
L 105.323395 73.995756 
L 104.848267 70.510345 
L 107.265306 69.572431 
L 109.661146 70.510345 
L 111.085714 71.186762 
L 114.453659 73.995756 
L 114.906122 74.520246 
L 116.831643 77.481167 
L 117.311957 80.966578 
L 114.906122 81.881528 
z
" clip-path="url(#p46051c8332)" style="fill: #a30f15"/>
   </g>
   <g id="PathCollection_5">
    <path d="M 114.906122 81.881528 
L 117.311957 80.966578 
L 116.831643 77.481167 
L 114.906122 74.520246 
L 114.453659 73.995756 
L 111.085714 71.186762 
L 109.661146 70.510345 
L 107.265306 69.572431 
L 104.848267 70.510345 
L 105.323395 73.995756 
L 107.265306 76.915043 
L 107.758004 77.481167 
L 111.085714 80.190505 
L 112.711645 80.966578 
z
" clip-path="url(#p46051c8332)" style="fill: #67000d"/>
   </g>
   <g id="matplotlib.axis_1">
    <g id="xtick_1">
     <g id="line2d_1">
      <defs>
       <path id="mb8be462694" d="M 0 0 
L 0 3.5 
" style="stroke: #000000; stroke-width: 0.8"/>
      </defs>
      <g>
       <use xlink:href="#mb8be462694" x="60.725788" y="126.276923" style="stroke: #000000; stroke-width: 0.8"/>
      </g>
     </g>
     <g id="text_1">
      <!-- −5 -->
      <g transform="translate(53.354695 140.875361) scale(0.1 -0.1)">
       <defs>
        <path id="DejaVuSans-2212" d="M 678 2272 
L 4684 2272 
L 4684 1741 
L 678 1741 
L 678 2272 
z
" transform="scale(0.015625)"/>
        <path id="DejaVuSans-35" d="M 691 4666 
L 3169 4666 
L 3169 4134 
L 1269 4134 
L 1269 2991 
Q 1406 3038 1543 3061 
Q 1681 3084 1819 3084 
Q 2600 3084 3056 2656 
Q 3513 2228 3513 1497 
Q 3513 744 3044 326 
Q 2575 -91 1722 -91 
Q 1428 -91 1123 -41 
Q 819 9 494 109 
L 494 744 
Q 775 591 1075 516 
Q 1375 441 1709 441 
Q 2250 441 2565 725 
Q 2881 1009 2881 1497 
Q 2881 1984 2565 2268 
Q 2250 2553 1709 2553 
Q 1456 2553 1204 2497 
Q 953 2441 691 2322 
L 691 4666 
z
" transform="scale(0.015625)"/>
       </defs>
       <use xlink:href="#DejaVuSans-2212"/>
       <use xlink:href="#DejaVuSans-35" x="83.789062"/>
      </g>
     </g>
    </g>
    <g id="xtick_2">
     <g id="line2d_2">
      <g>
       <use xlink:href="#mb8be462694" x="111.085714" y="126.276923" style="stroke: #000000; stroke-width: 0.8"/>
      </g>
     </g>
     <g id="text_2">
      <!-- 0 -->
      <g transform="translate(107.904464 140.875361) scale(0.1 -0.1)">
       <defs>
        <path id="DejaVuSans-30" d="M 2034 4250 
Q 1547 4250 1301 3770 
Q 1056 3291 1056 2328 
Q 1056 1369 1301 889 
Q 1547 409 2034 409 
Q 2525 409 2770 889 
Q 3016 1369 3016 2328 
Q 3016 3291 2770 3770 
Q 2525 4250 2034 4250 
z
M 2034 4750 
Q 2819 4750 3233 4129 
Q 3647 3509 3647 2328 
Q 3647 1150 3233 529 
Q 2819 -91 2034 -91 
Q 1250 -91 836 529 
Q 422 1150 422 2328 
Q 422 3509 836 4129 
Q 1250 4750 2034 4750 
z
" transform="scale(0.015625)"/>
       </defs>
       <use xlink:href="#DejaVuSans-30"/>
      </g>
     </g>
    </g>
    <g id="xtick_3">
     <g id="line2d_3">
      <g>
       <use xlink:href="#mb8be462694" x="161.44564" y="126.276923" style="stroke: #000000; stroke-width: 0.8"/>
      </g>
     </g>
     <g id="text_3">
      <!-- 5 -->
      <g transform="translate(158.26439 140.875361) scale(0.1 -0.1)">
       <use xlink:href="#DejaVuSans-35"/>
      </g>
     </g>
    </g>
    <g id="text_4">
     <!-- Model variable 1 -->
     <g transform="translate(69.541183 154.553486) scale(0.1 -0.1)">
      <defs>
       <path id="DejaVuSans-4d" d="M 628 4666 
L 1569 4666 
L 2759 1491 
L 3956 4666 
L 4897 4666 
L 4897 0 
L 4281 0 
L 4281 4097 
L 3078 897 
L 2444 897 
L 1241 4097 
L 1241 0 
L 628 0 
L 628 4666 
z
" transform="scale(0.015625)"/>
       <path id="DejaVuSans-6f" d="M 1959 3097 
Q 1497 3097 1228 2736 
Q 959 2375 959 1747 
Q 959 1119 1226 758 
Q 1494 397 1959 397 
Q 2419 397 2687 759 
Q 2956 1122 2956 1747 
Q 2956 2369 2687 2733 
Q 2419 3097 1959 3097 
z
M 1959 3584 
Q 2709 3584 3137 3096 
Q 3566 2609 3566 1747 
Q 3566 888 3137 398 
Q 2709 -91 1959 -91 
Q 1206 -91 779 398 
Q 353 888 353 1747 
Q 353 2609 779 3096 
Q 1206 3584 1959 3584 
z
" transform="scale(0.015625)"/>
       <path id="DejaVuSans-64" d="M 2906 2969 
L 2906 4863 
L 3481 4863 
L 3481 0 
L 2906 0 
L 2906 525 
Q 2725 213 2448 61 
Q 2172 -91 1784 -91 
Q 1150 -91 751 415 
Q 353 922 353 1747 
Q 353 2572 751 3078 
Q 1150 3584 1784 3584 
Q 2172 3584 2448 3432 
Q 2725 3281 2906 2969 
z
M 947 1747 
Q 947 1113 1208 752 
Q 1469 391 1925 391 
Q 2381 391 2643 752 
Q 2906 1113 2906 1747 
Q 2906 2381 2643 2742 
Q 2381 3103 1925 3103 
Q 1469 3103 1208 2742 
Q 947 2381 947 1747 
z
" transform="scale(0.015625)"/>
       <path id="DejaVuSans-65" d="M 3597 1894 
L 3597 1613 
L 953 1613 
Q 991 1019 1311 708 
Q 1631 397 2203 397 
Q 2534 397 2845 478 
Q 3156 559 3463 722 
L 3463 178 
Q 3153 47 2828 -22 
Q 2503 -91 2169 -91 
Q 1331 -91 842 396 
Q 353 884 353 1716 
Q 353 2575 817 3079 
Q 1281 3584 2069 3584 
Q 2775 3584 3186 3129 
Q 3597 2675 3597 1894 
z
M 3022 2063 
Q 3016 2534 2758 2815 
Q 2500 3097 2075 3097 
Q 1594 3097 1305 2825 
Q 1016 2553 972 2059 
L 3022 2063 
z
" transform="scale(0.015625)"/>
       <path id="DejaVuSans-6c" d="M 603 4863 
L 1178 4863 
L 1178 0 
L 603 0 
L 603 4863 
z
" transform="scale(0.015625)"/>
       <path id="DejaVuSans-20" transform="scale(0.015625)"/>
       <path id="DejaVuSans-76" d="M 191 3500 
L 800 3500 
L 1894 563 
L 2988 3500 
L 3597 3500 
L 2284 0 
L 1503 0 
L 191 3500 
z
" transform="scale(0.015625)"/>
       <path id="DejaVuSans-61" d="M 2194 1759 
Q 1497 1759 1228 1600 
Q 959 1441 959 1056 
Q 959 750 1161 570 
Q 1363 391 1709 391 
Q 2188 391 2477 730 
Q 2766 1069 2766 1631 
L 2766 1759 
L 2194 1759 
z
M 3341 1997 
L 3341 0 
L 2766 0 
L 2766 531 
Q 2569 213 2275 61 
Q 1981 -91 1556 -91 
Q 1019 -91 701 211 
Q 384 513 384 1019 
Q 384 1609 779 1909 
Q 1175 2209 1959 2209 
L 2766 2209 
L 2766 2266 
Q 2766 2663 2505 2880 
Q 2244 3097 1772 3097 
Q 1472 3097 1187 3025 
Q 903 2953 641 2809 
L 641 3341 
Q 956 3463 1253 3523 
Q 1550 3584 1831 3584 
Q 2591 3584 2966 3190 
Q 3341 2797 3341 1997 
z
" transform="scale(0.015625)"/>
       <path id="DejaVuSans-72" d="M 2631 2963 
Q 2534 3019 2420 3045 
Q 2306 3072 2169 3072 
Q 1681 3072 1420 2755 
Q 1159 2438 1159 1844 
L 1159 0 
L 581 0 
L 581 3500 
L 1159 3500 
L 1159 2956 
Q 1341 3275 1631 3429 
Q 1922 3584 2338 3584 
Q 2397 3584 2469 3576 
Q 2541 3569 2628 3553 
L 2631 2963 
z
" transform="scale(0.015625)"/>
       <path id="DejaVuSans-69" d="M 603 3500 
L 1178 3500 
L 1178 0 
L 603 0 
L 603 3500 
z
M 603 4863 
L 1178 4863 
L 1178 4134 
L 603 4134 
L 603 4863 
z
" transform="scale(0.015625)"/>
       <path id="DejaVuSans-62" d="M 3116 1747 
Q 3116 2381 2855 2742 
Q 2594 3103 2138 3103 
Q 1681 3103 1420 2742 
Q 1159 2381 1159 1747 
Q 1159 1113 1420 752 
Q 1681 391 2138 391 
Q 2594 391 2855 752 
Q 3116 1113 3116 1747 
z
M 1159 2969 
Q 1341 3281 1617 3432 
Q 1894 3584 2278 3584 
Q 2916 3584 3314 3078 
Q 3713 2572 3713 1747 
Q 3713 922 3314 415 
Q 2916 -91 2278 -91 
Q 1894 -91 1617 61 
Q 1341 213 1159 525 
L 1159 0 
L 581 0 
L 581 4863 
L 1159 4863 
L 1159 2969 
z
" transform="scale(0.015625)"/>
       <path id="DejaVuSans-31" d="M 794 531 
L 1825 531 
L 1825 4091 
L 703 3866 
L 703 4441 
L 1819 4666 
L 2450 4666 
L 2450 531 
L 3481 531 
L 3481 0 
L 794 0 
L 794 531 
z
" transform="scale(0.015625)"/>
      </defs>
      <use xlink:href="#DejaVuSans-4d"/>
      <use xlink:href="#DejaVuSans-6f" x="86.279297"/>
      <use xlink:href="#DejaVuSans-64" x="147.460938"/>
      <use xlink:href="#DejaVuSans-65" x="210.9375"/>
      <use xlink:href="#DejaVuSans-6c" x="272.460938"/>
      <use xlink:href="#DejaVuSans-20" x="300.244141"/>
      <use xlink:href="#DejaVuSans-76" x="332.03125"/>
      <use xlink:href="#DejaVuSans-61" x="391.210938"/>
      <use xlink:href="#DejaVuSans-72" x="452.490234"/>
      <use xlink:href="#DejaVuSans-69" x="493.603516"/>
      <use xlink:href="#DejaVuSans-61" x="521.386719"/>
      <use xlink:href="#DejaVuSans-62" x="582.666016"/>
      <use xlink:href="#DejaVuSans-6c" x="646.142578"/>
      <use xlink:href="#DejaVuSans-65" x="673.925781"/>
      <use xlink:href="#DejaVuSans-20" x="735.449219"/>
      <use xlink:href="#DejaVuSans-31" x="767.236328"/>
     </g>
    </g>
   </g>
   <g id="matplotlib.axis_2">
    <g id="ytick_1">
     <g id="line2d_4">
      <defs>
       <path id="m6c18aedca2" d="M 0 0 
L -3.5 0 
" style="stroke: #000000; stroke-width: 0.8"/>
      </defs>
      <g>
       <use xlink:href="#m6c18aedca2" x="57.6" y="123.266795" style="stroke: #000000; stroke-width: 0.8"/>
      </g>
     </g>
     <g id="text_5">
      <!-- −5.0 -->
      <g transform="translate(26.317187 127.066014) scale(0.1 -0.1)">
       <defs>
        <path id="DejaVuSans-2e" d="M 684 794 
L 1344 794 
L 1344 0 
L 684 0 
L 684 794 
z
" transform="scale(0.015625)"/>
       </defs>
       <use xlink:href="#DejaVuSans-2212"/>
       <use xlink:href="#DejaVuSans-35" x="83.789062"/>
       <use xlink:href="#DejaVuSans-2e" x="147.412109"/>
       <use xlink:href="#DejaVuSans-30" x="179.199219"/>
      </g>
     </g>
    </g>
    <g id="ytick_2">
     <g id="line2d_5">
      <g>
       <use xlink:href="#m6c18aedca2" x="57.6" y="99.502628" style="stroke: #000000; stroke-width: 0.8"/>
      </g>
     </g>
     <g id="text_6">
      <!-- −2.5 -->
      <g transform="translate(26.317187 103.301847) scale(0.1 -0.1)">
       <defs>
        <path id="DejaVuSans-32" d="M 1228 531 
L 3431 531 
L 3431 0 
L 469 0 
L 469 531 
Q 828 903 1448 1529 
Q 2069 2156 2228 2338 
Q 2531 2678 2651 2914 
Q 2772 3150 2772 3378 
Q 2772 3750 2511 3984 
Q 2250 4219 1831 4219 
Q 1534 4219 1204 4116 
Q 875 4013 500 3803 
L 500 4441 
Q 881 4594 1212 4672 
Q 1544 4750 1819 4750 
Q 2544 4750 2975 4387 
Q 3406 4025 3406 3419 
Q 3406 3131 3298 2873 
Q 3191 2616 2906 2266 
Q 2828 2175 2409 1742 
Q 1991 1309 1228 531 
z
" transform="scale(0.015625)"/>
       </defs>
       <use xlink:href="#DejaVuSans-2212"/>
       <use xlink:href="#DejaVuSans-32" x="83.789062"/>
       <use xlink:href="#DejaVuSans-2e" x="147.412109"/>
       <use xlink:href="#DejaVuSans-35" x="179.199219"/>
      </g>
     </g>
    </g>
    <g id="ytick_3">
     <g id="line2d_6">
      <g>
       <use xlink:href="#m6c18aedca2" x="57.6" y="75.738462" style="stroke: #000000; stroke-width: 0.8"/>
      </g>
     </g>
     <g id="text_7">
      <!-- 0.0 -->
      <g transform="translate(34.696875 79.53768) scale(0.1 -0.1)">
       <use xlink:href="#DejaVuSans-30"/>
       <use xlink:href="#DejaVuSans-2e" x="63.623047"/>
       <use xlink:href="#DejaVuSans-30" x="95.410156"/>
      </g>
     </g>
    </g>
    <g id="ytick_4">
     <g id="line2d_7">
      <g>
       <use xlink:href="#m6c18aedca2" x="57.6" y="51.974295" style="stroke: #000000; stroke-width: 0.8"/>
      </g>
     </g>
     <g id="text_8">
      <!-- 2.5 -->
      <g transform="translate(34.696875 55.773513) scale(0.1 -0.1)">
       <use xlink:href="#DejaVuSans-32"/>
       <use xlink:href="#DejaVuSans-2e" x="63.623047"/>
       <use xlink:href="#DejaVuSans-35" x="95.410156"/>
      </g>
     </g>
    </g>
    <g id="ytick_5">
     <g id="line2d_8">
      <g>
       <use xlink:href="#m6c18aedca2" x="57.6" y="28.210128" style="stroke: #000000; stroke-width: 0.8"/>
      </g>
     </g>
     <g id="text_9">
      <!-- 5.0 -->
      <g transform="translate(34.696875 32.009347) scale(0.1 -0.1)">
       <use xlink:href="#DejaVuSans-35"/>
       <use xlink:href="#DejaVuSans-2e" x="63.623047"/>
       <use xlink:href="#DejaVuSans-30" x="95.410156"/>
      </g>
     </g>
    </g>
    <g id="text_10">
     <!-- Model variable 2 -->
     <g transform="translate(20.2375 117.282993) rotate(-90) scale(0.1 -0.1)">
      <use xlink:href="#DejaVuSans-4d"/>
      <use xlink:href="#DejaVuSans-6f" x="86.279297"/>
      <use xlink:href="#DejaVuSans-64" x="147.460938"/>
      <use xlink:href="#DejaVuSans-65" x="210.9375"/>
      <use xlink:href="#DejaVuSans-6c" x="272.460938"/>
      <use xlink:href="#DejaVuSans-20" x="300.244141"/>
      <use xlink:href="#DejaVuSans-76" x="332.03125"/>
      <use xlink:href="#DejaVuSans-61" x="391.210938"/>
      <use xlink:href="#DejaVuSans-72" x="452.490234"/>
      <use xlink:href="#DejaVuSans-69" x="493.603516"/>
      <use xlink:href="#DejaVuSans-61" x="521.386719"/>
      <use xlink:href="#DejaVuSans-62" x="582.666016"/>
      <use xlink:href="#DejaVuSans-6c" x="646.142578"/>
      <use xlink:href="#DejaVuSans-65" x="673.925781"/>
      <use xlink:href="#DejaVuSans-20" x="735.449219"/>
      <use xlink:href="#DejaVuSans-32" x="767.236328"/>
     </g>
    </g>
   </g>
   <g id="patch_3">
    <path d="M 57.6 126.276923 
L 57.6 25.2 
" style="fill: none; stroke: #000000; stroke-width: 0.8; stroke-linejoin: miter; stroke-linecap: square"/>
   </g>
   <g id="patch_4">
    <path d="M 164.571429 126.276923 
L 164.571429 25.2 
" style="fill: none; stroke: #000000; stroke-width: 0.8; stroke-linejoin: miter; stroke-linecap: square"/>
   </g>
   <g id="patch_5">
    <path d="M 57.6 126.276923 
L 164.571429 126.276923 
" style="fill: none; stroke: #000000; stroke-width: 0.8; stroke-linejoin: miter; stroke-linecap: square"/>
   </g>
   <g id="patch_6">
    <path d="M 57.6 25.2 
L 164.571429 25.2 
" style="fill: none; stroke: #000000; stroke-width: 0.8; stroke-linejoin: miter; stroke-linecap: square"/>
   </g>
   <g id="text_11">
    <!-- True PDF -->
    <g transform="translate(84.749464 19.2) scale(0.12 -0.12)">
     <defs>
      <path id="DejaVuSans-54" d="M -19 4666 
L 3928 4666 
L 3928 4134 
L 2272 4134 
L 2272 0 
L 1638 0 
L 1638 4134 
L -19 4134 
L -19 4666 
z
" transform="scale(0.015625)"/>
      <path id="DejaVuSans-75" d="M 544 1381 
L 544 3500 
L 1119 3500 
L 1119 1403 
Q 1119 906 1312 657 
Q 1506 409 1894 409 
Q 2359 409 2629 706 
Q 2900 1003 2900 1516 
L 2900 3500 
L 3475 3500 
L 3475 0 
L 2900 0 
L 2900 538 
Q 2691 219 2414 64 
Q 2138 -91 1772 -91 
Q 1169 -91 856 284 
Q 544 659 544 1381 
z
M 1991 3584 
L 1991 3584 
z
" transform="scale(0.015625)"/>
      <path id="DejaVuSans-50" d="M 1259 4147 
L 1259 2394 
L 2053 2394 
Q 2494 2394 2734 2622 
Q 2975 2850 2975 3272 
Q 2975 3691 2734 3919 
Q 2494 4147 2053 4147 
L 1259 4147 
z
M 628 4666 
L 2053 4666 
Q 2838 4666 3239 4311 
Q 3641 3956 3641 3272 
Q 3641 2581 3239 2228 
Q 2838 1875 2053 1875 
L 1259 1875 
L 1259 0 
L 628 0 
L 628 4666 
z
" transform="scale(0.015625)"/>
      <path id="DejaVuSans-44" d="M 1259 4147 
L 1259 519 
L 2022 519 
Q 2988 519 3436 956 
Q 3884 1394 3884 2338 
Q 3884 3275 3436 3711 
Q 2988 4147 2022 4147 
L 1259 4147 
z
M 628 4666 
L 1925 4666 
Q 3281 4666 3915 4102 
Q 4550 3538 4550 2338 
Q 4550 1131 3912 565 
Q 3275 0 1925 0 
L 628 0 
L 628 4666 
z
" transform="scale(0.015625)"/>
      <path id="DejaVuSans-46" d="M 628 4666 
L 3309 4666 
L 3309 4134 
L 1259 4134 
L 1259 2759 
L 3109 2759 
L 3109 2228 
L 1259 2228 
L 1259 0 
L 628 0 
L 628 4666 
z
" transform="scale(0.015625)"/>
     </defs>
     <use xlink:href="#DejaVuSans-54"/>
     <use xlink:href="#DejaVuSans-72" x="46.333984"/>
     <use xlink:href="#DejaVuSans-75" x="87.447266"/>
     <use xlink:href="#DejaVuSans-65" x="150.826172"/>
     <use xlink:href="#DejaVuSans-20" x="212.349609"/>
     <use xlink:href="#DejaVuSans-50" x="244.136719"/>
     <use xlink:href="#DejaVuSans-44" x="304.439453"/>
     <use xlink:href="#DejaVuSans-46" x="381.441406"/>
    </g>
   </g>
  </g>
  <g id="axes_2">
   <g id="patch_7">
    <path d="M 175.268571 126.276923 
L 282.24 126.276923 
L 282.24 25.2 
L 175.268571 25.2 
z
" style="fill: #ffffff"/>
   </g>
   <g id="PathCollection_6">
    <path d="M 251.676735 105.765497 
L 254.417462 105.364456 
L 255.497143 105.164322 
L 259.317551 102.088951 
L 259.458441 101.879045 
L 260.147143 98.393634 
L 260.579141 94.908223 
L 260.106267 91.422812 
L 259.317551 89.397055 
L 258.882587 87.937401 
L 257.660354 84.451989 
L 255.681233 80.966578 
L 255.497143 80.720515 
L 253.876583 77.481167 
L 251.676735 74.631684 
L 251.235317 73.995756 
L 249.083637 70.510345 
L 247.856327 69.030646 
L 246.380336 67.024934 
L 244.035918 64.616611 
L 243.117664 63.539523 
L 240.21551 60.542678 
L 239.754476 60.054111 
L 236.395102 56.982379 
L 235.913345 56.5687 
L 232.574694 53.646791 
L 231.768078 53.083289 
L 228.754286 50.668068 
L 227.218631 49.597878 
L 224.933878 47.888147 
L 221.973748 46.112467 
L 221.113469 45.480408 
L 217.293061 43.939817 
L 213.472653 42.73467 
L 212.970756 42.627056 
L 209.652245 41.638556 
L 205.831837 41.700147 
L 202.576274 42.627056 
L 202.011429 42.860264 
L 199.767743 46.112467 
L 198.79997 49.597878 
L 198.847712 53.083289 
L 199.497276 56.5687 
L 200.743985 60.054111 
L 202.011429 62.970948 
L 202.180827 63.539523 
L 203.790916 67.024934 
L 205.831837 69.824259 
L 206.189688 70.510345 
L 208.087579 73.995756 
L 209.652245 75.73649 
L 211.041342 77.481167 
L 213.472653 80.346826 
L 213.893099 80.966578 
L 217.06599 84.451989 
L 217.293061 84.680117 
L 220.496006 87.937401 
L 221.113469 88.525646 
L 224.114567 91.422812 
L 224.933878 92.16496 
L 228.751409 94.908223 
L 228.754286 94.910681 
L 232.574694 97.96809 
L 233.382364 98.393634 
L 236.395102 100.421039 
L 239.362239 101.879045 
L 240.21551 102.42127 
L 244.035918 104.321796 
L 247.856327 105.169456 
L 249.392795 105.364456 
z
M 238.655783 94.908223 
L 236.395102 94.016249 
L 232.632188 91.422812 
L 232.574694 91.391726 
L 228.754286 89.110669 
L 227.361995 87.937401 
L 224.933878 85.860276 
L 223.350763 84.451989 
L 221.113469 82.149032 
L 219.951465 80.966578 
L 217.293061 77.84669 
L 216.995093 77.481167 
L 214.268854 73.995756 
L 213.472653 72.707908 
L 211.925195 70.510345 
L 210.358687 67.024934 
L 209.652245 65.449796 
L 208.509261 63.539523 
L 207.536422 60.054111 
L 207.244004 56.5687 
L 208.413894 53.083289 
L 209.652245 51.7162 
L 213.472653 50.244739 
L 217.293061 51.125269 
L 221.113469 52.243154 
L 222.441613 53.083289 
L 224.933878 54.320257 
L 228.213166 56.5687 
L 228.754286 56.945798 
L 232.574694 59.897052 
L 232.754414 60.054111 
L 236.395102 63.373691 
L 236.559724 63.539523 
L 239.950412 67.024934 
L 240.21551 67.352586 
L 242.870814 70.510345 
L 244.035918 72.055763 
L 245.555399 73.995756 
L 247.632742 77.481167 
L 247.856327 78.021503 
L 249.401345 80.966578 
L 250.829968 84.451989 
L 251.592898 87.937401 
L 251.676735 88.588291 
L 252.116049 91.422812 
L 251.676735 92.767185 
L 250.20647 94.908223 
L 247.856327 96.522535 
L 244.035918 96.688534 
L 240.21551 95.628983 
z
" clip-path="url(#p1e9705d8a4)" style="fill: #fee0d2"/>
   </g>
   <g id="PathCollection_7">
    <path d="M 240.21551 95.628983 
L 244.035918 96.688534 
L 247.856327 96.522535 
L 250.20647 94.908223 
L 251.676735 92.767185 
L 252.116049 91.422812 
L 251.676735 88.588291 
L 251.592898 87.937401 
L 250.829968 84.451989 
L 249.401345 80.966578 
L 247.856327 78.021503 
L 247.632742 77.481167 
L 245.555399 73.995756 
L 244.035918 72.055763 
L 242.870814 70.510345 
L 240.21551 67.352586 
L 239.950412 67.024934 
L 236.559724 63.539523 
L 236.395102 63.373691 
L 232.754414 60.054111 
L 232.574694 59.897052 
L 228.754286 56.945798 
L 228.213166 56.5687 
L 224.933878 54.320257 
L 222.441613 53.083289 
L 221.113469 52.243154 
L 217.293061 51.125269 
L 213.472653 50.244739 
L 209.652245 51.7162 
L 208.413894 53.083289 
L 207.244004 56.5687 
L 207.536422 60.054111 
L 208.509261 63.539523 
L 209.652245 65.449796 
L 210.358687 67.024934 
L 211.925195 70.510345 
L 213.472653 72.707908 
L 214.268854 73.995756 
L 216.995093 77.481167 
L 217.293061 77.84669 
L 219.951465 80.966578 
L 221.113469 82.149032 
L 223.350763 84.451989 
L 224.933878 85.860276 
L 227.361995 87.937401 
L 228.754286 89.110669 
L 232.574694 91.391726 
L 232.632188 91.422812 
L 236.395102 94.016249 
L 238.655783 94.908223 
z
M 232.926741 87.937401 
L 232.574694 87.764689 
L 228.754286 85.09157 
L 228.012742 84.451989 
L 224.933878 81.785029 
L 224.116485 80.966578 
L 221.113469 77.70271 
L 220.911934 77.481167 
L 218.07237 73.995756 
L 217.293061 72.764518 
L 215.83075 70.510345 
L 214.08059 67.024934 
L 213.472653 64.254553 
L 213.270068 63.539523 
L 212.897361 60.054111 
L 213.472653 58.588261 
L 215.341679 56.5687 
L 217.293061 55.913554 
L 220.310476 56.5687 
L 221.113469 56.736112 
L 224.933878 58.353258 
L 227.32791 60.054111 
L 228.754286 60.882023 
L 232.282247 63.539523 
L 232.574694 63.785 
L 236.056152 67.024934 
L 236.395102 67.391475 
L 239.013331 70.510345 
L 240.21551 72.157857 
L 241.650935 73.995756 
L 243.808365 77.481167 
L 244.035918 78.047585 
L 245.277485 80.966578 
L 246.245048 84.451989 
L 246.270857 87.937401 
L 244.035918 90.75488 
L 240.21551 91.099453 
L 236.395102 89.751223 
z
" clip-path="url(#p1e9705d8a4)" style="fill: #fc9272"/>
   </g>
   <g id="PathCollection_8">
    <path d="M 236.395102 89.751223 
L 240.21551 91.099453 
L 244.035918 90.75488 
L 246.270857 87.937401 
L 246.245048 84.451989 
L 245.277485 80.966578 
L 244.035918 78.047585 
L 243.808365 77.481167 
L 241.650935 73.995756 
L 240.21551 72.157857 
L 239.013331 70.510345 
L 236.395102 67.391475 
L 236.056152 67.024934 
L 232.574694 63.785 
L 232.282247 63.539523 
L 228.754286 60.882023 
L 227.32791 60.054111 
L 224.933878 58.353258 
L 221.113469 56.736112 
L 220.310476 56.5687 
L 217.293061 55.913554 
L 215.341679 56.5687 
L 213.472653 58.588261 
L 212.897361 60.054111 
L 213.270068 63.539523 
L 213.472653 64.254553 
L 214.08059 67.024934 
L 215.83075 70.510345 
L 217.293061 72.764518 
L 218.07237 73.995756 
L 220.911934 77.481167 
L 221.113469 77.70271 
L 224.116485 80.966578 
L 224.933878 81.785029 
L 228.012742 84.451989 
L 228.754286 85.09157 
L 232.574694 87.764689 
L 232.926741 87.937401 
z
M 233.316644 84.451989 
L 232.574694 84.167565 
L 228.754286 81.579919 
L 228.050708 80.966578 
L 224.933878 77.982005 
L 224.464824 77.481167 
L 221.648379 73.995756 
L 221.113469 73.158554 
L 219.477522 70.510345 
L 217.904952 67.024934 
L 217.844206 63.539523 
L 221.113469 61.192642 
L 224.933878 62.208741 
L 227.498314 63.539523 
L 228.754286 64.248016 
L 232.108046 67.024934 
L 232.574694 67.423543 
L 235.417357 70.510345 
L 236.395102 71.669708 
L 238.1071 73.995756 
L 240.21551 77.441049 
L 240.241071 77.481167 
L 241.472294 80.966578 
L 240.909655 84.451989 
L 240.21551 85.206481 
L 236.395102 85.713129 
z
" clip-path="url(#p1e9705d8a4)" style="fill: #ee3a2c"/>
   </g>
   <g id="PathCollection_9">
    <path d="M 236.395102 85.713129 
L 240.21551 85.206481 
L 240.909655 84.451989 
L 241.472294 80.966578 
L 240.241071 77.481167 
L 240.21551 77.441049 
L 238.1071 73.995756 
L 236.395102 71.669708 
L 235.417357 70.510345 
L 232.574694 67.423543 
L 232.108046 67.024934 
L 228.754286 64.248016 
L 227.498314 63.539523 
L 224.933878 62.208741 
L 221.113469 61.192642 
L 217.844206 63.539523 
L 217.904952 67.024934 
L 219.477522 70.510345 
L 221.113469 73.158554 
L 221.648379 73.995756 
L 224.464824 77.481167 
L 224.933878 77.982005 
L 228.050708 80.966578 
L 228.754286 81.579919 
L 232.574694 84.167565 
L 233.316644 84.451989 
z
M 229.388651 77.481167 
L 228.754286 77.094501 
L 225.729884 73.995756 
L 224.933878 72.888366 
L 223.641493 70.510345 
L 224.932169 67.024934 
L 224.933878 67.023997 
L 224.935912 67.024934 
L 228.754286 68.672822 
L 230.931877 70.510345 
L 232.574694 72.22482 
L 233.961228 73.995756 
L 235.579076 77.481167 
L 232.574694 79.627232 
z
" clip-path="url(#p1e9705d8a4)" style="fill: #a30f15"/>
   </g>
   <g id="PathCollection_10">
    <path d="M 232.574694 79.627232 
L 235.579076 77.481167 
L 233.961228 73.995756 
L 232.574694 72.22482 
L 230.931877 70.510345 
L 228.754286 68.672822 
L 224.935912 67.024934 
L 224.933878 67.023997 
L 224.932169 67.024934 
L 223.641493 70.510345 
L 224.933878 72.888366 
L 225.729884 73.995756 
L 228.754286 77.094501 
L 229.388651 77.481167 
z
" clip-path="url(#p1e9705d8a4)" style="fill: #67000d"/>
   </g>
   <g id="matplotlib.axis_3">
    <g id="xtick_4">
     <g id="line2d_9">
      <g>
       <use xlink:href="#mb8be462694" x="178.39436" y="126.276923" style="stroke: #000000; stroke-width: 0.8"/>
      </g>
     </g>
     <g id="text_12">
      <!-- −5 -->
      <g transform="translate(171.023266 140.875361) scale(0.1 -0.1)">
       <use xlink:href="#DejaVuSans-2212"/>
       <use xlink:href="#DejaVuSans-35" x="83.789062"/>
      </g>
     </g>
    </g>
    <g id="xtick_5">
     <g id="line2d_10">
      <g>
       <use xlink:href="#mb8be462694" x="228.754286" y="126.276923" style="stroke: #000000; stroke-width: 0.8"/>
      </g>
     </g>
     <g id="text_13">
      <!-- 0 -->
      <g transform="translate(225.573036 140.875361) scale(0.1 -0.1)">
       <use xlink:href="#DejaVuSans-30"/>
      </g>
     </g>
    </g>
    <g id="xtick_6">
     <g id="line2d_11">
      <g>
       <use xlink:href="#mb8be462694" x="279.114212" y="126.276923" style="stroke: #000000; stroke-width: 0.8"/>
      </g>
     </g>
     <g id="text_14">
      <!-- 5 -->
      <g transform="translate(275.932962 140.875361) scale(0.1 -0.1)">
       <use xlink:href="#DejaVuSans-35"/>
      </g>
     </g>
    </g>
    <g id="text_15">
     <!-- Model variable 1 -->
     <g transform="translate(187.209754 154.553486) scale(0.1 -0.1)">
      <use xlink:href="#DejaVuSans-4d"/>
      <use xlink:href="#DejaVuSans-6f" x="86.279297"/>
      <use xlink:href="#DejaVuSans-64" x="147.460938"/>
      <use xlink:href="#DejaVuSans-65" x="210.9375"/>
      <use xlink:href="#DejaVuSans-6c" x="272.460938"/>
      <use xlink:href="#DejaVuSans-20" x="300.244141"/>
      <use xlink:href="#DejaVuSans-76" x="332.03125"/>
      <use xlink:href="#DejaVuSans-61" x="391.210938"/>
      <use xlink:href="#DejaVuSans-72" x="452.490234"/>
      <use xlink:href="#DejaVuSans-69" x="493.603516"/>
      <use xlink:href="#DejaVuSans-61" x="521.386719"/>
      <use xlink:href="#DejaVuSans-62" x="582.666016"/>
      <use xlink:href="#DejaVuSans-6c" x="646.142578"/>
      <use xlink:href="#DejaVuSans-65" x="673.925781"/>
      <use xlink:href="#DejaVuSans-20" x="735.449219"/>
      <use xlink:href="#DejaVuSans-31" x="767.236328"/>
     </g>
    </g>
   </g>
   <g id="matplotlib.axis_4">
    <g id="ytick_6">
     <g id="line2d_12">
      <g>
       <use xlink:href="#m6c18aedca2" x="175.268571" y="123.266795" style="stroke: #000000; stroke-width: 0.8"/>
      </g>
     </g>
    </g>
    <g id="ytick_7">
     <g id="line2d_13">
      <g>
       <use xlink:href="#m6c18aedca2" x="175.268571" y="99.502628" style="stroke: #000000; stroke-width: 0.8"/>
      </g>
     </g>
    </g>
    <g id="ytick_8">
     <g id="line2d_14">
      <g>
       <use xlink:href="#m6c18aedca2" x="175.268571" y="75.738462" style="stroke: #000000; stroke-width: 0.8"/>
      </g>
     </g>
    </g>
    <g id="ytick_9">
     <g id="line2d_15">
      <g>
       <use xlink:href="#m6c18aedca2" x="175.268571" y="51.974295" style="stroke: #000000; stroke-width: 0.8"/>
      </g>
     </g>
    </g>
    <g id="ytick_10">
     <g id="line2d_16">
      <g>
       <use xlink:href="#m6c18aedca2" x="175.268571" y="28.210128" style="stroke: #000000; stroke-width: 0.8"/>
      </g>
     </g>
    </g>
   </g>
   <g id="patch_8">
    <path d="M 175.268571 126.276923 
L 175.268571 25.2 
" style="fill: none; stroke: #000000; stroke-width: 0.8; stroke-linejoin: miter; stroke-linecap: square"/>
   </g>
   <g id="patch_9">
    <path d="M 282.24 126.276923 
L 282.24 25.2 
" style="fill: none; stroke: #000000; stroke-width: 0.8; stroke-linejoin: miter; stroke-linecap: square"/>
   </g>
   <g id="patch_10">
    <path d="M 175.268571 126.276923 
L 282.24 126.276923 
" style="fill: none; stroke: #000000; stroke-width: 0.8; stroke-linejoin: miter; stroke-linecap: square"/>
   </g>
   <g id="patch_11">
    <path d="M 175.268571 25.2 
L 282.24 25.2 
" style="fill: none; stroke: #000000; stroke-width: 0.8; stroke-linejoin: miter; stroke-linecap: square"/>
   </g>
   <g id="text_16">
    <!-- Virt Mems' PDF -->
    <g transform="translate(183.308973 19.2) scale(0.12 -0.12)">
     <defs>
      <path id="DejaVuSans-56" d="M 1831 0 
L 50 4666 
L 709 4666 
L 2188 738 
L 3669 4666 
L 4325 4666 
L 2547 0 
L 1831 0 
z
" transform="scale(0.015625)"/>
      <path id="DejaVuSans-74" d="M 1172 4494 
L 1172 3500 
L 2356 3500 
L 2356 3053 
L 1172 3053 
L 1172 1153 
Q 1172 725 1289 603 
Q 1406 481 1766 481 
L 2356 481 
L 2356 0 
L 1766 0 
Q 1100 0 847 248 
Q 594 497 594 1153 
L 594 3053 
L 172 3053 
L 172 3500 
L 594 3500 
L 594 4494 
L 1172 4494 
z
" transform="scale(0.015625)"/>
      <path id="DejaVuSans-6d" d="M 3328 2828 
Q 3544 3216 3844 3400 
Q 4144 3584 4550 3584 
Q 5097 3584 5394 3201 
Q 5691 2819 5691 2113 
L 5691 0 
L 5113 0 
L 5113 2094 
Q 5113 2597 4934 2840 
Q 4756 3084 4391 3084 
Q 3944 3084 3684 2787 
Q 3425 2491 3425 1978 
L 3425 0 
L 2847 0 
L 2847 2094 
Q 2847 2600 2669 2842 
Q 2491 3084 2119 3084 
Q 1678 3084 1418 2786 
Q 1159 2488 1159 1978 
L 1159 0 
L 581 0 
L 581 3500 
L 1159 3500 
L 1159 2956 
Q 1356 3278 1631 3431 
Q 1906 3584 2284 3584 
Q 2666 3584 2933 3390 
Q 3200 3197 3328 2828 
z
" transform="scale(0.015625)"/>
      <path id="DejaVuSans-73" d="M 2834 3397 
L 2834 2853 
Q 2591 2978 2328 3040 
Q 2066 3103 1784 3103 
Q 1356 3103 1142 2972 
Q 928 2841 928 2578 
Q 928 2378 1081 2264 
Q 1234 2150 1697 2047 
L 1894 2003 
Q 2506 1872 2764 1633 
Q 3022 1394 3022 966 
Q 3022 478 2636 193 
Q 2250 -91 1575 -91 
Q 1294 -91 989 -36 
Q 684 19 347 128 
L 347 722 
Q 666 556 975 473 
Q 1284 391 1588 391 
Q 1994 391 2212 530 
Q 2431 669 2431 922 
Q 2431 1156 2273 1281 
Q 2116 1406 1581 1522 
L 1381 1569 
Q 847 1681 609 1914 
Q 372 2147 372 2553 
Q 372 3047 722 3315 
Q 1072 3584 1716 3584 
Q 2034 3584 2315 3537 
Q 2597 3491 2834 3397 
z
" transform="scale(0.015625)"/>
      <path id="DejaVuSans-27" d="M 1147 4666 
L 1147 2931 
L 616 2931 
L 616 4666 
L 1147 4666 
z
" transform="scale(0.015625)"/>
     </defs>
     <use xlink:href="#DejaVuSans-56"/>
     <use xlink:href="#DejaVuSans-69" x="66.158203"/>
     <use xlink:href="#DejaVuSans-72" x="93.941406"/>
     <use xlink:href="#DejaVuSans-74" x="135.054688"/>
     <use xlink:href="#DejaVuSans-20" x="174.263672"/>
     <use xlink:href="#DejaVuSans-4d" x="206.050781"/>
     <use xlink:href="#DejaVuSans-65" x="292.330078"/>
     <use xlink:href="#DejaVuSans-6d" x="353.853516"/>
     <use xlink:href="#DejaVuSans-73" x="451.265625"/>
     <use xlink:href="#DejaVuSans-27" x="503.365234"/>
     <use xlink:href="#DejaVuSans-20" x="530.855469"/>
     <use xlink:href="#DejaVuSans-50" x="562.642578"/>
     <use xlink:href="#DejaVuSans-44" x="622.945312"/>
     <use xlink:href="#DejaVuSans-46" x="699.947266"/>
    </g>
   </g>
  </g>
  <g id="axes_3">
   <g id="patch_12">
    <path d="M 57.6 288 
L 164.571429 288 
L 164.571429 186.923077 
L 57.6 186.923077 
z
" style="fill: #ffffff"/>
   </g>
   <g id="PathCollection_11">
    <path d="M 130.187755 270.928718 
L 134.008163 271.487725 
L 137.828571 271.628584 
L 141.64898 270.762443 
L 141.999992 270.572944 
L 145.469388 267.512284 
L 145.77991 267.087533 
L 147.107124 263.602122 
L 147.32379 260.116711 
L 146.825168 256.6313 
L 145.753061 253.145889 
L 145.469388 252.533745 
L 144.534278 249.660477 
L 142.772084 246.175066 
L 141.64898 244.495674 
L 140.752485 242.689655 
L 138.374317 239.204244 
L 137.828571 238.533198 
L 135.859537 235.718833 
L 134.008163 233.518144 
L 133.076589 232.233422 
L 130.187755 229.092477 
L 129.890082 228.748011 
L 126.367347 225.265639 
L 126.364184 225.262599 
L 122.546939 221.785915 
L 122.537133 221.777188 
L 118.726531 218.464661 
L 118.497436 218.291777 
L 114.906122 215.503994 
L 113.865507 214.806366 
L 111.085714 212.723979 
L 108.644617 211.320955 
L 107.265306 210.381344 
L 103.444898 208.377297 
L 102.052778 207.835544 
L 99.62449 206.585255 
L 95.804082 205.098707 
L 92.897031 204.350133 
L 91.983673 204.023642 
L 88.163265 203.286393 
L 84.342857 203.199821 
L 80.522449 204.239692 
L 80.322832 204.350133 
L 76.702041 207.373167 
L 76.353541 207.835544 
L 74.996507 211.320955 
L 74.720914 214.806366 
L 75.253513 218.291777 
L 76.317183 221.777188 
L 76.702041 222.537383 
L 77.678492 225.262599 
L 79.341601 228.748011 
L 80.522449 230.501436 
L 81.457884 232.233422 
L 83.8224 235.718833 
L 84.342857 236.379953 
L 86.170451 239.204244 
L 88.163265 241.488093 
L 89.120558 242.689655 
L 91.983673 245.794946 
L 92.314562 246.175066 
L 95.804082 249.641961 
L 95.822887 249.660477 
L 99.570094 253.145889 
L 99.62449 253.196108 
L 103.444898 256.426004 
L 103.719406 256.6313 
L 107.265306 259.524792 
L 108.159606 260.116711 
L 111.085714 262.186772 
L 113.599034 263.602122 
L 114.906122 264.475933 
L 118.726531 266.539355 
L 120.078439 267.087533 
L 122.546939 268.383743 
L 126.367347 269.836252 
L 129.175403 270.572944 
z
M 120.501562 260.116711 
L 118.726531 259.513369 
L 114.906122 257.587725 
L 113.405337 256.6313 
L 111.085714 255.294157 
L 108.115842 253.145889 
L 107.265306 252.556735 
L 103.744012 249.660477 
L 103.444898 249.412218 
L 99.895534 246.175066 
L 99.62449 245.90457 
L 96.484825 242.689655 
L 95.804082 241.867199 
L 93.534437 239.204244 
L 91.983673 237.088129 
L 90.917042 235.718833 
L 88.80078 232.233422 
L 88.163265 230.969352 
L 86.897133 228.748011 
L 85.702066 225.262599 
L 84.935102 221.777188 
L 84.948958 218.291777 
L 87.055978 214.806366 
L 88.163265 213.910986 
L 91.983673 212.749746 
L 95.804082 212.951833 
L 99.62449 213.870517 
L 101.682884 214.806366 
L 103.444898 215.478978 
L 107.265306 217.345128 
L 108.72504 218.291777 
L 111.085714 219.641863 
L 114.036743 221.777188 
L 114.906122 222.369004 
L 118.452441 225.262599 
L 118.726531 225.497314 
L 122.22804 228.748011 
L 122.546939 229.063292 
L 125.666622 232.233422 
L 126.367347 233.04836 
L 128.667778 235.718833 
L 130.187755 237.871585 
L 131.224106 239.204244 
L 133.395508 242.689655 
L 134.008163 244.029305 
L 135.197413 246.175066 
L 136.495699 249.660477 
L 137.233975 253.145889 
L 137.137472 256.6313 
L 135.341438 260.116711 
L 134.008163 261.213282 
L 130.187755 262.15024 
L 126.367347 262.007966 
L 122.546939 260.963512 
z
" clip-path="url(#pd9f498e82d)" style="fill: #deebf7"/>
   </g>
   <g id="PathCollection_12">
    <path d="M 122.546939 260.963512 
L 126.367347 262.007966 
L 130.187755 262.15024 
L 134.008163 261.213282 
L 135.341438 260.116711 
L 137.137472 256.6313 
L 137.233975 253.145889 
L 136.495699 249.660477 
L 135.197413 246.175066 
L 134.008163 244.029305 
L 133.395508 242.689655 
L 131.224106 239.204244 
L 130.187755 237.871585 
L 128.667778 235.718833 
L 126.367347 233.04836 
L 125.666622 232.233422 
L 122.546939 229.063292 
L 122.22804 228.748011 
L 118.726531 225.497314 
L 118.452441 225.262599 
L 114.906122 222.369004 
L 114.036743 221.777188 
L 111.085714 219.641863 
L 108.72504 218.291777 
L 107.265306 217.345128 
L 103.444898 215.478978 
L 101.682884 214.806366 
L 99.62449 213.870517 
L 95.804082 212.951833 
L 91.983673 212.749746 
L 88.163265 213.910986 
L 87.055978 214.806366 
L 84.948958 218.291777 
L 84.935102 221.777188 
L 85.702066 225.262599 
L 86.897133 228.748011 
L 88.163265 230.969352 
L 88.80078 232.233422 
L 90.917042 235.718833 
L 91.983673 237.088129 
L 93.534437 239.204244 
L 95.804082 241.867199 
L 96.484825 242.689655 
L 99.62449 245.90457 
L 99.895534 246.175066 
L 103.444898 249.412218 
L 103.744012 249.660477 
L 107.265306 252.556735 
L 108.115842 253.145889 
L 111.085714 255.294157 
L 113.405337 256.6313 
L 114.906122 257.587725 
L 118.726531 259.513369 
L 120.501562 260.116711 
z
M 114.891205 253.145889 
L 111.085714 251.01111 
L 109.229738 249.660477 
L 107.265306 248.232868 
L 104.826679 246.175066 
L 103.444898 244.919178 
L 101.175548 242.689655 
L 99.62449 240.951381 
L 98.100606 239.204244 
L 95.804082 236.034139 
L 95.558307 235.718833 
L 93.508355 232.233422 
L 92.052935 228.748011 
L 91.983673 228.440255 
L 91.172956 225.262599 
L 91.531185 221.777188 
L 91.983673 221.061018 
L 95.804082 218.881419 
L 99.62449 218.850173 
L 103.444898 219.968838 
L 107.265306 221.73753 
L 107.329653 221.777188 
L 111.085714 223.933731 
L 112.949689 225.262599 
L 114.906122 226.689892 
L 117.284553 228.748011 
L 118.726531 230.012901 
L 121.007917 232.233422 
L 122.546939 234.002613 
L 124.080592 235.718833 
L 126.367347 238.798614 
L 126.674106 239.204244 
L 128.728978 242.689655 
L 130.167983 246.175066 
L 130.187755 246.271076 
L 130.97935 249.660477 
L 130.520054 253.145889 
L 130.187755 253.698009 
L 126.367347 256.081806 
L 122.546939 256.035429 
L 118.726531 254.987926 
L 114.906122 253.155072 
z
" clip-path="url(#pd9f498e82d)" style="fill: #9dcae1"/>
   </g>
   <g id="PathCollection_13">
    <path d="M 114.906122 253.155072 
L 118.726531 254.987926 
L 122.546939 256.035429 
L 126.367347 256.081806 
L 130.187755 253.698009 
L 130.520054 253.145889 
L 130.97935 249.660477 
L 130.187755 246.271076 
L 130.167983 246.175066 
L 128.728978 242.689655 
L 126.674106 239.204244 
L 126.367347 238.798614 
L 124.080592 235.718833 
L 122.546939 234.002613 
L 121.007917 232.233422 
L 118.726531 230.012901 
L 117.284553 228.748011 
L 114.906122 226.689892 
L 112.949689 225.262599 
L 111.085714 223.933731 
L 107.329653 221.777188 
L 107.265306 221.73753 
L 103.444898 219.968838 
L 99.62449 218.850173 
L 95.804082 218.881419 
L 91.983673 221.061018 
L 91.531185 221.777188 
L 91.172956 225.262599 
L 91.983673 228.440255 
L 92.052935 228.748011 
L 93.508355 232.233422 
L 95.558307 235.718833 
L 95.804082 236.034139 
L 98.100606 239.204244 
L 99.62449 240.951381 
L 101.175548 242.689655 
L 103.444898 244.919178 
L 104.826679 246.175066 
L 107.265306 248.232868 
L 109.229738 249.660477 
L 111.085714 251.01111 
L 114.891205 253.145889 
z
M 115.905319 249.660477 
L 114.906122 249.316203 
L 111.085714 247.164472 
L 109.726163 246.175066 
L 107.265306 244.282032 
L 105.513465 242.689655 
L 103.444898 240.636121 
L 102.151473 239.204244 
L 99.62449 235.775941 
L 99.582422 235.718833 
L 97.757266 232.233422 
L 96.845807 228.748011 
L 97.885087 225.262599 
L 99.62449 224.217003 
L 103.444898 224.248606 
L 106.21806 225.262599 
L 107.265306 225.641898 
L 111.085714 227.721057 
L 112.472355 228.748011 
L 114.906122 230.644651 
L 116.715524 232.233422 
L 118.726531 234.272246 
L 119.997158 235.718833 
L 122.546939 239.110495 
L 122.618262 239.204244 
L 124.42885 242.689655 
L 125.313829 246.175066 
L 124.310734 249.660477 
L 122.546939 250.783352 
L 118.726531 250.68163 
z
" clip-path="url(#pd9f498e82d)" style="fill: #4191c6"/>
   </g>
   <g id="PathCollection_14">
    <path d="M 118.726531 250.68163 
L 122.546939 250.783352 
L 124.310734 249.660477 
L 125.313829 246.175066 
L 124.42885 242.689655 
L 122.618262 239.204244 
L 122.546939 239.110495 
L 119.997158 235.718833 
L 118.726531 234.272246 
L 116.715524 232.233422 
L 114.906122 230.644651 
L 112.472355 228.748011 
L 111.085714 227.721057 
L 107.265306 225.641898 
L 106.21806 225.262599 
L 103.444898 224.248606 
L 99.62449 224.217003 
L 97.885087 225.262599 
L 96.845807 228.748011 
L 97.757266 232.233422 
L 99.582422 235.718833 
L 99.62449 235.775941 
L 102.151473 239.204244 
L 103.444898 240.636121 
L 105.513465 242.689655 
L 107.265306 244.282032 
L 109.726163 246.175066 
L 111.085714 247.164472 
L 114.906122 249.316203 
L 115.905319 249.660477 
z
M 110.990393 242.689655 
L 107.265306 239.626186 
L 106.844988 239.204244 
L 104.309684 235.718833 
L 103.444898 233.305227 
L 103.111337 232.233422 
L 103.444898 231.406856 
L 107.265306 230.456292 
L 111.085714 232.012179 
L 111.376823 232.233422 
L 114.906122 235.217026 
L 115.396022 235.718833 
L 117.697304 239.204244 
L 118.726531 241.809891 
L 119.04143 242.689655 
L 118.726531 243.406097 
L 114.906122 244.527977 
L 111.085714 242.761155 
z
" clip-path="url(#pd9f498e82d)" style="fill: #08509b"/>
   </g>
   <g id="PathCollection_15">
    <path d="M 111.085714 242.761155 
L 114.906122 244.527977 
L 118.726531 243.406097 
L 119.04143 242.689655 
L 118.726531 241.809891 
L 117.697304 239.204244 
L 115.396022 235.718833 
L 114.906122 235.217026 
L 111.376823 232.233422 
L 111.085714 232.012179 
L 107.265306 230.456292 
L 103.444898 231.406856 
L 103.111337 232.233422 
L 103.444898 233.305227 
L 104.309684 235.718833 
L 106.844988 239.204244 
L 107.265306 239.626186 
L 110.990393 242.689655 
z
" clip-path="url(#pd9f498e82d)" style="fill: #08306b"/>
   </g>
   <g id="matplotlib.axis_5">
    <g id="xtick_7">
     <g id="line2d_17">
      <g>
       <use xlink:href="#mb8be462694" x="69.119109" y="288" style="stroke: #000000; stroke-width: 0.8"/>
      </g>
     </g>
     <g id="text_17">
      <!-- −2.5 -->
      <g transform="translate(56.977703 302.598437) scale(0.1 -0.1)">
       <use xlink:href="#DejaVuSans-2212"/>
       <use xlink:href="#DejaVuSans-32" x="83.789062"/>
       <use xlink:href="#DejaVuSans-2e" x="147.412109"/>
       <use xlink:href="#DejaVuSans-35" x="179.199219"/>
      </g>
     </g>
    </g>
    <g id="xtick_8">
     <g id="line2d_18">
      <g>
       <use xlink:href="#mb8be462694" x="111.085714" y="288" style="stroke: #000000; stroke-width: 0.8"/>
      </g>
     </g>
     <g id="text_18">
      <!-- 0.0 -->
      <g transform="translate(103.134152 302.598437) scale(0.1 -0.1)">
       <use xlink:href="#DejaVuSans-30"/>
       <use xlink:href="#DejaVuSans-2e" x="63.623047"/>
       <use xlink:href="#DejaVuSans-30" x="95.410156"/>
      </g>
     </g>
    </g>
    <g id="xtick_9">
     <g id="line2d_19">
      <g>
       <use xlink:href="#mb8be462694" x="153.052319" y="288" style="stroke: #000000; stroke-width: 0.8"/>
      </g>
     </g>
     <g id="text_19">
      <!-- 2.5 -->
      <g transform="translate(145.100757 302.598437) scale(0.1 -0.1)">
       <use xlink:href="#DejaVuSans-32"/>
       <use xlink:href="#DejaVuSans-2e" x="63.623047"/>
       <use xlink:href="#DejaVuSans-35" x="95.410156"/>
      </g>
     </g>
    </g>
    <g id="text_20">
     <!-- Probit variable 1 -->
     <g transform="translate(70.101339 316.276562) scale(0.1 -0.1)">
      <use xlink:href="#DejaVuSans-50"/>
      <use xlink:href="#DejaVuSans-72" x="58.552734"/>
      <use xlink:href="#DejaVuSans-6f" x="97.416016"/>
      <use xlink:href="#DejaVuSans-62" x="158.597656"/>
      <use xlink:href="#DejaVuSans-69" x="222.074219"/>
      <use xlink:href="#DejaVuSans-74" x="249.857422"/>
      <use xlink:href="#DejaVuSans-20" x="289.066406"/>
      <use xlink:href="#DejaVuSans-76" x="320.853516"/>
      <use xlink:href="#DejaVuSans-61" x="380.033203"/>
      <use xlink:href="#DejaVuSans-72" x="441.3125"/>
      <use xlink:href="#DejaVuSans-69" x="482.425781"/>
      <use xlink:href="#DejaVuSans-61" x="510.208984"/>
      <use xlink:href="#DejaVuSans-62" x="571.488281"/>
      <use xlink:href="#DejaVuSans-6c" x="634.964844"/>
      <use xlink:href="#DejaVuSans-65" x="662.748047"/>
      <use xlink:href="#DejaVuSans-20" x="724.271484"/>
      <use xlink:href="#DejaVuSans-31" x="756.058594"/>
     </g>
    </g>
   </g>
   <g id="matplotlib.axis_6">
    <g id="ytick_11">
     <g id="line2d_20">
      <g>
       <use xlink:href="#m6c18aedca2" x="57.6" y="269.147094" style="stroke: #000000; stroke-width: 0.8"/>
      </g>
     </g>
     <g id="text_21">
      <!-- −2 -->
      <g transform="translate(35.857813 272.946313) scale(0.1 -0.1)">
       <use xlink:href="#DejaVuSans-2212"/>
       <use xlink:href="#DejaVuSans-32" x="83.789062"/>
      </g>
     </g>
    </g>
    <g id="ytick_12">
     <g id="line2d_21">
      <g>
       <use xlink:href="#m6c18aedca2" x="57.6" y="237.461538" style="stroke: #000000; stroke-width: 0.8"/>
      </g>
     </g>
     <g id="text_22">
      <!-- 0 -->
      <g transform="translate(44.2375 241.260757) scale(0.1 -0.1)">
       <use xlink:href="#DejaVuSans-30"/>
      </g>
     </g>
    </g>
    <g id="ytick_13">
     <g id="line2d_22">
      <g>
       <use xlink:href="#m6c18aedca2" x="57.6" y="205.775983" style="stroke: #000000; stroke-width: 0.8"/>
      </g>
     </g>
     <g id="text_23">
      <!-- 2 -->
      <g transform="translate(44.2375 209.575201) scale(0.1 -0.1)">
       <use xlink:href="#DejaVuSans-32"/>
      </g>
     </g>
    </g>
    <g id="text_24">
     <!-- Probit variable 2 -->
     <g transform="translate(29.778125 278.445913) rotate(-90) scale(0.1 -0.1)">
      <use xlink:href="#DejaVuSans-50"/>
      <use xlink:href="#DejaVuSans-72" x="58.552734"/>
      <use xlink:href="#DejaVuSans-6f" x="97.416016"/>
      <use xlink:href="#DejaVuSans-62" x="158.597656"/>
      <use xlink:href="#DejaVuSans-69" x="222.074219"/>
      <use xlink:href="#DejaVuSans-74" x="249.857422"/>
      <use xlink:href="#DejaVuSans-20" x="289.066406"/>
      <use xlink:href="#DejaVuSans-76" x="320.853516"/>
      <use xlink:href="#DejaVuSans-61" x="380.033203"/>
      <use xlink:href="#DejaVuSans-72" x="441.3125"/>
      <use xlink:href="#DejaVuSans-69" x="482.425781"/>
      <use xlink:href="#DejaVuSans-61" x="510.208984"/>
      <use xlink:href="#DejaVuSans-62" x="571.488281"/>
      <use xlink:href="#DejaVuSans-6c" x="634.964844"/>
      <use xlink:href="#DejaVuSans-65" x="662.748047"/>
      <use xlink:href="#DejaVuSans-20" x="724.271484"/>
      <use xlink:href="#DejaVuSans-32" x="756.058594"/>
     </g>
    </g>
   </g>
   <g id="patch_13">
    <path d="M 57.6 288 
L 57.6 186.923077 
" style="fill: none; stroke: #000000; stroke-width: 0.8; stroke-linejoin: miter; stroke-linecap: square"/>
   </g>
   <g id="patch_14">
    <path d="M 164.571429 288 
L 164.571429 186.923077 
" style="fill: none; stroke: #000000; stroke-width: 0.8; stroke-linejoin: miter; stroke-linecap: square"/>
   </g>
   <g id="patch_15">
    <path d="M 57.6 288 
L 164.571429 288 
" style="fill: none; stroke: #000000; stroke-width: 0.8; stroke-linejoin: miter; stroke-linecap: square"/>
   </g>
   <g id="patch_16">
    <path d="M 57.6 186.923077 
L 164.571429 186.923077 
" style="fill: none; stroke: #000000; stroke-width: 0.8; stroke-linejoin: miter; stroke-linecap: square"/>
   </g>
   <g id="text_25">
    <!-- True PDF -->
    <g transform="translate(84.749464 180.923077) scale(0.12 -0.12)">
     <use xlink:href="#DejaVuSans-54"/>
     <use xlink:href="#DejaVuSans-72" x="46.333984"/>
     <use xlink:href="#DejaVuSans-75" x="87.447266"/>
     <use xlink:href="#DejaVuSans-65" x="150.826172"/>
     <use xlink:href="#DejaVuSans-20" x="212.349609"/>
     <use xlink:href="#DejaVuSans-50" x="244.136719"/>
     <use xlink:href="#DejaVuSans-44" x="304.439453"/>
     <use xlink:href="#DejaVuSans-46" x="381.441406"/>
    </g>
   </g>
  </g>
  <g id="axes_4">
   <g id="patch_17">
    <path d="M 175.268571 288 
L 282.24 288 
L 282.24 186.923077 
L 175.268571 186.923077 
z
" style="fill: #ffffff"/>
   </g>
   <g id="PathCollection_16">
    <path d="M 247.856327 270.724375 
L 251.676735 271.549694 
L 255.497143 271.768311 
L 259.317551 270.884008 
L 259.839516 270.572944 
L 263.137959 267.979897 
L 263.838044 267.087533 
L 264.727017 263.602122 
L 265.052688 260.116711 
L 264.385768 256.6313 
L 263.167784 253.145889 
L 263.137959 253.093978 
L 261.764985 249.660477 
L 259.590799 246.175066 
L 259.317551 245.805116 
L 257.785176 242.689655 
L 255.497143 239.660415 
L 255.206976 239.204244 
L 252.619734 235.718833 
L 251.676735 234.605489 
L 249.875955 232.233422 
L 247.856327 230.14022 
L 246.470273 228.748011 
L 244.035918 226.302846 
L 243.034708 225.262599 
L 240.21551 222.59875 
L 239.309205 221.777188 
L 236.395102 219.423744 
L 234.882813 218.291777 
L 232.574694 216.332581 
L 229.983527 214.806366 
L 228.754286 213.951194 
L 224.933878 211.404086 
L 224.798455 211.320955 
L 221.113469 208.817873 
L 218.670087 207.835544 
L 217.293061 207.078448 
L 213.472653 205.615523 
L 209.652245 204.518016 
L 208.779009 204.350133 
L 205.831837 203.563063 
L 202.011429 203.424237 
L 198.19102 204.128594 
L 197.791771 204.350133 
L 194.370612 206.974753 
L 193.784517 207.835544 
L 192.414369 211.320955 
L 192.521187 214.806366 
L 193.312273 218.291777 
L 194.370612 221.080106 
L 194.556846 221.777188 
L 195.920259 225.262599 
L 197.944058 228.748011 
L 198.19102 229.114789 
L 199.67577 232.233422 
L 202.011429 235.257859 
L 202.290583 235.718833 
L 204.926057 239.204244 
L 205.831837 240.218737 
L 207.944543 242.689655 
L 209.652245 244.455021 
L 211.042594 246.175066 
L 213.472653 248.575649 
L 214.630269 249.660477 
L 217.293061 252.193414 
L 218.392249 253.145889 
L 221.113469 255.429405 
L 222.655762 256.6313 
L 224.933878 258.538721 
L 227.299802 260.116711 
L 228.754286 261.349032 
L 232.574694 263.391345 
L 233.005334 263.602122 
L 236.395102 265.902219 
L 238.997001 267.087533 
L 240.21551 267.760195 
L 244.035918 269.422713 
L 247.521349 270.572944 
z
M 239.054106 260.116711 
L 236.395102 259.137332 
L 232.681832 256.6313 
L 232.574694 256.576336 
L 228.754286 254.769662 
L 226.670514 253.145889 
L 224.933878 251.821836 
L 222.167019 249.660477 
L 221.113469 248.673201 
L 218.412762 246.175066 
L 217.293061 245.159873 
L 214.753666 242.689655 
L 213.472653 241.046817 
L 211.961293 239.204244 
L 209.652245 236.382259 
L 209.087679 235.718833 
L 207.021335 232.233422 
L 205.831837 229.843904 
L 205.151034 228.748011 
L 203.467792 225.262599 
L 202.771144 221.777188 
L 202.794873 218.291777 
L 204.241514 214.806366 
L 205.831837 213.518313 
L 209.652245 212.538315 
L 213.472653 213.198153 
L 217.293061 214.195894 
L 218.48425 214.806366 
L 221.113469 215.824233 
L 224.933878 217.743525 
L 225.766192 218.291777 
L 228.754286 220.459129 
L 230.568417 221.777188 
L 232.574694 223.02793 
L 235.22687 225.262599 
L 236.395102 226.209383 
L 239.1473 228.748011 
L 240.21551 229.853057 
L 242.663772 232.233422 
L 244.035918 233.887452 
L 245.542918 235.718833 
L 247.856327 238.938543 
L 248.097997 239.204244 
L 250.644092 242.689655 
L 251.676735 244.887875 
L 252.414677 246.175066 
L 253.89211 249.660477 
L 254.482518 253.145889 
L 255.329158 256.6313 
L 253.091347 260.116711 
L 251.676735 261.645018 
L 247.856327 262.200987 
L 244.035918 261.824022 
L 240.21551 260.633378 
z
" clip-path="url(#p04f3edef62)" style="fill: #deebf7"/>
   </g>
   <g id="PathCollection_17">
    <path d="M 240.21551 260.633378 
L 244.035918 261.824022 
L 247.856327 262.200987 
L 251.676735 261.645018 
L 253.091347 260.116711 
L 255.329158 256.6313 
L 254.482518 253.145889 
L 253.89211 249.660477 
L 252.414677 246.175066 
L 251.676735 244.887875 
L 250.644092 242.689655 
L 248.097997 239.204244 
L 247.856327 238.938543 
L 245.542918 235.718833 
L 244.035918 233.887452 
L 242.663772 232.233422 
L 240.21551 229.853057 
L 239.1473 228.748011 
L 236.395102 226.209383 
L 235.22687 225.262599 
L 232.574694 223.02793 
L 230.568417 221.777188 
L 228.754286 220.459129 
L 225.766192 218.291777 
L 224.933878 217.743525 
L 221.113469 215.824233 
L 218.48425 214.806366 
L 217.293061 214.195894 
L 213.472653 213.198153 
L 209.652245 212.538315 
L 205.831837 213.518313 
L 204.241514 214.806366 
L 202.794873 218.291777 
L 202.771144 221.777188 
L 203.467792 225.262599 
L 205.151034 228.748011 
L 205.831837 229.843904 
L 207.021335 232.233422 
L 209.087679 235.718833 
L 209.652245 236.382259 
L 211.961293 239.204244 
L 213.472653 241.046817 
L 214.753666 242.689655 
L 217.293061 245.159873 
L 218.412762 246.175066 
L 221.113469 248.673201 
L 222.167019 249.660477 
L 224.933878 251.821836 
L 226.670514 253.145889 
L 228.754286 254.769662 
L 232.574694 256.576336 
L 232.681832 256.6313 
L 236.395102 259.137332 
L 239.054106 260.116711 
z
M 233.282992 253.145889 
L 232.574694 252.834172 
L 228.754286 250.541973 
L 227.597026 249.660477 
L 224.933878 247.749235 
L 223.244619 246.175066 
L 221.113469 244.207745 
L 219.441211 242.689655 
L 217.293061 240.283213 
L 216.385312 239.204244 
L 213.472653 235.725236 
L 213.467057 235.718833 
L 211.422211 232.233422 
L 209.884061 228.748011 
L 209.652245 227.58315 
L 209.03106 225.262599 
L 209.050781 221.777188 
L 209.652245 220.975432 
L 213.472653 218.382592 
L 217.293061 219.063903 
L 221.113469 220.24747 
L 224.194198 221.777188 
L 224.933878 222.094192 
L 228.754286 224.380987 
L 230.026293 225.262599 
L 232.574694 227.164923 
L 234.491837 228.748011 
L 236.395102 230.493443 
L 238.109181 232.233422 
L 240.21551 234.808072 
L 241.006202 235.718833 
L 244.035918 239.204244 
L 244.035918 239.204244 
L 246.132666 242.689655 
L 247.50768 246.175066 
L 247.856327 247.705697 
L 248.354743 249.660477 
L 248.54253 253.145889 
L 247.856327 254.260512 
L 244.035918 256.252392 
L 240.21551 255.951741 
L 236.395102 254.647732 
z
" clip-path="url(#p04f3edef62)" style="fill: #9dcae1"/>
   </g>
   <g id="PathCollection_18">
    <path d="M 236.395102 254.647732 
L 240.21551 255.951741 
L 244.035918 256.252392 
L 247.856327 254.260512 
L 248.54253 253.145889 
L 248.354743 249.660477 
L 247.856327 247.705697 
L 247.50768 246.175066 
L 246.132666 242.689655 
L 244.035918 239.204244 
L 244.035918 239.204244 
L 241.006202 235.718833 
L 240.21551 234.808072 
L 238.109181 232.233422 
L 236.395102 230.493443 
L 234.491837 228.748011 
L 232.574694 227.164923 
L 230.026293 225.262599 
L 228.754286 224.380987 
L 224.933878 222.094192 
L 224.194198 221.777188 
L 221.113469 220.24747 
L 217.293061 219.063903 
L 213.472653 218.382592 
L 209.652245 220.975432 
L 209.050781 221.777188 
L 209.03106 225.262599 
L 209.652245 227.58315 
L 209.884061 228.748011 
L 211.422211 232.233422 
L 213.467057 235.718833 
L 213.472653 235.725236 
L 216.385312 239.204244 
L 217.293061 240.283213 
L 219.441211 242.689655 
L 221.113469 244.207745 
L 223.244619 246.175066 
L 224.933878 247.749235 
L 227.597026 249.660477 
L 228.754286 250.541973 
L 232.574694 252.834172 
L 233.282992 253.145889 
z
M 234.082597 249.660477 
L 232.574694 249.049749 
L 228.754286 246.846504 
L 227.843412 246.175066 
L 224.933878 243.750832 
L 223.784693 242.689655 
L 221.113469 240.39412 
L 220.004892 239.204244 
L 217.651643 235.718833 
L 217.293061 234.983575 
L 215.781682 232.233422 
L 214.362368 228.748011 
L 215.376204 225.262599 
L 217.293061 224.050456 
L 221.113469 224.551923 
L 223.12466 225.262599 
L 224.933878 225.909617 
L 228.754286 228.143239 
L 229.571078 228.748011 
L 232.574694 231.091766 
L 233.819691 232.233422 
L 236.395102 234.877209 
L 237.098914 235.718833 
L 239.767165 239.204244 
L 240.21551 240.003949 
L 241.84545 242.689655 
L 242.646962 246.175066 
L 241.871537 249.660477 
L 240.21551 250.730639 
L 236.395102 250.535756 
z
" clip-path="url(#p04f3edef62)" style="fill: #4191c6"/>
   </g>
   <g id="PathCollection_19">
    <path d="M 236.395102 250.535756 
L 240.21551 250.730639 
L 241.871537 249.660477 
L 242.646962 246.175066 
L 241.84545 242.689655 
L 240.21551 240.003949 
L 239.767165 239.204244 
L 237.098914 235.718833 
L 236.395102 234.877209 
L 233.819691 232.233422 
L 232.574694 231.091766 
L 229.571078 228.748011 
L 228.754286 228.143239 
L 224.933878 225.909617 
L 223.12466 225.262599 
L 221.113469 224.551923 
L 217.293061 224.050456 
L 215.376204 225.262599 
L 214.362368 228.748011 
L 215.781682 232.233422 
L 217.293061 234.983575 
L 217.651643 235.718833 
L 220.004892 239.204244 
L 221.113469 240.39412 
L 223.784693 242.689655 
L 224.933878 243.750832 
L 227.843412 246.175066 
L 228.754286 246.846504 
L 232.574694 249.049749 
L 234.082597 249.660477 
z
M 229.068265 242.689655 
L 228.754286 242.506396 
L 225.067268 239.204244 
L 224.933878 239.068002 
L 222.229958 235.718833 
L 221.113469 233.087788 
L 220.807024 232.233422 
L 221.113469 231.2067 
L 224.933878 230.730166 
L 228.49801 232.233422 
L 228.754286 232.36907 
L 232.574694 235.562842 
L 232.726404 235.718833 
L 235.220202 239.204244 
L 236.395102 242.346422 
L 236.49677 242.689655 
L 236.395102 243.203853 
L 232.574694 244.316641 
z
" clip-path="url(#p04f3edef62)" style="fill: #08509b"/>
   </g>
   <g id="PathCollection_20">
    <path d="M 232.574694 244.316641 
L 236.395102 243.203853 
L 236.49677 242.689655 
L 236.395102 242.346422 
L 235.220202 239.204244 
L 232.726404 235.718833 
L 232.574694 235.562842 
L 228.754286 232.36907 
L 228.49801 232.233422 
L 224.933878 230.730166 
L 221.113469 231.2067 
L 220.807024 232.233422 
L 221.113469 233.087788 
L 222.229958 235.718833 
L 224.933878 239.068002 
L 225.067268 239.204244 
L 228.754286 242.506396 
L 229.068265 242.689655 
z
" clip-path="url(#p04f3edef62)" style="fill: #08306b"/>
   </g>
   <g id="matplotlib.axis_7">
    <g id="xtick_10">
     <g id="line2d_23">
      <g>
       <use xlink:href="#mb8be462694" x="186.787681" y="288" style="stroke: #000000; stroke-width: 0.8"/>
      </g>
     </g>
     <g id="text_26">
      <!-- −2.5 -->
      <g transform="translate(174.646275 302.598437) scale(0.1 -0.1)">
       <use xlink:href="#DejaVuSans-2212"/>
       <use xlink:href="#DejaVuSans-32" x="83.789062"/>
       <use xlink:href="#DejaVuSans-2e" x="147.412109"/>
       <use xlink:href="#DejaVuSans-35" x="179.199219"/>
      </g>
     </g>
    </g>
    <g id="xtick_11">
     <g id="line2d_24">
      <g>
       <use xlink:href="#mb8be462694" x="228.754286" y="288" style="stroke: #000000; stroke-width: 0.8"/>
      </g>
     </g>
     <g id="text_27">
      <!-- 0.0 -->
      <g transform="translate(220.802723 302.598437) scale(0.1 -0.1)">
       <use xlink:href="#DejaVuSans-30"/>
       <use xlink:href="#DejaVuSans-2e" x="63.623047"/>
       <use xlink:href="#DejaVuSans-30" x="95.410156"/>
      </g>
     </g>
    </g>
    <g id="xtick_12">
     <g id="line2d_25">
      <g>
       <use xlink:href="#mb8be462694" x="270.720891" y="288" style="stroke: #000000; stroke-width: 0.8"/>
      </g>
     </g>
     <g id="text_28">
      <!-- 2.5 -->
      <g transform="translate(262.769328 302.598437) scale(0.1 -0.1)">
       <use xlink:href="#DejaVuSans-32"/>
       <use xlink:href="#DejaVuSans-2e" x="63.623047"/>
       <use xlink:href="#DejaVuSans-35" x="95.410156"/>
      </g>
     </g>
    </g>
    <g id="text_29">
     <!-- Probit variable 1 -->
     <g transform="translate(187.769911 316.276562) scale(0.1 -0.1)">
      <use xlink:href="#DejaVuSans-50"/>
      <use xlink:href="#DejaVuSans-72" x="58.552734"/>
      <use xlink:href="#DejaVuSans-6f" x="97.416016"/>
      <use xlink:href="#DejaVuSans-62" x="158.597656"/>
      <use xlink:href="#DejaVuSans-69" x="222.074219"/>
      <use xlink:href="#DejaVuSans-74" x="249.857422"/>
      <use xlink:href="#DejaVuSans-20" x="289.066406"/>
      <use xlink:href="#DejaVuSans-76" x="320.853516"/>
      <use xlink:href="#DejaVuSans-61" x="380.033203"/>
      <use xlink:href="#DejaVuSans-72" x="441.3125"/>
      <use xlink:href="#DejaVuSans-69" x="482.425781"/>
      <use xlink:href="#DejaVuSans-61" x="510.208984"/>
      <use xlink:href="#DejaVuSans-62" x="571.488281"/>
      <use xlink:href="#DejaVuSans-6c" x="634.964844"/>
      <use xlink:href="#DejaVuSans-65" x="662.748047"/>
      <use xlink:href="#DejaVuSans-20" x="724.271484"/>
      <use xlink:href="#DejaVuSans-31" x="756.058594"/>
     </g>
    </g>
   </g>
   <g id="matplotlib.axis_8">
    <g id="ytick_14">
     <g id="line2d_26">
      <g>
       <use xlink:href="#m6c18aedca2" x="175.268571" y="269.147094" style="stroke: #000000; stroke-width: 0.8"/>
      </g>
     </g>
    </g>
    <g id="ytick_15">
     <g id="line2d_27">
      <g>
       <use xlink:href="#m6c18aedca2" x="175.268571" y="237.461538" style="stroke: #000000; stroke-width: 0.8"/>
      </g>
     </g>
    </g>
    <g id="ytick_16">
     <g id="line2d_28">
      <g>
       <use xlink:href="#m6c18aedca2" x="175.268571" y="205.775983" style="stroke: #000000; stroke-width: 0.8"/>
      </g>
     </g>
    </g>
   </g>
   <g id="patch_18">
    <path d="M 175.268571 288 
L 175.268571 186.923077 
" style="fill: none; stroke: #000000; stroke-width: 0.8; stroke-linejoin: miter; stroke-linecap: square"/>
   </g>
   <g id="patch_19">
    <path d="M 282.24 288 
L 282.24 186.923077 
" style="fill: none; stroke: #000000; stroke-width: 0.8; stroke-linejoin: miter; stroke-linecap: square"/>
   </g>
   <g id="patch_20">
    <path d="M 175.268571 288 
L 282.24 288 
" style="fill: none; stroke: #000000; stroke-width: 0.8; stroke-linejoin: miter; stroke-linecap: square"/>
   </g>
   <g id="patch_21">
    <path d="M 175.268571 186.923077 
L 282.24 186.923077 
" style="fill: none; stroke: #000000; stroke-width: 0.8; stroke-linejoin: miter; stroke-linecap: square"/>
   </g>
   <g id="text_30">
    <!-- Virt Mems' PDF -->
    <g transform="translate(183.308973 180.923077) scale(0.12 -0.12)">
     <use xlink:href="#DejaVuSans-56"/>
     <use xlink:href="#DejaVuSans-69" x="66.158203"/>
     <use xlink:href="#DejaVuSans-72" x="93.941406"/>
     <use xlink:href="#DejaVuSans-74" x="135.054688"/>
     <use xlink:href="#DejaVuSans-20" x="174.263672"/>
     <use xlink:href="#DejaVuSans-4d" x="206.050781"/>
     <use xlink:href="#DejaVuSans-65" x="292.330078"/>
     <use xlink:href="#DejaVuSans-6d" x="353.853516"/>
     <use xlink:href="#DejaVuSans-73" x="451.265625"/>
     <use xlink:href="#DejaVuSans-27" x="503.365234"/>
     <use xlink:href="#DejaVuSans-20" x="530.855469"/>
     <use xlink:href="#DejaVuSans-50" x="562.642578"/>
     <use xlink:href="#DejaVuSans-44" x="622.945312"/>
     <use xlink:href="#DejaVuSans-46" x="699.947266"/>
    </g>
   </g>
  </g>
 </g>
 <defs>
  <clipPath id="p46051c8332">
   <rect x="57.6" y="25.2" width="106.971429" height="101.076923"/>
  </clipPath>
  <clipPath id="p1e9705d8a4">
   <rect x="175.268571" y="25.2" width="106.971429" height="101.076923"/>
  </clipPath>
  <clipPath id="pd9f498e82d">
   <rect x="57.6" y="186.923077" width="106.971429" height="101.076923"/>
  </clipPath>
  <clipPath id="p04f3edef62">
   <rect x="175.268571" y="186.923077" width="106.971429" height="101.076923"/>
  </clipPath>
 </defs>
</svg>
