<?xml version="1.0" encoding="utf-8" standalone="no"?>
<!DOCTYPE svg PUBLIC "-//W3C//DTD SVG 1.1//EN"
  "http://www.w3.org/Graphics/SVG/1.1/DTD/svg11.dtd">
<svg xmlns:xlink="http://www.w3.org/1999/xlink" width="288pt" height="360pt" viewBox="0 0 288 360" xmlns="http://www.w3.org/2000/svg" version="1.1">
 <metadata>
  <rdf:RDF xmlns:dc="http://purl.org/dc/elements/1.1/" xmlns:cc="http://creativecommons.org/ns#" xmlns:rdf="http://www.w3.org/1999/02/22-rdf-syntax-ns#">
   <cc:Work>
    <dc:type rdf:resource="http://purl.org/dc/dcmitype/StillImage"/>
    <dc:date>2023-07-22T16:10:30.934214</dc:date>
    <dc:format>image/svg+xml</dc:format>
    <dc:creator>
     <cc:Agent>
      <dc:title>Matplotlib v3.7.1, https://matplotlib.org/</dc:title>
     </cc:Agent>
    </dc:creator>
   </cc:Work>
  </rdf:RDF>
 </metadata>
 <defs>
  <style type="text/css">*{stroke-linejoin: round; stroke-linecap: butt}</style>
 </defs>
 <g id="figure_1">
  <g id="patch_1">
   <path d="M 0 360 
L 288 360 
L 288 0 
L 0 0 
z
" style="fill: #ffffff"/>
  </g>
  <g id="axes_1">
   <g id="patch_2">
    <path d="M 57.6 126.276923 
L 164.571429 126.276923 
L 164.571429 25.2 
L 57.6 25.2 
z
" style="fill: #ffffff"/>
   </g>
   <g id="PathCollection_1">
    <path d="M 137.828571 125.060265 
L 138.959596 126.276923 
L 141.64898 126.276923 
L 145.469388 126.276923 
L 149.289796 126.276923 
L 153.110204 126.276923 
L 156.930612 126.276923 
L 160.75102 126.276923 
L 163.914301 126.276923 
L 164.107821 122.791512 
L 163.992125 119.306101 
L 163.857698 115.82069 
L 163.501595 112.335279 
L 163.002035 108.849867 
L 162.379976 105.364456 
L 161.396427 101.879045 
L 160.75102 99.678409 
L 160.544372 98.393634 
L 159.832104 94.908223 
L 158.914103 91.422812 
L 157.791525 87.937401 
L 156.930612 85.609514 
L 156.675438 84.451989 
L 155.889268 80.966578 
L 155.30495 77.481167 
L 155.0053 73.995756 
L 154.967569 70.510345 
L 154.891972 67.024934 
L 154.365144 63.539523 
L 153.110204 60.692509 
L 152.947602 60.054111 
L 151.397397 56.5687 
L 149.289796 54.083564 
L 148.509225 53.083289 
L 145.469388 50.267212 
L 144.565912 49.597878 
L 141.64898 47.368077 
L 138.549961 46.112467 
L 137.828571 45.699933 
L 134.008163 44.365377 
L 130.187755 43.902969 
L 126.367347 43.844515 
L 122.546939 43.83022 
L 118.726531 43.454625 
L 114.906122 42.915845 
L 113.498865 42.627056 
L 111.085714 41.870806 
L 107.265306 40.824602 
L 103.444898 39.92509 
L 99.62449 39.211569 
L 99.242192 39.141645 
L 95.804082 38.098436 
L 91.983673 37.295863 
L 88.163265 36.645272 
L 84.342857 36.140049 
L 80.522449 35.819444 
L 78.430674 35.656233 
L 76.702041 35.410199 
L 72.881633 35.154757 
L 69.061224 35.388763 
L 66.612017 35.656233 
L 65.240816 35.790824 
L 61.420408 36.750288 
L 57.658391 39.141645 
L 57.6 39.257681 
L 57.6 42.627056 
L 57.6 46.112467 
L 57.6 47.421458 
L 58.795573 49.597878 
L 61.420408 52.873025 
L 61.568955 53.083289 
L 65.007363 56.5687 
L 65.240816 56.786165 
L 69.061224 59.982471 
L 69.141491 60.054111 
L 72.881633 63.229375 
L 73.323116 63.539523 
L 76.702041 66.339334 
L 77.666426 67.024934 
L 80.522449 69.416067 
L 82.054682 70.510345 
L 84.342857 72.577769 
L 86.172404 73.995756 
L 88.163265 76.227853 
L 89.287806 77.481167 
L 90.720293 80.966578 
L 91.906848 84.451989 
L 91.983673 84.619431 
L 93.553727 87.937401 
L 95.057286 91.422812 
L 95.804082 92.3665 
L 98.127874 94.908223 
L 99.62449 96.398964 
L 102.161285 98.393634 
L 103.444898 99.331561 
L 107.265306 101.476059 
L 108.483018 101.879045 
L 111.085714 102.86471 
L 114.906122 104.09667 
L 118.726531 105.316566 
L 118.790575 105.364456 
L 122.546939 108.372802 
L 122.961318 108.849867 
L 126.367347 112.198466 
L 126.464174 112.335279 
L 129.43893 115.82069 
L 130.187755 116.597928 
L 132.45121 119.306101 
L 134.008163 120.961889 
L 135.588076 122.791512 
z
M 145.27879 122.791512 
L 141.64898 119.672386 
L 141.28757 119.306101 
L 138.067067 115.82069 
L 137.828571 115.544602 
L 135.272421 112.335279 
L 134.008163 110.402342 
L 132.810349 108.849867 
L 130.830125 105.364456 
L 130.187755 104.026757 
L 128.882296 101.879045 
L 127.37591 98.393634 
L 126.510606 94.908223 
L 126.367347 94.126055 
L 125.544682 91.422812 
L 125.468143 87.937401 
L 125.781164 84.451989 
L 125.811679 80.966578 
L 125.297193 77.481167 
L 123.063399 73.995756 
L 122.546939 73.519135 
L 118.726531 71.757688 
L 114.906122 71.362228 
L 111.085714 71.69582 
L 107.265306 71.904916 
L 103.444898 71.48201 
L 99.62449 70.590412 
L 99.45065 70.510345 
L 95.804082 69.288698 
L 91.983673 67.706322 
L 90.674908 67.024934 
L 88.163265 65.928203 
L 84.452729 63.539523 
L 84.342857 63.480185 
L 80.522449 61.188601 
L 78.98006 60.054111 
L 76.702041 58.19401 
L 74.709774 56.5687 
L 72.881633 54.869035 
L 71.152946 53.083289 
L 69.061224 49.752928 
L 68.944987 49.597878 
L 68.156842 46.112467 
L 69.061224 44.603005 
L 71.153199 42.627056 
L 72.881633 41.921449 
L 76.702041 41.161087 
L 80.522449 40.998113 
L 84.342857 41.077917 
L 88.163265 41.475593 
L 91.983673 42.207022 
L 94.064957 42.627056 
L 95.804082 42.893804 
L 99.62449 43.740947 
L 103.444898 44.666007 
L 107.265306 45.923513 
L 107.852781 46.112467 
L 111.085714 47.027337 
L 114.906122 48.082548 
L 118.726531 49.066352 
L 122.546939 49.270302 
L 126.367347 48.918399 
L 130.187755 48.679609 
L 134.008163 48.996683 
L 135.806067 49.597878 
L 137.828571 50.115743 
L 141.64898 52.226698 
L 142.710626 53.083289 
L 145.469388 55.65175 
L 146.301688 56.5687 
L 148.370096 60.054111 
L 149.289796 63.261312 
L 149.396493 63.539523 
L 149.679289 67.024934 
L 149.468084 70.510345 
L 149.289796 72.922841 
L 149.219042 73.995756 
L 149.289796 75.787846 
L 149.369662 77.481167 
L 150.227121 80.966578 
L 151.418975 84.451989 
L 152.539505 87.937401 
L 153.110204 89.738283 
L 153.732521 91.422812 
L 154.898503 94.908223 
L 155.690173 98.393634 
L 156.476723 101.879045 
L 156.930612 104.77658 
L 157.060556 105.364456 
L 157.651348 108.849867 
L 157.891682 112.335279 
L 157.997211 115.82069 
L 157.585298 119.306101 
L 156.930612 121.405875 
L 156.141179 122.791512 
L 153.110204 125.60551 
L 149.289796 125.079312 
L 145.469388 122.955047 
z
" clip-path="url(#pbb2506de02)" style="fill: #fee0d2"/>
   </g>
   <g id="PathCollection_2">
    <path d="M 145.469388 122.955047 
L 149.289796 125.079312 
L 153.110204 125.60551 
L 156.141179 122.791512 
L 156.930612 121.405875 
L 157.585298 119.306101 
L 157.997211 115.82069 
L 157.891682 112.335279 
L 157.651348 108.849867 
L 157.060556 105.364456 
L 156.930612 104.77658 
L 156.476723 101.879045 
L 155.690173 98.393634 
L 154.898503 94.908223 
L 153.732521 91.422812 
L 153.110204 89.738283 
L 152.539505 87.937401 
L 151.418975 84.451989 
L 150.227121 80.966578 
L 149.369662 77.481167 
L 149.289796 75.787846 
L 149.219042 73.995756 
L 149.289796 72.922841 
L 149.468084 70.510345 
L 149.679289 67.024934 
L 149.396493 63.539523 
L 149.289796 63.261312 
L 148.370096 60.054111 
L 146.301688 56.5687 
L 145.469388 55.65175 
L 142.710626 53.083289 
L 141.64898 52.226698 
L 137.828571 50.115743 
L 135.806067 49.597878 
L 134.008163 48.996683 
L 130.187755 48.679609 
L 126.367347 48.918399 
L 122.546939 49.270302 
L 118.726531 49.066352 
L 114.906122 48.082548 
L 111.085714 47.027337 
L 107.852781 46.112467 
L 107.265306 45.923513 
L 103.444898 44.666007 
L 99.62449 43.740947 
L 95.804082 42.893804 
L 94.064957 42.627056 
L 91.983673 42.207022 
L 88.163265 41.475593 
L 84.342857 41.077917 
L 80.522449 40.998113 
L 76.702041 41.161087 
L 72.881633 41.921449 
L 71.153199 42.627056 
L 69.061224 44.603005 
L 68.156842 46.112467 
L 68.944987 49.597878 
L 69.061224 49.752928 
L 71.152946 53.083289 
L 72.881633 54.869035 
L 74.709774 56.5687 
L 76.702041 58.19401 
L 78.98006 60.054111 
L 80.522449 61.188601 
L 84.342857 63.480185 
L 84.452729 63.539523 
L 88.163265 65.928203 
L 90.674908 67.024934 
L 91.983673 67.706322 
L 95.804082 69.288698 
L 99.45065 70.510345 
L 99.62449 70.590412 
L 103.444898 71.48201 
L 107.265306 71.904916 
L 111.085714 71.69582 
L 114.906122 71.362228 
L 118.726531 71.757688 
L 122.546939 73.519135 
L 123.063399 73.995756 
L 125.297193 77.481167 
L 125.811679 80.966578 
L 125.781164 84.451989 
L 125.468143 87.937401 
L 125.544682 91.422812 
L 126.367347 94.126055 
L 126.510606 94.908223 
L 127.37591 98.393634 
L 128.882296 101.879045 
L 130.187755 104.026757 
L 130.830125 105.364456 
L 132.810349 108.849867 
L 134.008163 110.402342 
L 135.272421 112.335279 
L 137.828571 115.544602 
L 138.067067 115.82069 
L 141.28757 119.306101 
L 141.64898 119.672386 
L 145.27879 122.791512 
z
M 144.076242 115.82069 
L 141.64898 113.64373 
L 140.48873 112.335279 
L 137.828571 108.999694 
L 137.722063 108.849867 
L 135.630391 105.364456 
L 134.013923 101.879045 
L 134.008163 101.86351 
L 132.574489 98.393634 
L 131.798731 94.908223 
L 131.515189 91.422812 
L 131.491493 87.937401 
L 132.145007 84.451989 
L 132.820809 80.966578 
L 132.740445 77.481167 
L 131.122462 73.995756 
L 130.187755 73.056794 
L 128.105653 70.510345 
L 126.367347 68.811711 
L 123.853361 67.024934 
L 122.546939 66.063342 
L 118.726531 64.705287 
L 114.906122 64.944725 
L 111.085714 65.579065 
L 107.265306 65.903671 
L 103.444898 65.934141 
L 99.62449 65.472237 
L 95.804082 64.526562 
L 93.182524 63.539523 
L 91.983673 63.104281 
L 88.163265 61.209188 
L 86.142278 60.054111 
L 84.342857 58.942534 
L 81.155243 56.5687 
L 80.522449 55.924419 
L 77.646203 53.083289 
L 76.702041 51.084338 
L 75.932434 49.597878 
L 76.702041 47.812204 
L 78.157923 46.112467 
L 80.522449 45.342754 
L 84.342857 44.838295 
L 88.163265 44.834268 
L 91.983673 45.286226 
L 95.804082 46.007146 
L 96.26323 46.112467 
L 99.62449 46.839595 
L 103.444898 47.957326 
L 107.265306 49.255595 
L 108.217155 49.597878 
L 111.085714 50.805499 
L 114.906122 52.339386 
L 117.702925 53.083289 
L 118.726531 53.481311 
L 122.546939 53.339971 
L 123.425242 53.083289 
L 126.367347 52.542428 
L 130.187755 51.860646 
L 134.008163 51.852814 
L 137.828571 52.998332 
L 137.967059 53.083289 
L 141.64898 55.521085 
L 142.781467 56.5687 
L 145.18234 60.054111 
L 145.469388 60.838632 
L 146.492506 63.539523 
L 146.499624 67.024934 
L 145.953489 70.510345 
L 145.469388 72.4528 
L 144.856954 73.995756 
L 144.626692 77.481167 
L 145.469388 79.575599 
L 145.852611 80.966578 
L 147.268277 84.451989 
L 148.830477 87.937401 
L 149.289796 88.97644 
L 150.234061 91.422812 
L 151.406212 94.908223 
L 152.357699 98.393634 
L 153.110204 101.380125 
L 153.242889 101.879045 
L 153.723706 105.364456 
L 154.033408 108.849867 
L 153.897654 112.335279 
L 153.110204 115.608095 
L 152.971508 115.82069 
L 149.289796 118.331008 
L 145.469388 117.018955 
z
" clip-path="url(#pbb2506de02)" style="fill: #fc9272"/>
   </g>
   <g id="PathCollection_3">
    <path d="M 145.469388 117.018955 
L 149.289796 118.331008 
L 152.971508 115.82069 
L 153.110204 115.608095 
L 153.897654 112.335279 
L 154.033408 108.849867 
L 153.723706 105.364456 
L 153.242889 101.879045 
L 153.110204 101.380125 
L 152.357699 98.393634 
L 151.406212 94.908223 
L 150.234061 91.422812 
L 149.289796 88.97644 
L 148.830477 87.937401 
L 147.268277 84.451989 
L 145.852611 80.966578 
L 145.469388 79.575599 
L 144.626692 77.481167 
L 144.856954 73.995756 
L 145.469388 72.4528 
L 145.953489 70.510345 
L 146.499624 67.024934 
L 146.492506 63.539523 
L 145.469388 60.838632 
L 145.18234 60.054111 
L 142.781467 56.5687 
L 141.64898 55.521085 
L 137.967059 53.083289 
L 137.828571 52.998332 
L 134.008163 51.852814 
L 130.187755 51.860646 
L 126.367347 52.542428 
L 123.425242 53.083289 
L 122.546939 53.339971 
L 118.726531 53.481311 
L 117.702925 53.083289 
L 114.906122 52.339386 
L 111.085714 50.805499 
L 108.217155 49.597878 
L 107.265306 49.255595 
L 103.444898 47.957326 
L 99.62449 46.839595 
L 96.26323 46.112467 
L 95.804082 46.007146 
L 91.983673 45.286226 
L 88.163265 44.834268 
L 84.342857 44.838295 
L 80.522449 45.342754 
L 78.157923 46.112467 
L 76.702041 47.812204 
L 75.932434 49.597878 
L 76.702041 51.084338 
L 77.646203 53.083289 
L 80.522449 55.924419 
L 81.155243 56.5687 
L 84.342857 58.942534 
L 86.142278 60.054111 
L 88.163265 61.209188 
L 91.983673 63.104281 
L 93.182524 63.539523 
L 95.804082 64.526562 
L 99.62449 65.472237 
L 103.444898 65.934141 
L 107.265306 65.903671 
L 111.085714 65.579065 
L 114.906122 64.944725 
L 118.726531 64.705287 
L 122.546939 66.063342 
L 123.853361 67.024934 
L 126.367347 68.811711 
L 128.105653 70.510345 
L 130.187755 73.056794 
L 131.122462 73.995756 
L 132.740445 77.481167 
L 132.820809 80.966578 
L 132.145007 84.451989 
L 131.491493 87.937401 
L 131.515189 91.422812 
L 131.798731 94.908223 
L 132.574489 98.393634 
L 134.008163 101.86351 
L 134.013923 101.879045 
L 135.630391 105.364456 
L 137.722063 108.849867 
L 137.828571 108.999694 
L 140.48873 112.335279 
L 141.64898 113.64373 
L 144.076242 115.82069 
z
M 142.893449 108.849867 
L 141.64898 107.832214 
L 140.048736 105.364456 
L 137.96866 101.879045 
L 137.828571 101.539618 
L 136.751594 98.393634 
L 136.204799 94.908223 
L 136.281725 91.422812 
L 136.856183 87.937401 
L 137.828571 86.03383 
L 141.64898 84.804011 
L 144.488202 87.937401 
L 145.469388 89.110653 
L 146.457126 91.422812 
L 147.998203 94.908223 
L 149.289796 98.380281 
L 149.2938 98.393634 
L 149.862917 101.879045 
L 150.141632 105.364456 
L 149.896099 108.849867 
L 149.289796 110.26614 
L 145.469388 110.940918 
z
M 133.965347 70.510345 
L 130.187755 67.388977 
L 129.811708 67.024934 
L 126.73069 63.539523 
L 126.367347 62.763181 
L 124.541511 60.054111 
L 126.367347 57.09387 
L 126.699223 56.5687 
L 130.187755 54.987227 
L 134.008163 54.586419 
L 137.828571 55.688054 
L 139.09303 56.5687 
L 141.64898 59.031264 
L 142.41215 60.054111 
L 143.595749 63.539523 
L 143.139716 67.024934 
L 141.64898 70.502844 
L 141.637659 70.510345 
L 137.828571 72.411713 
L 134.008163 70.55265 
z
M 94.34698 60.054111 
L 91.983673 59.092022 
L 88.163265 57.00093 
L 87.483484 56.5687 
L 84.342857 53.455546 
L 83.979887 53.083289 
L 84.075018 49.597878 
L 84.342857 49.440126 
L 88.163265 48.527856 
L 91.983673 48.53067 
L 95.804082 49.040951 
L 98.677312 49.597878 
L 99.62449 49.849293 
L 103.444898 51.367607 
L 107.265306 52.998685 
L 107.46299 53.083289 
L 111.085714 56.202304 
L 111.588856 56.5687 
L 111.085714 58.431152 
L 110.412779 60.054111 
L 107.265306 61.051881 
L 103.444898 61.685545 
L 99.62449 61.473091 
L 95.804082 60.58558 
z
" clip-path="url(#pbb2506de02)" style="fill: #ee3a2c"/>
   </g>
   <g id="PathCollection_4">
    <path d="M 145.469388 110.940918 
L 149.289796 110.26614 
L 149.896099 108.849867 
L 150.141632 105.364456 
L 149.862917 101.879045 
L 149.2938 98.393634 
L 149.289796 98.380281 
L 147.998203 94.908223 
L 146.457126 91.422812 
L 145.469388 89.110653 
L 144.488202 87.937401 
L 141.64898 84.804011 
L 137.828571 86.03383 
L 136.856183 87.937401 
L 136.281725 91.422812 
L 136.204799 94.908223 
L 136.751594 98.393634 
L 137.828571 101.539618 
L 137.96866 101.879045 
L 140.048736 105.364456 
L 141.64898 107.832214 
L 142.893449 108.849867 
z
" clip-path="url(#pbb2506de02)" style="fill: #a30f15"/>
    <path d="M 134.008163 70.55265 
L 137.828571 72.411713 
L 141.637659 70.510345 
L 141.64898 70.502844 
L 143.139716 67.024934 
L 143.595749 63.539523 
L 142.41215 60.054111 
L 141.64898 59.031264 
L 139.09303 56.5687 
L 137.828571 55.688054 
L 134.008163 54.586419 
L 130.187755 54.987227 
L 126.699223 56.5687 
L 126.367347 57.09387 
L 124.541511 60.054111 
L 126.367347 62.763181 
L 126.73069 63.539523 
L 129.811708 67.024934 
L 130.187755 67.388977 
L 133.965347 70.510345 
z
M 131.803376 63.539523 
L 130.692868 60.054111 
L 134.008163 57.934871 
L 137.828571 59.017757 
L 138.905269 60.054111 
L 140.125513 63.539523 
L 137.828571 66.832803 
L 134.008163 65.625 
z
" clip-path="url(#pbb2506de02)" style="fill: #a30f15"/>
    <path d="M 95.804082 60.58558 
L 99.62449 61.473091 
L 103.444898 61.685545 
L 107.265306 61.051881 
L 110.412779 60.054111 
L 111.085714 58.431152 
L 111.588856 56.5687 
L 111.085714 56.202304 
L 107.46299 53.083289 
L 107.265306 52.998685 
L 103.444898 51.367607 
L 99.62449 49.849293 
L 98.677312 49.597878 
L 95.804082 49.040951 
L 91.983673 48.53067 
L 88.163265 48.527856 
L 84.342857 49.440126 
L 84.075018 49.597878 
L 83.979887 53.083289 
L 84.342857 53.455546 
L 87.483484 56.5687 
L 88.163265 57.00093 
L 91.983673 59.092022 
L 94.34698 60.054111 
z
" clip-path="url(#pbb2506de02)" style="fill: #a30f15"/>
   </g>
   <g id="PathCollection_5">
    <path d="M 134.008163 65.625 
L 137.828571 66.832803 
L 140.125513 63.539523 
L 138.905269 60.054111 
L 137.828571 59.017757 
L 134.008163 57.934871 
L 130.692868 60.054111 
L 131.803376 63.539523 
z
" clip-path="url(#pbb2506de02)" style="fill: #67000d"/>
   </g>
   <g id="matplotlib.axis_1">
    <g id="xtick_1">
     <g id="line2d_1">
      <defs>
       <path id="ma81f458745" d="M 0 0 
L 0 3.5 
" style="stroke: #000000; stroke-width: 0.8"/>
      </defs>
      <g>
       <use xlink:href="#ma81f458745" x="60.725788" y="126.276923" style="stroke: #000000; stroke-width: 0.8"/>
      </g>
     </g>
     <g id="text_1">
      <!-- −5 -->
      <g transform="translate(53.354695 140.875361) scale(0.1 -0.1)">
       <defs>
        <path id="DejaVuSans-2212" d="M 678 2272 
L 4684 2272 
L 4684 1741 
L 678 1741 
L 678 2272 
z
" transform="scale(0.015625)"/>
        <path id="DejaVuSans-35" d="M 691 4666 
L 3169 4666 
L 3169 4134 
L 1269 4134 
L 1269 2991 
Q 1406 3038 1543 3061 
Q 1681 3084 1819 3084 
Q 2600 3084 3056 2656 
Q 3513 2228 3513 1497 
Q 3513 744 3044 326 
Q 2575 -91 1722 -91 
Q 1428 -91 1123 -41 
Q 819 9 494 109 
L 494 744 
Q 775 591 1075 516 
Q 1375 441 1709 441 
Q 2250 441 2565 725 
Q 2881 1009 2881 1497 
Q 2881 1984 2565 2268 
Q 2250 2553 1709 2553 
Q 1456 2553 1204 2497 
Q 953 2441 691 2322 
L 691 4666 
z
" transform="scale(0.015625)"/>
       </defs>
       <use xlink:href="#DejaVuSans-2212"/>
       <use xlink:href="#DejaVuSans-35" x="83.789062"/>
      </g>
     </g>
    </g>
    <g id="xtick_2">
     <g id="line2d_2">
      <g>
       <use xlink:href="#ma81f458745" x="111.085714" y="126.276923" style="stroke: #000000; stroke-width: 0.8"/>
      </g>
     </g>
     <g id="text_2">
      <!-- 0 -->
      <g transform="translate(107.904464 140.875361) scale(0.1 -0.1)">
       <defs>
        <path id="DejaVuSans-30" d="M 2034 4250 
Q 1547 4250 1301 3770 
Q 1056 3291 1056 2328 
Q 1056 1369 1301 889 
Q 1547 409 2034 409 
Q 2525 409 2770 889 
Q 3016 1369 3016 2328 
Q 3016 3291 2770 3770 
Q 2525 4250 2034 4250 
z
M 2034 4750 
Q 2819 4750 3233 4129 
Q 3647 3509 3647 2328 
Q 3647 1150 3233 529 
Q 2819 -91 2034 -91 
Q 1250 -91 836 529 
Q 422 1150 422 2328 
Q 422 3509 836 4129 
Q 1250 4750 2034 4750 
z
" transform="scale(0.015625)"/>
       </defs>
       <use xlink:href="#DejaVuSans-30"/>
      </g>
     </g>
    </g>
    <g id="xtick_3">
     <g id="line2d_3">
      <g>
       <use xlink:href="#ma81f458745" x="161.44564" y="126.276923" style="stroke: #000000; stroke-width: 0.8"/>
      </g>
     </g>
     <g id="text_3">
      <!-- 5 -->
      <g transform="translate(158.26439 140.875361) scale(0.1 -0.1)">
       <use xlink:href="#DejaVuSans-35"/>
      </g>
     </g>
    </g>
    <g id="text_4">
     <!-- Model variable 1 -->
     <g transform="translate(69.541183 154.553486) scale(0.1 -0.1)">
      <defs>
       <path id="DejaVuSans-4d" d="M 628 4666 
L 1569 4666 
L 2759 1491 
L 3956 4666 
L 4897 4666 
L 4897 0 
L 4281 0 
L 4281 4097 
L 3078 897 
L 2444 897 
L 1241 4097 
L 1241 0 
L 628 0 
L 628 4666 
z
" transform="scale(0.015625)"/>
       <path id="DejaVuSans-6f" d="M 1959 3097 
Q 1497 3097 1228 2736 
Q 959 2375 959 1747 
Q 959 1119 1226 758 
Q 1494 397 1959 397 
Q 2419 397 2687 759 
Q 2956 1122 2956 1747 
Q 2956 2369 2687 2733 
Q 2419 3097 1959 3097 
z
M 1959 3584 
Q 2709 3584 3137 3096 
Q 3566 2609 3566 1747 
Q 3566 888 3137 398 
Q 2709 -91 1959 -91 
Q 1206 -91 779 398 
Q 353 888 353 1747 
Q 353 2609 779 3096 
Q 1206 3584 1959 3584 
z
" transform="scale(0.015625)"/>
       <path id="DejaVuSans-64" d="M 2906 2969 
L 2906 4863 
L 3481 4863 
L 3481 0 
L 2906 0 
L 2906 525 
Q 2725 213 2448 61 
Q 2172 -91 1784 -91 
Q 1150 -91 751 415 
Q 353 922 353 1747 
Q 353 2572 751 3078 
Q 1150 3584 1784 3584 
Q 2172 3584 2448 3432 
Q 2725 3281 2906 2969 
z
M 947 1747 
Q 947 1113 1208 752 
Q 1469 391 1925 391 
Q 2381 391 2643 752 
Q 2906 1113 2906 1747 
Q 2906 2381 2643 2742 
Q 2381 3103 1925 3103 
Q 1469 3103 1208 2742 
Q 947 2381 947 1747 
z
" transform="scale(0.015625)"/>
       <path id="DejaVuSans-65" d="M 3597 1894 
L 3597 1613 
L 953 1613 
Q 991 1019 1311 708 
Q 1631 397 2203 397 
Q 2534 397 2845 478 
Q 3156 559 3463 722 
L 3463 178 
Q 3153 47 2828 -22 
Q 2503 -91 2169 -91 
Q 1331 -91 842 396 
Q 353 884 353 1716 
Q 353 2575 817 3079 
Q 1281 3584 2069 3584 
Q 2775 3584 3186 3129 
Q 3597 2675 3597 1894 
z
M 3022 2063 
Q 3016 2534 2758 2815 
Q 2500 3097 2075 3097 
Q 1594 3097 1305 2825 
Q 1016 2553 972 2059 
L 3022 2063 
z
" transform="scale(0.015625)"/>
       <path id="DejaVuSans-6c" d="M 603 4863 
L 1178 4863 
L 1178 0 
L 603 0 
L 603 4863 
z
" transform="scale(0.015625)"/>
       <path id="DejaVuSans-20" transform="scale(0.015625)"/>
       <path id="DejaVuSans-76" d="M 191 3500 
L 800 3500 
L 1894 563 
L 2988 3500 
L 3597 3500 
L 2284 0 
L 1503 0 
L 191 3500 
z
" transform="scale(0.015625)"/>
       <path id="DejaVuSans-61" d="M 2194 1759 
Q 1497 1759 1228 1600 
Q 959 1441 959 1056 
Q 959 750 1161 570 
Q 1363 391 1709 391 
Q 2188 391 2477 730 
Q 2766 1069 2766 1631 
L 2766 1759 
L 2194 1759 
z
M 3341 1997 
L 3341 0 
L 2766 0 
L 2766 531 
Q 2569 213 2275 61 
Q 1981 -91 1556 -91 
Q 1019 -91 701 211 
Q 384 513 384 1019 
Q 384 1609 779 1909 
Q 1175 2209 1959 2209 
L 2766 2209 
L 2766 2266 
Q 2766 2663 2505 2880 
Q 2244 3097 1772 3097 
Q 1472 3097 1187 3025 
Q 903 2953 641 2809 
L 641 3341 
Q 956 3463 1253 3523 
Q 1550 3584 1831 3584 
Q 2591 3584 2966 3190 
Q 3341 2797 3341 1997 
z
" transform="scale(0.015625)"/>
       <path id="DejaVuSans-72" d="M 2631 2963 
Q 2534 3019 2420 3045 
Q 2306 3072 2169 3072 
Q 1681 3072 1420 2755 
Q 1159 2438 1159 1844 
L 1159 0 
L 581 0 
L 581 3500 
L 1159 3500 
L 1159 2956 
Q 1341 3275 1631 3429 
Q 1922 3584 2338 3584 
Q 2397 3584 2469 3576 
Q 2541 3569 2628 3553 
L 2631 2963 
z
" transform="scale(0.015625)"/>
       <path id="DejaVuSans-69" d="M 603 3500 
L 1178 3500 
L 1178 0 
L 603 0 
L 603 3500 
z
M 603 4863 
L 1178 4863 
L 1178 4134 
L 603 4134 
L 603 4863 
z
" transform="scale(0.015625)"/>
       <path id="DejaVuSans-62" d="M 3116 1747 
Q 3116 2381 2855 2742 
Q 2594 3103 2138 3103 
Q 1681 3103 1420 2742 
Q 1159 2381 1159 1747 
Q 1159 1113 1420 752 
Q 1681 391 2138 391 
Q 2594 391 2855 752 
Q 3116 1113 3116 1747 
z
M 1159 2969 
Q 1341 3281 1617 3432 
Q 1894 3584 2278 3584 
Q 2916 3584 3314 3078 
Q 3713 2572 3713 1747 
Q 3713 922 3314 415 
Q 2916 -91 2278 -91 
Q 1894 -91 1617 61 
Q 1341 213 1159 525 
L 1159 0 
L 581 0 
L 581 4863 
L 1159 4863 
L 1159 2969 
z
" transform="scale(0.015625)"/>
       <path id="DejaVuSans-31" d="M 794 531 
L 1825 531 
L 1825 4091 
L 703 3866 
L 703 4441 
L 1819 4666 
L 2450 4666 
L 2450 531 
L 3481 531 
L 3481 0 
L 794 0 
L 794 531 
z
" transform="scale(0.015625)"/>
      </defs>
      <use xlink:href="#DejaVuSans-4d"/>
      <use xlink:href="#DejaVuSans-6f" x="86.279297"/>
      <use xlink:href="#DejaVuSans-64" x="147.460938"/>
      <use xlink:href="#DejaVuSans-65" x="210.9375"/>
      <use xlink:href="#DejaVuSans-6c" x="272.460938"/>
      <use xlink:href="#DejaVuSans-20" x="300.244141"/>
      <use xlink:href="#DejaVuSans-76" x="332.03125"/>
      <use xlink:href="#DejaVuSans-61" x="391.210938"/>
      <use xlink:href="#DejaVuSans-72" x="452.490234"/>
      <use xlink:href="#DejaVuSans-69" x="493.603516"/>
      <use xlink:href="#DejaVuSans-61" x="521.386719"/>
      <use xlink:href="#DejaVuSans-62" x="582.666016"/>
      <use xlink:href="#DejaVuSans-6c" x="646.142578"/>
      <use xlink:href="#DejaVuSans-65" x="673.925781"/>
      <use xlink:href="#DejaVuSans-20" x="735.449219"/>
      <use xlink:href="#DejaVuSans-31" x="767.236328"/>
     </g>
    </g>
   </g>
   <g id="matplotlib.axis_2">
    <g id="ytick_1">
     <g id="line2d_4">
      <defs>
       <path id="m326e6451e3" d="M 0 0 
L -3.5 0 
" style="stroke: #000000; stroke-width: 0.8"/>
      </defs>
      <g>
       <use xlink:href="#m326e6451e3" x="57.6" y="123.266795" style="stroke: #000000; stroke-width: 0.8"/>
      </g>
     </g>
     <g id="text_5">
      <!-- −5.0 -->
      <g transform="translate(26.317187 127.066014) scale(0.1 -0.1)">
       <defs>
        <path id="DejaVuSans-2e" d="M 684 794 
L 1344 794 
L 1344 0 
L 684 0 
L 684 794 
z
" transform="scale(0.015625)"/>
       </defs>
       <use xlink:href="#DejaVuSans-2212"/>
       <use xlink:href="#DejaVuSans-35" x="83.789062"/>
       <use xlink:href="#DejaVuSans-2e" x="147.412109"/>
       <use xlink:href="#DejaVuSans-30" x="179.199219"/>
      </g>
     </g>
    </g>
    <g id="ytick_2">
     <g id="line2d_5">
      <g>
       <use xlink:href="#m326e6451e3" x="57.6" y="99.502628" style="stroke: #000000; stroke-width: 0.8"/>
      </g>
     </g>
     <g id="text_6">
      <!-- −2.5 -->
      <g transform="translate(26.317187 103.301847) scale(0.1 -0.1)">
       <defs>
        <path id="DejaVuSans-32" d="M 1228 531 
L 3431 531 
L 3431 0 
L 469 0 
L 469 531 
Q 828 903 1448 1529 
Q 2069 2156 2228 2338 
Q 2531 2678 2651 2914 
Q 2772 3150 2772 3378 
Q 2772 3750 2511 3984 
Q 2250 4219 1831 4219 
Q 1534 4219 1204 4116 
Q 875 4013 500 3803 
L 500 4441 
Q 881 4594 1212 4672 
Q 1544 4750 1819 4750 
Q 2544 4750 2975 4387 
Q 3406 4025 3406 3419 
Q 3406 3131 3298 2873 
Q 3191 2616 2906 2266 
Q 2828 2175 2409 1742 
Q 1991 1309 1228 531 
z
" transform="scale(0.015625)"/>
       </defs>
       <use xlink:href="#DejaVuSans-2212"/>
       <use xlink:href="#DejaVuSans-32" x="83.789062"/>
       <use xlink:href="#DejaVuSans-2e" x="147.412109"/>
       <use xlink:href="#DejaVuSans-35" x="179.199219"/>
      </g>
     </g>
    </g>
    <g id="ytick_3">
     <g id="line2d_6">
      <g>
       <use xlink:href="#m326e6451e3" x="57.6" y="75.738462" style="stroke: #000000; stroke-width: 0.8"/>
      </g>
     </g>
     <g id="text_7">
      <!-- 0.0 -->
      <g transform="translate(34.696875 79.53768) scale(0.1 -0.1)">
       <use xlink:href="#DejaVuSans-30"/>
       <use xlink:href="#DejaVuSans-2e" x="63.623047"/>
       <use xlink:href="#DejaVuSans-30" x="95.410156"/>
      </g>
     </g>
    </g>
    <g id="ytick_4">
     <g id="line2d_7">
      <g>
       <use xlink:href="#m326e6451e3" x="57.6" y="51.974295" style="stroke: #000000; stroke-width: 0.8"/>
      </g>
     </g>
     <g id="text_8">
      <!-- 2.5 -->
      <g transform="translate(34.696875 55.773513) scale(0.1 -0.1)">
       <use xlink:href="#DejaVuSans-32"/>
       <use xlink:href="#DejaVuSans-2e" x="63.623047"/>
       <use xlink:href="#DejaVuSans-35" x="95.410156"/>
      </g>
     </g>
    </g>
    <g id="ytick_5">
     <g id="line2d_8">
      <g>
       <use xlink:href="#m326e6451e3" x="57.6" y="28.210128" style="stroke: #000000; stroke-width: 0.8"/>
      </g>
     </g>
     <g id="text_9">
      <!-- 5.0 -->
      <g transform="translate(34.696875 32.009347) scale(0.1 -0.1)">
       <use xlink:href="#DejaVuSans-35"/>
       <use xlink:href="#DejaVuSans-2e" x="63.623047"/>
       <use xlink:href="#DejaVuSans-30" x="95.410156"/>
      </g>
     </g>
    </g>
    <g id="text_10">
     <!-- Model variable 2 -->
     <g transform="translate(20.2375 117.282993) rotate(-90) scale(0.1 -0.1)">
      <use xlink:href="#DejaVuSans-4d"/>
      <use xlink:href="#DejaVuSans-6f" x="86.279297"/>
      <use xlink:href="#DejaVuSans-64" x="147.460938"/>
      <use xlink:href="#DejaVuSans-65" x="210.9375"/>
      <use xlink:href="#DejaVuSans-6c" x="272.460938"/>
      <use xlink:href="#DejaVuSans-20" x="300.244141"/>
      <use xlink:href="#DejaVuSans-76" x="332.03125"/>
      <use xlink:href="#DejaVuSans-61" x="391.210938"/>
      <use xlink:href="#DejaVuSans-72" x="452.490234"/>
      <use xlink:href="#DejaVuSans-69" x="493.603516"/>
      <use xlink:href="#DejaVuSans-61" x="521.386719"/>
      <use xlink:href="#DejaVuSans-62" x="582.666016"/>
      <use xlink:href="#DejaVuSans-6c" x="646.142578"/>
      <use xlink:href="#DejaVuSans-65" x="673.925781"/>
      <use xlink:href="#DejaVuSans-20" x="735.449219"/>
      <use xlink:href="#DejaVuSans-32" x="767.236328"/>
     </g>
    </g>
   </g>
   <g id="patch_3">
    <path d="M 57.6 126.276923 
L 57.6 25.2 
" style="fill: none; stroke: #000000; stroke-width: 0.8; stroke-linejoin: miter; stroke-linecap: square"/>
   </g>
   <g id="patch_4">
    <path d="M 164.571429 126.276923 
L 164.571429 25.2 
" style="fill: none; stroke: #000000; stroke-width: 0.8; stroke-linejoin: miter; stroke-linecap: square"/>
   </g>
   <g id="patch_5">
    <path d="M 57.6 126.276923 
L 164.571429 126.276923 
" style="fill: none; stroke: #000000; stroke-width: 0.8; stroke-linejoin: miter; stroke-linecap: square"/>
   </g>
   <g id="patch_6">
    <path d="M 57.6 25.2 
L 164.571429 25.2 
" style="fill: none; stroke: #000000; stroke-width: 0.8; stroke-linejoin: miter; stroke-linecap: square"/>
   </g>
   <g id="text_11">
    <!-- True PDF -->
    <g transform="translate(84.749464 19.2) scale(0.12 -0.12)">
     <defs>
      <path id="DejaVuSans-54" d="M -19 4666 
L 3928 4666 
L 3928 4134 
L 2272 4134 
L 2272 0 
L 1638 0 
L 1638 4134 
L -19 4134 
L -19 4666 
z
" transform="scale(0.015625)"/>
      <path id="DejaVuSans-75" d="M 544 1381 
L 544 3500 
L 1119 3500 
L 1119 1403 
Q 1119 906 1312 657 
Q 1506 409 1894 409 
Q 2359 409 2629 706 
Q 2900 1003 2900 1516 
L 2900 3500 
L 3475 3500 
L 3475 0 
L 2900 0 
L 2900 538 
Q 2691 219 2414 64 
Q 2138 -91 1772 -91 
Q 1169 -91 856 284 
Q 544 659 544 1381 
z
M 1991 3584 
L 1991 3584 
z
" transform="scale(0.015625)"/>
      <path id="DejaVuSans-50" d="M 1259 4147 
L 1259 2394 
L 2053 2394 
Q 2494 2394 2734 2622 
Q 2975 2850 2975 3272 
Q 2975 3691 2734 3919 
Q 2494 4147 2053 4147 
L 1259 4147 
z
M 628 4666 
L 2053 4666 
Q 2838 4666 3239 4311 
Q 3641 3956 3641 3272 
Q 3641 2581 3239 2228 
Q 2838 1875 2053 1875 
L 1259 1875 
L 1259 0 
L 628 0 
L 628 4666 
z
" transform="scale(0.015625)"/>
      <path id="DejaVuSans-44" d="M 1259 4147 
L 1259 519 
L 2022 519 
Q 2988 519 3436 956 
Q 3884 1394 3884 2338 
Q 3884 3275 3436 3711 
Q 2988 4147 2022 4147 
L 1259 4147 
z
M 628 4666 
L 1925 4666 
Q 3281 4666 3915 4102 
Q 4550 3538 4550 2338 
Q 4550 1131 3912 565 
Q 3275 0 1925 0 
L 628 0 
L 628 4666 
z
" transform="scale(0.015625)"/>
      <path id="DejaVuSans-46" d="M 628 4666 
L 3309 4666 
L 3309 4134 
L 1259 4134 
L 1259 2759 
L 3109 2759 
L 3109 2228 
L 1259 2228 
L 1259 0 
L 628 0 
L 628 4666 
z
" transform="scale(0.015625)"/>
     </defs>
     <use xlink:href="#DejaVuSans-54"/>
     <use xlink:href="#DejaVuSans-72" x="46.333984"/>
     <use xlink:href="#DejaVuSans-75" x="87.447266"/>
     <use xlink:href="#DejaVuSans-65" x="150.826172"/>
     <use xlink:href="#DejaVuSans-20" x="212.349609"/>
     <use xlink:href="#DejaVuSans-50" x="244.136719"/>
     <use xlink:href="#DejaVuSans-44" x="304.439453"/>
     <use xlink:href="#DejaVuSans-46" x="381.441406"/>
    </g>
   </g>
  </g>
  <g id="axes_2">
   <g id="patch_7">
    <path d="M 175.268571 126.276923 
L 282.24 126.276923 
L 282.24 25.2 
L 175.268571 25.2 
z
" style="fill: #ffffff"/>
   </g>
   <g id="PathCollection_6">
    <path d="M 263.137959 125.153268 
L 265.351161 126.276923 
L 266.958367 126.276923 
L 270.778776 126.276923 
L 274.599184 126.276923 
L 278.419592 126.276923 
L 282.24 126.276923 
L 282.24 122.791512 
L 282.24 119.306101 
L 282.24 115.82069 
L 282.24 112.335279 
L 282.24 108.849867 
L 282.24 106.011747 
L 282.094638 105.364456 
L 281.233854 101.879045 
L 279.755626 98.393634 
L 278.419592 95.641833 
L 278.17825 94.908223 
L 276.84359 91.422812 
L 274.795159 87.937401 
L 274.599184 87.411635 
L 273.898076 84.451989 
L 272.329111 80.966578 
L 272.395359 77.481167 
L 272.464793 73.995756 
L 272.946067 70.510345 
L 273.147429 67.024934 
L 272.741076 63.539523 
L 271.881887 60.054111 
L 270.778776 58.054586 
L 270.274232 56.5687 
L 268.437433 53.083289 
L 266.958367 51.460131 
L 265.271592 49.597878 
L 263.137959 47.319331 
L 262.003321 46.112467 
L 259.317551 43.948428 
L 256.852697 42.627056 
L 255.497143 41.710579 
L 251.676735 40.158679 
L 247.856327 39.560798 
L 244.035918 39.463721 
L 240.21551 39.812757 
L 236.395102 39.371291 
L 232.574694 39.348778 
L 231.589597 39.141645 
L 228.754286 38.259983 
L 224.933878 36.910234 
L 221.113469 35.789111 
L 220.504138 35.656233 
L 217.293061 34.469406 
L 213.472653 33.358662 
L 209.717471 32.170822 
L 209.652245 32.141069 
L 205.831837 31.182337 
L 202.011429 30.135514 
L 198.19102 29.573433 
L 194.370612 29.137347 
L 190.550204 28.745106 
L 186.729796 29.37513 
L 182.909388 30.406844 
L 180.126685 32.170822 
L 179.08898 33.922241 
L 178.413192 35.656233 
L 178.315387 39.141645 
L 179.030015 42.627056 
L 179.08898 42.750981 
L 180.668082 46.112467 
L 182.909388 48.865048 
L 183.381659 49.597878 
L 185.733471 53.083289 
L 186.729796 54.448806 
L 188.414824 56.5687 
L 190.550204 58.772211 
L 191.909494 60.054111 
L 194.370612 62.213366 
L 195.809194 63.539523 
L 198.19102 65.822719 
L 199.99153 67.024934 
L 202.011429 68.519881 
L 204.538229 70.510345 
L 205.831837 71.638069 
L 209.652245 73.693505 
L 210.35902 73.995756 
L 213.472653 76.679797 
L 214.410098 77.481167 
L 217.293061 80.549696 
L 218.458286 80.966578 
L 217.316215 84.451989 
L 217.293061 84.462241 
L 214.055265 87.937401 
L 214.910333 91.422812 
L 217.066955 94.908223 
L 217.293061 95.097152 
L 221.113469 97.307653 
L 223.421308 98.393634 
L 224.933878 99.193835 
L 228.754286 99.889118 
L 232.574694 100.383595 
L 234.133917 101.879045 
L 236.395102 103.116791 
L 238.670138 105.364456 
L 240.21551 106.587073 
L 242.37521 108.849867 
L 244.035918 110.296087 
L 246.054797 112.335279 
L 247.856327 114.013285 
L 249.911279 115.82069 
L 251.676735 117.200023 
L 254.915528 119.306101 
L 255.497143 119.726825 
L 259.317551 122.640324 
L 259.608524 122.791512 
z
M 263.774226 119.306101 
L 263.137959 119.007915 
L 259.317551 116.780593 
L 258.125744 115.82069 
L 255.497143 113.55647 
L 254.156915 112.335279 
L 251.676735 109.801932 
L 250.748111 108.849867 
L 247.915102 105.364456 
L 247.856327 105.249202 
L 245.494 101.879045 
L 244.314215 98.393634 
L 244.035918 95.804471 
L 243.878251 94.908223 
L 244.035918 93.425339 
L 244.179297 91.422812 
L 245.184633 87.937401 
L 246.79237 84.451989 
L 247.856327 81.375811 
L 248.026122 80.966578 
L 247.874858 77.481167 
L 247.856327 77.460711 
L 245.194131 73.995756 
L 244.035918 72.877155 
L 241.565753 70.510345 
L 240.21551 69.072045 
L 237.5846 67.024934 
L 236.395102 66.269585 
L 232.574694 65.876347 
L 228.754286 65.761606 
L 224.933878 66.564274 
L 221.113469 66.595169 
L 217.293061 66.699992 
L 213.472653 66.172202 
L 209.652245 64.794662 
L 207.56809 63.539523 
L 205.831837 62.541555 
L 202.475425 60.054111 
L 202.011429 59.714791 
L 198.19102 56.672252 
L 198.0878 56.5687 
L 194.370612 53.149292 
L 194.307766 53.083289 
L 191.742337 49.597878 
L 190.550204 47.094028 
L 189.980295 46.112467 
L 189.078204 42.627056 
L 190.550204 39.339978 
L 190.665154 39.141645 
L 194.370612 36.688989 
L 198.19102 36.449175 
L 202.011429 36.184799 
L 205.831837 37.011634 
L 209.652245 37.863786 
L 212.701363 39.141645 
L 213.472653 39.40803 
L 217.293061 40.29934 
L 221.113469 42.037296 
L 222.592916 42.627056 
L 224.933878 43.479045 
L 228.754286 45.267106 
L 231.395293 46.112467 
L 232.574694 46.680128 
L 236.395102 46.396263 
L 238.845754 46.112467 
L 240.21551 45.987502 
L 244.035918 45.094188 
L 247.856327 44.846146 
L 251.676735 45.580756 
L 253.036155 46.112467 
L 255.497143 46.912478 
L 259.317551 49.466338 
L 259.451026 49.597878 
L 262.68724 53.083289 
L 263.137959 53.678321 
L 265.302073 56.5687 
L 266.799254 60.054111 
L 266.958367 61.483635 
L 267.27249 63.539523 
L 267.508084 67.024934 
L 266.958367 69.408392 
L 266.738755 70.510345 
L 265.540066 73.995756 
L 264.736124 77.481167 
L 265.056367 80.966578 
L 266.958367 83.852712 
L 267.270862 84.451989 
L 269.102103 87.937401 
L 270.778776 90.778577 
L 271.183336 91.422812 
L 273.08222 94.908223 
L 274.467225 98.393634 
L 274.599184 98.815284 
L 275.938556 101.879045 
L 277.105015 105.364456 
L 277.894615 108.849867 
L 278.225539 112.335279 
L 278.121354 115.82069 
L 276.790226 119.306101 
L 274.599184 121.409492 
L 270.778776 121.693433 
L 266.958367 121.169645 
z
" clip-path="url(#p866bba652e)" style="fill: #fee0d2"/>
   </g>
   <g id="PathCollection_7">
    <path d="M 266.958367 121.169645 
L 270.778776 121.693433 
L 274.599184 121.409492 
L 276.790226 119.306101 
L 278.121354 115.82069 
L 278.225539 112.335279 
L 277.894615 108.849867 
L 277.105015 105.364456 
L 275.938556 101.879045 
L 274.599184 98.815284 
L 274.467225 98.393634 
L 273.08222 94.908223 
L 271.183336 91.422812 
L 270.778776 90.778577 
L 269.102103 87.937401 
L 267.270862 84.451989 
L 266.958367 83.852712 
L 265.056367 80.966578 
L 264.736124 77.481167 
L 265.540066 73.995756 
L 266.738755 70.510345 
L 266.958367 69.408392 
L 267.508084 67.024934 
L 267.27249 63.539523 
L 266.958367 61.483635 
L 266.799254 60.054111 
L 265.302073 56.5687 
L 263.137959 53.678321 
L 262.68724 53.083289 
L 259.451026 49.597878 
L 259.317551 49.466338 
L 255.497143 46.912478 
L 253.036155 46.112467 
L 251.676735 45.580756 
L 247.856327 44.846146 
L 244.035918 45.094188 
L 240.21551 45.987502 
L 238.845754 46.112467 
L 236.395102 46.396263 
L 232.574694 46.680128 
L 231.395293 46.112467 
L 228.754286 45.267106 
L 224.933878 43.479045 
L 222.592916 42.627056 
L 221.113469 42.037296 
L 217.293061 40.29934 
L 213.472653 39.40803 
L 212.701363 39.141645 
L 209.652245 37.863786 
L 205.831837 37.011634 
L 202.011429 36.184799 
L 198.19102 36.449175 
L 194.370612 36.688989 
L 190.665154 39.141645 
L 190.550204 39.339978 
L 189.078204 42.627056 
L 189.980295 46.112467 
L 190.550204 47.094028 
L 191.742337 49.597878 
L 194.307766 53.083289 
L 194.370612 53.149292 
L 198.0878 56.5687 
L 198.19102 56.672252 
L 202.011429 59.714791 
L 202.475425 60.054111 
L 205.831837 62.541555 
L 207.56809 63.539523 
L 209.652245 64.794662 
L 213.472653 66.172202 
L 217.293061 66.699992 
L 221.113469 66.595169 
L 224.933878 66.564274 
L 228.754286 65.761606 
L 232.574694 65.876347 
L 236.395102 66.269585 
L 237.5846 67.024934 
L 240.21551 69.072045 
L 241.565753 70.510345 
L 244.035918 72.877155 
L 245.194131 73.995756 
L 247.856327 77.460711 
L 247.874858 77.481167 
L 248.026122 80.966578 
L 247.856327 81.375811 
L 246.79237 84.451989 
L 245.184633 87.937401 
L 244.179297 91.422812 
L 244.035918 93.425339 
L 243.878251 94.908223 
L 244.035918 95.804471 
L 244.314215 98.393634 
L 245.494 101.879045 
L 247.856327 105.249202 
L 247.915102 105.364456 
L 250.748111 108.849867 
L 251.676735 109.801932 
L 254.156915 112.335279 
L 255.497143 113.55647 
L 258.125744 115.82069 
L 259.317551 116.780593 
L 263.137959 119.007915 
L 263.774226 119.306101 
z
M 264.790409 115.82069 
L 263.137959 115.208388 
L 259.317551 112.875487 
L 258.701131 112.335279 
L 255.497143 109.318742 
L 255.02167 108.849867 
L 252.08347 105.364456 
L 251.676735 104.597227 
L 250.114556 101.879045 
L 249.003455 98.393634 
L 248.517134 94.908223 
L 249.542813 91.422812 
L 251.216916 87.937401 
L 251.676735 87.338445 
L 255.083516 84.451989 
L 255.497143 84.020238 
L 259.317551 84.175502 
L 259.60671 84.451989 
L 263.137959 86.685091 
L 264.152545 87.937401 
L 266.833211 91.422812 
L 266.958367 91.559094 
L 269.557302 94.908223 
L 270.778776 97.400885 
L 271.268299 98.393634 
L 272.593708 101.879045 
L 273.646383 105.364456 
L 274.404265 108.849867 
L 274.174694 112.335279 
L 272.605173 115.82069 
L 270.778776 117.039041 
L 266.958367 116.833967 
z
M 254.555306 73.995756 
L 251.676735 73.022353 
L 248.075003 70.510345 
L 247.856327 70.383738 
L 244.296401 67.024934 
L 244.035918 66.746101 
L 240.911253 63.539523 
L 240.21551 62.172853 
L 237.903854 60.054111 
L 236.640825 56.5687 
L 238.546826 53.083289 
L 240.21551 52.153846 
L 243.732979 49.597878 
L 244.035918 49.469054 
L 247.856327 48.491764 
L 251.676735 48.640584 
L 253.769609 49.597878 
L 255.497143 50.453717 
L 259.074818 53.083289 
L 259.317551 53.302517 
L 261.946319 56.5687 
L 263.137959 59.438314 
L 263.419078 60.054111 
L 264.213061 63.539523 
L 263.93883 67.024934 
L 263.137959 69.173891 
L 262.206669 70.510345 
L 259.317551 73.31718 
L 256.833345 73.995756 
L 255.497143 74.582164 
z
M 211.308063 60.054111 
L 209.652245 59.474289 
L 205.831837 57.639194 
L 204.443023 56.5687 
L 202.011429 54.183945 
L 200.714543 53.083289 
L 198.19102 49.928857 
L 197.939069 49.597878 
L 196.717755 46.112467 
L 197.810502 42.627056 
L 198.19102 42.3423 
L 202.011429 41.275299 
L 205.831837 41.212367 
L 209.652245 41.971903 
L 211.728554 42.627056 
L 213.472653 43.207958 
L 217.293061 44.656536 
L 221.009513 46.112467 
L 221.113469 46.177921 
L 224.933878 49.560052 
L 224.998787 49.597878 
L 228.754286 52.620558 
L 229.609395 53.083289 
L 229.182053 56.5687 
L 228.754286 56.874069 
L 224.933878 59.46951 
L 223.5301 60.054111 
L 221.113469 60.69123 
L 217.293061 61.140042 
L 213.472653 60.975678 
z
" clip-path="url(#p866bba652e)" style="fill: #fc9272"/>
   </g>
   <g id="PathCollection_8">
    <path d="M 266.958367 116.833967 
L 270.778776 117.039041 
L 272.605173 115.82069 
L 274.174694 112.335279 
L 274.404265 108.849867 
L 273.646383 105.364456 
L 272.593708 101.879045 
L 271.268299 98.393634 
L 270.778776 97.400885 
L 269.557302 94.908223 
L 266.958367 91.559094 
L 266.833211 91.422812 
L 264.152545 87.937401 
L 263.137959 86.685091 
L 259.60671 84.451989 
L 259.317551 84.175502 
L 255.497143 84.020238 
L 255.083516 84.451989 
L 251.676735 87.338445 
L 251.216916 87.937401 
L 249.542813 91.422812 
L 248.517134 94.908223 
L 249.003455 98.393634 
L 250.114556 101.879045 
L 251.676735 104.597227 
L 252.08347 105.364456 
L 255.02167 108.849867 
L 255.497143 109.318742 
L 258.701131 112.335279 
L 259.317551 112.875487 
L 263.137959 115.208388 
L 264.790409 115.82069 
z
M 264.654501 112.335279 
L 263.137959 111.948587 
L 259.317551 109.026074 
L 259.130303 108.849867 
L 255.600581 105.364456 
L 255.497143 105.201764 
L 253.808438 101.879045 
L 252.903988 98.393634 
L 252.87253 94.908223 
L 254.553852 91.422812 
L 255.497143 90.244387 
L 259.317551 89.370382 
L 262.98341 91.422812 
L 263.137959 91.502499 
L 266.219216 94.908223 
L 266.958367 95.936044 
L 268.257257 98.393634 
L 269.706431 101.879045 
L 270.778776 105.050481 
L 270.879119 105.364456 
L 271.279327 108.849867 
L 270.778776 110.584467 
L 268.674845 112.335279 
L 266.958367 112.859744 
z
" clip-path="url(#p866bba652e)" style="fill: #ee3a2c"/>
    <path d="M 255.497143 74.582164 
L 256.833345 73.995756 
L 259.317551 73.31718 
L 262.206669 70.510345 
L 263.137959 69.173891 
L 263.93883 67.024934 
L 264.213061 63.539523 
L 263.419078 60.054111 
L 263.137959 59.438314 
L 261.946319 56.5687 
L 259.317551 53.302517 
L 259.074818 53.083289 
L 255.497143 50.453717 
L 253.769609 49.597878 
L 251.676735 48.640584 
L 247.856327 48.491764 
L 244.035918 49.469054 
L 243.732979 49.597878 
L 240.21551 52.153846 
L 238.546826 53.083289 
L 236.640825 56.5687 
L 237.903854 60.054111 
L 240.21551 62.172853 
L 240.911253 63.539523 
L 244.035918 66.746101 
L 244.296401 67.024934 
L 247.856327 70.383738 
L 248.075003 70.510345 
L 251.676735 73.022353 
L 254.555306 73.995756 
z
M 249.368383 67.024934 
L 247.856327 65.673943 
L 245.8812 63.539523 
L 244.035918 60.666974 
L 243.686729 60.054111 
L 243.071881 56.5687 
L 244.035918 55.066134 
L 245.558302 53.083289 
L 247.856327 51.943651 
L 251.676735 51.616092 
L 254.574872 53.083289 
L 255.497143 53.594115 
L 258.786228 56.5687 
L 259.317551 57.524448 
L 260.445109 60.054111 
L 260.837881 63.539523 
L 259.653353 67.024934 
L 259.317551 67.43944 
L 255.497143 69.456186 
L 251.676735 68.476713 
z
" clip-path="url(#p866bba652e)" style="fill: #ee3a2c"/>
    <path d="M 213.472653 60.975678 
L 217.293061 61.140042 
L 221.113469 60.69123 
L 223.5301 60.054111 
L 224.933878 59.46951 
L 228.754286 56.874069 
L 229.182053 56.5687 
L 229.609395 53.083289 
L 228.754286 52.620558 
L 224.998787 49.597878 
L 224.933878 49.560052 
L 221.113469 46.177921 
L 221.009513 46.112467 
L 217.293061 44.656536 
L 213.472653 43.207958 
L 211.728554 42.627056 
L 209.652245 41.971903 
L 205.831837 41.212367 
L 202.011429 41.275299 
L 198.19102 42.3423 
L 197.810502 42.627056 
L 196.717755 46.112467 
L 197.939069 49.597878 
L 198.19102 49.928857 
L 200.714543 53.083289 
L 202.011429 54.183945 
L 204.443023 56.5687 
L 205.831837 57.639194 
L 209.652245 59.474289 
L 211.308063 60.054111 
z
M 208.81858 53.083289 
L 205.831837 50.577834 
L 204.827254 49.597878 
L 205.831837 48.202115 
L 209.652245 46.382183 
L 213.472653 48.451565 
L 216.52898 49.597878 
L 217.293061 50.324414 
L 218.83402 53.083289 
L 217.293061 54.475802 
L 213.472653 54.721921 
L 209.652245 54.093248 
z
" clip-path="url(#p866bba652e)" style="fill: #ee3a2c"/>
   </g>
   <g id="PathCollection_9">
    <path d="M 266.958367 112.859744 
L 268.674845 112.335279 
L 270.778776 110.584467 
L 271.279327 108.849867 
L 270.879119 105.364456 
L 270.778776 105.050481 
L 269.706431 101.879045 
L 268.257257 98.393634 
L 266.958367 95.936044 
L 266.219216 94.908223 
L 263.137959 91.502499 
L 262.98341 91.422812 
L 259.317551 89.370382 
L 255.497143 90.244387 
L 254.553852 91.422812 
L 252.87253 94.908223 
L 252.903988 98.393634 
L 253.808438 101.879045 
L 255.497143 105.201764 
L 255.600581 105.364456 
L 259.130303 108.849867 
L 259.317551 109.026074 
L 263.137959 111.948587 
L 264.654501 112.335279 
z
M 260.653161 105.364456 
L 259.317551 104.165211 
L 257.818276 101.879045 
L 257.240015 98.393634 
L 259.317551 95.54871 
L 263.137959 96.311162 
L 264.614953 98.393634 
L 266.540669 101.879045 
L 266.958367 102.903839 
L 267.465086 105.364456 
L 266.958367 106.730861 
L 263.137959 107.196218 
z
" clip-path="url(#p866bba652e)" style="fill: #a30f15"/>
    <path d="M 251.676735 68.476713 
L 255.497143 69.456186 
L 259.317551 67.43944 
L 259.653353 67.024934 
L 260.837881 63.539523 
L 260.445109 60.054111 
L 259.317551 57.524448 
L 258.786228 56.5687 
L 255.497143 53.594115 
L 254.574872 53.083289 
L 251.676735 51.616092 
L 247.856327 51.943651 
L 245.558302 53.083289 
L 244.035918 55.066134 
L 243.071881 56.5687 
L 243.686729 60.054111 
L 244.035918 60.666974 
L 245.8812 63.539523 
L 247.856327 65.673943 
L 249.368383 67.024934 
z
M 251.349408 63.539523 
L 248.565306 60.054111 
L 248.845313 56.5687 
L 251.676735 55.243547 
L 254.564447 56.5687 
L 255.497143 57.489149 
L 256.704293 60.054111 
L 256.298433 63.539523 
L 255.497143 64.456423 
L 251.676735 63.832263 
z
" clip-path="url(#p866bba652e)" style="fill: #a30f15"/>
    <path d="M 209.652245 54.093248 
L 213.472653 54.721921 
L 217.293061 54.475802 
L 218.83402 53.083289 
L 217.293061 50.324414 
L 216.52898 49.597878 
L 213.472653 48.451565 
L 209.652245 46.382183 
L 205.831837 48.202115 
L 204.827254 49.597878 
L 205.831837 50.577834 
L 208.81858 53.083289 
z
" clip-path="url(#p866bba652e)" style="fill: #a30f15"/>
   </g>
   <g id="PathCollection_10">
    <path d="M 263.137959 107.196218 
L 266.958367 106.730861 
L 267.465086 105.364456 
L 266.958367 102.903839 
L 266.540669 101.879045 
L 264.614953 98.393634 
L 263.137959 96.311162 
L 259.317551 95.54871 
L 257.240015 98.393634 
L 257.818276 101.879045 
L 259.317551 104.165211 
L 260.653161 105.364456 
z
" clip-path="url(#p866bba652e)" style="fill: #67000d"/>
    <path d="M 251.676735 63.832263 
L 255.497143 64.456423 
L 256.298433 63.539523 
L 256.704293 60.054111 
L 255.497143 57.489149 
L 254.564447 56.5687 
L 251.676735 55.243547 
L 248.845313 56.5687 
L 248.565306 60.054111 
L 251.349408 63.539523 
z
" clip-path="url(#p866bba652e)" style="fill: #67000d"/>
   </g>
   <g id="matplotlib.axis_3">
    <g id="xtick_4">
     <g id="line2d_9">
      <g>
       <use xlink:href="#ma81f458745" x="178.39436" y="126.276923" style="stroke: #000000; stroke-width: 0.8"/>
      </g>
     </g>
     <g id="text_12">
      <!-- −5 -->
      <g transform="translate(171.023266 140.875361) scale(0.1 -0.1)">
       <use xlink:href="#DejaVuSans-2212"/>
       <use xlink:href="#DejaVuSans-35" x="83.789062"/>
      </g>
     </g>
    </g>
    <g id="xtick_5">
     <g id="line2d_10">
      <g>
       <use xlink:href="#ma81f458745" x="228.754286" y="126.276923" style="stroke: #000000; stroke-width: 0.8"/>
      </g>
     </g>
     <g id="text_13">
      <!-- 0 -->
      <g transform="translate(225.573036 140.875361) scale(0.1 -0.1)">
       <use xlink:href="#DejaVuSans-30"/>
      </g>
     </g>
    </g>
    <g id="xtick_6">
     <g id="line2d_11">
      <g>
       <use xlink:href="#ma81f458745" x="279.114212" y="126.276923" style="stroke: #000000; stroke-width: 0.8"/>
      </g>
     </g>
     <g id="text_14">
      <!-- 5 -->
      <g transform="translate(275.932962 140.875361) scale(0.1 -0.1)">
       <use xlink:href="#DejaVuSans-35"/>
      </g>
     </g>
    </g>
    <g id="text_15">
     <!-- Model variable 1 -->
     <g transform="translate(187.209754 154.553486) scale(0.1 -0.1)">
      <use xlink:href="#DejaVuSans-4d"/>
      <use xlink:href="#DejaVuSans-6f" x="86.279297"/>
      <use xlink:href="#DejaVuSans-64" x="147.460938"/>
      <use xlink:href="#DejaVuSans-65" x="210.9375"/>
      <use xlink:href="#DejaVuSans-6c" x="272.460938"/>
      <use xlink:href="#DejaVuSans-20" x="300.244141"/>
      <use xlink:href="#DejaVuSans-76" x="332.03125"/>
      <use xlink:href="#DejaVuSans-61" x="391.210938"/>
      <use xlink:href="#DejaVuSans-72" x="452.490234"/>
      <use xlink:href="#DejaVuSans-69" x="493.603516"/>
      <use xlink:href="#DejaVuSans-61" x="521.386719"/>
      <use xlink:href="#DejaVuSans-62" x="582.666016"/>
      <use xlink:href="#DejaVuSans-6c" x="646.142578"/>
      <use xlink:href="#DejaVuSans-65" x="673.925781"/>
      <use xlink:href="#DejaVuSans-20" x="735.449219"/>
      <use xlink:href="#DejaVuSans-31" x="767.236328"/>
     </g>
    </g>
   </g>
   <g id="matplotlib.axis_4">
    <g id="ytick_6">
     <g id="line2d_12">
      <g>
       <use xlink:href="#m326e6451e3" x="175.268571" y="123.266795" style="stroke: #000000; stroke-width: 0.8"/>
      </g>
     </g>
    </g>
    <g id="ytick_7">
     <g id="line2d_13">
      <g>
       <use xlink:href="#m326e6451e3" x="175.268571" y="99.502628" style="stroke: #000000; stroke-width: 0.8"/>
      </g>
     </g>
    </g>
    <g id="ytick_8">
     <g id="line2d_14">
      <g>
       <use xlink:href="#m326e6451e3" x="175.268571" y="75.738462" style="stroke: #000000; stroke-width: 0.8"/>
      </g>
     </g>
    </g>
    <g id="ytick_9">
     <g id="line2d_15">
      <g>
       <use xlink:href="#m326e6451e3" x="175.268571" y="51.974295" style="stroke: #000000; stroke-width: 0.8"/>
      </g>
     </g>
    </g>
    <g id="ytick_10">
     <g id="line2d_16">
      <g>
       <use xlink:href="#m326e6451e3" x="175.268571" y="28.210128" style="stroke: #000000; stroke-width: 0.8"/>
      </g>
     </g>
    </g>
   </g>
   <g id="patch_8">
    <path d="M 175.268571 126.276923 
L 175.268571 25.2 
" style="fill: none; stroke: #000000; stroke-width: 0.8; stroke-linejoin: miter; stroke-linecap: square"/>
   </g>
   <g id="patch_9">
    <path d="M 282.24 126.276923 
L 282.24 25.2 
" style="fill: none; stroke: #000000; stroke-width: 0.8; stroke-linejoin: miter; stroke-linecap: square"/>
   </g>
   <g id="patch_10">
    <path d="M 175.268571 126.276923 
L 282.24 126.276923 
" style="fill: none; stroke: #000000; stroke-width: 0.8; stroke-linejoin: miter; stroke-linecap: square"/>
   </g>
   <g id="patch_11">
    <path d="M 175.268571 25.2 
L 282.24 25.2 
" style="fill: none; stroke: #000000; stroke-width: 0.8; stroke-linejoin: miter; stroke-linecap: square"/>
   </g>
   <g id="text_16">
    <!-- Virt Mems' PDF -->
    <g transform="translate(183.308973 19.2) scale(0.12 -0.12)">
     <defs>
      <path id="DejaVuSans-56" d="M 1831 0 
L 50 4666 
L 709 4666 
L 2188 738 
L 3669 4666 
L 4325 4666 
L 2547 0 
L 1831 0 
z
" transform="scale(0.015625)"/>
      <path id="DejaVuSans-74" d="M 1172 4494 
L 1172 3500 
L 2356 3500 
L 2356 3053 
L 1172 3053 
L 1172 1153 
Q 1172 725 1289 603 
Q 1406 481 1766 481 
L 2356 481 
L 2356 0 
L 1766 0 
Q 1100 0 847 248 
Q 594 497 594 1153 
L 594 3053 
L 172 3053 
L 172 3500 
L 594 3500 
L 594 4494 
L 1172 4494 
z
" transform="scale(0.015625)"/>
      <path id="DejaVuSans-6d" d="M 3328 2828 
Q 3544 3216 3844 3400 
Q 4144 3584 4550 3584 
Q 5097 3584 5394 3201 
Q 5691 2819 5691 2113 
L 5691 0 
L 5113 0 
L 5113 2094 
Q 5113 2597 4934 2840 
Q 4756 3084 4391 3084 
Q 3944 3084 3684 2787 
Q 3425 2491 3425 1978 
L 3425 0 
L 2847 0 
L 2847 2094 
Q 2847 2600 2669 2842 
Q 2491 3084 2119 3084 
Q 1678 3084 1418 2786 
Q 1159 2488 1159 1978 
L 1159 0 
L 581 0 
L 581 3500 
L 1159 3500 
L 1159 2956 
Q 1356 3278 1631 3431 
Q 1906 3584 2284 3584 
Q 2666 3584 2933 3390 
Q 3200 3197 3328 2828 
z
" transform="scale(0.015625)"/>
      <path id="DejaVuSans-73" d="M 2834 3397 
L 2834 2853 
Q 2591 2978 2328 3040 
Q 2066 3103 1784 3103 
Q 1356 3103 1142 2972 
Q 928 2841 928 2578 
Q 928 2378 1081 2264 
Q 1234 2150 1697 2047 
L 1894 2003 
Q 2506 1872 2764 1633 
Q 3022 1394 3022 966 
Q 3022 478 2636 193 
Q 2250 -91 1575 -91 
Q 1294 -91 989 -36 
Q 684 19 347 128 
L 347 722 
Q 666 556 975 473 
Q 1284 391 1588 391 
Q 1994 391 2212 530 
Q 2431 669 2431 922 
Q 2431 1156 2273 1281 
Q 2116 1406 1581 1522 
L 1381 1569 
Q 847 1681 609 1914 
Q 372 2147 372 2553 
Q 372 3047 722 3315 
Q 1072 3584 1716 3584 
Q 2034 3584 2315 3537 
Q 2597 3491 2834 3397 
z
" transform="scale(0.015625)"/>
      <path id="DejaVuSans-27" d="M 1147 4666 
L 1147 2931 
L 616 2931 
L 616 4666 
L 1147 4666 
z
" transform="scale(0.015625)"/>
     </defs>
     <use xlink:href="#DejaVuSans-56"/>
     <use xlink:href="#DejaVuSans-69" x="66.158203"/>
     <use xlink:href="#DejaVuSans-72" x="93.941406"/>
     <use xlink:href="#DejaVuSans-74" x="135.054688"/>
     <use xlink:href="#DejaVuSans-20" x="174.263672"/>
     <use xlink:href="#DejaVuSans-4d" x="206.050781"/>
     <use xlink:href="#DejaVuSans-65" x="292.330078"/>
     <use xlink:href="#DejaVuSans-6d" x="353.853516"/>
     <use xlink:href="#DejaVuSans-73" x="451.265625"/>
     <use xlink:href="#DejaVuSans-27" x="503.365234"/>
     <use xlink:href="#DejaVuSans-20" x="530.855469"/>
     <use xlink:href="#DejaVuSans-50" x="562.642578"/>
     <use xlink:href="#DejaVuSans-44" x="622.945312"/>
     <use xlink:href="#DejaVuSans-46" x="699.947266"/>
    </g>
   </g>
  </g>
  <g id="axes_3">
   <g id="patch_12">
    <path d="M 57.6 288 
L 164.571429 288 
L 164.571429 186.923077 
L 57.6 186.923077 
z
" style="fill: #ffffff"/>
   </g>
   <g id="PathCollection_11">
    <path d="M 130.187755 270.928718 
L 134.008163 271.487725 
L 137.828571 271.628584 
L 141.64898 270.762443 
L 141.999992 270.572944 
L 145.469388 267.512284 
L 145.77991 267.087533 
L 147.107124 263.602122 
L 147.32379 260.116711 
L 146.825168 256.6313 
L 145.753061 253.145889 
L 145.469388 252.533745 
L 144.534278 249.660477 
L 142.772084 246.175066 
L 141.64898 244.495674 
L 140.752485 242.689655 
L 138.374317 239.204244 
L 137.828571 238.533198 
L 135.859537 235.718833 
L 134.008163 233.518144 
L 133.076589 232.233422 
L 130.187755 229.092477 
L 129.890082 228.748011 
L 126.367347 225.265639 
L 126.364184 225.262599 
L 122.546939 221.785915 
L 122.537133 221.777188 
L 118.726531 218.464661 
L 118.497436 218.291777 
L 114.906122 215.503994 
L 113.865507 214.806366 
L 111.085714 212.723979 
L 108.644617 211.320955 
L 107.265306 210.381344 
L 103.444898 208.377297 
L 102.052778 207.835544 
L 99.62449 206.585255 
L 95.804082 205.098707 
L 92.897031 204.350133 
L 91.983673 204.023642 
L 88.163265 203.286393 
L 84.342857 203.199821 
L 80.522449 204.239692 
L 80.322832 204.350133 
L 76.702041 207.373167 
L 76.353541 207.835544 
L 74.996507 211.320955 
L 74.720914 214.806366 
L 75.253513 218.291777 
L 76.317183 221.777188 
L 76.702041 222.537383 
L 77.678492 225.262599 
L 79.341601 228.748011 
L 80.522449 230.501436 
L 81.457884 232.233422 
L 83.8224 235.718833 
L 84.342857 236.379953 
L 86.170451 239.204244 
L 88.163265 241.488093 
L 89.120558 242.689655 
L 91.983673 245.794946 
L 92.314562 246.175066 
L 95.804082 249.641961 
L 95.822887 249.660477 
L 99.570094 253.145889 
L 99.62449 253.196108 
L 103.444898 256.426004 
L 103.719406 256.6313 
L 107.265306 259.524792 
L 108.159606 260.116711 
L 111.085714 262.186772 
L 113.599034 263.602122 
L 114.906122 264.475933 
L 118.726531 266.539355 
L 120.078439 267.087533 
L 122.546939 268.383743 
L 126.367347 269.836252 
L 129.175403 270.572944 
z
M 120.501562 260.116711 
L 118.726531 259.513369 
L 114.906122 257.587725 
L 113.405337 256.6313 
L 111.085714 255.294157 
L 108.115842 253.145889 
L 107.265306 252.556735 
L 103.744012 249.660477 
L 103.444898 249.412218 
L 99.895534 246.175066 
L 99.62449 245.90457 
L 96.484825 242.689655 
L 95.804082 241.867199 
L 93.534437 239.204244 
L 91.983673 237.088129 
L 90.917042 235.718833 
L 88.80078 232.233422 
L 88.163265 230.969352 
L 86.897133 228.748011 
L 85.702066 225.262599 
L 84.935102 221.777188 
L 84.948958 218.291777 
L 87.055978 214.806366 
L 88.163265 213.910986 
L 91.983673 212.749746 
L 95.804082 212.951833 
L 99.62449 213.870517 
L 101.682884 214.806366 
L 103.444898 215.478978 
L 107.265306 217.345128 
L 108.72504 218.291777 
L 111.085714 219.641863 
L 114.036743 221.777188 
L 114.906122 222.369004 
L 118.452441 225.262599 
L 118.726531 225.497314 
L 122.22804 228.748011 
L 122.546939 229.063292 
L 125.666622 232.233422 
L 126.367347 233.04836 
L 128.667778 235.718833 
L 130.187755 237.871585 
L 131.224106 239.204244 
L 133.395508 242.689655 
L 134.008163 244.029305 
L 135.197413 246.175066 
L 136.495699 249.660477 
L 137.233975 253.145889 
L 137.137472 256.6313 
L 135.341438 260.116711 
L 134.008163 261.213282 
L 130.187755 262.15024 
L 126.367347 262.007966 
L 122.546939 260.963512 
z
" clip-path="url(#p612618597e)" style="fill: #deebf7"/>
   </g>
   <g id="PathCollection_12">
    <path d="M 122.546939 260.963512 
L 126.367347 262.007966 
L 130.187755 262.15024 
L 134.008163 261.213282 
L 135.341438 260.116711 
L 137.137472 256.6313 
L 137.233975 253.145889 
L 136.495699 249.660477 
L 135.197413 246.175066 
L 134.008163 244.029305 
L 133.395508 242.689655 
L 131.224106 239.204244 
L 130.187755 237.871585 
L 128.667778 235.718833 
L 126.367347 233.04836 
L 125.666622 232.233422 
L 122.546939 229.063292 
L 122.22804 228.748011 
L 118.726531 225.497314 
L 118.452441 225.262599 
L 114.906122 222.369004 
L 114.036743 221.777188 
L 111.085714 219.641863 
L 108.72504 218.291777 
L 107.265306 217.345128 
L 103.444898 215.478978 
L 101.682884 214.806366 
L 99.62449 213.870517 
L 95.804082 212.951833 
L 91.983673 212.749746 
L 88.163265 213.910986 
L 87.055978 214.806366 
L 84.948958 218.291777 
L 84.935102 221.777188 
L 85.702066 225.262599 
L 86.897133 228.748011 
L 88.163265 230.969352 
L 88.80078 232.233422 
L 90.917042 235.718833 
L 91.983673 237.088129 
L 93.534437 239.204244 
L 95.804082 241.867199 
L 96.484825 242.689655 
L 99.62449 245.90457 
L 99.895534 246.175066 
L 103.444898 249.412218 
L 103.744012 249.660477 
L 107.265306 252.556735 
L 108.115842 253.145889 
L 111.085714 255.294157 
L 113.405337 256.6313 
L 114.906122 257.587725 
L 118.726531 259.513369 
L 120.501562 260.116711 
z
M 114.891205 253.145889 
L 111.085714 251.01111 
L 109.229738 249.660477 
L 107.265306 248.232868 
L 104.826679 246.175066 
L 103.444898 244.919178 
L 101.175548 242.689655 
L 99.62449 240.951381 
L 98.100606 239.204244 
L 95.804082 236.034139 
L 95.558307 235.718833 
L 93.508355 232.233422 
L 92.052935 228.748011 
L 91.983673 228.440255 
L 91.172956 225.262599 
L 91.531185 221.777188 
L 91.983673 221.061018 
L 95.804082 218.881419 
L 99.62449 218.850173 
L 103.444898 219.968838 
L 107.265306 221.73753 
L 107.329653 221.777188 
L 111.085714 223.933731 
L 112.949689 225.262599 
L 114.906122 226.689892 
L 117.284553 228.748011 
L 118.726531 230.012901 
L 121.007917 232.233422 
L 122.546939 234.002613 
L 124.080592 235.718833 
L 126.367347 238.798614 
L 126.674106 239.204244 
L 128.728978 242.689655 
L 130.167983 246.175066 
L 130.187755 246.271076 
L 130.97935 249.660477 
L 130.520054 253.145889 
L 130.187755 253.698009 
L 126.367347 256.081806 
L 122.546939 256.035429 
L 118.726531 254.987926 
L 114.906122 253.155072 
z
" clip-path="url(#p612618597e)" style="fill: #9dcae1"/>
   </g>
   <g id="PathCollection_13">
    <path d="M 114.906122 253.155072 
L 118.726531 254.987926 
L 122.546939 256.035429 
L 126.367347 256.081806 
L 130.187755 253.698009 
L 130.520054 253.145889 
L 130.97935 249.660477 
L 130.187755 246.271076 
L 130.167983 246.175066 
L 128.728978 242.689655 
L 126.674106 239.204244 
L 126.367347 238.798614 
L 124.080592 235.718833 
L 122.546939 234.002613 
L 121.007917 232.233422 
L 118.726531 230.012901 
L 117.284553 228.748011 
L 114.906122 226.689892 
L 112.949689 225.262599 
L 111.085714 223.933731 
L 107.329653 221.777188 
L 107.265306 221.73753 
L 103.444898 219.968838 
L 99.62449 218.850173 
L 95.804082 218.881419 
L 91.983673 221.061018 
L 91.531185 221.777188 
L 91.172956 225.262599 
L 91.983673 228.440255 
L 92.052935 228.748011 
L 93.508355 232.233422 
L 95.558307 235.718833 
L 95.804082 236.034139 
L 98.100606 239.204244 
L 99.62449 240.951381 
L 101.175548 242.689655 
L 103.444898 244.919178 
L 104.826679 246.175066 
L 107.265306 248.232868 
L 109.229738 249.660477 
L 111.085714 251.01111 
L 114.891205 253.145889 
z
M 115.905319 249.660477 
L 114.906122 249.316203 
L 111.085714 247.164472 
L 109.726163 246.175066 
L 107.265306 244.282032 
L 105.513465 242.689655 
L 103.444898 240.636121 
L 102.151473 239.204244 
L 99.62449 235.775941 
L 99.582422 235.718833 
L 97.757266 232.233422 
L 96.845807 228.748011 
L 97.885087 225.262599 
L 99.62449 224.217003 
L 103.444898 224.248606 
L 106.21806 225.262599 
L 107.265306 225.641898 
L 111.085714 227.721057 
L 112.472355 228.748011 
L 114.906122 230.644651 
L 116.715524 232.233422 
L 118.726531 234.272246 
L 119.997158 235.718833 
L 122.546939 239.110495 
L 122.618262 239.204244 
L 124.42885 242.689655 
L 125.313829 246.175066 
L 124.310734 249.660477 
L 122.546939 250.783352 
L 118.726531 250.68163 
z
" clip-path="url(#p612618597e)" style="fill: #4191c6"/>
   </g>
   <g id="PathCollection_14">
    <path d="M 118.726531 250.68163 
L 122.546939 250.783352 
L 124.310734 249.660477 
L 125.313829 246.175066 
L 124.42885 242.689655 
L 122.618262 239.204244 
L 122.546939 239.110495 
L 119.997158 235.718833 
L 118.726531 234.272246 
L 116.715524 232.233422 
L 114.906122 230.644651 
L 112.472355 228.748011 
L 111.085714 227.721057 
L 107.265306 225.641898 
L 106.21806 225.262599 
L 103.444898 224.248606 
L 99.62449 224.217003 
L 97.885087 225.262599 
L 96.845807 228.748011 
L 97.757266 232.233422 
L 99.582422 235.718833 
L 99.62449 235.775941 
L 102.151473 239.204244 
L 103.444898 240.636121 
L 105.513465 242.689655 
L 107.265306 244.282032 
L 109.726163 246.175066 
L 111.085714 247.164472 
L 114.906122 249.316203 
L 115.905319 249.660477 
z
M 110.990393 242.689655 
L 107.265306 239.626186 
L 106.844988 239.204244 
L 104.309684 235.718833 
L 103.444898 233.305227 
L 103.111337 232.233422 
L 103.444898 231.406856 
L 107.265306 230.456292 
L 111.085714 232.012179 
L 111.376823 232.233422 
L 114.906122 235.217026 
L 115.396022 235.718833 
L 117.697304 239.204244 
L 118.726531 241.809891 
L 119.04143 242.689655 
L 118.726531 243.406097 
L 114.906122 244.527977 
L 111.085714 242.761155 
z
" clip-path="url(#p612618597e)" style="fill: #08509b"/>
   </g>
   <g id="PathCollection_15">
    <path d="M 111.085714 242.761155 
L 114.906122 244.527977 
L 118.726531 243.406097 
L 119.04143 242.689655 
L 118.726531 241.809891 
L 117.697304 239.204244 
L 115.396022 235.718833 
L 114.906122 235.217026 
L 111.376823 232.233422 
L 111.085714 232.012179 
L 107.265306 230.456292 
L 103.444898 231.406856 
L 103.111337 232.233422 
L 103.444898 233.305227 
L 104.309684 235.718833 
L 106.844988 239.204244 
L 107.265306 239.626186 
L 110.990393 242.689655 
z
" clip-path="url(#p612618597e)" style="fill: #08306b"/>
   </g>
   <g id="matplotlib.axis_5">
    <g id="xtick_7">
     <g id="line2d_17">
      <g>
       <use xlink:href="#ma81f458745" x="69.119109" y="288" style="stroke: #000000; stroke-width: 0.8"/>
      </g>
     </g>
     <g id="text_17">
      <!-- −2.5 -->
      <g transform="translate(56.977703 302.598437) scale(0.1 -0.1)">
       <use xlink:href="#DejaVuSans-2212"/>
       <use xlink:href="#DejaVuSans-32" x="83.789062"/>
       <use xlink:href="#DejaVuSans-2e" x="147.412109"/>
       <use xlink:href="#DejaVuSans-35" x="179.199219"/>
      </g>
     </g>
    </g>
    <g id="xtick_8">
     <g id="line2d_18">
      <g>
       <use xlink:href="#ma81f458745" x="111.085714" y="288" style="stroke: #000000; stroke-width: 0.8"/>
      </g>
     </g>
     <g id="text_18">
      <!-- 0.0 -->
      <g transform="translate(103.134152 302.598437) scale(0.1 -0.1)">
       <use xlink:href="#DejaVuSans-30"/>
       <use xlink:href="#DejaVuSans-2e" x="63.623047"/>
       <use xlink:href="#DejaVuSans-30" x="95.410156"/>
      </g>
     </g>
    </g>
    <g id="xtick_9">
     <g id="line2d_19">
      <g>
       <use xlink:href="#ma81f458745" x="153.052319" y="288" style="stroke: #000000; stroke-width: 0.8"/>
      </g>
     </g>
     <g id="text_19">
      <!-- 2.5 -->
      <g transform="translate(145.100757 302.598437) scale(0.1 -0.1)">
       <use xlink:href="#DejaVuSans-32"/>
       <use xlink:href="#DejaVuSans-2e" x="63.623047"/>
       <use xlink:href="#DejaVuSans-35" x="95.410156"/>
      </g>
     </g>
    </g>
    <g id="text_20">
     <!-- Probit variable 1 -->
     <g transform="translate(70.101339 316.276562) scale(0.1 -0.1)">
      <use xlink:href="#DejaVuSans-50"/>
      <use xlink:href="#DejaVuSans-72" x="58.552734"/>
      <use xlink:href="#DejaVuSans-6f" x="97.416016"/>
      <use xlink:href="#DejaVuSans-62" x="158.597656"/>
      <use xlink:href="#DejaVuSans-69" x="222.074219"/>
      <use xlink:href="#DejaVuSans-74" x="249.857422"/>
      <use xlink:href="#DejaVuSans-20" x="289.066406"/>
      <use xlink:href="#DejaVuSans-76" x="320.853516"/>
      <use xlink:href="#DejaVuSans-61" x="380.033203"/>
      <use xlink:href="#DejaVuSans-72" x="441.3125"/>
      <use xlink:href="#DejaVuSans-69" x="482.425781"/>
      <use xlink:href="#DejaVuSans-61" x="510.208984"/>
      <use xlink:href="#DejaVuSans-62" x="571.488281"/>
      <use xlink:href="#DejaVuSans-6c" x="634.964844"/>
      <use xlink:href="#DejaVuSans-65" x="662.748047"/>
      <use xlink:href="#DejaVuSans-20" x="724.271484"/>
      <use xlink:href="#DejaVuSans-31" x="756.058594"/>
     </g>
    </g>
   </g>
   <g id="matplotlib.axis_6">
    <g id="ytick_11">
     <g id="line2d_20">
      <g>
       <use xlink:href="#m326e6451e3" x="57.6" y="269.147094" style="stroke: #000000; stroke-width: 0.8"/>
      </g>
     </g>
     <g id="text_21">
      <!-- −2 -->
      <g transform="translate(35.857813 272.946313) scale(0.1 -0.1)">
       <use xlink:href="#DejaVuSans-2212"/>
       <use xlink:href="#DejaVuSans-32" x="83.789062"/>
      </g>
     </g>
    </g>
    <g id="ytick_12">
     <g id="line2d_21">
      <g>
       <use xlink:href="#m326e6451e3" x="57.6" y="237.461538" style="stroke: #000000; stroke-width: 0.8"/>
      </g>
     </g>
     <g id="text_22">
      <!-- 0 -->
      <g transform="translate(44.2375 241.260757) scale(0.1 -0.1)">
       <use xlink:href="#DejaVuSans-30"/>
      </g>
     </g>
    </g>
    <g id="ytick_13">
     <g id="line2d_22">
      <g>
       <use xlink:href="#m326e6451e3" x="57.6" y="205.775983" style="stroke: #000000; stroke-width: 0.8"/>
      </g>
     </g>
     <g id="text_23">
      <!-- 2 -->
      <g transform="translate(44.2375 209.575201) scale(0.1 -0.1)">
       <use xlink:href="#DejaVuSans-32"/>
      </g>
     </g>
    </g>
    <g id="text_24">
     <!-- Probit variable 2 -->
     <g transform="translate(29.778125 278.445913) rotate(-90) scale(0.1 -0.1)">
      <use xlink:href="#DejaVuSans-50"/>
      <use xlink:href="#DejaVuSans-72" x="58.552734"/>
      <use xlink:href="#DejaVuSans-6f" x="97.416016"/>
      <use xlink:href="#DejaVuSans-62" x="158.597656"/>
      <use xlink:href="#DejaVuSans-69" x="222.074219"/>
      <use xlink:href="#DejaVuSans-74" x="249.857422"/>
      <use xlink:href="#DejaVuSans-20" x="289.066406"/>
      <use xlink:href="#DejaVuSans-76" x="320.853516"/>
      <use xlink:href="#DejaVuSans-61" x="380.033203"/>
      <use xlink:href="#DejaVuSans-72" x="441.3125"/>
      <use xlink:href="#DejaVuSans-69" x="482.425781"/>
      <use xlink:href="#DejaVuSans-61" x="510.208984"/>
      <use xlink:href="#DejaVuSans-62" x="571.488281"/>
      <use xlink:href="#DejaVuSans-6c" x="634.964844"/>
      <use xlink:href="#DejaVuSans-65" x="662.748047"/>
      <use xlink:href="#DejaVuSans-20" x="724.271484"/>
      <use xlink:href="#DejaVuSans-32" x="756.058594"/>
     </g>
    </g>
   </g>
   <g id="patch_13">
    <path d="M 57.6 288 
L 57.6 186.923077 
" style="fill: none; stroke: #000000; stroke-width: 0.8; stroke-linejoin: miter; stroke-linecap: square"/>
   </g>
   <g id="patch_14">
    <path d="M 164.571429 288 
L 164.571429 186.923077 
" style="fill: none; stroke: #000000; stroke-width: 0.8; stroke-linejoin: miter; stroke-linecap: square"/>
   </g>
   <g id="patch_15">
    <path d="M 57.6 288 
L 164.571429 288 
" style="fill: none; stroke: #000000; stroke-width: 0.8; stroke-linejoin: miter; stroke-linecap: square"/>
   </g>
   <g id="patch_16">
    <path d="M 57.6 186.923077 
L 164.571429 186.923077 
" style="fill: none; stroke: #000000; stroke-width: 0.8; stroke-linejoin: miter; stroke-linecap: square"/>
   </g>
   <g id="text_25">
    <!-- True PDF -->
    <g transform="translate(84.749464 180.923077) scale(0.12 -0.12)">
     <use xlink:href="#DejaVuSans-54"/>
     <use xlink:href="#DejaVuSans-72" x="46.333984"/>
     <use xlink:href="#DejaVuSans-75" x="87.447266"/>
     <use xlink:href="#DejaVuSans-65" x="150.826172"/>
     <use xlink:href="#DejaVuSans-20" x="212.349609"/>
     <use xlink:href="#DejaVuSans-50" x="244.136719"/>
     <use xlink:href="#DejaVuSans-44" x="304.439453"/>
     <use xlink:href="#DejaVuSans-46" x="381.441406"/>
    </g>
   </g>
  </g>
  <g id="axes_4">
   <g id="patch_17">
    <path d="M 175.268571 288 
L 282.24 288 
L 282.24 186.923077 
L 175.268571 186.923077 
z
" style="fill: #ffffff"/>
   </g>
   <g id="PathCollection_16">
    <path d="M 247.856327 270.986278 
L 251.676735 271.17748 
L 255.497143 271.26124 
L 259.317551 271.056071 
L 260.062997 270.572944 
L 263.137959 267.534718 
L 263.508027 267.087533 
L 264.852245 263.602122 
L 264.747607 260.116711 
L 264.510601 256.6313 
L 263.590614 253.145889 
L 263.137959 252.341563 
L 261.927437 249.660477 
L 260.116473 246.175066 
L 259.317551 245.116711 
L 257.957896 242.689655 
L 255.612362 239.204244 
L 255.497143 239.080924 
L 252.995283 235.718833 
L 251.676735 234.072609 
L 250.223836 232.233422 
L 247.856327 229.908255 
L 246.79534 228.748011 
L 244.035918 226.026352 
L 243.271837 225.262599 
L 240.21551 222.279813 
L 239.632169 221.777188 
L 236.395102 219.095798 
L 235.326861 218.291777 
L 232.574694 215.954764 
L 230.562717 214.806366 
L 228.754286 213.561961 
L 225.190856 211.320955 
L 224.933878 211.146102 
L 221.113469 208.643755 
L 219.175741 207.835544 
L 217.293061 206.864851 
L 213.472653 205.378866 
L 209.652245 204.500086 
L 208.871277 204.350133 
L 205.831837 203.403153 
L 202.011429 203.622489 
L 199.026735 204.350133 
L 198.19102 204.553448 
L 194.370612 207.272938 
L 193.981935 207.835544 
L 192.579796 211.320955 
L 192.517007 214.806366 
L 193.1184 218.291777 
L 194.370612 221.50908 
L 194.446347 221.777188 
L 195.837286 225.262599 
L 197.399291 228.748011 
L 198.19102 229.837742 
L 199.527199 232.233422 
L 202.011429 235.366034 
L 202.208392 235.718833 
L 204.577721 239.204244 
L 205.831837 240.616718 
L 207.404654 242.689655 
L 209.652245 245.021843 
L 210.700984 246.175066 
L 213.472653 248.978549 
L 214.165523 249.660477 
L 217.293061 252.481794 
L 218.033901 253.145889 
L 221.113469 255.849207 
L 222.21528 256.6313 
L 224.933878 258.866295 
L 226.754485 260.116711 
L 228.754286 261.570268 
L 232.203265 263.602122 
L 232.574694 263.847327 
L 236.395102 265.994401 
L 238.788611 267.087533 
L 240.21551 267.971721 
L 244.035918 269.341859 
L 246.929408 270.572944 
z
M 238.632914 260.116711 
L 236.395102 259.195567 
L 232.574694 257.130868 
L 231.799122 256.6313 
L 228.754286 254.832378 
L 226.545395 253.145889 
L 224.933878 252.005066 
L 222.018432 249.660477 
L 221.113469 248.897399 
L 218.055289 246.175066 
L 217.293061 245.456132 
L 214.447981 242.689655 
L 213.472653 241.370851 
L 211.823772 239.204244 
L 209.652245 236.458606 
L 208.986568 235.718833 
L 206.947073 232.233422 
L 205.831837 229.946652 
L 205.023012 228.748011 
L 203.580009 225.262599 
L 202.948352 221.777188 
L 202.548372 218.291777 
L 204.878052 214.806366 
L 205.831837 213.958437 
L 209.652245 212.821477 
L 213.472653 213.29365 
L 217.293061 214.259578 
L 218.481774 214.806366 
L 221.113469 215.704288 
L 224.933878 217.492256 
L 226.070234 218.291777 
L 228.754286 220.248007 
L 230.954667 221.777188 
L 232.574694 222.81565 
L 235.606373 225.262599 
L 236.395102 225.977556 
L 239.350377 228.748011 
L 240.21551 229.56008 
L 242.771718 232.233422 
L 244.035918 233.660919 
L 245.862511 235.718833 
L 247.856327 238.465809 
L 248.475317 239.204244 
L 250.75491 242.689655 
L 251.676735 244.792686 
L 252.468866 246.175066 
L 253.812493 249.660477 
L 254.681812 253.145889 
L 254.72812 256.6313 
L 253.266851 260.116711 
L 251.676735 261.359195 
L 247.856327 262.108374 
L 244.035918 261.94628 
L 240.21551 260.898998 
z
" clip-path="url(#p870b0d4eed)" style="fill: #deebf7"/>
   </g>
   <g id="PathCollection_17">
    <path d="M 240.21551 260.898998 
L 244.035918 261.94628 
L 247.856327 262.108374 
L 251.676735 261.359195 
L 253.266851 260.116711 
L 254.72812 256.6313 
L 254.681812 253.145889 
L 253.812493 249.660477 
L 252.468866 246.175066 
L 251.676735 244.792686 
L 250.75491 242.689655 
L 248.475317 239.204244 
L 247.856327 238.465809 
L 245.862511 235.718833 
L 244.035918 233.660919 
L 242.771718 232.233422 
L 240.21551 229.56008 
L 239.350377 228.748011 
L 236.395102 225.977556 
L 235.606373 225.262599 
L 232.574694 222.81565 
L 230.954667 221.777188 
L 228.754286 220.248007 
L 226.070234 218.291777 
L 224.933878 217.492256 
L 221.113469 215.704288 
L 218.481774 214.806366 
L 217.293061 214.259578 
L 213.472653 213.29365 
L 209.652245 212.821477 
L 205.831837 213.958437 
L 204.878052 214.806366 
L 202.548372 218.291777 
L 202.948352 221.777188 
L 203.580009 225.262599 
L 205.023012 228.748011 
L 205.831837 229.946652 
L 206.947073 232.233422 
L 208.986568 235.718833 
L 209.652245 236.458606 
L 211.823772 239.204244 
L 213.472653 241.370851 
L 214.447981 242.689655 
L 217.293061 245.456132 
L 218.055289 246.175066 
L 221.113469 248.897399 
L 222.018432 249.660477 
L 224.933878 252.005066 
L 226.545395 253.145889 
L 228.754286 254.832378 
L 231.799122 256.6313 
L 232.574694 257.130868 
L 236.395102 259.195567 
L 238.632914 260.116711 
z
M 232.678928 253.145889 
L 232.574694 253.100928 
L 228.754286 250.578518 
L 227.498327 249.660477 
L 224.933878 247.828206 
L 223.000731 246.175066 
L 221.113469 244.478976 
L 219.205177 242.689655 
L 217.293061 240.455417 
L 216.280554 239.204244 
L 213.472653 235.865044 
L 213.347815 235.718833 
L 211.393076 232.233422 
L 209.811675 228.748011 
L 209.652245 227.581406 
L 209.239713 225.262599 
L 209.549886 221.777188 
L 209.652245 221.594312 
L 213.472653 218.759046 
L 217.293061 218.963772 
L 221.113469 220.310043 
L 224.276865 221.777188 
L 224.933878 222.079618 
L 228.754286 224.366303 
L 230.061714 225.262599 
L 232.574694 227.048399 
L 234.446922 228.748011 
L 236.395102 230.49412 
L 238.260586 232.233422 
L 240.21551 234.597497 
L 241.225275 235.718833 
L 244.035918 239.138938 
L 244.086408 239.204244 
L 246.208508 242.689655 
L 247.293889 246.175066 
L 247.856327 247.664087 
L 248.628945 249.660477 
L 248.228027 253.145889 
L 247.856327 253.769791 
L 244.035918 255.9307 
L 240.21551 255.716251 
L 236.395102 254.690774 
z
" clip-path="url(#p870b0d4eed)" style="fill: #9dcae1"/>
   </g>
   <g id="PathCollection_18">
    <path d="M 236.395102 254.690774 
L 240.21551 255.716251 
L 244.035918 255.9307 
L 247.856327 253.769791 
L 248.228027 253.145889 
L 248.628945 249.660477 
L 247.856327 247.664087 
L 247.293889 246.175066 
L 246.208508 242.689655 
L 244.086408 239.204244 
L 244.035918 239.138938 
L 241.225275 235.718833 
L 240.21551 234.597497 
L 238.260586 232.233422 
L 236.395102 230.49412 
L 234.446922 228.748011 
L 232.574694 227.048399 
L 230.061714 225.262599 
L 228.754286 224.366303 
L 224.933878 222.079618 
L 224.276865 221.777188 
L 221.113469 220.310043 
L 217.293061 218.963772 
L 213.472653 218.759046 
L 209.652245 221.594312 
L 209.549886 221.777188 
L 209.239713 225.262599 
L 209.652245 227.581406 
L 209.811675 228.748011 
L 211.393076 232.233422 
L 213.347815 235.718833 
L 213.472653 235.865044 
L 216.280554 239.204244 
L 217.293061 240.455417 
L 219.205177 242.689655 
L 221.113469 244.478976 
L 223.000731 246.175066 
L 224.933878 247.828206 
L 227.498327 249.660477 
L 228.754286 250.578518 
L 232.574694 253.100928 
L 232.678928 253.145889 
z
M 235.085248 249.660477 
L 232.574694 248.821857 
L 228.754286 246.895035 
L 227.765346 246.175066 
L 224.933878 243.866293 
L 223.624759 242.689655 
L 221.113469 240.376991 
L 220.067696 239.204244 
L 217.678312 235.718833 
L 217.293061 234.867194 
L 215.864152 232.233422 
L 214.656688 228.748011 
L 215.758747 225.262599 
L 217.293061 224.189982 
L 221.113469 224.477564 
L 222.77552 225.262599 
L 224.933878 226.168677 
L 228.754286 228.028824 
L 229.746399 228.748011 
L 232.574694 231.082561 
L 233.860389 232.233422 
L 236.395102 234.702585 
L 237.256798 235.718833 
L 239.839701 239.204244 
L 240.21551 239.88291 
L 241.7682 242.689655 
L 242.499878 246.175066 
L 241.831997 249.660477 
L 240.21551 250.623682 
L 236.395102 250.198576 
z
" clip-path="url(#p870b0d4eed)" style="fill: #4191c6"/>
   </g>
   <g id="PathCollection_19">
    <path d="M 236.395102 250.198576 
L 240.21551 250.623682 
L 241.831997 249.660477 
L 242.499878 246.175066 
L 241.7682 242.689655 
L 240.21551 239.88291 
L 239.839701 239.204244 
L 237.256798 235.718833 
L 236.395102 234.702585 
L 233.860389 232.233422 
L 232.574694 231.082561 
L 229.746399 228.748011 
L 228.754286 228.028824 
L 224.933878 226.168677 
L 222.77552 225.262599 
L 221.113469 224.477564 
L 217.293061 224.189982 
L 215.758747 225.262599 
L 214.656688 228.748011 
L 215.864152 232.233422 
L 217.293061 234.867194 
L 217.678312 235.718833 
L 220.067696 239.204244 
L 221.113469 240.376991 
L 223.624759 242.689655 
L 224.933878 243.866293 
L 227.765346 246.175066 
L 228.754286 246.895035 
L 232.574694 248.821857 
L 235.085248 249.660477 
z
M 229.901432 242.689655 
L 228.754286 242.114318 
L 225.398842 239.204244 
L 224.933878 238.684083 
L 222.165242 235.718833 
L 221.159132 232.233422 
L 224.933878 230.749504 
L 227.813699 232.233422 
L 228.754286 232.729587 
L 232.377919 235.718833 
L 232.574694 235.952961 
L 234.961638 239.204244 
L 236.36605 242.689655 
L 232.574694 244.217266 
z
" clip-path="url(#p870b0d4eed)" style="fill: #08509b"/>
   </g>
   <g id="PathCollection_20">
    <path d="M 232.574694 244.217266 
L 236.36605 242.689655 
L 234.961638 239.204244 
L 232.574694 235.952961 
L 232.377919 235.718833 
L 228.754286 232.729587 
L 227.813699 232.233422 
L 224.933878 230.749504 
L 221.159132 232.233422 
L 222.165242 235.718833 
L 224.933878 238.684083 
L 225.398842 239.204244 
L 228.754286 242.114318 
L 229.901432 242.689655 
z
" clip-path="url(#p870b0d4eed)" style="fill: #08306b"/>
   </g>
   <g id="matplotlib.axis_7">
    <g id="xtick_10">
     <g id="line2d_23">
      <g>
       <use xlink:href="#ma81f458745" x="186.787681" y="288" style="stroke: #000000; stroke-width: 0.8"/>
      </g>
     </g>
     <g id="text_26">
      <!-- −2.5 -->
      <g transform="translate(174.646275 302.598437) scale(0.1 -0.1)">
       <use xlink:href="#DejaVuSans-2212"/>
       <use xlink:href="#DejaVuSans-32" x="83.789062"/>
       <use xlink:href="#DejaVuSans-2e" x="147.412109"/>
       <use xlink:href="#DejaVuSans-35" x="179.199219"/>
      </g>
     </g>
    </g>
    <g id="xtick_11">
     <g id="line2d_24">
      <g>
       <use xlink:href="#ma81f458745" x="228.754286" y="288" style="stroke: #000000; stroke-width: 0.8"/>
      </g>
     </g>
     <g id="text_27">
      <!-- 0.0 -->
      <g transform="translate(220.802723 302.598437) scale(0.1 -0.1)">
       <use xlink:href="#DejaVuSans-30"/>
       <use xlink:href="#DejaVuSans-2e" x="63.623047"/>
       <use xlink:href="#DejaVuSans-30" x="95.410156"/>
      </g>
     </g>
    </g>
    <g id="xtick_12">
     <g id="line2d_25">
      <g>
       <use xlink:href="#ma81f458745" x="270.720891" y="288" style="stroke: #000000; stroke-width: 0.8"/>
      </g>
     </g>
     <g id="text_28">
      <!-- 2.5 -->
      <g transform="translate(262.769328 302.598437) scale(0.1 -0.1)">
       <use xlink:href="#DejaVuSans-32"/>
       <use xlink:href="#DejaVuSans-2e" x="63.623047"/>
       <use xlink:href="#DejaVuSans-35" x="95.410156"/>
      </g>
     </g>
    </g>
    <g id="text_29">
     <!-- Probit variable 1 -->
     <g transform="translate(187.769911 316.276562) scale(0.1 -0.1)">
      <use xlink:href="#DejaVuSans-50"/>
      <use xlink:href="#DejaVuSans-72" x="58.552734"/>
      <use xlink:href="#DejaVuSans-6f" x="97.416016"/>
      <use xlink:href="#DejaVuSans-62" x="158.597656"/>
      <use xlink:href="#DejaVuSans-69" x="222.074219"/>
      <use xlink:href="#DejaVuSans-74" x="249.857422"/>
      <use xlink:href="#DejaVuSans-20" x="289.066406"/>
      <use xlink:href="#DejaVuSans-76" x="320.853516"/>
      <use xlink:href="#DejaVuSans-61" x="380.033203"/>
      <use xlink:href="#DejaVuSans-72" x="441.3125"/>
      <use xlink:href="#DejaVuSans-69" x="482.425781"/>
      <use xlink:href="#DejaVuSans-61" x="510.208984"/>
      <use xlink:href="#DejaVuSans-62" x="571.488281"/>
      <use xlink:href="#DejaVuSans-6c" x="634.964844"/>
      <use xlink:href="#DejaVuSans-65" x="662.748047"/>
      <use xlink:href="#DejaVuSans-20" x="724.271484"/>
      <use xlink:href="#DejaVuSans-31" x="756.058594"/>
     </g>
    </g>
   </g>
   <g id="matplotlib.axis_8">
    <g id="ytick_14">
     <g id="line2d_26">
      <g>
       <use xlink:href="#m326e6451e3" x="175.268571" y="269.147094" style="stroke: #000000; stroke-width: 0.8"/>
      </g>
     </g>
    </g>
    <g id="ytick_15">
     <g id="line2d_27">
      <g>
       <use xlink:href="#m326e6451e3" x="175.268571" y="237.461538" style="stroke: #000000; stroke-width: 0.8"/>
      </g>
     </g>
    </g>
    <g id="ytick_16">
     <g id="line2d_28">
      <g>
       <use xlink:href="#m326e6451e3" x="175.268571" y="205.775983" style="stroke: #000000; stroke-width: 0.8"/>
      </g>
     </g>
    </g>
   </g>
   <g id="patch_18">
    <path d="M 175.268571 288 
L 175.268571 186.923077 
" style="fill: none; stroke: #000000; stroke-width: 0.8; stroke-linejoin: miter; stroke-linecap: square"/>
   </g>
   <g id="patch_19">
    <path d="M 282.24 288 
L 282.24 186.923077 
" style="fill: none; stroke: #000000; stroke-width: 0.8; stroke-linejoin: miter; stroke-linecap: square"/>
   </g>
   <g id="patch_20">
    <path d="M 175.268571 288 
L 282.24 288 
" style="fill: none; stroke: #000000; stroke-width: 0.8; stroke-linejoin: miter; stroke-linecap: square"/>
   </g>
   <g id="patch_21">
    <path d="M 175.268571 186.923077 
L 282.24 186.923077 
" style="fill: none; stroke: #000000; stroke-width: 0.8; stroke-linejoin: miter; stroke-linecap: square"/>
   </g>
   <g id="text_30">
    <!-- Virt Mems' PDF -->
    <g transform="translate(183.308973 180.923077) scale(0.12 -0.12)">
     <use xlink:href="#DejaVuSans-56"/>
     <use xlink:href="#DejaVuSans-69" x="66.158203"/>
     <use xlink:href="#DejaVuSans-72" x="93.941406"/>
     <use xlink:href="#DejaVuSans-74" x="135.054688"/>
     <use xlink:href="#DejaVuSans-20" x="174.263672"/>
     <use xlink:href="#DejaVuSans-4d" x="206.050781"/>
     <use xlink:href="#DejaVuSans-65" x="292.330078"/>
     <use xlink:href="#DejaVuSans-6d" x="353.853516"/>
     <use xlink:href="#DejaVuSans-73" x="451.265625"/>
     <use xlink:href="#DejaVuSans-27" x="503.365234"/>
     <use xlink:href="#DejaVuSans-20" x="530.855469"/>
     <use xlink:href="#DejaVuSans-50" x="562.642578"/>
     <use xlink:href="#DejaVuSans-44" x="622.945312"/>
     <use xlink:href="#DejaVuSans-46" x="699.947266"/>
    </g>
   </g>
  </g>
 </g>
 <defs>
  <clipPath id="pbb2506de02">
   <rect x="57.6" y="25.2" width="106.971429" height="101.076923"/>
  </clipPath>
  <clipPath id="p866bba652e">
   <rect x="175.268571" y="25.2" width="106.971429" height="101.076923"/>
  </clipPath>
  <clipPath id="p612618597e">
   <rect x="57.6" y="186.923077" width="106.971429" height="101.076923"/>
  </clipPath>
  <clipPath id="p870b0d4eed">
   <rect x="175.268571" y="186.923077" width="106.971429" height="101.076923"/>
  </clipPath>
 </defs>
</svg>
