<?xml version="1.0" encoding="utf-8" standalone="no"?>
<!DOCTYPE svg PUBLIC "-//W3C//DTD SVG 1.1//EN"
  "http://www.w3.org/Graphics/SVG/1.1/DTD/svg11.dtd">
<svg xmlns:xlink="http://www.w3.org/1999/xlink" width="288pt" height="360pt" viewBox="0 0 288 360" xmlns="http://www.w3.org/2000/svg" version="1.1">
 <metadata>
  <rdf:RDF xmlns:dc="http://purl.org/dc/elements/1.1/" xmlns:cc="http://creativecommons.org/ns#" xmlns:rdf="http://www.w3.org/1999/02/22-rdf-syntax-ns#">
   <cc:Work>
    <dc:type rdf:resource="http://purl.org/dc/dcmitype/StillImage"/>
    <dc:date>2023-07-22T16:10:39.048564</dc:date>
    <dc:format>image/svg+xml</dc:format>
    <dc:creator>
     <cc:Agent>
      <dc:title>Matplotlib v3.7.1, https://matplotlib.org/</dc:title>
     </cc:Agent>
    </dc:creator>
   </cc:Work>
  </rdf:RDF>
 </metadata>
 <defs>
  <style type="text/css">*{stroke-linejoin: round; stroke-linecap: butt}</style>
 </defs>
 <g id="figure_1">
  <g id="patch_1">
   <path d="M 0 360 
L 288 360 
L 288 0 
L 0 0 
z
" style="fill: #ffffff"/>
  </g>
  <g id="axes_1">
   <g id="patch_2">
    <path d="M 57.6 126.276923 
L 164.571429 126.276923 
L 164.571429 25.2 
L 57.6 25.2 
z
" style="fill: #ffffff"/>
   </g>
   <g id="PathCollection_1">
    <path d="M 149.289796 123.827756 
L 151.682084 122.791512 
L 153.110204 122.05494 
L 154.95129 119.306101 
L 156.23187 115.82069 
L 156.70443 112.335279 
L 156.839212 108.849867 
L 156.732343 105.364456 
L 156.449142 101.879045 
L 155.980392 98.393634 
L 155.334321 94.908223 
L 154.133767 91.422812 
L 153.110204 89.363067 
L 152.73532 87.937401 
L 151.609478 84.451989 
L 149.607577 80.966578 
L 149.289796 80.470364 
L 147.915238 77.481167 
L 145.469388 74.088225 
L 145.403304 73.995756 
L 142.959695 70.510345 
L 141.64898 68.772316 
L 140.024219 67.024934 
L 137.828571 64.605224 
L 136.775201 63.539523 
L 134.008163 60.913315 
L 133.127889 60.054111 
L 130.187755 57.699171 
L 128.804236 56.5687 
L 126.367347 54.907383 
L 123.447535 53.083289 
L 122.546939 52.516542 
L 118.726531 50.290407 
L 117.133475 49.597878 
L 114.906122 48.324957 
L 111.085714 46.808219 
L 108.417121 46.112467 
L 107.265306 45.59561 
L 103.444898 44.195491 
L 99.62449 43.417395 
L 95.804082 42.85884 
L 93.224959 42.627056 
L 91.983673 42.376312 
L 88.163265 41.993159 
L 84.342857 41.948323 
L 80.522449 42.423564 
L 79.654391 42.627056 
L 76.702041 43.237108 
L 72.881633 45.104675 
L 71.58982 46.112467 
L 70.218692 49.597878 
L 71.183622 53.083289 
L 72.881633 55.056539 
L 73.942535 56.5687 
L 76.702041 58.905145 
L 78.219542 60.054111 
L 80.522449 61.634553 
L 84.342857 63.499255 
L 84.429633 63.539523 
L 88.163265 65.632494 
L 91.983673 66.83672 
L 92.686418 67.024934 
L 95.804082 68.40389 
L 99.62449 69.487187 
L 103.444898 70.130151 
L 106.561657 70.510345 
L 107.265306 70.702549 
L 111.085714 71.381495 
L 114.906122 71.648406 
L 118.726531 71.799603 
L 122.546939 72.451591 
L 124.373772 73.995756 
L 125.344639 77.481167 
L 125.50236 80.966578 
L 125.842164 84.451989 
L 126.367347 87.32595 
L 126.415324 87.937401 
L 126.806838 91.422812 
L 127.462175 94.908223 
L 128.456141 98.393634 
L 130.034698 101.879045 
L 130.187755 102.158744 
L 131.190626 105.364456 
L 132.906322 108.849867 
L 134.008163 110.476841 
L 135.00637 112.335279 
L 137.549391 115.82069 
L 137.828571 116.161539 
L 140.53239 119.306101 
L 141.64898 120.493514 
L 145.469388 122.780709 
L 145.53067 122.791512 
z
M 140.670772 112.335279 
L 137.897823 108.849867 
L 137.828571 108.761462 
L 135.570284 105.364456 
L 134.018294 101.879045 
L 134.008163 101.852194 
L 132.434233 98.393634 
L 131.412221 94.908223 
L 130.700002 91.422812 
L 130.29392 87.937401 
L 130.187755 85.995139 
L 130.055243 84.451989 
L 130.187755 82.605222 
L 130.298433 80.966578 
L 131.228284 77.481167 
L 133.416252 73.995756 
L 134.008163 73.414378 
L 137.828571 73.884813 
L 137.952853 73.995756 
L 141.64898 76.630867 
L 142.362916 77.481167 
L 145.010738 80.966578 
L 145.469388 81.617703 
L 147.25257 84.451989 
L 148.792179 87.937401 
L 149.289796 89.350459 
L 150.23009 91.422812 
L 151.384746 94.908223 
L 152.047112 98.393634 
L 152.428297 101.879045 
L 152.540098 105.364456 
L 152.241805 108.849867 
L 151.110375 112.335279 
L 149.289796 114.844953 
L 145.469388 115.555778 
L 141.64898 113.397472 
z
M 107.915705 67.024934 
L 107.265306 66.98308 
L 103.444898 66.529841 
L 99.62449 65.783756 
L 95.804082 64.61954 
L 93.295739 63.539523 
L 91.983673 63.068851 
L 88.163265 61.35165 
L 86.009379 60.054111 
L 84.342857 58.884849 
L 81.417835 56.5687 
L 80.522449 55.114093 
L 79.033717 53.083289 
L 79.299664 49.597878 
L 80.522449 48.570456 
L 84.342857 46.796751 
L 88.163265 46.264207 
L 91.983673 46.200032 
L 95.804082 46.492553 
L 99.62449 47.062472 
L 103.444898 47.931513 
L 107.265306 49.335302 
L 107.850963 49.597878 
L 111.085714 50.772805 
L 114.906122 52.787147 
L 115.406033 53.083289 
L 118.726531 55.326955 
L 120.351726 56.5687 
L 122.546939 59.30241 
L 123.286276 60.054111 
L 123.619936 63.539523 
L 122.546939 64.484518 
L 118.726531 66.514619 
L 116.08474 67.024934 
L 114.906122 67.209383 
L 111.085714 67.345026 
z
" clip-path="url(#pa0b2ffb5aa)" style="fill: #fee0d2"/>
   </g>
   <g id="PathCollection_2">
    <path d="M 141.64898 113.397472 
L 145.469388 115.555778 
L 149.289796 114.844953 
L 151.110375 112.335279 
L 152.241805 108.849867 
L 152.540098 105.364456 
L 152.428297 101.879045 
L 152.047112 98.393634 
L 151.384746 94.908223 
L 150.23009 91.422812 
L 149.289796 89.350459 
L 148.792179 87.937401 
L 147.25257 84.451989 
L 145.469388 81.617703 
L 145.010738 80.966578 
L 142.362916 77.481167 
L 141.64898 76.630867 
L 137.952853 73.995756 
L 137.828571 73.884813 
L 134.008163 73.414378 
L 133.416252 73.995756 
L 131.228284 77.481167 
L 130.298433 80.966578 
L 130.187755 82.605222 
L 130.055243 84.451989 
L 130.187755 85.995139 
L 130.29392 87.937401 
L 130.700002 91.422812 
L 131.412221 94.908223 
L 132.434233 98.393634 
L 134.008163 101.852194 
L 134.018294 101.879045 
L 135.570284 105.364456 
L 137.828571 108.761462 
L 137.897823 108.849867 
L 140.670772 112.335279 
z
M 141.629681 108.849867 
L 138.756741 105.364456 
L 137.828571 104.136548 
L 136.512685 101.879045 
L 135.052434 98.393634 
L 134.008163 94.997377 
L 133.976066 94.908223 
L 133.094683 91.422812 
L 132.783897 87.937401 
L 132.952939 84.451989 
L 133.980593 80.966578 
L 134.008163 80.912932 
L 137.828571 78.861044 
L 141.098454 80.966578 
L 141.64898 81.269328 
L 144.120599 84.451989 
L 145.469388 86.553741 
L 146.232723 87.937401 
L 147.706194 91.422812 
L 148.775636 94.908223 
L 149.289796 97.397476 
L 149.530807 98.393634 
L 149.797836 101.879045 
L 149.644081 105.364456 
L 149.289796 106.652772 
L 147.950307 108.849867 
L 145.469388 110.632645 
L 141.64898 108.87223 
z
" clip-path="url(#pa0b2ffb5aa)" style="fill: #fc9272"/>
    <path d="M 111.085714 67.345026 
L 114.906122 67.209383 
L 116.08474 67.024934 
L 118.726531 66.514619 
L 122.546939 64.484518 
L 123.619936 63.539523 
L 123.286276 60.054111 
L 122.546939 59.30241 
L 120.351726 56.5687 
L 118.726531 55.326955 
L 115.406033 53.083289 
L 114.906122 52.787147 
L 111.085714 50.772805 
L 107.850963 49.597878 
L 107.265306 49.335302 
L 103.444898 47.931513 
L 99.62449 47.062472 
L 95.804082 46.492553 
L 91.983673 46.200032 
L 88.163265 46.264207 
L 84.342857 46.796751 
L 80.522449 48.570456 
L 79.299664 49.597878 
L 79.033717 53.083289 
L 80.522449 55.114093 
L 81.417835 56.5687 
L 84.342857 58.884849 
L 86.009379 60.054111 
L 88.163265 61.35165 
L 91.983673 63.068851 
L 93.295739 63.539523 
L 95.804082 64.61954 
L 99.62449 65.783756 
L 103.444898 66.529841 
L 107.265306 66.98308 
L 107.915705 67.024934 
z
M 100.357631 63.539523 
L 99.62449 63.375839 
L 95.804082 62.16554 
L 91.983673 60.544821 
L 91.068021 60.054111 
L 88.163265 58.085618 
L 86.118263 56.5687 
L 84.342857 53.350954 
L 84.175453 53.083289 
L 84.342857 52.743177 
L 87.065579 49.597878 
L 88.163265 49.219678 
L 91.983673 48.701206 
L 95.804082 48.782911 
L 99.62449 49.429221 
L 100.226531 49.597878 
L 103.444898 50.368353 
L 107.265306 51.680184 
L 110.265515 53.083289 
L 111.085714 53.560584 
L 114.906122 56.100901 
L 115.542088 56.5687 
L 117.8437 60.054111 
L 115.795617 63.539523 
L 114.906122 63.913621 
L 111.085714 64.677552 
L 107.265306 64.713035 
L 103.444898 64.291408 
z
" clip-path="url(#pa0b2ffb5aa)" style="fill: #fc9272"/>
   </g>
   <g id="PathCollection_3">
    <path d="M 141.64898 108.87223 
L 145.469388 110.632645 
L 147.950307 108.849867 
L 149.289796 106.652772 
L 149.644081 105.364456 
L 149.797836 101.879045 
L 149.530807 98.393634 
L 149.289796 97.397476 
L 148.775636 94.908223 
L 147.706194 91.422812 
L 146.232723 87.937401 
L 145.469388 86.553741 
L 144.120599 84.451989 
L 141.64898 81.269328 
L 141.098454 80.966578 
L 137.828571 78.861044 
L 134.008163 80.912932 
L 133.980593 80.966578 
L 132.952939 84.451989 
L 132.783897 87.937401 
L 133.094683 91.422812 
L 133.976066 94.908223 
L 134.008163 94.997377 
L 135.052434 98.393634 
L 136.512685 101.879045 
L 137.828571 104.136548 
L 138.756741 105.364456 
L 141.629681 108.849867 
z
M 143.798608 105.364456 
L 141.64898 104.926728 
L 139.320777 101.879045 
L 137.828571 99.65459 
L 137.242127 98.393634 
L 136.145205 94.908223 
L 135.506807 91.422812 
L 135.539225 87.937401 
L 136.914567 84.451989 
L 137.828571 83.503423 
L 139.887533 84.451989 
L 141.64898 85.189307 
L 143.460856 87.937401 
L 145.469388 91.375138 
L 145.490946 91.422812 
L 146.627392 94.908223 
L 147.172389 98.393634 
L 147.044 101.879045 
L 145.796885 105.364456 
L 145.469388 105.776621 
z
" clip-path="url(#pa0b2ffb5aa)" style="fill: #ee3a2c"/>
    <path d="M 103.444898 64.291408 
L 107.265306 64.713035 
L 111.085714 64.677552 
L 114.906122 63.913621 
L 115.795617 63.539523 
L 117.8437 60.054111 
L 115.542088 56.5687 
L 114.906122 56.100901 
L 111.085714 53.560584 
L 110.265515 53.083289 
L 107.265306 51.680184 
L 103.444898 50.368353 
L 100.226531 49.597878 
L 99.62449 49.429221 
L 95.804082 48.782911 
L 91.983673 48.701206 
L 88.163265 49.219678 
L 87.065579 49.597878 
L 84.342857 52.743177 
L 84.175453 53.083289 
L 84.342857 53.350954 
L 86.118263 56.5687 
L 88.163265 58.085618 
L 91.068021 60.054111 
L 91.983673 60.544821 
L 95.804082 62.16554 
L 99.62449 63.375839 
L 100.357631 63.539523 
z
M 95.871489 60.054111 
L 95.804082 60.019139 
L 91.983673 57.657403 
L 90.414041 56.5687 
L 89.270605 53.083289 
L 91.983673 51.630134 
L 95.804082 51.120084 
L 99.62449 51.504663 
L 103.444898 52.390899 
L 105.261382 53.083289 
L 107.265306 54.138869 
L 111.085714 56.365963 
L 111.382839 56.5687 
L 112.995343 60.054111 
L 111.085714 61.444458 
L 107.265306 62.262819 
L 103.444898 62.089204 
L 99.62449 61.323811 
z
" clip-path="url(#pa0b2ffb5aa)" style="fill: #ee3a2c"/>
   </g>
   <g id="PathCollection_4">
    <path d="M 145.469388 105.776621 
L 145.796885 105.364456 
L 147.044 101.879045 
L 147.172389 98.393634 
L 146.627392 94.908223 
L 145.490946 91.422812 
L 145.469388 91.375138 
L 143.460856 87.937401 
L 141.64898 85.189307 
L 139.887533 84.451989 
L 137.828571 83.503423 
L 136.914567 84.451989 
L 135.539225 87.937401 
L 135.506807 91.422812 
L 136.145205 94.908223 
L 137.242127 98.393634 
L 137.828571 99.65459 
L 139.320777 101.879045 
L 141.64898 104.926728 
L 143.798608 105.364456 
z
M 140.491673 98.393634 
L 139.003826 94.908223 
L 138.332447 91.422812 
L 141.64898 89.930666 
L 142.47861 91.422812 
L 143.636802 94.908223 
L 143.706057 98.393634 
L 141.64898 100.302322 
z
" clip-path="url(#pa0b2ffb5aa)" style="fill: #a30f15"/>
    <path d="M 99.62449 61.323811 
L 103.444898 62.089204 
L 107.265306 62.262819 
L 111.085714 61.444458 
L 112.995343 60.054111 
L 111.382839 56.5687 
L 111.085714 56.365963 
L 107.265306 54.138869 
L 105.261382 53.083289 
L 103.444898 52.390899 
L 99.62449 51.504663 
L 95.804082 51.120084 
L 91.983673 51.630134 
L 89.270605 53.083289 
L 90.414041 56.5687 
L 91.983673 57.657403 
L 95.804082 60.019139 
L 95.871489 60.054111 
z
M 95.29956 56.5687 
L 95.804082 55.303045 
L 99.62449 54.211578 
L 103.444898 55.230989 
L 106.341377 56.5687 
L 103.444898 59.557082 
L 99.62449 58.51621 
L 95.804082 56.872291 
z
" clip-path="url(#pa0b2ffb5aa)" style="fill: #a30f15"/>
   </g>
   <g id="PathCollection_5">
    <path d="M 141.64898 100.302322 
L 143.706057 98.393634 
L 143.636802 94.908223 
L 142.47861 91.422812 
L 141.64898 89.930666 
L 138.332447 91.422812 
L 139.003826 94.908223 
L 140.491673 98.393634 
z
" clip-path="url(#pa0b2ffb5aa)" style="fill: #67000d"/>
    <path d="M 95.804082 56.872291 
L 99.62449 58.51621 
L 103.444898 59.557082 
L 106.341377 56.5687 
L 103.444898 55.230989 
L 99.62449 54.211578 
L 95.804082 55.303045 
L 95.29956 56.5687 
z
" clip-path="url(#pa0b2ffb5aa)" style="fill: #67000d"/>
   </g>
   <g id="matplotlib.axis_1">
    <g id="xtick_1">
     <g id="line2d_1">
      <defs>
       <path id="me8fce02d56" d="M 0 0 
L 0 3.5 
" style="stroke: #000000; stroke-width: 0.8"/>
      </defs>
      <g>
       <use xlink:href="#me8fce02d56" x="60.725788" y="126.276923" style="stroke: #000000; stroke-width: 0.8"/>
      </g>
     </g>
     <g id="text_1">
      <!-- −5 -->
      <g transform="translate(53.354695 140.875361) scale(0.1 -0.1)">
       <defs>
        <path id="DejaVuSans-2212" d="M 678 2272 
L 4684 2272 
L 4684 1741 
L 678 1741 
L 678 2272 
z
" transform="scale(0.015625)"/>
        <path id="DejaVuSans-35" d="M 691 4666 
L 3169 4666 
L 3169 4134 
L 1269 4134 
L 1269 2991 
Q 1406 3038 1543 3061 
Q 1681 3084 1819 3084 
Q 2600 3084 3056 2656 
Q 3513 2228 3513 1497 
Q 3513 744 3044 326 
Q 2575 -91 1722 -91 
Q 1428 -91 1123 -41 
Q 819 9 494 109 
L 494 744 
Q 775 591 1075 516 
Q 1375 441 1709 441 
Q 2250 441 2565 725 
Q 2881 1009 2881 1497 
Q 2881 1984 2565 2268 
Q 2250 2553 1709 2553 
Q 1456 2553 1204 2497 
Q 953 2441 691 2322 
L 691 4666 
z
" transform="scale(0.015625)"/>
       </defs>
       <use xlink:href="#DejaVuSans-2212"/>
       <use xlink:href="#DejaVuSans-35" x="83.789062"/>
      </g>
     </g>
    </g>
    <g id="xtick_2">
     <g id="line2d_2">
      <g>
       <use xlink:href="#me8fce02d56" x="111.085714" y="126.276923" style="stroke: #000000; stroke-width: 0.8"/>
      </g>
     </g>
     <g id="text_2">
      <!-- 0 -->
      <g transform="translate(107.904464 140.875361) scale(0.1 -0.1)">
       <defs>
        <path id="DejaVuSans-30" d="M 2034 4250 
Q 1547 4250 1301 3770 
Q 1056 3291 1056 2328 
Q 1056 1369 1301 889 
Q 1547 409 2034 409 
Q 2525 409 2770 889 
Q 3016 1369 3016 2328 
Q 3016 3291 2770 3770 
Q 2525 4250 2034 4250 
z
M 2034 4750 
Q 2819 4750 3233 4129 
Q 3647 3509 3647 2328 
Q 3647 1150 3233 529 
Q 2819 -91 2034 -91 
Q 1250 -91 836 529 
Q 422 1150 422 2328 
Q 422 3509 836 4129 
Q 1250 4750 2034 4750 
z
" transform="scale(0.015625)"/>
       </defs>
       <use xlink:href="#DejaVuSans-30"/>
      </g>
     </g>
    </g>
    <g id="xtick_3">
     <g id="line2d_3">
      <g>
       <use xlink:href="#me8fce02d56" x="161.44564" y="126.276923" style="stroke: #000000; stroke-width: 0.8"/>
      </g>
     </g>
     <g id="text_3">
      <!-- 5 -->
      <g transform="translate(158.26439 140.875361) scale(0.1 -0.1)">
       <use xlink:href="#DejaVuSans-35"/>
      </g>
     </g>
    </g>
    <g id="text_4">
     <!-- Model variable 1 -->
     <g transform="translate(69.541183 154.553486) scale(0.1 -0.1)">
      <defs>
       <path id="DejaVuSans-4d" d="M 628 4666 
L 1569 4666 
L 2759 1491 
L 3956 4666 
L 4897 4666 
L 4897 0 
L 4281 0 
L 4281 4097 
L 3078 897 
L 2444 897 
L 1241 4097 
L 1241 0 
L 628 0 
L 628 4666 
z
" transform="scale(0.015625)"/>
       <path id="DejaVuSans-6f" d="M 1959 3097 
Q 1497 3097 1228 2736 
Q 959 2375 959 1747 
Q 959 1119 1226 758 
Q 1494 397 1959 397 
Q 2419 397 2687 759 
Q 2956 1122 2956 1747 
Q 2956 2369 2687 2733 
Q 2419 3097 1959 3097 
z
M 1959 3584 
Q 2709 3584 3137 3096 
Q 3566 2609 3566 1747 
Q 3566 888 3137 398 
Q 2709 -91 1959 -91 
Q 1206 -91 779 398 
Q 353 888 353 1747 
Q 353 2609 779 3096 
Q 1206 3584 1959 3584 
z
" transform="scale(0.015625)"/>
       <path id="DejaVuSans-64" d="M 2906 2969 
L 2906 4863 
L 3481 4863 
L 3481 0 
L 2906 0 
L 2906 525 
Q 2725 213 2448 61 
Q 2172 -91 1784 -91 
Q 1150 -91 751 415 
Q 353 922 353 1747 
Q 353 2572 751 3078 
Q 1150 3584 1784 3584 
Q 2172 3584 2448 3432 
Q 2725 3281 2906 2969 
z
M 947 1747 
Q 947 1113 1208 752 
Q 1469 391 1925 391 
Q 2381 391 2643 752 
Q 2906 1113 2906 1747 
Q 2906 2381 2643 2742 
Q 2381 3103 1925 3103 
Q 1469 3103 1208 2742 
Q 947 2381 947 1747 
z
" transform="scale(0.015625)"/>
       <path id="DejaVuSans-65" d="M 3597 1894 
L 3597 1613 
L 953 1613 
Q 991 1019 1311 708 
Q 1631 397 2203 397 
Q 2534 397 2845 478 
Q 3156 559 3463 722 
L 3463 178 
Q 3153 47 2828 -22 
Q 2503 -91 2169 -91 
Q 1331 -91 842 396 
Q 353 884 353 1716 
Q 353 2575 817 3079 
Q 1281 3584 2069 3584 
Q 2775 3584 3186 3129 
Q 3597 2675 3597 1894 
z
M 3022 2063 
Q 3016 2534 2758 2815 
Q 2500 3097 2075 3097 
Q 1594 3097 1305 2825 
Q 1016 2553 972 2059 
L 3022 2063 
z
" transform="scale(0.015625)"/>
       <path id="DejaVuSans-6c" d="M 603 4863 
L 1178 4863 
L 1178 0 
L 603 0 
L 603 4863 
z
" transform="scale(0.015625)"/>
       <path id="DejaVuSans-20" transform="scale(0.015625)"/>
       <path id="DejaVuSans-76" d="M 191 3500 
L 800 3500 
L 1894 563 
L 2988 3500 
L 3597 3500 
L 2284 0 
L 1503 0 
L 191 3500 
z
" transform="scale(0.015625)"/>
       <path id="DejaVuSans-61" d="M 2194 1759 
Q 1497 1759 1228 1600 
Q 959 1441 959 1056 
Q 959 750 1161 570 
Q 1363 391 1709 391 
Q 2188 391 2477 730 
Q 2766 1069 2766 1631 
L 2766 1759 
L 2194 1759 
z
M 3341 1997 
L 3341 0 
L 2766 0 
L 2766 531 
Q 2569 213 2275 61 
Q 1981 -91 1556 -91 
Q 1019 -91 701 211 
Q 384 513 384 1019 
Q 384 1609 779 1909 
Q 1175 2209 1959 2209 
L 2766 2209 
L 2766 2266 
Q 2766 2663 2505 2880 
Q 2244 3097 1772 3097 
Q 1472 3097 1187 3025 
Q 903 2953 641 2809 
L 641 3341 
Q 956 3463 1253 3523 
Q 1550 3584 1831 3584 
Q 2591 3584 2966 3190 
Q 3341 2797 3341 1997 
z
" transform="scale(0.015625)"/>
       <path id="DejaVuSans-72" d="M 2631 2963 
Q 2534 3019 2420 3045 
Q 2306 3072 2169 3072 
Q 1681 3072 1420 2755 
Q 1159 2438 1159 1844 
L 1159 0 
L 581 0 
L 581 3500 
L 1159 3500 
L 1159 2956 
Q 1341 3275 1631 3429 
Q 1922 3584 2338 3584 
Q 2397 3584 2469 3576 
Q 2541 3569 2628 3553 
L 2631 2963 
z
" transform="scale(0.015625)"/>
       <path id="DejaVuSans-69" d="M 603 3500 
L 1178 3500 
L 1178 0 
L 603 0 
L 603 3500 
z
M 603 4863 
L 1178 4863 
L 1178 4134 
L 603 4134 
L 603 4863 
z
" transform="scale(0.015625)"/>
       <path id="DejaVuSans-62" d="M 3116 1747 
Q 3116 2381 2855 2742 
Q 2594 3103 2138 3103 
Q 1681 3103 1420 2742 
Q 1159 2381 1159 1747 
Q 1159 1113 1420 752 
Q 1681 391 2138 391 
Q 2594 391 2855 752 
Q 3116 1113 3116 1747 
z
M 1159 2969 
Q 1341 3281 1617 3432 
Q 1894 3584 2278 3584 
Q 2916 3584 3314 3078 
Q 3713 2572 3713 1747 
Q 3713 922 3314 415 
Q 2916 -91 2278 -91 
Q 1894 -91 1617 61 
Q 1341 213 1159 525 
L 1159 0 
L 581 0 
L 581 4863 
L 1159 4863 
L 1159 2969 
z
" transform="scale(0.015625)"/>
       <path id="DejaVuSans-31" d="M 794 531 
L 1825 531 
L 1825 4091 
L 703 3866 
L 703 4441 
L 1819 4666 
L 2450 4666 
L 2450 531 
L 3481 531 
L 3481 0 
L 794 0 
L 794 531 
z
" transform="scale(0.015625)"/>
      </defs>
      <use xlink:href="#DejaVuSans-4d"/>
      <use xlink:href="#DejaVuSans-6f" x="86.279297"/>
      <use xlink:href="#DejaVuSans-64" x="147.460938"/>
      <use xlink:href="#DejaVuSans-65" x="210.9375"/>
      <use xlink:href="#DejaVuSans-6c" x="272.460938"/>
      <use xlink:href="#DejaVuSans-20" x="300.244141"/>
      <use xlink:href="#DejaVuSans-76" x="332.03125"/>
      <use xlink:href="#DejaVuSans-61" x="391.210938"/>
      <use xlink:href="#DejaVuSans-72" x="452.490234"/>
      <use xlink:href="#DejaVuSans-69" x="493.603516"/>
      <use xlink:href="#DejaVuSans-61" x="521.386719"/>
      <use xlink:href="#DejaVuSans-62" x="582.666016"/>
      <use xlink:href="#DejaVuSans-6c" x="646.142578"/>
      <use xlink:href="#DejaVuSans-65" x="673.925781"/>
      <use xlink:href="#DejaVuSans-20" x="735.449219"/>
      <use xlink:href="#DejaVuSans-31" x="767.236328"/>
     </g>
    </g>
   </g>
   <g id="matplotlib.axis_2">
    <g id="ytick_1">
     <g id="line2d_4">
      <defs>
       <path id="ma02c3f4418" d="M 0 0 
L -3.5 0 
" style="stroke: #000000; stroke-width: 0.8"/>
      </defs>
      <g>
       <use xlink:href="#ma02c3f4418" x="57.6" y="123.266795" style="stroke: #000000; stroke-width: 0.8"/>
      </g>
     </g>
     <g id="text_5">
      <!-- −5.0 -->
      <g transform="translate(26.317187 127.066014) scale(0.1 -0.1)">
       <defs>
        <path id="DejaVuSans-2e" d="M 684 794 
L 1344 794 
L 1344 0 
L 684 0 
L 684 794 
z
" transform="scale(0.015625)"/>
       </defs>
       <use xlink:href="#DejaVuSans-2212"/>
       <use xlink:href="#DejaVuSans-35" x="83.789062"/>
       <use xlink:href="#DejaVuSans-2e" x="147.412109"/>
       <use xlink:href="#DejaVuSans-30" x="179.199219"/>
      </g>
     </g>
    </g>
    <g id="ytick_2">
     <g id="line2d_5">
      <g>
       <use xlink:href="#ma02c3f4418" x="57.6" y="99.502628" style="stroke: #000000; stroke-width: 0.8"/>
      </g>
     </g>
     <g id="text_6">
      <!-- −2.5 -->
      <g transform="translate(26.317187 103.301847) scale(0.1 -0.1)">
       <defs>
        <path id="DejaVuSans-32" d="M 1228 531 
L 3431 531 
L 3431 0 
L 469 0 
L 469 531 
Q 828 903 1448 1529 
Q 2069 2156 2228 2338 
Q 2531 2678 2651 2914 
Q 2772 3150 2772 3378 
Q 2772 3750 2511 3984 
Q 2250 4219 1831 4219 
Q 1534 4219 1204 4116 
Q 875 4013 500 3803 
L 500 4441 
Q 881 4594 1212 4672 
Q 1544 4750 1819 4750 
Q 2544 4750 2975 4387 
Q 3406 4025 3406 3419 
Q 3406 3131 3298 2873 
Q 3191 2616 2906 2266 
Q 2828 2175 2409 1742 
Q 1991 1309 1228 531 
z
" transform="scale(0.015625)"/>
       </defs>
       <use xlink:href="#DejaVuSans-2212"/>
       <use xlink:href="#DejaVuSans-32" x="83.789062"/>
       <use xlink:href="#DejaVuSans-2e" x="147.412109"/>
       <use xlink:href="#DejaVuSans-35" x="179.199219"/>
      </g>
     </g>
    </g>
    <g id="ytick_3">
     <g id="line2d_6">
      <g>
       <use xlink:href="#ma02c3f4418" x="57.6" y="75.738462" style="stroke: #000000; stroke-width: 0.8"/>
      </g>
     </g>
     <g id="text_7">
      <!-- 0.0 -->
      <g transform="translate(34.696875 79.53768) scale(0.1 -0.1)">
       <use xlink:href="#DejaVuSans-30"/>
       <use xlink:href="#DejaVuSans-2e" x="63.623047"/>
       <use xlink:href="#DejaVuSans-30" x="95.410156"/>
      </g>
     </g>
    </g>
    <g id="ytick_4">
     <g id="line2d_7">
      <g>
       <use xlink:href="#ma02c3f4418" x="57.6" y="51.974295" style="stroke: #000000; stroke-width: 0.8"/>
      </g>
     </g>
     <g id="text_8">
      <!-- 2.5 -->
      <g transform="translate(34.696875 55.773513) scale(0.1 -0.1)">
       <use xlink:href="#DejaVuSans-32"/>
       <use xlink:href="#DejaVuSans-2e" x="63.623047"/>
       <use xlink:href="#DejaVuSans-35" x="95.410156"/>
      </g>
     </g>
    </g>
    <g id="ytick_5">
     <g id="line2d_8">
      <g>
       <use xlink:href="#ma02c3f4418" x="57.6" y="28.210128" style="stroke: #000000; stroke-width: 0.8"/>
      </g>
     </g>
     <g id="text_9">
      <!-- 5.0 -->
      <g transform="translate(34.696875 32.009347) scale(0.1 -0.1)">
       <use xlink:href="#DejaVuSans-35"/>
       <use xlink:href="#DejaVuSans-2e" x="63.623047"/>
       <use xlink:href="#DejaVuSans-30" x="95.410156"/>
      </g>
     </g>
    </g>
    <g id="text_10">
     <!-- Model variable 2 -->
     <g transform="translate(20.2375 117.282993) rotate(-90) scale(0.1 -0.1)">
      <use xlink:href="#DejaVuSans-4d"/>
      <use xlink:href="#DejaVuSans-6f" x="86.279297"/>
      <use xlink:href="#DejaVuSans-64" x="147.460938"/>
      <use xlink:href="#DejaVuSans-65" x="210.9375"/>
      <use xlink:href="#DejaVuSans-6c" x="272.460938"/>
      <use xlink:href="#DejaVuSans-20" x="300.244141"/>
      <use xlink:href="#DejaVuSans-76" x="332.03125"/>
      <use xlink:href="#DejaVuSans-61" x="391.210938"/>
      <use xlink:href="#DejaVuSans-72" x="452.490234"/>
      <use xlink:href="#DejaVuSans-69" x="493.603516"/>
      <use xlink:href="#DejaVuSans-61" x="521.386719"/>
      <use xlink:href="#DejaVuSans-62" x="582.666016"/>
      <use xlink:href="#DejaVuSans-6c" x="646.142578"/>
      <use xlink:href="#DejaVuSans-65" x="673.925781"/>
      <use xlink:href="#DejaVuSans-20" x="735.449219"/>
      <use xlink:href="#DejaVuSans-32" x="767.236328"/>
     </g>
    </g>
   </g>
   <g id="patch_3">
    <path d="M 57.6 126.276923 
L 57.6 25.2 
" style="fill: none; stroke: #000000; stroke-width: 0.8; stroke-linejoin: miter; stroke-linecap: square"/>
   </g>
   <g id="patch_4">
    <path d="M 164.571429 126.276923 
L 164.571429 25.2 
" style="fill: none; stroke: #000000; stroke-width: 0.8; stroke-linejoin: miter; stroke-linecap: square"/>
   </g>
   <g id="patch_5">
    <path d="M 57.6 126.276923 
L 164.571429 126.276923 
" style="fill: none; stroke: #000000; stroke-width: 0.8; stroke-linejoin: miter; stroke-linecap: square"/>
   </g>
   <g id="patch_6">
    <path d="M 57.6 25.2 
L 164.571429 25.2 
" style="fill: none; stroke: #000000; stroke-width: 0.8; stroke-linejoin: miter; stroke-linecap: square"/>
   </g>
   <g id="text_11">
    <!-- True PDF -->
    <g transform="translate(84.749464 19.2) scale(0.12 -0.12)">
     <defs>
      <path id="DejaVuSans-54" d="M -19 4666 
L 3928 4666 
L 3928 4134 
L 2272 4134 
L 2272 0 
L 1638 0 
L 1638 4134 
L -19 4134 
L -19 4666 
z
" transform="scale(0.015625)"/>
      <path id="DejaVuSans-75" d="M 544 1381 
L 544 3500 
L 1119 3500 
L 1119 1403 
Q 1119 906 1312 657 
Q 1506 409 1894 409 
Q 2359 409 2629 706 
Q 2900 1003 2900 1516 
L 2900 3500 
L 3475 3500 
L 3475 0 
L 2900 0 
L 2900 538 
Q 2691 219 2414 64 
Q 2138 -91 1772 -91 
Q 1169 -91 856 284 
Q 544 659 544 1381 
z
M 1991 3584 
L 1991 3584 
z
" transform="scale(0.015625)"/>
      <path id="DejaVuSans-50" d="M 1259 4147 
L 1259 2394 
L 2053 2394 
Q 2494 2394 2734 2622 
Q 2975 2850 2975 3272 
Q 2975 3691 2734 3919 
Q 2494 4147 2053 4147 
L 1259 4147 
z
M 628 4666 
L 2053 4666 
Q 2838 4666 3239 4311 
Q 3641 3956 3641 3272 
Q 3641 2581 3239 2228 
Q 2838 1875 2053 1875 
L 1259 1875 
L 1259 0 
L 628 0 
L 628 4666 
z
" transform="scale(0.015625)"/>
      <path id="DejaVuSans-44" d="M 1259 4147 
L 1259 519 
L 2022 519 
Q 2988 519 3436 956 
Q 3884 1394 3884 2338 
Q 3884 3275 3436 3711 
Q 2988 4147 2022 4147 
L 1259 4147 
z
M 628 4666 
L 1925 4666 
Q 3281 4666 3915 4102 
Q 4550 3538 4550 2338 
Q 4550 1131 3912 565 
Q 3275 0 1925 0 
L 628 0 
L 628 4666 
z
" transform="scale(0.015625)"/>
      <path id="DejaVuSans-46" d="M 628 4666 
L 3309 4666 
L 3309 4134 
L 1259 4134 
L 1259 2759 
L 3109 2759 
L 3109 2228 
L 1259 2228 
L 1259 0 
L 628 0 
L 628 4666 
z
" transform="scale(0.015625)"/>
     </defs>
     <use xlink:href="#DejaVuSans-54"/>
     <use xlink:href="#DejaVuSans-72" x="46.333984"/>
     <use xlink:href="#DejaVuSans-75" x="87.447266"/>
     <use xlink:href="#DejaVuSans-65" x="150.826172"/>
     <use xlink:href="#DejaVuSans-20" x="212.349609"/>
     <use xlink:href="#DejaVuSans-50" x="244.136719"/>
     <use xlink:href="#DejaVuSans-44" x="304.439453"/>
     <use xlink:href="#DejaVuSans-46" x="381.441406"/>
    </g>
   </g>
  </g>
  <g id="axes_2">
   <g id="patch_7">
    <path d="M 175.268571 126.276923 
L 282.24 126.276923 
L 282.24 25.2 
L 175.268571 25.2 
z
" style="fill: #ffffff"/>
   </g>
   <g id="PathCollection_6">
    <path d="M 266.958367 123.370941 
L 268.934299 122.791512 
L 270.778776 121.829453 
L 271.777111 119.306101 
L 272.193835 115.82069 
L 272.210495 112.335279 
L 271.741955 108.849867 
L 270.778776 105.956976 
L 270.70916 105.364456 
L 270.327709 101.879045 
L 269.841614 98.393634 
L 269.056404 94.908223 
L 267.869093 91.422812 
L 266.958367 89.495108 
L 266.666476 87.937401 
L 265.933833 84.451989 
L 264.874741 80.966578 
L 263.137959 77.677408 
L 263.065038 77.481167 
L 262.063928 73.995756 
L 260.824409 70.510345 
L 261.539587 67.024934 
L 262.84993 63.539523 
L 263.137959 61.287185 
L 263.47165 60.054111 
L 263.137959 59.352026 
L 262.62471 56.5687 
L 260.211481 53.083289 
L 259.317551 52.250844 
L 255.497143 49.842034 
L 252.018043 49.597878 
L 251.676735 49.533274 
L 251.484129 49.597878 
L 247.856327 50.392732 
L 244.159288 53.083289 
L 244.035918 53.364406 
L 240.21551 54.402375 
L 238.90371 53.083289 
L 236.395102 51.801872 
L 232.574694 50.07131 
L 231.218449 49.597878 
L 228.754286 48.509855 
L 224.933878 47.188273 
L 221.113469 46.438166 
L 219.394012 46.112467 
L 217.293061 45.286782 
L 213.472653 44.016346 
L 209.652245 43.342262 
L 205.831837 42.825784 
L 204.218356 42.627056 
L 202.011429 41.956361 
L 198.19102 41.322487 
L 194.370612 41.204536 
L 190.550204 41.382592 
L 187.112536 42.627056 
L 186.729796 43.402064 
L 185.830849 46.112467 
L 186.729796 47.135104 
L 188.0652 49.597878 
L 190.550204 51.958101 
L 191.66549 53.083289 
L 194.370612 55.285385 
L 196.166422 56.5687 
L 198.19102 58.240312 
L 201.021086 60.054111 
L 202.011429 60.792076 
L 205.831837 62.855084 
L 207.878605 63.539523 
L 209.652245 64.674719 
L 213.472653 66.25871 
L 217.293061 66.923788 
L 219.326753 67.024934 
L 221.113469 67.360432 
L 222.333365 67.024934 
L 224.933878 66.804838 
L 228.754286 66.225879 
L 232.574694 64.583874 
L 234.54737 63.539523 
L 236.395102 62.642107 
L 239.980035 60.054111 
L 240.21551 59.707158 
L 240.732389 60.054111 
L 244.035918 61.336688 
L 245.480087 63.539523 
L 247.856327 66.040463 
L 248.707834 67.024934 
L 249.958072 70.510345 
L 248.978023 73.995756 
L 247.933295 77.481167 
L 247.856327 77.739319 
L 246.367201 80.966578 
L 245.647878 84.451989 
L 245.352842 87.937401 
L 245.567528 91.422812 
L 246.373009 94.908223 
L 247.856327 97.818105 
L 247.976964 98.393634 
L 249.089426 101.879045 
L 251.381166 105.364456 
L 251.676735 105.725283 
L 253.205566 108.849867 
L 255.497143 111.480024 
L 256.087489 112.335279 
L 258.853977 115.82069 
L 259.317551 116.328553 
L 261.860442 119.306101 
L 263.137959 120.652677 
L 266.265798 122.791512 
z
M 260.822776 112.335279 
L 259.317551 110.970666 
L 257.501191 108.849867 
L 255.497143 105.440473 
L 255.440957 105.364456 
L 253.206974 101.879045 
L 251.908281 98.393634 
L 251.676735 97.382834 
L 250.759768 94.908223 
L 250.01678 91.422812 
L 249.980248 87.937401 
L 250.501986 84.451989 
L 251.583231 80.966578 
L 251.676735 80.795303 
L 254.157961 77.481167 
L 255.497143 75.97784 
L 258.279433 77.481167 
L 259.317551 77.932448 
L 261.010841 80.966578 
L 262.499418 84.451989 
L 263.137959 86.005781 
L 264.02775 87.937401 
L 265.293364 91.422812 
L 266.082393 94.908223 
L 266.870415 98.393634 
L 266.958367 98.916446 
L 267.798412 101.879045 
L 268.337745 105.364456 
L 268.668753 108.849867 
L 268.241814 112.335279 
L 266.958367 115.699905 
L 263.137959 114.943896 
z
M 251.12809 63.539523 
L 248.279555 60.054111 
L 247.856327 57.276251 
L 247.679253 56.5687 
L 247.856327 56.305057 
L 250.231984 53.083289 
L 251.676735 52.296561 
L 255.497143 52.75318 
L 255.933668 53.083289 
L 259.317551 56.237167 
L 259.597291 56.5687 
L 260.549731 60.054111 
L 259.317551 63.245278 
L 259.084686 63.539523 
L 255.497143 65.76895 
L 251.676735 64.10596 
z
M 209.438881 60.054111 
L 205.831837 58.629399 
L 202.447933 56.5687 
L 202.011429 56.295665 
L 198.19102 53.486194 
L 197.683039 53.083289 
L 194.380879 49.597878 
L 194.890438 46.112467 
L 198.19102 45.140609 
L 202.011429 45.046207 
L 205.831837 45.572265 
L 208.325404 46.112467 
L 209.652245 46.30055 
L 213.472653 46.987901 
L 217.293061 48.046373 
L 221.113469 49.504539 
L 221.382003 49.597878 
L 224.933878 50.831728 
L 228.754286 52.931299 
L 229.063479 53.083289 
L 231.906061 56.5687 
L 228.869157 60.054111 
L 228.754286 60.11808 
L 224.933878 61.561578 
L 221.113469 62.277195 
L 217.293061 62.297238 
L 213.472653 61.606177 
L 209.652245 60.16522 
z
" clip-path="url(#p55d27f79b9)" style="fill: #fee0d2"/>
    <path d="M 221.113469 92.773836 
L 224.933878 93.494746 
L 228.754286 93.152747 
L 231.396448 91.422812 
L 232.574694 88.198021 
L 232.652796 87.937401 
L 232.574694 87.13382 
L 232.286342 84.451989 
L 230.993418 80.966578 
L 228.754286 78.953251 
L 225.527143 77.481167 
L 224.933878 77.147105 
L 221.113469 75.735214 
L 217.293061 77.328177 
L 217.158994 77.481167 
L 215.095408 80.966578 
L 214.66241 84.451989 
L 216.535775 87.937401 
L 217.293061 88.90311 
L 219.471277 91.422812 
z
" clip-path="url(#p55d27f79b9)" style="fill: #fee0d2"/>
   </g>
   <g id="PathCollection_7">
    <path d="M 263.137959 114.943896 
L 266.958367 115.699905 
L 268.241814 112.335279 
L 268.668753 108.849867 
L 268.337745 105.364456 
L 267.798412 101.879045 
L 266.958367 98.916446 
L 266.870415 98.393634 
L 266.082393 94.908223 
L 265.293364 91.422812 
L 264.02775 87.937401 
L 263.137959 86.005781 
L 262.499418 84.451989 
L 261.010841 80.966578 
L 259.317551 77.932448 
L 258.279433 77.481167 
L 255.497143 75.97784 
L 254.157961 77.481167 
L 251.676735 80.795303 
L 251.583231 80.966578 
L 250.501986 84.451989 
L 249.980248 87.937401 
L 250.01678 91.422812 
L 250.759768 94.908223 
L 251.676735 97.382834 
L 251.908281 98.393634 
L 253.206974 101.879045 
L 255.440957 105.364456 
L 255.497143 105.440473 
L 257.501191 108.849867 
L 259.317551 110.970666 
L 260.822776 112.335279 
z
M 260.899469 108.849867 
L 259.317551 107.528361 
L 257.770563 105.364456 
L 255.787137 101.879045 
L 255.497143 101.29884 
L 254.011785 98.393634 
L 253.081153 94.908223 
L 252.595528 91.422812 
L 252.725293 87.937401 
L 253.78213 84.451989 
L 255.497143 81.720388 
L 259.317551 82.907792 
L 260.145319 84.451989 
L 261.793398 87.937401 
L 263.137959 90.898639 
L 263.364284 91.422812 
L 264.469587 94.908223 
L 265.369791 98.393634 
L 265.85938 101.879045 
L 265.997628 105.364456 
L 265.639347 108.849867 
L 263.137959 110.879565 
z
" clip-path="url(#p55d27f79b9)" style="fill: #fc9272"/>
    <path d="M 251.676735 64.10596 
L 255.497143 65.76895 
L 259.084686 63.539523 
L 259.317551 63.245278 
L 260.549731 60.054111 
L 259.597291 56.5687 
L 259.317551 56.237167 
L 255.933668 53.083289 
L 255.497143 52.75318 
L 251.676735 52.296561 
L 250.231984 53.083289 
L 247.856327 56.305057 
L 247.679253 56.5687 
L 247.856327 57.276251 
L 248.279555 60.054111 
L 251.12809 63.539523 
z
M 251.050477 60.054111 
L 250.494183 56.5687 
L 251.676735 55.253402 
L 255.497143 55.10916 
L 257.075247 56.5687 
L 257.840921 60.054111 
L 255.497143 62.529209 
L 251.676735 60.768203 
z
" clip-path="url(#p55d27f79b9)" style="fill: #fc9272"/>
    <path d="M 209.652245 60.16522 
L 213.472653 61.606177 
L 217.293061 62.297238 
L 221.113469 62.277195 
L 224.933878 61.561578 
L 228.754286 60.11808 
L 228.869157 60.054111 
L 231.906061 56.5687 
L 229.063479 53.083289 
L 228.754286 52.931299 
L 224.933878 50.831728 
L 221.382003 49.597878 
L 221.113469 49.504539 
L 217.293061 48.046373 
L 213.472653 46.987901 
L 209.652245 46.30055 
L 208.325404 46.112467 
L 205.831837 45.572265 
L 202.011429 45.046207 
L 198.19102 45.140609 
L 194.890438 46.112467 
L 194.380879 49.597878 
L 197.683039 53.083289 
L 198.19102 53.486194 
L 202.011429 56.295665 
L 202.447933 56.5687 
L 205.831837 58.629399 
L 209.438881 60.054111 
z
M 207.160639 56.5687 
L 205.831837 55.85109 
L 202.011429 53.353735 
L 201.656695 53.083289 
L 199.337808 49.597878 
L 202.011429 47.944159 
L 205.831837 47.754798 
L 209.652245 48.097654 
L 213.472653 48.886078 
L 215.589262 49.597878 
L 217.293061 50.244816 
L 221.113469 51.777973 
L 223.735603 53.083289 
L 224.933878 55.512844 
L 225.57914 56.5687 
L 224.933878 57.118391 
L 221.113469 59.027539 
L 217.293061 59.355901 
L 213.472653 58.896531 
L 209.652245 57.79372 
z
" clip-path="url(#p55d27f79b9)" style="fill: #fc9272"/>
   </g>
   <g id="PathCollection_8">
    <path d="M 263.137959 110.879565 
L 265.639347 108.849867 
L 265.997628 105.364456 
L 265.85938 101.879045 
L 265.369791 98.393634 
L 264.469587 94.908223 
L 263.364284 91.422812 
L 263.137959 90.898639 
L 261.793398 87.937401 
L 260.145319 84.451989 
L 259.317551 82.907792 
L 255.497143 81.720388 
L 253.78213 84.451989 
L 252.725293 87.937401 
L 252.595528 91.422812 
L 253.081153 94.908223 
L 254.011785 98.393634 
L 255.497143 101.29884 
L 255.787137 101.879045 
L 257.770563 105.364456 
L 259.317551 107.528361 
L 260.899469 108.849867 
z
M 261.507813 105.364456 
L 259.317551 104.267059 
L 257.843488 101.879045 
L 256.168752 98.393634 
L 255.497143 96.533248 
L 255.00366 94.908223 
L 254.609305 91.422812 
L 255.104709 87.937401 
L 255.497143 87.013207 
L 259.317551 87.053008 
L 259.764776 87.937401 
L 261.452493 91.422812 
L 262.740158 94.908223 
L 263.137959 95.826666 
L 263.869167 98.393634 
L 264.21388 101.879045 
L 263.701028 105.364456 
L 263.137959 106.648173 
z
" clip-path="url(#p55d27f79b9)" style="fill: #ee3a2c"/>
    <path d="M 251.676735 60.768203 
L 255.497143 62.529209 
L 257.840921 60.054111 
L 257.075247 56.5687 
L 255.497143 55.10916 
L 251.676735 55.253402 
L 250.494183 56.5687 
L 251.050477 60.054111 
z
" clip-path="url(#p55d27f79b9)" style="fill: #ee3a2c"/>
    <path d="M 209.652245 57.79372 
L 213.472653 58.896531 
L 217.293061 59.355901 
L 221.113469 59.027539 
L 224.933878 57.118391 
L 225.57914 56.5687 
L 224.933878 55.512844 
L 223.735603 53.083289 
L 221.113469 51.777973 
L 217.293061 50.244816 
L 215.589262 49.597878 
L 213.472653 48.886078 
L 209.652245 48.097654 
L 205.831837 47.754798 
L 202.011429 47.944159 
L 199.337808 49.597878 
L 201.656695 53.083289 
L 202.011429 53.353735 
L 205.831837 55.85109 
L 207.160639 56.5687 
z
M 213.270776 56.5687 
L 209.652245 55.056699 
L 205.831837 53.292985 
L 205.515516 53.083289 
L 205.831837 51.500141 
L 209.652245 50.332449 
L 213.472653 51.257765 
L 217.293061 52.388021 
L 218.959121 53.083289 
L 218.215463 56.5687 
L 217.293061 56.7927 
L 213.472653 56.628672 
z
" clip-path="url(#p55d27f79b9)" style="fill: #ee3a2c"/>
   </g>
   <g id="PathCollection_9">
    <path d="M 263.137959 106.648173 
L 263.701028 105.364456 
L 264.21388 101.879045 
L 263.869167 98.393634 
L 263.137959 95.826666 
L 262.740158 94.908223 
L 261.452493 91.422812 
L 259.764776 87.937401 
L 259.317551 87.053008 
L 255.497143 87.013207 
L 255.104709 87.937401 
L 254.609305 91.422812 
L 255.00366 94.908223 
L 255.497143 96.533248 
L 256.168752 98.393634 
L 257.843488 101.879045 
L 259.317551 104.267059 
L 261.507813 105.364456 
z
M 258.454187 98.393634 
L 257.781168 94.908223 
L 258.651463 91.422812 
L 259.317551 90.964357 
L 259.543 91.422812 
L 260.45842 94.908223 
L 260.938247 98.393634 
L 259.317551 100.385782 
z
" clip-path="url(#p55d27f79b9)" style="fill: #a30f15"/>
    <path d="M 213.472653 56.628672 
L 217.293061 56.7927 
L 218.215463 56.5687 
L 218.959121 53.083289 
L 217.293061 52.388021 
L 213.472653 51.257765 
L 209.652245 50.332449 
L 205.831837 51.500141 
L 205.515516 53.083289 
L 205.831837 53.292985 
L 209.652245 55.056699 
L 213.270776 56.5687 
z
" clip-path="url(#p55d27f79b9)" style="fill: #a30f15"/>
   </g>
   <g id="PathCollection_10">
    <path d="M 259.317551 100.385782 
L 260.938247 98.393634 
L 260.45842 94.908223 
L 259.543 91.422812 
L 259.317551 90.964357 
L 258.651463 91.422812 
L 257.781168 94.908223 
L 258.454187 98.393634 
z
" clip-path="url(#p55d27f79b9)" style="fill: #67000d"/>
   </g>
   <g id="matplotlib.axis_3">
    <g id="xtick_4">
     <g id="line2d_9">
      <g>
       <use xlink:href="#me8fce02d56" x="178.39436" y="126.276923" style="stroke: #000000; stroke-width: 0.8"/>
      </g>
     </g>
     <g id="text_12">
      <!-- −5 -->
      <g transform="translate(171.023266 140.875361) scale(0.1 -0.1)">
       <use xlink:href="#DejaVuSans-2212"/>
       <use xlink:href="#DejaVuSans-35" x="83.789062"/>
      </g>
     </g>
    </g>
    <g id="xtick_5">
     <g id="line2d_10">
      <g>
       <use xlink:href="#me8fce02d56" x="228.754286" y="126.276923" style="stroke: #000000; stroke-width: 0.8"/>
      </g>
     </g>
     <g id="text_13">
      <!-- 0 -->
      <g transform="translate(225.573036 140.875361) scale(0.1 -0.1)">
       <use xlink:href="#DejaVuSans-30"/>
      </g>
     </g>
    </g>
    <g id="xtick_6">
     <g id="line2d_11">
      <g>
       <use xlink:href="#me8fce02d56" x="279.114212" y="126.276923" style="stroke: #000000; stroke-width: 0.8"/>
      </g>
     </g>
     <g id="text_14">
      <!-- 5 -->
      <g transform="translate(275.932962 140.875361) scale(0.1 -0.1)">
       <use xlink:href="#DejaVuSans-35"/>
      </g>
     </g>
    </g>
    <g id="text_15">
     <!-- Model variable 1 -->
     <g transform="translate(187.209754 154.553486) scale(0.1 -0.1)">
      <use xlink:href="#DejaVuSans-4d"/>
      <use xlink:href="#DejaVuSans-6f" x="86.279297"/>
      <use xlink:href="#DejaVuSans-64" x="147.460938"/>
      <use xlink:href="#DejaVuSans-65" x="210.9375"/>
      <use xlink:href="#DejaVuSans-6c" x="272.460938"/>
      <use xlink:href="#DejaVuSans-20" x="300.244141"/>
      <use xlink:href="#DejaVuSans-76" x="332.03125"/>
      <use xlink:href="#DejaVuSans-61" x="391.210938"/>
      <use xlink:href="#DejaVuSans-72" x="452.490234"/>
      <use xlink:href="#DejaVuSans-69" x="493.603516"/>
      <use xlink:href="#DejaVuSans-61" x="521.386719"/>
      <use xlink:href="#DejaVuSans-62" x="582.666016"/>
      <use xlink:href="#DejaVuSans-6c" x="646.142578"/>
      <use xlink:href="#DejaVuSans-65" x="673.925781"/>
      <use xlink:href="#DejaVuSans-20" x="735.449219"/>
      <use xlink:href="#DejaVuSans-31" x="767.236328"/>
     </g>
    </g>
   </g>
   <g id="matplotlib.axis_4">
    <g id="ytick_6">
     <g id="line2d_12">
      <g>
       <use xlink:href="#ma02c3f4418" x="175.268571" y="123.266795" style="stroke: #000000; stroke-width: 0.8"/>
      </g>
     </g>
    </g>
    <g id="ytick_7">
     <g id="line2d_13">
      <g>
       <use xlink:href="#ma02c3f4418" x="175.268571" y="99.502628" style="stroke: #000000; stroke-width: 0.8"/>
      </g>
     </g>
    </g>
    <g id="ytick_8">
     <g id="line2d_14">
      <g>
       <use xlink:href="#ma02c3f4418" x="175.268571" y="75.738462" style="stroke: #000000; stroke-width: 0.8"/>
      </g>
     </g>
    </g>
    <g id="ytick_9">
     <g id="line2d_15">
      <g>
       <use xlink:href="#ma02c3f4418" x="175.268571" y="51.974295" style="stroke: #000000; stroke-width: 0.8"/>
      </g>
     </g>
    </g>
    <g id="ytick_10">
     <g id="line2d_16">
      <g>
       <use xlink:href="#ma02c3f4418" x="175.268571" y="28.210128" style="stroke: #000000; stroke-width: 0.8"/>
      </g>
     </g>
    </g>
   </g>
   <g id="patch_8">
    <path d="M 175.268571 126.276923 
L 175.268571 25.2 
" style="fill: none; stroke: #000000; stroke-width: 0.8; stroke-linejoin: miter; stroke-linecap: square"/>
   </g>
   <g id="patch_9">
    <path d="M 282.24 126.276923 
L 282.24 25.2 
" style="fill: none; stroke: #000000; stroke-width: 0.8; stroke-linejoin: miter; stroke-linecap: square"/>
   </g>
   <g id="patch_10">
    <path d="M 175.268571 126.276923 
L 282.24 126.276923 
" style="fill: none; stroke: #000000; stroke-width: 0.8; stroke-linejoin: miter; stroke-linecap: square"/>
   </g>
   <g id="patch_11">
    <path d="M 175.268571 25.2 
L 282.24 25.2 
" style="fill: none; stroke: #000000; stroke-width: 0.8; stroke-linejoin: miter; stroke-linecap: square"/>
   </g>
   <g id="text_16">
    <!-- Virt Mems' PDF -->
    <g transform="translate(183.308973 19.2) scale(0.12 -0.12)">
     <defs>
      <path id="DejaVuSans-56" d="M 1831 0 
L 50 4666 
L 709 4666 
L 2188 738 
L 3669 4666 
L 4325 4666 
L 2547 0 
L 1831 0 
z
" transform="scale(0.015625)"/>
      <path id="DejaVuSans-74" d="M 1172 4494 
L 1172 3500 
L 2356 3500 
L 2356 3053 
L 1172 3053 
L 1172 1153 
Q 1172 725 1289 603 
Q 1406 481 1766 481 
L 2356 481 
L 2356 0 
L 1766 0 
Q 1100 0 847 248 
Q 594 497 594 1153 
L 594 3053 
L 172 3053 
L 172 3500 
L 594 3500 
L 594 4494 
L 1172 4494 
z
" transform="scale(0.015625)"/>
      <path id="DejaVuSans-6d" d="M 3328 2828 
Q 3544 3216 3844 3400 
Q 4144 3584 4550 3584 
Q 5097 3584 5394 3201 
Q 5691 2819 5691 2113 
L 5691 0 
L 5113 0 
L 5113 2094 
Q 5113 2597 4934 2840 
Q 4756 3084 4391 3084 
Q 3944 3084 3684 2787 
Q 3425 2491 3425 1978 
L 3425 0 
L 2847 0 
L 2847 2094 
Q 2847 2600 2669 2842 
Q 2491 3084 2119 3084 
Q 1678 3084 1418 2786 
Q 1159 2488 1159 1978 
L 1159 0 
L 581 0 
L 581 3500 
L 1159 3500 
L 1159 2956 
Q 1356 3278 1631 3431 
Q 1906 3584 2284 3584 
Q 2666 3584 2933 3390 
Q 3200 3197 3328 2828 
z
" transform="scale(0.015625)"/>
      <path id="DejaVuSans-73" d="M 2834 3397 
L 2834 2853 
Q 2591 2978 2328 3040 
Q 2066 3103 1784 3103 
Q 1356 3103 1142 2972 
Q 928 2841 928 2578 
Q 928 2378 1081 2264 
Q 1234 2150 1697 2047 
L 1894 2003 
Q 2506 1872 2764 1633 
Q 3022 1394 3022 966 
Q 3022 478 2636 193 
Q 2250 -91 1575 -91 
Q 1294 -91 989 -36 
Q 684 19 347 128 
L 347 722 
Q 666 556 975 473 
Q 1284 391 1588 391 
Q 1994 391 2212 530 
Q 2431 669 2431 922 
Q 2431 1156 2273 1281 
Q 2116 1406 1581 1522 
L 1381 1569 
Q 847 1681 609 1914 
Q 372 2147 372 2553 
Q 372 3047 722 3315 
Q 1072 3584 1716 3584 
Q 2034 3584 2315 3537 
Q 2597 3491 2834 3397 
z
" transform="scale(0.015625)"/>
      <path id="DejaVuSans-27" d="M 1147 4666 
L 1147 2931 
L 616 2931 
L 616 4666 
L 1147 4666 
z
" transform="scale(0.015625)"/>
     </defs>
     <use xlink:href="#DejaVuSans-56"/>
     <use xlink:href="#DejaVuSans-69" x="66.158203"/>
     <use xlink:href="#DejaVuSans-72" x="93.941406"/>
     <use xlink:href="#DejaVuSans-74" x="135.054688"/>
     <use xlink:href="#DejaVuSans-20" x="174.263672"/>
     <use xlink:href="#DejaVuSans-4d" x="206.050781"/>
     <use xlink:href="#DejaVuSans-65" x="292.330078"/>
     <use xlink:href="#DejaVuSans-6d" x="353.853516"/>
     <use xlink:href="#DejaVuSans-73" x="451.265625"/>
     <use xlink:href="#DejaVuSans-27" x="503.365234"/>
     <use xlink:href="#DejaVuSans-20" x="530.855469"/>
     <use xlink:href="#DejaVuSans-50" x="562.642578"/>
     <use xlink:href="#DejaVuSans-44" x="622.945312"/>
     <use xlink:href="#DejaVuSans-46" x="699.947266"/>
    </g>
   </g>
  </g>
  <g id="axes_3">
   <g id="patch_12">
    <path d="M 57.6 288 
L 164.571429 288 
L 164.571429 186.923077 
L 57.6 186.923077 
z
" style="fill: #ffffff"/>
   </g>
   <g id="PathCollection_11">
    <path d="M 122.546939 265.456685 
L 126.367347 266.329975 
L 130.187755 266.41081 
L 134.008163 265.640848 
L 137.513254 263.602122 
L 137.828571 263.3593 
L 140.461141 260.116711 
L 141.477456 256.6313 
L 141.64898 253.906233 
L 141.70402 253.145889 
L 141.64898 252.915934 
L 141.121013 249.660477 
L 139.880581 246.175066 
L 137.828571 243.277382 
L 137.497219 242.689655 
L 134.008163 240.10673 
L 132.771612 239.204244 
L 130.187755 238.019774 
L 126.367347 236.902391 
L 122.546939 236.223593 
L 118.726531 235.757307 
L 118.535246 235.718833 
L 114.906122 233.145888 
L 114.507134 232.233422 
L 113.703011 228.748011 
L 112.523803 225.262599 
L 111.085714 222.503841 
L 110.843731 221.777188 
L 109.664785 218.291777 
L 107.736716 214.806366 
L 107.265306 214.057732 
L 103.501988 211.320955 
L 103.444898 211.274983 
L 99.62449 209.470605 
L 95.804082 208.52962 
L 91.983673 208.553951 
L 88.163265 209.34377 
L 84.51591 211.320955 
L 84.342857 211.456259 
L 81.744411 214.806366 
L 80.700967 218.291777 
L 80.522449 221.34292 
L 80.49249 221.777188 
L 80.522449 221.902649 
L 81.07451 225.262599 
L 82.266871 228.748011 
L 84.342857 231.53132 
L 84.756782 232.233422 
L 88.163265 235.023366 
L 89.013573 235.718833 
L 91.983673 237.024915 
L 95.804082 238.068568 
L 99.62449 238.71342 
L 103.444898 239.166519 
L 103.638972 239.204244 
L 107.265306 241.095012 
L 107.971624 242.689655 
L 108.493741 246.175066 
L 109.386795 249.660477 
L 110.969012 253.145889 
L 111.085714 253.384842 
L 112.342336 256.6313 
L 114.424468 260.116711 
L 114.906122 260.851716 
L 118.726531 263.569344 
L 118.811524 263.602122 
z
M 114.992878 253.145889 
L 114.906122 253.106159 
L 112.813582 249.660477 
L 111.085714 246.394024 
L 110.985224 246.175066 
L 109.447672 242.689655 
L 107.701991 239.204244 
L 107.265306 238.820821 
L 103.444898 237.924145 
L 99.62449 236.863222 
L 96.74249 235.718833 
L 95.804082 234.650682 
L 93.138787 232.233422 
L 91.983673 229.110751 
L 91.805173 228.748011 
L 91.554078 225.262599 
L 91.983673 223.912472 
L 92.94957 221.777188 
L 95.804082 219.577729 
L 99.62449 218.909447 
L 103.444898 219.604295 
L 107.265306 221.737129 
L 107.288367 221.777188 
L 109.215495 225.262599 
L 110.661022 228.748011 
L 111.085714 229.611716 
L 112.447714 232.233422 
L 114.308121 235.718833 
L 114.906122 236.161317 
L 118.726531 237.093476 
L 122.546939 238.228476 
L 124.999657 239.204244 
L 126.367347 240.487584 
L 129.080859 242.689655 
L 130.187755 245.702392 
L 130.411687 246.175066 
L 130.702849 249.660477 
L 130.187755 251.054956 
L 129.114669 253.145889 
L 126.367347 255.295565 
L 122.546939 255.952648 
L 118.726531 255.305879 
z
" clip-path="url(#p87f99fc426)" style="fill: #deebf7"/>
   </g>
   <g id="PathCollection_12">
    <path d="M 118.726531 255.305879 
L 122.546939 255.952648 
L 126.367347 255.295565 
L 129.114669 253.145889 
L 130.187755 251.054956 
L 130.702849 249.660477 
L 130.411687 246.175066 
L 130.187755 245.702392 
L 129.080859 242.689655 
L 126.367347 240.487584 
L 124.999657 239.204244 
L 122.546939 238.228476 
L 118.726531 237.093476 
L 114.906122 236.161317 
L 114.308121 235.718833 
L 112.447714 232.233422 
L 111.085714 229.611716 
L 110.661022 228.748011 
L 109.215495 225.262599 
L 107.288367 221.777188 
L 107.265306 221.737129 
L 103.444898 219.604295 
L 99.62449 218.909447 
L 95.804082 219.577729 
L 92.94957 221.777188 
L 91.983673 223.912472 
L 91.554078 225.262599 
L 91.805173 228.748011 
L 91.983673 229.110751 
L 93.138787 232.233422 
L 95.804082 234.650682 
L 96.74249 235.718833 
L 99.62449 236.863222 
L 103.444898 237.924145 
L 107.265306 238.820821 
L 107.701991 239.204244 
L 109.447672 242.689655 
L 110.985224 246.175066 
L 111.085714 246.394024 
L 112.813582 249.660477 
L 114.906122 253.106159 
L 114.992878 253.145889 
z
M 118.571706 249.660477 
L 114.906122 248.66786 
L 113.319895 246.175066 
L 111.085714 243.047346 
L 110.92372 242.689655 
L 108.711388 239.204244 
L 107.265306 237.934539 
L 103.444898 236.68177 
L 100.884611 235.718833 
L 99.62449 233.611898 
L 98.423313 232.233422 
L 98.410534 228.748011 
L 99.62449 226.700629 
L 103.086568 225.262599 
L 103.444898 225.190534 
L 103.658218 225.262599 
L 107.265306 226.07816 
L 108.711806 228.748011 
L 110.482973 232.233422 
L 111.085714 232.895234 
L 112.990072 235.718833 
L 114.906122 237.136592 
L 118.726531 238.429646 
L 120.752798 239.204244 
L 122.546939 241.471153 
L 123.847912 242.689655 
L 123.908083 246.175066 
L 122.546939 248.276432 
L 119.017128 249.660477 
L 118.726531 249.721937 
z
" clip-path="url(#p87f99fc426)" style="fill: #9dcae1"/>
   </g>
   <g id="PathCollection_13">
    <path d="M 118.726531 249.721937 
L 119.017128 249.660477 
L 122.546939 248.276432 
L 123.908083 246.175066 
L 123.847912 242.689655 
L 122.546939 241.471153 
L 120.752798 239.204244 
L 118.726531 238.429646 
L 114.906122 237.136592 
L 112.990072 235.718833 
L 111.085714 232.895234 
L 110.482973 232.233422 
L 108.711806 228.748011 
L 107.265306 226.07816 
L 103.658218 225.262599 
L 103.444898 225.190534 
L 103.086568 225.262599 
L 99.62449 226.700629 
L 98.410534 228.748011 
L 98.423313 232.233422 
L 99.62449 233.611898 
L 100.884611 235.718833 
L 103.444898 236.68177 
L 107.265306 237.934539 
L 108.711388 239.204244 
L 110.92372 242.689655 
L 111.085714 243.047346 
L 113.319895 246.175066 
L 114.906122 248.66786 
L 118.571706 249.660477 
z
M 113.122945 242.689655 
L 111.085714 241.305964 
L 109.720785 239.204244 
L 107.265306 237.048256 
L 103.943062 235.718833 
L 103.444898 233.37992 
L 102.955497 232.233422 
L 103.444898 231.376461 
L 107.265306 229.591469 
L 108.703129 232.233422 
L 111.085714 234.84951 
L 111.672024 235.718833 
L 114.906122 238.111867 
L 117.684136 239.204244 
L 118.726531 241.846459 
L 119.323591 242.689655 
L 118.726531 243.646864 
L 114.906122 245.163449 
z
" clip-path="url(#p87f99fc426)" style="fill: #4191c6"/>
   </g>
   <g id="PathCollection_14">
    <path d="M 114.906122 245.163449 
L 118.726531 243.646864 
L 119.323591 242.689655 
L 118.726531 241.846459 
L 117.684136 239.204244 
L 114.906122 238.111867 
L 111.672024 235.718833 
L 111.085714 234.84951 
L 108.703129 232.233422 
L 107.265306 229.591469 
L 103.444898 231.376461 
L 102.955497 232.233422 
L 103.444898 233.37992 
L 103.943062 235.718833 
L 107.265306 237.048256 
L 109.720785 239.204244 
L 111.085714 241.305964 
L 113.122945 242.689655 
z
M 110.730182 239.204244 
L 111.085714 237.851309 
L 114.906122 239.087142 
L 115.203924 239.204244 
L 114.906122 240.43209 
L 111.085714 239.751694 
z
M 106.157891 235.718833 
L 107.265306 233.201067 
L 109.075637 235.718833 
L 107.265306 236.161974 
z
" clip-path="url(#p87f99fc426)" style="fill: #08509b"/>
   </g>
   <g id="PathCollection_15">
    <path d="M 111.085714 239.751694 
L 114.906122 240.43209 
L 115.203924 239.204244 
L 114.906122 239.087142 
L 111.085714 237.851309 
L 110.730182 239.204244 
z
" clip-path="url(#p87f99fc426)" style="fill: #08306b"/>
    <path d="M 107.265306 236.161974 
L 109.075637 235.718833 
L 107.265306 233.201067 
L 106.157891 235.718833 
z
" clip-path="url(#p87f99fc426)" style="fill: #08306b"/>
   </g>
   <g id="matplotlib.axis_5">
    <g id="xtick_7">
     <g id="line2d_17">
      <g>
       <use xlink:href="#me8fce02d56" x="69.119109" y="288" style="stroke: #000000; stroke-width: 0.8"/>
      </g>
     </g>
     <g id="text_17">
      <!-- −2.5 -->
      <g transform="translate(56.977703 302.598437) scale(0.1 -0.1)">
       <use xlink:href="#DejaVuSans-2212"/>
       <use xlink:href="#DejaVuSans-32" x="83.789062"/>
       <use xlink:href="#DejaVuSans-2e" x="147.412109"/>
       <use xlink:href="#DejaVuSans-35" x="179.199219"/>
      </g>
     </g>
    </g>
    <g id="xtick_8">
     <g id="line2d_18">
      <g>
       <use xlink:href="#me8fce02d56" x="111.085714" y="288" style="stroke: #000000; stroke-width: 0.8"/>
      </g>
     </g>
     <g id="text_18">
      <!-- 0.0 -->
      <g transform="translate(103.134152 302.598437) scale(0.1 -0.1)">
       <use xlink:href="#DejaVuSans-30"/>
       <use xlink:href="#DejaVuSans-2e" x="63.623047"/>
       <use xlink:href="#DejaVuSans-30" x="95.410156"/>
      </g>
     </g>
    </g>
    <g id="xtick_9">
     <g id="line2d_19">
      <g>
       <use xlink:href="#me8fce02d56" x="153.052319" y="288" style="stroke: #000000; stroke-width: 0.8"/>
      </g>
     </g>
     <g id="text_19">
      <!-- 2.5 -->
      <g transform="translate(145.100757 302.598437) scale(0.1 -0.1)">
       <use xlink:href="#DejaVuSans-32"/>
       <use xlink:href="#DejaVuSans-2e" x="63.623047"/>
       <use xlink:href="#DejaVuSans-35" x="95.410156"/>
      </g>
     </g>
    </g>
    <g id="text_20">
     <!-- Probit variable 1 -->
     <g transform="translate(70.101339 316.276562) scale(0.1 -0.1)">
      <use xlink:href="#DejaVuSans-50"/>
      <use xlink:href="#DejaVuSans-72" x="58.552734"/>
      <use xlink:href="#DejaVuSans-6f" x="97.416016"/>
      <use xlink:href="#DejaVuSans-62" x="158.597656"/>
      <use xlink:href="#DejaVuSans-69" x="222.074219"/>
      <use xlink:href="#DejaVuSans-74" x="249.857422"/>
      <use xlink:href="#DejaVuSans-20" x="289.066406"/>
      <use xlink:href="#DejaVuSans-76" x="320.853516"/>
      <use xlink:href="#DejaVuSans-61" x="380.033203"/>
      <use xlink:href="#DejaVuSans-72" x="441.3125"/>
      <use xlink:href="#DejaVuSans-69" x="482.425781"/>
      <use xlink:href="#DejaVuSans-61" x="510.208984"/>
      <use xlink:href="#DejaVuSans-62" x="571.488281"/>
      <use xlink:href="#DejaVuSans-6c" x="634.964844"/>
      <use xlink:href="#DejaVuSans-65" x="662.748047"/>
      <use xlink:href="#DejaVuSans-20" x="724.271484"/>
      <use xlink:href="#DejaVuSans-31" x="756.058594"/>
     </g>
    </g>
   </g>
   <g id="matplotlib.axis_6">
    <g id="ytick_11">
     <g id="line2d_20">
      <g>
       <use xlink:href="#ma02c3f4418" x="57.6" y="269.147094" style="stroke: #000000; stroke-width: 0.8"/>
      </g>
     </g>
     <g id="text_21">
      <!-- −2 -->
      <g transform="translate(35.857813 272.946313) scale(0.1 -0.1)">
       <use xlink:href="#DejaVuSans-2212"/>
       <use xlink:href="#DejaVuSans-32" x="83.789062"/>
      </g>
     </g>
    </g>
    <g id="ytick_12">
     <g id="line2d_21">
      <g>
       <use xlink:href="#ma02c3f4418" x="57.6" y="237.461538" style="stroke: #000000; stroke-width: 0.8"/>
      </g>
     </g>
     <g id="text_22">
      <!-- 0 -->
      <g transform="translate(44.2375 241.260757) scale(0.1 -0.1)">
       <use xlink:href="#DejaVuSans-30"/>
      </g>
     </g>
    </g>
    <g id="ytick_13">
     <g id="line2d_22">
      <g>
       <use xlink:href="#ma02c3f4418" x="57.6" y="205.775983" style="stroke: #000000; stroke-width: 0.8"/>
      </g>
     </g>
     <g id="text_23">
      <!-- 2 -->
      <g transform="translate(44.2375 209.575201) scale(0.1 -0.1)">
       <use xlink:href="#DejaVuSans-32"/>
      </g>
     </g>
    </g>
    <g id="text_24">
     <!-- Probit variable 2 -->
     <g transform="translate(29.778125 278.445913) rotate(-90) scale(0.1 -0.1)">
      <use xlink:href="#DejaVuSans-50"/>
      <use xlink:href="#DejaVuSans-72" x="58.552734"/>
      <use xlink:href="#DejaVuSans-6f" x="97.416016"/>
      <use xlink:href="#DejaVuSans-62" x="158.597656"/>
      <use xlink:href="#DejaVuSans-69" x="222.074219"/>
      <use xlink:href="#DejaVuSans-74" x="249.857422"/>
      <use xlink:href="#DejaVuSans-20" x="289.066406"/>
      <use xlink:href="#DejaVuSans-76" x="320.853516"/>
      <use xlink:href="#DejaVuSans-61" x="380.033203"/>
      <use xlink:href="#DejaVuSans-72" x="441.3125"/>
      <use xlink:href="#DejaVuSans-69" x="482.425781"/>
      <use xlink:href="#DejaVuSans-61" x="510.208984"/>
      <use xlink:href="#DejaVuSans-62" x="571.488281"/>
      <use xlink:href="#DejaVuSans-6c" x="634.964844"/>
      <use xlink:href="#DejaVuSans-65" x="662.748047"/>
      <use xlink:href="#DejaVuSans-20" x="724.271484"/>
      <use xlink:href="#DejaVuSans-32" x="756.058594"/>
     </g>
    </g>
   </g>
   <g id="patch_13">
    <path d="M 57.6 288 
L 57.6 186.923077 
" style="fill: none; stroke: #000000; stroke-width: 0.8; stroke-linejoin: miter; stroke-linecap: square"/>
   </g>
   <g id="patch_14">
    <path d="M 164.571429 288 
L 164.571429 186.923077 
" style="fill: none; stroke: #000000; stroke-width: 0.8; stroke-linejoin: miter; stroke-linecap: square"/>
   </g>
   <g id="patch_15">
    <path d="M 57.6 288 
L 164.571429 288 
" style="fill: none; stroke: #000000; stroke-width: 0.8; stroke-linejoin: miter; stroke-linecap: square"/>
   </g>
   <g id="patch_16">
    <path d="M 57.6 186.923077 
L 164.571429 186.923077 
" style="fill: none; stroke: #000000; stroke-width: 0.8; stroke-linejoin: miter; stroke-linecap: square"/>
   </g>
   <g id="text_25">
    <!-- True PDF -->
    <g transform="translate(84.749464 180.923077) scale(0.12 -0.12)">
     <use xlink:href="#DejaVuSans-54"/>
     <use xlink:href="#DejaVuSans-72" x="46.333984"/>
     <use xlink:href="#DejaVuSans-75" x="87.447266"/>
     <use xlink:href="#DejaVuSans-65" x="150.826172"/>
     <use xlink:href="#DejaVuSans-20" x="212.349609"/>
     <use xlink:href="#DejaVuSans-50" x="244.136719"/>
     <use xlink:href="#DejaVuSans-44" x="304.439453"/>
     <use xlink:href="#DejaVuSans-46" x="381.441406"/>
    </g>
   </g>
  </g>
  <g id="axes_4">
   <g id="patch_17">
    <path d="M 175.268571 288 
L 282.24 288 
L 282.24 186.923077 
L 175.268571 186.923077 
z
" style="fill: #ffffff"/>
   </g>
   <g id="PathCollection_16">
    <path d="M 251.676735 270.972666 
L 255.497143 271.814007 
L 259.317551 271.626883 
L 261.493896 270.572944 
L 263.137959 269.187222 
L 264.484382 267.087533 
L 265.202517 263.602122 
L 264.581633 260.116711 
L 263.17208 256.6313 
L 263.137959 256.558983 
L 261.948883 253.145889 
L 259.983661 249.660477 
L 259.317551 248.706187 
L 257.901709 246.175066 
L 255.497143 243.288893 
L 255.111621 242.689655 
L 252.707434 239.204244 
L 251.676735 238.08508 
L 249.771118 235.718833 
L 247.856327 233.550605 
L 246.749876 232.233422 
L 244.035918 229.630398 
L 243.292669 228.748011 
L 240.21551 225.85325 
L 239.56244 225.262599 
L 236.395102 222.281961 
L 235.798881 221.777188 
L 232.574694 219.095795 
L 231.389504 218.291777 
L 228.754286 216.143119 
L 226.636336 214.806366 
L 224.933878 213.576296 
L 221.454297 211.320955 
L 221.113469 211.0798 
L 217.293061 208.814967 
L 215.454917 207.835544 
L 213.472653 206.614693 
L 209.652245 205.243838 
L 206.115236 204.350133 
L 205.831837 204.242477 
L 202.011429 203.434648 
L 198.19102 203.182942 
L 195.632271 204.350133 
L 194.370612 205.215148 
L 192.65661 207.835544 
L 192.35102 211.320955 
L 193.111191 214.806366 
L 194.145979 218.291777 
L 194.370612 218.731196 
L 195.5881 221.777188 
L 197.477414 225.262599 
L 198.19102 226.29153 
L 199.56764 228.748011 
L 202.011429 232.080839 
L 202.102594 232.233422 
L 204.6319 235.718833 
L 205.831837 237.09092 
L 207.516936 239.204244 
L 209.652245 241.498739 
L 210.686516 242.689655 
L 213.472653 245.495939 
L 214.16921 246.175066 
L 217.293061 249.178283 
L 217.768558 249.660477 
L 221.113469 252.477347 
L 221.986329 253.145889 
L 224.933878 255.800972 
L 225.968853 256.6313 
L 228.754286 258.85085 
L 230.600162 260.116711 
L 232.574694 261.693183 
L 236.207812 263.602122 
L 236.395102 263.72482 
L 240.21551 265.931702 
L 242.463699 267.087533 
L 244.035918 268.157317 
L 247.856327 269.906908 
L 250.428308 270.572944 
z
M 241.182356 260.116711 
L 240.21551 259.769889 
L 236.395102 257.865139 
L 234.543827 256.6313 
L 232.574694 255.55358 
L 229.309386 253.145889 
L 228.754286 252.745356 
L 224.933878 249.928147 
L 224.60696 249.660477 
L 221.113469 246.51042 
L 220.76838 246.175066 
L 217.371167 242.689655 
L 217.293061 242.611166 
L 213.968428 239.204244 
L 213.472653 238.545456 
L 211.097288 235.718833 
L 209.652245 233.757238 
L 208.380141 232.233422 
L 206.047699 228.748011 
L 205.831837 228.308212 
L 204.287536 225.262599 
L 202.991166 221.777188 
L 202.644626 218.291777 
L 203.398708 214.806366 
L 205.831837 213.151307 
L 209.652245 212.763217 
L 213.472653 213.604743 
L 216.202279 214.806366 
L 217.293061 215.174744 
L 221.113469 217.032333 
L 223.111341 218.291777 
L 224.933878 219.334037 
L 228.235446 221.777188 
L 228.754286 222.130445 
L 232.574694 225.030696 
L 232.840862 225.262599 
L 236.395102 228.399867 
L 236.778894 228.748011 
L 240.192313 232.233422 
L 240.21551 232.2585 
L 243.368046 235.718833 
L 244.035918 236.465806 
L 246.550874 239.204244 
L 247.856327 241.364988 
L 248.893235 242.689655 
L 251.380944 246.175066 
L 251.676735 246.811087 
L 253.192991 249.660477 
L 254.469622 253.145889 
L 254.903493 256.6313 
L 253.883636 260.116711 
L 251.676735 261.698488 
L 247.856327 262.042182 
L 244.035918 261.362876 
z
" clip-path="url(#p7bea39a8fd)" style="fill: #deebf7"/>
   </g>
   <g id="PathCollection_17">
    <path d="M 244.035918 261.362876 
L 247.856327 262.042182 
L 251.676735 261.698488 
L 253.883636 260.116711 
L 254.903493 256.6313 
L 254.469622 253.145889 
L 253.192991 249.660477 
L 251.676735 246.811087 
L 251.380944 246.175066 
L 248.893235 242.689655 
L 247.856327 241.364988 
L 246.550874 239.204244 
L 244.035918 236.465806 
L 243.368046 235.718833 
L 240.21551 232.2585 
L 240.192313 232.233422 
L 236.778894 228.748011 
L 236.395102 228.399867 
L 232.840862 225.262599 
L 232.574694 225.030696 
L 228.754286 222.130445 
L 228.235446 221.777188 
L 224.933878 219.334037 
L 223.111341 218.291777 
L 221.113469 217.032333 
L 217.293061 215.174744 
L 216.202279 214.806366 
L 213.472653 213.604743 
L 209.652245 212.763217 
L 205.831837 213.151307 
L 203.398708 214.806366 
L 202.644626 218.291777 
L 202.991166 221.777188 
L 204.287536 225.262599 
L 205.831837 228.308212 
L 206.047699 228.748011 
L 208.380141 232.233422 
L 209.652245 233.757238 
L 211.097288 235.718833 
L 213.472653 238.545456 
L 213.968428 239.204244 
L 217.293061 242.611166 
L 217.371167 242.689655 
L 220.76838 246.175066 
L 221.113469 246.51042 
L 224.60696 249.660477 
L 224.933878 249.928147 
L 228.754286 252.745356 
L 229.309386 253.145889 
L 232.574694 255.55358 
L 234.543827 256.6313 
L 236.395102 257.865139 
L 240.21551 259.769889 
L 241.182356 260.116711 
z
M 235.143814 253.145889 
L 232.574694 251.811238 
L 229.678814 249.660477 
L 228.754286 248.997556 
L 225.099135 246.175066 
L 224.933878 246.044864 
L 221.326671 242.689655 
L 221.113469 242.489893 
L 217.798604 239.204244 
L 217.293061 238.614101 
L 214.947816 235.718833 
L 213.472653 233.548475 
L 212.438887 232.233422 
L 210.59735 228.748011 
L 209.652245 226.42755 
L 209.075632 225.262599 
L 208.745082 221.777188 
L 209.652245 220.052511 
L 213.472653 218.417676 
L 217.293061 219.283888 
L 221.113469 221.012555 
L 222.400808 221.777188 
L 224.933878 223.159927 
L 227.954412 225.262599 
L 228.754286 225.763256 
L 232.50853 228.748011 
L 232.574694 228.800539 
L 236.232461 232.233422 
L 236.395102 232.412925 
L 239.525332 235.718833 
L 240.21551 236.454186 
L 242.747374 239.204244 
L 244.035918 241.074297 
L 245.139994 242.689655 
L 247.102877 246.175066 
L 247.856327 248.55311 
L 248.323035 249.660477 
L 249.010749 253.145889 
L 247.856327 255.093077 
L 244.035918 256.053926 
L 240.21551 255.543363 
L 236.395102 253.854348 
z
" clip-path="url(#p7bea39a8fd)" style="fill: #9dcae1"/>
   </g>
   <g id="PathCollection_18">
    <path d="M 236.395102 253.854348 
L 240.21551 255.543363 
L 244.035918 256.053926 
L 247.856327 255.093077 
L 249.010749 253.145889 
L 248.323035 249.660477 
L 247.856327 248.55311 
L 247.102877 246.175066 
L 245.139994 242.689655 
L 244.035918 241.074297 
L 242.747374 239.204244 
L 240.21551 236.454186 
L 239.525332 235.718833 
L 236.395102 232.412925 
L 236.232461 232.233422 
L 232.574694 228.800539 
L 232.50853 228.748011 
L 228.754286 225.763256 
L 227.954412 225.262599 
L 224.933878 223.159927 
L 222.400808 221.777188 
L 221.113469 221.012555 
L 217.293061 219.283888 
L 213.472653 218.417676 
L 209.652245 220.052511 
L 208.745082 221.777188 
L 209.075632 225.262599 
L 209.652245 226.42755 
L 210.59735 228.748011 
L 212.438887 232.233422 
L 213.472653 233.548475 
L 214.947816 235.718833 
L 217.293061 238.614101 
L 217.798604 239.204244 
L 221.113469 242.489893 
L 221.326671 242.689655 
L 224.933878 246.044864 
L 225.099135 246.175066 
L 228.754286 248.997556 
L 229.678814 249.660477 
L 232.574694 251.811238 
L 235.143814 253.145889 
z
M 235.169216 249.660477 
L 232.574694 248.381182 
L 229.467365 246.175066 
L 228.754286 245.676941 
L 224.963174 242.689655 
L 224.933878 242.663975 
L 221.251402 239.204244 
L 221.113469 239.060582 
L 218.274793 235.718833 
L 217.293061 234.180301 
L 216.045744 232.233422 
L 214.730815 228.748011 
L 214.981405 225.262599 
L 217.293061 223.970689 
L 221.113469 224.60714 
L 222.328983 225.262599 
L 224.933878 226.64833 
L 228.478199 228.748011 
L 228.754286 228.923617 
L 232.574694 231.927274 
L 232.900897 232.233422 
L 236.024669 235.718833 
L 236.395102 236.126823 
L 239.246637 239.204244 
L 240.21551 240.775922 
L 241.432025 242.689655 
L 243.221358 246.175066 
L 242.565481 249.660477 
L 240.21551 251.080217 
L 236.395102 250.282852 
z
" clip-path="url(#p7bea39a8fd)" style="fill: #4191c6"/>
   </g>
   <g id="PathCollection_19">
    <path d="M 236.395102 250.282852 
L 240.21551 251.080217 
L 242.565481 249.660477 
L 243.221358 246.175066 
L 241.432025 242.689655 
L 240.21551 240.775922 
L 239.246637 239.204244 
L 236.395102 236.126823 
L 236.024669 235.718833 
L 232.900897 232.233422 
L 232.574694 231.927274 
L 228.754286 228.923617 
L 228.478199 228.748011 
L 224.933878 226.64833 
L 222.328983 225.262599 
L 221.113469 224.60714 
L 217.293061 223.970689 
L 214.981405 225.262599 
L 214.730815 228.748011 
L 216.045744 232.233422 
L 217.293061 234.180301 
L 218.274793 235.718833 
L 221.113469 239.060582 
L 221.251402 239.204244 
L 224.933878 242.663975 
L 224.963174 242.689655 
L 228.754286 245.676941 
L 229.467365 246.175066 
L 232.574694 248.381182 
L 235.169216 249.660477 
z
M 229.755295 242.689655 
L 228.754286 242.030394 
L 225.459547 239.204244 
L 224.933878 238.665467 
L 222.314203 235.718833 
L 221.113469 233.208633 
L 220.709776 232.233422 
L 221.113469 231.080143 
L 224.933878 230.693952 
L 227.712009 232.233422 
L 228.754286 232.901774 
L 232.164613 235.718833 
L 232.574694 236.125687 
L 235.080054 239.204244 
L 236.395102 241.533378 
L 236.958673 242.689655 
L 236.395102 244.479509 
L 232.574694 244.348209 
z
" clip-path="url(#p7bea39a8fd)" style="fill: #08509b"/>
   </g>
   <g id="PathCollection_20">
    <path d="M 232.574694 244.348209 
L 236.395102 244.479509 
L 236.958673 242.689655 
L 236.395102 241.533378 
L 235.080054 239.204244 
L 232.574694 236.125687 
L 232.164613 235.718833 
L 228.754286 232.901774 
L 227.712009 232.233422 
L 224.933878 230.693952 
L 221.113469 231.080143 
L 220.709776 232.233422 
L 221.113469 233.208633 
L 222.314203 235.718833 
L 224.933878 238.665467 
L 225.459547 239.204244 
L 228.754286 242.030394 
L 229.755295 242.689655 
z
" clip-path="url(#p7bea39a8fd)" style="fill: #08306b"/>
   </g>
   <g id="matplotlib.axis_7">
    <g id="xtick_10">
     <g id="line2d_23">
      <g>
       <use xlink:href="#me8fce02d56" x="186.787681" y="288" style="stroke: #000000; stroke-width: 0.8"/>
      </g>
     </g>
     <g id="text_26">
      <!-- −2.5 -->
      <g transform="translate(174.646275 302.598437) scale(0.1 -0.1)">
       <use xlink:href="#DejaVuSans-2212"/>
       <use xlink:href="#DejaVuSans-32" x="83.789062"/>
       <use xlink:href="#DejaVuSans-2e" x="147.412109"/>
       <use xlink:href="#DejaVuSans-35" x="179.199219"/>
      </g>
     </g>
    </g>
    <g id="xtick_11">
     <g id="line2d_24">
      <g>
       <use xlink:href="#me8fce02d56" x="228.754286" y="288" style="stroke: #000000; stroke-width: 0.8"/>
      </g>
     </g>
     <g id="text_27">
      <!-- 0.0 -->
      <g transform="translate(220.802723 302.598437) scale(0.1 -0.1)">
       <use xlink:href="#DejaVuSans-30"/>
       <use xlink:href="#DejaVuSans-2e" x="63.623047"/>
       <use xlink:href="#DejaVuSans-30" x="95.410156"/>
      </g>
     </g>
    </g>
    <g id="xtick_12">
     <g id="line2d_25">
      <g>
       <use xlink:href="#me8fce02d56" x="270.720891" y="288" style="stroke: #000000; stroke-width: 0.8"/>
      </g>
     </g>
     <g id="text_28">
      <!-- 2.5 -->
      <g transform="translate(262.769328 302.598437) scale(0.1 -0.1)">
       <use xlink:href="#DejaVuSans-32"/>
       <use xlink:href="#DejaVuSans-2e" x="63.623047"/>
       <use xlink:href="#DejaVuSans-35" x="95.410156"/>
      </g>
     </g>
    </g>
    <g id="text_29">
     <!-- Probit variable 1 -->
     <g transform="translate(187.769911 316.276562) scale(0.1 -0.1)">
      <use xlink:href="#DejaVuSans-50"/>
      <use xlink:href="#DejaVuSans-72" x="58.552734"/>
      <use xlink:href="#DejaVuSans-6f" x="97.416016"/>
      <use xlink:href="#DejaVuSans-62" x="158.597656"/>
      <use xlink:href="#DejaVuSans-69" x="222.074219"/>
      <use xlink:href="#DejaVuSans-74" x="249.857422"/>
      <use xlink:href="#DejaVuSans-20" x="289.066406"/>
      <use xlink:href="#DejaVuSans-76" x="320.853516"/>
      <use xlink:href="#DejaVuSans-61" x="380.033203"/>
      <use xlink:href="#DejaVuSans-72" x="441.3125"/>
      <use xlink:href="#DejaVuSans-69" x="482.425781"/>
      <use xlink:href="#DejaVuSans-61" x="510.208984"/>
      <use xlink:href="#DejaVuSans-62" x="571.488281"/>
      <use xlink:href="#DejaVuSans-6c" x="634.964844"/>
      <use xlink:href="#DejaVuSans-65" x="662.748047"/>
      <use xlink:href="#DejaVuSans-20" x="724.271484"/>
      <use xlink:href="#DejaVuSans-31" x="756.058594"/>
     </g>
    </g>
   </g>
   <g id="matplotlib.axis_8">
    <g id="ytick_14">
     <g id="line2d_26">
      <g>
       <use xlink:href="#ma02c3f4418" x="175.268571" y="269.147094" style="stroke: #000000; stroke-width: 0.8"/>
      </g>
     </g>
    </g>
    <g id="ytick_15">
     <g id="line2d_27">
      <g>
       <use xlink:href="#ma02c3f4418" x="175.268571" y="237.461538" style="stroke: #000000; stroke-width: 0.8"/>
      </g>
     </g>
    </g>
    <g id="ytick_16">
     <g id="line2d_28">
      <g>
       <use xlink:href="#ma02c3f4418" x="175.268571" y="205.775983" style="stroke: #000000; stroke-width: 0.8"/>
      </g>
     </g>
    </g>
   </g>
   <g id="patch_18">
    <path d="M 175.268571 288 
L 175.268571 186.923077 
" style="fill: none; stroke: #000000; stroke-width: 0.8; stroke-linejoin: miter; stroke-linecap: square"/>
   </g>
   <g id="patch_19">
    <path d="M 282.24 288 
L 282.24 186.923077 
" style="fill: none; stroke: #000000; stroke-width: 0.8; stroke-linejoin: miter; stroke-linecap: square"/>
   </g>
   <g id="patch_20">
    <path d="M 175.268571 288 
L 282.24 288 
" style="fill: none; stroke: #000000; stroke-width: 0.8; stroke-linejoin: miter; stroke-linecap: square"/>
   </g>
   <g id="patch_21">
    <path d="M 175.268571 186.923077 
L 282.24 186.923077 
" style="fill: none; stroke: #000000; stroke-width: 0.8; stroke-linejoin: miter; stroke-linecap: square"/>
   </g>
   <g id="text_30">
    <!-- Virt Mems' PDF -->
    <g transform="translate(183.308973 180.923077) scale(0.12 -0.12)">
     <use xlink:href="#DejaVuSans-56"/>
     <use xlink:href="#DejaVuSans-69" x="66.158203"/>
     <use xlink:href="#DejaVuSans-72" x="93.941406"/>
     <use xlink:href="#DejaVuSans-74" x="135.054688"/>
     <use xlink:href="#DejaVuSans-20" x="174.263672"/>
     <use xlink:href="#DejaVuSans-4d" x="206.050781"/>
     <use xlink:href="#DejaVuSans-65" x="292.330078"/>
     <use xlink:href="#DejaVuSans-6d" x="353.853516"/>
     <use xlink:href="#DejaVuSans-73" x="451.265625"/>
     <use xlink:href="#DejaVuSans-27" x="503.365234"/>
     <use xlink:href="#DejaVuSans-20" x="530.855469"/>
     <use xlink:href="#DejaVuSans-50" x="562.642578"/>
     <use xlink:href="#DejaVuSans-44" x="622.945312"/>
     <use xlink:href="#DejaVuSans-46" x="699.947266"/>
    </g>
   </g>
  </g>
 </g>
 <defs>
  <clipPath id="pa0b2ffb5aa">
   <rect x="57.6" y="25.2" width="106.971429" height="101.076923"/>
  </clipPath>
  <clipPath id="p55d27f79b9">
   <rect x="175.268571" y="25.2" width="106.971429" height="101.076923"/>
  </clipPath>
  <clipPath id="p87f99fc426">
   <rect x="57.6" y="186.923077" width="106.971429" height="101.076923"/>
  </clipPath>
  <clipPath id="p7bea39a8fd">
   <rect x="175.268571" y="186.923077" width="106.971429" height="101.076923"/>
  </clipPath>
 </defs>
</svg>
