<?xml version="1.0" encoding="utf-8" standalone="no"?>
<!DOCTYPE svg PUBLIC "-//W3C//DTD SVG 1.1//EN"
  "http://www.w3.org/Graphics/SVG/1.1/DTD/svg11.dtd">
<svg xmlns:xlink="http://www.w3.org/1999/xlink" width="288pt" height="288pt" viewBox="0 0 288 288" xmlns="http://www.w3.org/2000/svg" version="1.1">
 <metadata>
  <rdf:RDF xmlns:dc="http://purl.org/dc/elements/1.1/" xmlns:cc="http://creativecommons.org/ns#" xmlns:rdf="http://www.w3.org/1999/02/22-rdf-syntax-ns#">
   <cc:Work>
    <dc:type rdf:resource="http://purl.org/dc/dcmitype/StillImage"/>
    <dc:date>2023-08-03T10:39:00.973650</dc:date>
    <dc:format>image/svg+xml</dc:format>
    <dc:creator>
     <cc:Agent>
      <dc:title>Matplotlib v3.7.1, https://matplotlib.org/</dc:title>
     </cc:Agent>
    </dc:creator>
   </cc:Work>
  </rdf:RDF>
 </metadata>
 <defs>
  <style type="text/css">*{stroke-linejoin: round; stroke-linecap: butt}</style>
 </defs>
 <g id="figure_1">
  <g id="patch_1">
   <path d="M 0 288 
L 288 288 
L 288 0 
L 0 0 
z
" style="fill: #ffffff"/>
  </g>
  <g id="axes_1">
   <g id="patch_2">
    <path d="M 43.2 172.8 
L 86.4 172.8 
L 86.4 28.8 
L 43.2 28.8 
z
" style="fill: #ffffff"/>
   </g>
   <g id="PathCollection_1">
    <defs>
     <path id="m8a639b8e6a" d="M -2.236068 2.236068 
L 2.236068 -2.236068 
M -2.236068 -2.236068 
L 2.236068 2.236068 
" style="stroke: #ff0000; stroke-width: 1.5"/>
    </defs>
    <g clip-path="url(#p40ea7c8e73)">
     <use xlink:href="#m8a639b8e6a" x="45.163636" y="84.372158" style="fill: #ff0000; stroke: #ff0000; stroke-width: 1.5"/>
     <use xlink:href="#m8a639b8e6a" x="45.163636" y="63.637979" style="fill: #ff0000; stroke: #ff0000; stroke-width: 1.5"/>
     <use xlink:href="#m8a639b8e6a" x="45.163636" y="109.94503" style="fill: #ff0000; stroke: #ff0000; stroke-width: 1.5"/>
     <use xlink:href="#m8a639b8e6a" x="45.163636" y="116.24795" style="fill: #ff0000; stroke: #ff0000; stroke-width: 1.5"/>
     <use xlink:href="#m8a639b8e6a" x="45.163636" y="128.041437" style="fill: #ff0000; stroke: #ff0000; stroke-width: 1.5"/>
     <use xlink:href="#m8a639b8e6a" x="45.163636" y="106.613315" style="fill: #ff0000; stroke: #ff0000; stroke-width: 1.5"/>
     <use xlink:href="#m8a639b8e6a" x="45.163636" y="115.818798" style="fill: #ff0000; stroke: #ff0000; stroke-width: 1.5"/>
     <use xlink:href="#m8a639b8e6a" x="45.163636" y="119.023633" style="fill: #ff0000; stroke: #ff0000; stroke-width: 1.5"/>
     <use xlink:href="#m8a639b8e6a" x="45.163636" y="104.697818" style="fill: #ff0000; stroke: #ff0000; stroke-width: 1.5"/>
     <use xlink:href="#m8a639b8e6a" x="45.163636" y="136.359418" style="fill: #ff0000; stroke: #ff0000; stroke-width: 1.5"/>
     <use xlink:href="#m8a639b8e6a" x="45.163636" y="151.423359" style="fill: #ff0000; stroke: #ff0000; stroke-width: 1.5"/>
     <use xlink:href="#m8a639b8e6a" x="45.163636" y="126.605069" style="fill: #ff0000; stroke: #ff0000; stroke-width: 1.5"/>
     <use xlink:href="#m8a639b8e6a" x="45.163636" y="109.093172" style="fill: #ff0000; stroke: #ff0000; stroke-width: 1.5"/>
     <use xlink:href="#m8a639b8e6a" x="45.163636" y="132.930249" style="fill: #ff0000; stroke: #ff0000; stroke-width: 1.5"/>
     <use xlink:href="#m8a639b8e6a" x="45.163636" y="64.967045" style="fill: #ff0000; stroke: #ff0000; stroke-width: 1.5"/>
     <use xlink:href="#m8a639b8e6a" x="45.163636" y="123.935283" style="fill: #ff0000; stroke: #ff0000; stroke-width: 1.5"/>
     <use xlink:href="#m8a639b8e6a" x="45.163636" y="152.981862" style="fill: #ff0000; stroke: #ff0000; stroke-width: 1.5"/>
     <use xlink:href="#m8a639b8e6a" x="45.163636" y="134.808307" style="fill: #ff0000; stroke: #ff0000; stroke-width: 1.5"/>
     <use xlink:href="#m8a639b8e6a" x="45.163636" y="81.862398" style="fill: #ff0000; stroke: #ff0000; stroke-width: 1.5"/>
     <use xlink:href="#m8a639b8e6a" x="45.163636" y="139.82537" style="fill: #ff0000; stroke: #ff0000; stroke-width: 1.5"/>
     <use xlink:href="#m8a639b8e6a" x="45.163636" y="151.836174" style="fill: #ff0000; stroke: #ff0000; stroke-width: 1.5"/>
     <use xlink:href="#m8a639b8e6a" x="45.163636" y="134.567248" style="fill: #ff0000; stroke: #ff0000; stroke-width: 1.5"/>
     <use xlink:href="#m8a639b8e6a" x="45.163636" y="142.328847" style="fill: #ff0000; stroke: #ff0000; stroke-width: 1.5"/>
     <use xlink:href="#m8a639b8e6a" x="45.163636" y="140.262731" style="fill: #ff0000; stroke: #ff0000; stroke-width: 1.5"/>
     <use xlink:href="#m8a639b8e6a" x="45.163636" y="149.907042" style="fill: #ff0000; stroke: #ff0000; stroke-width: 1.5"/>
     <use xlink:href="#m8a639b8e6a" x="45.163636" y="139.588481" style="fill: #ff0000; stroke: #ff0000; stroke-width: 1.5"/>
     <use xlink:href="#m8a639b8e6a" x="45.163636" y="147.449484" style="fill: #ff0000; stroke: #ff0000; stroke-width: 1.5"/>
     <use xlink:href="#m8a639b8e6a" x="45.163636" y="126.524737" style="fill: #ff0000; stroke: #ff0000; stroke-width: 1.5"/>
     <use xlink:href="#m8a639b8e6a" x="45.163636" y="126.555675" style="fill: #ff0000; stroke: #ff0000; stroke-width: 1.5"/>
     <use xlink:href="#m8a639b8e6a" x="45.163636" y="143.01536" style="fill: #ff0000; stroke: #ff0000; stroke-width: 1.5"/>
     <use xlink:href="#m8a639b8e6a" x="45.163636" y="143.371805" style="fill: #ff0000; stroke: #ff0000; stroke-width: 1.5"/>
     <use xlink:href="#m8a639b8e6a" x="45.163636" y="151.833157" style="fill: #ff0000; stroke: #ff0000; stroke-width: 1.5"/>
     <use xlink:href="#m8a639b8e6a" x="45.163636" y="133.413298" style="fill: #ff0000; stroke: #ff0000; stroke-width: 1.5"/>
     <use xlink:href="#m8a639b8e6a" x="45.163636" y="146.337642" style="fill: #ff0000; stroke: #ff0000; stroke-width: 1.5"/>
     <use xlink:href="#m8a639b8e6a" x="45.163636" y="142.557421" style="fill: #ff0000; stroke: #ff0000; stroke-width: 1.5"/>
     <use xlink:href="#m8a639b8e6a" x="45.163636" y="116.376812" style="fill: #ff0000; stroke: #ff0000; stroke-width: 1.5"/>
     <use xlink:href="#m8a639b8e6a" x="45.163636" y="128.354264" style="fill: #ff0000; stroke: #ff0000; stroke-width: 1.5"/>
     <use xlink:href="#m8a639b8e6a" x="45.163636" y="133.296781" style="fill: #ff0000; stroke: #ff0000; stroke-width: 1.5"/>
     <use xlink:href="#m8a639b8e6a" x="45.163636" y="146.656291" style="fill: #ff0000; stroke: #ff0000; stroke-width: 1.5"/>
     <use xlink:href="#m8a639b8e6a" x="45.163636" y="135.369578" style="fill: #ff0000; stroke: #ff0000; stroke-width: 1.5"/>
     <use xlink:href="#m8a639b8e6a" x="45.163636" y="138.077202" style="fill: #ff0000; stroke: #ff0000; stroke-width: 1.5"/>
     <use xlink:href="#m8a639b8e6a" x="45.163636" y="140.886773" style="fill: #ff0000; stroke: #ff0000; stroke-width: 1.5"/>
     <use xlink:href="#m8a639b8e6a" x="45.163636" y="54.633811" style="fill: #ff0000; stroke: #ff0000; stroke-width: 1.5"/>
     <use xlink:href="#m8a639b8e6a" x="45.163636" y="111.723243" style="fill: #ff0000; stroke: #ff0000; stroke-width: 1.5"/>
     <use xlink:href="#m8a639b8e6a" x="45.163636" y="135.286514" style="fill: #ff0000; stroke: #ff0000; stroke-width: 1.5"/>
     <use xlink:href="#m8a639b8e6a" x="45.163636" y="122.270113" style="fill: #ff0000; stroke: #ff0000; stroke-width: 1.5"/>
     <use xlink:href="#m8a639b8e6a" x="45.163636" y="113.597658" style="fill: #ff0000; stroke: #ff0000; stroke-width: 1.5"/>
     <use xlink:href="#m8a639b8e6a" x="45.163636" y="114.882603" style="fill: #ff0000; stroke: #ff0000; stroke-width: 1.5"/>
     <use xlink:href="#m8a639b8e6a" x="45.163636" y="103.631529" style="fill: #ff0000; stroke: #ff0000; stroke-width: 1.5"/>
     <use xlink:href="#m8a639b8e6a" x="45.163636" y="124.114661" style="fill: #ff0000; stroke: #ff0000; stroke-width: 1.5"/>
    </g>
   </g>
   <g id="matplotlib.axis_1">
    <g id="xtick_1">
     <g id="line2d_1">
      <defs>
       <path id="md1a41ebfd9" d="M 0 0 
L 0 3.5 
" style="stroke: #000000; stroke-width: 0.8"/>
      </defs>
      <g>
       <use xlink:href="#md1a41ebfd9" x="45.163636" y="172.8" style="stroke: #000000; stroke-width: 0.8"/>
      </g>
     </g>
     <g id="text_1">
      <!-- 0.0 -->
      <g transform="translate(37.212074 187.398438) scale(0.1 -0.1)">
       <defs>
        <path id="DejaVuSans-30" d="M 2034 4250 
Q 1547 4250 1301 3770 
Q 1056 3291 1056 2328 
Q 1056 1369 1301 889 
Q 1547 409 2034 409 
Q 2525 409 2770 889 
Q 3016 1369 3016 2328 
Q 3016 3291 2770 3770 
Q 2525 4250 2034 4250 
z
M 2034 4750 
Q 2819 4750 3233 4129 
Q 3647 3509 3647 2328 
Q 3647 1150 3233 529 
Q 2819 -91 2034 -91 
Q 1250 -91 836 529 
Q 422 1150 422 2328 
Q 422 3509 836 4129 
Q 1250 4750 2034 4750 
z
" transform="scale(0.015625)"/>
        <path id="DejaVuSans-2e" d="M 684 794 
L 1344 794 
L 1344 0 
L 684 0 
L 684 794 
z
" transform="scale(0.015625)"/>
       </defs>
       <use xlink:href="#DejaVuSans-30"/>
       <use xlink:href="#DejaVuSans-2e" x="63.623047"/>
       <use xlink:href="#DejaVuSans-30" x="95.410156"/>
      </g>
     </g>
    </g>
    <g id="xtick_2">
     <g id="line2d_2">
      <g>
       <use xlink:href="#md1a41ebfd9" x="68.84462" y="172.8" style="stroke: #000000; stroke-width: 0.8"/>
      </g>
     </g>
     <g id="text_2">
      <!-- 0.5 -->
      <g transform="translate(60.893058 187.398438) scale(0.1 -0.1)">
       <defs>
        <path id="DejaVuSans-35" d="M 691 4666 
L 3169 4666 
L 3169 4134 
L 1269 4134 
L 1269 2991 
Q 1406 3038 1543 3061 
Q 1681 3084 1819 3084 
Q 2600 3084 3056 2656 
Q 3513 2228 3513 1497 
Q 3513 744 3044 326 
Q 2575 -91 1722 -91 
Q 1428 -91 1123 -41 
Q 819 9 494 109 
L 494 744 
Q 775 591 1075 516 
Q 1375 441 1709 441 
Q 2250 441 2565 725 
Q 2881 1009 2881 1497 
Q 2881 1984 2565 2268 
Q 2250 2553 1709 2553 
Q 1456 2553 1204 2497 
Q 953 2441 691 2322 
L 691 4666 
z
" transform="scale(0.015625)"/>
       </defs>
       <use xlink:href="#DejaVuSans-30"/>
       <use xlink:href="#DejaVuSans-2e" x="63.623047"/>
       <use xlink:href="#DejaVuSans-35" x="95.410156"/>
      </g>
     </g>
    </g>
    <g id="text_3">
     <!-- PDF -->
     <g transform="translate(55.059375 201.076563) scale(0.1 -0.1)">
      <defs>
       <path id="DejaVuSans-50" d="M 1259 4147 
L 1259 2394 
L 2053 2394 
Q 2494 2394 2734 2622 
Q 2975 2850 2975 3272 
Q 2975 3691 2734 3919 
Q 2494 4147 2053 4147 
L 1259 4147 
z
M 628 4666 
L 2053 4666 
Q 2838 4666 3239 4311 
Q 3641 3956 3641 3272 
Q 3641 2581 3239 2228 
Q 2838 1875 2053 1875 
L 1259 1875 
L 1259 0 
L 628 0 
L 628 4666 
z
" transform="scale(0.015625)"/>
       <path id="DejaVuSans-44" d="M 1259 4147 
L 1259 519 
L 2022 519 
Q 2988 519 3436 956 
Q 3884 1394 3884 2338 
Q 3884 3275 3436 3711 
Q 2988 4147 2022 4147 
L 1259 4147 
z
M 628 4666 
L 1925 4666 
Q 3281 4666 3915 4102 
Q 4550 3538 4550 2338 
Q 4550 1131 3912 565 
Q 3275 0 1925 0 
L 628 0 
L 628 4666 
z
" transform="scale(0.015625)"/>
       <path id="DejaVuSans-46" d="M 628 4666 
L 3309 4666 
L 3309 4134 
L 1259 4134 
L 1259 2759 
L 3109 2759 
L 3109 2228 
L 1259 2228 
L 1259 0 
L 628 0 
L 628 4666 
z
" transform="scale(0.015625)"/>
      </defs>
      <use xlink:href="#DejaVuSans-50"/>
      <use xlink:href="#DejaVuSans-44" x="60.302734"/>
      <use xlink:href="#DejaVuSans-46" x="137.304688"/>
     </g>
    </g>
   </g>
   <g id="matplotlib.axis_2">
    <g id="ytick_1">
     <g id="line2d_3">
      <defs>
       <path id="md860556562" d="M 0 0 
L -3.5 0 
" style="stroke: #000000; stroke-width: 0.8"/>
      </defs>
      <g>
       <use xlink:href="#md860556562" x="43.2" y="156.8" style="stroke: #000000; stroke-width: 0.8"/>
      </g>
     </g>
     <g id="text_4">
      <!-- 0 -->
      <g transform="translate(29.8375 160.599219) scale(0.1 -0.1)">
       <use xlink:href="#DejaVuSans-30"/>
      </g>
     </g>
    </g>
    <g id="ytick_2">
     <g id="line2d_4">
      <g>
       <use xlink:href="#md860556562" x="43.2" y="124.8" style="stroke: #000000; stroke-width: 0.8"/>
      </g>
     </g>
     <g id="text_5">
      <!-- 1 -->
      <g transform="translate(29.8375 128.599219) scale(0.1 -0.1)">
       <defs>
        <path id="DejaVuSans-31" d="M 794 531 
L 1825 531 
L 1825 4091 
L 703 3866 
L 703 4441 
L 1819 4666 
L 2450 4666 
L 2450 531 
L 3481 531 
L 3481 0 
L 794 0 
L 794 531 
z
" transform="scale(0.015625)"/>
       </defs>
       <use xlink:href="#DejaVuSans-31"/>
      </g>
     </g>
    </g>
    <g id="ytick_3">
     <g id="line2d_5">
      <g>
       <use xlink:href="#md860556562" x="43.2" y="92.8" style="stroke: #000000; stroke-width: 0.8"/>
      </g>
     </g>
     <g id="text_6">
      <!-- 2 -->
      <g transform="translate(29.8375 96.599219) scale(0.1 -0.1)">
       <defs>
        <path id="DejaVuSans-32" d="M 1228 531 
L 3431 531 
L 3431 0 
L 469 0 
L 469 531 
Q 828 903 1448 1529 
Q 2069 2156 2228 2338 
Q 2531 2678 2651 2914 
Q 2772 3150 2772 3378 
Q 2772 3750 2511 3984 
Q 2250 4219 1831 4219 
Q 1534 4219 1204 4116 
Q 875 4013 500 3803 
L 500 4441 
Q 881 4594 1212 4672 
Q 1544 4750 1819 4750 
Q 2544 4750 2975 4387 
Q 3406 4025 3406 3419 
Q 3406 3131 3298 2873 
Q 3191 2616 2906 2266 
Q 2828 2175 2409 1742 
Q 1991 1309 1228 531 
z
" transform="scale(0.015625)"/>
       </defs>
       <use xlink:href="#DejaVuSans-32"/>
      </g>
     </g>
    </g>
    <g id="ytick_4">
     <g id="line2d_6">
      <g>
       <use xlink:href="#md860556562" x="43.2" y="60.8" style="stroke: #000000; stroke-width: 0.8"/>
      </g>
     </g>
     <g id="text_7">
      <!-- 3 -->
      <g transform="translate(29.8375 64.599219) scale(0.1 -0.1)">
       <defs>
        <path id="DejaVuSans-33" d="M 2597 2516 
Q 3050 2419 3304 2112 
Q 3559 1806 3559 1356 
Q 3559 666 3084 287 
Q 2609 -91 1734 -91 
Q 1441 -91 1130 -33 
Q 819 25 488 141 
L 488 750 
Q 750 597 1062 519 
Q 1375 441 1716 441 
Q 2309 441 2620 675 
Q 2931 909 2931 1356 
Q 2931 1769 2642 2001 
Q 2353 2234 1838 2234 
L 1294 2234 
L 1294 2753 
L 1863 2753 
Q 2328 2753 2575 2939 
Q 2822 3125 2822 3475 
Q 2822 3834 2567 4026 
Q 2313 4219 1838 4219 
Q 1578 4219 1281 4162 
Q 984 4106 628 3988 
L 628 4550 
Q 988 4650 1302 4700 
Q 1616 4750 1894 4750 
Q 2613 4750 3031 4423 
Q 3450 4097 3450 3541 
Q 3450 3153 3228 2886 
Q 3006 2619 2597 2516 
z
" transform="scale(0.015625)"/>
       </defs>
       <use xlink:href="#DejaVuSans-33"/>
      </g>
     </g>
    </g>
    <g id="ytick_5">
     <g id="line2d_7">
      <g>
       <use xlink:href="#md860556562" x="43.2" y="28.8" style="stroke: #000000; stroke-width: 0.8"/>
      </g>
     </g>
     <g id="text_8">
      <!-- 4 -->
      <g transform="translate(29.8375 32.599219) scale(0.1 -0.1)">
       <defs>
        <path id="DejaVuSans-34" d="M 2419 4116 
L 825 1625 
L 2419 1625 
L 2419 4116 
z
M 2253 4666 
L 3047 4666 
L 3047 1625 
L 3713 1625 
L 3713 1100 
L 3047 1100 
L 3047 0 
L 2419 0 
L 2419 1100 
L 313 1100 
L 313 1709 
L 2253 4666 
z
" transform="scale(0.015625)"/>
       </defs>
       <use xlink:href="#DejaVuSans-34"/>
      </g>
     </g>
    </g>
    <g id="text_9">
     <!-- Model variable 2 -->
     <g transform="translate(23.757812 142.344531) rotate(-90) scale(0.1 -0.1)">
      <defs>
       <path id="DejaVuSans-4d" d="M 628 4666 
L 1569 4666 
L 2759 1491 
L 3956 4666 
L 4897 4666 
L 4897 0 
L 4281 0 
L 4281 4097 
L 3078 897 
L 2444 897 
L 1241 4097 
L 1241 0 
L 628 0 
L 628 4666 
z
" transform="scale(0.015625)"/>
       <path id="DejaVuSans-6f" d="M 1959 3097 
Q 1497 3097 1228 2736 
Q 959 2375 959 1747 
Q 959 1119 1226 758 
Q 1494 397 1959 397 
Q 2419 397 2687 759 
Q 2956 1122 2956 1747 
Q 2956 2369 2687 2733 
Q 2419 3097 1959 3097 
z
M 1959 3584 
Q 2709 3584 3137 3096 
Q 3566 2609 3566 1747 
Q 3566 888 3137 398 
Q 2709 -91 1959 -91 
Q 1206 -91 779 398 
Q 353 888 353 1747 
Q 353 2609 779 3096 
Q 1206 3584 1959 3584 
z
" transform="scale(0.015625)"/>
       <path id="DejaVuSans-64" d="M 2906 2969 
L 2906 4863 
L 3481 4863 
L 3481 0 
L 2906 0 
L 2906 525 
Q 2725 213 2448 61 
Q 2172 -91 1784 -91 
Q 1150 -91 751 415 
Q 353 922 353 1747 
Q 353 2572 751 3078 
Q 1150 3584 1784 3584 
Q 2172 3584 2448 3432 
Q 2725 3281 2906 2969 
z
M 947 1747 
Q 947 1113 1208 752 
Q 1469 391 1925 391 
Q 2381 391 2643 752 
Q 2906 1113 2906 1747 
Q 2906 2381 2643 2742 
Q 2381 3103 1925 3103 
Q 1469 3103 1208 2742 
Q 947 2381 947 1747 
z
" transform="scale(0.015625)"/>
       <path id="DejaVuSans-65" d="M 3597 1894 
L 3597 1613 
L 953 1613 
Q 991 1019 1311 708 
Q 1631 397 2203 397 
Q 2534 397 2845 478 
Q 3156 559 3463 722 
L 3463 178 
Q 3153 47 2828 -22 
Q 2503 -91 2169 -91 
Q 1331 -91 842 396 
Q 353 884 353 1716 
Q 353 2575 817 3079 
Q 1281 3584 2069 3584 
Q 2775 3584 3186 3129 
Q 3597 2675 3597 1894 
z
M 3022 2063 
Q 3016 2534 2758 2815 
Q 2500 3097 2075 3097 
Q 1594 3097 1305 2825 
Q 1016 2553 972 2059 
L 3022 2063 
z
" transform="scale(0.015625)"/>
       <path id="DejaVuSans-6c" d="M 603 4863 
L 1178 4863 
L 1178 0 
L 603 0 
L 603 4863 
z
" transform="scale(0.015625)"/>
       <path id="DejaVuSans-20" transform="scale(0.015625)"/>
       <path id="DejaVuSans-76" d="M 191 3500 
L 800 3500 
L 1894 563 
L 2988 3500 
L 3597 3500 
L 2284 0 
L 1503 0 
L 191 3500 
z
" transform="scale(0.015625)"/>
       <path id="DejaVuSans-61" d="M 2194 1759 
Q 1497 1759 1228 1600 
Q 959 1441 959 1056 
Q 959 750 1161 570 
Q 1363 391 1709 391 
Q 2188 391 2477 730 
Q 2766 1069 2766 1631 
L 2766 1759 
L 2194 1759 
z
M 3341 1997 
L 3341 0 
L 2766 0 
L 2766 531 
Q 2569 213 2275 61 
Q 1981 -91 1556 -91 
Q 1019 -91 701 211 
Q 384 513 384 1019 
Q 384 1609 779 1909 
Q 1175 2209 1959 2209 
L 2766 2209 
L 2766 2266 
Q 2766 2663 2505 2880 
Q 2244 3097 1772 3097 
Q 1472 3097 1187 3025 
Q 903 2953 641 2809 
L 641 3341 
Q 956 3463 1253 3523 
Q 1550 3584 1831 3584 
Q 2591 3584 2966 3190 
Q 3341 2797 3341 1997 
z
" transform="scale(0.015625)"/>
       <path id="DejaVuSans-72" d="M 2631 2963 
Q 2534 3019 2420 3045 
Q 2306 3072 2169 3072 
Q 1681 3072 1420 2755 
Q 1159 2438 1159 1844 
L 1159 0 
L 581 0 
L 581 3500 
L 1159 3500 
L 1159 2956 
Q 1341 3275 1631 3429 
Q 1922 3584 2338 3584 
Q 2397 3584 2469 3576 
Q 2541 3569 2628 3553 
L 2631 2963 
z
" transform="scale(0.015625)"/>
       <path id="DejaVuSans-69" d="M 603 3500 
L 1178 3500 
L 1178 0 
L 603 0 
L 603 3500 
z
M 603 4863 
L 1178 4863 
L 1178 4134 
L 603 4134 
L 603 4863 
z
" transform="scale(0.015625)"/>
       <path id="DejaVuSans-62" d="M 3116 1747 
Q 3116 2381 2855 2742 
Q 2594 3103 2138 3103 
Q 1681 3103 1420 2742 
Q 1159 2381 1159 1747 
Q 1159 1113 1420 752 
Q 1681 391 2138 391 
Q 2594 391 2855 752 
Q 3116 1113 3116 1747 
z
M 1159 2969 
Q 1341 3281 1617 3432 
Q 1894 3584 2278 3584 
Q 2916 3584 3314 3078 
Q 3713 2572 3713 1747 
Q 3713 922 3314 415 
Q 2916 -91 2278 -91 
Q 1894 -91 1617 61 
Q 1341 213 1159 525 
L 1159 0 
L 581 0 
L 581 4863 
L 1159 4863 
L 1159 2969 
z
" transform="scale(0.015625)"/>
      </defs>
      <use xlink:href="#DejaVuSans-4d"/>
      <use xlink:href="#DejaVuSans-6f" x="86.279297"/>
      <use xlink:href="#DejaVuSans-64" x="147.460938"/>
      <use xlink:href="#DejaVuSans-65" x="210.9375"/>
      <use xlink:href="#DejaVuSans-6c" x="272.460938"/>
      <use xlink:href="#DejaVuSans-20" x="300.244141"/>
      <use xlink:href="#DejaVuSans-76" x="332.03125"/>
      <use xlink:href="#DejaVuSans-61" x="391.210938"/>
      <use xlink:href="#DejaVuSans-72" x="452.490234"/>
      <use xlink:href="#DejaVuSans-69" x="493.603516"/>
      <use xlink:href="#DejaVuSans-61" x="521.386719"/>
      <use xlink:href="#DejaVuSans-62" x="582.666016"/>
      <use xlink:href="#DejaVuSans-6c" x="646.142578"/>
      <use xlink:href="#DejaVuSans-65" x="673.925781"/>
      <use xlink:href="#DejaVuSans-20" x="735.449219"/>
      <use xlink:href="#DejaVuSans-32" x="767.236328"/>
     </g>
    </g>
   </g>
   <g id="line2d_8">
    <path d="M 45.163636 172.8 
L 45.163636 171.36 
L 45.163636 169.92 
L 45.163636 168.48 
L 45.163636 167.04 
L 45.163636 165.6 
L 45.163636 164.16 
L 45.163636 162.72 
L 45.163636 161.28 
L 45.163636 159.84 
L 45.163636 158.4 
L 45.163636 156.96 
L 45.163636 155.52 
L 45.163636 154.08 
L 69.679615 152.64 
L 78.290688 151.2 
L 81.969727 149.76 
L 83.723462 148.32 
L 84.41366 146.88 
L 84.436364 145.44 
L 84.013449 144 
L 83.283794 142.56 
L 82.3406 141.12 
L 81.249403 139.68 
L 80.0578 138.24 
L 78.801155 136.8 
L 77.506156 135.36 
L 76.19316 133.92 
L 74.877787 132.48 
L 73.572045 131.04 
L 72.285153 129.6 
L 71.024144 128.16 
L 69.794328 126.72 
L 68.599638 125.28 
L 67.442912 123.84 
L 66.326105 122.4 
L 65.250463 120.96 
L 64.216661 119.52 
L 63.224914 118.08 
L 62.27507 116.64 
L 61.366683 115.2 
L 60.499075 113.76 
L 59.671383 112.32 
L 58.882607 110.88 
L 58.131636 109.44 
L 57.417283 108 
L 56.738304 106.56 
L 56.093421 105.12 
L 55.481333 103.68 
L 54.900735 102.24 
L 54.350324 100.8 
L 53.828809 99.36 
L 53.334919 97.92 
L 52.867408 96.48 
L 52.425059 95.04 
L 52.006687 93.6 
L 51.611144 92.16 
L 51.237318 90.72 
L 50.884137 89.28 
L 50.550565 87.84 
L 50.23561 86.4 
L 49.938316 84.96 
L 49.657769 83.52 
L 49.393093 82.08 
L 49.143452 80.64 
L 48.908045 79.2 
L 48.68611 77.76 
L 48.476919 76.32 
L 48.279781 74.88 
L 48.094036 73.44 
L 47.919058 72 
L 47.754251 70.56 
L 47.599051 69.12 
L 47.45292 67.68 
L 47.315351 66.24 
L 47.18586 64.8 
L 47.063991 63.36 
L 46.94931 61.92 
L 46.841409 60.48 
L 46.739898 59.04 
L 46.644411 57.6 
L 46.554601 56.16 
L 46.470141 54.72 
L 46.39072 53.28 
L 46.316046 51.84 
L 46.245842 50.4 
L 46.179846 48.96 
L 46.117814 47.52 
L 46.059511 46.08 
L 46.00472 44.64 
L 45.953232 43.2 
L 45.904853 41.76 
L 45.859398 40.32 
L 45.816695 38.88 
L 45.77658 37.44 
L 45.738899 36 
L 45.703506 34.56 
L 45.670266 33.12 
L 45.639049 31.68 
L 45.609734 30.24 
L 45.582208 28.8 
" clip-path="url(#p40ea7c8e73)" style="fill: none; stroke: #ff0000; stroke-opacity: 0; stroke-width: 1.5; stroke-linecap: square"/>
   </g>
   <g id="line2d_9">
    <path d="M 45.163636 172.8 
L 45.163636 171.36 
L 45.163636 169.92 
L 45.163636 168.48 
L 45.163636 167.04 
L 45.163636 165.6 
L 45.163636 164.16 
L 45.163636 162.72 
L 45.163636 161.28 
L 45.163636 159.84 
L 45.163636 158.4 
L 45.163636 156.96 
L 45.163636 155.52 
L 45.163636 154.08 
L 69.679615 152.64 
L 78.290688 151.2 
L 81.969727 149.76 
L 83.723462 148.32 
L 84.41366 146.88 
L 84.436364 145.44 
L 84.013449 144 
L 83.283794 142.56 
L 82.3406 141.12 
L 81.249403 139.68 
L 80.0578 138.24 
L 78.801155 136.8 
L 77.506156 135.36 
L 76.19316 133.92 
L 74.877787 132.48 
L 73.572045 131.04 
L 72.285153 129.6 
L 71.024144 128.16 
L 69.794328 126.72 
L 68.599638 125.28 
L 67.442912 123.84 
L 66.326105 122.4 
L 65.250463 120.96 
L 64.216661 119.52 
L 63.224914 118.08 
L 62.27507 116.64 
L 61.366683 115.2 
L 60.499075 113.76 
L 59.671383 112.32 
L 58.882607 110.88 
L 58.131636 109.44 
L 57.417283 108 
L 56.738304 106.56 
L 56.093421 105.12 
L 55.481333 103.68 
L 54.900735 102.24 
L 54.350324 100.8 
L 53.828809 99.36 
L 53.334919 97.92 
L 52.867408 96.48 
L 52.425059 95.04 
L 52.006687 93.6 
L 51.611144 92.16 
L 51.237318 90.72 
L 50.884137 89.28 
L 50.550565 87.84 
L 50.23561 86.4 
L 49.938316 84.96 
L 49.657769 83.52 
L 49.393093 82.08 
L 49.143452 80.64 
L 48.908045 79.2 
L 48.68611 77.76 
L 48.476919 76.32 
L 48.279781 74.88 
L 48.094036 73.44 
L 47.919058 72 
L 47.754251 70.56 
L 47.599051 69.12 
L 47.45292 67.68 
L 47.315351 66.24 
L 47.18586 64.8 
L 47.063991 63.36 
L 46.94931 61.92 
L 46.841409 60.48 
L 46.739898 59.04 
L 46.644411 57.6 
L 46.554601 56.16 
L 46.470141 54.72 
L 46.39072 53.28 
L 46.316046 51.84 
L 46.245842 50.4 
L 46.179846 48.96 
L 46.117814 47.52 
L 46.059511 46.08 
L 46.00472 44.64 
L 45.953232 43.2 
L 45.904853 41.76 
L 45.859398 40.32 
L 45.816695 38.88 
L 45.77658 37.44 
L 45.738899 36 
L 45.703506 34.56 
L 45.670266 33.12 
L 45.639049 31.68 
L 45.609734 30.24 
L 45.582208 28.8 
" clip-path="url(#p40ea7c8e73)" style="fill: none; stroke: #ff0000; stroke-width: 1.5; stroke-linecap: square"/>
   </g>
   <g id="patch_3">
    <path d="M 43.2 172.8 
L 43.2 28.8 
" style="fill: none; stroke: #000000; stroke-width: 0.8; stroke-linejoin: miter; stroke-linecap: square"/>
   </g>
   <g id="patch_4">
    <path d="M 86.4 172.8 
L 86.4 28.8 
" style="fill: none; stroke: #000000; stroke-width: 0.8; stroke-linejoin: miter; stroke-linecap: square"/>
   </g>
   <g id="patch_5">
    <path d="M 43.2 172.8 
L 86.4 172.8 
" style="fill: none; stroke: #000000; stroke-width: 0.8; stroke-linejoin: miter; stroke-linecap: square"/>
   </g>
   <g id="patch_6">
    <path d="M 43.2 28.8 
L 86.4 28.8 
" style="fill: none; stroke: #000000; stroke-width: 0.8; stroke-linejoin: miter; stroke-linecap: square"/>
   </g>
  </g>
  <g id="axes_2">
   <g id="patch_7">
    <path d="M 115.2 172.8 
L 259.2 172.8 
L 259.2 28.8 
L 115.2 28.8 
z
" style="fill: #ffffff"/>
   </g>
   <g id="matplotlib.axis_3">
    <g id="xtick_3">
     <g id="line2d_10">
      <g>
       <use xlink:href="#md1a41ebfd9" x="115.2" y="172.8" style="stroke: #000000; stroke-width: 0.8"/>
      </g>
     </g>
     <g id="text_10">
      <!-- −3 -->
      <g transform="translate(107.828906 187.398438) scale(0.1 -0.1)">
       <defs>
        <path id="DejaVuSans-2212" d="M 678 2272 
L 4684 2272 
L 4684 1741 
L 678 1741 
L 678 2272 
z
" transform="scale(0.015625)"/>
       </defs>
       <use xlink:href="#DejaVuSans-2212"/>
       <use xlink:href="#DejaVuSans-33" x="83.789062"/>
      </g>
     </g>
    </g>
    <g id="xtick_4">
     <g id="line2d_11">
      <g>
       <use xlink:href="#md1a41ebfd9" x="156.342857" y="172.8" style="stroke: #000000; stroke-width: 0.8"/>
      </g>
     </g>
     <g id="text_11">
      <!-- −2 -->
      <g transform="translate(148.971763 187.398438) scale(0.1 -0.1)">
       <use xlink:href="#DejaVuSans-2212"/>
       <use xlink:href="#DejaVuSans-32" x="83.789062"/>
      </g>
     </g>
    </g>
    <g id="xtick_5">
     <g id="line2d_12">
      <g>
       <use xlink:href="#md1a41ebfd9" x="197.485714" y="172.8" style="stroke: #000000; stroke-width: 0.8"/>
      </g>
     </g>
     <g id="text_12">
      <!-- −1 -->
      <g transform="translate(190.114621 187.398438) scale(0.1 -0.1)">
       <use xlink:href="#DejaVuSans-2212"/>
       <use xlink:href="#DejaVuSans-31" x="83.789062"/>
      </g>
     </g>
    </g>
    <g id="xtick_6">
     <g id="line2d_13">
      <g>
       <use xlink:href="#md1a41ebfd9" x="238.628571" y="172.8" style="stroke: #000000; stroke-width: 0.8"/>
      </g>
     </g>
     <g id="text_13">
      <!-- 0 -->
      <g transform="translate(235.447321 187.398438) scale(0.1 -0.1)">
       <use xlink:href="#DejaVuSans-30"/>
      </g>
     </g>
    </g>
   </g>
   <g id="matplotlib.axis_4">
    <g id="ytick_6">
     <g id="line2d_14">
      <g>
       <use xlink:href="#md860556562" x="115.2" y="156.8" style="stroke: #000000; stroke-width: 0.8"/>
      </g>
     </g>
     <g id="text_14">
      <!-- 0 -->
      <g transform="translate(101.8375 160.599219) scale(0.1 -0.1)">
       <use xlink:href="#DejaVuSans-30"/>
      </g>
     </g>
    </g>
    <g id="ytick_7">
     <g id="line2d_15">
      <g>
       <use xlink:href="#md860556562" x="115.2" y="124.8" style="stroke: #000000; stroke-width: 0.8"/>
      </g>
     </g>
     <g id="text_15">
      <!-- 1 -->
      <g transform="translate(101.8375 128.599219) scale(0.1 -0.1)">
       <use xlink:href="#DejaVuSans-31"/>
      </g>
     </g>
    </g>
    <g id="ytick_8">
     <g id="line2d_16">
      <g>
       <use xlink:href="#md860556562" x="115.2" y="92.8" style="stroke: #000000; stroke-width: 0.8"/>
      </g>
     </g>
     <g id="text_16">
      <!-- 2 -->
      <g transform="translate(101.8375 96.599219) scale(0.1 -0.1)">
       <use xlink:href="#DejaVuSans-32"/>
      </g>
     </g>
    </g>
    <g id="ytick_9">
     <g id="line2d_17">
      <g>
       <use xlink:href="#md860556562" x="115.2" y="60.8" style="stroke: #000000; stroke-width: 0.8"/>
      </g>
     </g>
     <g id="text_17">
      <!-- 3 -->
      <g transform="translate(101.8375 64.599219) scale(0.1 -0.1)">
       <use xlink:href="#DejaVuSans-33"/>
      </g>
     </g>
    </g>
    <g id="ytick_10">
     <g id="line2d_18">
      <g>
       <use xlink:href="#md860556562" x="115.2" y="28.8" style="stroke: #000000; stroke-width: 0.8"/>
      </g>
     </g>
     <g id="text_18">
      <!-- 4 -->
      <g transform="translate(101.8375 32.599219) scale(0.1 -0.1)">
       <use xlink:href="#DejaVuSans-34"/>
      </g>
     </g>
    </g>
   </g>
   <g id="patch_8">
    <path d="M 115.2 172.8 
L 115.2 28.8 
" style="fill: none; stroke: #000000; stroke-width: 0.8; stroke-linejoin: miter; stroke-linecap: square"/>
   </g>
   <g id="patch_9">
    <path d="M 259.2 172.8 
L 259.2 28.8 
" style="fill: none; stroke: #000000; stroke-width: 0.8; stroke-linejoin: miter; stroke-linecap: square"/>
   </g>
   <g id="patch_10">
    <path d="M 115.2 172.8 
L 259.2 172.8 
" style="fill: none; stroke: #000000; stroke-width: 0.8; stroke-linejoin: miter; stroke-linecap: square"/>
   </g>
   <g id="patch_11">
    <path d="M 115.2 28.8 
L 259.2 28.8 
" style="fill: none; stroke: #000000; stroke-width: 0.8; stroke-linejoin: miter; stroke-linecap: square"/>
   </g>
   <g id="text_19">
    <!-- 2D Model Space -->
    <g transform="translate(138.646875 22.8) scale(0.12 -0.12)">
     <defs>
      <path id="DejaVuSans-53" d="M 3425 4513 
L 3425 3897 
Q 3066 4069 2747 4153 
Q 2428 4238 2131 4238 
Q 1616 4238 1336 4038 
Q 1056 3838 1056 3469 
Q 1056 3159 1242 3001 
Q 1428 2844 1947 2747 
L 2328 2669 
Q 3034 2534 3370 2195 
Q 3706 1856 3706 1288 
Q 3706 609 3251 259 
Q 2797 -91 1919 -91 
Q 1588 -91 1214 -16 
Q 841 59 441 206 
L 441 856 
Q 825 641 1194 531 
Q 1563 422 1919 422 
Q 2459 422 2753 634 
Q 3047 847 3047 1241 
Q 3047 1584 2836 1778 
Q 2625 1972 2144 2069 
L 1759 2144 
Q 1053 2284 737 2584 
Q 422 2884 422 3419 
Q 422 4038 858 4394 
Q 1294 4750 2059 4750 
Q 2388 4750 2728 4690 
Q 3069 4631 3425 4513 
z
" transform="scale(0.015625)"/>
      <path id="DejaVuSans-70" d="M 1159 525 
L 1159 -1331 
L 581 -1331 
L 581 3500 
L 1159 3500 
L 1159 2969 
Q 1341 3281 1617 3432 
Q 1894 3584 2278 3584 
Q 2916 3584 3314 3078 
Q 3713 2572 3713 1747 
Q 3713 922 3314 415 
Q 2916 -91 2278 -91 
Q 1894 -91 1617 61 
Q 1341 213 1159 525 
z
M 3116 1747 
Q 3116 2381 2855 2742 
Q 2594 3103 2138 3103 
Q 1681 3103 1420 2742 
Q 1159 2381 1159 1747 
Q 1159 1113 1420 752 
Q 1681 391 2138 391 
Q 2594 391 2855 752 
Q 3116 1113 3116 1747 
z
" transform="scale(0.015625)"/>
      <path id="DejaVuSans-63" d="M 3122 3366 
L 3122 2828 
Q 2878 2963 2633 3030 
Q 2388 3097 2138 3097 
Q 1578 3097 1268 2742 
Q 959 2388 959 1747 
Q 959 1106 1268 751 
Q 1578 397 2138 397 
Q 2388 397 2633 464 
Q 2878 531 3122 666 
L 3122 134 
Q 2881 22 2623 -34 
Q 2366 -91 2075 -91 
Q 1284 -91 818 406 
Q 353 903 353 1747 
Q 353 2603 823 3093 
Q 1294 3584 2113 3584 
Q 2378 3584 2631 3529 
Q 2884 3475 3122 3366 
z
" transform="scale(0.015625)"/>
     </defs>
     <use xlink:href="#DejaVuSans-32"/>
     <use xlink:href="#DejaVuSans-44" x="63.623047"/>
     <use xlink:href="#DejaVuSans-20" x="140.625"/>
     <use xlink:href="#DejaVuSans-4d" x="172.412109"/>
     <use xlink:href="#DejaVuSans-6f" x="258.691406"/>
     <use xlink:href="#DejaVuSans-64" x="319.873047"/>
     <use xlink:href="#DejaVuSans-65" x="383.349609"/>
     <use xlink:href="#DejaVuSans-6c" x="444.873047"/>
     <use xlink:href="#DejaVuSans-20" x="472.65625"/>
     <use xlink:href="#DejaVuSans-53" x="504.443359"/>
     <use xlink:href="#DejaVuSans-70" x="567.919922"/>
     <use xlink:href="#DejaVuSans-61" x="631.396484"/>
     <use xlink:href="#DejaVuSans-63" x="692.675781"/>
     <use xlink:href="#DejaVuSans-65" x="747.65625"/>
    </g>
   </g>
   <g id="PathCollection_2">
    <g clip-path="url(#p8bd81e982c)">
     <use xlink:href="#m8a639b8e6a" x="238.49295" y="84.372158" style="fill: #ff0000; stroke: #ff0000; stroke-width: 1.5"/>
     <use xlink:href="#m8a639b8e6a" x="229.550705" y="63.637979" style="fill: #ff0000; stroke: #ff0000; stroke-width: 1.5"/>
     <use xlink:href="#m8a639b8e6a" x="239.456381" y="109.94503" style="fill: #ff0000; stroke: #ff0000; stroke-width: 1.5"/>
     <use xlink:href="#m8a639b8e6a" x="229.143618" y="116.24795" style="fill: #ff0000; stroke: #ff0000; stroke-width: 1.5"/>
     <use xlink:href="#m8a639b8e6a" x="207.826837" y="128.041437" style="fill: #ff0000; stroke: #ff0000; stroke-width: 1.5"/>
     <use xlink:href="#m8a639b8e6a" x="213.953639" y="106.613315" style="fill: #ff0000; stroke: #ff0000; stroke-width: 1.5"/>
     <use xlink:href="#m8a639b8e6a" x="226.251245" y="115.818798" style="fill: #ff0000; stroke: #ff0000; stroke-width: 1.5"/>
     <use xlink:href="#m8a639b8e6a" x="220.491723" y="119.023633" style="fill: #ff0000; stroke: #ff0000; stroke-width: 1.5"/>
     <use xlink:href="#m8a639b8e6a" x="235.797759" y="104.697818" style="fill: #ff0000; stroke: #ff0000; stroke-width: 1.5"/>
     <use xlink:href="#m8a639b8e6a" x="217.767" y="136.359418" style="fill: #ff0000; stroke: #ff0000; stroke-width: 1.5"/>
     <use xlink:href="#m8a639b8e6a" x="127.161781" y="151.423359" style="fill: #ff0000; stroke: #ff0000; stroke-width: 1.5"/>
     <use xlink:href="#m8a639b8e6a" x="227.879094" y="126.605069" style="fill: #ff0000; stroke: #ff0000; stroke-width: 1.5"/>
     <use xlink:href="#m8a639b8e6a" x="242.932264" y="109.093172" style="fill: #ff0000; stroke: #ff0000; stroke-width: 1.5"/>
     <use xlink:href="#m8a639b8e6a" x="211.592749" y="132.930249" style="fill: #ff0000; stroke: #ff0000; stroke-width: 1.5"/>
     <use xlink:href="#m8a639b8e6a" x="236.202777" y="64.967045" style="fill: #ff0000; stroke: #ff0000; stroke-width: 1.5"/>
     <use xlink:href="#m8a639b8e6a" x="214.209219" y="123.935283" style="fill: #ff0000; stroke: #ff0000; stroke-width: 1.5"/>
     <use xlink:href="#m8a639b8e6a" x="184.978341" y="152.981862" style="fill: #ff0000; stroke: #ff0000; stroke-width: 1.5"/>
     <use xlink:href="#m8a639b8e6a" x="201.196671" y="134.808307" style="fill: #ff0000; stroke: #ff0000; stroke-width: 1.5"/>
     <use xlink:href="#m8a639b8e6a" x="232.825764" y="81.862398" style="fill: #ff0000; stroke: #ff0000; stroke-width: 1.5"/>
     <use xlink:href="#m8a639b8e6a" x="200.081636" y="139.82537" style="fill: #ff0000; stroke: #ff0000; stroke-width: 1.5"/>
     <use xlink:href="#m8a639b8e6a" x="179.8143" y="151.836174" style="fill: #ff0000; stroke: #ff0000; stroke-width: 1.5"/>
     <use xlink:href="#m8a639b8e6a" x="157.563396" y="134.567248" style="fill: #ff0000; stroke: #ff0000; stroke-width: 1.5"/>
     <use xlink:href="#m8a639b8e6a" x="196.545396" y="142.328847" style="fill: #ff0000; stroke: #ff0000; stroke-width: 1.5"/>
     <use xlink:href="#m8a639b8e6a" x="173.079671" y="140.262731" style="fill: #ff0000; stroke: #ff0000; stroke-width: 1.5"/>
     <use xlink:href="#m8a639b8e6a" x="160.778202" y="149.907042" style="fill: #ff0000; stroke: #ff0000; stroke-width: 1.5"/>
     <use xlink:href="#m8a639b8e6a" x="184.734637" y="139.588481" style="fill: #ff0000; stroke: #ff0000; stroke-width: 1.5"/>
     <use xlink:href="#m8a639b8e6a" x="196.511542" y="147.449484" style="fill: #ff0000; stroke: #ff0000; stroke-width: 1.5"/>
     <use xlink:href="#m8a639b8e6a" x="209.750961" y="126.524737" style="fill: #ff0000; stroke: #ff0000; stroke-width: 1.5"/>
     <use xlink:href="#m8a639b8e6a" x="212.099831" y="126.555675" style="fill: #ff0000; stroke: #ff0000; stroke-width: 1.5"/>
     <use xlink:href="#m8a639b8e6a" x="192.831436" y="143.01536" style="fill: #ff0000; stroke: #ff0000; stroke-width: 1.5"/>
     <use xlink:href="#m8a639b8e6a" x="191.674626" y="143.371805" style="fill: #ff0000; stroke: #ff0000; stroke-width: 1.5"/>
     <use xlink:href="#m8a639b8e6a" x="187.329835" y="151.833157" style="fill: #ff0000; stroke: #ff0000; stroke-width: 1.5"/>
     <use xlink:href="#m8a639b8e6a" x="214.732023" y="133.413298" style="fill: #ff0000; stroke: #ff0000; stroke-width: 1.5"/>
     <use xlink:href="#m8a639b8e6a" x="160.21272" y="146.337642" style="fill: #ff0000; stroke: #ff0000; stroke-width: 1.5"/>
     <use xlink:href="#m8a639b8e6a" x="184.358612" y="142.557421" style="fill: #ff0000; stroke: #ff0000; stroke-width: 1.5"/>
     <use xlink:href="#m8a639b8e6a" x="225.724551" y="116.376812" style="fill: #ff0000; stroke: #ff0000; stroke-width: 1.5"/>
     <use xlink:href="#m8a639b8e6a" x="231.699893" y="128.354264" style="fill: #ff0000; stroke: #ff0000; stroke-width: 1.5"/>
     <use xlink:href="#m8a639b8e6a" x="219.648717" y="133.296781" style="fill: #ff0000; stroke: #ff0000; stroke-width: 1.5"/>
     <use xlink:href="#m8a639b8e6a" x="185.516247" y="146.656291" style="fill: #ff0000; stroke: #ff0000; stroke-width: 1.5"/>
     <use xlink:href="#m8a639b8e6a" x="202.214242" y="135.369578" style="fill: #ff0000; stroke: #ff0000; stroke-width: 1.5"/>
     <use xlink:href="#m8a639b8e6a" x="175.991825" y="138.077202" style="fill: #ff0000; stroke: #ff0000; stroke-width: 1.5"/>
     <use xlink:href="#m8a639b8e6a" x="220.926042" y="140.886773" style="fill: #ff0000; stroke: #ff0000; stroke-width: 1.5"/>
     <use xlink:href="#m8a639b8e6a" x="235.736168" y="54.633811" style="fill: #ff0000; stroke: #ff0000; stroke-width: 1.5"/>
     <use xlink:href="#m8a639b8e6a" x="232.195016" y="111.723243" style="fill: #ff0000; stroke: #ff0000; stroke-width: 1.5"/>
     <use xlink:href="#m8a639b8e6a" x="179.091279" y="135.286514" style="fill: #ff0000; stroke: #ff0000; stroke-width: 1.5"/>
     <use xlink:href="#m8a639b8e6a" x="199.629802" y="122.270113" style="fill: #ff0000; stroke: #ff0000; stroke-width: 1.5"/>
     <use xlink:href="#m8a639b8e6a" x="215.440453" y="113.597658" style="fill: #ff0000; stroke: #ff0000; stroke-width: 1.5"/>
     <use xlink:href="#m8a639b8e6a" x="218.691362" y="114.882603" style="fill: #ff0000; stroke: #ff0000; stroke-width: 1.5"/>
     <use xlink:href="#m8a639b8e6a" x="210.721359" y="103.631529" style="fill: #ff0000; stroke: #ff0000; stroke-width: 1.5"/>
     <use xlink:href="#m8a639b8e6a" x="213.549495" y="124.114661" style="fill: #ff0000; stroke: #ff0000; stroke-width: 1.5"/>
    </g>
   </g>
  </g>
  <g id="axes_3">
   <g id="patch_12">
    <path d="M 115.2 244.8 
L 259.2 244.8 
L 259.2 201.6 
L 115.2 201.6 
z
" style="fill: #ffffff"/>
   </g>
   <g id="PathCollection_3">
    <g clip-path="url(#p7fd087fc67)">
     <use xlink:href="#m8a639b8e6a" x="238.49295" y="242.836364" style="fill: #ff0000; stroke: #ff0000; stroke-width: 1.5"/>
     <use xlink:href="#m8a639b8e6a" x="229.550705" y="242.836364" style="fill: #ff0000; stroke: #ff0000; stroke-width: 1.5"/>
     <use xlink:href="#m8a639b8e6a" x="239.456381" y="242.836364" style="fill: #ff0000; stroke: #ff0000; stroke-width: 1.5"/>
     <use xlink:href="#m8a639b8e6a" x="229.143618" y="242.836364" style="fill: #ff0000; stroke: #ff0000; stroke-width: 1.5"/>
     <use xlink:href="#m8a639b8e6a" x="207.826837" y="242.836364" style="fill: #ff0000; stroke: #ff0000; stroke-width: 1.5"/>
     <use xlink:href="#m8a639b8e6a" x="213.953639" y="242.836364" style="fill: #ff0000; stroke: #ff0000; stroke-width: 1.5"/>
     <use xlink:href="#m8a639b8e6a" x="226.251245" y="242.836364" style="fill: #ff0000; stroke: #ff0000; stroke-width: 1.5"/>
     <use xlink:href="#m8a639b8e6a" x="220.491723" y="242.836364" style="fill: #ff0000; stroke: #ff0000; stroke-width: 1.5"/>
     <use xlink:href="#m8a639b8e6a" x="235.797759" y="242.836364" style="fill: #ff0000; stroke: #ff0000; stroke-width: 1.5"/>
     <use xlink:href="#m8a639b8e6a" x="217.767" y="242.836364" style="fill: #ff0000; stroke: #ff0000; stroke-width: 1.5"/>
     <use xlink:href="#m8a639b8e6a" x="127.161781" y="242.836364" style="fill: #ff0000; stroke: #ff0000; stroke-width: 1.5"/>
     <use xlink:href="#m8a639b8e6a" x="227.879094" y="242.836364" style="fill: #ff0000; stroke: #ff0000; stroke-width: 1.5"/>
     <use xlink:href="#m8a639b8e6a" x="242.932264" y="242.836364" style="fill: #ff0000; stroke: #ff0000; stroke-width: 1.5"/>
     <use xlink:href="#m8a639b8e6a" x="211.592749" y="242.836364" style="fill: #ff0000; stroke: #ff0000; stroke-width: 1.5"/>
     <use xlink:href="#m8a639b8e6a" x="236.202777" y="242.836364" style="fill: #ff0000; stroke: #ff0000; stroke-width: 1.5"/>
     <use xlink:href="#m8a639b8e6a" x="214.209219" y="242.836364" style="fill: #ff0000; stroke: #ff0000; stroke-width: 1.5"/>
     <use xlink:href="#m8a639b8e6a" x="184.978341" y="242.836364" style="fill: #ff0000; stroke: #ff0000; stroke-width: 1.5"/>
     <use xlink:href="#m8a639b8e6a" x="201.196671" y="242.836364" style="fill: #ff0000; stroke: #ff0000; stroke-width: 1.5"/>
     <use xlink:href="#m8a639b8e6a" x="232.825764" y="242.836364" style="fill: #ff0000; stroke: #ff0000; stroke-width: 1.5"/>
     <use xlink:href="#m8a639b8e6a" x="200.081636" y="242.836364" style="fill: #ff0000; stroke: #ff0000; stroke-width: 1.5"/>
     <use xlink:href="#m8a639b8e6a" x="179.8143" y="242.836364" style="fill: #ff0000; stroke: #ff0000; stroke-width: 1.5"/>
     <use xlink:href="#m8a639b8e6a" x="157.563396" y="242.836364" style="fill: #ff0000; stroke: #ff0000; stroke-width: 1.5"/>
     <use xlink:href="#m8a639b8e6a" x="196.545396" y="242.836364" style="fill: #ff0000; stroke: #ff0000; stroke-width: 1.5"/>
     <use xlink:href="#m8a639b8e6a" x="173.079671" y="242.836364" style="fill: #ff0000; stroke: #ff0000; stroke-width: 1.5"/>
     <use xlink:href="#m8a639b8e6a" x="160.778202" y="242.836364" style="fill: #ff0000; stroke: #ff0000; stroke-width: 1.5"/>
     <use xlink:href="#m8a639b8e6a" x="184.734637" y="242.836364" style="fill: #ff0000; stroke: #ff0000; stroke-width: 1.5"/>
     <use xlink:href="#m8a639b8e6a" x="196.511542" y="242.836364" style="fill: #ff0000; stroke: #ff0000; stroke-width: 1.5"/>
     <use xlink:href="#m8a639b8e6a" x="209.750961" y="242.836364" style="fill: #ff0000; stroke: #ff0000; stroke-width: 1.5"/>
     <use xlink:href="#m8a639b8e6a" x="212.099831" y="242.836364" style="fill: #ff0000; stroke: #ff0000; stroke-width: 1.5"/>
     <use xlink:href="#m8a639b8e6a" x="192.831436" y="242.836364" style="fill: #ff0000; stroke: #ff0000; stroke-width: 1.5"/>
     <use xlink:href="#m8a639b8e6a" x="191.674626" y="242.836364" style="fill: #ff0000; stroke: #ff0000; stroke-width: 1.5"/>
     <use xlink:href="#m8a639b8e6a" x="187.329835" y="242.836364" style="fill: #ff0000; stroke: #ff0000; stroke-width: 1.5"/>
     <use xlink:href="#m8a639b8e6a" x="214.732023" y="242.836364" style="fill: #ff0000; stroke: #ff0000; stroke-width: 1.5"/>
     <use xlink:href="#m8a639b8e6a" x="160.21272" y="242.836364" style="fill: #ff0000; stroke: #ff0000; stroke-width: 1.5"/>
     <use xlink:href="#m8a639b8e6a" x="184.358612" y="242.836364" style="fill: #ff0000; stroke: #ff0000; stroke-width: 1.5"/>
     <use xlink:href="#m8a639b8e6a" x="225.724551" y="242.836364" style="fill: #ff0000; stroke: #ff0000; stroke-width: 1.5"/>
     <use xlink:href="#m8a639b8e6a" x="231.699893" y="242.836364" style="fill: #ff0000; stroke: #ff0000; stroke-width: 1.5"/>
     <use xlink:href="#m8a639b8e6a" x="219.648717" y="242.836364" style="fill: #ff0000; stroke: #ff0000; stroke-width: 1.5"/>
     <use xlink:href="#m8a639b8e6a" x="185.516247" y="242.836364" style="fill: #ff0000; stroke: #ff0000; stroke-width: 1.5"/>
     <use xlink:href="#m8a639b8e6a" x="202.214242" y="242.836364" style="fill: #ff0000; stroke: #ff0000; stroke-width: 1.5"/>
     <use xlink:href="#m8a639b8e6a" x="175.991825" y="242.836364" style="fill: #ff0000; stroke: #ff0000; stroke-width: 1.5"/>
     <use xlink:href="#m8a639b8e6a" x="220.926042" y="242.836364" style="fill: #ff0000; stroke: #ff0000; stroke-width: 1.5"/>
     <use xlink:href="#m8a639b8e6a" x="235.736168" y="242.836364" style="fill: #ff0000; stroke: #ff0000; stroke-width: 1.5"/>
     <use xlink:href="#m8a639b8e6a" x="232.195016" y="242.836364" style="fill: #ff0000; stroke: #ff0000; stroke-width: 1.5"/>
     <use xlink:href="#m8a639b8e6a" x="179.091279" y="242.836364" style="fill: #ff0000; stroke: #ff0000; stroke-width: 1.5"/>
     <use xlink:href="#m8a639b8e6a" x="199.629802" y="242.836364" style="fill: #ff0000; stroke: #ff0000; stroke-width: 1.5"/>
     <use xlink:href="#m8a639b8e6a" x="215.440453" y="242.836364" style="fill: #ff0000; stroke: #ff0000; stroke-width: 1.5"/>
     <use xlink:href="#m8a639b8e6a" x="218.691362" y="242.836364" style="fill: #ff0000; stroke: #ff0000; stroke-width: 1.5"/>
     <use xlink:href="#m8a639b8e6a" x="210.721359" y="242.836364" style="fill: #ff0000; stroke: #ff0000; stroke-width: 1.5"/>
     <use xlink:href="#m8a639b8e6a" x="213.549495" y="242.836364" style="fill: #ff0000; stroke: #ff0000; stroke-width: 1.5"/>
    </g>
   </g>
   <g id="matplotlib.axis_5">
    <g id="xtick_7">
     <g id="line2d_19">
      <g>
       <use xlink:href="#md1a41ebfd9" x="115.2" y="244.8" style="stroke: #000000; stroke-width: 0.8"/>
      </g>
     </g>
     <g id="text_20">
      <!-- −3 -->
      <g transform="translate(107.828906 259.398438) scale(0.1 -0.1)">
       <use xlink:href="#DejaVuSans-2212"/>
       <use xlink:href="#DejaVuSans-33" x="83.789062"/>
      </g>
     </g>
    </g>
    <g id="xtick_8">
     <g id="line2d_20">
      <g>
       <use xlink:href="#md1a41ebfd9" x="156.342857" y="244.8" style="stroke: #000000; stroke-width: 0.8"/>
      </g>
     </g>
     <g id="text_21">
      <!-- −2 -->
      <g transform="translate(148.971763 259.398438) scale(0.1 -0.1)">
       <use xlink:href="#DejaVuSans-2212"/>
       <use xlink:href="#DejaVuSans-32" x="83.789062"/>
      </g>
     </g>
    </g>
    <g id="xtick_9">
     <g id="line2d_21">
      <g>
       <use xlink:href="#md1a41ebfd9" x="197.485714" y="244.8" style="stroke: #000000; stroke-width: 0.8"/>
      </g>
     </g>
     <g id="text_22">
      <!-- −1 -->
      <g transform="translate(190.114621 259.398438) scale(0.1 -0.1)">
       <use xlink:href="#DejaVuSans-2212"/>
       <use xlink:href="#DejaVuSans-31" x="83.789062"/>
      </g>
     </g>
    </g>
    <g id="xtick_10">
     <g id="line2d_22">
      <g>
       <use xlink:href="#md1a41ebfd9" x="238.628571" y="244.8" style="stroke: #000000; stroke-width: 0.8"/>
      </g>
     </g>
     <g id="text_23">
      <!-- 0 -->
      <g transform="translate(235.447321 259.398438) scale(0.1 -0.1)">
       <use xlink:href="#DejaVuSans-30"/>
      </g>
     </g>
    </g>
    <g id="text_24">
     <!-- Model variable 1 -->
     <g transform="translate(145.655469 273.076563) scale(0.1 -0.1)">
      <use xlink:href="#DejaVuSans-4d"/>
      <use xlink:href="#DejaVuSans-6f" x="86.279297"/>
      <use xlink:href="#DejaVuSans-64" x="147.460938"/>
      <use xlink:href="#DejaVuSans-65" x="210.9375"/>
      <use xlink:href="#DejaVuSans-6c" x="272.460938"/>
      <use xlink:href="#DejaVuSans-20" x="300.244141"/>
      <use xlink:href="#DejaVuSans-76" x="332.03125"/>
      <use xlink:href="#DejaVuSans-61" x="391.210938"/>
      <use xlink:href="#DejaVuSans-72" x="452.490234"/>
      <use xlink:href="#DejaVuSans-69" x="493.603516"/>
      <use xlink:href="#DejaVuSans-61" x="521.386719"/>
      <use xlink:href="#DejaVuSans-62" x="582.666016"/>
      <use xlink:href="#DejaVuSans-6c" x="646.142578"/>
      <use xlink:href="#DejaVuSans-65" x="673.925781"/>
      <use xlink:href="#DejaVuSans-20" x="735.449219"/>
      <use xlink:href="#DejaVuSans-31" x="767.236328"/>
     </g>
    </g>
   </g>
   <g id="matplotlib.axis_6">
    <g id="ytick_11">
     <g id="line2d_23">
      <g>
       <use xlink:href="#md860556562" x="115.2" y="242.836364" style="stroke: #000000; stroke-width: 0.8"/>
      </g>
     </g>
     <g id="text_25">
      <!-- 0.0 -->
      <g transform="translate(92.296875 246.635582) scale(0.1 -0.1)">
       <use xlink:href="#DejaVuSans-30"/>
       <use xlink:href="#DejaVuSans-2e" x="63.623047"/>
       <use xlink:href="#DejaVuSans-30" x="95.410156"/>
      </g>
     </g>
    </g>
    <g id="ytick_12">
     <g id="line2d_24">
      <g>
       <use xlink:href="#md860556562" x="115.2" y="216.910033" style="stroke: #000000; stroke-width: 0.8"/>
      </g>
     </g>
     <g id="text_26">
      <!-- 0.5 -->
      <g transform="translate(92.296875 220.709252) scale(0.1 -0.1)">
       <use xlink:href="#DejaVuSans-30"/>
       <use xlink:href="#DejaVuSans-2e" x="63.623047"/>
       <use xlink:href="#DejaVuSans-35" x="95.410156"/>
      </g>
     </g>
    </g>
    <g id="text_27">
     <!-- PDF -->
     <g transform="translate(86.217187 232.940625) rotate(-90) scale(0.1 -0.1)">
      <use xlink:href="#DejaVuSans-50"/>
      <use xlink:href="#DejaVuSans-44" x="60.302734"/>
      <use xlink:href="#DejaVuSans-46" x="137.304688"/>
     </g>
    </g>
   </g>
   <g id="line2d_25">
    <path d="M 115.2 242.324766 
L 116.64 242.271132 
L 118.08 242.212593 
L 119.52 242.148785 
L 120.96 242.079323 
L 122.4 242.003803 
L 123.84 241.921804 
L 125.28 241.832887 
L 126.72 241.736592 
L 128.16 241.632446 
L 129.6 241.519955 
L 131.04 241.398611 
L 132.48 241.26789 
L 133.92 241.127256 
L 135.36 240.976156 
L 136.8 240.814031 
L 138.24 240.640307 
L 139.68 240.454408 
L 141.12 240.255747 
L 142.56 240.043738 
L 144 239.817792 
L 145.44 239.577324 
L 146.88 239.321752 
L 148.32 239.050504 
L 149.76 238.763018 
L 151.2 238.458751 
L 152.64 238.137174 
L 154.08 237.797785 
L 155.52 237.440107 
L 156.96 237.063695 
L 158.4 236.668139 
L 159.84 236.253071 
L 161.28 235.818165 
L 162.72 235.363146 
L 164.16 234.887792 
L 165.6 234.39194 
L 167.04 233.875489 
L 168.48 233.338404 
L 169.92 232.780725 
L 171.36 232.202563 
L 172.8 231.604111 
L 174.24 230.985646 
L 175.68 230.347528 
L 177.12 229.69021 
L 178.56 229.014234 
L 180 228.320239 
L 181.44 227.608959 
L 182.88 226.881225 
L 184.32 226.137968 
L 185.76 225.380217 
L 187.2 224.609098 
L 188.64 223.825838 
L 190.08 223.031757 
L 191.52 222.228272 
L 192.96 221.416888 
L 194.4 220.599202 
L 195.84 219.776892 
L 197.28 218.951716 
L 198.72 218.125506 
L 200.16 217.300164 
L 201.6 216.477652 
L 203.04 215.659984 
L 204.48 214.849226 
L 205.92 214.047479 
L 207.36 213.256873 
L 208.8 212.479562 
L 210.24 211.717708 
L 211.68 210.973478 
L 213.12 210.249026 
L 214.56 209.546492 
L 216 208.867982 
L 217.44 208.215567 
L 218.88 207.591264 
L 220.32 206.997031 
L 221.76 206.434757 
L 223.2 205.906247 
L 224.64 205.413219 
L 226.08 204.957306 
L 227.52 204.540162 
L 228.96 204.164345 
L 230.4 203.838296 
L 231.84 203.597077 
L 233.28 203.563636 
L 234.72 204.065238 
L 236.16 205.727147 
L 237.6 209.318891 
L 239.04 215.200326 
L 240.48 222.714921 
L 241.92 230.26565 
L 243.36 236.247223 
L 244.8 239.986307 
L 246.24 241.831208 
L 247.68 242.549789 
L 249.12 242.770723 
L 250.56 242.824339 
L 252 242.834608 
L 253.44 242.83616 
L 254.88 242.836345 
L 256.32 242.836362 
L 257.76 242.836364 
L 259.2 242.836364 
" clip-path="url(#p7fd087fc67)" style="fill: none; stroke: #ff0000; stroke-opacity: 0; stroke-width: 1.5; stroke-linecap: square"/>
   </g>
   <g id="line2d_26">
    <path d="M 115.2 242.324766 
L 116.64 242.271132 
L 118.08 242.212593 
L 119.52 242.148785 
L 120.96 242.079323 
L 122.4 242.003803 
L 123.84 241.921804 
L 125.28 241.832887 
L 126.72 241.736592 
L 128.16 241.632446 
L 129.6 241.519955 
L 131.04 241.398611 
L 132.48 241.26789 
L 133.92 241.127256 
L 135.36 240.976156 
L 136.8 240.814031 
L 138.24 240.640307 
L 139.68 240.454408 
L 141.12 240.255747 
L 142.56 240.043738 
L 144 239.817792 
L 145.44 239.577324 
L 146.88 239.321752 
L 148.32 239.050504 
L 149.76 238.763018 
L 151.2 238.458751 
L 152.64 238.137174 
L 154.08 237.797785 
L 155.52 237.440107 
L 156.96 237.063695 
L 158.4 236.668139 
L 159.84 236.253071 
L 161.28 235.818165 
L 162.72 235.363146 
L 164.16 234.887792 
L 165.6 234.39194 
L 167.04 233.875489 
L 168.48 233.338404 
L 169.92 232.780725 
L 171.36 232.202563 
L 172.8 231.604111 
L 174.24 230.985646 
L 175.68 230.347528 
L 177.12 229.69021 
L 178.56 229.014234 
L 180 228.320239 
L 181.44 227.608959 
L 182.88 226.881225 
L 184.32 226.137968 
L 185.76 225.380217 
L 187.2 224.609098 
L 188.64 223.825838 
L 190.08 223.031757 
L 191.52 222.228272 
L 192.96 221.416888 
L 194.4 220.599202 
L 195.84 219.776892 
L 197.28 218.951716 
L 198.72 218.125506 
L 200.16 217.300164 
L 201.6 216.477652 
L 203.04 215.659984 
L 204.48 214.849226 
L 205.92 214.047479 
L 207.36 213.256873 
L 208.8 212.479562 
L 210.24 211.717708 
L 211.68 210.973478 
L 213.12 210.249026 
L 214.56 209.546492 
L 216 208.867982 
L 217.44 208.215567 
L 218.88 207.591264 
L 220.32 206.997031 
L 221.76 206.434757 
L 223.2 205.906247 
L 224.64 205.413219 
L 226.08 204.957306 
L 227.52 204.540162 
L 228.96 204.164345 
L 230.4 203.838296 
L 231.84 203.597077 
L 233.28 203.563636 
L 234.72 204.065238 
L 236.16 205.727147 
L 237.6 209.318891 
L 239.04 215.200326 
L 240.48 222.714921 
L 241.92 230.26565 
L 243.36 236.247223 
L 244.8 239.986307 
L 246.24 241.831208 
L 247.68 242.549789 
L 249.12 242.770723 
L 250.56 242.824339 
L 252 242.834608 
L 253.44 242.83616 
L 254.88 242.836345 
L 256.32 242.836362 
L 257.76 242.836364 
L 259.2 242.836364 
" clip-path="url(#p7fd087fc67)" style="fill: none; stroke: #ff0000; stroke-width: 1.5; stroke-linecap: square"/>
   </g>
   <g id="patch_13">
    <path d="M 115.2 244.8 
L 115.2 201.6 
" style="fill: none; stroke: #000000; stroke-width: 0.8; stroke-linejoin: miter; stroke-linecap: square"/>
   </g>
   <g id="patch_14">
    <path d="M 259.2 244.8 
L 259.2 201.6 
" style="fill: none; stroke: #000000; stroke-width: 0.8; stroke-linejoin: miter; stroke-linecap: square"/>
   </g>
   <g id="patch_15">
    <path d="M 115.2 244.8 
L 259.2 244.8 
" style="fill: none; stroke: #000000; stroke-width: 0.8; stroke-linejoin: miter; stroke-linecap: square"/>
   </g>
   <g id="patch_16">
    <path d="M 115.2 201.6 
L 259.2 201.6 
" style="fill: none; stroke: #000000; stroke-width: 0.8; stroke-linejoin: miter; stroke-linecap: square"/>
   </g>
  </g>
 </g>
 <defs>
  <clipPath id="p40ea7c8e73">
   <rect x="43.2" y="28.8" width="43.2" height="144"/>
  </clipPath>
  <clipPath id="p8bd81e982c">
   <rect x="115.2" y="28.8" width="144" height="144"/>
  </clipPath>
  <clipPath id="p7fd087fc67">
   <rect x="115.2" y="201.6" width="144" height="43.2"/>
  </clipPath>
 </defs>
</svg>
